<svg width="333" height="174" viewBox="0 0 333 174" fill="none" xmlns="http://www.w3.org/2000/svg">
<path fill-rule="evenodd" clip-rule="evenodd" d="M303.827 14H28.8633C20.6545 14 14 20.6545 14 28.8633V144.137C14 152.345 20.6545 159 28.8633 159H303.827C312.036 159 318.691 152.345 318.691 144.137V28.8633C318.691 20.6545 312.036 14 303.827 14ZM28.8633 13C20.1022 13 13 20.1022 13 28.8633V144.137C13 152.898 20.1023 160 28.8633 160H303.827C312.588 160 319.691 152.898 319.691 144.137V28.8633C319.691 20.1022 312.588 13 303.827 13H28.8633Z" fill="#D6E7FF"/>
<path fill-rule="evenodd" clip-rule="evenodd" d="M333 0H0V174H333V0ZM28.8633 13C20.1022 13 13 20.1022 13 28.8633V144.137C13 152.898 20.1023 160 28.8633 160H303.827C312.588 160 319.691 152.898 319.691 144.137V28.8633C319.691 20.1022 312.588 13 303.827 13H28.8633Z" fill="#F9F9F9"/>
</svg>
