<svg width="112" height="60" viewBox="0 0 112 60" fill="none" xmlns="http://www.w3.org/2000/svg">
<g filter="url(#filter0_i_1153_9961)">
<rect width="112" height="60" rx="10" fill="white"/>
</g>
<path d="M66.6821 44.7645C66.6069 44.7711 66.5312 44.7711 66.456 44.7645C66.1167 44.6967 65.7729 44.6107 65.4427 44.5112C65.1125 44.4117 64.8592 44.086 64.538 43.9594C64.2169 43.8327 63.769 43.982 63.4569 43.8327C63.1448 43.6834 62.8508 43.4708 62.5522 43.3035C62.2537 43.1361 62.0411 42.8014 61.747 42.6159C61.453 42.4304 61.1002 42.3309 60.8197 42.1273C60.5393 41.9238 60.3674 41.5981 60.0779 41.3855C59.7884 41.1729 59.4084 41.0915 59.1732 40.8698C58.938 40.6482 58.7615 40.2682 58.5173 40.0375C58.273 39.8068 57.9473 39.5852 57.7166 39.3635C57.4859 39.1419 57.0607 38.9926 56.8436 38.7528C56.6265 38.5131 56.4908 37.9296 56.2917 37.6943C56.0927 37.9296 55.9751 38.4452 55.7127 38.7302C55.4504 39.0152 55.2604 39.2188 54.9844 39.4811C54.7085 39.7435 54.505 39.9697 54.2426 40.2184C53.9802 40.4672 53.65 40.5939 53.3831 40.8291C53.1162 41.0643 52.777 41.1729 52.5011 41.3945C52.2251 41.6162 51.9718 41.8469 51.6868 42.0414C51.4018 42.2359 51.2345 42.6159 50.9405 42.8059C50.6464 42.9959 50.3298 43.1406 50.0358 43.3125C49.7417 43.4844 49.2939 43.3849 48.9818 43.5387C48.6697 43.6925 48.439 44.0182 48.1133 44.1493C47.7876 44.2805 47.4076 44.2172 47.0729 44.3167C46.7382 44.4162 46.4667 44.7329 46.1229 44.8053C45.8189 44.8772 45.4994 44.8421 45.2182 44.7057C44.978 44.4985 44.8179 44.2136 44.7659 43.9006C44.7071 43.6065 44.983 43.3713 45.1368 43.1361C45.1953 43.021 45.2789 42.9206 45.3815 42.8423C45.4841 42.764 45.603 42.7098 45.7294 42.6837C46.0685 42.6159 46.4038 42.5298 46.7336 42.4259C47.0593 42.3219 47.3579 42.1319 47.6745 41.9962C47.9911 41.8605 48.3485 41.8107 48.6516 41.6524C48.9547 41.4941 49.1039 41.0553 49.3889 40.8789C49.6739 40.7025 49.9679 40.526 50.2484 40.3315C50.5288 40.137 50.9178 40.0827 51.1847 39.8792C51.4516 39.6756 51.8044 39.5354 52.0577 39.3183C52.3111 39.1011 52.3834 38.6398 52.6232 38.4136C52.8629 38.1874 53.3696 38.1693 53.6003 37.9386C53.831 37.7079 53.9893 37.3234 54.2019 37.0882C54.4145 36.853 54.6542 36.5228 54.8578 36.3011C55.0791 36.0349 55.3244 35.7896 55.5906 35.5683C55.7941 35.2879 55.9977 35.0436 56.346 35.0436C56.5251 35.0282 56.7054 35.0522 56.8742 35.1139C57.043 35.1757 57.1962 35.2736 57.3231 35.4009C57.4821 35.7044 57.6715 35.9908 57.8885 36.2559C58.074 36.4821 58.3409 36.7082 58.5761 37.0113C58.8113 37.3144 59.1325 37.3913 59.3903 37.6491C59.6481 37.9069 59.6662 38.3186 59.9286 38.5538C60.191 38.789 60.4352 39.0062 60.7021 39.2323C60.969 39.4585 61.1545 39.7299 61.4485 39.9425C61.7425 40.1551 62.0999 40.2139 62.3848 40.3949C62.6698 40.5758 62.801 41.0101 63.095 41.191C63.3891 41.3719 63.7645 41.4172 64.0676 41.5755C64.3706 41.7338 64.7099 41.8288 65.0266 41.96C65.3432 42.0912 65.696 42.1047 66.0217 42.2088C66.3497 42.2903 66.6819 42.3538 67.0169 42.3988C67.3109 42.4621 67.519 42.8104 67.6728 43.0411C67.748 43.1603 67.7987 43.2933 67.822 43.4323C67.8453 43.5713 67.8407 43.7136 67.8085 43.8508C67.7646 44.1143 67.6258 44.3527 67.4184 44.521C67.2109 44.6893 66.9491 44.7759 66.6821 44.7645Z" fill="#383838"/>
<path d="M39.7396 28.1953C39.5488 28.2129 39.3564 28.1913 39.1742 28.1319C38.9073 27.9917 38.645 27.752 38.3057 27.5891C37.9664 27.4263 37.79 27.1368 37.4598 26.9739C37.1296 26.8111 36.831 26.7432 36.5054 26.5985C36.1797 26.4537 35.8585 26.3904 35.5373 26.2502C35.2162 26.1099 34.8905 26.0421 34.5693 25.9064C34.2481 25.7707 33.9134 25.7209 33.5922 25.5897C33.2711 25.4586 32.9997 25.2324 32.6875 25.1012C32.3754 24.97 32.0362 24.8841 31.7195 24.7574C31.4029 24.6308 31.1134 24.4136 30.8148 24.3051C30.5163 24.1965 30.1634 24.0834 29.8423 23.9613C29.5211 23.8392 29.2271 23.6356 28.9104 23.509C28.5938 23.3823 28.1867 23.4773 27.87 23.3642C27.5534 23.2511 27.2186 23.1154 26.902 23.0114C26.5854 22.9073 26.2959 22.6178 25.9973 22.5183C25.6988 22.4188 25.3278 22.2786 25.0202 22.1926C24.7127 22.1067 24.3055 22.0569 24.007 21.9891C23.7084 21.9212 23.4144 21.8805 23.2651 21.6453C23.0755 21.3936 22.9823 21.0822 23.0028 20.7677C23.0661 20.4737 23.4099 20.2747 23.6451 20.1254C23.7693 20.0713 23.9032 20.0435 24.0386 20.0435C24.174 20.0435 24.308 20.0713 24.4322 20.1254C24.7262 20.1887 25.0429 20.2701 25.3912 20.3651C25.7395 20.4601 26.0606 20.3651 26.3954 20.4737C26.7301 20.5823 27.0558 20.5506 27.3815 20.6592C27.7072 20.7677 27.9876 20.926 28.3088 21.0391C28.63 21.1522 28.8426 21.5141 29.1592 21.6272C29.4759 21.7403 29.797 21.7991 30.1137 21.9167C30.4303 22.0343 30.8058 21.9529 31.1224 22.0705C31.4391 22.1881 31.6652 22.5002 31.9774 22.6223C32.2895 22.7445 32.6333 22.7807 32.9409 22.9028C33.2485 23.0249 33.5832 23.0973 33.8908 23.2194L34.8181 23.5994C35.1302 23.7261 35.3564 24.0518 35.6594 24.1694C35.9625 24.287 36.3923 24.1694 36.6908 24.3051C36.9894 24.4408 37.2924 24.6217 37.5955 24.7574C37.8986 24.8931 38.2514 24.961 38.5409 25.0967C38.8304 25.2324 39.1425 25.4314 39.4456 25.549C39.7487 25.6666 40.0291 25.9426 40.296 26.0783C40.5762 26.1846 40.8057 26.3931 40.9384 26.6618C40.9943 26.958 40.9378 27.2644 40.78 27.5213C40.6853 27.7184 40.5381 27.8856 40.3546 28.0045C40.171 28.1234 39.9582 28.1894 39.7396 28.1953Z" fill="#383838"/>
<path d="M72.7961 28.1953C72.5987 28.1724 72.411 28.0976 72.252 27.9784C72.093 27.8591 71.9686 27.6999 71.8914 27.5168C71.7278 27.274 71.6631 26.9779 71.7104 26.689C71.7991 26.3881 71.9956 26.1304 72.2623 25.9652C72.5247 25.8295 72.8504 25.7255 73.167 25.5717C73.4837 25.4179 73.7234 25.2279 74.04 25.0831C74.3567 24.9384 74.6914 24.9339 75.0035 24.7936C75.3157 24.6534 75.664 24.6625 75.9761 24.5268C76.2882 24.391 76.4963 24.0744 76.8084 23.9387C77.1205 23.803 77.5005 23.8754 77.8081 23.7442C78.1157 23.613 78.3554 23.328 78.663 23.2014C78.9706 23.0747 79.2646 22.9073 79.5677 22.7807C79.8708 22.654 80.1693 22.4912 80.4724 22.369C80.7755 22.2469 81.1917 22.3691 81.5038 22.2605C81.8159 22.1519 82.1235 22.0207 82.4356 21.9077C82.7477 21.7946 83.0553 21.6543 83.3674 21.5413C83.6796 21.4282 83.9917 21.2879 84.2993 21.1839C84.6069 21.0799 84.9507 21.003 85.2583 20.8989C85.5659 20.7949 85.8644 20.5687 86.163 20.4737C86.4615 20.3787 86.8053 20.2295 87.1084 20.1435C87.4114 20.0576 87.8185 20.1435 88.1126 20.0711C88.3807 19.969 88.6783 19.9771 88.9404 20.0937C89.1799 20.2666 89.3423 20.5264 89.3927 20.8175C89.4561 21.107 89.2751 21.306 89.1304 21.5413C88.9856 21.7765 88.9223 22.1972 88.6283 22.2605C88.3342 22.3238 87.9588 22.2605 87.6014 22.3555C87.2441 22.4505 86.9455 22.4867 86.6017 22.5952C86.258 22.7038 85.9323 22.6993 85.593 22.8124C85.2537 22.9254 85.0185 23.2195 84.6883 23.3371C84.3581 23.4547 84.0415 23.5361 83.7112 23.6537C83.381 23.7713 83.0598 23.8482 82.7342 23.9658C82.4085 24.0834 82.0918 24.192 81.7661 24.3142C81.4405 24.4363 81.1962 24.7348 80.8615 24.857C80.5267 24.9791 80.1739 24.9836 79.8572 25.1103C79.5406 25.2369 79.1968 25.3229 78.8847 25.4495C78.5725 25.5762 78.2876 25.8159 77.98 25.9471C77.6724 26.0783 77.306 26.1281 76.9984 26.2592C76.6908 26.3904 76.3199 26.4492 76.0168 26.5849C75.7137 26.7206 75.3926 26.9151 75.1121 27.0373C74.8317 27.1594 74.4517 27.3042 74.1667 27.4399C73.8817 27.5756 73.642 28.0098 73.3706 28.1455C73.1849 28.2031 72.9889 28.22 72.7961 28.1953Z" fill="#383838"/>
<path d="M60.8646 30.9506C60.8242 31.2407 60.7355 31.522 60.6022 31.7829C60.5517 32.0733 60.449 32.3523 60.2991 32.6061C60.0811 32.8081 59.836 32.9787 59.5708 33.1128C59.27 33.3593 58.9348 33.5605 58.5757 33.7099C58.1991 33.81 57.8148 33.8781 57.4267 33.9134C57.0406 33.9282 56.6539 33.9207 56.2687 33.8908C55.883 33.9132 55.4964 33.9132 55.1107 33.8908C54.7321 33.8162 54.3612 33.7072 54.0024 33.5651C53.6261 33.479 53.2637 33.3404 52.9259 33.1535C52.6913 32.9781 52.4853 32.7676 52.3152 32.5292C52.1337 32.3049 51.9956 32.0488 51.9081 31.7738C51.8225 31.5019 51.7843 31.2173 51.795 30.9325C51.7832 30.6472 51.8231 30.3622 51.9126 30.0911C51.9977 29.8156 52.1326 29.558 52.3106 29.3312C52.5075 29.1207 52.7347 28.9408 52.9847 28.7974C53.287 28.559 53.6222 28.3655 53.9798 28.2229C54.3538 28.1311 54.7353 28.0735 55.1197 28.051C55.4993 27.9789 55.8831 27.9305 56.2687 27.9062C56.654 27.9483 57.0363 28.0148 57.4131 28.1053C57.7986 28.1116 58.1828 28.1494 58.5621 28.2184C58.9346 28.3183 59.291 28.4706 59.6206 28.6707C59.8753 28.8294 60.1067 29.0228 60.3082 29.2452C60.4637 29.4982 60.5724 29.777 60.6293 30.0685C60.7604 30.3459 60.8401 30.6447 60.8646 30.9506Z" fill="#FF7777"/>
<defs>
<filter id="filter0_i_1153_9961" x="0" y="-4" width="112" height="64" filterUnits="userSpaceOnUse" color-interpolation-filters="sRGB">
<feFlood flood-opacity="0" result="BackgroundImageFix"/>
<feBlend mode="normal" in="SourceGraphic" in2="BackgroundImageFix" result="shape"/>
<feColorMatrix in="SourceAlpha" type="matrix" values="0 0 0 0 0 0 0 0 0 0 0 0 0 0 0 0 0 0 127 0" result="hardAlpha"/>
<feOffset dy="-4"/>
<feGaussianBlur stdDeviation="5"/>
<feComposite in2="hardAlpha" operator="arithmetic" k2="-1" k3="1"/>
<feColorMatrix type="matrix" values="0 0 0 0 0.341176 0 0 0 0 0.615686 0 0 0 0 1 0 0 0 0.3 0"/>
<feBlend mode="normal" in2="shape" result="effect1_innerShadow_1153_9961"/>
</filter>
</defs>
</svg>
