<?xml version="1.0" encoding="utf-8"?>
<!-- Generator: Adobe Illustrator 27.5.0, SVG Export Plug-In . SVG Version: 6.00 Build 0)  -->
<svg version="1.1" id="레이어_1" xmlns="http://www.w3.org/2000/svg" xmlns:xlink="http://www.w3.org/1999/xlink" x="0px"
	 y="0px" viewBox="0 0 68 27.5" style="enable-background:new 0 0 68 27.5;" xml:space="preserve">
<style type="text/css">
	.st0{fill:#383838;}
	.st1{fill:#FF7777;}
</style>
<path class="st0" d="M44.7,27.2c-0.1,0-0.2,0-0.2,0c-0.3-0.1-0.7-0.2-1-0.3c-0.3-0.1-0.6-0.4-0.9-0.6c-0.3-0.1-0.8,0-1.1-0.1
	c-0.3-0.1-0.6-0.4-0.9-0.5c-0.3-0.2-0.5-0.5-0.8-0.7c-0.3-0.2-0.6-0.3-0.9-0.5c-0.3-0.2-0.5-0.5-0.7-0.7c-0.3-0.2-0.7-0.3-0.9-0.5
	c-0.2-0.2-0.4-0.6-0.7-0.8s-0.6-0.5-0.8-0.7c-0.2-0.2-0.7-0.4-0.9-0.6c-0.2-0.2-0.4-0.8-0.6-1.1c-0.2,0.2-0.3,0.8-0.6,1
	c-0.3,0.3-0.5,0.5-0.7,0.8c-0.3,0.3-0.5,0.5-0.7,0.7c-0.3,0.2-0.6,0.4-0.9,0.6c-0.3,0.2-0.6,0.3-0.9,0.6c-0.3,0.2-0.5,0.5-0.8,0.6
	c-0.3,0.2-0.5,0.6-0.7,0.8c-0.3,0.2-0.6,0.3-0.9,0.5S27.3,25.8,27,26c-0.3,0.2-0.5,0.5-0.9,0.6c-0.3,0.1-0.7,0.1-1,0.2
	c-0.3,0.1-0.6,0.4-0.9,0.5c-0.3,0.1-0.6,0-0.9-0.1c-0.2-0.2-0.4-0.5-0.5-0.8c-0.1-0.3,0.2-0.5,0.4-0.8c0.1-0.1,0.1-0.2,0.2-0.3
	c0.1-0.1,0.2-0.1,0.3-0.2c0.3-0.1,0.7-0.2,1-0.3c0.3-0.1,0.6-0.3,0.9-0.4c0.3-0.1,0.7-0.2,1-0.3c0.3-0.2,0.5-0.6,0.7-0.8
	c0.3-0.2,0.6-0.4,0.9-0.5c0.3-0.2,0.7-0.2,0.9-0.5c0.3-0.2,0.6-0.3,0.9-0.6c0.3-0.2,0.3-0.7,0.6-0.9c0.2-0.2,0.7-0.2,1-0.5
	c0.2-0.2,0.4-0.6,0.6-0.9c0.2-0.2,0.5-0.6,0.7-0.8c0.2-0.3,0.5-0.5,0.7-0.7c0.2-0.3,0.4-0.5,0.8-0.5c0.2,0,0.4,0,0.5,0.1
	c0.2,0.1,0.3,0.2,0.4,0.3c0.2,0.3,0.3,0.6,0.6,0.9c0.2,0.2,0.5,0.5,0.7,0.8c0.2,0.3,0.6,0.4,0.8,0.6c0.3,0.3,0.3,0.7,0.5,0.9
	c0.3,0.2,0.5,0.5,0.8,0.7c0.3,0.2,0.5,0.5,0.7,0.7c0.3,0.2,0.7,0.3,0.9,0.5c0.3,0.2,0.4,0.6,0.7,0.8c0.3,0.2,0.7,0.2,1,0.4
	s0.6,0.3,1,0.4c0.3,0.1,0.7,0.1,1,0.2c0.3,0.1,0.7,0.1,1,0.2c0.3,0.1,0.5,0.4,0.7,0.6c0.1,0.1,0.1,0.3,0.1,0.4s0,0.3,0,0.4
	c0,0.3-0.2,0.5-0.4,0.7S44.9,27.2,44.7,27.2z"/>
<path class="st0" d="M17.7,10.6c-0.2,0-0.4,0-0.6-0.1c-0.3-0.1-0.5-0.4-0.9-0.5c-0.3-0.2-0.5-0.5-0.8-0.6c-0.3-0.2-0.6-0.2-1-0.4
	c-0.3-0.1-0.6-0.2-1-0.3c-0.3-0.1-0.6-0.2-1-0.3c-0.3-0.1-0.7-0.2-1-0.3c-0.3-0.1-0.6-0.4-0.9-0.5c-0.3-0.1-0.7-0.2-1-0.3
	C9.4,7.1,9.1,6.9,8.8,6.8c-0.3-0.1-0.7-0.2-1-0.3C7.5,6.3,7.2,6.1,6.9,6c-0.3-0.1-0.7,0-1-0.1c-0.3-0.1-0.7-0.2-1-0.4
	C4.6,5.4,4.3,5.1,4,5S3.3,4.7,3,4.6C2.7,4.6,2.3,4.5,2,4.4C1.7,4.4,1.4,4.3,1.3,4.1C1.1,3.8,1,3.5,1,3.2c0.1-0.3,0.4-0.5,0.6-0.6
	C1.8,2.5,1.9,2.5,2,2.5c0.1,0,0.3,0,0.4,0.1c0.3,0.1,0.6,0.1,1,0.2c0.3,0.1,0.7,0,1,0.1C4.7,3,5.1,3,5.4,3.1C5.7,3.2,6,3.4,6.3,3.5
	C6.6,3.6,6.8,4,7.2,4.1c0.3,0.1,0.6,0.2,1,0.3c0.3,0.1,0.7,0,1,0.2C9.4,4.6,9.7,5,10,5.1c0.3,0.1,0.7,0.2,1,0.3
	c0.3,0.1,0.6,0.2,0.9,0.3L12.8,6c0.3,0.1,0.5,0.5,0.8,0.6c0.3,0.1,0.7,0,1,0.1c0.3,0.1,0.6,0.3,0.9,0.5c0.3,0.1,0.7,0.2,0.9,0.3
	c0.3,0.1,0.6,0.3,0.9,0.5c0.3,0.1,0.6,0.4,0.9,0.5c0.3,0.1,0.5,0.3,0.6,0.6c0.1,0.3,0,0.6-0.2,0.9c-0.1,0.2-0.2,0.4-0.4,0.5
	C18.2,10.6,18,10.6,17.7,10.6z"/>
<path class="st0" d="M50.8,10.6c-0.2,0-0.4-0.1-0.5-0.2c-0.2-0.1-0.3-0.3-0.4-0.5c-0.2-0.2-0.2-0.5-0.2-0.8c0.1-0.3,0.3-0.6,0.6-0.7
	c0.3-0.1,0.6-0.2,0.9-0.4c0.3-0.2,0.6-0.3,0.9-0.5c0.3-0.1,0.7-0.1,1-0.3c0.3-0.1,0.7-0.1,1-0.3c0.3-0.1,0.5-0.5,0.8-0.6
	c0.3-0.1,0.7-0.1,1-0.2c0.3-0.1,0.5-0.4,0.9-0.5c0.3-0.1,0.6-0.3,0.9-0.4c0.3-0.1,0.6-0.3,0.9-0.4c0.3-0.1,0.7,0,1-0.1
	c0.3-0.1,0.6-0.2,0.9-0.4c0.3-0.1,0.6-0.3,0.9-0.4c0.3-0.1,0.6-0.3,0.9-0.4c0.3-0.1,0.7-0.2,1-0.3c0.3-0.1,0.6-0.3,0.9-0.4
	c0.3-0.1,0.6-0.2,0.9-0.3c0.3-0.1,0.7,0,1-0.1c0.3-0.1,0.6-0.1,0.8,0c0.2,0.2,0.4,0.4,0.5,0.7c0.1,0.3-0.1,0.5-0.3,0.7
	c-0.1,0.2-0.2,0.7-0.5,0.7s-0.7,0-1,0.1c-0.4,0.1-0.7,0.1-1,0.2c-0.3,0.1-0.7,0.1-1,0.2c-0.3,0.1-0.6,0.4-0.9,0.5
	c-0.3,0.1-0.6,0.2-1,0.3s-0.7,0.2-1,0.3s-0.6,0.2-1,0.3c-0.3,0.1-0.6,0.4-0.9,0.5c-0.3,0.1-0.7,0.1-1,0.3c-0.3,0.1-0.7,0.2-1,0.3
	C56.6,8,56.3,8.3,56,8.4c-0.3,0.1-0.7,0.2-1,0.3c-0.3,0.1-0.7,0.2-1,0.3c-0.3,0.1-0.6,0.3-0.9,0.5c-0.3,0.1-0.7,0.3-0.9,0.4
	s-0.5,0.6-0.8,0.7C51.2,10.7,51,10.7,50.8,10.6z"/>
<path class="st1" d="M38.9,13.4c0,0.3-0.1,0.6-0.3,0.8c-0.1,0.3-0.2,0.6-0.3,0.8c-0.2,0.2-0.5,0.4-0.7,0.5c-0.3,0.2-0.6,0.4-1,0.6
	c-0.4,0.1-0.8,0.2-1.1,0.2c-0.4,0-0.8,0-1.2,0c-0.4,0-0.8,0-1.2,0c-0.4-0.1-0.7-0.2-1.1-0.3c-0.4-0.1-0.7-0.2-1.1-0.4
	c-0.2-0.2-0.4-0.4-0.6-0.6c-0.2-0.2-0.3-0.5-0.4-0.8c-0.1-0.3-0.1-0.6-0.1-0.8c0-0.3,0-0.6,0.1-0.8c0.1-0.3,0.2-0.5,0.4-0.8
	c0.2-0.2,0.4-0.4,0.7-0.5c0.3-0.2,0.6-0.4,1-0.6c0.4-0.1,0.8-0.1,1.1-0.2c0.4-0.1,0.8-0.1,1.1-0.1c0.4,0,0.8,0.1,1.1,0.2
	c0.4,0,0.8,0,1.1,0.1c0.4,0.1,0.7,0.3,1.1,0.5c0.3,0.2,0.5,0.4,0.7,0.6c0.2,0.3,0.3,0.5,0.3,0.8C38.8,12.8,38.8,13.1,38.9,13.4z"/>
</svg>
