<svg width="36" height="36" viewBox="0 0 36 36" fill="none" xmlns="http://www.w3.org/2000/svg">
<path d="M36 18C36 27.9411 27.9411 36 18 36C8.05887 36 0 27.9411 0 18C0 8.05887 8.05887 0 18 0C27.9411 0 36 8.05887 36 18Z" fill="#D6E7FF"/>
<path d="M18 12.1787C17.5869 12.1787 17.2441 11.8359 17.2441 11.4229V9.65625C17.2441 9.24316 17.5869 8.90039 18 8.90039C18.4131 8.90039 18.7559 9.24316 18.7559 9.65625V11.4229C18.7559 11.8359 18.4131 12.1787 18 12.1787ZM22.1045 13.9014C21.8145 13.6025 21.8145 13.1279 22.0957 12.8291L23.3613 11.5635C23.6602 11.2822 24.1436 11.2822 24.4336 11.5635C24.7148 11.8535 24.7148 12.3457 24.4336 12.6357L23.1768 13.9014C22.8779 14.1914 22.3945 14.1826 22.1045 13.9014ZM13.8867 13.9014C13.5967 14.1826 13.1133 14.1826 12.8232 13.9014L11.5664 12.627C11.2852 12.3457 11.2852 11.8535 11.5752 11.5635C11.8652 11.2822 12.3574 11.291 12.6387 11.5635L13.9043 12.8291C14.1768 13.1191 14.1768 13.6113 13.8867 13.9014ZM17.9912 22.2861C15.6533 22.2861 13.7197 20.3438 13.7197 17.9971C13.7197 15.6504 15.6533 13.708 17.9912 13.708C20.3379 13.708 22.2715 15.6504 22.2715 17.9971C22.2715 20.3438 20.3379 22.2861 17.9912 22.2861ZM23.8008 17.9971C23.8008 17.584 24.1436 17.2412 24.5566 17.2412H26.3232C26.7363 17.2412 27.0791 17.584 27.0791 17.9971C27.0791 18.4102 26.7363 18.7529 26.3232 18.7529H24.5566C24.1436 18.7529 23.8008 18.4102 23.8008 17.9971ZM12.1992 17.9971C12.1992 18.4102 11.8564 18.7529 11.4434 18.7529H9.67676C9.26367 18.7529 8.9209 18.4102 8.9209 17.9971C8.9209 17.584 9.26367 17.2412 9.67676 17.2412H11.4434C11.8564 17.2412 12.1992 17.584 12.1992 17.9971ZM13.9043 22.1016C14.1768 22.3916 14.1768 22.875 13.8867 23.165L12.6299 24.4307C12.3398 24.7119 11.8477 24.7031 11.5576 24.4131C11.2764 24.123 11.2764 23.6396 11.5664 23.3496L12.8232 22.1016C13.1221 21.8115 13.6055 21.8115 13.9043 22.1016ZM22.0957 22.1016C22.3945 21.8115 22.8779 21.8115 23.168 22.1016L24.4336 23.3584C24.7236 23.6484 24.7236 24.1318 24.4336 24.4219C24.1436 24.7119 23.6602 24.7207 23.3701 24.4307L22.1045 23.165C21.8145 22.875 21.8145 22.3916 22.0957 22.1016ZM18 23.8066C18.4131 23.8066 18.7559 24.1494 18.7559 24.5625V26.3379C18.7559 26.751 18.4131 27.0938 18 27.0938C17.5869 27.0938 17.2441 26.751 17.2441 26.3379V24.5625C17.2441 24.1494 17.5869 23.8066 18 23.8066Z" fill="#5E9BF0"/>
</svg>
