<svg width="36" height="36" viewBox="0 0 36 36" fill="none" xmlns="http://www.w3.org/2000/svg">
<path d="M36 18C36 27.9411 27.9411 36 18 36C8.05887 36 0 27.9411 0 18C0 8.05887 8.05887 0 18 0C27.9411 0 36 8.05887 36 18Z" fill="#D6E7FF"/>
<path d="M10.5029 15.5713C10.0458 15.7119 9.6767 15.501 9.56245 15.1143C9.45698 14.7275 9.65034 14.3408 10.081 14.2178C11.3818 13.8398 12.7792 13.6113 14.124 13.6113C15.6972 13.6113 16.8662 13.8486 18.2021 13.8486C18.9316 13.8486 19.3886 13.418 19.3886 12.7588C19.3886 12.0996 18.9228 11.6865 18.3164 11.6865C17.8857 11.6865 17.4902 11.959 17.3232 12.3105C17.0947 12.7324 16.664 12.8467 16.3124 12.6533C15.9609 12.4512 15.8818 12.0469 16.0664 11.6865C16.4619 10.8604 17.3496 10.2715 18.3164 10.2715C19.705 10.2715 20.8037 11.3174 20.8037 12.7588C20.8037 14.1826 19.7578 15.2637 18.2021 15.2637C16.7607 15.2637 15.6357 15.0264 14.124 15.0264C12.9462 15.0264 11.707 15.2109 10.5029 15.5713ZM23.5898 19.6846C20.7246 19.6846 18.2197 18.2432 14.9414 18.2432C13.3242 18.2432 11.9003 18.4541 10.5117 18.9551C10.0634 19.1133 9.6767 18.9023 9.56245 18.5068C9.45698 18.1289 9.65913 17.751 10.081 17.6104C11.6103 17.1006 13.2099 16.8281 14.9414 16.8281C18.2812 16.8281 21.0673 18.2695 23.5898 18.2695C24.829 18.2695 25.6376 17.5752 25.6376 16.5645C25.6376 15.5801 24.8994 14.8857 23.9589 14.8857C23.2119 14.8857 22.5527 15.3867 22.3857 16.1074C22.2539 16.5732 21.8583 16.793 21.4716 16.6787C21.0937 16.5732 20.9091 16.1865 21.0146 15.7734C21.331 14.4463 22.5087 13.4707 23.9589 13.4707C25.6904 13.4707 27.0527 14.7891 27.0527 16.5645C27.0527 18.375 25.6113 19.6846 23.5898 19.6846ZM18.2197 25.7314C17.0156 25.7314 16.1279 24.9141 15.8466 23.8418C15.7148 23.4199 15.8818 22.998 16.3037 22.8926C16.7167 22.7871 17.0683 23.0156 17.1914 23.4023C17.3408 23.9736 17.6835 24.3164 18.2197 24.3164C18.7998 24.3164 19.2392 23.9209 19.2392 23.2617C19.2392 22.1631 17.6308 21.4512 14.7392 21.4512C13.2714 21.4512 11.8212 21.6973 10.5117 22.1631C10.0634 22.3213 9.6767 22.1016 9.56245 21.7148C9.45698 21.3369 9.65913 20.959 10.081 20.8184C11.5224 20.335 13.2011 20.0361 14.7392 20.0361C18.5449 20.0361 20.6542 21.1963 20.6542 23.2617C20.6542 24.6943 19.5908 25.7314 18.2197 25.7314Z" fill="#5E9BF0"/>
</svg>
