<?xml version="1.0" encoding="utf-8"?>
<!-- Generator: Adobe Illustrator 26.0.3, SVG Export Plug-In . SVG Version: 6.00 Build 0)  -->
<svg version="1.1" id="레이어_1" xmlns="http://www.w3.org/2000/svg" xmlns:xlink="http://www.w3.org/1999/xlink" x="0px"
	 y="0px" viewBox="0 0 494 165" style="enable-background:new 0 0 494 165;" xml:space="preserve">
<style type="text/css">
	.st0{opacity:0.75;}
	.st1{fill:#FFCDBC;}
	.st2{fill:#FFE6DE;}
	.st3{fill:#FFB29D;}
</style>
<g class="st0">
	<path class="st1" d="M1,161.7c0,0.5,0.3,0.9,0.7,1.3c0.4,0.3,0.9,0.5,1.3,0.5c0.7-0.1,1.3-0.8,2-1c0.7-0.2,1.5,0.1,2.2-0.1
		c0.7-0.2,1.2-0.9,1.9-1.1c0.7-0.2,1.4-0.3,2.1-0.6s1.4-0.5,2-0.8c0.6-0.3,1.2-0.7,1.9-1.1c0.6-0.4,1.3-0.6,1.9-1
		c0.6-0.4,1.2-0.8,1.9-1.2c0.6-0.4,1.1-1.1,1.8-1.4c0.7-0.3,1.4-0.4,2.1-0.7c0.7-0.3,1.4-0.4,2.1-0.7c0.7-0.2,1.4-0.4,2.1-0.6
		c0.7-0.2,1.4-0.6,2.1-0.8c0.7-0.2,1.5,0,2.2-0.1c0.7-0.1,1.5-0.2,2.2-0.3c0.7-0.1,1.5,0,2.2,0c0.7,0,1.5-0.4,2.2-0.4s1.5-0.1,2.2,0
		c0.7,0.1,1.5,0.2,2.2,0.3c0.7,0.1,1.5,0.3,2.2,0.4s1.5,0,2.2,0.2c0.7,0.2,1.5,0.1,2.2,0.3c0.7,0.2,1.3,0.9,2,1.2
		c0.7,0.2,1.5,0.1,2.2,0.4s1.3,0.7,2,1s1.2,0.9,1.8,1.3c0.6,0.4,1.6,0.3,2.2,0.7c0.6,0.4,0.9,1.4,1.5,1.7c0.6,0.4,1.5,0.3,2.2,0.6
		c0.7,0.3,1.2,1,1.9,1.3c0.7,0.3,1.4,0.6,2.1,0.9c0.7,0.2,1.4,0.5,2.1,0.7s1.5,0.1,2.2,0.2c0.7,0.1,1.5,0.1,2.2,0.2s1.4,0.8,2.1,0.8
		s1.5-0.2,2.2-0.2c0.7,0,1.5,0.2,2.2,0.2c0.7,0,1.5-0.4,2.2-0.5c0.7,0,1.5,0.5,2.3,0.4s1.5-0.1,2.2-0.3c0.7-0.1,1.3-0.9,2.1-1
		c0.7-0.1,1.5,0,2.2-0.2c0.7-0.2,1.5-0.2,2.2-0.4c0.7-0.2,1.3-0.7,2-0.9c0.6-0.3,1.4-0.5,2.1-0.9c0.7-0.3,1.1-1.1,1.7-1.5
		s1.5-0.4,2.1-0.9c0.6-0.4,1.2-0.8,1.9-1.2s1.4-0.5,2.1-0.9c0.7-0.3,1.2-1.1,1.8-1.3c0.7-0.3,1.4-0.5,2.1-0.8
		c0.7-0.2,1.5-0.1,2.2-0.3s1.3-0.8,2.1-0.9c0.7-0.2,1.5,0.3,2.3,0.1c0.7-0.1,1.4-0.8,2.1-0.9c0.7-0.1,1.5,0,2.2-0.1
		c0.7-0.1,1.5-0.2,2.2-0.2s1.5,0.4,2.2,0.4c0.7,0,1.5-0.2,2.2-0.1c0.7,0.1,1.4,0.6,2.2,0.7c0.7,0.1,1.5-0.1,2.2,0.1s1.4,0.7,2.1,0.9
		c0.7,0.2,1.5,0.1,2.2,0.3c0.7,0.2,1.2,0.9,1.9,1.2c0.7,0.3,1.6,0.1,2.2,0.5c0.7,0.3,1.3,0.8,1.9,1.1c0.6,0.4,1.4,0.6,2,1
		c0.6,0.4,1,1.2,1.6,1.6c0.6,0.4,1.5,0.3,2.2,0.7c0.7,0.3,1.2,1,1.9,1.3c0.7,0.3,1.3,0.7,2,1c0.7,0.3,1.4,0.4,2.2,0.6
		s1.5,0.1,2.2,0.3c0.7,0.2,1.5,0.2,2.2,0.3c0.7,0.1,1.5,0,2.2,0.1c0.7,0.1,1.4,0.8,2.2,0.8c0.7,0,1.5-0.1,2.2-0.1
		c0.7,0,1.5-0.1,2.2-0.1c0.7,0,1.5-0.2,2.2-0.3c0.7-0.1,1.4-0.5,2.2-0.6c0.7-0.1,1.5-0.1,2.2-0.3s1.5-0.2,2.2-0.4s1.5-0.1,2.2-0.3
		c0.7-0.2,1.3-0.7,2-1c0.7-0.3,1.3-0.7,2-1.1s1.2-0.8,1.9-1.2s1.5-0.4,2.1-0.8c0.6-0.4,1.1-1,1.7-1.4c0.6-0.4,1.3-0.7,2-1
		c0.7-0.3,1.4-0.5,2.1-0.8c0.7-0.3,1.4-0.5,2.1-0.8s1.3-0.7,2.1-0.9c0.7-0.2,1.4-0.7,2.1-0.8c0.7-0.1,1.5-0.2,2.2-0.3
		c0.7-0.1,1.5-0.1,2.2-0.2c0.7-0.1,1.5-0.1,2.2-0.1c0.8,0,1.5,0.1,2.2,0.1c0.7,0,1.5-0.2,2.2-0.1c0.7,0,1.5-0.1,2.2-0.1
		c0.7,0.1,1.5,0.2,2.2,0.3s1.4,0.6,2.1,0.7c0.7,0.2,1.5,0.1,2.2,0.3c0.7,0.2,1.2,1,1.9,1.2s1.5,0.1,2.2,0.4c0.7,0.3,1.2,0.9,1.9,1.2
		c0.7,0.3,1.3,0.7,1.9,1.1c0.6,0.4,1.4,0.5,2,0.9c0.6,0.4,1.3,0.6,1.9,1s1.1,1,1.8,1.3c0.7,0.3,1.4,0.4,2.1,0.7
		c0.7,0.3,1.2,1,1.9,1.2c0.7,0.2,1.6-0.1,2.3,0.1s1.3,0.6,2.1,0.8s1.4,0.4,2.1,0.5c0.2,0,0.4,0,0.6,0c0.2-0.1,0.4-0.2,0.5-0.3
		c0.2-0.1,0.3-0.3,0.3-0.5c0.1-0.2,0.1-0.4,0.1-0.6c0-1.1-0.1-1.1-0.1-2.2c0-1.1,0.5-1.1,0.5-2.2c0-1.1-0.4-1.1-0.4-2.2
		s0.2-1.1,0.2-2.2c0-1.1-0.4-1.1-0.4-2.2s0.4-1.1,0.4-2.2c0-1.1-0.3-1.1-0.3-2.2c0-1.1-0.1-1.1-0.1-2.2s0.1-1.1,0.1-2.2
		c0-1.1,0.3-1.1,0.3-2.2c0-1.1,0-1.1,0-2.2s0.3-1.1,0.3-2.2s-0.5-1.1-0.5-2.2s0.4-1.1,0.4-2.2s-0.4-1.1-0.4-2.2s0.6-1.1,0.6-2.2
		s-0.5-1.1-0.5-2.2c0-1.1,0.2-1.1,0.2-2.2c0-1.1,0.2-1.1,0.2-2.2s-0.3-1.1-0.3-2.2c0-1.1,0.4-1.1,0.4-2.2c0-1.1-0.2-1.1-0.2-2.2
		c0-1.1,0.1-1.1,0.1-2.2s0-1.1,0-2.2c0-1.1-0.2-1.1-0.2-2.2c0-1.1,0.1-1.1,0.1-2.2s0.2-1.1,0.2-2.2c0-1.1-0.6-1.1-0.6-2.2
		c0-1.1-0.1-1.1-0.1-2.2c0-1.1,0.4-1.1,0.4-2.2s0.1-1.1,0.1-2.2c0-1.1-0.1-1.1-0.1-2.2c0-1.1,0.2-1.1,0.2-2.2s-0.3-1.1-0.3-2.2
		s0-1.1,0-2.2c0-1.1,0-1.1,0-2.2s-0.1-1.1-0.1-2.2c0-1.1,0.5-1.1,0.5-2.2s-0.4-1.1-0.4-2.2c0-1.1-0.2-1.1-0.2-2.2
		c0-1.1,0.6-1.1,0.6-2.2c0-1.1-0.4-1.1-0.4-2.2c0-1.1,0.4-1.1,0.4-2.2s-0.3-1.1-0.3-2.2c0-1.1-0.1-1.1-0.1-2.2s-0.3-1.1-0.3-2.2
		c0-1.1,0.1-1.1,0.1-2.2c0-1.1-0.1-1.1-0.1-2.2s0.3-1.1,0.3-2.2s-0.1-1.1-0.1-2.2s0-1.1,0-2.2s0.1-1.1,0.1-2.2s0.1-1.1,0.1-2.2
		s0.1-1.1,0.1-2.2s-0.1-1.1-0.1-2.2s-0.2-1.1-0.2-2.2c0-1.1,0.3-1.1,0.3-2.2c0-1.1,0.1-1.1,0.1-2.2c0-1.1,0.1-1.1,0.1-2.2
		c0-1.1-0.2-1.1-0.2-2.2s0-1.1,0-2.2c0-1.1,0.1-1.1,0.1-2.2c0-1.1,0.1-1.1,0.1-2.2c0-1.1-0.4-1.1-0.4-2.2s0.2-1.1,0.2-2.2
		s-0.4-1.1-0.4-2.2s0.2-1.1,0.2-2.2s0.1-1.1,0.1-2.2c0-1.1,0.4-1.1,0.4-2.2s-0.3-1.1-0.3-2.2s0-1.1,0-2.2s1-1.7,0.2-2.5
		c-0.8-0.8-1.4-0.1-2.5-0.1S240.2,1,239.1,1c-1.1,0-1.1-0.5-2.2-0.5c-1.1,0-1.1,0.4-2.2,0.4c-1.1,0-1.1-0.5-2.2-0.5s-1.1,0-2.2,0
		c-1.1,0-1.1-0.1-2.2-0.1c-1.1,0-1.1,0.6-2.2,0.6c-1.1,0-1.1-0.1-2.2-0.1c-1.1,0-1.1-0.4-2.2-0.4s-1.1,0.2-2.2,0.2
		c-1.1,0-1.1-0.4-2.2-0.4c-1.1,0-1.1,0.3-2.2,0.3s-1.1,0.1-2.2,0.1c-1.1,0-1.1,0.1-2.2,0.1c-1.1,0-1.1,0.1-2.2,0.1
		c-1.1,0-1.1-0.5-2.2-0.5s-1.1,0.1-2.2,0.1c-1.1,0-1.1-0.1-2.2-0.1c-1.1,0-1.1,0.4-2.2,0.4c-1.1,0-1.1-0.1-2.2-0.1
		c-1.1,0-1.1,0-2.2,0s-1.1-0.3-2.2-0.3c-1.1,0-1.1,0.3-2.2,0.3c-1.1,0-1.1-0.3-2.2-0.3h-2.2c-1.1,0-1.1-0.2-2.2-0.2
		c-1.1,0-1.1,0.3-2.2,0.3s-1.1-0.2-2.2-0.2c-1.1,0-1.1,0.1-2.2,0.1s-1.1-0.1-2.2-0.1c-1.1,0-1.1,0.1-2.2,0.1c-1.1,0-1.1,0.1-2.2,0.1
		s-1.1-0.2-2.2-0.2c-1.1,0-1.1-0.1-2.2-0.1C164,0.5,164,1,162.8,1S161.7,1,160.6,1s-1.1,0.1-2.2,0.1c-1.1,0-1.1-0.3-2.2-0.3
		C155,0.8,155,1,153.9,1c-1.1,0-1.1-0.5-2.2-0.5s-1.1-0.1-2.2-0.1c-1.1,0-1.1,0.7-2.2,0.7s-1.1-0.5-2.2-0.5c-1.1,0-1.1,0-2.2,0
		c-1.1,0-1.1-0.1-2.2-0.1c-1.1,0-1.1,0.2-2.2,0.2S137,1,135.9,1c-1.1,0-1.1-0.1-2.2-0.1c-1.1,0-1.1-0.2-2.2-0.2
		c-1.1,0-1.1-0.2-2.2-0.2H127c-1.1,0-1.1,0.2-2.2,0.2h-2.2c-1.1,0-1.1-0.2-2.2-0.2c-1.1,0-1.1-0.1-2.2-0.1h-2.2
		c-1.1,0-1.1,0.2-2.2,0.2c-1.1,0-1.1,0.3-2.2,0.3c-1.1,0-1.1,0-2.2,0s-1.1,0.1-2.2,0.1s-1.1-0.5-2.2-0.5s-1.1,0.1-2.2,0.1
		c-1.1,0-1.1,0.2-2.2,0.2C99,0.9,98.9,1,97.8,1c-1.1,0-1.1-0.2-2.2-0.2s-1.1,0.1-2.2,0.1s-1.1-0.3-2.2-0.3S90,0.8,88.8,0.8
		s-1.1-0.3-2.2-0.3c-1.1,0-1.1,0.4-2.2,0.4c-1.1,0-1.1-0.2-2.2-0.2c-1.1,0-1.1,0-2.2,0c-1.1,0-1.1,0.4-2.2,0.4
		c-1.1,0-1.1-0.2-2.2-0.2c-1.1,0-1.1-0.1-2.2-0.1c-1.1,0-1.1,0-2.2,0c-1.1,0-1.1-0.3-2.2-0.3c-1.1,0-1.1,0.3-2.2,0.3h-2.2
		C63,0.8,63,1,61.9,1c-1.1,0-1.1-0.3-2.2-0.3c-1.1,0-1.1,0.4-2.2,0.4c-1.1,0-1.1-0.1-2.2-0.1c-1.1,0-1.1-0.4-2.2-0.4
		c-1.1,0-1.1-0.2-2.2-0.2c-1.1,0-1.1,0.5-2.2,0.5c-1.1,0-1.1-0.3-2.2-0.3H44c-1.1,0-1.1-0.2-2.2-0.2c-1.1,0-1.1,0.3-2.2,0.3
		c-1.1,0-1.1,0.1-2.2,0.1S36.1,0.6,35,0.6s-1.1-0.1-2.2-0.1c-1.1,0-1.1,0.1-2.2,0.1c-1.1,0-1.1,0.4-2.2,0.4c-1.1,0-1.1-0.3-2.2-0.3
		c-1.1,0-1.1,0.4-2.2,0.4c-1.1,0-1.1-0.1-2.2-0.1c-1.1,0-1.1-0.2-2.2-0.2H17c-1.1,0-1.1,0-2.2,0s-1.1,0.1-2.2,0.1s-1.1,0-2.2,0
		S9.1,0.7,8,0.7S6.9,0.8,5.7,0.8S4.6,1.2,3.5,1.2S1.8-0.1,1,0.7C0.2,1.5,0.9,2,0.9,3.2S1,4.3,1,5.4s0.5,1.1,0.5,2.2S1,8.7,1,9.9
		s0.3,1.1,0.3,2.2s-0.4,1.1-0.4,2.2s0,1.1,0,2.2s0.6,1.1,0.6,2.2S1.3,19.9,1.3,21c0,1.1-0.4,1.1-0.4,2.2s0.2,1.1,0.2,2.2
		c0,1.1,0.2,1.1,0.2,2.2c0,1.1-0.1,1.1-0.1,2.2c0,1.1,0.3,1.1,0.3,2.2c0,1.1-0.3,1.1-0.3,2.2c0,1.1,0.1,1.1,0.1,2.2
		c0,1.1,0.1,1.1,0.1,2.2c0,1.1-0.5,1.1-0.5,2.2c0,1.1,0.5,1.1,0.5,2.2c0,1.1-0.1,1.1-0.1,2.2c0,1.1-0.1,1.1-0.1,2.2
		c0,1.1-0.2,1.1-0.2,2.2s0,1.1,0,2.2s0.5,1.1,0.5,2.2s-0.4,1.1-0.4,2.2s0,1.1,0,2.2s-0.1,1.1-0.1,2.2s0.1,1.1,0.1,2.2S1,64.6,1,65.7
		s0,1.1,0,2.2c0,1.1,0.2,1.1,0.2,2.2c0,1.1,0.3,1.1,0.3,2.2c0,1.1-0.6,1.1-0.6,2.2s0.4,1.1,0.4,2.2c0,1.1-0.1,1.1-0.1,2.2
		c0,1.1-0.2,1.1-0.2,2.2s0.1,1.1,0.1,2.2c0,1.1,0.1,1.1,0.1,2.2c0,1.1-0.1,1.1-0.1,2.2c0,1.1-0.2,1.1-0.2,2.2s-0.2,1.1-0.2,2.2
		c0,1.1,0.3,1.1,0.3,2.2s-0.3,1.1-0.3,2.2s0.3,1.1,0.3,2.2c0,1.1,0.4,1.1,0.4,2.2s-0.4,1.1-0.4,2.2c0,1.1-0.2,1.1-0.2,2.2
		c0,1.1,0.2,1.1,0.2,2.2s0.4,1.1,0.4,2.2c0,1.1-0.2,1.1-0.2,2.2c0,1.1-0.4,1.1-0.4,2.2s0.7,1.1,0.7,2.2c0,1.1-0.6,1.1-0.6,2.2
		s0.6,1.1,0.6,2.2c0,1.1-0.6,1.1-0.6,2.2c0,1.1,0.4,1.1,0.4,2.2c0,1.1,0.2,1.1,0.2,2.2c0,1.1,0,1.1,0,2.2c0,1.1-0.7,1.1-0.7,2.2
		s0.6,1.1,0.6,2.2c0,1.1-0.2,1.1-0.2,2.2c0,1.1,0.3,1.1,0.3,2.2c0,1.1-0.4,1.1-0.4,2.2s0.3,1.1,0.3,2.2c0,1.1,0,1.1,0,2.2
		s-0.4,1.1-0.4,2.2c0,1.1-0.2,1.1-0.2,2.2c0,1.1,0.6,1.1,0.6,2.2s0.1,1.1,0.1,2.2c0,1.1-0.7,1.1-0.7,2.2c0,1.1,0.7,1.1,0.6,2.3
		C1.5,160.9,1,160.6,1,161.7z"/>
	<path class="st1" d="M250.9,162c0,0.9,0.5,1.7,1.4,1.6c0.7-0.1,1.4-0.7,2.1-0.8c0.7-0.2,1.5,0,2.2-0.2c0.7-0.2,1.3-0.8,2-1
		c0.7-0.2,1.6,0.1,2.3-0.2c0.7-0.3,1.1-1,1.8-1.3s1.3-0.7,1.9-1.1c0.6-0.4,1.3-0.6,1.9-1c0.6-0.4,1.2-0.9,1.8-1.3
		c0.7-0.4,1.3-0.8,1.9-1.1c0.7-0.3,1.5-0.3,2.2-0.6c0.7-0.3,1.2-0.9,2-1.1c0.7-0.2,1.4-0.6,2.1-0.8s1.5-0.3,2.2-0.5
		c0.7-0.2,1.5-0.3,2.2-0.4c0.7-0.1,1.5,0.4,2.3,0.3c0.7-0.1,1.4-0.8,2.2-0.8c0.7,0,1.5-0.1,2.2-0.1c0.7,0,1.5,0,2.2,0.1
		c0.8,0.1,1.5,0.4,2.2,0.5c0.7,0.1,1.4,0.4,2.2,0.5c0.7,0.1,1.5-0.1,2.2,0.1c0.7,0.2,1.4,0.6,2.1,0.8c0.7,0.2,1.4,0.4,2.1,0.7
		c0.7,0.2,1.5,0.2,2.2,0.5c0.7,0.3,1.2,0.9,1.9,1.2c0.7,0.3,1.5,0.4,2.1,0.8c0.6,0.4,1,1.1,1.7,1.5c0.6,0.4,1.5,0.4,2.1,0.8
		c0.6,0.4,1,1.3,1.7,1.6c0.7,0.3,1.4,0.6,2.1,0.9c0.7,0.3,1.5,0.3,2.2,0.5c0.7,0.2,1.5,0.3,2.2,0.5s1.4,0.6,2.1,0.8
		c0.7,0.2,1.5,0.2,2.2,0.3c0.7,0.1,1.5,0,2.2,0.1c0.7,0.1,1.4,0.7,2.2,0.7s1.5-0.3,2.2-0.3c0.7,0,1.5-0.3,2.2-0.3
		c0.7,0,1.5,0,2.2-0.1c0.7-0.1,1.5-0.1,2.2-0.2c0.7-0.1,1.5-0.1,2.2-0.3s1.6,0.1,2.3-0.1c0.7-0.2,1.3-0.9,2-1.2
		c0.7-0.2,1.4-0.5,2.1-0.8c0.7-0.3,1.4-0.5,2.1-0.8s1.3-0.7,1.9-1.1c0.6-0.4,1.4-0.6,2-1c0.6-0.4,1.1-1,1.8-1.4
		c0.7-0.4,1.4-0.4,2.1-0.8c0.7-0.3,1.3-0.8,2-1.1s1.4-0.3,2.1-0.6s1.4-0.6,2.1-0.8s1.4-0.3,2.2-0.5c0.7-0.2,1.4-0.6,2.1-0.7
		c0.7-0.1,1.5,0.2,2.2,0.1c0.7-0.1,1.5-0.1,2.2-0.1c0.7,0,1.5,0,2.2,0s1.5,0,2.2,0.1c0.7,0.1,1.5-0.2,2.2-0.1
		c0.7,0.1,1.4,0.4,2.2,0.5c0.7,0.1,1.5,0.2,2.2,0.4c0.7,0.2,1.5-0.1,2.3,0.1c0.7,0.2,1.5,0.4,2.2,0.6c0.7,0.2,1.5,0.4,2.1,0.7
		s1.1,1.1,1.8,1.4c0.7,0.3,1.3,0.6,1.9,1s1.4,0.6,2,1s1.1,0.9,1.8,1.3c0.6,0.4,1.3,0.7,2,1c0.7,0.4,1.4,0.4,2.1,0.7
		c0.7,0.3,1.2,0.9,1.9,1.2c0.7,0.2,1.4,0.4,2.2,0.6s1.5,0,2.2,0.2s1.4,0.8,2.1,0.9c0.7,0.1,1.5,0.2,2.2,0.3c0.7,0.1,1.5-0.4,2.2-0.3
		c0.7,0,1.5,0.4,2.2,0.4s1.5-0.2,2.2-0.3c0.7,0,1.5,0.2,2.2,0.2s1.4-0.5,2.2-0.6c0.7-0.1,1.5,0,2.2-0.1c0.7-0.1,1.5-0.3,2.2-0.5
		c0.7-0.2,1.5-0.3,2.2-0.5c0.7-0.2,1.4-0.4,2.1-0.7s1.1-1.1,1.8-1.4c0.7-0.3,1.6-0.2,2.2-0.6s0.9-1.4,1.5-1.8
		c0.6-0.4,1.5-0.4,2.1-0.8c0.6-0.4,1.1-1.1,1.7-1.5c0.7-0.3,1.4-0.6,2.1-0.9s1.5-0.1,2.2-0.4c0.7-0.2,1.3-0.8,2-1
		c0.7-0.2,1.6,0.1,2.3-0.1c0.7-0.2,1.4-0.5,2.1-0.6c0.7-0.1,1.5-0.1,2.2-0.2c0.7-0.1,1.5-0.4,2.2-0.4s1.5,0.1,2.2,0.1
		c0.7,0,1.5-0.2,2.2-0.2c0.7,0,1.5,0,2.2,0c0.7,0.1,1.4,0.7,2.1,0.8c0.7,0.1,1.5-0.2,2.3,0c0.7,0.2,1.4,0.5,2.1,0.7s1.5,0.3,2.2,0.6
		c0.7,0.2,1.2,1,1.9,1.2c0.7,0.2,1.4,0.5,2.1,0.8c0.7,0.3,1.5,0.3,2.1,0.7c0.6,0.4,1.4,0.7,2,1.1s1,1.1,1.6,1.5
		c0.6,0.4,1.4,0.5,2,0.8s1.3,0.7,2,1c0.7,0.3,1.3,0.8,1.9,1s1.4,0.3,2.1,0.5c0.7,0.2,1.4,0.2,2.2,0.3c0.7,0.2,1.3,0.6,2.1,0.8
		c0.9,0.2,1.5-0.6,1.5-1.6c0-1.1,0.3-1.1,0.3-2.2s0.2-1.1,0.2-2.2c0-1.1,0.1-1.1,0.1-2.2c0-1.1-0.3-1.1-0.3-2.2
		c0-1.1-0.3-1.1-0.3-2.2s0.3-1.1,0.3-2.2s-0.3-1.1-0.3-2.2c0-1.1,0.3-1.1,0.3-2.2s0-1.1,0-2.2s-0.2-1.1-0.2-2.2s0.4-1.1,0.4-2.2
		c0-1.1-0.5-1.1-0.5-2.2s0-1.1,0-2.2c0-1.1,0.7-1.1,0.7-2.2s0-1.1,0-2.2c0-1.1-0.3-1.1-0.3-2.2c0-1.1-0.2-1.1-0.2-2.2
		s0.5-1.1,0.5-2.2c0-1.1-0.1-1.1-0.1-2.2s-0.2-1.1-0.2-2.2c0-1.1,0.1-1.1,0.1-2.2c0-1.1,0.2-1.1,0.2-2.2c0-1.1,0-1.1,0-2.2
		c0-1.1,0.1-1.1,0.1-2.2s-0.4-1.1-0.4-2.2c0-1.1,0-1.1,0-2.2s0-1.1,0-2.2s-0.3-1.1-0.3-2.2c0-1.1,0.6-1.1,0.6-2.2
		c0-1.1-0.1-1.1-0.1-2.2c0-1.1-0.6-1.1-0.6-2.2c0-1.1,0.2-1.1,0.2-2.2c0-1.1-0.2-1.1-0.2-2.2s0.1-1.1,0.1-2.2s0.1-1.1,0.1-2.2
		c0-1.1-0.2-1.1-0.2-2.2c0-1.1,0.5-1.1,0.5-2.2c0-1.1-0.1-1.1-0.1-2.2s-0.3-1.1-0.3-2.2c0-1.1,0.5-1.1,0.5-2.2
		c0-1.1-0.4-1.1-0.4-2.2c0-1.1-0.1-1.1-0.1-2.2c0-1.1,0.6-1.1,0.6-2.2c0-1.1-0.1-1.1-0.1-2.2c0-1.1-0.2-1.1-0.2-2.2
		s-0.2-1.1-0.2-2.2s0.5-1.1,0.5-2.2S493,56,493,54.9s0.2-1.1,0.2-2.2s0-1.1,0-2.2s-0.3-1.1-0.3-2.2s0.5-1.1,0.5-2.2
		s-0.1-1.1-0.1-2.2s-0.1-1.1-0.1-2.2c0-1.1,0.1-1.1,0.1-2.2c0-1.1-0.4-1.1-0.4-2.2c0-1.1,0.2-1.1,0.2-2.2c0-1.1-0.4-1.1-0.4-2.2
		c0-1.1,0.3-1.1,0.3-2.2c0-1.1-0.2-1.1-0.2-2.2c0-1.1,0.2-1.1,0.2-2.2c0-1.1-0.1-1.1-0.1-2.2s0.2-1.1,0.2-2.2c0-1.1,0.2-1.1,0.2-2.2
		c0-1.1-0.4-1.1-0.4-2.2c0-1.1,0.2-1.1,0.2-2.2s0.1-1.1,0.1-2.2s-0.2-1.1-0.2-2.2c0-1.1-0.4-1.1-0.4-2.2s0.6-1.1,0.6-2.2
		s-0.6-1.1-0.6-2.2s1-1.4,0.2-2.2c-0.8-0.8-1-0.1-2.2-0.1c-1.2,0-1.1-0.1-2.2-0.1s-1.1,0.4-2.2,0.4H484c-1.1,0-1.1,0.1-2.2,0.1h-2.2
		c-1.1,0-1.1-0.1-2.2-0.1s-1.1-0.4-2.2-0.4S473.9,1,472.8,1s-1.1-0.1-2.2-0.1c-1.1,0-1.1,0.5-2.2,0.5s-1.1-0.6-2.2-0.6
		s-1.1,0.2-2.2,0.2s-1.1-0.2-2.2-0.2c-1.1,0-1.1,0.4-2.2,0.4s-1.1-0.4-2.2-0.4s-1.1,0.1-2.2,0.1s-1.1,0.4-2.2,0.4
		c-1.1,0-1.1-0.2-2.2-0.2c-1.1,0-1.1,0.3-2.2,0.3S447,1,445.9,1s-1.1,0.3-2.2,0.3s-1.1,0-2.2,0c-1.1,0-1.1-0.5-2.2-0.5
		c-1.1,0-1.1,0.1-2.2,0.1s-1.1,0.6-2.2,0.6s-1.1-0.7-2.2-0.7c-1.1,0-1.1,0.3-2.2,0.3c-1.1,0-1.1-0.2-2.2-0.2c-1.1,0-1.1,0.5-2.2,0.5
		s-1.1-0.5-2.2-0.5s-1.1,0-2.2,0c-1.1,0-1.1-0.1-2.2-0.1s-1.1,0.3-2.2,0.3s-1.1,0.2-2.2,0.2c-1.1,0-1.1-0.4-2.2-0.4S411.1,1,410,1
		s-1.1,0.2-2.2,0.2s-1.1,0.2-2.2,0.2s-1.1-0.3-2.2-0.3s-1.1-0.4-2.2-0.4c-1.1,0-1.1,0.1-2.2,0.1s-1.1,0.3-2.2,0.3s-1.1,0.2-2.2,0.2
		c-1.1,0-1.1-0.6-2.2-0.6s-1.1,0.3-2.2,0.3s-1.1,0-2.2,0s-1.1,0.1-2.2,0.1c-1.1,0-1.1-0.4-2.2-0.4s-1.1-0.2-2.2-0.2
		s-1.1,0.1-2.2,0.1s-1.1,0.1-2.2,0.1s-1.1,0.3-2.2,0.3C373,1.3,373,1,371.9,1s-1.1,0.2-2.2,0.2s-1.1-0.4-2.2-0.4s-1.1,0.3-2.2,0.3
		c-1.1,0-1.1-0.3-2.2-0.3s-1.1-0.1-2.2-0.1s-1.1,0.2-2.2,0.2s-1.1,0.2-2.2,0.2s-1.1-0.6-2.2-0.6c-1.1,0-1.1,0.5-2.2,0.5
		c-1.1,0-1.1,0-2.2,0s-1.1,0-2.2,0s-1.1-0.5-2.2-0.5h-2.2c-1.1,0-1.1,0.1-2.2,0.1c-1.1,0-1.1,0.2-2.2,0.2c-1.1,0-1.1,0.2-2.2,0.2
		S334.8,1,333.7,1s-1.1,0-2.2,0s-1.1,0.5-2.2,0.5s-1.1,0-2.2,0s-1.1-0.1-2.2-0.1c-1.1,0-1.1-0.6-2.2-0.6c-1.1,0-1.1,0.6-2.2,0.6
		S319.1,1,318,1s-1.1-0.1-2.2-0.1S314.6,1,313.5,1s-1.1,0.3-2.2,0.3s-1.1-0.4-2.2-0.4s-1.1,0.4-2.2,0.4s-1.1,0.2-2.2,0.2
		s-1.1-0.1-2.2-0.1H300c-1.1,0-1.1-0.6-2.2-0.6c-1.1,0-1.1,0.6-2.2,0.6s-1.1-0.2-2.2-0.2s-1.1-0.2-2.2-0.2s-1.1,0.3-2.2,0.3
		s-1.1-0.1-2.2-0.1s-1.1-0.2-2.2-0.2s-1.1,0.4-2.2,0.4s-1.1,0.2-2.2,0.2S278.7,1,277.5,1c-1.1,0-1.1,0.4-2.2,0.4
		c-1.1,0-1.1-0.2-2.2-0.2c-1.1,0-1.1-0.4-2.2-0.4c-1.1,0-1.1,0.1-2.2,0.1c-1.1,0-1.1,0-2.2,0c-1.1,0-1.1,0-2.2,0
		c-1.1,0-1.1,0.4-2.2,0.4c-1.1,0-1.1,0.2-2.2,0.2c-1.1,0-1.1-0.5-2.2-0.5c-1.1,0-1.1,0.5-2.2,0.5c-1.1,0-1.1,0-2.3,0
		c-1.1,0-1.7-1.4-2.5-0.6c-0.8,0.8-0.1,1.4-0.1,2.5s0.1,1.1,0.1,2.2s0.2,1.1,0.2,2.2s0.1,1.1,0.1,2.2c0,1.1-0.5,1.1-0.5,2.2
		s0.2,1.1,0.2,2.2s0.2,1.1,0.2,2.2c0,1.1,0,1.1,0,2.2c0,1.1-0.2,1.1-0.2,2.2c0,1.1,0.5,1.1,0.5,2.2c0,1.1-0.6,1.1-0.6,2.2
		c0,1.1,0.6,1.1,0.6,2.2c0,1.1-0.4,1.1-0.4,2.2s-0.2,1.1-0.2,2.2s0.5,1.1,0.5,2.2s0.1,1.1,0.1,2.2s-0.6,1.1-0.6,2.2s0,1.1,0,2.2
		s0.3,1.1,0.3,2.2c0,1.1-0.1,1.1-0.1,2.2c0,1.1,0.1,1.1,0.1,2.2c0,1.1-0.2,1.1-0.2,2.2c0,1.1,0.1,1.1,0.1,2.2c0,1.1,0.4,1.1,0.4,2.2
		c0,1.1-0.2,1.1-0.2,2.2c0,1.1,0.1,1.1,0.1,2.2v2.2c0,1.1-0.4,1.1-0.4,2.2s0.2,1.1,0.2,2.2c0,1.1-0.3,1.1-0.3,2.2
		c0,1.1-0.1,1.1-0.1,2.2c0,1.1,0.2,1.1,0.2,2.2s0.3,1.1,0.3,2.2s-0.2,1.1-0.2,2.2c0,1.1-0.2,1.1-0.2,2.2s0.3,1.1,0.3,2.2
		s-0.2,1.1-0.2,2.2c0,1.1,0.1,1.1,0.1,2.2c0,1.1,0,1.1,0,2.2c0,1.1-0.2,1.1-0.2,2.2c0,1.1-0.1,1.1-0.1,2.2c0,1.1,0.4,1.1,0.4,2.2
		c0,1.1,0.2,1.1,0.2,2.2c0,1.1,0.1,1.1,0.1,2.2c0,1.1-0.2,1.1-0.2,2.2c0,1.1,0.2,1.1,0.2,2.2c0,1.1-0.4,1.1-0.4,2.2
		c0,1.1,0,1.1,0,2.2s0.5,1.1,0.5,2.2c0,1.1-0.7,1.1-0.7,2.2c0,1.1,0.4,1.1,0.4,2.2s0.2,1.1,0.2,2.2c0,1.1-0.3,1.1-0.3,2.2
		s-0.1,1.1-0.1,2.2s0.3,1.1,0.3,2.2c0,1.1,0.1,1.1,0.1,2.2c0,1.1-0.2,1.1-0.2,2.2c0,1.1-0.4,1.1-0.4,2.2c0,1.1,0.1,1.1,0.1,2.2
		s0.1,1.1,0.1,2.2s0.1,1.1,0.1,2.2c0,1.1,0,1.1,0,2.2c0,1.1,0.1,1.1,0.1,2.2c0,1.1-0.2,1.1-0.2,2.2c0,1.1,0.4,1.1,0.4,2.2
		c0,1.1,0.1,1.1,0.1,2.2c0,1.1-0.4,1.1-0.4,2.2s0,1.1,0,2.2s-0.1,1.1-0.1,2.2c0,1.1,0.2,1.1,0.2,2.2c-0.1,0.7-0.2,1.5-0.2,2.3
		C250.5,160.9,250.9,160.8,250.9,162z"/>
	<path class="st2" d="M445.5,52.8c0.3,1.2,0.1,1.2,0.4,2.5c0.3,1.2-0.2,1.5,0.6,2.5c0.8,1,1.2,0.5,2.3,1c1.1,0.5,1.2,0.4,2.3,0.9
		c0.2,0.1,0.3,0.3,0.5,0.4c0.1,0.2,0.2,0.4,0.2,0.6c0,0.2,0,0.4-0.1,0.6c-0.1,0.2-0.2,0.3-0.4,0.5c-1.1,0.6-1.1,0.6-2.2,1.2
		c-1.1,0.6-1.5,0.2-2.2,1.2c-0.7,1,0,1.3-0.1,2.5c-0.1,1.2-0.3,1.2-0.4,2.5c0,0.2-0.1,0.4-0.2,0.6s-0.3,0.3-0.5,0.4
		c-0.2,0.1-0.4,0.1-0.6,0.1c-0.2,0-0.4-0.1-0.5-0.2c-0.9-0.8-1-0.8-1.9-1.6s-0.5-1.6-1.7-1.9s-1.3,0.3-2.5,0.6l-2.4,0.5
		c-0.2,0.1-0.4,0.1-0.6,0c-0.2-0.1-0.4-0.2-0.5-0.3c-0.1-0.2-0.2-0.3-0.2-0.5c0-0.2,0-0.4,0.1-0.6c0.5-1.1,0.5-1.1,1-2.3
		s1.1-1.1,1-2.3c-0.1-1.2-0.9-1-1.5-2.1c-0.6-1.1-0.6-1.1-1.2-2.2c-0.1-0.2-0.1-0.4-0.1-0.6c0-0.2,0.1-0.4,0.2-0.6s0.3-0.3,0.5-0.4
		c0.2-0.1,0.4-0.1,0.6-0.1c1.2,0.1,1.3-0.1,2.5,0c1.2,0.1,1.3,0.8,2.5,0.3s0.8-1,1.6-1.9c0.8-0.9,0.7-1,1.6-2
		c0.2-0.1,0.3-0.2,0.6-0.3c0.2,0,0.4,0,0.6,0c0.2,0.1,0.4,0.2,0.5,0.3C445.3,52.4,445.4,52.6,445.5,52.8z"/>
	<path class="st3" d="M432.6,99.2c0.5,0.7,0.4,0.8,0.9,1.5c0.5,0.7,0.4,0.9,1.2,1.3c0.8,0.4,0.9,0,1.7,0c0.9-0.1,0.9,0,1.7,0
		c0.1,0,0.3,0,0.4,0.1c0.1,0.1,0.2,0.2,0.3,0.3c0.1,0.1,0.1,0.3,0.1,0.4c0,0.1-0.1,0.3-0.1,0.4c-0.5,0.7-0.5,0.7-1,1.4
		c-0.5,0.7-0.8,0.6-0.9,1.5c-0.1,0.9,0.3,0.8,0.6,1.7s0.4,0.8,0.7,1.6c0,0.1,0,0.3,0,0.4c0,0.1-0.1,0.3-0.2,0.4
		c-0.1,0.1-0.2,0.2-0.4,0.2c-0.1,0-0.3,0.1-0.4,0c-0.8-0.2-0.8-0.3-1.6-0.6c-0.8-0.2-0.8-0.5-1.7-0.3c-0.9,0.2-0.7,0.4-1.4,1
		c-0.7,0.6-0.8,0.4-1.4,1c-0.1,0.1-0.2,0.1-0.3,0.2c-0.1,0-0.3,0-0.4-0.1c-0.1-0.1-0.2-0.1-0.3-0.3c-0.1-0.1-0.1-0.2-0.1-0.4
		c0-0.9-0.2-0.9-0.3-1.7s0.5-1.1,0.1-1.8c-0.4-0.8-0.8-0.4-1.6-0.9s-0.7-0.5-1.4-1c-0.1-0.1-0.2-0.2-0.3-0.3
		c-0.1-0.1-0.1-0.3-0.1-0.4c0-0.1,0.1-0.3,0.2-0.4s0.2-0.2,0.3-0.2c0.8-0.3,0.8-0.2,1.7-0.5c0.8-0.3,1,0,1.6-0.7
		c0.6-0.7,0.3-0.8,0.6-1.7c0.2-0.8,0.2-0.8,0.5-1.7c0-0.1,0.1-0.3,0.2-0.4c0.1-0.1,0.2-0.2,0.4-0.2c0.1,0,0.3,0,0.4,0
		C432.4,99,432.5,99.1,432.6,99.2z"/>
	<path class="st3" d="M459.9,75c0.6,0.8,0.6,0.9,1.2,1.7c0.6,0.9,0.7,0.8,1.3,1.6s0.2,1.2,1.1,1.7s1-0.1,2,0s1,0.3,2.1,0.3
		c1.1,0,1-0.1,2.1-0.1c0.3,0,0.5,0.1,0.7,0.3c0.2,0.2,0.4,0.4,0.5,0.6c0.1,0.2,0.2,0.5,0.1,0.8c0,0.3-0.1,0.5-0.3,0.7
		c-0.6,0.8-0.5,0.9-1.1,1.7s-0.6,0.9-1.2,1.7s-1.2,0.5-1.4,1.5s0.4,0.9,0.7,1.9c0.3,1,0.3,1,0.5,2s-0.1,1.1,0.2,2.1
		c0.1,0.2,0.1,0.5,0.1,0.7c0,0.2-0.2,0.5-0.3,0.6c-0.2,0.2-0.4,0.3-0.6,0.4c-0.2,0.1-0.5,0-0.7,0c-1-0.3-1-0.3-2-0.7
		c-1-0.3-0.9-0.5-1.9-0.9c-1-0.3-1-0.7-2-0.6s-0.9,0.6-1.8,1.1c-0.9,0.6-0.8,0.6-1.7,1.2c-0.9,0.6-0.9,0.5-1.8,1.1
		c-0.2,0.1-0.4,0.2-0.7,0.2c-0.2,0-0.5,0-0.7-0.1c-0.2-0.1-0.4-0.3-0.5-0.5c-0.1-0.2-0.2-0.4-0.2-0.7c0-1,0.1-1,0.1-2.1
		c0-1.1-0.3-1-0.3-2.1c0-1.1,0.8-1.2,0.4-2.1c-0.4-0.9-1-0.5-1.8-1.1c-0.8-0.6-0.9-0.6-1.7-1.2c-0.8-0.6-0.6-0.9-1.5-1.5
		c-0.2-0.1-0.4-0.3-0.5-0.6c-0.1-0.2-0.1-0.5-0.1-0.7c0-0.2,0.2-0.5,0.3-0.7c0.2-0.2,0.4-0.3,0.6-0.4c1-0.3,0.9-0.5,1.9-0.8
		c1-0.3,1.1,0.1,2.1-0.2c1-0.3,1.1-0.1,1.9-0.9c0.8-0.7,0.4-0.9,0.8-1.9c0.4-1,0.3-1,0.6-2c0.4-1,0.6-0.9,1-1.9
		c0.1-0.2,0.2-0.4,0.4-0.6c0.2-0.2,0.4-0.3,0.6-0.3c0.2,0,0.5,0,0.7,0.1C459.5,74.7,459.7,74.8,459.9,75z"/>
	<path class="st2" d="M275.2,126c1-0.7,0.9-0.8,2-1.6s1.5-0.2,2.1-1.3c0.6-1.1,0-1.2,0.1-2.5c0.1-1.2,0-1.2,0-2.5
		c0-0.2,0.1-0.4,0.2-0.6s0.3-0.3,0.5-0.4c0.2-0.1,0.4-0.1,0.6-0.1c0.2,0,0.4,0.1,0.6,0.2c1,0.8,0.8,1,1.8,1.7c1,0.7,0.9,1.2,2.1,1.4
		s1.2-0.5,2.4-0.9c1.2-0.3,1.2-0.4,2.4-0.7c0.2,0,0.4,0,0.7,0.1c0.2,0.1,0.4,0.2,0.6,0.4c0.2,0.2,0.3,0.4,0.3,0.6
		c0.1,0.2,0.1,0.4,0,0.7c-0.4,1.2-0.5,1.2-0.9,2.3s-1.1,1.1-1,2.3c0.1,1.2,0.8,1,1.6,2c0.7,1,0.7,1,1.4,2c0.1,0.2,0.2,0.4,0.2,0.6
		c0,0.2-0.1,0.4-0.2,0.6c-0.1,0.2-0.3,0.4-0.4,0.5c-0.2,0.1-0.4,0.2-0.6,0.2H289c-1.2,0-1.4-0.7-2.5-0.1c-1.1,0.5-0.7,1.1-1.4,2
		c-0.8,0.9-0.8,0.9-1.6,1.9c-0.1,0.2-0.3,0.3-0.5,0.3c-0.2,0.1-0.4,0.1-0.6,0c-0.2,0-0.4-0.1-0.5-0.3c-0.1-0.1-0.3-0.3-0.3-0.5
		c-0.4-1.2-0.6-1.1-0.9-2.3s0.3-1.6-0.5-2.5c-0.9-0.9-1.2-0.3-2.4-0.8c-1.2-0.4-1.2-0.3-2.4-0.7c-0.2-0.1-0.3-0.2-0.4-0.4
		c-0.1-0.2-0.2-0.3-0.2-0.5s0-0.4,0.1-0.6C274.9,126.3,275,126.1,275.2,126z"/>
	<path class="st3" d="M207.8,48c0.3,1.2,0.3,1.2,0.6,2.4c0.3,1.2-0.2,1.5,0.6,2.5c0.8,1,1.2,0.4,2.4,0.9c1.1,0.5,1.1,0.6,2.2,1.1
		c0.2,0.1,0.4,0.2,0.5,0.4c0.1,0.2,0.2,0.4,0.2,0.6c0,0.2,0,0.4-0.1,0.6c-0.1,0.2-0.2,0.3-0.4,0.4c-1.1,0.6-1.1,0.6-2.2,1.3
		c-1.1,0.6-1.6,0.1-2.2,1.2s-0.1,1.3-0.2,2.5c-0.1,1.2-0.3,1.2-0.4,2.5c0,0.2,0,0.4-0.2,0.6c-0.1,0.2-0.3,0.3-0.4,0.4
		s-0.4,0.1-0.6,0.1c-0.2,0-0.4-0.1-0.5-0.3c-0.9-0.8-1-0.7-2-1.6c-1-0.8-0.5-1.6-1.7-1.9c-1.2-0.3-1.3,0.2-2.5,0.5
		c-1.2,0.3-1.2,0.3-2.4,0.5c-0.2,0.1-0.4,0.1-0.6,0c-0.2-0.1-0.4-0.2-0.5-0.3c-0.1-0.2-0.2-0.3-0.3-0.5c0-0.2,0-0.4,0-0.6
		c0.5-1.1,0.8-1,1.3-2.2s0.9-1.1,0.8-2.3c-0.1-1.2-0.6-1.1-1.2-2.2c-0.6-1.1-0.8-1-1.4-2.1c-0.1-0.2-0.1-0.4-0.1-0.6
		c0-0.2,0.1-0.4,0.2-0.6c0.1-0.2,0.3-0.3,0.5-0.4c0.2-0.1,0.4-0.1,0.6-0.1l2.5,0.2c1.2,0.1,1.3,0.5,2.4,0s0.8-0.8,1.6-1.8
		c0.8-0.9,1-0.8,1.8-1.7c0.1-0.2,0.3-0.3,0.4-0.4c0.2-0.1,0.4-0.1,0.6,0c0.2,0,0.4,0.2,0.5,0.3C207.7,47.6,207.8,47.8,207.8,48z"/>
	<path class="st2" d="M182.6,26.2c0.5,0.7,0.6,0.6,1.1,1.3c0.5,0.7,0.2,1.1,1,1.5c0.8,0.4,0.9-0.1,1.8-0.1c0.9,0,0.9,0,1.7,0
		c0.1,0,0.3,0,0.4,0.1c0.1,0.1,0.2,0.2,0.3,0.3c0.1,0.1,0.1,0.3,0.1,0.4c0,0.1,0,0.3-0.1,0.4c-0.5,0.7-0.6,0.7-1,1.4
		c-0.4,0.7-0.8,0.6-0.9,1.5s0.2,0.9,0.5,1.7s0.4,0.8,0.7,1.6c0,0.1,0,0.3,0,0.4c0,0.1-0.1,0.3-0.2,0.4c-0.1,0.1-0.2,0.2-0.4,0.2
		c-0.1,0-0.3,0-0.4,0c-0.8-0.2-0.8-0.2-1.7-0.4c-0.8-0.2-0.8-0.8-1.7-0.6c-0.9,0.2-0.7,0.6-1.4,1.1c-0.7,0.5-0.7,0.5-1.4,1
		c-0.1,0.1-0.2,0.1-0.3,0.2c-0.1,0-0.3,0-0.4-0.1c-0.1-0.1-0.2-0.1-0.3-0.3c-0.1-0.1-0.1-0.2-0.1-0.4c0-0.9-0.1-0.9-0.1-1.8
		c0-0.9,0.3-1-0.1-1.8c-0.4-0.8-0.8-0.4-1.5-0.9c-0.7-0.5-0.7-0.6-1.4-1.1c-0.1-0.1-0.2-0.2-0.3-0.3c-0.1-0.1-0.1-0.3-0.1-0.4
		c0-0.1,0.1-0.3,0.1-0.4c0.1-0.1,0.2-0.2,0.3-0.3c0.8-0.3,0.8-0.3,1.6-0.6c0.8-0.3,1.1,0.1,1.7-0.5c0.6-0.6,0.2-0.9,0.4-1.7
		c0.2-0.8,0.3-0.8,0.6-1.6c0-0.1,0.1-0.2,0.2-0.3c0.1-0.1,0.2-0.2,0.3-0.2c0.1,0,0.3,0,0.4,0C182.4,26,182.5,26.1,182.6,26.2z"/>
	<path class="st2" d="M27.5,118.1c1.2,0.1,1.3-0.1,2.5-0.1s1.4,0.8,2.5,0.3c1.1-0.5,0.7-1.1,1.4-2.1c0.8-1,1-0.8,1.8-1.8
		c0.1-0.2,0.3-0.3,0.5-0.4c0.2-0.1,0.4-0.1,0.6-0.1c0.2,0,0.4,0.1,0.5,0.2c0.2,0.1,0.3,0.3,0.3,0.5c0.3,1.2,0.3,1.2,0.6,2.4
		c0.3,1.2-0.2,1.6,0.6,2.5c0.9,0.9,1.3,0.2,2.5,0.7c1.2,0.4,1.1,0.6,2.3,1.1c0.2,0.1,0.4,0.2,0.5,0.3c0.1,0.2,0.2,0.3,0.2,0.5
		c0,0.2,0,0.4-0.1,0.6c-0.1,0.2-0.2,0.3-0.4,0.4c-1,0.7-1.1,0.6-2.1,1.3s-1.4,0.4-2,1.5c-0.6,1.1,0,1.3,0,2.5c0,1.2,0,1.2-0.1,2.5
		c0,0.2-0.1,0.4-0.2,0.6c-0.1,0.2-0.3,0.3-0.5,0.4c-0.2,0.1-0.4,0.1-0.6,0.1c-0.2,0-0.4-0.1-0.6-0.2c-1-0.8-1-0.8-1.9-1.6
		c-0.9-0.8-0.7-1.3-2-1.5c-1.3-0.2-1.2,0.3-2.4,0.6c-1.2,0.3-1.2,0.3-2.4,0.6c-0.2,0.1-0.4,0.1-0.6,0c-0.2-0.1-0.4-0.2-0.5-0.3
		c-0.1-0.1-0.2-0.3-0.3-0.5c0-0.2,0-0.4,0-0.6c0.4-1.2,0.5-1.1,1-2.3c0.4-1.2,0.8-1.1,0.6-2.4c-0.2-1.2-0.5-1.1-1.1-2.2
		s-0.9-0.9-1.6-1.9c-0.1-0.2-0.1-0.4-0.1-0.6c0-0.2,0.1-0.4,0.2-0.6c0.1-0.2,0.3-0.3,0.4-0.4C27.1,118.1,27.3,118.1,27.5,118.1z"/>
	<path class="st2" d="M75.3,130.2c0.9-0.2,0.8-0.3,1.7-0.5c0.9-0.2,1,0.2,1.7-0.3c0.7-0.5,0.4-0.7,0.8-1.5c0.4-0.8,0.4-0.8,0.8-1.6
		c0.1-0.1,0.2-0.2,0.3-0.3c0.1-0.1,0.3-0.1,0.4-0.1c0.1,0,0.3,0,0.4,0.1c0.1,0.1,0.2,0.2,0.3,0.3c0.4,0.8,0.4,0.8,0.8,1.5
		s0,1.2,0.7,1.6s0.9-0.1,1.8,0.1c0.9,0.1,0.8,0.2,1.7,0.4c0.1,0,0.3,0.1,0.4,0.1c0.1,0.1,0.2,0.2,0.2,0.3c0,0.1,0.1,0.3,0,0.4
		c0,0.1-0.1,0.3-0.2,0.4c-0.6,0.6-0.5,0.7-1.1,1.4c-0.6,0.6-1.1,0.4-1.3,1.2c-0.2,0.8,0.2,0.9,0.3,1.7c0.2,0.8,0.3,0.8,0.4,1.7
		c0,0.1,0,0.3-0.1,0.4c-0.1,0.1-0.2,0.2-0.3,0.3c-0.1,0.1-0.3,0.1-0.4,0.2c-0.1,0-0.3,0-0.4-0.1c-0.8-0.4-0.9-0.2-1.6-0.6
		s-0.7-0.9-1.5-0.9c-0.9,0-0.7,0.5-1.5,1c-0.8,0.4-0.8,0.3-1.6,0.7c-0.1,0.1-0.3,0.1-0.4,0.1c-0.1,0-0.3,0-0.4-0.1
		c-0.1-0.1-0.2-0.2-0.3-0.3c-0.1-0.1-0.1-0.3-0.1-0.4c0.1-0.9,0.2-0.8,0.3-1.7c0.1-0.9,0.6-0.9,0.3-1.8c-0.3-0.8-0.8-0.5-1.4-1.1
		s-0.5-0.7-1.2-1.3c-0.1-0.1-0.2-0.2-0.2-0.3c0-0.1,0-0.3,0-0.4c0-0.1,0.1-0.3,0.2-0.3C75.1,130.2,75.2,130.2,75.3,130.2z"/>
	<path class="st3" d="M51.3,108c0.9-0.5,0.9-0.4,1.9-0.9c0.9-0.5,1-0.4,1.9-0.8c0.9-0.5,1.1-0.2,1.8-1c0.6-0.8,0.2-1,0.3-2
		c0.2-1,0.2-1,0.4-2c0.2-1,0.1-1,0.2-2.1c0.1-0.2,0.2-0.5,0.4-0.7c0.2-0.2,0.4-0.3,0.6-0.4c0.2-0.1,0.5-0.1,0.8,0
		c0.2,0.1,0.5,0.2,0.6,0.4c0.7,0.7,0.7,0.7,1.5,1.4c0.7,0.7,0.9,0.5,1.7,1.3c0.7,0.7,0.4,1.3,1.3,1.6c1,0.3,1.1,0,2.1-0.1
		c1-0.1,1-0.5,2-0.7c1-0.2,1.1,0.1,2.1-0.1c0.3,0,0.5,0,0.8,0.1c0.2,0.1,0.5,0.3,0.6,0.5c0.2,0.2,0.3,0.5,0.3,0.7
		c0,0.3,0,0.5-0.1,0.8c-0.5,0.9-0.8,0.8-1.3,1.7s-0.2,1-0.7,2s-0.9,0.8-0.9,1.8c0,1,0.3,0.9,0.8,1.9l0.9,1.9
		c0.5,0.9,0.7,0.8,1.1,1.8c0.1,0.3,0.1,0.5,0.1,0.8c0,0.3-0.1,0.5-0.3,0.7c-0.2,0.2-0.4,0.4-0.6,0.5c-0.2,0.1-0.5,0.2-0.8,0.1
		c-1-0.2-1-0.4-2-0.6c-1-0.1-1.1,0.2-2.1,0c-1-0.1-1.1-0.8-2.1-0.5c-1,0.3-0.7,0.8-1.5,1.5c-0.7,0.7-0.6,0.9-1.4,1.6
		c-0.7,0.7-0.9,0.6-1.6,1.3c-0.2,0.2-0.4,0.3-0.6,0.4c-0.2,0.1-0.5,0.1-0.7,0c-0.2-0.1-0.4-0.2-0.6-0.4c-0.2-0.2-0.3-0.4-0.3-0.7
		c-0.2-1-0.4-1-0.5-2c-0.2-1,0-1.1-0.2-2.1c-0.1-1,0.1-1.1-0.5-1.9c-0.6-0.8-0.7-0.7-1.6-1.2c-0.9-0.5-1-0.2-2-0.7
		c-1-0.5-0.8-0.8-1.7-1.2c-0.3-0.1-0.5-0.3-0.7-0.5c-0.2-0.2-0.3-0.5-0.3-0.8c0-0.3,0.1-0.6,0.2-0.8C50.9,108.3,51.1,108.1,51.3,108
		z"/>
</g>
</svg>
