<svg width="493" height="165" viewBox="0 0 493 165" fill="none" xmlns="http://www.w3.org/2000/svg">
<g opacity="0.75">
<path d="M0.389611 161.531C0.432982 162.022 0.666408 162.476 1.04 162.797C1.4136 163.119 1.89781 163.281 2.38961 163.251C3.10961 163.131 3.70961 162.431 4.38961 162.251C5.06961 162.071 5.91959 162.37 6.61959 162.17C7.31959 161.97 7.86977 161.29 8.54977 161.05C9.22977 160.81 9.95985 160.71 10.6298 160.43C11.2998 160.15 12.0198 159.971 12.6298 159.651C13.2398 159.331 13.8795 158.901 14.4995 158.541C15.1195 158.181 15.8495 157.941 16.4995 157.541C17.1495 157.141 17.7198 156.71 18.3598 156.34C18.9998 155.97 19.4596 155.231 20.1196 154.901C20.7796 154.571 21.5697 154.46 22.2597 154.17C22.9497 153.88 23.6798 153.731 24.3798 153.491C25.0798 153.251 25.8097 153.111 26.5297 152.911C27.2497 152.711 27.9096 152.311 28.6396 152.151C29.3696 151.991 30.1496 152.15 30.8896 152.05C31.6296 151.95 32.3396 151.811 33.0796 151.741C33.8196 151.671 34.5595 151.741 35.3095 151.741C36.0595 151.741 36.7695 151.38 37.5195 151.38C38.2695 151.38 39.0095 151.29 39.7495 151.38C40.4895 151.47 41.2194 151.611 41.9594 151.691C42.6994 151.771 43.4194 151.961 44.1494 152.081C44.8794 152.201 45.6598 152.08 46.3798 152.27C47.0998 152.46 47.8896 152.421 48.5996 152.621C49.3096 152.821 49.8796 153.53 50.5996 153.77C51.3196 154.01 52.1398 153.911 52.8198 154.191C53.4998 154.471 54.1498 154.881 54.8198 155.191C55.4898 155.501 56.0096 156.121 56.6396 156.501C57.2696 156.881 58.2098 156.811 58.8198 157.241C59.4298 157.671 59.6998 158.6 60.3398 158.98C60.9798 159.36 61.8697 159.281 62.5297 159.611C63.1897 159.941 63.7094 160.61 64.3994 160.88C65.0894 161.15 65.7597 161.501 66.4697 161.741C67.1797 161.981 67.8698 162.28 68.5898 162.48C69.3098 162.68 70.0996 162.57 70.8296 162.73C71.5596 162.89 72.3295 162.78 73.0595 162.89C73.7895 163 74.4597 163.65 75.1997 163.72C75.9397 163.79 76.7194 163.51 77.4594 163.55C78.1994 163.59 78.9396 163.73 79.6796 163.73C80.4196 163.73 81.1496 163.291 81.8896 163.251C82.6296 163.211 83.4196 163.76 84.1596 163.68C84.8996 163.6 85.6596 163.54 86.3896 163.42C87.1196 163.3 87.7394 162.54 88.4594 162.42C89.1794 162.3 89.9694 162.42 90.6894 162.18C91.4094 161.94 92.1994 162.021 92.8994 161.781C93.5994 161.541 94.2494 161.121 94.8994 160.831C95.5494 160.541 96.3097 160.3 96.9697 159.97C97.6297 159.64 98.0496 158.85 98.6796 158.48C99.3096 158.11 100.16 158.041 100.76 157.621C101.36 157.201 101.99 156.791 102.63 156.411C103.27 156.031 104.019 155.901 104.689 155.571C105.359 155.241 105.829 154.52 106.519 154.23C107.209 153.94 107.91 153.71 108.62 153.47C109.33 153.23 110.13 153.33 110.84 153.13C111.55 152.93 112.179 152.351 112.899 152.191C113.619 152.031 114.459 152.441 115.189 152.331C115.919 152.221 116.58 151.491 117.32 151.411C118.06 151.331 118.81 151.41 119.56 151.35C120.31 151.29 121.05 151.191 121.79 151.191C122.53 151.191 123.27 151.59 124.01 151.63C124.75 151.67 125.52 151.411 126.26 151.491C127 151.571 127.679 152.06 128.419 152.17C129.159 152.28 129.94 152.171 130.66 152.281C131.38 152.391 132.019 152.961 132.729 153.161C133.439 153.361 134.25 153.27 134.95 153.51C135.65 153.75 136.19 154.421 136.87 154.701C137.55 154.981 138.44 154.84 139.1 155.17C139.76 155.5 140.39 155.92 141.03 156.3C141.67 156.68 142.43 156.9 143.03 157.3C143.63 157.7 144.029 158.481 144.669 158.861C145.309 159.241 146.15 159.211 146.82 159.541C147.49 159.871 147.99 160.54 148.68 160.81C149.37 161.08 150 161.54 150.68 161.81C151.36 162.08 152.12 162.22 152.84 162.42C153.56 162.62 154.34 162.551 155.06 162.711C155.78 162.871 156.53 162.931 157.26 163.041C157.99 163.151 158.75 163.041 159.49 163.121C160.23 163.201 160.92 163.871 161.66 163.911C162.4 163.951 163.159 163.81 163.899 163.81C164.639 163.81 165.39 163.741 166.13 163.701C166.87 163.661 167.61 163.5 168.34 163.43C169.07 163.36 169.77 162.97 170.51 162.85C171.25 162.73 171.989 162.75 172.709 162.59C173.429 162.43 174.189 162.391 174.899 162.201C175.609 162.011 176.44 162.091 177.14 161.861C177.84 161.631 178.47 161.131 179.14 160.861C179.81 160.591 180.45 160.141 181.14 159.861C181.83 159.581 182.4 159.071 183.03 158.701C183.66 158.331 184.55 158.291 185.16 157.871C185.77 157.451 186.25 156.871 186.89 156.491C187.53 156.111 188.21 155.811 188.89 155.491C189.57 155.171 190.269 154.971 190.959 154.691C191.649 154.411 192.32 154.16 193.03 153.92C193.74 153.68 194.35 153.21 195.03 153.01C195.71 152.81 196.4 152.351 197.13 152.191C197.86 152.031 198.62 152 199.35 151.88C200.08 151.76 200.84 151.781 201.58 151.701C202.32 151.621 203.07 151.641 203.81 151.611C204.55 151.581 205.29 151.661 206.04 151.661C206.79 151.661 207.53 151.501 208.27 151.531C209.01 151.561 209.78 151.39 210.52 151.47C211.26 151.55 212.01 151.641 212.74 151.751C213.47 151.861 214.16 152.301 214.88 152.461C215.6 152.621 216.4 152.551 217.11 152.751C217.82 152.951 218.36 153.751 219.06 154.001C219.76 154.251 220.59 154.121 221.28 154.401C221.97 154.681 222.48 155.321 223.14 155.651C223.8 155.981 224.44 156.331 225.08 156.711C225.72 157.091 226.51 157.22 227.08 157.64C227.65 158.06 228.41 158.24 229.08 158.64C229.75 159.04 230.2 159.641 230.86 159.911C231.52 160.181 232.249 160.35 232.919 160.64C233.589 160.93 234.11 161.64 234.8 161.85C235.49 162.06 236.36 161.72 237.07 161.92C237.78 162.12 238.4 162.541 239.07 162.701C239.74 162.861 240.48 163.081 241.2 163.201C241.407 163.231 241.619 163.214 241.82 163.152C242.02 163.09 242.204 162.983 242.358 162.84C242.512 162.697 242.631 162.521 242.707 162.326C242.784 162.13 242.816 161.92 242.8 161.711C242.8 160.591 242.729 160.59 242.729 159.48C242.729 158.37 243.229 158.361 243.229 157.241C243.229 156.121 242.78 156.121 242.78 155.001C242.78 153.881 243.02 153.88 243.02 152.77C243.02 151.66 242.58 151.651 242.58 150.531C242.58 149.411 242.999 149.42 242.999 148.3C242.999 147.18 242.729 147.181 242.729 146.071C242.729 144.961 242.59 144.95 242.59 143.84C242.59 142.73 242.59 142.72 242.59 141.6C242.59 140.48 242.85 140.491 242.85 139.371C242.85 138.251 242.85 138.25 242.85 137.14C242.85 136.03 243.18 136.021 243.18 134.901C243.18 133.781 242.64 133.79 242.64 132.67C242.64 131.55 243.05 131.55 243.05 130.43C243.05 129.31 242.64 129.321 242.64 128.201C242.64 127.081 243.22 127.081 243.22 125.961C243.22 124.841 242.74 124.84 242.74 123.72C242.74 122.6 242.97 122.611 242.97 121.491C242.97 120.371 243.16 120.371 243.16 119.251C243.16 118.131 242.87 118.14 242.87 117.02C242.87 115.9 243.229 115.901 243.229 114.791C243.229 113.681 243.05 113.67 243.05 112.55C243.05 111.43 243.18 111.431 243.18 110.321V108.081C243.18 106.961 242.95 106.96 242.95 105.84C242.95 104.72 243.1 104.72 243.1 103.6C243.1 102.48 243.26 102.491 243.26 101.371C243.26 100.251 242.709 100.25 242.709 99.1304C242.709 98.0104 242.6 98.0109 242.6 96.9009C242.6 95.7909 242.99 95.7807 242.99 94.6607C242.99 93.5407 243.05 93.5402 243.05 92.4302C243.05 91.3202 242.97 91.311 242.97 90.191C242.97 89.071 243.22 89.0708 243.22 87.9508C243.22 86.8308 242.88 86.8305 242.88 85.7105C242.88 84.5905 242.88 84.59 242.88 83.48C242.88 82.37 242.88 82.3608 242.88 81.2408C242.88 80.1208 242.74 80.1206 242.74 79.0006C242.74 77.8806 243.29 77.8803 243.29 76.7603C243.29 75.6403 242.83 75.6408 242.83 74.5308C242.83 73.4208 242.68 73.4106 242.68 72.2906C242.68 71.1706 243.26 71.1704 243.26 70.0504C243.26 68.9304 242.87 68.9301 242.87 67.8101C242.87 66.6901 243.27 66.6909 243.27 65.5709C243.27 64.4509 242.99 64.4504 242.99 63.3404C242.99 62.2304 242.87 62.2202 242.87 61.1002C242.87 59.9802 242.57 59.9809 242.57 58.8609C242.57 57.7409 242.7 57.7407 242.7 56.6207C242.7 55.5007 242.58 55.5004 242.58 54.3804C242.58 53.2604 242.899 53.2602 242.899 52.1402C242.899 51.0202 242.81 51.021 242.81 49.901C242.81 48.781 242.81 48.7905 242.81 47.6705C242.81 46.5505 242.87 46.5502 242.87 45.4302C242.87 44.3102 242.979 44.3208 242.979 43.2008C242.979 42.0808 243.05 42.0805 243.05 40.9605C243.05 39.8405 242.979 39.8403 242.979 38.7203C242.979 37.6003 242.729 37.6008 242.729 36.4908C242.729 35.3808 243.06 35.3706 243.06 34.2506C243.06 33.1306 243.169 33.1303 243.169 32.0103C243.169 30.8903 243.24 30.8901 243.24 29.7701C243.24 28.6501 242.99 28.6508 242.99 27.5308C242.99 26.4108 242.99 26.4106 242.99 25.2906C242.99 24.1706 243.07 24.1704 243.07 23.0504C243.07 21.9304 243.16 21.9301 243.16 20.8101C243.16 19.6901 242.749 19.6909 242.749 18.5709C242.749 17.4509 242.979 17.4509 242.979 16.3209C242.979 15.1909 242.56 15.2104 242.56 14.0904C242.56 12.9704 242.79 12.9702 242.79 11.8502C242.79 10.7302 242.84 10.7202 242.84 9.60017C242.84 8.48017 243.209 8.48091 243.209 7.36091C243.209 6.24091 242.939 6.24068 242.939 5.12068C242.939 4.00068 242.939 3.99068 242.939 2.87068C242.939 1.75068 243.939 1.18044 243.169 0.380442C242.399 -0.419558 241.8 0.290599 240.68 0.290599C239.56 0.290599 239.559 0.90095 238.439 0.90095C237.319 0.90095 237.32 0.430247 236.2 0.430247C235.08 0.430247 235.079 0.840403 233.959 0.840403C232.839 0.840403 232.829 0.320872 231.709 0.320872C230.589 0.320872 230.59 0.320872 229.47 0.320872C228.35 0.320872 228.349 0.260325 227.229 0.260325C226.109 0.260325 226.099 0.870677 224.979 0.870677C223.859 0.870677 223.86 0.720286 222.74 0.720286C221.62 0.720286 221.62 0.380442 220.49 0.380442C219.36 0.380442 219.369 0.630442 218.249 0.630442C217.129 0.630442 217.13 0.270091 216.01 0.270091C214.89 0.270091 214.89 0.580638 213.77 0.580638C212.65 0.580638 212.64 0.640208 211.52 0.640208C210.4 0.640208 210.4 0.75056 209.28 0.75056C208.16 0.75056 208.16 0.870677 207.04 0.870677C205.92 0.870677 205.92 0.420481 204.79 0.420481C203.66 0.420481 203.67 0.570872 202.55 0.570872C201.43 0.570872 201.43 0.480052 200.31 0.480052C199.19 0.480052 199.18 0.840403 198.06 0.840403C196.94 0.840403 196.94 0.75056 195.82 0.75056C194.7 0.75056 194.7 0.75056 193.57 0.75056C192.44 0.75056 192.45 0.420481 191.33 0.420481C190.21 0.420481 190.21 0.740794 189.09 0.740794C187.97 0.740794 187.97 0.490794 186.85 0.490794H184.61C183.49 0.490794 183.49 0.320872 182.37 0.320872C181.25 0.320872 181.25 0.660716 180.13 0.660716C179.01 0.660716 179.01 0.490794 177.89 0.490794C176.77 0.490794 176.769 0.590403 175.649 0.590403C174.529 0.590403 174.529 0.450755 173.419 0.450755C172.309 0.450755 172.3 0.550364 171.18 0.550364C170.06 0.550364 170.059 0.640208 168.939 0.640208C167.819 0.640208 167.82 0.430247 166.7 0.430247C165.58 0.430247 165.579 0.360911 164.459 0.360911C163.339 0.360911 163.329 0.820872 162.209 0.820872C161.089 0.820872 161.09 0.880442 159.97 0.880442C158.85 0.880442 158.85 0.950755 157.72 0.950755C156.59 0.950755 156.599 0.670481 155.479 0.670481C154.359 0.670481 154.36 0.830638 153.24 0.830638C152.12 0.830638 152.11 0.360911 150.99 0.360911C149.87 0.360911 149.869 0.25056 148.749 0.25056C147.629 0.25056 147.63 0.930247 146.51 0.930247C145.39 0.930247 145.39 0.440989 144.27 0.440989C143.15 0.440989 143.15 0.440989 142.03 0.440989C140.91 0.440989 140.91 0.330638 139.79 0.330638C138.67 0.330638 138.67 0.50056 137.55 0.50056C136.43 0.50056 136.43 0.910716 135.31 0.910716C134.19 0.910716 134.19 0.910716 133.06 0.910716C131.93 0.910716 131.94 0.710521 130.82 0.710521C129.7 0.710521 129.7 0.530833 128.57 0.530833H126.33C125.21 0.530833 125.21 0.740794 124.08 0.740794H121.89C120.77 0.740794 120.769 0.490794 119.649 0.490794C118.529 0.490794 118.53 0.430247 117.41 0.430247H115.16C114.04 0.430247 114.039 0.670481 112.919 0.670481C111.799 0.670481 111.8 0.920481 110.68 0.920481C109.56 0.920481 109.55 0.920481 108.43 0.920481C107.31 0.920481 107.309 1.03083 106.189 1.03083C105.069 1.03083 105.059 0.490794 103.939 0.490794C102.819 0.490794 102.819 0.620677 101.689 0.620677C100.559 0.620677 100.57 0.790599 99.4497 0.790599C98.3297 0.790599 98.3294 0.910716 97.2094 0.910716C96.0894 0.910716 96.0894 0.670481 94.9594 0.670481C93.8294 0.670481 93.8397 0.75056 92.7197 0.75056C91.5997 0.75056 91.5997 0.440989 90.4697 0.440989C89.3397 0.440989 89.3495 0.740794 88.2295 0.740794C87.1095 0.740794 87.0995 0.430247 85.9795 0.430247C84.8595 0.430247 84.8597 0.81013 83.7397 0.81013C82.6197 0.81013 82.6097 0.570872 81.4897 0.570872C80.3697 0.570872 80.3695 0.620677 79.2495 0.620677C78.1295 0.620677 78.1195 0.970286 76.9995 0.970286C75.8795 0.970286 75.8795 0.770091 74.7495 0.770091C73.6195 0.770091 73.6297 0.710521 72.5097 0.710521C71.3897 0.710521 71.3797 0.710521 70.2597 0.710521C69.1397 0.710521 69.1397 0.430247 68.0097 0.430247C66.8797 0.430247 66.8895 0.730052 65.7695 0.730052H63.5195C62.3995 0.730052 62.3995 0.960521 61.2695 0.960521C60.1395 0.960521 60.1497 0.660716 59.0297 0.660716C57.9097 0.660716 57.8997 1.05036 56.7797 1.05036C55.6597 1.05036 55.6597 1.00056 54.5297 1.00056C53.3997 1.00056 53.4095 0.620677 52.2895 0.620677C51.1695 0.620677 51.1595 0.450755 50.0395 0.450755C48.9195 0.450755 48.9198 1.00056 47.7998 1.00056C46.6798 1.00056 46.6698 0.660716 45.5498 0.660716H43.3095C42.1895 0.660716 42.1895 0.420481 41.0595 0.420481C39.9295 0.420481 39.9398 0.670481 38.8198 0.670481C37.6998 0.670481 37.6898 0.760325 36.5698 0.760325C35.4498 0.760325 35.4498 0.520091 34.3198 0.520091C33.1898 0.520091 33.1996 0.410716 32.0796 0.410716C30.9596 0.410716 30.9496 0.530833 29.8296 0.530833C28.7096 0.530833 28.6996 0.880442 27.5796 0.880442C26.4596 0.880442 26.4596 0.610911 25.3296 0.610911C24.1996 0.610911 24.2096 1.0406 23.0796 1.0406C21.9496 1.0406 21.9596 0.970286 20.8296 0.970286C19.6996 0.970286 19.7096 0.730052 18.5796 0.730052H16.3296C15.2096 0.730052 15.2098 0.730052 14.0898 0.730052C12.9698 0.730052 12.9598 0.850169 11.8398 0.850169C10.7198 0.850169 10.7098 0.850169 9.58981 0.850169C8.46981 0.850169 8.45981 0.600169 7.33981 0.600169C6.21981 0.600169 6.20955 0.710521 5.07955 0.710521C3.94955 0.710521 3.95955 1.15095 2.82955 1.15095C1.69955 1.15095 1.18961 -0.149792 0.389611 0.640208C-0.410389 1.43021 0.269494 1.95087 0.269494 3.07087C0.269494 4.19087 0.359826 4.18036 0.359826 5.30036C0.359826 6.42036 0.859826 6.4206 0.859826 7.5406C0.859826 8.6606 0.379845 8.66009 0.379845 9.77009C0.379845 10.8801 0.719689 10.8903 0.719689 12.0103C0.719689 13.1303 0.269494 13.1208 0.269494 14.2408C0.269494 15.3608 0.269494 15.3603 0.269494 16.4703C0.269494 17.5803 0.899377 17.5905 0.899377 18.7105C0.899377 19.8305 0.629845 19.821 0.629845 20.941C0.629845 22.061 0.219689 22.0505 0.219689 23.1705C0.219689 24.2905 0.42965 24.2909 0.42965 25.4009C0.42965 26.5109 0.599572 26.5202 0.599572 27.6402C0.599572 28.7602 0.469689 28.7507 0.469689 29.8707C0.469689 30.9907 0.789513 30.9909 0.789513 32.1109C0.789513 33.2309 0.469689 33.2304 0.469689 34.3404C0.469689 35.4504 0.529748 35.4606 0.529748 36.5806C0.529748 37.7006 0.67965 37.7009 0.67965 38.8209C0.67965 39.9409 0.209435 39.9404 0.209435 41.0504C0.209435 42.1604 0.709435 42.1706 0.709435 43.2906C0.709435 44.4106 0.649377 44.4001 0.649377 45.5201C0.649377 46.6401 0.579552 46.6403 0.579552 47.7603C0.579552 48.8803 0.399377 48.8708 0.399377 49.9908C0.399377 51.1108 0.399377 51.1103 0.399377 52.2203C0.399377 53.3303 0.869592 53.3405 0.869592 54.4605C0.869592 55.5805 0.489709 55.5808 0.489709 56.7008C0.489709 57.8208 0.489709 57.821 0.489709 58.941C0.489709 60.061 0.42965 60.0605 0.42965 61.1705C0.42965 62.2805 0.549767 62.2907 0.549767 63.4107C0.549767 64.5307 0.339806 64.5302 0.339806 65.6402C0.339806 66.7502 0.339806 66.7604 0.339806 67.8804C0.339806 69.0004 0.569787 69.0007 0.569787 70.1207C0.569787 71.2407 0.909631 71.2402 0.909631 72.3502C0.909631 73.4602 0.339806 73.4704 0.339806 74.5904C0.339806 75.7104 0.769494 75.7106 0.769494 76.8306C0.769494 77.9506 0.69967 77.9509 0.69967 79.0709C0.69967 80.1909 0.509728 80.1804 0.509728 81.3004C0.509728 82.4204 0.629845 82.4206 0.629845 83.5406C0.629845 84.6606 0.689416 84.6608 0.689416 85.7808C0.689416 86.9008 0.689416 86.9001 0.689416 88.0201C0.689416 89.1401 0.439416 89.1306 0.439416 90.2506C0.439416 91.3706 0.289513 91.3708 0.289513 92.4908C0.289513 93.6108 0.619592 93.61 0.619592 94.73C0.619592 95.85 0.319787 95.8503 0.319787 96.9703C0.319787 98.0903 0.559533 98.0905 0.559533 99.2105C0.559533 100.331 0.909631 100.321 0.909631 101.441C0.909631 102.561 0.499474 102.56 0.499474 103.68C0.499474 104.8 0.249474 104.8 0.249474 105.92C0.249474 107.04 0.479455 107.041 0.479455 108.161C0.479455 109.281 0.849572 109.281 0.849572 110.401C0.849572 111.521 0.599572 111.52 0.599572 112.64C0.599572 113.76 0.259728 113.751 0.259728 114.871C0.259728 115.991 0.94967 115.991 0.94967 117.111C0.94967 118.231 0.369592 118.22 0.369592 119.34C0.369592 120.46 0.959435 120.461 0.959435 121.581C0.959435 122.701 0.319787 122.701 0.319787 123.821C0.319787 124.941 0.739709 124.94 0.739709 126.06C0.739709 127.18 0.969689 127.171 0.969689 128.291C0.969689 129.411 0.969689 129.411 0.969689 130.531C0.969689 131.651 0.269494 131.65 0.269494 132.77C0.269494 133.89 0.859826 133.89 0.859826 135.01C0.859826 136.13 0.639611 136.131 0.639611 137.251C0.639611 138.371 0.939416 138.371 0.939416 139.491C0.939416 140.611 0.559533 140.61 0.559533 141.73C0.559533 142.85 0.829552 142.86 0.829552 143.98C0.829552 145.1 0.829552 145.1 0.829552 146.22C0.829552 147.34 0.489709 147.341 0.489709 148.451C0.489709 149.561 0.319787 149.571 0.319787 150.701C0.319787 151.831 0.92965 151.821 0.92965 152.941C0.92965 154.061 1.00973 154.06 1.00973 155.18C1.00973 156.3 0.289513 156.3 0.289513 157.43C0.289513 158.56 0.969631 158.571 0.909631 159.691C0.849631 160.811 0.389611 160.461 0.389611 161.531Z" fill="#FFCDBC"/>
<path d="M249.95 161.791C249.944 162.006 249.986 162.219 250.072 162.416C250.158 162.613 250.286 162.789 250.447 162.931C250.608 163.073 250.798 163.178 251.004 163.238C251.21 163.299 251.427 163.314 251.64 163.281C252.36 163.161 253.04 162.851 253.75 162.701C254.46 162.551 255.14 162.291 255.84 162.101C256.54 161.911 257.39 162.161 258.08 161.931C258.77 161.701 259.289 161.001 259.959 160.731C260.629 160.461 261.39 160.361 262.04 160.031C262.69 159.701 263.12 159.031 263.74 158.621C264.36 158.211 265.21 158.211 265.8 157.801C266.39 157.391 266.89 156.801 267.53 156.371C268.17 155.941 268.769 155.511 269.439 155.171C270.109 154.831 270.81 154.571 271.5 154.291C272.19 154.011 272.979 153.981 273.689 153.741C274.399 153.501 275.09 153.251 275.81 153.051C276.53 152.851 277.31 153.051 278.04 152.841C278.77 152.631 279.4 152.021 280.13 151.901C280.86 151.781 281.659 152.091 282.399 152.011C283.139 151.931 283.85 151.471 284.59 151.431C285.33 151.391 286.09 151.951 286.83 151.951C287.57 151.951 288.32 151.491 289.06 151.531C289.8 151.571 290.53 151.851 291.27 151.931C292.01 152.011 292.709 152.301 293.439 152.411C294.169 152.521 294.96 152.411 295.68 152.541C296.4 152.671 297.04 153.221 297.75 153.421C298.46 153.621 299.219 153.661 299.919 153.901C300.619 154.141 301.259 154.521 301.919 154.801C302.579 155.081 303.269 155.391 303.919 155.711C304.569 156.031 305.339 156.191 305.979 156.571C306.619 156.951 307.16 157.461 307.77 157.881C308.38 158.301 308.93 158.881 309.57 159.231C310.21 159.581 311.13 159.471 311.8 159.801C312.47 160.131 313.16 160.341 313.85 160.621C314.54 160.901 315.08 161.531 315.79 161.771C316.5 162.011 317.179 162.281 317.899 162.481C318.619 162.681 319.36 162.792 320.09 162.942C320.82 163.092 321.5 163.481 322.24 163.591C322.98 163.701 323.75 163.481 324.49 163.591C325.23 163.701 325.969 163.701 326.709 163.741C327.449 163.781 328.19 163.801 328.93 163.801C329.67 163.801 330.409 163.651 331.149 163.611C331.889 163.571 332.679 164.061 333.419 163.981C334.159 163.901 334.84 163.351 335.57 163.231C336.3 163.111 337 162.831 337.72 162.681C338.44 162.531 339.31 162.911 340.02 162.681C340.73 162.451 341.35 161.891 342.02 161.681C342.69 161.471 343.57 161.551 344.26 161.261C344.95 160.971 345.52 160.411 346.18 160.081C346.84 159.751 347.44 159.291 348.08 158.911C348.72 158.531 349.17 157.911 349.78 157.481C350.39 157.051 351.1 156.751 351.78 156.371C352.46 155.991 353.03 155.531 353.7 155.201C354.37 154.871 355.18 154.851 355.87 154.561C356.56 154.271 357.219 153.932 357.919 153.692C358.619 153.452 359.34 153.241 360.06 153.041C360.78 152.841 361.51 152.721 362.24 152.561C362.97 152.401 363.71 152.381 364.45 152.261C365.19 152.141 365.92 152.131 366.66 152.051C367.4 151.971 368.13 151.841 368.87 151.811C369.61 151.781 370.35 151.501 371.09 151.501C371.83 151.501 372.57 151.841 373.31 151.881C374.05 151.921 374.77 152.091 375.51 152.161C376.25 152.231 376.96 152.401 377.7 152.521C378.44 152.641 379.199 152.521 379.919 152.681C380.639 152.841 381.36 153.031 382.07 153.231C382.78 153.431 383.469 153.711 384.169 153.951C384.869 154.191 385.529 154.541 386.169 154.821C386.809 155.101 387.7 155.041 388.37 155.361C389.04 155.681 389.579 156.261 390.209 156.631C390.839 157.001 391.72 157.061 392.33 157.481C392.94 157.901 393.42 158.481 394.06 158.861C394.7 159.241 395.319 159.641 395.979 159.971C396.639 160.301 397.18 160.971 397.87 161.231C398.56 161.491 399.35 161.521 400.05 161.761C400.75 162.001 401.46 162.211 402.18 162.411C402.9 162.611 403.55 163.101 404.28 163.261C405.01 163.421 405.75 163.551 406.49 163.661C407.23 163.771 408.03 163.271 408.77 163.351C409.51 163.431 410.21 163.951 410.95 163.991C411.69 164.031 412.449 163.641 413.189 163.641C413.929 163.641 414.69 164.141 415.43 164.101C416.17 164.061 416.92 163.961 417.66 163.881C418.4 163.801 419.16 163.761 419.89 163.651C420.62 163.541 421.24 162.791 421.97 162.651C422.7 162.511 423.439 162.461 424.149 162.271C424.859 162.081 425.68 162.182 426.38 161.942C427.08 161.702 427.7 161.202 428.38 160.942C429.06 160.682 429.9 160.671 430.56 160.341C431.22 160.011 431.75 159.341 432.38 159.011C433.01 158.681 433.62 158.181 434.22 157.761C434.82 157.341 435.4 156.841 436.04 156.461C436.68 156.081 437.289 155.611 437.959 155.281C438.629 154.951 439.49 155.061 440.18 154.781C440.87 154.501 441.49 154.091 442.18 153.851C442.87 153.611 443.61 153.481 444.33 153.281C445.05 153.081 445.68 152.561 446.41 152.401C447.14 152.241 447.89 152.191 448.63 152.071C449.37 151.951 450.11 151.891 450.85 151.821C451.59 151.751 452.35 152.011 453.09 151.971C453.83 151.931 454.56 151.591 455.31 151.591C456.06 151.591 456.79 151.861 457.53 151.901C458.27 151.941 459 152.011 459.74 152.081C460.48 152.151 461.18 152.421 461.91 152.531C462.64 152.641 463.43 152.461 464.16 152.621C464.89 152.781 465.56 153.111 466.28 153.311C467 153.511 467.73 153.631 468.43 153.871C469.13 154.111 469.77 154.511 470.43 154.791C471.09 155.071 471.83 155.291 472.49 155.611C473.15 155.931 473.85 156.221 474.49 156.611C475.13 157.001 475.64 157.611 476.24 157.981C476.84 158.351 477.43 158.861 478.06 159.231C478.69 159.601 479.54 159.541 480.2 159.861C480.86 160.181 481.52 160.421 482.2 160.711C482.88 161.001 483.56 161.171 484.25 161.411C484.94 161.651 485.53 162.131 486.25 162.331C486.97 162.531 487.679 162.551 488.399 162.711C489.119 162.871 489.73 163.461 490.45 163.581C490.954 163.62 491.454 163.465 491.849 163.15C492.244 162.834 492.505 162.381 492.58 161.881C492.58 160.761 491.91 160.761 491.91 159.651C491.91 158.541 492.399 158.531 492.399 157.411C492.399 156.291 492.399 156.291 492.399 155.171C492.399 154.051 492.51 154.062 492.51 152.942C492.51 151.822 492.35 151.821 492.35 150.701C492.35 149.581 491.93 149.591 491.93 148.471C491.93 147.351 491.93 147.351 491.93 146.241C491.93 145.131 492.14 145.121 492.14 144.011C492.14 142.901 492.31 142.891 492.31 141.771C492.31 140.651 492.31 140.661 492.31 139.541C492.31 138.421 492.1 138.421 492.1 137.311C492.1 136.201 492.1 136.191 492.1 135.071C492.1 133.951 492.35 133.961 492.35 132.841C492.35 131.721 492.41 131.721 492.41 130.601V128.371C492.41 127.251 492.169 127.251 492.169 126.131C492.169 125.011 491.91 125.011 491.91 123.891C491.91 122.771 491.91 122.781 491.91 121.661C491.91 120.541 491.8 120.541 491.8 119.421C491.8 118.301 492.34 118.312 492.34 117.192C492.34 116.072 492.2 116.071 492.2 114.961C492.2 113.851 492.04 113.841 492.04 112.721C492.04 111.601 491.919 111.601 491.919 110.491C491.919 109.381 492.16 109.371 492.16 108.251C492.16 107.131 492.07 107.131 492.07 106.011C492.07 104.891 492.39 104.891 492.39 103.771C492.39 102.651 492.09 102.661 492.09 101.541C492.09 100.421 492.39 100.421 492.39 99.3009C492.39 98.1809 492.02 98.1914 492.02 97.0714C492.02 95.9514 492.26 95.9512 492.26 94.8312C492.26 93.7112 492.2 93.7107 492.2 92.6007C492.2 91.4907 491.86 91.4814 491.86 90.3614C491.86 89.2414 492.05 89.2412 492.05 88.1212C492.05 87.0012 492.11 87.001 492.11 85.881C492.11 84.761 492.11 84.7615 492.11 83.6515C492.11 82.5415 492.399 82.5312 492.399 81.4112C492.399 80.2912 492.1 80.291 492.1 79.171C492.1 78.051 492.1 78.0508 492.1 76.9308C492.1 75.8108 491.86 75.8113 491.86 74.7013C491.86 73.5913 492.16 73.581 492.16 72.461C492.16 71.341 491.78 71.3408 491.78 70.2208C491.78 69.1008 491.78 69.1006 491.78 67.9806C491.78 66.8606 492.169 66.8613 492.169 65.7413C492.169 64.6213 492.33 64.6208 492.33 63.5108C492.33 62.4008 491.78 62.3906 491.78 61.2706C491.78 60.1506 492.12 60.1513 492.12 59.0313V56.7911C492.12 55.6711 492.35 55.6709 492.35 54.5509C492.35 53.4309 492.1 53.4306 492.1 52.3106C492.1 51.1906 492.01 51.1914 492.01 50.0714C492.01 48.9514 492.25 48.9609 492.25 47.8409C492.25 46.7209 492.37 46.7207 492.37 45.6007C492.37 44.4807 492.24 44.4912 492.24 43.3712C492.24 42.2512 491.89 42.251 491.89 41.131C491.89 40.011 492.16 40.0107 492.16 38.8907C492.16 37.7707 491.729 37.7712 491.729 36.6612C491.729 35.5512 491.81 35.541 491.81 34.421C491.81 33.301 492.04 33.3008 492.04 32.1808V29.9415C492.04 28.8215 492.04 28.8213 492.04 27.7013C492.04 26.5813 491.919 26.581 491.919 25.461C491.919 24.341 491.919 24.3408 491.919 23.2208C491.919 22.1008 492.169 22.1006 492.169 20.9806C492.169 19.8606 492.06 19.8613 492.06 18.7413C492.06 17.6213 491.61 17.6213 491.61 16.4913C491.61 15.3613 492.2 15.3808 492.2 14.2608C492.2 13.1408 492.2 13.1406 492.2 12.0206C492.2 10.9006 492.1 10.8906 492.1 9.77061C492.1 8.65061 491.6 8.65135 491.6 7.53135C491.6 6.41135 492.09 6.41111 492.09 5.29111C492.09 4.17111 491.75 4.16112 491.75 3.04112C491.75 1.92112 492.9 1.37115 492.11 0.581154C491.32 -0.208846 490.769 0.501076 489.649 0.501076C488.529 0.501076 488.53 1.13096 487.41 1.13096C486.29 1.13096 486.289 0.861427 485.169 0.861427C484.049 0.861427 484.05 0.441506 482.93 0.441506C481.81 0.441506 481.81 0.651467 480.68 0.651467C479.55 0.651467 479.559 0.831154 478.439 0.831154C477.319 0.831154 477.32 0.701271 476.2 0.701271C475.08 0.701271 475.07 1.02061 473.95 1.02061C472.83 1.02061 472.829 0.701271 471.709 0.701271C470.589 0.701271 470.589 0.760842 469.459 0.760842C468.329 0.760842 468.34 0.911232 467.22 0.911232C466.1 0.911232 466.099 0.441506 464.979 0.441506C463.859 0.441506 463.86 0.941506 462.74 0.941506C461.62 0.941506 461.61 0.880959 460.49 0.880959C459.37 0.880959 459.37 0.810646 458.25 0.810646C457.13 0.810646 457.13 0.630959 456.01 0.630959H453.76C452.64 0.630959 452.64 1.11143 451.52 1.11143C450.4 1.11143 450.4 0.730568 449.28 0.730568H447.03C445.91 0.730568 445.91 0.670998 444.79 0.670998C443.67 0.670998 443.67 0.791115 442.54 0.791115C441.41 0.791115 441.42 0.581154 440.3 0.581154C439.18 0.581154 439.18 0.581154 438.06 0.581154C436.94 0.581154 436.94 0.810646 435.82 0.810646C434.7 0.810646 434.7 1.15147 433.58 1.15147C432.46 1.15147 432.46 0.581154 431.34 0.581154C430.22 0.581154 430.22 1.01084 429.1 1.01084C427.98 1.01084 427.98 0.941506 426.86 0.941506C425.74 0.941506 425.74 0.751076 424.62 0.751076C423.5 0.751076 423.5 0.871193 422.39 0.871193C421.28 0.871193 421.269 0.930763 420.149 0.930763C419.029 0.930763 419.03 0.880959 417.91 0.880959C416.79 0.880959 416.789 0.630959 415.669 0.630959C414.549 0.630959 414.55 0.480568 413.43 0.480568C412.31 0.480568 412.3 0.810646 411.18 0.810646C410.06 0.810646 410.059 0.510842 408.939 0.510842C407.819 0.510842 407.819 0.751076 406.689 0.751076C405.559 0.751076 405.57 1.10069 404.45 1.10069C403.33 1.10069 403.329 0.680763 402.209 0.680763C401.089 0.680763 401.089 0.441506 399.959 0.441506C398.829 0.441506 398.84 0.670998 397.72 0.670998C396.6 0.670998 396.599 1.04111 395.479 1.04111C394.359 1.04111 394.36 0.791115 393.24 0.791115C392.12 0.791115 392.12 0.451271 391 0.451271C389.88 0.451271 389.88 1.13096 388.76 1.13096C387.64 1.13096 387.64 0.560646 386.52 0.560646C385.4 0.560646 385.4 1.15147 384.28 1.15147C383.16 1.15147 383.16 0.510842 382.03 0.510842C380.9 0.510842 380.91 0.930763 379.79 0.930763C378.67 0.930763 378.67 1.16123 377.54 1.16123C376.41 1.16123 376.42 1.16123 375.3 1.16123C374.18 1.16123 374.18 0.461037 373.05 0.461037C371.92 0.461037 371.93 1.05088 370.81 1.05088C369.69 1.05088 369.69 0.831154 368.57 0.831154C367.45 0.831154 367.45 1.13096 366.33 1.13096C365.21 1.13096 365.21 0.751076 364.08 0.751076C362.95 0.751076 362.96 1.02061 361.84 1.02061C360.72 1.02061 360.72 1.02061 359.6 1.02061C358.48 1.02061 358.47 0.680763 357.35 0.680763C356.23 0.680763 356.23 0.510842 355.11 0.510842C353.99 0.510842 353.98 1.12119 352.86 1.12119C351.74 1.12119 351.74 1.20127 350.62 1.20127C349.5 1.20127 349.49 0.480568 348.37 0.480568C347.25 0.480568 347.25 1.10069 346.13 1.10069C345.01 1.10069 345.01 0.791115 343.88 0.791115C342.75 0.791115 342.76 0.701271 341.64 0.701271C340.52 0.701271 340.52 0.520607 339.39 0.520607C338.26 0.520607 338.269 1.11143 337.149 1.11143C336.029 1.11143 336.019 0.760842 334.899 0.760842C333.779 0.760842 333.78 0.670998 332.66 0.670998C331.54 0.670998 331.53 0.531349 330.41 0.531349C329.29 0.531349 329.289 0.701271 328.169 0.701271C327.049 0.701271 327.039 1.18076 325.919 1.18076C324.799 1.18076 324.799 0.640724 323.669 0.640724C322.539 0.640724 322.55 0.59092 321.43 0.59092C320.31 0.59092 320.3 0.84092 319.18 0.84092C318.06 0.84092 318.059 1.09092 316.939 1.09092C315.819 1.09092 315.809 0.861427 314.689 0.861427C313.569 0.861427 313.559 0.701271 312.439 0.701271C311.319 0.701271 311.319 0.510842 310.189 0.510842C309.059 0.510842 309.07 1.16123 307.95 1.16123C306.83 1.16123 306.82 1.06065 305.7 1.06065C304.58 1.06065 304.58 0.621193 303.45 0.621193C302.32 0.621193 302.329 1.10069 301.209 1.10069C300.089 1.10069 300.079 0.930763 298.959 0.930763C297.839 0.930763 297.84 0.930763 296.72 0.930763C295.6 0.930763 295.59 1.19151 294.47 1.19151C293.35 1.19151 293.349 0.861427 292.229 0.861427H289.979C288.859 0.861427 288.86 1.08115 287.74 1.08115C286.62 1.08115 286.61 0.961037 285.49 0.961037C284.37 0.961037 284.37 0.890724 283.24 0.890724C282.11 0.890724 282.12 0.581154 281 0.581154C279.88 0.581154 279.87 1.2208 278.75 1.2208C277.63 1.2208 277.62 1.11143 276.5 1.11143C275.38 1.11143 275.38 0.571388 274.25 0.571388C273.12 0.571388 273.13 0.751076 272 0.751076C270.87 0.751076 270.88 0.531349 269.75 0.531349C268.62 0.531349 268.63 0.920998 267.5 0.920998C266.37 0.920998 266.38 0.980568 265.25 0.980568C264.12 0.980568 264.13 0.84092 263.01 0.84092C261.89 0.84092 261.88 0.701271 260.76 0.701271C259.64 0.701271 259.63 0.810646 258.51 0.810646C257.39 0.810646 257.38 0.560646 256.26 0.560646C255.14 0.560646 255.13 0.831154 254 0.831154C252.87 0.831154 252.88 0.770607 251.75 0.770607C250.62 0.770607 250.14 -0.0789632 249.34 0.711037C248.54 1.50104 249.76 1.99143 249.76 3.11143C249.76 4.23143 249.22 4.22092 249.22 5.34092C249.22 6.46092 249.47 6.46115 249.47 7.58115C249.47 8.70115 249.47 8.70065 249.47 9.81065C249.47 10.9206 249.649 10.9309 249.649 12.0509C249.649 13.1709 249.24 13.1613 249.24 14.2813C249.24 15.4013 249.5 15.4008 249.5 16.5108C249.5 17.6208 249.66 17.6311 249.66 18.7511C249.66 19.8711 249.51 19.8606 249.51 20.9806C249.51 22.1006 249.709 22.091 249.709 23.211C249.709 24.331 249.51 24.3315 249.51 25.4415C249.51 26.5515 249.51 26.5608 249.51 27.6808C249.51 28.8008 249.45 28.7912 249.45 29.9112C249.45 31.0312 249.22 31.0315 249.22 32.1515C249.22 33.2715 249.34 33.2707 249.34 34.3907C249.34 35.5107 249.189 35.5012 249.189 36.6212C249.189 37.7412 249.77 37.7414 249.77 38.8614C249.77 39.9814 249.25 39.9809 249.25 41.0909C249.25 42.2009 249.169 42.2112 249.169 43.3312C249.169 44.4512 249.689 44.4406 249.689 45.5606C249.689 46.6806 249.29 46.6809 249.29 47.8009C249.29 48.9209 249.08 48.9113 249.08 50.0313C249.08 51.1513 249.74 51.1506 249.74 52.2706C249.74 53.3906 249.34 53.3811 249.34 54.5011C249.34 55.6211 249.57 55.6213 249.57 56.7413C249.57 57.8613 249.33 57.8606 249.33 58.9806C249.33 60.1006 249.27 60.101 249.27 61.211C249.27 62.321 249.52 62.3313 249.52 63.4513C249.52 64.5713 249.729 64.5708 249.729 65.6808C249.729 66.7908 249.729 66.801 249.729 67.921C249.729 69.041 249.66 69.0412 249.66 70.1612C249.66 71.2812 249.14 71.2807 249.14 72.3907C249.14 73.5007 249.14 73.511 249.14 74.631C249.14 75.751 249.29 75.7512 249.29 76.8712C249.29 77.9912 249.29 77.9914 249.29 79.1114C249.29 80.2314 249.55 80.2209 249.55 81.3409C249.55 82.4609 249.55 82.4612 249.55 83.5812C249.55 84.7012 249.1 84.7014 249.1 85.8214C249.1 86.9414 249.78 86.9406 249.78 88.0606C249.78 89.1806 249.58 89.1811 249.58 90.2911C249.58 91.4011 249.1 91.4113 249.1 92.5313C249.1 93.6513 249.78 93.6506 249.78 94.7706C249.78 95.8906 249.11 95.8908 249.11 97.0108C249.11 98.1308 249.18 98.1311 249.18 99.2511C249.18 100.371 249.78 100.371 249.78 101.481C249.78 102.591 249.27 102.601 249.27 103.721C249.27 104.841 249.54 104.841 249.54 105.961C249.54 107.081 249.54 107.081 249.54 108.201C249.54 109.321 249.38 109.322 249.38 110.442C249.38 111.562 249.16 111.561 249.16 112.681C249.16 113.801 249.49 113.801 249.49 114.911C249.49 116.021 249.49 116.031 249.49 117.151C249.49 118.271 249.24 118.261 249.24 119.381C249.24 120.501 249.47 120.501 249.47 121.621C249.47 122.741 249.47 122.741 249.47 123.861C249.47 124.981 249.11 124.981 249.11 126.101C249.11 127.221 249.35 127.221 249.35 128.331C249.35 129.441 249.29 129.451 249.29 130.571C249.29 131.691 249.1 131.691 249.1 132.811C249.1 133.931 249.62 133.931 249.62 135.051C249.62 136.171 249.09 136.171 249.09 137.291C249.09 138.411 249.55 138.411 249.55 139.531C249.55 140.651 249.189 140.651 249.189 141.771C249.189 142.891 249.669 142.901 249.669 144.021C249.669 145.141 249.25 145.141 249.25 146.261C249.25 147.381 249.32 147.381 249.32 148.491C249.32 149.601 248.979 149.621 248.979 150.741C248.979 151.861 249.64 151.861 249.64 152.981C249.64 154.101 249.64 154.101 249.64 155.221C249.64 156.341 249.16 156.341 249.16 157.471C249.16 158.601 249.52 158.591 249.54 159.711C249.56 160.831 249.95 160.671 249.95 161.791Z" fill="#FFCDBC"/>
<path d="M444.69 52.6207C444.96 53.8407 445 53.8306 445.27 55.0406C445.54 56.2506 445.27 56.3704 446.08 57.3404C446.89 58.3104 447.08 58.0306 448.18 58.5406C449.28 59.0506 449.37 58.931 450.51 59.441C450.698 59.535 450.857 59.6761 450.973 59.8512C451.089 60.0262 451.157 60.2286 451.17 60.4381C451.183 60.6476 451.141 60.8573 451.048 61.0455C450.955 61.2337 450.814 61.3936 450.64 61.5103C449.57 62.1403 449.52 62.0708 448.45 62.7008C447.38 63.3308 446.89 62.8707 446.21 63.9107C445.53 64.9507 446.21 65.2205 446.1 66.4605C445.99 67.7005 445.98 67.701 445.84 68.941C445.811 69.1411 445.729 69.3294 445.601 69.4859C445.473 69.6425 445.304 69.7608 445.114 69.8287C444.923 69.8966 444.718 69.9109 444.52 69.8707C444.322 69.8305 444.139 69.737 443.99 69.6002C443.05 68.7802 442.99 68.8606 441.99 68.0406C440.99 67.2206 441.35 66.7403 440.14 66.4303C438.93 66.1203 438.92 66.5103 437.7 66.7603C436.48 67.0103 436.51 67.1302 435.29 67.3902C435.091 67.4286 434.886 67.4128 434.697 67.3433C434.507 67.2739 434.34 67.1541 434.213 66.9967C434.087 66.8393 434.006 66.6499 433.979 66.4498C433.951 66.2497 433.98 66.0463 434.06 65.8609C434.56 64.7109 434.64 64.7509 435.13 63.6109C435.62 62.4709 435.94 62.5306 435.87 61.2906C435.8 60.0506 435.5 60.1401 434.87 59.0601C434.24 57.9801 434.05 58.0601 433.43 57.0601C433.339 56.8751 433.299 56.669 433.316 56.4635C433.332 56.2579 433.402 56.0609 433.521 55.8922C433.64 55.7235 433.801 55.5892 433.989 55.5045C434.177 55.4198 434.385 55.3878 434.59 55.4107C435.83 55.5307 435.85 55.2907 437.09 55.4107C438.33 55.5307 438.41 56.3002 439.57 55.8502C440.73 55.4002 440.39 54.8503 441.23 53.9703C442.07 53.0903 442.23 53.1608 443.02 52.2408C443.107 52.0629 443.252 51.919 443.431 51.8336C443.61 51.7482 443.812 51.7261 444.005 51.7701C444.198 51.8141 444.371 51.9224 444.495 52.0767C444.619 52.2311 444.688 52.4225 444.69 52.6207Z" fill="#FFE6DE"/>
<path d="M431.83 99.1403C432.37 99.8203 432.35 99.8402 432.89 100.52C433.43 101.2 433.3 101.381 434.09 101.741C434.88 102.101 434.92 101.851 435.79 101.821C436.66 101.791 436.67 101.821 437.54 101.821C437.681 101.803 437.824 101.825 437.953 101.884C438.082 101.944 438.192 102.038 438.27 102.157C438.348 102.276 438.391 102.414 438.395 102.556C438.398 102.698 438.362 102.838 438.29 102.961C437.81 103.681 437.699 103.611 437.209 104.331C436.719 105.051 436.43 104.94 436.32 105.81C436.21 106.68 436.54 106.641 436.83 107.461C437.12 108.281 437.109 108.28 437.399 109.1C437.447 109.229 437.458 109.369 437.432 109.504C437.406 109.638 437.345 109.764 437.253 109.867C437.162 109.969 437.045 110.045 436.914 110.087C436.783 110.128 436.643 110.132 436.51 110.1C435.67 109.86 435.65 109.931 434.81 109.701C433.97 109.471 434.03 109.081 433.18 109.241C432.33 109.401 432.52 109.741 431.83 110.241C431.14 110.741 431.03 110.631 430.34 111.161C430.247 111.254 430.128 111.316 429.998 111.339C429.869 111.361 429.735 111.344 429.616 111.288C429.497 111.232 429.398 111.141 429.332 111.027C429.267 110.913 429.238 110.782 429.25 110.651C429.25 109.781 429.16 109.781 429.12 108.911C429.08 108.041 429.46 107.911 429.03 107.151C428.6 106.391 428.25 106.72 427.53 106.23L426.1 105.23C425.986 105.152 425.897 105.045 425.843 104.918C425.789 104.791 425.773 104.651 425.796 104.515C425.819 104.38 425.881 104.253 425.974 104.151C426.066 104.049 426.187 103.977 426.32 103.941C427.14 103.641 427.06 103.421 427.88 103.111C428.7 102.801 428.88 103.221 429.52 102.581C430.16 101.941 429.91 101.81 430.16 100.97C430.41 100.13 430.16 100.07 430.41 99.2302C430.473 99.1006 430.57 98.991 430.69 98.9108C430.811 98.8307 430.95 98.7832 431.094 98.7741C431.238 98.765 431.382 98.7938 431.511 98.8581C431.64 98.9224 431.75 99.0199 431.83 99.1403Z" fill="#FFB29D"/>
<path d="M459.3 74.781C459.89 75.641 459.83 75.681 460.42 76.531C461.01 77.381 460.98 77.4105 461.58 78.2605C462.18 79.1105 461.75 79.6404 462.66 80.1404C463.57 80.6404 463.79 79.8006 464.83 79.8406C465.87 79.8806 465.83 79.9405 466.91 79.9705C467.99 80.0005 467.91 80.3504 468.97 80.3904C469.21 80.3682 469.452 80.4194 469.663 80.5369C469.874 80.6543 470.045 80.8325 470.153 81.0486C470.262 81.2647 470.301 81.5084 470.269 81.7478C470.236 81.9872 470.132 82.2112 469.97 82.3904C469.34 83.2204 469.23 83.1307 468.6 83.9607C467.97 84.7907 468.16 84.9605 467.53 85.7605C466.9 86.5605 466.53 86.3909 466.32 87.4109C466.11 88.4309 466.52 88.4109 466.81 89.4109C467.1 90.4109 467.01 90.4109 467.3 91.4109C467.59 92.4109 467.65 92.4109 467.93 93.4109C468.005 93.6391 468.012 93.8848 467.95 94.117C467.887 94.3491 467.759 94.557 467.579 94.7166C467.399 94.8762 467.176 94.98 466.938 95.0144C466.7 95.0488 466.458 95.013 466.24 94.9109C465.24 94.5709 465.24 94.7304 464.24 94.3904C463.24 94.0504 463.24 94.0107 462.24 93.6707C461.24 93.3307 461.24 92.7711 460.24 92.9011C459.24 93.0311 459.49 93.7606 458.63 94.3406C457.77 94.9206 457.58 94.6405 456.71 95.2205C455.84 95.8005 455.94 95.9305 455.08 96.5105C454.87 96.6542 454.625 96.7375 454.372 96.7507C454.118 96.764 453.866 96.7067 453.642 96.5857C453.419 96.4647 453.233 96.2849 453.106 96.0652C452.978 95.8455 452.914 95.5945 452.92 95.3406C452.92 94.3406 452.83 94.3403 452.85 93.2703C452.87 92.2003 453.13 92.2712 453.16 91.1912C453.19 90.1112 453.48 90.0609 453.04 89.1209C452.6 88.1809 452.17 88.5607 451.35 87.9207C450.53 87.2807 450.59 87.2111 449.77 86.5711C448.95 85.9311 448.87 86.0304 448.05 85.3904C447.855 85.2119 447.71 84.9866 447.63 84.7351C447.549 84.4837 447.535 84.2152 447.59 83.9568C447.644 83.6984 447.765 83.4589 447.941 83.2615C448.116 83.064 448.34 82.9155 448.59 82.8308C449.59 82.5308 449.59 82.5107 450.59 82.2107C451.59 81.9107 451.59 81.9404 452.59 81.6404C453.59 81.3404 453.92 81.8611 454.68 81.1511C455.44 80.4411 455 80.1511 455.35 79.1511C455.7 78.1511 455.79 78.2102 456.15 77.2302C456.51 76.2502 456.15 76.1311 456.52 75.1511C456.635 74.895 456.813 74.6724 457.039 74.5047C457.264 74.3369 457.528 74.2292 457.807 74.1922C458.085 74.1551 458.368 74.1897 458.63 74.2927C458.891 74.3957 459.122 74.564 459.3 74.781Z" fill="#FFB29D"/>
<path d="M274.51 125.782C275.51 125.072 275.56 125.101 276.58 124.391C277.6 123.681 278.13 124.081 278.72 122.981C279.31 121.881 278.48 121.651 278.51 120.411C278.54 119.171 278.73 119.171 278.76 117.931C278.748 117.732 278.796 117.533 278.898 117.362C279 117.19 279.152 117.053 279.332 116.968C279.513 116.883 279.715 116.854 279.913 116.885C280.11 116.916 280.293 117.005 280.439 117.141C281.439 117.891 281.44 117.942 282.39 118.692C283.34 119.442 283.239 119.911 284.459 120.131C285.679 120.351 285.62 119.551 286.82 119.201C288.02 118.851 288.09 119.111 289.28 118.761C289.456 118.711 289.643 118.71 289.819 118.758C289.996 118.806 290.156 118.902 290.282 119.035C290.408 119.169 290.495 119.334 290.533 119.513C290.572 119.692 290.56 119.878 290.499 120.051C290.089 121.231 290.209 121.272 289.809 122.442C289.409 123.612 288.96 123.552 289.12 124.782C289.28 126.012 289.71 125.781 290.41 126.851C291.11 127.921 291.049 127.921 291.749 128.951C291.845 129.104 291.898 129.28 291.901 129.46C291.905 129.641 291.86 129.819 291.771 129.976C291.682 130.133 291.552 130.263 291.395 130.352C291.238 130.441 291.06 130.485 290.88 130.481C289.63 130.481 289.63 130.781 288.38 130.761C287.13 130.741 287.059 130.121 285.939 130.661C284.819 131.201 285.04 131.481 284.28 132.471C283.52 133.461 283.71 133.601 282.95 134.581C282.806 134.739 282.624 134.857 282.422 134.923C282.219 134.99 282.003 135.002 281.794 134.961C281.585 134.92 281.39 134.826 281.228 134.688C281.066 134.549 280.943 134.371 280.87 134.171C280.5 132.981 280.519 132.972 280.149 131.782C279.779 130.592 280.15 130.411 279.33 129.511C278.51 128.611 278.33 128.971 277.11 128.511L274.769 127.671C274.588 127.601 274.428 127.483 274.308 127.33C274.187 127.178 274.109 126.996 274.082 126.803C274.056 126.61 274.082 126.413 274.157 126.234C274.232 126.054 274.354 125.898 274.51 125.782Z" fill="#FFE6DE"/>
<path d="M207.169 47.8306C207.439 49.0506 207.47 49.0403 207.74 50.2603C208.01 51.4803 207.56 51.7503 208.34 52.7203C209.12 53.6903 209.579 53.1106 210.709 53.6206C211.839 54.1306 211.8 54.2503 212.93 54.7603C213.127 54.8326 213.3 54.9596 213.429 55.1265C213.557 55.2935 213.635 55.494 213.654 55.7037C213.673 55.9133 213.631 56.1239 213.535 56.3111C213.439 56.4982 213.291 56.6538 213.11 56.7603C212.03 57.3903 212.029 57.3801 210.959 58.0201C209.889 58.6601 209.399 58.1507 208.729 59.2007C208.059 60.2507 208.66 60.4705 208.53 61.7105C208.4 62.9505 208.24 62.9305 208.11 64.1705C208.117 64.3716 208.063 64.5705 207.956 64.7408C207.849 64.911 207.692 65.0446 207.507 65.1246C207.322 65.2045 207.118 65.2272 206.92 65.189C206.723 65.1508 206.541 65.0538 206.399 64.9107C205.469 64.0907 205.4 64.1809 204.45 63.3609C203.5 62.5409 203.92 61.7803 202.72 61.4703C201.52 61.1603 201.429 61.7105 200.209 61.9605C198.989 62.2105 199 62.2503 197.78 62.5103C197.581 62.5606 197.372 62.5568 197.176 62.4986C196.979 62.4403 196.802 62.3297 196.663 62.1792C196.524 62.0288 196.428 61.8436 196.385 61.6431C196.342 61.4426 196.354 61.2348 196.419 61.0406C196.919 59.9006 197.199 60.0404 197.689 58.8804C198.179 57.7204 198.589 57.7808 198.519 56.5308C198.449 55.2808 197.96 55.4301 197.34 54.3501C196.72 53.2701 196.579 53.3501 195.959 52.2701C195.867 52.0856 195.827 51.8798 195.843 51.6744C195.859 51.4689 195.93 51.2723 196.049 51.104C196.168 50.9358 196.33 50.8026 196.519 50.7193C196.707 50.636 196.915 50.6052 197.12 50.6304C198.36 50.7404 198.36 50.7604 199.6 50.8804C200.84 51.0004 200.87 51.3304 202.03 50.8804C203.19 50.4304 202.829 50.0301 203.669 49.1001C204.509 48.1701 204.669 48.3307 205.499 47.4107C205.609 47.2618 205.76 47.149 205.934 47.0865C206.108 47.024 206.296 47.0141 206.476 47.0591C206.655 47.1042 206.816 47.2021 206.94 47.3394C207.063 47.4767 207.143 47.6477 207.169 47.8306Z" fill="#FFB29D"/>
<path d="M181.94 25.9708C182.48 26.6608 182.54 26.6111 183.08 27.2911C183.62 27.9711 183.29 28.4213 184.08 28.7813C184.87 29.1413 184.99 28.6909 185.86 28.6709C186.73 28.6509 186.74 28.6709 187.61 28.6709C187.749 28.6585 187.889 28.6853 188.013 28.7491C188.138 28.8129 188.241 28.911 188.313 29.0313C188.384 29.1516 188.419 29.29 188.415 29.4297C188.411 29.5695 188.368 29.7053 188.29 29.8213C187.81 30.5513 187.73 30.4908 187.29 31.2208C186.85 31.9508 186.46 31.851 186.36 32.711C186.26 33.571 186.59 33.5707 186.88 34.3907C187.17 35.2107 187.3 35.1713 187.6 35.9913C187.642 36.1303 187.646 36.2778 187.611 36.419C187.576 36.5601 187.504 36.6892 187.401 36.792C187.298 36.8949 187.169 36.9679 187.028 37.003C186.887 37.038 186.739 37.0341 186.6 36.9913C185.76 36.7513 185.739 36.8211 184.899 36.5811C184.059 36.3411 184.08 35.8008 183.22 35.9708C182.36 36.1408 182.54 36.5811 181.85 37.1211C181.16 37.6611 181.13 37.6011 180.44 38.1211C180.342 38.2094 180.22 38.266 180.089 38.2842C179.958 38.3024 179.825 38.2818 179.707 38.2237C179.589 38.1656 179.49 38.0725 179.425 37.9581C179.359 37.8436 179.33 37.7126 179.34 37.5811C179.34 36.7111 179.28 36.7109 179.25 35.8409C179.22 34.9709 179.56 34.8413 179.13 34.0713C178.7 33.3013 178.33 33.6512 177.61 33.1612C176.89 32.6712 176.94 32.5906 176.22 32.1006C176.102 32.0234 176.007 31.9161 175.945 31.7891C175.883 31.6622 175.857 31.5205 175.87 31.3799C175.882 31.2393 175.932 31.1046 176.015 30.9903C176.098 30.876 176.21 30.786 176.34 30.7305L177.98 30.1211C178.8 29.8211 179.07 30.2209 179.66 29.5909C180.25 28.9609 179.86 28.7109 180.11 27.8809C180.36 27.0509 180.46 27.0705 180.7 26.2305C180.727 26.0985 180.791 25.9774 180.886 25.8819C180.981 25.7863 181.103 25.7211 181.234 25.6934C181.366 25.6658 181.503 25.6773 181.628 25.7266C181.754 25.7759 181.862 25.8607 181.94 25.9708Z" fill="#FFE6DE"/>
<path d="M26.8199 117.881C28.0599 117.881 28.0699 117.732 29.3199 117.782C30.5699 117.832 30.6997 118.611 31.8297 118.091C32.9597 117.571 32.4799 116.971 33.2599 116.001C34.0399 115.031 34.2599 115.191 35.0099 114.211C35.1283 114.049 35.289 113.922 35.4747 113.844C35.6604 113.767 35.8636 113.741 36.0626 113.771C36.2616 113.801 36.449 113.884 36.6036 114.013C36.7583 114.142 36.8742 114.311 36.9396 114.501C37.2796 115.701 37.1897 115.721 37.5397 116.921C37.8897 118.121 37.2998 118.471 38.1398 119.381C38.9798 120.291 39.4397 119.611 40.5997 120.051C41.7597 120.491 41.7 120.672 42.86 121.112C43.0565 121.163 43.2327 121.272 43.3653 121.426C43.498 121.58 43.5804 121.77 43.6022 121.972C43.6239 122.174 43.5838 122.378 43.4869 122.556C43.39 122.735 43.2409 122.879 43.0597 122.971C42.0597 123.661 41.9696 123.592 40.9396 124.282C39.9096 124.972 39.5496 124.711 38.9396 125.801C38.3296 126.891 38.9398 127.061 38.8898 128.311C38.8398 129.561 38.8897 129.551 38.8297 130.801C38.8039 131.01 38.7245 131.208 38.5992 131.377C38.474 131.546 38.3071 131.681 38.1149 131.766C37.9226 131.852 37.7115 131.886 37.5021 131.866C37.2926 131.846 37.092 131.772 36.9195 131.652C35.9195 130.882 35.9198 130.851 34.9698 130.091C34.0198 129.331 34.2396 128.811 33.0196 128.561C31.7996 128.311 31.8197 128.872 30.6197 129.192C29.4197 129.512 29.4096 129.502 28.2096 129.822C28.0155 129.881 27.809 129.885 27.6129 129.832C27.4168 129.78 27.239 129.674 27.0997 129.527C26.9604 129.379 26.8649 129.195 26.8243 128.997C26.7837 128.798 26.7995 128.592 26.8697 128.402C27.2997 127.232 27.4097 127.272 27.8697 126.112C28.3297 124.952 28.6596 124.982 28.5196 123.742C28.3796 122.502 28.0497 122.612 27.3697 121.572C26.6897 120.532 26.4396 120.692 25.7496 119.652C25.6534 119.468 25.6064 119.261 25.6129 119.053C25.6194 118.845 25.6792 118.643 25.7867 118.465C25.8942 118.287 26.0458 118.141 26.2267 118.039C26.4076 117.936 26.6121 117.882 26.8199 117.881Z" fill="#FFE6DE"/>
<path d="M74.6895 129.991C75.5395 129.821 75.5097 129.681 76.3697 129.511C77.2297 129.341 77.3699 129.701 78.0499 129.161C78.7299 128.621 78.4699 128.441 78.8399 127.651L79.5997 126.081C79.666 125.949 79.7657 125.837 79.8888 125.755C80.0118 125.673 80.154 125.624 80.3013 125.614C80.4487 125.604 80.5961 125.633 80.7291 125.697C80.8621 125.762 80.976 125.859 81.0596 125.98C81.4896 126.74 81.4497 126.761 81.8697 127.521C82.2897 128.281 81.8697 128.671 82.6197 129.161C83.3697 129.651 83.5497 129.11 84.4097 129.23C85.2697 129.35 85.2597 129.461 86.1197 129.581C86.2569 129.592 86.388 129.642 86.4981 129.725C86.6082 129.807 86.6931 129.919 86.7423 130.048C86.7914 130.176 86.8029 130.316 86.776 130.451C86.749 130.586 86.6847 130.711 86.5899 130.811C85.9899 131.451 86.0696 131.521 85.4796 132.161C84.8896 132.801 84.4198 132.531 84.1798 133.371C83.9398 134.211 84.3596 134.251 84.5196 135.101C84.6796 135.951 84.7898 135.941 84.9498 136.801C84.967 136.946 84.9449 137.093 84.8863 137.227C84.8277 137.36 84.7345 137.476 84.6163 137.562C84.498 137.647 84.3593 137.7 84.2139 137.714C84.0686 137.728 83.922 137.702 83.7896 137.641C82.9996 137.271 82.9395 137.391 82.1495 137.031C81.3595 136.671 81.4899 136.121 80.6099 136.151C79.7299 136.181 79.89 136.701 79.13 137.151C78.37 137.601 78.2798 137.411 77.5098 137.831C77.3893 137.905 77.2508 137.944 77.1095 137.944C76.9681 137.945 76.8294 137.905 76.7086 137.832C76.5877 137.759 76.4894 137.654 76.4244 137.528C76.3594 137.403 76.3302 137.262 76.3399 137.121C76.4399 136.261 76.5099 136.261 76.6099 135.401C76.7099 134.541 77.1797 134.461 76.8897 133.641C76.5997 132.821 76.1096 133.151 75.4796 132.551C74.8496 131.951 74.9399 131.851 74.2999 131.251C74.1841 131.164 74.098 131.044 74.0533 130.906C74.0086 130.769 74.0076 130.621 74.0504 130.483C74.0931 130.345 74.1776 130.224 74.2921 130.136C74.4066 130.048 74.5451 129.997 74.6895 129.991Z" fill="#FFE6DE"/>
<path d="M50.6797 107.841C51.5997 107.361 51.6196 107.401 52.5396 106.921C53.4596 106.441 53.5395 106.561 54.4395 106.081C55.3395 105.601 55.5797 105.881 56.1997 105.081C56.8197 104.281 56.3696 104.081 56.5396 103.081C56.7096 102.081 56.7695 102.081 56.9395 101.081C57.1095 100.081 56.9995 100.03 57.1695 99.0104C57.2236 98.7609 57.3451 98.5309 57.5205 98.3454C57.696 98.1599 57.9189 98.0257 58.1651 97.9577C58.4112 97.8897 58.6712 97.8905 58.917 97.9596C59.1628 98.0288 59.3851 98.1639 59.5596 98.3503C60.2996 99.0703 60.3196 99.0607 61.0596 99.7907C61.7996 100.521 61.9998 100.311 62.7398 101.041C63.4798 101.771 63.0896 102.311 64.0796 102.631C65.0696 102.951 65.1297 102.63 66.1597 102.52C67.1897 102.41 67.1597 101.97 68.1597 101.81C69.1597 101.65 69.2195 101.87 70.2495 101.72C70.5137 101.688 70.7818 101.724 71.0279 101.826C71.2739 101.927 71.4896 102.091 71.6543 102.299C71.8191 102.508 71.9276 102.756 71.9688 103.019C72.01 103.282 71.9826 103.551 71.8897 103.8C71.4297 104.73 71.0897 104.561 70.6197 105.491C70.1497 106.421 70.3895 106.491 69.9195 107.491C69.4495 108.491 69.0396 108.27 69.0396 109.31C69.0396 110.35 69.3696 110.241 69.8296 111.171C70.2896 112.101 70.2898 112.101 70.7598 113.031C71.2298 113.961 71.4097 113.87 71.8697 114.8C71.9672 115.055 71.9984 115.33 71.9605 115.6C71.9225 115.87 71.8168 116.127 71.6529 116.344C71.489 116.562 71.2724 116.735 71.0235 116.846C70.7746 116.958 70.5012 117.003 70.2295 116.98C69.2295 116.83 69.2295 116.541 68.2295 116.381C67.2295 116.221 67.1599 116.541 66.1299 116.381C65.0999 116.221 65.0499 115.53 64.0699 115.85C63.0899 116.17 63.3299 116.641 62.5899 117.371C61.8499 118.101 61.9798 118.231 61.2398 118.961C60.4998 119.691 60.3299 119.521 59.5899 120.251C59.4255 120.433 59.2122 120.563 58.9756 120.628C58.739 120.692 58.4888 120.687 58.2549 120.613C58.0211 120.539 57.8132 120.4 57.6563 120.212C57.4993 120.023 57.3999 119.794 57.3697 119.55C57.1997 118.55 56.9996 118.55 56.8296 117.55C56.6596 116.55 56.8297 116.491 56.6797 115.461C56.5297 114.431 56.7497 114.381 56.1397 113.531C55.5297 112.681 55.4195 112.861 54.4995 112.381C53.5795 111.901 53.4995 112.131 52.4995 111.651C51.4995 111.171 51.7298 110.891 50.7998 110.421C50.5369 110.33 50.3073 110.162 50.1407 109.939C49.974 109.716 49.8777 109.449 49.8648 109.172C49.8519 108.894 49.9226 108.618 50.0679 108.381C50.2132 108.143 50.4263 107.955 50.6797 107.841Z" fill="#FFB29D"/>
</g>
</svg>
