<svg width="157" height="158" viewBox="0 0 157 158" fill="none" xmlns="http://www.w3.org/2000/svg">
<rect width="156.296" height="156.296" fill="white"/>
<path d="M127.724 51.6766C127.599 56.7341 125.692 61.5852 122.34 65.3742C121.067 66.4678 119.659 67.3942 118.15 68.131C115.362 70.0195 112.025 70.9282 108.664 70.7143C105.285 70.922 101.92 70.1287 98.9891 68.4337C96.0585 66.7387 93.6929 64.2172 92.1879 61.1846C90.432 58.3126 89.4383 55.04 89.3008 51.6766C89.3964 49.9986 89.7177 48.3411 90.2559 46.7489C90.6511 45.1284 91.2569 43.5666 92.0577 42.1035C92.8699 40.6278 93.8695 39.2634 95.0317 38.0441C96.2486 36.8973 97.6138 35.9189 99.091 35.1353C100.504 34.206 102.038 33.4755 103.65 32.9645C105.298 32.6206 106.984 32.4965 108.664 32.5955C112.004 32.6095 115.3 33.3503 118.324 34.7662C119.716 35.7126 120.985 36.8283 122.101 38.0875C123.347 39.2075 124.441 40.4845 125.357 41.8864C126.227 43.3366 126.891 44.8998 127.333 46.5318C127.686 48.2225 127.817 49.952 127.724 51.6766Z" fill="#C8D2ED"/>
<path d="M153.06 123.965C152.018 121.794 151.041 122.359 149.196 120.882C147.35 119.406 147.025 119.927 145.093 118.451C143.161 116.975 142.922 117.279 141.185 115.803C139.449 114.327 139.818 113.762 137.994 112.286C136.171 110.81 135.824 111.201 134 109.703C132.177 108.205 132.763 107.532 130.939 106.013C129.116 104.493 129.051 104.602 127.206 103.125C125.36 101.649 124.796 102.344 122.864 100.955C120.932 99.5654 121.648 98.7839 119.803 97.2427C117.958 95.7014 117.285 96.6132 115.462 95.0719C113.638 93.5307 113.855 93.2919 112.01 91.8158C110.165 90.3396 109.839 90.6435 108.059 89.1674C106.757 88.1254 105.541 86.5408 103.978 86.5408C102.259 86.666 100.625 87.335 99.3112 88.451C97.249 90.1008 97.3357 90.2094 95.2735 91.8809C93.2112 93.5524 93.385 93.7477 91.3011 95.3975C89.2171 97.0473 89.3039 97.1341 87.22 98.8056C85.136 100.477 85.6353 101.563 82.8784 101.693C80.1216 101.823 80.7077 100.868 78.9711 99.4135C77.2345 97.959 77.3864 97.6117 75.5629 96.1573C73.7395 94.7029 73.9782 94.3556 72.1331 92.8794L68.5947 89.8838C66.7713 88.4076 66.424 88.7115 64.6873 87.2354C62.9507 85.7593 63.1461 85.3903 61.3227 83.8924C59.4992 82.3946 59.6295 82.2643 57.7843 80.7882C55.9391 79.3121 55.6135 79.8331 53.7032 78.3352C51.7929 76.8374 51.9883 76.7072 50.1431 75.2093C48.298 73.7115 48.4282 73.5812 46.583 72.1051C45.1403 71.3144 43.4736 71.0315 41.8508 71.3019C40.2482 71.0787 38.6174 71.4079 37.227 72.2354C35.447 73.6681 36.0331 74.4061 34.253 75.8606C32.473 77.315 31.5613 76.2079 29.7813 77.6623C28.0012 79.1167 28.4571 79.6811 26.6553 81.1355C24.8536 82.59 24.4845 82.0907 22.6828 83.5451C20.881 84.9995 21.185 85.3685 19.3833 86.823C17.5816 88.2774 18.0591 88.8418 16.2574 90.2962C14.4556 91.7506 14.2168 91.4467 12.4368 92.9011C10.6568 94.3556 10.0489 93.6175 8.22548 95.0719C6.40203 96.5263 6.05471 96.3744 4.96932 98.48C3.88393 100.586 5.75077 100.911 5.75077 103.321C5.75077 105.73 4.53514 105.73 4.53514 108.14C4.53514 110.55 4.99105 110.55 4.99105 112.959C4.99105 115.369 5.42523 115.369 5.42523 117.778C5.42523 120.188 4.77389 120.188 4.77389 122.597C4.77389 125.007 5.46856 125.007 5.46856 127.395C5.46856 129.783 4.33984 129.804 4.33984 132.214C4.33984 134.623 4.5786 134.645 4.5786 137.055C4.5786 139.464 5.70744 139.464 5.70744 141.874C5.70744 144.283 4.36144 144.283 4.36144 146.693C4.36144 149.102 5.46856 149.102 5.46856 151.534C5.46856 153.965 3.73194 154.269 5.46856 155.875C7.20518 157.482 7.53083 155.55 9.9838 155.55C12.4368 155.55 12.4368 155.832 14.8898 155.832C17.3427 155.832 17.3428 156.201 19.8175 156.201C22.2922 156.201 22.2703 156.418 24.7233 156.418C27.1763 156.418 27.1763 155.593 29.6293 155.593C32.0823 155.593 32.0823 155.81 34.557 155.81C37.0317 155.81 37.01 156.722 39.463 156.722C41.9159 156.722 41.916 155.788 44.3689 155.788C46.8219 155.788 46.8218 156.244 49.2748 156.244C51.7277 156.244 51.7278 156.961 54.1807 156.961C56.6337 156.961 56.6337 155.767 59.0867 155.767C61.5397 155.767 61.5397 155.615 63.9927 155.615C66.4457 155.615 66.4674 155.615 68.9204 155.615C71.3734 155.615 71.3732 155.615 73.8262 155.615C76.2792 155.615 76.2792 156.83 78.7322 156.83C81.1852 156.83 81.1852 156.179 83.6599 156.179C86.1346 156.179 86.1129 155.767 88.5659 155.767C91.0188 155.767 91.0189 156.244 93.4718 156.244C95.9248 156.244 95.9464 155.832 98.3994 155.832C100.852 155.832 100.852 155.702 103.305 155.702C105.758 155.702 105.78 155.702 108.233 155.702C110.686 155.702 110.686 156.157 113.139 156.157H118.067C120.52 156.157 120.52 157.026 122.973 157.026C125.426 157.026 125.447 155.984 127.9 155.984C130.353 155.984 130.353 156.635 132.828 156.635C135.303 156.635 135.281 156.114 137.734 156.114C140.187 156.114 140.209 156.309 142.662 156.309C145.114 156.309 145.136 156.722 147.589 156.722C150.042 156.722 150.303 157.503 152.104 155.832C153.906 154.16 152.104 154.008 152.104 151.707C152.104 149.406 152.452 149.537 152.452 147.127C152.452 144.717 153.081 144.826 153.081 142.525C153.081 140.224 152.864 140.354 152.864 137.945C152.864 135.535 152.321 135.644 152.321 133.343C152.321 131.042 151.518 130.89 151.974 128.632C152.43 126.374 154.058 126.049 153.06 123.965Z" fill="#C8D2ED"/>
<rect opacity="0.3" width="156.296" height="156.296" fill="#354E80"/>
<g filter="url(#filter0_d_1270_16359)">
<circle cx="80.0703" cy="85.0654" r="24" fill="white"/>
<path d="M71.1016 85.0615C71.1016 84.1943 71.8164 83.4912 72.6836 83.4912H78.9883V77.1865C78.9883 76.3193 79.6914 75.6045 80.5586 75.6045C81.4375 75.6045 82.1406 76.3193 82.1406 77.1865V83.4912H88.4453C89.3125 83.4912 90.0273 84.1943 90.0273 85.0615C90.0273 85.9404 89.3125 86.6436 88.4453 86.6436H82.1406V92.9482C82.1406 93.8154 81.4375 94.5303 80.5586 94.5303C79.6914 94.5303 78.9883 93.8154 78.9883 92.9482V86.6436H72.6836C71.8164 86.6436 71.1016 85.9404 71.1016 85.0615Z" fill="#5E9BF0"/>
</g>
<defs>
<filter id="filter0_d_1270_16359" x="26.0703" y="35.0654" width="108" height="108" filterUnits="userSpaceOnUse" color-interpolation-filters="sRGB">
<feFlood flood-opacity="0" result="BackgroundImageFix"/>
<feColorMatrix in="SourceAlpha" type="matrix" values="0 0 0 0 0 0 0 0 0 0 0 0 0 0 0 0 0 0 127 0" result="hardAlpha"/>
<feOffset dy="4"/>
<feGaussianBlur stdDeviation="15"/>
<feComposite in2="hardAlpha" operator="out"/>
<feColorMatrix type="matrix" values="0 0 0 0 0.368627 0 0 0 0 0.607843 0 0 0 0 0.941176 0 0 0 0.7 0"/>
<feBlend mode="normal" in2="BackgroundImageFix" result="effect1_dropShadow_1270_16359"/>
<feBlend mode="normal" in="SourceGraphic" in2="effect1_dropShadow_1270_16359" result="shape"/>
</filter>
</defs>
</svg>
