<?xml version="1.0" encoding="utf-8"?>
<!-- Generator: Adobe Illustrator 27.5.0, SVG Export Plug-In . SVG Version: 6.00 Build 0)  -->
<svg version="1.1" id="레이어_1" xmlns="http://www.w3.org/2000/svg" xmlns:xlink="http://www.w3.org/1999/xlink" x="0px"
	 y="0px" viewBox="0 0 65 48.2" style="enable-background:new 0 0 65 48.2;" xml:space="preserve">
<style type="text/css">
	.st0{fill:#CCD5FF;}
	.st1{fill:#383838;}
	.st2{fill:#FFFFFF;}
	.st3{fill:#FFB3C5;}
</style>
<path class="st0" d="M12.2,40.1c0.1-0.3,0.3-0.5,0.4-0.8c0.1-0.3,0.3-0.5,0.4-0.8c0-0.3-0.6-0.6-0.6-0.9c0-0.3,0-0.5-0.1-0.8
	c0-0.3,0-0.5-0.1-0.8c-0.1-0.3,0.1-0.6,0-0.9c-0.2-0.4-0.4-0.3-0.6-0.8c-0.2-0.4,0-0.5-0.1-1c-0.2-0.4-0.5-0.3-0.7-0.8
	c-0.1-0.3,0.3-0.7,0.3-0.9c0-0.3-0.4-0.7-0.3-0.9c0.2-0.4,0.8-0.2,0.9-0.7c0.2-0.4-0.2-0.6,0-1c0.2-0.4,0.6-0.3,0.8-0.7
	c0.1-0.3-0.1-0.6,0-0.9c0.1-0.3-0.1-0.6-0.1-0.9c0-0.3,0.6-0.5,0.6-0.8c0-0.3-0.6-0.5-0.6-0.8c0-0.3,0-0.5,0-0.8
	c-0.1-0.3-0.2-0.5-0.3-0.8c-0.2-0.4-0.3-0.4-0.4-0.8c-0.2-0.4-0.1-0.5-0.2-0.9c-0.2-0.4,0-0.5-0.2-0.9c-0.1-0.3,0-0.6,0-0.8
	c0-0.3,0-0.5,0-0.8c0.2-0.4,0.4-0.4,0.6-0.8c0.2-0.4-0.3-0.6-0.1-1.1c0.2-0.4,0.6-0.3,0.8-0.7c0.2-0.4-0.4-1.1-0.9-1.1
	c-0.5,0-0.5-0.1-1-0.1s-0.5,0.2-1,0.2c-0.5,0-0.5,0.4-1,0.4c-0.5,0-0.5-0.6-1-0.6s-0.5,0.2-1,0.2c-0.5,0-0.5-0.2-1-0.2
	c-0.5,0-0.5,0.5-1,0.5c-0.5,0-0.5-0.5-1-0.5c-0.4,0-0.6,0.6-1,0.7c-0.3,0.1-0.6,0.3-0.8,0.5c-0.2,0.2-0.7,0.3-0.9,0.6
	c-0.1,0.2-0.4,0.1-0.4,0.3c-0.1,0.3,0.1,0.6,0,0.9c-0.1,0.3,0.2,0.6,0.2,0.9c0,0.3-0.6,0.5-0.6,0.8c0.1,0.3,0.1,0.6,0.2,0.8
	c0,0.3,0,0.6,0,0.9c0.1,0.3,0.2,0.5,0.3,0.8c0.2,0.4,0.2,0.4,0.3,0.9c0.2,0.4,0,0.5,0.2,0.9C1.4,24.7,1.8,24.5,2,25
	c0.2,0.3,0.3,0.6,0.3,0.9c0,0.3-0.1,0.6-0.3,0.9c-0.2,0.4-0.1,0.5-0.3,0.9c-0.2,0.4-0.5,0.3-0.7,0.8c-0.2,0.4-0.1,0.5-0.3,0.9
	c-0.1,0.3,0,0.6,0,0.9C0.6,30.4,0,30.6,0,30.9c0,0.3,0.3,0.6,0.3,0.9C0.4,32,0,32.3,0,32.6c0,0.3,0.6,0.5,0.6,0.8
	c0.1,0.3,0.3,0.5,0.4,0.7c0.2,0.4-0.2,0.6,0,1c0.2,0.4,0.3,0.4,0.4,0.8c0.2,0.4,0.2,0.4,0.3,0.9c0.1,0.3,0.4,0.5,0.4,0.8
	c0,0.3-0.1,0.6-0.2,0.9c-0.2,0.4-0.5,0.3-0.7,0.8c-0.2,0.4,0.1,0.5-0.1,1c-0.2,0.4-0.4,0.4-0.6,0.8c-0.1,0.3,0.3,0.7,0.2,0.9
	C0.7,42.3,0,42.5,0,42.7c0,0.3,0.3,0.6,0.3,0.9c0,0.3,0.2,0.5,0.3,0.8c0,0.3,0,0.6,0,0.8c0.1,0.3-0.2,0.6-0.1,0.9
	c0.1,0.2,0.3,0.1,0.4,0.3c0.1,0.3,0.4,0.6,0.6,0.8c0.3,0.2,0.7,0.2,1,0.3c0.3,0.1,0.6,0.7,0.9,0.7c0.5,0,0.5-0.3,1-0.3
	c0.5,0,0.5-0.1,1-0.1C6,47.8,6,48,6.5,48c0.5,0,0.5-0.1,1-0.1s0.5,0.2,1,0.2c0.5,0,0.5-0.3,1-0.3c0.5,0,0.5,0,1,0
	c0.5,0,0.5,0.3,1,0.3c0.5,0,0.8-0.5,0.6-1c-0.2-0.4-0.1-0.5-0.3-0.9c-0.2-0.4,0-0.5-0.2-1c-0.2-0.4-0.7-0.3-0.9-0.7
	c-0.1-0.3,0.2-0.6,0.2-0.9c0-0.3-0.2-0.6-0.1-0.9c0.2-0.4,0.1-0.5,0.3-0.9c0.2-0.4,0.4-0.4,0.6-0.8C12.1,40.6,12.1,40.6,12.2,40.1z"
	/>
<path class="st0" d="M51.5,40.2c-0.1-0.3,0.1-0.6,0.1-0.9c-0.1-0.3-0.5-0.5-0.5-0.8c0-0.3,0.4-0.6,0.4-0.9s-0.2-0.6-0.2-0.8
	c0-0.3,0-0.6,0.1-0.8c0.1-0.3,0.1-0.6,0.3-0.8c0.2-0.4,0.4-0.4,0.6-0.8l0.4-0.9c0.2-0.4,0-0.5,0.2-0.9c0.1-0.3,0.5-0.5,0.5-0.8
	c0-0.3,0-0.6-0.1-0.9c-0.2-0.4-0.8-0.3-1-0.7c-0.2-0.4,0.5-0.6,0.3-1.1c-0.2-0.4-0.3-0.4-0.5-0.8c-0.1-0.3-0.2-0.5-0.3-0.8
	c-0.1-0.3-0.8-0.5-0.8-0.7c0-0.3,0.2-0.6,0.2-0.9c0.1-0.3,0.1-0.6,0.2-0.8c0-0.3-0.2-0.6-0.1-0.9c0.1-0.3,0.5-0.5,0.6-0.7
	c0.2-0.4,0.1-0.5,0.3-0.9c0.2-0.4,0.1-0.5,0.3-0.9c0.2-0.4,0.4-0.4,0.6-0.8c0.1-0.3,0.1-0.6,0-0.9c0-0.3-0.1-0.6-0.3-0.8
	c-0.2-0.4-0.2-0.4-0.4-0.9c-0.2-0.4-0.1-0.5-0.3-0.9c-0.2-0.4-0.3-0.4-0.5-0.9c-0.2-0.5,0.3-1.1,0.8-1.1c0.5,0,0.6,0.3,1.1,0.3
	c0.6,0,0.5,0,1.1,0s0.5,0.1,1.1,0.1c0.6,0,0.6-0.2,1.1-0.2s0.5-0.2,1.1-0.2s0.6,0.1,1.1,0.1s0.6,0.1,1.1,0.1c0.6,0,0.6-0.3,1.1-0.3
	c0.4,0,0.7,0.6,1,0.7c0.4,0.1,0.9,0,1.2,0.2c0.3,0.2,0,0.7,0.2,1c0.1,0.2,0.2,0.1,0.3,0.3c0.1,0.3,0.2,0.5,0.3,0.8
	c0.1,0.3,0.4,0.5,0.4,0.8c0,0.3,0,0.6,0,0.8c-0.1,0.3-0.2,0.5-0.3,0.8c-0.1,0.3-0.2,0.5-0.4,0.8c0,0.3-0.1,0.5-0.2,0.8
	c-0.2,0.4-0.1,0.5-0.3,0.9c-0.2,0.4-0.5,0.4-0.7,0.8c-0.2,0.4,0.4,0.6,0.2,1.1c-0.1,0.3-0.4,0.5-0.4,0.8s0.4,0.5,0.5,0.7
	c0.2,0.4-0.2,0.6,0,1c0.2,0.4,0.6,0.3,0.8,0.7c0.2,0.4-0.5,0.6-0.3,1.1c0.1,0.3,0.2,0.5,0.3,0.8c0.1,0.3,0.6,0.5,0.6,0.7
	c0,0.3-0.3,0.6-0.3,0.8c0,0.3,0.5,0.6,0.4,0.9c0,0.3-0.1,0.6-0.1,0.9c-0.1,0.3-0.2,0.6-0.3,0.8c-0.2,0.4-0.6,0.3-0.8,0.8
	c-0.2,0.4-0.1,0.5-0.3,0.9c-0.2,0.4-0.3,0.4-0.5,0.8c-0.2,0.3-0.3,0.6-0.4,0.9c0,0.3,0.4,0.6,0.5,0.8c0.2,0.4,0.4,0.4,0.6,0.8
	c0.2,0.4,0.1,0.5,0.3,0.9c0.2,0.4,0,0.5,0.2,0.9c0.1,0.3,0.6,0.4,0.7,0.7s-0.2,0.6-0.1,0.9c0,0.3-0.2,0.6-0.2,0.8s0.5,0.6,0.5,0.9
	c-0.1,0.3-0.3,0.5-0.4,0.8c0,0.3-0.1,0.6-0.2,0.8c-0.1,0.2-0.6,0-0.6,0.2c-0.1,0.3-0.2,0.6-0.4,0.8c-0.3,0.2-0.4,0.7-0.7,0.9
	c-0.4,0.1-0.9-0.3-1.3-0.3c-0.6,0-0.6,0.4-1.1,0.4c-0.6,0-0.5-0.1-1.1-0.1c-0.6,0-0.5,0-1.1,0c-0.6,0-0.6,0.4-1.1,0.4
	c-0.5,0-0.6-0.6-1.1-0.6c-0.6,0-0.6,0.2-1.1,0.2c-0.6,0-0.6,0.1-1.1,0.1s-0.6,0.2-1.1,0.2c-0.6,0-0.7-0.7-0.6-1.1
	c0.2-0.4,0.2-0.4,0.4-0.9c0.2-0.4,0.2-0.5,0.4-0.9c0.2-0.4,0.3-0.4,0.5-0.9c0.2-0.3,0.3-0.6,0.4-0.9c0-0.3-0.7-0.5-0.9-0.7
	c-0.2-0.4,0.4-0.6,0.2-1.1c-0.1-0.3-0.3-0.6-0.5-0.9C52,40.5,51.7,40.6,51.5,40.2z"/>
<path class="st1" d="M43.2,32.5c-0.4,0-0.7,0-1,0c-0.3,0-0.7,0.1-1,0c-0.3,0-0.7-0.3-1-0.3c-0.3-0.1-0.8,0.1-1.1,0
	c-0.3-0.1-0.5-0.6-0.9-0.7c-0.3-0.1-0.6-0.2-0.9-0.4c-0.3-0.2-0.8-0.1-1-0.3c-0.3-0.2-0.4-0.7-0.7-0.9c-0.3-0.2-0.7-0.2-1-0.5
	c-0.2-0.2-0.3-0.7-0.5-1s-0.5-0.5-0.7-0.8c-0.2-0.3-0.3-0.6-0.5-0.9c-0.2-0.3-0.5-0.7-0.6-1c-0.1,0.3-0.4,0.7-0.6,1s-0.2,0.7-0.4,1
	c-0.2,0.3-0.4,0.6-0.6,0.8c-0.2,0.3-0.5,0.5-0.8,0.7c-0.2,0.2-0.6,0.3-0.9,0.5c-0.3,0.2-0.3,0.8-0.6,1c-0.3,0.2-0.6,0.4-0.9,0.6
	c-0.3,0.2-0.7,0-1.1,0.2c-0.3,0.1-0.6,0.3-1,0.4c-0.3,0.1-0.7,0-1,0.1c-0.3,0.1-0.6,0.5-1,0.5c-0.4,0-0.7,0-1,0.1
	c-0.4,0-0.7-0.2-1-0.2c-0.1,0-0.3,0-0.4,0c-0.1,0-0.2-0.1-0.3-0.2c-0.2-0.2-0.5-0.4-0.5-0.7c0-0.3,0.1-0.6,0.3-0.9
	c0.2-0.2,0.6-0.1,0.9-0.1c0.3,0,0.7-0.1,1-0.1s0.7,0.1,1.1,0c0.3-0.1,0.7-0.3,1-0.4c0.3-0.1,0.6-0.4,0.9-0.5c0.3-0.1,0.7,0,1-0.2
	c0.3-0.1,0.7-0.3,1-0.5c0.3-0.2,0.4-0.6,0.7-0.8s0.7-0.3,0.9-0.6c0.2-0.3,0.3-0.7,0.5-1c0.2-0.3,0.3-0.6,0.5-0.9
	c0.2-0.3,0.5-0.5,0.7-0.8c0.1-0.3,0-0.8,0.1-1.1c0.1-0.4,0.6-0.6,0.6-0.9c0.1-0.6,0.2-1,0.2-1c0-0.3,0-0.5,0.2-0.6
	c0.1-0.1,0.2-0.1,0.3-0.2c0.1,0,0.2-0.1,0.4,0v-0.4c0.3,0,0.6,0.3,0.8,0.5c0.2,0.2,0.3,0.5,0.3,0.7c0.1,0.3,0.2,0.7,0.3,1
	c0.1,0.3,0.1,0.6,0.2,1c0.1,0.4,0.2,0.6,0.3,1c0.1,0.3,0.4,0.6,0.5,0.9c0.2,0.3,0.1,0.7,0.3,1c0.2,0.3,0.4,0.6,0.6,0.9
	c0.2,0.3,0.7,0.3,0.9,0.5c0.3,0.2,0.4,0.6,0.7,0.8c0.3,0.2,0.6,0.4,0.9,0.5c0.3,0.2,0.5,0.5,0.9,0.7c0.3,0.1,0.7,0.2,1,0.3
	c0.3,0.1,0.7,0.1,1,0.2c0.4,0.1,0.7,0,1.1,0c0.4,0,0.7,0.1,1,0.1c0.4,0,0.7-0.1,0.9,0.1c0.2,0.2,0.4,0.6,0.4,0.9
	c0,0.3-0.2,0.7-0.4,0.9C43.9,32.7,43.5,32.5,43.2,32.5z"/>
<path class="st1" d="M55.1,6.2c0.5,0,0.5,0.1,1.1,0.1s0.5-0.1,1.1-0.1s0.5,0.1,1.1,0.1c0.4-0.1,0.8,0,1.1,0c0.3,0.2,0.6,0.4,0.9,0.7
	C60.6,7.4,60.8,7.7,61,8c0.1,0.3,0.2,0.7,0.2,1.1c0,0.5,0.1,0.5,0.1,1v1c0,0.5,0,0.5,0,1s-0.1,0.5-0.1,1c0,0.4-0.1,0.7-0.2,1.1
	c-0.1,0.4-0.3,0.7-0.5,1c-0.3,0.2-0.6,0.4-1,0.5c-0.3,0.1-0.7,0.2-1.1,0.2c-0.5,0-0.5,0.1-1.1,0.1c-0.5,0-0.5,0-1.1,0
	c-0.5,0-0.5,0-1.1,0c-0.4,0-0.8-0.1-1.1-0.3c-0.4-0.1-0.7-0.3-0.9-0.6c-0.2-0.3-0.4-0.6-0.6-1c-0.1-0.3-0.2-0.7-0.2-1.1
	c0-0.5,0-0.5,0-1c0-0.5-0.1-0.5-0.1-1c0-0.5,0.2-0.5,0.2-1s0-0.5,0-1c0-0.4,0-0.7,0.2-1.1c0.1-0.4,0.3-0.7,0.6-1
	c0.3-0.3,0.6-0.5,0.9-0.6C54.4,6.3,54.8,6.2,55.1,6.2z"/>
<path class="st2" d="M58.2,10.2c-0.1,0-0.1,0-0.3,0C58,10.1,58,10,58,9.9c0-0.4,0-0.4,0-0.8c0-0.2-0.1-0.3-0.2-0.4
	c-0.1-0.1-0.3-0.2-0.4-0.2c-0.5,0-0.5,0-1.1,0s-0.5,0-1.1,0c-0.2,0-0.3,0-0.4,0.2c-0.1,0.1-0.2,0.3-0.2,0.4c0,0.4,0,0.4,0,0.8
	c0,0.2,0.1,0.3,0.2,0.4c0.1,0.1,0.3,0.2,0.5,0.2c0.3,0,0.7,0,1,0c0,0.1-0.1,0.2-0.1,0.3c0,0.1,0,0.1,0,0.1c0,0.2,0.1,0.3,0.2,0.5
	c0.1,0.1,0.3,0.2,0.5,0.2c0.7,0,0.7,0,1.4,0c0.2,0,0.3-0.1,0.4-0.2c0.1-0.1,0.2-0.3,0.2-0.5c0-0.1,0-0.1,0-0.1c0-0.1,0-0.2,0-0.3
	c0-0.1-0.1-0.2-0.1-0.2c-0.1-0.1-0.1-0.1-0.2-0.1C58.4,10.2,58.3,10.2,58.2,10.2z"/>
<path class="st1" d="M6.2,6.3c0.5,0,0.5,0.1,1.1,0.1c0.5,0,0.5-0.1,1.1-0.1c0.5,0,0.5,0.1,1.1,0.1c0.4,0,0.7,0,1.1,0.2
	c0.4,0.1,0.7,0.3,1,0.6c0.3,0.3,0.5,0.6,0.6,0.9c0.1,0.3,0.2,0.7,0.2,1.1c0,0.5-0.1,0.5-0.1,1v1c0,0.5,0.2,0.5,0.2,1s0,0.5,0,1
	c0,0.4-0.1,0.7-0.3,1.1c-0.2,0.3-0.4,0.6-0.7,0.9c-0.2,0.3-0.5,0.5-0.8,0.7C10.2,15.9,9.8,16,9.5,16c-0.5,0-0.5-0.1-1.1-0.1
	c-0.5,0-0.5,0.1-1.1,0.1c-0.5,0-0.5,0-1.1,0c-0.4,0-0.7-0.1-1.1-0.3c-0.4-0.1-0.7-0.3-1-0.5c-0.3-0.3-0.5-0.6-0.6-1
	c-0.1-0.4-0.2-0.7-0.2-1.1c0-0.5,0-0.5,0-1c0-0.5-0.1-0.5-0.1-1s0.1-0.5,0.1-1c0-0.5,0-0.5,0-1c0-0.4,0.1-0.7,0.2-1.1
	c0.1-0.4,0.3-0.7,0.5-1c0.3-0.2,0.6-0.4,1-0.5C5.5,6.4,5.9,6.3,6.2,6.3z"/>
<path class="st2" d="M9.3,10.2c-0.1,0-0.1,0.1-0.3,0c0-0.1,0.1-0.2,0.1-0.2c0-0.4,0-0.4,0-0.8c0-0.1,0-0.2-0.1-0.2
	c0-0.1-0.1-0.1-0.1-0.2C8.8,8.6,8.8,8.6,8.7,8.5c-0.1,0-0.2,0-0.2,0c-0.5,0-0.5-0.1-1.1-0.1s-0.5,0-1.1,0C6.2,8.5,6,8.5,5.9,8.6
	C5.8,8.8,5.7,8.9,5.7,9.1c0,0.4,0,0.4,0,0.8c0,0.1,0,0.2,0,0.2c0,0.1,0.1,0.1,0.1,0.2C6,10.4,6,10.5,6.1,10.5c0.1,0,0.2,0,0.2,0.1
	c0.3,0,0.7,0,1,0c0,0.1-0.1,0.2,0,0.3c0,0.1,0,0.1,0,0.1c0,0.1,0,0.2,0,0.3c0,0.1,0.1,0.2,0.1,0.2s0.1,0.1,0.2,0.1
	c0.1,0,0.2,0,0.3,0h1.4c0.1,0,0.2,0,0.2,0c0.1,0,0.1-0.1,0.2-0.1c0.1-0.1,0.1-0.1,0.1-0.2c0-0.1,0.1-0.2,0.1-0.2c0-0.1,0-0.1,0-0.1
	c0-0.2-0.1-0.3-0.2-0.5C9.6,10.2,9.4,10.2,9.3,10.2z"/>
<path class="st3" d="M36.9,18.4c0,0.3-0.1,0.6-0.2,0.9c-0.1,0.3-0.2,0.6-0.3,0.8c-0.2,0.2-0.5,0.4-0.7,0.5c-0.3,0.2-0.7,0.3-1.1,0.4
	c-0.4,0.1-0.7,0.2-1.1,0.3c-0.4,0.1-0.8,0.1-1.1,0.1c-0.4,0-0.8-0.1-1.1-0.1c-0.4,0-0.8-0.1-1.1-0.2c-0.4-0.1-0.7-0.2-1.1-0.4
	c-0.2-0.2-0.5-0.4-0.7-0.6c-0.2-0.2-0.3-0.5-0.4-0.8c-0.1-0.3-0.2-0.6-0.1-0.9c0-0.3,0.1-0.6,0.2-0.9c0.1-0.3,0.3-0.5,0.5-0.7
	c0.2-0.2,0.4-0.4,0.6-0.6c0.3-0.2,0.7-0.4,1-0.5c0.4-0.1,0.7-0.2,1.1-0.3c0.4-0.1,0.8-0.1,1.2-0.1c0.4,0,0.8,0,1.2,0.1
	c0.4,0.1,0.8,0.2,1.1,0.3c0.4,0.1,0.7,0.3,1,0.5c0.2,0.2,0.4,0.4,0.6,0.6c0.2,0.2,0.3,0.5,0.5,0.7C36.8,17.8,36.9,18.1,36.9,18.4z"
	/>
</svg>
