<svg width="112" height="60" viewBox="0 0 112 60" fill="none" xmlns="http://www.w3.org/2000/svg">
<g filter="url(#filter0_i_1153_9914)">
<rect width="112" height="60" rx="10" fill="white"/>
</g>
<path d="M35.247 50.9228C35.3827 50.6637 35.5032 50.3985 35.608 50.1282C35.6792 49.8541 35.9198 49.5919 35.9599 49.3137C36 49.0356 35.4074 48.7297 35.4074 48.4516C35.4053 48.1857 35.3829 47.9202 35.3406 47.657C35.3421 47.3914 35.3242 47.1259 35.2871 46.8624C35.2158 46.5922 35.4163 46.2545 35.2871 45.9923C35.1044 45.5553 34.8415 45.6427 34.6678 45.1977C34.494 44.7527 34.7168 44.6852 34.5341 44.2442C34.3514 43.8031 34.0084 43.9223 33.8257 43.4853C33.7143 43.2112 34.1465 42.8218 34.1465 42.5358C34.1465 42.2497 33.7276 41.8643 33.8435 41.5941C34.0262 41.1571 34.6099 41.3518 34.7925 40.9148C34.9752 40.4777 34.5876 40.3466 34.7925 39.9096C34.9975 39.4726 35.3941 39.6116 35.5767 39.1746C35.6881 38.9124 35.4654 38.5389 35.5411 38.2687C35.6169 37.9986 35.3985 37.6926 35.4386 37.4185C35.4787 37.1444 36 36.8901 36 36.6239C36 36.3577 35.4297 36.0994 35.394 35.8293C35.4014 35.5562 35.3911 35.2829 35.3629 35.0108C35.2701 34.7509 35.16 34.4962 35.0332 34.248C34.8505 33.811 34.7792 33.8507 34.5876 33.4018C34.396 32.9528 34.5341 32.921 34.3514 32.48C34.1687 32.039 34.3514 31.9874 34.1643 31.5463C34.0484 31.2762 34.1955 30.9941 34.1955 30.708C34.152 30.4365 34.1671 30.16 34.24 29.8936C34.4227 29.4486 34.6455 29.5201 34.8326 29.0751C35.0198 28.6301 34.4985 28.4553 34.6856 28.0104C34.8727 27.5654 35.3005 27.7084 35.4876 27.2634C35.6748 26.8184 35.0955 26.1788 34.5965 26.1788C34.0975 26.1788 34.0886 26.0318 33.5851 26.0318C33.0816 26.0318 33.0771 26.2026 32.5736 26.2026C32.0701 26.2026 32.0657 26.5562 31.5577 26.5562C31.0498 26.5562 31.0542 26 30.5463 26C30.0383 26 30.0384 26.2145 29.5304 26.2145C29.0225 26.2145 29.0269 26.004 28.519 26.004C28.0111 26.004 28.011 26.4728 27.5031 26.4728C26.9952 26.4728 26.9951 26 26.4872 26C26.1129 26 25.8545 26.6118 25.5248 26.739C25.2295 26.8636 24.9692 27.0455 24.7629 27.2714C24.5134 27.5018 24.0455 27.5693 23.9119 27.8832C23.8361 28.062 23.5465 27.9627 23.4663 28.1415C23.3549 28.4037 23.5911 28.7811 23.5153 29.0513C23.4396 29.3215 23.7114 29.6313 23.6757 29.9095C23.6401 30.1876 23.0475 30.4299 23.0475 30.7041C23.1134 30.9874 23.1967 31.2672 23.297 31.5424C23.3371 31.8205 23.2658 32.1304 23.3371 32.4005C23.4241 32.6705 23.5283 32.9357 23.649 33.1952C23.8316 33.6322 23.8049 33.6441 23.9876 34.0811C24.1703 34.5182 24.0188 34.5659 24.2015 35.0029C24.3841 35.4399 24.7852 35.3088 24.9679 35.7458C25.1319 36.018 25.2461 36.3117 25.3064 36.6159C25.2626 36.924 25.1618 37.2234 25.008 37.5019C24.8253 37.939 24.9233 37.9707 24.7406 38.4078C24.5579 38.8448 24.2193 38.7296 24.0366 39.1706C23.8539 39.6116 23.9252 39.6315 23.7426 40.0685C23.6356 40.3307 23.7782 40.6525 23.7024 40.9227C23.6267 41.1929 23.043 41.3915 23.0029 41.6696C22.9628 41.9478 23.3505 42.2616 23.3505 42.5397C23.3505 42.8178 22.9806 43.1317 23.0163 43.4098C23.0519 43.6879 23.5777 43.8985 23.6534 44.1687C23.7292 44.4388 23.9787 44.6375 24.099 44.8997C24.2817 45.3367 23.8896 45.4679 24.0723 45.9049C24.255 46.3419 24.3396 46.3022 24.5178 46.7511C24.6961 47.2001 24.6738 47.1961 24.8565 47.6332C24.9723 47.9073 25.2664 48.1775 25.2664 48.4635C25.2544 48.7713 25.1836 49.0749 25.057 49.3614C24.8743 49.7985 24.5178 49.6793 24.3351 50.1163C24.1525 50.5533 24.3886 50.6328 24.2059 51.0698C24.0232 51.5069 23.7871 51.4274 23.6044 51.8644C23.493 52.1267 23.8629 52.52 23.7916 52.7862C23.7203 53.0524 23.0475 53.2391 23.0074 53.5172C22.9673 53.7953 23.2613 54.1092 23.2613 54.3873C23.2613 54.6654 23.5108 54.9237 23.5465 55.2018C23.5353 55.4801 23.5442 55.7588 23.5732 56.0361C23.6445 56.3063 23.3905 56.6837 23.4975 56.9459C23.5732 57.1247 23.845 57.0333 23.9207 57.2121C24.0693 57.5134 24.2863 57.7839 24.5579 58.0067C24.8119 58.2411 25.2218 58.1736 25.5604 58.3007C25.8991 58.4279 26.1174 59 26.4917 59C26.9952 59 26.9952 58.6861 27.5031 58.6861C28.011 58.6861 28.0111 58.551 28.5145 58.551C29.018 58.551 29.0225 58.7418 29.526 58.7418C30.0295 58.7418 30.0339 58.6265 30.5418 58.6265C31.0498 58.6265 31.0498 58.857 31.5533 58.857C32.0568 58.857 32.0612 58.6027 32.5692 58.6027C33.0771 58.6027 33.0771 58.6385 33.5851 58.6385C34.093 58.6385 34.093 58.9126 34.601 58.9126C35.1089 58.9126 35.3539 58.3643 35.1757 57.9432C34.9975 57.522 35.0955 57.4624 34.9084 57.0175C34.7213 56.5725 34.9396 56.501 34.7525 56.056C34.5653 55.611 34.0885 55.7699 33.9014 55.321C33.7856 55.0508 34.142 54.6773 34.142 54.3913C34.142 54.1052 33.9772 53.7953 34.0886 53.5252C34.2712 53.0881 34.2222 53.0722 34.4049 52.6352C34.5876 52.1982 34.7792 52.2617 34.9619 51.8207C35.1445 51.3797 35.0777 51.3638 35.247 50.9228Z" fill="#CCD5FF"/>
<path d="M74.4964 50.9691C74.3757 50.7074 74.6363 50.3385 74.5543 50.0689C74.4723 49.7992 74.1006 49.5573 74.0717 49.2757C74.0427 48.9941 74.5109 48.6927 74.5109 48.4151C74.5109 48.1375 74.313 47.8599 74.3516 47.5862C74.3665 47.3061 74.3988 47.0268 74.4481 46.7494C74.5124 46.472 74.5962 46.1979 74.6991 45.9285C74.897 45.4923 75.1093 45.5557 75.3072 45.1353L75.7029 44.2589C75.9008 43.8226 75.6546 43.7473 75.8573 43.311C75.978 43.0413 76.3931 42.7994 76.3931 42.5178C76.4192 42.2056 76.3816 41.8919 76.282 41.5898C76.0842 41.1536 75.5099 41.3321 75.3168 40.8958C75.1238 40.4596 75.7994 40.2573 75.5774 39.821C75.3554 39.3848 75.2734 39.4245 75.0948 38.9763C74.9874 38.7171 74.9019 38.4521 74.839 38.1832C74.757 37.9135 74.0427 37.731 74.0041 37.4574C73.9655 37.1837 74.2117 36.8665 74.2117 36.5889C74.2754 36.3104 74.3576 36.0351 74.4578 35.764C74.4964 35.4903 74.284 35.1691 74.3661 34.8994C74.4481 34.6297 74.8487 34.4394 74.9645 34.1737C75.1624 33.7414 75.0804 33.7136 75.2782 33.2774C75.4761 32.8411 75.4134 32.8213 75.6113 32.385C75.8091 31.9488 76.0408 32.0202 76.2386 31.5919C76.3159 31.2934 76.3306 30.9862 76.282 30.6837C76.2599 30.3921 76.175 30.1061 76.0311 29.839C75.8284 29.3948 75.7898 29.4067 75.5871 28.9625C75.3844 28.5183 75.452 28.4985 75.2493 28.0543C75.0466 27.6101 74.9211 27.6577 74.7184 27.2017C74.5157 26.7456 75.0032 26.0912 75.5485 26.0912C76.0939 26.0912 76.0987 26.3609 76.6488 26.3609C77.199 26.3609 77.1942 26.3371 77.7444 26.3371C78.2946 26.3371 78.2898 26.4045 78.8399 26.4045C79.3901 26.4045 79.3901 26.2141 79.9403 26.2141C80.4905 26.2141 80.4857 26.0198 81.0359 26.0198C81.5861 26.0198 81.586 26.1666 82.1362 26.1666C82.6864 26.1666 82.6864 26.2736 83.2366 26.2736C83.7868 26.2736 83.7868 26 84.337 26C84.7424 26 85.0223 26.583 85.3843 26.7059C85.7462 26.8289 86.3205 26.7059 86.5908 26.9478C86.8611 27.1898 86.5908 27.6657 86.75 27.975C86.8321 28.1535 86.9817 28.1098 87.0589 28.2883C87.1916 28.5389 87.306 28.7959 87.4016 29.0577C87.4836 29.3313 87.8022 29.5653 87.8408 29.8509C87.8601 30.1322 87.8601 30.4142 87.8408 30.6956C87.7732 30.9722 87.6846 31.2451 87.5753 31.5126C87.477 31.7765 87.3577 32.0348 87.2182 32.2859C87.1795 32.5529 87.1215 32.8177 87.0444 33.0791C86.8466 33.5153 86.9817 33.555 86.7838 33.9912C86.5859 34.4275 86.3302 34.3521 86.1323 34.7844C85.9344 35.2167 86.528 35.4031 86.3302 35.8393C86.2047 36.109 85.9006 36.3113 85.9006 36.5968C85.9006 36.8823 86.2868 37.0608 86.4122 37.3305C86.6101 37.7667 86.1854 37.8976 86.3833 38.3338C86.5811 38.7701 86.9769 38.6472 87.1747 39.0834C87.3726 39.5196 86.7162 39.7219 86.9141 40.1581C87.0264 40.4097 87.1199 40.6666 87.1941 40.9275C87.2713 41.1972 87.7925 41.3915 87.8311 41.6691C87.8697 41.9468 87.5705 42.2323 87.5705 42.5099C87.5705 42.7875 88.0531 43.0929 87.9952 43.3705C87.9735 43.6593 87.9299 43.9467 87.8649 44.2311C87.7858 44.5122 87.6859 44.789 87.5656 45.06C87.3678 45.4962 87.0058 45.3852 86.808 45.8214C86.6101 46.2577 86.7163 46.2894 86.5184 46.7256C86.3205 47.1619 86.1806 47.1222 85.9827 47.5585C85.7949 47.8276 85.6597 48.1194 85.5821 48.423C85.5821 48.7086 85.9489 48.9901 86.0647 49.2598C86.2626 49.6961 86.4846 49.6287 86.6825 50.053C86.8803 50.4773 86.7886 50.517 86.9865 50.9532C87.1844 51.3895 86.9527 51.4648 87.1506 51.9011C87.2712 52.1628 87.7491 52.3453 87.8263 52.611C87.9035 52.8767 87.6333 53.2217 87.6767 53.4954C87.7201 53.769 87.5077 54.0466 87.5077 54.3242C87.5077 54.6018 88.0483 54.9112 87.9903 55.1848C87.9324 55.4585 87.667 55.7202 87.585 55.978C87.5522 56.2622 87.4975 56.5443 87.4209 56.8227C87.3388 57.0012 86.8658 56.8584 86.7838 57.0369C86.7109 57.3376 86.5595 57.6218 86.3398 57.8697C86.0647 58.1077 85.9585 58.6193 85.5918 58.7462C85.225 58.8731 84.7134 58.4051 84.308 58.4051C83.7578 58.4051 83.7578 58.762 83.2077 58.762C82.6575 58.762 82.6623 58.6272 82.1121 58.6272C81.5619 58.6272 81.5667 58.6034 81.0166 58.6034C80.4664 58.6034 80.4664 59 79.921 59C79.3756 59 79.3708 58.4091 78.8206 58.4091C78.2704 58.4091 78.2705 58.655 77.7203 58.655C77.1701 58.655 77.1701 58.7264 76.6199 58.7264C76.0697 58.7264 76.0697 58.9405 75.5195 58.9405C74.9694 58.9405 74.7715 58.2861 74.9645 57.8658C75.1576 57.4454 75.1528 57.4176 75.3555 56.9734C75.5582 56.5293 75.5147 56.5174 75.7174 56.0692C75.9201 55.6211 75.978 55.6449 76.2 55.2007C76.3736 54.9174 76.4924 54.6137 76.5523 54.3004C76.5523 54.0149 75.8043 53.8325 75.6788 53.5628C75.4809 53.1266 76.0939 52.9401 75.896 52.5039C75.7748 52.1965 75.6027 51.9042 75.3844 51.6354C75.0466 51.2507 74.6943 51.4093 74.4964 50.9691Z" fill="#CCD5FF"/>
<path d="M66.2139 43.2991C65.8566 43.2991 65.5173 43.3489 65.178 43.3308C64.8388 43.3127 64.4678 43.4167 64.1285 43.3715C63.7893 43.3263 63.4681 43.1091 63.1379 43.0368C62.8077 42.9644 62.3689 43.1815 62.0432 43.082C61.7175 42.9825 61.4959 42.5301 61.1793 42.4035C60.8626 42.2768 60.5324 42.1682 60.2293 42.0099C59.9262 41.8516 59.4649 41.924 59.1799 41.734C58.8949 41.544 58.7909 41.0781 58.5285 40.8655C58.2662 40.6529 57.8093 40.6167 57.565 40.3769C57.3208 40.1372 57.3072 39.6668 57.1127 39.4044C56.9182 39.142 56.6106 38.9204 56.416 38.6399C56.2215 38.3595 56.1039 38.0202 55.9365 37.7352C55.7692 37.4503 55.457 37.0703 55.3168 36.7582C55.1721 37.0703 54.9052 37.4503 54.7333 37.7579C54.5614 38.0654 54.5478 38.4499 54.3488 38.744C54.1498 39.038 53.9462 39.3139 53.7201 39.5853C53.4939 39.8567 53.1773 40.0377 52.9285 40.2729C52.6797 40.5081 52.3088 40.5941 52.0238 40.8157C51.7388 41.0374 51.7388 41.5938 51.4448 41.7837C51.153 41.9834 50.8511 42.1676 50.5401 42.3356C50.237 42.4939 49.7937 42.3763 49.4635 42.512C49.1333 42.6477 48.8483 42.8151 48.5045 42.9191C48.1607 43.0232 47.8033 42.9191 47.455 42.9734C47.1067 43.0277 46.8398 43.4258 46.487 43.462C46.1342 43.4981 45.7949 43.5117 45.4376 43.5343C45.0802 43.5569 44.75 43.3398 44.3927 43.3398C44.2674 43.3573 44.1397 43.3473 44.0187 43.3106C43.8976 43.2739 43.786 43.2113 43.6915 43.1272C43.497 42.9327 43.2392 42.7246 43.2392 42.4261C43.2277 42.1077 43.3286 41.7955 43.5241 41.544C43.7187 41.3495 44.1122 41.4626 44.4288 41.4626C44.7455 41.4626 45.1345 41.3495 45.4692 41.3269C45.8039 41.3043 46.2021 41.4083 46.5323 41.3585C46.868 41.2371 47.1971 41.0982 47.5184 40.9424C47.8667 40.8519 48.1245 40.5579 48.423 40.4403C48.7216 40.3227 49.1604 40.3905 49.4589 40.2322C49.7884 40.0997 50.1101 39.9487 50.4224 39.7798C50.7165 39.5763 50.8386 39.1692 51.0874 38.943C51.3362 38.7168 51.7614 38.6173 51.9921 38.3595C52.2228 38.1016 52.2499 37.6674 52.4444 37.3869C52.6109 37.0935 52.7619 36.7915 52.8968 36.4822C53.0641 36.1611 53.4351 35.9575 53.5617 35.6499C53.6884 35.3423 53.5301 34.8809 53.625 34.5733C53.7381 34.1979 54.1905 33.9536 54.2493 33.6686C54.3669 33.0941 54.48 32.6961 54.4845 32.6282C54.4845 32.3433 54.4845 32.1759 54.6745 31.9814C54.7613 31.8973 54.8653 31.8331 54.9793 31.7933C55.0934 31.7534 55.2147 31.7389 55.3349 31.7507V31.3843C55.6199 31.3843 55.8959 31.6738 56.0904 31.8592C56.2647 32.0643 56.3552 32.3276 56.3437 32.5966C56.481 32.9202 56.5914 33.2545 56.6739 33.5963C56.7327 33.8903 56.8051 34.225 56.9181 34.6005C57.0312 34.9759 57.0945 35.2428 57.2348 35.5866C57.375 35.9304 57.5921 36.152 57.764 36.4913C57.9359 36.8305 57.8726 37.2196 58.0762 37.5136C58.2597 37.8131 58.4605 38.1016 58.6778 38.3776C58.8994 38.6354 59.3653 38.6625 59.6277 38.9023C59.8901 39.142 60.0348 39.4722 60.3289 39.6758C60.6189 39.8699 60.9211 40.0451 61.2336 40.2005C61.5321 40.3543 61.7538 40.7343 62.0885 40.8655C62.4232 40.9967 62.7625 41.0781 63.1108 41.1731C63.4591 41.2681 63.7984 41.2997 64.1557 41.3585C64.5131 41.4173 64.8568 41.3585 65.2142 41.3585C65.5715 41.3585 65.9018 41.4128 66.2637 41.4128C66.6255 41.4128 66.9739 41.3088 67.1684 41.5078C67.3968 41.757 67.5353 42.0755 67.5619 42.4125C67.5347 42.7503 67.3945 43.069 67.1638 43.3172C66.9241 43.5208 66.5125 43.2991 66.2139 43.2991Z" fill="#383838"/>
<path d="M78.1416 17C78.6799 17 78.6799 17.1267 79.2182 17.1267C79.7565 17.1267 79.761 17.0226 80.2993 17.0226C80.8376 17.0226 80.8375 17.1493 81.3803 17.1493C81.7521 17.094 82.1309 17.1078 82.4977 17.19C82.8331 17.3663 83.131 17.6059 83.3752 17.8956C83.632 18.1626 83.8335 18.4778 83.9678 18.823C84.113 19.162 84.1898 19.5263 84.194 19.895C84.194 20.3971 84.298 20.3971 84.298 20.9037V21.9125C84.298 22.4191 84.2709 22.4191 84.2709 22.9257C84.2709 23.4324 84.1261 23.4324 84.1261 23.939C84.1326 24.3013 84.0664 24.6612 83.9316 24.9975C83.829 25.3581 83.6586 25.6959 83.4295 25.9927C83.1348 26.2246 82.7986 26.3981 82.4389 26.5038C82.1045 26.648 81.7445 26.7233 81.3803 26.7255C80.842 26.7255 80.8421 26.7978 80.2993 26.7978C79.7565 26.7978 79.761 26.8295 79.2227 26.8295C78.6844 26.8295 78.6799 26.8657 78.1416 26.8657C77.7615 26.8434 77.3896 26.7465 77.0469 26.5807C76.6951 26.444 76.3727 26.2413 76.097 25.9836C75.8478 25.7021 75.6558 25.3749 75.5315 25.0201C75.4011 24.6752 75.3411 24.3075 75.3551 23.939C75.3551 23.4324 75.3235 23.4324 75.3235 22.9303C75.3235 22.4282 75.2148 22.4236 75.2148 21.917C75.2148 21.4104 75.3958 21.4104 75.3958 20.9037C75.3958 20.3971 75.3506 20.3971 75.3506 19.895C75.3335 19.5241 75.3904 19.1536 75.5179 18.8049C75.6498 18.4524 75.8479 18.1284 76.1015 17.8504C76.3748 17.5896 76.6958 17.3838 77.0469 17.2443C77.3926 17.0931 77.7644 17.0102 78.1416 17Z" fill="#383838"/>
<path d="M81.2127 21.003C81.077 21.003 81.068 21.0302 80.9368 21.003C80.987 20.9205 81.0179 20.8277 81.0273 20.7316C81.0273 20.3109 81.0273 20.3109 81.0273 19.8857C81.0214 19.7197 80.951 19.5626 80.831 19.4477C80.7111 19.3328 80.551 19.2692 80.3849 19.2705C79.8557 19.2705 79.8557 19.2705 79.331 19.2705C78.8063 19.2705 78.8017 19.3158 78.277 19.3158C78.1136 19.3071 77.9533 19.3628 77.8306 19.4711C77.708 19.5794 77.6327 19.7316 77.6211 19.8948C77.6211 20.32 77.6211 20.32 77.6211 20.7407C77.629 20.9096 77.7006 21.0692 77.8214 21.1876C77.9423 21.3059 78.1034 21.3741 78.2724 21.3785C78.5993 21.3558 78.9273 21.3558 79.2541 21.3785C79.2114 21.4591 79.1911 21.5497 79.1953 21.6408C79.1953 21.6996 79.15 21.6996 79.15 21.763C79.1569 21.9371 79.2301 22.1019 79.3545 22.2238C79.479 22.3458 79.6453 22.4155 79.8195 22.4189C80.5116 22.4189 80.5116 22.4189 81.2037 22.4189C81.372 22.4165 81.5326 22.3476 81.6504 22.2273C81.7682 22.1069 81.8336 21.9449 81.8324 21.7765C81.8324 21.7132 81.8686 21.7132 81.8686 21.6544C81.8699 21.5681 81.8537 21.4825 81.8211 21.4026C81.7885 21.3227 81.7402 21.2502 81.679 21.1894C81.6178 21.1286 81.5449 21.0808 81.4648 21.0488C81.3847 21.0167 81.299 21.0012 81.2127 21.003Z" fill="white"/>
<path d="M29.2147 17.0859C29.753 17.0859 29.753 17.1401 30.2913 17.1401C30.8296 17.1401 30.8296 17.0542 31.3724 17.0542C31.9152 17.0542 31.9107 17.1266 32.449 17.1266C32.8145 17.1143 33.1788 17.1743 33.5211 17.303C33.8759 17.4229 34.2034 17.612 34.4846 17.8594C34.7404 18.1331 34.9401 18.4543 35.0726 18.8048C35.2076 19.152 35.2722 19.5226 35.2626 19.8949C35.2626 20.397 35.1993 20.397 35.1993 20.9037V21.9124C35.1993 22.419 35.3531 22.419 35.3531 22.9257C35.3531 23.4323 35.3531 23.4323 35.3531 23.9389C35.3307 24.3132 35.2339 24.6792 35.0681 25.0155C34.9085 25.3451 34.6838 25.639 34.4077 25.8795C34.1763 26.1684 33.8924 26.4109 33.5708 26.5942C33.2198 26.7336 32.8448 26.8028 32.4671 26.7978C31.9288 26.7978 31.9288 26.6937 31.3905 26.6937C30.8523 26.6937 30.8522 26.8068 30.3094 26.8068C29.7666 26.8068 29.7711 26.843 29.2328 26.843C28.8569 26.8154 28.4898 26.7156 28.1517 26.549C27.7932 26.4295 27.4602 26.2439 27.1701 26.0016C26.9085 25.7237 26.7028 25.3982 26.564 25.0427C26.4376 24.689 26.3823 24.314 26.4011 23.9389C26.4011 23.4323 26.4011 23.4323 26.4011 22.9302C26.4011 22.4281 26.3242 22.4236 26.3242 21.9169C26.3242 21.4103 26.4147 21.4103 26.4147 20.9037C26.4147 20.397 26.4147 20.397 26.4147 19.8949C26.4188 19.5257 26.4972 19.1611 26.6454 18.8229C26.7518 18.4611 26.9268 18.1232 27.1611 17.8277C27.4573 17.5931 27.7971 17.4194 28.1608 17.3166C28.4931 17.1699 28.8515 17.0915 29.2147 17.0859Z" fill="#383838"/>
<path d="M32.267 20.9535C32.1313 20.9535 32.1313 21.0077 32.0047 20.9535C32.0412 20.8773 32.0598 20.7937 32.0589 20.7092C32.0589 20.2885 32.0815 20.2885 32.0815 19.8633C32.078 19.7831 32.0588 19.7043 32.0248 19.6316C31.9909 19.5588 31.9429 19.4934 31.8837 19.4392C31.8244 19.385 31.7551 19.3431 31.6796 19.3157C31.6041 19.2883 31.524 19.2761 31.4438 19.2798C30.919 19.2798 30.919 19.2119 30.3898 19.2119C29.8605 19.2119 29.865 19.2572 29.3358 19.2572C29.1725 19.2559 29.0153 19.3187 28.8978 19.432C28.7802 19.5453 28.7118 19.7001 28.707 19.8633C28.707 20.2885 28.7477 20.2885 28.7477 20.7092C28.7453 20.7886 28.7587 20.8677 28.787 20.9419C28.8153 21.0161 28.858 21.0839 28.9127 21.1415C28.9673 21.1992 29.0329 21.2454 29.1055 21.2775C29.1781 21.3097 29.2564 21.3271 29.3358 21.3289C29.6626 21.3063 29.9906 21.3063 30.3174 21.3289C30.2797 21.411 30.2627 21.5011 30.2676 21.5913C30.2676 21.6501 30.2676 21.6501 30.2676 21.7134C30.2604 21.7988 30.2722 21.8847 30.3022 21.965C30.3322 22.0452 30.3796 22.1178 30.441 22.1776C30.5025 22.2373 30.5764 22.2826 30.6575 22.3103C30.7386 22.338 30.8248 22.3473 30.91 22.3376H32.2942C32.3761 22.3425 32.4581 22.331 32.5355 22.3036C32.6129 22.2763 32.684 22.2338 32.7447 22.1786C32.8054 22.1234 32.8544 22.0566 32.8889 21.9821C32.9234 21.9077 32.9427 21.8271 32.9455 21.7451C32.9455 21.6817 32.9455 21.6817 32.9455 21.6229C32.9398 21.4457 32.8662 21.2773 32.7399 21.1528C32.6136 21.0282 32.4443 20.9568 32.267 20.9535Z" fill="white"/>
<path d="M59.8864 29.1633C59.8719 29.4574 59.806 29.7468 59.6919 30.0183C59.6261 30.3092 59.5098 30.5863 59.3481 30.837C59.1266 31.0375 58.8785 31.2065 58.6108 31.3391C58.2785 31.5263 57.9225 31.6678 57.5523 31.7598C57.1925 31.8857 56.8213 31.9766 56.444 32.0312C56.066 32.1036 55.6838 32.152 55.2996 32.1759C54.9141 32.1534 54.5303 32.1066 54.1507 32.0357C53.766 32.0099 53.3845 31.9494 53.0107 31.8548C52.6311 31.7633 52.2658 31.6202 51.9251 31.4296C51.6776 31.2613 51.4553 31.0587 51.2647 30.8279C51.0806 30.5905 50.9397 30.3226 50.8485 30.0363C50.7485 29.7562 50.698 29.4608 50.6992 29.1633C50.714 28.8682 50.7782 28.5777 50.8892 28.3039C51.0058 28.0384 51.1716 27.7975 51.3778 27.5937C51.5613 27.3747 51.7762 27.1842 52.0156 27.0282C52.3346 26.8293 52.6803 26.677 53.0424 26.5759C53.4 26.4383 53.7694 26.3338 54.1461 26.2638C54.5276 26.1951 54.9128 26.1483 55.2996 26.1235C55.687 26.1285 56.0737 26.1572 56.4576 26.2095C56.8396 26.2757 57.215 26.3756 57.5794 26.508C57.9441 26.6231 58.29 26.7908 58.6063 27.0056C58.8376 27.1764 59.0407 27.3824 59.2079 27.6163C59.4022 27.8258 59.5556 28.0697 59.6603 28.3355C59.7811 28.597 59.8576 28.8767 59.8864 29.1633Z" fill="#FFB3C5"/>
<defs>
<filter id="filter0_i_1153_9914" x="0" y="-4" width="112" height="64" filterUnits="userSpaceOnUse" color-interpolation-filters="sRGB">
<feFlood flood-opacity="0" result="BackgroundImageFix"/>
<feBlend mode="normal" in="SourceGraphic" in2="BackgroundImageFix" result="shape"/>
<feColorMatrix in="SourceAlpha" type="matrix" values="0 0 0 0 0 0 0 0 0 0 0 0 0 0 0 0 0 0 127 0" result="hardAlpha"/>
<feOffset dy="-4"/>
<feGaussianBlur stdDeviation="5"/>
<feComposite in2="hardAlpha" operator="arithmetic" k2="-1" k3="1"/>
<feColorMatrix type="matrix" values="0 0 0 0 0.341176 0 0 0 0 0.615686 0 0 0 0 1 0 0 0 0.3 0"/>
<feBlend mode="normal" in2="shape" result="effect1_innerShadow_1153_9914"/>
</filter>
</defs>
</svg>
