<svg width="65" height="42" viewBox="0 0 65 42" fill="none" xmlns="http://www.w3.org/2000/svg">
<path d="M12.247 33.9228C12.3827 33.6637 12.5032 33.3985 12.608 33.1282C12.6792 32.8541 12.9198 32.5919 12.9599 32.3137C13 32.0356 12.4074 31.7297 12.4074 31.4516C12.4053 31.1857 12.3829 30.9202 12.3406 30.657C12.3421 30.3914 12.3242 30.1259 12.2871 29.8624C12.2158 29.5922 12.4163 29.2545 12.2871 28.9923C12.1044 28.5553 11.8415 28.6427 11.6678 28.1977C11.494 27.7527 11.7168 27.6852 11.5341 27.2442C11.3514 26.8031 11.0084 26.9223 10.8257 26.4853C10.7143 26.2112 11.1465 25.8218 11.1465 25.5358C11.1465 25.2497 10.7276 24.8643 10.8435 24.5941C11.0262 24.1571 11.6099 24.3518 11.7925 23.9148C11.9752 23.4777 11.5876 23.3466 11.7925 22.9096C11.9975 22.4726 12.3941 22.6116 12.5767 22.1746C12.6881 21.9124 12.4654 21.5389 12.5411 21.2687C12.6169 20.9986 12.3985 20.6926 12.4386 20.4185C12.4787 20.1443 13 19.8901 13 19.6239C13 19.3577 12.4297 19.0994 12.394 18.8293C12.4014 18.5562 12.3911 18.2829 12.3629 18.0108C12.2701 17.7509 12.16 17.4962 12.0332 17.248C11.8505 16.811 11.7792 16.8507 11.5876 16.4018C11.396 15.9528 11.5341 15.921 11.3514 15.48C11.1688 15.039 11.3514 14.9874 11.1643 14.5463C11.0484 14.2762 11.1955 13.9941 11.1955 13.708C11.152 13.4365 11.1671 13.16 11.24 12.8936C11.4227 12.4486 11.6455 12.5201 11.8326 12.0751C12.0198 11.6301 11.4985 11.4553 11.6856 11.0104C11.8727 10.5654 12.3005 10.7084 12.4876 10.2634C12.6748 9.81844 12.0955 9.17878 11.5965 9.17878C11.0975 9.17878 11.0886 9.03178 10.5851 9.03178C10.0816 9.03178 10.0771 9.20263 9.57363 9.20263C9.07014 9.20263 9.06568 9.55622 8.55773 9.55622C8.04979 9.55622 8.05423 9 7.54629 9C7.03835 9 7.03839 9.21455 6.53044 9.21455C6.0225 9.21455 6.02695 9.00398 5.519 9.00398C5.01106 9.00398 5.01105 9.47279 4.5031 9.47279C3.99516 9.47279 3.99515 9 3.4872 9C3.11293 9 2.85454 9.61184 2.52482 9.73898C2.22953 9.8636 1.96918 10.0455 1.76287 10.2714C1.51335 10.5018 1.04555 10.5693 0.911879 10.8832C0.836133 11.062 0.546516 10.9627 0.466314 11.1415C0.354923 11.4037 0.591066 11.7811 0.51532 12.0513C0.439574 12.3215 0.711362 12.6313 0.675717 12.9095C0.640072 13.1876 0.0474553 13.4299 0.0474553 13.7041C0.113363 13.9874 0.196686 14.2672 0.296998 14.5424C0.337098 14.8205 0.265793 15.1304 0.337083 15.4005C0.42414 15.6705 0.52825 15.9357 0.648957 16.1952C0.831638 16.6322 0.804909 16.6441 0.98759 17.0811C1.17027 17.5182 1.01877 17.5659 1.20145 18.0029C1.38413 18.4399 1.78518 18.3088 1.96787 18.7458C2.13186 19.018 2.24611 19.3117 2.30644 19.6159C2.26262 19.924 2.16177 20.2234 2.00795 20.5019C1.82527 20.939 1.9233 20.9707 1.74062 21.4078C1.55794 21.8448 1.21928 21.7296 1.0366 22.1706C0.853914 22.6116 0.925244 22.6315 0.742562 23.0685C0.635627 23.3307 0.778168 23.6525 0.702422 23.9227C0.626676 24.1929 0.0430105 24.3915 0.00290967 24.6696C-0.0371912 24.9477 0.350463 25.2616 0.350463 25.5397C0.350463 25.8178 -0.0193555 26.1317 0.0162897 26.4098C0.0519348 26.6879 0.577671 26.8985 0.653417 27.1687C0.729163 27.4388 0.978679 27.6375 1.09898 27.8997C1.28166 28.3367 0.889594 28.4679 1.07228 28.9049C1.25496 29.3419 1.33961 29.3022 1.51784 29.7511C1.69607 30.2001 1.67379 30.1961 1.85647 30.6332C1.97232 30.9073 2.26636 31.1775 2.26636 31.4635C2.25437 31.7713 2.18356 32.0749 2.05696 32.3614C1.87428 32.7985 1.51783 32.6793 1.33514 33.1163C1.15246 33.5533 1.38859 33.6328 1.20591 34.0698C1.02323 34.5069 0.787093 34.4274 0.604411 34.8644C0.49302 35.1267 0.862858 35.52 0.791568 35.7862C0.720278 36.0524 0.0474705 36.2391 0.00736967 36.5172C-0.0327312 36.7953 0.261318 37.1092 0.261318 37.3873C0.261318 37.6654 0.51084 37.9237 0.546486 38.2018C0.535292 38.4801 0.544248 38.7588 0.573246 39.0361C0.644536 39.3063 0.390544 39.6837 0.49748 39.9459C0.573226 40.1247 0.844999 40.0333 0.920745 40.2121C1.06934 40.5134 1.2863 40.7839 1.55793 41.0067C1.8119 41.2412 2.22182 41.1736 2.56045 41.3007C2.89908 41.4279 3.11739 42 3.49166 42C3.99515 42 3.99516 41.6861 4.5031 41.6861C5.01105 41.6861 5.01106 41.551 5.51454 41.551C6.01803 41.551 6.0225 41.7418 6.52598 41.7418C7.02947 41.7418 7.03389 41.6265 7.54183 41.6265C8.04977 41.6265 8.04978 41.857 8.55327 41.857C9.05676 41.857 9.06123 41.6027 9.56917 41.6027C10.0771 41.6027 10.0771 41.6385 10.5851 41.6385C11.093 41.6385 11.093 41.9126 11.601 41.9126C12.1089 41.9126 12.3539 41.3643 12.1757 40.9432C11.9975 40.522 12.0955 40.4624 11.9084 40.0175C11.7213 39.5725 11.9396 39.501 11.7525 39.056C11.5653 38.611 11.0885 38.7699 10.9014 38.321C10.7856 38.0508 11.142 37.6773 11.142 37.3913C11.142 37.1052 10.9772 36.7953 11.0886 36.5252C11.2712 36.0881 11.2222 36.0722 11.4049 35.6352C11.5876 35.1982 11.7792 35.2617 11.9619 34.8207C12.1445 34.3797 12.0777 34.3638 12.247 33.9228Z" fill="#CCD5FF"/>
<path d="M51.4964 33.9691C51.3757 33.7074 51.6363 33.3385 51.5543 33.0689C51.4723 32.7992 51.1006 32.5573 51.0717 32.2757C51.0427 31.9941 51.5109 31.6927 51.5109 31.4151C51.5109 31.1375 51.313 30.8599 51.3516 30.5862C51.3665 30.3061 51.3988 30.0268 51.4481 29.7494C51.5124 29.472 51.5962 29.1979 51.6991 28.9285C51.897 28.4923 52.1093 28.5557 52.3072 28.1353L52.7029 27.2589C52.9008 26.8226 52.6546 26.7473 52.8573 26.311C52.978 26.0413 53.3931 25.7994 53.3931 25.5178C53.4192 25.2056 53.3816 24.8919 53.282 24.5898C53.0842 24.1536 52.5099 24.3321 52.3168 23.8958C52.1238 23.4596 52.7994 23.2573 52.5774 22.821C52.3554 22.3848 52.2734 22.4245 52.0948 21.9763C51.9874 21.7171 51.9019 21.4521 51.839 21.1832C51.757 20.9135 51.0427 20.731 51.0041 20.4574C50.9655 20.1837 51.2117 19.8665 51.2117 19.5889C51.2754 19.3104 51.3576 19.0351 51.4578 18.764C51.4964 18.4903 51.284 18.1691 51.3661 17.8994C51.4481 17.6297 51.8487 17.4394 51.9645 17.1737C52.1624 16.7414 52.0804 16.7136 52.2782 16.2774C52.4761 15.8411 52.4134 15.8213 52.6113 15.385C52.8091 14.9488 53.0408 15.0202 53.2386 14.5919C53.3159 14.2934 53.3306 13.9862 53.282 13.6837C53.2599 13.3921 53.175 13.1061 53.0311 12.839C52.8284 12.3948 52.7898 12.4067 52.5871 11.9625C52.3844 11.5183 52.452 11.4985 52.2493 11.0543C52.0466 10.6101 51.9211 10.6577 51.7184 10.2017C51.5157 9.74558 52.0032 9.09121 52.5485 9.09121C53.0939 9.09121 53.0987 9.36088 53.6488 9.36088C54.199 9.36088 54.1942 9.33709 54.7444 9.33709C55.2946 9.33709 55.2898 9.40451 55.8399 9.40451C56.3901 9.40451 56.3901 9.21415 56.9403 9.21415C57.4905 9.21415 57.4857 9.01982 58.0359 9.01982C58.5861 9.01982 58.586 9.16656 59.1362 9.16656C59.6864 9.16656 59.6864 9.27363 60.2366 9.27363C60.7868 9.27363 60.7868 9 61.337 9C61.7424 9 62.0223 9.58298 62.3843 9.70592C62.7462 9.82887 63.3205 9.70592 63.5908 9.94784C63.8611 10.1898 63.5908 10.6657 63.75 10.975C63.8321 11.1535 63.9817 11.1098 64.0589 11.2883C64.1916 11.5389 64.306 11.7959 64.4016 12.0577C64.4836 12.3313 64.8022 12.5653 64.8408 12.8509C64.8601 13.1322 64.8601 13.4142 64.8408 13.6956C64.7732 13.9722 64.6846 14.2451 64.5753 14.5126C64.477 14.7765 64.3577 15.0348 64.2182 15.2859C64.1795 15.5529 64.1215 15.8177 64.0444 16.0791C63.8466 16.5153 63.9817 16.555 63.7838 16.9912C63.5859 17.4275 63.3302 17.3521 63.1323 17.7844C62.9344 18.2167 63.528 18.4031 63.3302 18.8393C63.2047 19.109 62.9006 19.3113 62.9006 19.5968C62.9006 19.8823 63.2868 20.0608 63.4122 20.3305C63.6101 20.7667 63.1854 20.8976 63.3833 21.3338C63.5811 21.7701 63.9769 21.6472 64.1747 22.0834C64.3726 22.5196 63.7162 22.7219 63.9141 23.1581C64.0264 23.4097 64.1199 23.6666 64.1941 23.9275C64.2713 24.1972 64.7925 24.3915 64.8311 24.6691C64.8697 24.9468 64.5705 25.2323 64.5705 25.5099C64.5705 25.7875 65.0531 26.0929 64.9952 26.3705C64.9735 26.6593 64.9299 26.9467 64.8649 27.2311C64.7858 27.5122 64.6859 27.789 64.5656 28.06C64.3678 28.4962 64.0058 28.3852 63.808 28.8214C63.6101 29.2577 63.7163 29.2894 63.5184 29.7256C63.3205 30.1619 63.1806 30.1222 62.9827 30.5585C62.7949 30.8276 62.6597 31.1194 62.5821 31.423C62.5821 31.7086 62.9489 31.9901 63.0647 32.2598C63.2626 32.6961 63.4846 32.6287 63.6825 33.053C63.8803 33.4773 63.7886 33.517 63.9865 33.9532C64.1844 34.3895 63.9527 34.4648 64.1506 34.9011C64.2712 35.1628 64.7491 35.3453 64.8263 35.611C64.9035 35.8767 64.6333 36.2217 64.6767 36.4954C64.7201 36.769 64.5077 37.0466 64.5077 37.3242C64.5077 37.6018 65.0483 37.9112 64.9903 38.1848C64.9324 38.4585 64.667 38.7202 64.585 38.978C64.5523 39.2622 64.4975 39.5443 64.4209 39.8227C64.3388 40.0012 63.8658 39.8584 63.7838 40.0369C63.7109 40.3376 63.5595 40.6218 63.3398 40.8697C63.0647 41.1077 62.9585 41.6193 62.5918 41.7462C62.225 41.8731 61.7134 41.4051 61.308 41.4051C60.7578 41.4051 60.7578 41.762 60.2077 41.762C59.6575 41.762 59.6623 41.6272 59.1121 41.6272C58.5619 41.6272 58.5667 41.6034 58.0166 41.6034C57.4664 41.6034 57.4664 42 56.921 42C56.3756 42 56.3708 41.4091 55.8206 41.4091C55.2704 41.4091 55.2705 41.655 54.7203 41.655C54.1701 41.655 54.1701 41.7264 53.6199 41.7264C53.0697 41.7264 53.0697 41.9405 52.5195 41.9405C51.9694 41.9405 51.7715 41.2861 51.9645 40.8658C52.1576 40.4454 52.1528 40.4176 52.3555 39.9734C52.5582 39.5293 52.5147 39.5174 52.7174 39.0692C52.9201 38.6211 52.978 38.6449 53.2 38.2007C53.3736 37.9174 53.4924 37.6137 53.5523 37.3004C53.5523 37.0149 52.8043 36.8325 52.6788 36.5628C52.4809 36.1265 53.0939 35.9401 52.896 35.5039C52.7748 35.1965 52.6027 34.9042 52.3844 34.6354C52.0466 34.2507 51.6943 34.4093 51.4964 33.9691Z" fill="#CCD5FF"/>
<path d="M43.2139 26.2996C42.8566 26.2996 42.5173 26.3494 42.178 26.3313C41.8388 26.3132 41.4678 26.4172 41.1285 26.372C40.7893 26.3267 40.4681 26.1096 40.1379 26.0372C39.8077 25.9649 39.3689 26.182 39.0432 26.0825C38.7175 25.983 38.4959 25.5306 38.1793 25.4039C37.8626 25.2773 37.5324 25.1687 37.2293 25.0104C36.9262 24.8521 36.4649 24.9245 36.1799 24.7345C35.8949 24.5445 35.7909 24.0786 35.5285 23.866C35.2662 23.6534 34.8093 23.6172 34.565 23.3774C34.3208 23.1377 34.3072 22.6673 34.1127 22.4049C33.9182 22.1425 33.6106 21.9209 33.416 21.6404C33.2215 21.36 33.1039 21.0207 32.9365 20.7357C32.7692 20.4508 32.457 20.0708 32.3168 19.7587C32.1721 20.0708 31.9052 20.4507 31.7333 20.7583C31.5614 21.0659 31.5478 21.4504 31.3488 21.7445C31.1498 22.0385 30.9462 22.3144 30.7201 22.5858C30.4939 22.8572 30.1773 23.0382 29.9285 23.2734C29.6797 23.5086 29.3088 23.5946 29.0238 23.8162C28.7388 24.0379 28.7388 24.5942 28.4448 24.7842C28.153 24.9839 27.8511 25.1681 27.5401 25.3361C27.237 25.4944 26.7937 25.3768 26.4635 25.5125C26.1333 25.6482 25.8483 25.8156 25.5045 25.9196C25.1607 26.0237 24.8033 25.9196 24.455 25.9739C24.1067 26.0282 23.8398 26.4263 23.487 26.4625C23.1342 26.4986 22.7949 26.5122 22.4376 26.5348C22.0802 26.5574 21.75 26.3403 21.3927 26.3403C21.2674 26.3578 21.1397 26.3478 21.0187 26.3111C20.8976 26.2744 20.786 26.2118 20.6915 26.1277C20.497 25.9332 20.2392 25.7251 20.2392 25.4266C20.2277 25.1082 20.3286 24.7959 20.5241 24.5445C20.7187 24.35 21.1122 24.4631 21.4288 24.4631C21.7455 24.4631 22.1345 24.35 22.4692 24.3274C22.8039 24.3048 23.2021 24.4088 23.5323 24.359C23.868 24.2376 24.1971 24.0987 24.5184 23.9429C24.8667 23.8524 25.1245 23.5584 25.423 23.4408C25.7216 23.3231 26.1604 23.391 26.4589 23.2327C26.7884 23.1002 27.1101 22.9492 27.4224 22.7803C27.7165 22.5768 27.8386 22.1697 28.0874 21.9435C28.3362 21.7173 28.7614 21.6178 28.9921 21.36C29.2228 21.1021 29.2499 20.6679 29.4444 20.3874C29.6109 20.0939 29.7619 19.792 29.8968 19.4827C30.0641 19.1616 30.4351 18.958 30.5617 18.6504C30.6884 18.3428 30.5301 17.8814 30.625 17.5738C30.7381 17.1984 31.1905 16.9541 31.2493 16.6691C31.3669 16.0946 31.48 15.6966 31.4845 15.6287C31.4845 15.3437 31.4845 15.1764 31.6745 14.9819C31.7613 14.8978 31.8653 14.8336 31.9793 14.7938C32.0934 14.7539 32.2147 14.7394 32.3349 14.7512V14.3848C32.6199 14.3848 32.8959 14.6743 33.0904 14.8597C33.2647 15.0648 33.3552 15.3281 33.3437 15.5971C33.481 15.9207 33.5914 16.255 33.6739 16.5968C33.7327 16.8908 33.8051 17.2255 33.9181 17.601C34.0312 17.9764 34.0945 18.2433 34.2348 18.5871C34.375 18.9309 34.5921 19.1525 34.764 19.4918C34.9359 19.831 34.8726 20.22 35.0762 20.5141C35.2597 20.8136 35.4605 21.1021 35.6778 21.3781C35.8994 21.6359 36.3653 21.663 36.6277 21.9028C36.8901 22.1425 37.0348 22.4727 37.3289 22.6763C37.6189 22.8703 37.9211 23.0456 38.2336 23.201C38.5321 23.3548 38.7538 23.7348 39.0885 23.866C39.4232 23.9971 39.7625 24.0786 40.1108 24.1736C40.4591 24.2686 40.7984 24.3002 41.1557 24.359C41.5131 24.4178 41.8568 24.359 42.2142 24.359C42.5715 24.359 42.9018 24.4133 43.2637 24.4133C43.6255 24.4133 43.9738 24.3093 44.1684 24.5083C44.3968 24.7575 44.5353 25.076 44.5619 25.413C44.5347 25.7508 44.3945 26.0695 44.1638 26.3177C43.9241 26.5213 43.5125 26.2996 43.2139 26.2996Z" fill="#383838"/>
<path d="M55.1416 0C55.6799 0 55.6799 0.126657 56.2182 0.126657C56.7565 0.126657 56.761 0.0226119 57.2993 0.0226119C57.8376 0.0226119 57.8375 0.149269 58.3803 0.149269C58.7521 0.0939556 59.1309 0.107756 59.4977 0.189978C59.8331 0.366272 60.131 0.605913 60.3752 0.895639C60.632 1.16258 60.8335 1.47776 60.9678 1.82296C61.113 2.16197 61.1898 2.52627 61.194 2.89502C61.194 3.39713 61.298 3.39712 61.298 3.90375V4.91249C61.298 5.41912 61.2708 5.41911 61.2708 5.92574C61.2708 6.43237 61.1261 6.43238 61.1261 6.93901C61.1326 7.30129 61.0664 7.66119 60.9316 7.9975C60.829 8.35812 60.6586 8.69587 60.4295 8.99266C60.1348 9.22456 59.7986 9.39805 59.4389 9.50381C59.1045 9.64795 58.7445 9.72334 58.3803 9.72547C57.842 9.72547 57.8421 9.79784 57.2993 9.79784C56.7565 9.79784 56.761 9.8295 56.2227 9.8295C55.6844 9.8295 55.6799 9.8657 55.1416 9.8657C54.7615 9.84338 54.3896 9.74654 54.0469 9.58072C53.6951 9.444 53.3727 9.24133 53.097 8.98362C52.8478 8.70214 52.6558 8.3749 52.5315 8.02011C52.4011 7.67515 52.3411 7.30755 52.3551 6.93901C52.3551 6.43238 52.3235 6.43238 52.3235 5.93027C52.3235 5.42816 52.2148 5.42364 52.2148 4.91702C52.2148 4.41039 52.3958 4.41038 52.3958 3.90375C52.3958 3.39712 52.3506 3.39713 52.3506 2.89502C52.3335 2.52413 52.3904 2.15356 52.5179 1.80486C52.6498 1.4524 52.8479 1.12841 53.1015 0.850402C53.3748 0.589577 53.6958 0.383788 54.0469 0.244258C54.3926 0.0931317 54.7644 0.010201 55.1416 0Z" fill="#383838"/>
<path d="M58.2127 4.00301C58.077 4.00301 58.068 4.03015 57.9368 4.00301C57.987 3.92049 58.0179 3.82773 58.0273 3.73161C58.0273 3.31093 58.0273 3.31092 58.0273 2.88571C58.0214 2.71972 57.951 2.56258 57.831 2.44769C57.7111 2.33281 57.551 2.26924 57.3849 2.27053C56.8557 2.27053 56.8557 2.27053 56.331 2.27053C55.8063 2.27053 55.8017 2.31576 55.277 2.31576C55.1136 2.30705 54.9533 2.36284 54.8306 2.47113C54.708 2.57942 54.6327 2.73155 54.6211 2.89477C54.6211 3.31998 54.6211 3.31997 54.6211 3.74066C54.629 3.90958 54.7006 4.06925 54.8214 4.18756C54.9423 4.30588 55.1034 4.37408 55.2724 4.37847C55.5993 4.35584 55.9273 4.35584 56.2541 4.37847C56.2114 4.45911 56.1911 4.54969 56.1953 4.64082C56.1953 4.69963 56.15 4.69964 56.15 4.76297C56.1569 4.93705 56.2301 5.10192 56.3545 5.22384C56.479 5.34577 56.6453 5.41554 56.8195 5.41886C57.5116 5.41886 57.5116 5.41886 58.2037 5.41886C58.372 5.41648 58.5326 5.34761 58.6504 5.22728C58.7682 5.10695 58.8336 4.94492 58.8324 4.77654C58.8324 4.71321 58.8686 4.7132 58.8686 4.65439C58.8699 4.56813 58.8537 4.4825 58.8211 4.40261C58.7885 4.32273 58.7402 4.25024 58.679 4.18944C58.6178 4.12865 58.5449 4.0808 58.4648 4.04877C58.3847 4.01674 58.299 4.00118 58.2127 4.00301Z" fill="white"/>
<path d="M6.21473 0.0863551C6.75302 0.0863551 6.75302 0.140635 7.29132 0.140635C7.82961 0.140635 7.82962 0.0546875 8.37243 0.0546875C8.91525 0.0546875 8.91073 0.127065 9.44902 0.127065C9.8145 0.114838 10.1788 0.174779 10.5211 0.303473C10.8759 0.423395 11.2034 0.612512 11.4846 0.859866C11.7404 1.13363 11.9401 1.4548 12.0726 1.80527C12.2076 2.15246 12.2722 2.52304 12.2626 2.89543C12.2626 3.39754 12.1993 3.39753 12.1993 3.90416V4.9129C12.1993 5.41952 12.3531 5.41952 12.3531 5.92615C12.3531 6.43278 12.3531 6.43279 12.3531 6.93942C12.3307 7.31368 12.2339 7.67972 12.0681 8.01601C11.9085 8.34561 11.6838 8.63949 11.4077 8.87998C11.1763 9.16891 10.8924 9.41143 10.5708 9.5947C10.2198 9.73412 9.84476 9.80327 9.46708 9.79824C8.92878 9.79824 8.92884 9.69421 8.39054 9.69421C7.85225 9.69421 7.85224 9.8073 7.30943 9.8073C6.76661 9.8073 6.77113 9.84348 6.23284 9.84348C5.85691 9.8159 5.48983 9.71607 5.15172 9.54946C4.79317 9.43 4.4602 9.24435 4.17011 9.00212C3.90853 8.72421 3.70277 8.39866 3.56398 8.04315C3.43762 7.68953 3.38229 7.31446 3.40114 6.93942C3.40114 6.43279 3.40114 6.43278 3.40114 5.93068C3.40114 5.42857 3.32422 5.42405 3.32422 4.91742C3.32422 4.41079 3.41472 4.41078 3.41472 3.90416C3.41472 3.39753 3.41472 3.39754 3.41472 2.89543C3.41875 2.5262 3.49716 2.16157 3.64537 1.82337C3.75175 1.46161 3.92684 1.12372 4.16105 0.828198C4.45735 0.59361 4.79712 0.419895 5.16078 0.317043C5.49312 0.170385 5.8515 0.0919454 6.21473 0.0863551Z" fill="#383838"/>
<path d="M9.267 3.95345C9.1313 3.95345 9.13132 4.00774 9.00466 3.95345C9.04122 3.87726 9.05979 3.79369 9.05894 3.70918C9.05894 3.2885 9.08153 3.2885 9.08153 2.8633C9.07804 2.78308 9.05877 2.70434 9.02482 2.63157C8.99086 2.55881 8.94292 2.49345 8.88368 2.43925C8.82444 2.38505 8.75508 2.34306 8.67959 2.3157C8.6041 2.28833 8.52397 2.27612 8.44376 2.27976C7.91903 2.27976 7.919 2.21191 7.38975 2.21191C6.8605 2.21191 6.86505 2.25715 6.3358 2.25715C6.17255 2.2559 6.01529 2.31865 5.89775 2.43196C5.78022 2.54527 5.71176 2.70011 5.70703 2.8633C5.70703 3.2885 5.74773 3.2885 5.74773 3.70918C5.74532 3.78857 5.75868 3.86765 5.78699 3.94186C5.81529 4.01607 5.85799 4.08393 5.91266 4.14154C5.96733 4.19915 6.03286 4.24537 6.10549 4.27753C6.17811 4.30969 6.2564 4.32714 6.3358 4.3289C6.66261 4.30626 6.99055 4.30626 7.31736 4.3289C7.27972 4.41102 7.26265 4.50107 7.26761 4.59127C7.26761 4.65007 7.26761 4.65007 7.26761 4.7134C7.26037 4.79877 7.27219 4.8847 7.30217 4.96497C7.33216 5.04524 7.3796 5.11784 7.44105 5.17756C7.5025 5.23728 7.57641 5.28261 7.6575 5.31029C7.7386 5.33797 7.82482 5.34732 7.90996 5.33764H9.29417C9.37608 5.34251 9.4581 5.33095 9.53547 5.30364C9.61285 5.27632 9.684 5.23381 9.7447 5.1786C9.80539 5.12338 9.85444 5.05658 9.88893 4.98213C9.92342 4.90767 9.94265 4.82707 9.94553 4.74506C9.94553 4.68173 9.94553 4.68174 9.94553 4.62293C9.93976 4.44565 9.86616 4.27734 9.73989 4.15277C9.61363 4.02819 9.44435 3.95684 9.267 3.95345Z" fill="white"/>
<path d="M36.8864 12.1628C36.8719 12.457 36.806 12.7463 36.6919 13.0178C36.6261 13.3087 36.5098 13.5858 36.3481 13.8365C36.1266 14.037 35.8785 14.206 35.6108 14.3386C35.2785 14.5258 34.9225 14.6673 34.5523 14.7593C34.1925 14.8852 33.8213 14.9761 33.444 15.0307C33.066 15.1031 32.6838 15.1515 32.2996 15.1755C31.9141 15.153 31.5303 15.1061 31.1507 15.0352C30.766 15.0094 30.3845 14.9489 30.0107 14.8543C29.6311 14.7628 29.2658 14.6197 28.9251 14.4291C28.6776 14.2608 28.4553 14.0582 28.2647 13.8275C28.0806 13.59 27.9397 13.3221 27.8485 13.0359C27.7485 12.7557 27.698 12.4603 27.6992 12.1628C27.714 11.8677 27.7782 11.5772 27.8892 11.3034C28.0058 11.0379 28.1716 10.797 28.3778 10.5932C28.5613 10.3742 28.7762 10.1837 29.0156 10.0277C29.3346 9.8288 29.6803 9.67648 30.0424 9.57539C30.4 9.43782 30.7694 9.33334 31.1461 9.26327C31.5276 9.1946 31.9128 9.14778 32.2996 9.12305C32.687 9.12805 33.0737 9.15676 33.4576 9.20899C33.8396 9.27523 34.215 9.37514 34.5794 9.50755C34.9441 9.62264 35.29 9.79027 35.6063 10.0051C35.8376 10.1759 36.0407 10.382 36.2079 10.6158C36.4022 10.8253 36.5556 11.0692 36.6603 11.335C36.7811 11.5965 36.8576 11.8762 36.8864 12.1628Z" fill="#FFB3C5"/>
</svg>
