<svg width="36" height="36" viewBox="0 0 36 36" fill="none" xmlns="http://www.w3.org/2000/svg">
<path d="M36 18C36 27.9411 27.9411 36 18 36C8.05887 36 0 27.9411 0 18C0 8.05887 8.05887 0 18 0C27.9411 0 36 8.05887 36 18Z" fill="#D6E7FF"/>
<path d="M18.5003 26.6807C18.0345 26.6807 17.7269 26.3379 17.7269 25.8545V24.2725L16.6722 24.9404C16.3119 25.2129 15.89 25.2041 15.6439 24.835C15.4242 24.5098 15.4945 24.0967 15.89 23.8506L17.7269 22.7607V21.7676L17.9202 19.0166L15.6175 20.5547L14.765 21.0469L14.7298 23.1826C14.7122 23.6396 14.387 23.9121 14.0003 23.8857C13.5521 23.8594 13.3324 23.499 13.3939 23.0508L13.4554 21.8115L12.0755 22.6025C11.6624 22.8486 11.2142 22.752 10.9857 22.3389C10.7484 21.9346 10.889 21.4863 11.3021 21.2578L12.6732 20.458L11.5658 19.8867C11.1527 19.7109 10.9505 19.3506 11.1527 18.9375C11.3197 18.5859 11.7152 18.4453 12.1283 18.6562L13.9827 19.7021L14.8441 19.21L17.3314 17.9971L14.8441 16.7842L13.9827 16.292L12.1283 17.3291C11.7152 17.5488 11.3197 17.3994 11.1439 17.0566C10.9505 16.6436 11.1527 16.2744 11.5658 16.0986L12.6732 15.5361L11.2933 14.7363C10.8802 14.5078 10.7484 14.0684 10.9857 13.6553C11.2142 13.2598 11.6624 13.1455 12.0755 13.3916L13.4554 14.1738L13.3939 12.9346C13.3324 12.4951 13.5521 12.1348 14.0091 12.1084C14.387 12.082 14.7122 12.3545 14.7298 12.8115L14.765 14.9385L15.6175 15.4395L17.9202 16.9775L17.7269 14.2178V13.2334L15.89 12.1348C15.4945 11.8975 15.4242 11.4844 15.6439 11.1592C15.8988 10.79 16.3119 10.7725 16.6722 11.0449L17.7269 11.7217V10.1309C17.7269 9.64746 18.0345 9.31348 18.5003 9.31348C18.9749 9.31348 19.2738 9.64746 19.2738 10.1309V11.7217L20.3197 11.0449C20.68 10.7725 21.1019 10.79 21.3568 11.1592C21.5589 11.4844 21.4974 11.8975 21.1019 12.1436L19.2738 13.2334V14.2178L19.0804 16.9775L21.3831 15.4395L22.2269 14.9385L22.2708 12.8115C22.2796 12.3545 22.6048 12.082 22.9915 12.1084C23.4398 12.1348 23.6595 12.4951 23.598 12.9434L23.5452 14.1738L24.9251 13.3916C25.3382 13.1455 25.7865 13.2598 26.015 13.6553C26.2435 14.0684 26.1204 14.499 25.6986 14.7363L24.3275 15.5361L25.4261 16.0986C25.8392 16.2744 26.0501 16.6523 25.848 17.0479C25.6722 17.3994 25.2767 17.5488 24.8724 17.3291L23.0091 16.292L22.1566 16.7842L19.6605 17.9971L22.1566 19.21L23.0091 19.7021L24.8724 18.665C25.2767 18.4541 25.6634 18.5859 25.848 18.9375C26.0413 19.3418 25.8392 19.7197 25.4261 19.8867L24.3275 20.458L25.6986 21.2578C26.1117 21.4863 26.2347 21.9346 26.0062 22.3389C25.7777 22.7432 25.347 22.8486 24.9251 22.6025L23.5452 21.8027L23.6068 23.0508C23.6595 23.499 23.4398 23.8594 22.9915 23.8857C22.6048 23.9121 22.2796 23.6396 22.2708 23.1826L22.2357 21.0557L21.3831 20.5635L19.0804 19.0254L19.2738 21.7676V22.7607L21.1019 23.8506C21.4974 24.0967 21.5677 24.5098 21.3568 24.835C21.0931 25.2041 20.68 25.2129 20.3197 24.9404L19.2738 24.2725V25.8545C19.2738 26.3467 18.9749 26.6807 18.5003 26.6807Z" fill="#5E9BF0"/>
</svg>
