<?xml version="1.0" encoding="utf-8"?>
<!-- Generator: Adobe Illustrator 26.0.3, SVG Export Plug-In . SVG Version: 6.00 Build 0)  -->
<svg version="1.1" id="레이어_1" xmlns="http://www.w3.org/2000/svg" xmlns:xlink="http://www.w3.org/1999/xlink" x="0px"
	 y="0px" viewBox="0 0 494 165" style="enable-background:new 0 0 494 165;" xml:space="preserve">
<style type="text/css">
	.st0{opacity:0.75;fill:#8E7167;}
	.st1{opacity:0.75;fill:#A58983;}
	.st2{opacity:0.75;fill:#7F5C51;}
</style>
<path class="st0" d="M1.2,161.9c0,0.5,0.3,0.9,0.7,1.3c0.4,0.3,0.9,0.5,1.3,0.5c0.7-0.1,1.3-0.8,2-1c0.7-0.2,1.5,0.1,2.2-0.1
	c0.7-0.2,1.2-0.9,1.9-1.1c0.7-0.2,1.4-0.3,2.1-0.6s1.4-0.5,2-0.8c0.6-0.3,1.2-0.7,1.9-1.1c0.6-0.4,1.4-0.6,2-1
	c0.6-0.4,1.2-0.8,1.9-1.2c0.6-0.4,1.1-1.1,1.8-1.4c0.7-0.3,1.4-0.4,2.1-0.7s1.4-0.5,2.1-0.7c0.7-0.2,1.4-0.4,2.2-0.6
	c0.7-0.2,1.4-0.6,2.1-0.8c0.7-0.2,1.5,0,2.2-0.1c0.7-0.1,1.4-0.2,2.2-0.3c0.7-0.1,1.5,0,2.2,0s1.5-0.4,2.2-0.4s1.5-0.1,2.2,0
	s1.5,0.2,2.2,0.3c0.7,0.1,1.5,0.3,2.2,0.4s1.5,0,2.2,0.2c0.7,0.2,1.5,0.2,2.2,0.3c0.7,0.2,1.3,0.9,2,1.2c0.7,0.2,1.5,0.1,2.2,0.4
	s1.3,0.7,2,1c0.7,0.3,1.2,0.9,1.8,1.3c0.6,0.4,1.6,0.3,2.2,0.7c0.6,0.4,0.9,1.4,1.5,1.7s1.5,0.3,2.2,0.6c0.7,0.3,1.2,1,1.9,1.3
	c0.7,0.3,1.4,0.6,2.1,0.9c0.7,0.2,1.4,0.5,2.1,0.7c0.7,0.2,1.5,0.1,2.2,0.3c0.7,0.2,1.5,0,2.2,0.2c0.7,0.2,1.4,0.8,2.1,0.8
	c0.7,0.1,1.5-0.2,2.3-0.2c0.7,0,1.5,0.2,2.2,0.2s1.5-0.4,2.2-0.5c0.7,0,1.5,0.5,2.3,0.4c0.7-0.1,1.5-0.2,2.2-0.3
	c0.7-0.1,1.3-0.9,2.1-1s1.5,0,2.2-0.2c0.7-0.2,1.5-0.2,2.2-0.4c0.7-0.2,1.3-0.7,2-0.9s1.4-0.5,2.1-0.9c0.7-0.3,1.1-1.1,1.7-1.5
	c0.6-0.4,1.5-0.4,2.1-0.9c0.6-0.4,1.2-0.8,1.9-1.2s1.4-0.5,2-0.9s1.2-1.1,1.8-1.3c0.7-0.3,1.4-0.5,2.1-0.8s1.5-0.1,2.2-0.3
	s1.3-0.8,2.1-1c0.7-0.2,1.6,0.3,2.3,0.1s1.4-0.8,2.1-0.9c0.7-0.1,1.5,0,2.2-0.1c0.8-0.1,1.5-0.2,2.2-0.2s1.5,0.4,2.2,0.4
	s1.5-0.2,2.2-0.1c0.7,0.1,1.4,0.6,2.2,0.7c0.7,0.1,1.5,0,2.2,0.1s1.4,0.7,2.1,0.9c0.7,0.2,1.5,0.1,2.2,0.4c0.7,0.2,1.2,0.9,1.9,1.2
	c0.7,0.3,1.6,0.1,2.2,0.5s1.3,0.8,1.9,1.1c0.6,0.4,1.4,0.6,2,1c0.6,0.4,1,1.2,1.6,1.6c0.6,0.4,1.5,0.3,2.2,0.7
	c0.7,0.3,1.2,1,1.9,1.3c0.7,0.3,1.3,0.7,2,1c0.7,0.3,1.4,0.4,2.2,0.6c0.7,0.2,1.5,0.1,2.2,0.3s1.5,0.2,2.2,0.3
	c0.7,0.1,1.5,0,2.2,0.1c0.7,0.1,1.4,0.8,2.2,0.8s1.5-0.1,2.2-0.1c0.7,0,1.5-0.1,2.2-0.1c0.7,0,1.5-0.2,2.2-0.3
	c0.7-0.1,1.4-0.5,2.2-0.6c0.7-0.1,1.5-0.1,2.2-0.3c0.7-0.2,1.5-0.2,2.2-0.4c0.7-0.2,1.5-0.1,2.2-0.3c0.7-0.2,1.3-0.7,2-1
	c0.7-0.3,1.3-0.7,2-1.1c0.7-0.3,1.3-0.8,1.9-1.2c0.6-0.4,1.5-0.4,2.1-0.8s1.1-1,1.7-1.4s1.3-0.7,2-1c0.7-0.3,1.4-0.5,2.1-0.8
	s1.4-0.5,2.1-0.8c0.7-0.2,1.3-0.7,2-0.9c0.7-0.2,1.4-0.7,2.1-0.8c0.7-0.2,1.5-0.2,2.2-0.3c0.7-0.1,1.5-0.1,2.2-0.2s1.5-0.1,2.2-0.1
	c0.7,0,1.5,0.1,2.2,0.1s1.5-0.2,2.2-0.1c0.7,0,1.5-0.2,2.2-0.1s1.5,0.2,2.2,0.3c0.7,0.1,1.4,0.5,2.1,0.7c0.7,0.2,1.5,0.1,2.2,0.3
	c0.7,0.2,1.2,1,2,1.2s1.5,0.1,2.2,0.4c0.7,0.3,1.2,0.9,1.9,1.2c0.7,0.3,1.3,0.7,1.9,1.1c0.6,0.4,1.4,0.5,2,0.9c0.6,0.4,1.3,0.6,2,1
	s1.1,1,1.8,1.3s1.4,0.4,2.1,0.7s1.2,1,1.9,1.2c0.7,0.2,1.6-0.1,2.3,0.1c0.7,0.2,1.3,0.6,2,0.8c0.7,0.2,1.4,0.4,2.1,0.5
	c0.2,0,0.4,0,0.6,0c0.2-0.1,0.4-0.2,0.5-0.3c0.2-0.1,0.3-0.3,0.3-0.5c0.1-0.2,0.1-0.4,0.1-0.6c0-1.1-0.1-1.1-0.1-2.2
	c0-1.1,0.5-1.1,0.5-2.2c0-1.1-0.4-1.1-0.4-2.2c0-1.1,0.2-1.1,0.2-2.2s-0.4-1.1-0.4-2.2s0.4-1.1,0.4-2.2s-0.3-1.1-0.3-2.2
	c0-1.1-0.1-1.1-0.1-2.2s0-1.1,0-2.2s0.3-1.1,0.3-2.2c0-1.1,0-1.1,0-2.2c0-1.1,0.3-1.1,0.3-2.2s-0.5-1.1-0.5-2.2
	c0-1.1,0.4-1.1,0.4-2.2s-0.4-1.1-0.4-2.2c0-1.1,0.6-1.1,0.6-2.2c0-1.1-0.5-1.1-0.5-2.2s0.2-1.1,0.2-2.2c0-1.1,0.2-1.1,0.2-2.2
	s-0.3-1.1-0.3-2.2c0-1.1,0.4-1.1,0.4-2.2c0-1.1-0.2-1.1-0.2-2.2s0.1-1.1,0.1-2.2v-2.2c0-1.1-0.2-1.1-0.2-2.2c0-1.1,0.2-1.1,0.2-2.2
	c0-1.1,0.2-1.1,0.2-2.2s-0.5-1.1-0.5-2.2c0-1.1-0.1-1.1-0.1-2.2s0.4-1.1,0.4-2.2s0.1-1.1,0.1-2.2s-0.1-1.1-0.1-2.2
	c0-1.1,0.2-1.1,0.2-2.2c0-1.1-0.3-1.1-0.3-2.2s0-1.1,0-2.2c0-1.1,0-1.1,0-2.2c0-1.1-0.1-1.1-0.1-2.2s0.5-1.1,0.5-2.2
	c0-1.1-0.5-1.1-0.5-2.2c0-1.1-0.2-1.1-0.2-2.2s0.6-1.1,0.6-2.2c0-1.1-0.4-1.1-0.4-2.2s0.4-1.1,0.4-2.2c0-1.1-0.3-1.1-0.3-2.2
	s-0.1-1.1-0.1-2.2c0-1.1-0.3-1.1-0.3-2.2s0.1-1.1,0.1-2.2c0-1.1-0.1-1.1-0.1-2.2s0.3-1.1,0.3-2.2c0-1.1-0.1-1.1-0.1-2.2s0-1.1,0-2.2
	c0-1.1,0.1-1.1,0.1-2.2c0-1.1,0.1-1.1,0.1-2.2s0.1-1.1,0.1-2.2c0-1.1-0.1-1.1-0.1-2.2s-0.2-1.1-0.2-2.2s0.3-1.1,0.3-2.2
	c0-1.1,0.1-1.1,0.1-2.2c0-1.1,0.1-1.1,0.1-2.2c0-1.1-0.2-1.1-0.2-2.2c0-1.1,0-1.1,0-2.2c0-1.1,0.1-1.1,0.1-2.2s0.1-1.1,0.1-2.2
	c0-1.1-0.4-1.1-0.4-2.2c0-1.1,0.2-1.1,0.2-2.2c0-1.1-0.4-1.1-0.4-2.2s0.2-1.1,0.2-2.2s0-1.1,0-2.2c0-1.1,0.4-1.1,0.4-2.3
	s-0.3-1.1-0.3-2.2s0-1.1,0-2.2s1-1.7,0.2-2.5c-0.8-0.8-1.4-0.1-2.5-0.1c-1.1,0-1.1,0.6-2.2,0.6s-1.1-0.5-2.2-0.5
	c-1.1,0-1.1,0.4-2.2,0.4c-1.1,0-1.1-0.5-2.2-0.5c-1.1,0-1.1,0-2.2,0s-1.1-0.1-2.2-0.1c-1.1,0-1.1,0.6-2.2,0.6
	c-1.1,0-1.1-0.1-2.2-0.1c-1.1,0-1.1-0.4-2.2-0.4c-1.1,0-1.1,0.2-2.2,0.2s-1.1-0.4-2.2-0.4c-1.1,0-1.1,0.3-2.2,0.3s-1.1,0.1-2.2,0.1
	S211.2,1,210.1,1c-1.1,0-1.1,0.1-2.2,0.1c-1.1,0-1.1-0.5-2.2-0.5c-1.1,0-1.1,0.1-2.2,0.1s-1.1-0.1-2.2-0.1c-1.1,0-1.1,0.4-2.2,0.4
	c-1.1,0-1.1-0.1-2.2-0.1c-1.1,0-1.1,0-2.2,0c-1.1,0-1.1-0.3-2.2-0.3S191,1,189.9,1c-1.1,0-1.1-0.3-2.2-0.3h-2.2
	c-1.1,0-1.1-0.2-2.2-0.2c-1.1,0-1.1,0.3-2.2,0.3c-1.1,0-1.1-0.2-2.2-0.2s-1.1,0.1-2.2,0.1c-1.1,0-1.1-0.1-2.2-0.1s-1.1,0.1-2.2,0.1
	c-1.1,0-1.1,0.1-2.2,0.1s-1.1-0.2-2.2-0.2c-1.1,0-1.1-0.1-2.2-0.1c-1.1,0-1.1,0.5-2.2,0.5c-1.1,0-1.1,0.1-2.2,0.1s-1.1,0.1-2.2,0.1
	s-1.1-0.3-2.2-0.3c-1.1,0-1.1,0.2-2.2,0.2c-1.1,0-1.1-0.5-2.2-0.5c-1.1,0-1.1-0.1-2.2-0.1s-1.1,0.7-2.2,0.7c-1.1,0-1.1-0.5-2.2-0.5
	c-1.1,0-1.1,0-2.2,0s-1.1-0.1-2.2-0.1c-1.1,0-1.1,0.2-2.2,0.2s-1.1,0.4-2.2,0.4c-1.1,0-1.1,0-2.2,0c-1.1,0-1.1-0.2-2.2-0.2
	c-1.1,0-1.1-0.2-2.2-0.2h-2.2c-1.1,0-1.1,0.2-2.2,0.2h-2.2c-1.1,0-1.1-0.3-2.2-0.3c-1.1,0-1.1-0.1-2.2-0.1H116
	c-1.1,0-1.1,0.2-2.2,0.2c-1.1,0-1.1,0.3-2.2,0.3c-1.1,0-1.1,0-2.2,0c-1.1,0-1.1,0.1-2.2,0.1c-1.1,0-1.1-0.5-2.2-0.5
	c-1.1,0-1.1,0.1-2.2,0.1c-1.1,0-1.1,0.2-2.2,0.2c-1.1,0-1.1,0.1-2.2,0.1c-1.1,0-1.1-0.2-2.2-0.2c-1.1,0-1.1,0.1-2.2,0.1
	c-1.1,0-1.1-0.3-2.2-0.3C90.2,0.7,90.2,1,89,1s-1.1-0.3-2.2-0.3s-1.1,0.4-2.2,0.4c-1.1,0-1.1-0.2-2.2-0.2c-1.1,0-1.1,0.1-2.2,0.1
	c-1.1,0-1.1,0.3-2.2,0.3c-1.1,0-1.1-0.2-2.2-0.2c-1.1,0-1.1-0.1-2.2-0.1c-1.1,0-1.1,0-2.2,0C70,1,70,0.7,68.8,0.7
	c-1.1,0-1.1,0.3-2.2,0.3h-2.2c-1.1,0-1.1,0.2-2.2,0.2S61,0.9,59.8,0.9c-1.1,0-1.1,0.4-2.2,0.4c-1.1,0-1.1,0-2.2,0
	c-1.1,0-1.1-0.4-2.2-0.4S52,0.8,50.9,0.8s-1.1,0.5-2.2,0.5c-1.1,0-1.1-0.3-2.2-0.3h-2.2C43,1,43,0.8,41.9,0.8S40.8,1,39.6,1
	c-1.1,0-1.1,0.1-2.2,0.1c-1.1,0-1.1-0.2-2.2-0.2c-1.1,0-1.1-0.1-2.2-0.1c-1.1,0-1.1,0.1-2.3,0.1c-1.1,0-1.1,0.3-2.2,0.3
	c-1.1,0-1.1-0.3-2.2-0.3C25,1,25,1.4,23.9,1.4c-1.1,0-1.1-0.1-2.2-0.1c-1.1,0-1.1-0.2-2.2-0.2h-2.2c-1.1,0-1.1,0-2.2,0
	s-1.1,0.1-2.2,0.1s-1.1,0-2.2,0c-1.1,0-1.1-0.2-2.3-0.2S7,1,5.9,1S4.8,1.5,3.6,1.5S2,0.2,1.2,1C0.4,1.8,1.1,2.3,1.1,3.4
	s0.1,1.1,0.1,2.2s0.5,1.1,0.5,2.2S1.2,9,1.2,10.1c0,1.1,0.3,1.1,0.3,2.2s-0.5,1.1-0.5,2.2s0,1.1,0,2.2c0,1.1,0.6,1.1,0.6,2.2
	s-0.3,1.1-0.3,2.2c0,1.1-0.4,1.1-0.4,2.2s0.2,1.1,0.2,2.2c0,1.1,0.2,1.1,0.2,2.2c0,1.1-0.1,1.1-0.1,2.2c0,1.1,0.3,1.1,0.3,2.2
	c0,1.1-0.3,1.1-0.3,2.2c0,1.1,0.1,1.1,0.1,2.2s0.2,1.1,0.2,2.2S1,40.3,1,41.4c0,1.1,0.5,1.1,0.5,2.2s-0.1,1.1-0.1,2.2
	S1.4,47,1.4,48.1c0,1.1-0.2,1.1-0.2,2.2c0,1.1,0,1.1,0,2.2s0.5,1.1,0.5,2.2c0,1.1-0.4,1.1-0.4,2.2s0,1.1,0,2.2
	c0,1.1-0.1,1.1-0.1,2.2s0.1,1.1,0.1,2.2c0,1.1-0.2,1.1-0.2,2.2c0,1.1,0,1.1,0,2.2s0.2,1.1,0.2,2.2c0,1.1,0.3,1.1,0.3,2.2
	c0,1.1-0.6,1.1-0.6,2.2c0,1.1,0.4,1.1,0.4,2.2c0,1.1-0.1,1.1-0.1,2.2c0,1.1-0.2,1.1-0.2,2.2s0.1,1.1,0.1,2.2c0,1.1,0.1,1.1,0.1,2.2
	c0,1.1-0.1,1.1-0.1,2.2s-0.2,1.1-0.2,2.2c0,1.1-0.1,1.1-0.1,2.2s0.3,1.1,0.3,2.2s-0.3,1.1-0.3,2.2c0,1.1,0.2,1.1,0.2,2.2
	c0,1.1,0.4,1.1,0.4,2.2c0,1.1-0.4,1.1-0.4,2.2c0,1.1-0.2,1.1-0.2,2.2s0.2,1.1,0.2,2.2c0,1.1,0.4,1.1,0.4,2.2c0,1.1-0.2,1.1-0.2,2.2
	S1,114.1,1,115.2c0,1.1,0.7,1.1,0.7,2.2c0,1.1-0.6,1.1-0.6,2.2s0.6,1.1,0.6,2.2c0,1.1-0.6,1.1-0.6,2.2s0.4,1.1,0.4,2.2
	c0,1.1,0.2,1.1,0.2,2.2c0,1.1,0,1.1,0,2.2S1,132,1,133.1c0,1.1,0.6,1.1,0.6,2.2s-0.2,1.1-0.2,2.2c0,1.1,0.3,1.1,0.3,2.2
	c0,1.1-0.4,1.1-0.4,2.2s0.3,1.1,0.3,2.2c0,1.1,0,1.1,0,2.2c0,1.1-0.3,1.1-0.3,2.2s-0.2,1.1-0.2,2.2c0,1.1,0.6,1.1,0.6,2.2
	c0,1.1,0.1,1.1,0.1,2.2c0,1.1-0.7,1.1-0.7,2.2s0.7,1.1,0.6,2.3C1.6,161.1,1.2,160.8,1.2,161.9z"/>
<path class="st0" d="M250.6,162.1c0,0.2,0.1,0.5,0.2,0.7c0.1,0.2,0.3,0.4,0.4,0.5c0.2,0.1,0.4,0.3,0.6,0.3c0.2,0.1,0.5,0.1,0.7,0.1
	c0.7-0.1,1.4-0.2,2.2-0.4c0.7-0.2,1.4-0.3,2.1-0.5c0.7-0.2,1.3-0.8,2-1c0.7-0.2,1.5-0.2,2.1-0.5c0.7-0.3,1.4-0.4,2.1-0.7
	c0.6-0.3,1.4-0.6,2-1s1-1.2,1.5-1.6c0.6-0.4,1.2-1,1.8-1.3c0.6-0.3,1.4-0.5,2.1-0.8c0.7-0.3,1.5-0.3,2.1-0.6c0.7-0.3,1.3-0.7,2-0.9
	c0.7-0.2,1.3-0.8,2-1c0.7-0.2,1.5-0.4,2.2-0.5c0.7-0.2,1.5-0.2,2.2-0.3c0.7-0.1,1.4-0.4,2.2-0.5c0.7-0.1,1.5,0.4,2.3,0.3
	c0.7,0,1.5,0.1,2.2,0.1s1.5-0.5,2.2-0.5c0.7,0,1.5,0.4,2.2,0.5c0.7,0.1,1.4,0.4,2.2,0.5c0.7,0.1,1.5-0.2,2.3,0c0.7,0.2,1.3,0.8,2,1
	c0.7,0.2,1.6-0.2,2.3,0.1c0.7,0.2,1.3,0.8,2,1.1c0.7,0.3,1.3,0.7,2,1c0.7,0.3,1.3,0.7,1.9,1.1c0.6,0.4,1.4,0.6,2,1
	c0.6,0.4,1.1,1,1.8,1.3c0.6,0.3,1.5,0.4,2.1,0.7c0.7,0.3,1.3,0.7,2,1c0.7,0.3,1.2,0.9,2,1.1s1.4,0.6,2.1,0.9
	c0.7,0.2,1.5,0.1,2.2,0.2c0.7,0.2,1.5,0,2.2,0.1c0.7,0.1,1.4,0.6,2.2,0.6c0.7,0.1,1.5,0.3,2.2,0.3s1.5,0.1,2.2,0.1s1.5-0.4,2.2-0.4
	c0.7,0,1.5-0.1,2.2-0.1s1.5,0,2.2-0.1c0.7-0.1,1.4-0.6,2.1-0.7c0.7-0.1,1.5,0,2.2-0.2c0.7-0.2,1.3-0.7,2-1c0.7-0.3,1.3-0.7,2-0.9
	c0.7-0.3,1.5-0.3,2.2-0.6s1.4-0.6,2-1c0.6-0.4,1.4-0.6,2-1.1s1.1-1,1.7-1.4c0.6-0.4,1.2-0.9,1.9-1.2c0.7-0.3,1.4-0.6,2-0.9
	s1.4-0.5,2.1-0.8c0.7-0.2,1.3-0.7,2.1-0.9c0.7-0.2,1.6,0.2,2.3,0.1c0.7-0.1,1.4-0.3,2.2-0.4s1.4-0.6,2.1-0.7
	c0.7-0.1,1.5-0.3,2.2-0.3c0.7,0,1.5-0.1,2.2-0.1s1.5,0.4,2.2,0.4c0.7,0,1.5-0.2,2.2-0.1c0.7,0.1,1.5,0.1,2.2,0.2
	c0.7,0.1,1.4,0.8,2.1,1s1.4,0.3,2.1,0.5c0.7,0.2,1.6-0.1,2.3,0.2c0.7,0.2,1.4,0.5,2.1,0.8s1.1,1.2,1.8,1.5c0.7,0.3,1.6,0.2,2.2,0.6
	c0.6,0.4,1.3,0.8,1.9,1.2c0.6,0.4,1.1,1,1.8,1.4c0.6,0.4,1.4,0.5,2.1,0.8c0.7,0.3,1.3,0.6,2,0.9c0.7,0.3,1.2,1,1.9,1.3
	c0.7,0.3,1.5,0.2,2.2,0.4c0.7,0.2,1.4,0.5,2.2,0.6c0.7,0.2,1.5,0,2.2,0.2c0.7,0.2,1.5,0,2.2,0c0.7,0,1.4,0.5,2.2,0.5
	s1.5-0.2,2.2-0.2c0.7,0,1.5,0.1,2.2,0.1c0.7,0,1.5,0,2.2-0.1c0.7-0.1,1.4-0.5,2.2-0.6s1.6,0.3,2.3,0.2s1.4-0.7,2.1-0.9
	c0.7-0.2,1.3-0.7,2-0.9c0.7-0.2,1.4-0.5,2.1-0.8s1.5-0.3,2.2-0.6c0.7-0.3,1.4-0.5,2.1-0.9c0.6-0.4,1-1.1,1.7-1.5
	c0.7-0.4,1.3-0.8,1.9-1.1c0.6-0.4,1.4-0.6,2-0.9s1.2-0.8,1.9-1.1c0.7-0.3,1.4-0.4,2.1-0.6c0.7-0.2,1.5-0.3,2.2-0.5s1.4-0.6,2.1-0.7
	s1.5,0.2,2.3,0c0.7-0.2,1.4-0.5,2.1-0.6s1.5-0.3,2.2-0.3c0.7,0,1.5-0.3,2.2-0.3s1.5,0.1,2.2,0.1c0.7,0,1.5,0.5,2.2,0.5
	c0.7,0.1,1.5,0,2.2,0.1c0.7,0.1,1.4,0.7,2.1,0.8c0.7,0.2,1.6-0.1,2.3,0.1c0.7,0.2,1.4,0.4,2.1,0.7c0.7,0.2,1.3,0.9,2,1.1
	c0.7,0.3,1.5,0.3,2.1,0.6c0.7,0.3,1.4,0.5,2.1,0.9c0.6,0.4,1.1,1.1,1.7,1.5c0.6,0.4,1.2,0.8,1.9,1.2c0.6,0.4,1.2,0.9,1.8,1.2
	c0.7,0.3,1.4,0.5,2,0.8c0.6,0.3,1.5,0.2,2.2,0.5c0.7,0.2,1.4,0.4,2.1,0.6c0.7,0.2,1.3,0.8,2,1c0.7,0.2,1.5-0.1,2.2,0
	c0.9,0.1,2-0.4,2-1.3c0-1.1-0.1-1.1-0.1-2.2s-0.4-1.1-0.4-2.2c0-1.1,0.5-1.1,0.5-2.2s0-1.1,0-2.2c0-1.1-0.2-1.1-0.2-2.2s0-1.1,0-2.2
	c0-1.1,0.3-1.1,0.3-2.2c0-1.1,0-1.1,0-2.2s-0.4-1.1-0.4-2.2s-0.2-1.1-0.2-2.2s0.6-1.1,0.6-2.2s-0.3-1.1-0.3-2.2s-0.2-1.1-0.2-2.2
	s0-1.1,0-2.2c0-1.1,0.1-1.1,0.1-2.2c0-1.1,0.2-1.1,0.2-2.2c0-1.1,0-1.1,0-2.2s-0.3-1.1-0.3-2.2s0.1-1.1,0.1-2.2
	c0-1.1-0.1-1.1-0.1-2.2s0.6-1.1,0.6-2.2c0-1.1-0.3-1.1-0.3-2.2s-0.3-1.1-0.3-2.2c0-1.1,0.3-1.1,0.3-2.2c0-1.1,0.2-1.1,0.2-2.2
	s-0.6-1.1-0.6-2.2c0-1.1,0.1-1.1,0.1-2.2c0-1.1,0-1.1,0-2.2c0-1.1-0.1-1.1-0.1-2.2c0-1.1,0.5-1.1,0.5-2.2s-0.6-1.1-0.6-2.2
	c0-1.1,0.3-1.1,0.3-2.2s-0.2-1.1-0.2-2.2c0-1.1-0.2-1.1-0.2-2.2s0.5-1.1,0.5-2.2c0-1.1,0-1.1,0-2.2c0-1.1-0.4-1.1-0.4-2.2
	s0.4-1.1,0.4-2.2c0-1.1-0.7-1.1-0.7-2.2c0-1.1,0.5-1.1,0.5-2.2c0-1.1,0.1-1.1,0.1-2.2s-0.6-1.1-0.6-2.2c0-1.1,0.7-1.1,0.7-2.2
	c0-1.1-0.1-1.1-0.1-2.2s-0.1-1.1-0.1-2.2s-0.3-1.1-0.3-2.2c0-1.1,0.1-1.1,0.1-2.2s0.1-1.1,0.1-2.2s0.2-1.1,0.2-2.2
	c0-1.1,0.2-1.1,0.2-2.2s-0.6-1.1-0.6-2.2c0-1.1,0.1-1.1,0.1-2.2s0.4-1.1,0.4-2.2c0-1.1-0.1-1.1-0.1-2.2s-0.5-1.1-0.5-2.2
	s0.2-1.1,0.2-2.2c0-1.1,0-1.1,0-2.2c0-1.1,0.4-1.1,0.4-2.2s-0.1-1.1-0.1-2.2v-2.2c0-1.1-0.2-1.1-0.2-2.2c0-1.1-0.2-1.1-0.2-2.2
	s0.4-1.1,0.4-2.2c0-1.1-0.1-1.1-0.1-2.2c0-1.1-0.3-1.1-0.3-2.2s0-1.1,0-2.2s0-1.1,0-2.2s0.5-1.1,0.5-2.2c0-1.1,0.1-1.1,0.1-2.3
	s-0.5-1.1-0.5-2.2s-0.2-1.1-0.2-2.2s1.2-1.5,0.4-2.3c-0.8-0.8-1.2-0.1-2.3-0.1c-1.1,0-1.1,0.2-2.2,0.2h-2.2c-1.1,0-1.1,0-2.2,0
	c-1.1,0-1.1-0.4-2.2-0.4c-1.1,0-1.1,0.2-2.2,0.2s-1.1-0.2-2.2-0.2s-1.1,0.2-2.2,0.2s-1.1-0.2-2.2-0.2c-1.1,0-1.1,0.3-2.2,0.3
	c-1.1,0-1.1-0.3-2.2-0.3s-1.1,0-2.2,0s-1.1,0.1-2.2,0.1c-1.1,0-1.1,0.4-2.2,0.4h-2.2c-1.1,0-1.1-0.5-2.2-0.5s-1.1,0.6-2.2,0.6
	s-1.1-0.4-2.2-0.4c-1.1,0-1.1-0.2-2.2-0.2c-1.1,0-1.1,0.6-2.2,0.6c-1.1,0-1.1-0.1-2.2-0.1s-1.1-0.1-2.2-0.1h-2.2
	c-1.1,0-1.1-0.5-2.2-0.5H437c-1.1,0-1.1,0.4-2.2,0.4c-1.1,0-1.1-0.3-2.2-0.3h-2.2c-1.1,0-1.1,0.2-2.2,0.2c-1.1,0-1.1,0.2-2.2,0.2
	S424.6,1,423.5,1c-1.1,0-1.1,0-2.2,0c-1.1,0-1.1,0.1-2.2,0.1S417.9,1,416.8,1s-1.1,0.2-2.2,0.2c-1.1,0-1.1-0.4-2.2-0.4
	c-1.1,0-1.1,0.2-2.2,0.2s-1.1,0.3-2.2,0.3s-1.1-0.2-2.2-0.2s-1.1,0.2-2.2,0.2c-1.1,0-1.1-0.4-2.2-0.4c-1.1,0-1.1,0.4-2.2,0.4
	s-1.1,0-2.2,0s-1.1,0.1-2.2,0.1c-1.1,0-1.1,0-2.2,0S391,1,389.9,1s-1.1,0.2-2.2,0.2c-1.1,0-1.1-0.4-2.2-0.4c-1.1,0-1.1,0.1-2.2,0.1
	c-1.1,0-1.1,0.4-2.2,0.4S379.8,1,378.7,1s-1.1-0.2-2.2-0.2S375.3,1,374.2,1s-1.1,0.1-2.2,0.1s-1.1,0-2.2,0s-1.1-0.6-2.2-0.6
	c-1.1,0-1.1,0.5-2.2,0.5c-1.1,0-1.1-0.5-2.2-0.5s-1.1,0.2-2.2,0.2s-1.1-0.2-2.2-0.2s-1.1-0.1-2.2-0.1c-1.1,0-1.1,0.5-2.2,0.5
	c-1.1,0-1.1-0.5-2.2-0.5S350.6,1,349.5,1s-1.1-0.3-2.2-0.3s-1.1,0.4-2.2,0.4s-1.1-0.3-2.2-0.3s-1.1,0.3-2.2,0.3s-1.1-0.3-2.2-0.3
	c-1.1,0-1.1,0.2-2.2,0.2c-1.1,0-1.1,0.2-2.2,0.2s-1.1-0.3-2.2-0.3s-1.1-0.1-2.2-0.1s-1.1-0.2-2.2-0.2s-1.1,0.1-2.2,0.1
	s-1.1,0.1-2.2,0.1c-1.1,0-1.1-0.2-2.2-0.2c-1.1,0-1.1,0.4-2.2,0.4s-1.1-0.2-2.2-0.2h-2.2c-1.1,0-1.1-0.3-2.2-0.3s-1.1,0.2-2.2,0.2
	s-1.1,0.2-2.2,0.2s-1.1-0.1-2.2-0.1s-1.1-0.2-2.2-0.2c-1.1,0-1.1,0.1-2.2,0.1h-2.2c-1.1,0-1.1-0.1-2.2-0.1s-1.1,0.6-2.2,0.6
	s-1.1-0.3-2.2-0.3S290,1,288.9,1c-1.1,0-1.1-0.1-2.2-0.1c-1.1,0-1.1,0.2-2.2,0.2c-1.1,0-1.1,0.2-2.2,0.2s-1.1-0.2-2.2-0.2
	s-1.1-0.2-2.2-0.2h-2.2c-1.1,0-1.1-0.2-2.2-0.2s-1.1,0.1-2.2,0.1s-1.1,0.1-2.2,0.1S267.6,1,266.5,1s-1.1-0.3-2.2-0.3
	s-1.1,0.2-2.2,0.2s-1.1,0.3-2.2,0.3s-1.1-0.5-2.2-0.5s-1.1,0-2.3,0c-1.1,0-1.1,0.3-2.2,0.3c-1.1,0-1.3-0.6-2.1,0.2
	c-0.8,0.8-0.1,1-0.1,2.1s-0.3,1.1-0.3,2.2s0.2,1.1,0.2,2.2s0,1.1,0,2.2s0.1,1.1,0.1,2.2s0.2,1.1,0.2,2.2s-0.5,1.1-0.5,2.2
	c0,1.1,0.1,1.1,0.1,2.2c0,1.1,0.1,1.1,0.1,2.2s-0.2,1.1-0.2,2.2s0.3,1.1,0.3,2.2c0,1.1-0.1,1.1-0.1,2.2c0,1.1-0.1,1.1-0.1,2.2
	c0,1.1,0.3,1.1,0.3,2.2c0,1.1,0,1.1,0,2.2c0,1.1,0,1.1,0,2.2s-0.5,1.1-0.5,2.2s0,1.1,0,2.2c0,1.1,0.5,1.1,0.5,2.2s-0.4,1.1-0.4,2.2
	s0.5,1.1,0.5,2.2c0,1.1,0,1.1,0,2.2c0,1.1-0.4,1.1-0.4,2.2s0.2,1.1,0.2,2.2v2.2c0,1.1-0.3,1.1-0.3,2.2c0,1.1,0,1.1,0,2.2
	s0.2,1.1,0.2,2.2c0,1.1,0.3,1.1,0.3,2.2c0,1.1-0.2,1.1-0.2,2.2s-0.3,1.1-0.3,2.2c0,1.1,0.2,1.1,0.2,2.2c0,1.1,0.3,1.1,0.3,2.2
	c0,1.1-0.4,1.1-0.4,2.2c0,1.1,0,1.1,0,2.2c0,1.1,0.1,1.1,0.1,2.2s0,1.1,0,2.2c0,1.1-0.3,1.1-0.3,2.2c0,1.1,0.1,1.1,0.1,2.2
	s0.2,1.1,0.2,2.2c0,1.1-0.1,1.1-0.1,2.2s-0.1,1.1-0.1,2.2s0.1,1.1,0.1,2.2c0,1.1,0.2,1.1,0.2,2.2c0,1.1-0.4,1.1-0.4,2.2
	c0,1.1-0.1,1.1-0.1,2.2c0,1.1,0.4,1.1,0.4,2.2c0,1.1-0.4,1.1-0.4,2.2c0,1.1,0.3,1.1,0.3,2.2c0,1.1,0,1.1,0,2.2
	c0,1.1-0.2,1.1-0.2,2.2s0.3,1.1,0.3,2.2c0,1.1-0.1,1.1-0.1,2.2s0.2,1.1,0.2,2.2c0,1.1,0.1,1.1,0.1,2.2c0,1.1-0.1,1.1-0.1,2.2
	s-0.3,1.1-0.3,2.2c0,1.1-0.4,1.1-0.4,2.2c0,1.1,0,1.1,0,2.2s0.7,1.1,0.7,2.2c0,1.1-0.4,1.1-0.4,2.2c0,1.1,0.3,1.1,0.3,2.2
	s-0.1,1.1-0.1,2.2c0,1.1,0.1,1.1,0.1,2.2s0.1,1.1,0.1,2.2c0,1.1-0.1,1.1-0.1,2.2c0,1.1-0.5,1.1-0.5,2.2s0.7,1.1,0.7,2.2
	c0,1.1-0.1,1.1-0.1,2.2c0,1.1-0.2,1.1-0.2,2.2c0,1.1,0.2,1.1,0.1,2.3C250.8,160.9,250.6,161,250.6,162.1z"/>
<path class="st1" d="M445.7,53c0.3,1.2,0.4,1.2,0.7,2.4s-0.4,1.5,0.4,2.5c0.8,1,1.1,0.6,2.3,1.1c1.1,0.5,1.2,0.2,2.4,0.8
	c0.2,0.1,0.4,0.2,0.5,0.4c0.1,0.2,0.2,0.4,0.2,0.6c0,0.2-0.1,0.4-0.2,0.6c-0.1,0.2-0.3,0.3-0.5,0.4c-1.1,0.6-1,0.7-2.1,1.3
	c-1.1,0.6-1.5,0.2-2.2,1.3c-0.7,1,0.1,1.3,0,2.6c-0.1,1.2-0.3,1.2-0.4,2.5c0,0.2-0.1,0.4-0.2,0.5c-0.1,0.2-0.3,0.3-0.5,0.3
	s-0.4,0.1-0.6,0c-0.2,0-0.4-0.1-0.5-0.3c-0.9-0.8-1-0.7-2-1.5s-0.6-1.5-1.8-1.8c-1.2-0.3-1.2,0.3-2.5,0.5c-1.2,0.3-1.2,0.3-2.4,0.5
	c-0.2,0.1-0.4,0.1-0.6,0c-0.2-0.1-0.4-0.2-0.5-0.3c-0.1-0.2-0.2-0.4-0.2-0.6c0-0.2,0-0.4,0.2-0.6c0.5-1.1,0.4-1.2,0.9-2.3s1-1,1-2.3
	s-0.6-1.1-1.2-2.2c-0.6-1.1-0.6-1.1-1.2-2.2c-0.1-0.2-0.2-0.4-0.2-0.6c0-0.2,0.1-0.4,0.2-0.6c0.1-0.2,0.2-0.3,0.4-0.4
	c0.2-0.1,0.4-0.1,0.6-0.1c1.2,0.1,1.2,0,2.5,0.2s1.3,0.8,2.5,0.4c1.2-0.5,0.8-0.9,1.7-1.9s0.9-0.9,1.7-1.8c0.1-0.2,0.3-0.3,0.5-0.4
	s0.4-0.1,0.6-0.1c0.2,0,0.4,0.2,0.5,0.3S445.6,52.8,445.7,53z"/>
<path class="st2" d="M432.7,99.5c0.5,0.7,0.5,0.7,1.1,1.4s0.3,0.9,1.1,1.3s0.9,0,1.7,0h1.7c0.1,0,0.3,0,0.4,0.1
	c0.1,0.1,0.2,0.2,0.3,0.3c0.1,0.1,0.1,0.3,0.1,0.4c0,0.1-0.1,0.3-0.1,0.4c-0.5,0.7-0.4,0.8-0.9,1.5c-0.5,0.7-0.9,0.5-1,1.4
	s0.4,0.8,0.7,1.6c0.3,0.8,0.2,0.8,0.5,1.7c0,0.1,0,0.3,0,0.4c0,0.1-0.1,0.3-0.2,0.4c-0.1,0.1-0.2,0.2-0.4,0.2c-0.1,0-0.3,0.1-0.4,0
	c-0.8-0.2-0.8-0.3-1.7-0.5c-0.8-0.2-0.8-0.7-1.7-0.5c-0.9,0.2-0.6,0.6-1.3,1.2c-0.7,0.5-0.7,0.5-1.4,1c-0.1,0.1-0.3,0.1-0.4,0.1
	c-0.1,0-0.3,0-0.4-0.1c-0.1-0.1-0.2-0.2-0.3-0.3c-0.1-0.1-0.1-0.3-0.1-0.4c0-0.9,0-0.9-0.1-1.7c-0.1-0.9,0.3-1-0.1-1.7
	c-0.4-0.7-0.7-0.5-1.4-1c-0.7-0.6-0.6-0.6-1.3-1.1c-0.1-0.1-0.2-0.2-0.3-0.3c-0.1-0.1-0.1-0.3-0.1-0.4c0-0.1,0.1-0.3,0.1-0.4
	c0.1-0.1,0.2-0.2,0.3-0.2c0.8-0.3,0.8-0.2,1.6-0.6c0.8-0.3,1.1,0,1.7-0.6c0.6-0.6,0.2-0.9,0.4-1.7c0.2-0.8,0.4-0.8,0.6-1.6
	c0-0.1,0.1-0.3,0.2-0.4c0.1-0.1,0.2-0.2,0.4-0.2s0.3,0,0.4,0C432.5,99.3,432.6,99.3,432.7,99.5z"/>
<path class="st2" d="M459.9,75.3c0.6,0.9,0.5,0.9,1.1,1.7s0.9,0.6,1.5,1.5s0.1,1.4,1,1.9s1.1-0.2,2.1-0.2c1,0,1,0.4,2.1,0.4
	c1.1,0,1-0.3,2.1-0.2c0.3,0,0.5,0.1,0.8,0.3s0.4,0.4,0.5,0.6c0.1,0.2,0.2,0.5,0.2,0.8c0,0.3-0.1,0.5-0.2,0.8
	c-0.6,0.8-0.8,0.7-1.4,1.6c-0.6,0.8-0.6,0.9-1.2,1.7s-1.1,0.6-1.3,1.6c-0.2,1,0.1,1,0.4,2c0.3,1,0.5,1,0.8,2s0,1.1,0.3,2.1
	c0.1,0.2,0.1,0.5,0.1,0.7s-0.2,0.5-0.3,0.6c-0.2,0.2-0.4,0.3-0.6,0.3c-0.2,0.1-0.5,0-0.7-0.1c-1-0.3-1-0.4-1.9-0.8s-1-0.4-1.9-0.7
	c-0.9-0.4-1-0.6-2-0.4s-0.8,0.6-1.6,1.2c-0.9,0.6-0.9,0.4-1.8,1c-0.9,0.5-0.8,0.6-1.7,1.2c-0.2,0.1-0.5,0.2-0.8,0.2
	c-0.3,0-0.5-0.1-0.8-0.2c-0.2-0.1-0.4-0.3-0.6-0.5c-0.1-0.2-0.2-0.5-0.3-0.8c0-1,0-1,0-2.1s0.2-1,0.2-2.1c0-1.1,0.6-1.2,0.2-2.1
	c-0.4-0.9-1-0.5-1.8-1.2c-0.8-0.6-0.9-0.5-1.7-1.2c-0.8-0.6-0.7-0.8-1.5-1.4c-0.2-0.2-0.3-0.4-0.4-0.6c-0.1-0.2-0.1-0.5-0.1-0.7
	c0-0.2,0.2-0.5,0.3-0.6c0.2-0.2,0.4-0.3,0.6-0.4c1-0.3,0.9-0.6,1.9-0.9c1-0.3,1.1,0.1,2.1-0.2c1-0.3,1.1-0.2,1.8-0.9
	s0.6-0.8,0.9-1.8c0.4-1,0.3-1,0.7-2c0.4-1,0.3-1,0.6-2c0.1-0.2,0.2-0.5,0.4-0.6c0.2-0.2,0.4-0.3,0.7-0.3c0.3,0,0.5,0,0.7,0.2
	C459.6,74.9,459.8,75.1,459.9,75.3z"/>
<path class="st1" d="M275.3,126.1l2-1.4c1-0.7,1.5-0.3,2-1.4c0.5-1.1,0-1.2,0-2.5s0.2-1.2,0.3-2.5c0-0.2,0.1-0.4,0.2-0.5
	c0.1-0.2,0.2-0.3,0.4-0.4c0.2-0.1,0.4-0.1,0.6-0.1c0.2,0,0.4,0.1,0.5,0.2c1,0.7,1.1,0.5,2.1,1.3s0.7,1.4,1.9,1.6
	c1.2,0.2,1.2-0.4,2.4-0.7c1.2-0.3,1.2-0.2,2.4-0.5c0.2-0.1,0.4-0.1,0.5-0.1c0.2,0,0.3,0.1,0.5,0.3c0.1,0.1,0.2,0.3,0.2,0.5
	c0,0.2,0,0.4-0.1,0.5c-0.4,1.2-0.4,1.2-0.8,2.4s-0.9,1.2-0.7,2.4c0.2,1.2,0.7,1,1.4,2.1c0.7,1.1,0.9,0.9,1.6,1.9
	c0.1,0.2,0.2,0.4,0.2,0.6s-0.1,0.4-0.2,0.6c-0.1,0.2-0.3,0.4-0.4,0.5s-0.4,0.2-0.6,0.2c-1.2,0-1.2,0-2.5-0.1s-1.3-0.6-2.4-0.1
	s-0.8,0.8-1.6,1.8c-0.8,1-0.6,1.1-1.4,2.1c-0.1,0.2-0.3,0.3-0.5,0.3c-0.2,0.1-0.4,0.1-0.6,0c-0.2,0-0.4-0.1-0.5-0.3
	c-0.1-0.1-0.2-0.3-0.3-0.5c-0.4-1.2-0.5-1.2-0.8-2.3c-0.4-1.2,0.1-1.5-0.8-2.4c-0.9-0.9-1.2-0.4-2.3-0.8c-1.2-0.4-1.1-0.5-2.3-0.9
	c-0.2-0.1-0.4-0.2-0.5-0.4c-0.1-0.2-0.2-0.4-0.2-0.6c0-0.2,0-0.4,0.1-0.6C275,126.3,275.1,126.2,275.3,126.1z"/>
<path class="st2" d="M208,48.2c0.3,1.2,0.3,1.2,0.6,2.4s-0.2,1.5,0.6,2.5s1.2,0.4,2.4,0.9c1.1,0.5,1.1,0.6,2.2,1.1
	c0.2,0.1,0.4,0.2,0.5,0.4c0.1,0.2,0.2,0.4,0.2,0.6c0,0.2,0,0.4-0.1,0.6c-0.1,0.2-0.2,0.3-0.4,0.4l-2.1,1.3c-1.1,0.6-1.6,0.1-2.2,1.2
	s-0.1,1.3-0.2,2.5c-0.1,1.2-0.3,1.2-0.4,2.5c0,0.2,0,0.4-0.1,0.6c-0.1,0.2-0.3,0.3-0.4,0.4c-0.2,0.1-0.4,0.1-0.6,0.1
	c-0.2,0-0.4-0.1-0.5-0.3c-0.9-0.8-1-0.7-2-1.6s-0.5-1.6-1.7-1.9c-1.2-0.3-1.3,0.2-2.5,0.5c-1.2,0.3-1.2,0.3-2.4,0.5
	c-0.2,0.1-0.4,0.1-0.6,0c-0.2-0.1-0.4-0.2-0.5-0.3c-0.1-0.2-0.2-0.3-0.3-0.5c0-0.2,0-0.4,0-0.6c0.5-1.2,0.8-1,1.3-2.2
	c0.5-1.2,0.9-1.1,0.8-2.3c-0.1-1.2-0.6-1.1-1.2-2.2c-0.6-1.1-0.8-1-1.4-2.1c-0.1-0.2-0.1-0.4-0.1-0.6c0-0.2,0.1-0.4,0.2-0.6
	c0.1-0.2,0.3-0.3,0.5-0.4c0.2-0.1,0.4-0.1,0.6-0.1c1.2,0.1,1.2,0.1,2.5,0.2c1.2,0.1,1.3,0.5,2.4,0s0.8-0.8,1.6-1.8
	c0.8-0.9,1-0.8,1.8-1.7c0.1-0.2,0.3-0.3,0.4-0.4c0.2-0.1,0.4-0.1,0.6,0c0.2,0,0.4,0.2,0.5,0.3C207.9,47.8,208,48,208,48.2z"/>
<path class="st1" d="M182.8,26.3c0.5,0.7,0.6,0.6,1.1,1.3c0.5,0.7,0.2,1.1,1,1.5c0.8,0.4,0.9-0.1,1.8-0.1c0.9,0,0.9,0,1.8,0
	c0.1,0,0.3,0,0.4,0.1c0.1,0.1,0.2,0.2,0.3,0.3c0.1,0.1,0.1,0.3,0.1,0.4c0,0.1,0,0.3-0.1,0.4c-0.5,0.7-0.6,0.7-1,1.4
	c-0.4,0.7-0.8,0.6-0.9,1.5s0.2,0.9,0.5,1.7c0.3,0.8,0.4,0.8,0.7,1.6c0,0.1,0,0.3,0,0.4c0,0.1-0.1,0.3-0.2,0.4
	c-0.1,0.1-0.2,0.2-0.4,0.2c-0.1,0-0.3,0-0.4,0c-0.8-0.2-0.9-0.2-1.7-0.4c-0.8-0.2-0.8-0.8-1.7-0.6s-0.7,0.6-1.4,1.2s-0.7,0.5-1.4,1
	c-0.1,0.1-0.2,0.2-0.3,0.2c-0.1,0-0.3,0-0.4-0.1c-0.1-0.1-0.2-0.2-0.3-0.3c-0.1-0.1-0.1-0.2-0.1-0.4c0-0.9-0.1-0.9-0.1-1.7
	s0.3-1-0.1-1.8c-0.4-0.8-0.8-0.4-1.5-0.9c-0.7-0.5-0.7-0.6-1.4-1.1c-0.1-0.1-0.2-0.2-0.3-0.3c-0.1-0.1-0.1-0.3-0.1-0.4
	c0-0.1,0.1-0.3,0.1-0.4c0.1-0.1,0.2-0.2,0.3-0.3l1.6-0.6c0.8-0.3,1.1,0.1,1.7-0.5s0.2-0.9,0.4-1.7s0.4-0.8,0.6-1.6
	c0-0.1,0.1-0.3,0.2-0.3c0.1-0.1,0.2-0.2,0.3-0.2c0.1,0,0.3,0,0.4,0C182.6,26.1,182.7,26.2,182.8,26.3z"/>
<path class="st1" d="M27.7,118.2c1.2,0,1.2-0.1,2.5-0.1s1.4,0.8,2.5,0.3c1.1-0.5,0.7-1.1,1.4-2.1s1-0.8,1.8-1.8
	c0.1-0.2,0.3-0.3,0.5-0.4c0.2-0.1,0.4-0.1,0.6-0.1c0.2,0,0.4,0.1,0.5,0.2c0.2,0.1,0.3,0.3,0.3,0.5c0.3,1.2,0.2,1.2,0.6,2.4
	c0.4,1.2-0.2,1.6,0.6,2.5s1.3,0.2,2.5,0.7c1.2,0.4,1.1,0.6,2.3,1.1c0.2,0.1,0.4,0.2,0.5,0.3c0.1,0.2,0.2,0.3,0.2,0.5
	c0,0.2,0,0.4-0.1,0.6c-0.1,0.2-0.2,0.3-0.4,0.4c-1,0.7-1.1,0.6-2.1,1.3c-1,0.7-1.4,0.4-2,1.5c-0.6,1.1,0,1.3,0,2.5
	c0,1.2,0,1.2-0.1,2.5c0,0.2-0.1,0.4-0.2,0.6c-0.1,0.2-0.3,0.3-0.5,0.4c-0.2,0.1-0.4,0.1-0.6,0.1c-0.2,0-0.4-0.1-0.6-0.2
	c-1-0.8-1-0.8-2-1.6s-0.7-1.3-1.9-1.5c-1.2-0.2-1.2,0.3-2.4,0.6s-1.2,0.3-2.4,0.6c-0.2,0.1-0.4,0.1-0.6,0c-0.2-0.1-0.4-0.2-0.5-0.3
	c-0.1-0.1-0.2-0.3-0.3-0.5c0-0.2,0-0.4,0-0.6c0.4-1.2,0.5-1.1,1-2.3c0.5-1.2,0.8-1.1,0.7-2.4c-0.1-1.2-0.5-1.1-1.2-2.2
	s-0.9-0.9-1.6-1.9c-0.1-0.2-0.1-0.4-0.1-0.6c0-0.2,0.1-0.4,0.2-0.6c0.1-0.2,0.3-0.3,0.4-0.4C27.2,118.3,27.4,118.2,27.7,118.2z"/>
<path class="st1" d="M75.5,130.4c0.8-0.2,0.8-0.3,1.7-0.5s1,0.2,1.7-0.3s0.4-0.7,0.8-1.5l0.8-1.6c0.1-0.1,0.2-0.2,0.3-0.3
	s0.3-0.1,0.4-0.1c0.1,0,0.3,0,0.4,0.1c0.1,0.1,0.2,0.2,0.3,0.3c0.4,0.8,0.4,0.8,0.8,1.5c0.4,0.8,0,1.2,0.8,1.6
	c0.8,0.5,0.9,0,1.8,0.1c0.9,0.1,0.8,0.2,1.7,0.4c0.1,0,0.3,0.1,0.4,0.1c0.1,0.1,0.2,0.2,0.2,0.3c0,0.1,0.1,0.3,0,0.4
	c0,0.1-0.1,0.3-0.2,0.4c-0.6,0.6-0.5,0.7-1.1,1.4c-0.6,0.6-1.1,0.4-1.3,1.2c-0.2,0.8,0.2,0.9,0.3,1.7c0.2,0.9,0.3,0.8,0.4,1.7
	c0,0.1,0,0.3-0.1,0.4c-0.1,0.1-0.2,0.2-0.3,0.3c-0.1,0.1-0.3,0.1-0.4,0.2c-0.1,0-0.3,0-0.4-0.1c-0.8-0.4-0.8-0.2-1.6-0.6
	s-0.7-0.9-1.5-0.9c-0.9,0-0.7,0.6-1.5,1c-0.8,0.5-0.9,0.3-1.6,0.7c-0.1,0.1-0.3,0.1-0.4,0.1c-0.1,0-0.3,0-0.4-0.1
	c-0.1-0.1-0.2-0.2-0.3-0.3c-0.1-0.1-0.1-0.3-0.1-0.4c0.1-0.9,0.2-0.9,0.3-1.7c0.1-0.9,0.6-0.9,0.3-1.8c-0.3-0.8-0.8-0.5-1.4-1.1
	c-0.6-0.6-0.5-0.7-1.2-1.3c-0.1-0.1-0.2-0.2-0.2-0.3c0-0.1,0-0.3,0-0.4c0-0.1,0.1-0.3,0.2-0.3C75.2,130.4,75.4,130.4,75.5,130.4z"/>
<path class="st2" d="M51.5,108.2c0.9-0.5,0.9-0.4,1.9-0.9c0.9-0.5,1-0.4,1.9-0.8c0.9-0.5,1.1-0.2,1.8-1c0.6-0.8,0.2-1,0.3-2
	c0.2-1,0.2-1,0.4-2c0.2-1,0.1-1,0.2-2.1c0.1-0.2,0.2-0.5,0.4-0.7c0.2-0.2,0.4-0.3,0.6-0.4c0.2-0.1,0.5-0.1,0.8,0s0.5,0.2,0.6,0.4
	c0.7,0.7,0.8,0.7,1.5,1.4c0.7,0.7,0.9,0.5,1.7,1.2c0.7,0.7,0.3,1.3,1.3,1.6c1,0.3,1,0,2.1-0.1c1.1-0.1,1-0.5,2-0.7
	c1-0.2,1.1,0.1,2.1-0.1c0.3,0,0.5,0,0.8,0.1c0.2,0.1,0.5,0.3,0.6,0.5c0.2,0.2,0.3,0.5,0.3,0.7c0,0.3,0,0.5-0.1,0.8
	c-0.5,0.9-0.8,0.8-1.3,1.7s-0.2,1-0.7,2s-0.9,0.8-0.9,1.8c0,1,0.3,0.9,0.8,1.9c0.5,0.9,0.5,0.9,0.9,1.9s0.7,0.8,1.1,1.8
	c0.1,0.3,0.1,0.5,0.1,0.8c0,0.3-0.1,0.5-0.3,0.7c-0.2,0.2-0.4,0.4-0.6,0.5c-0.2,0.1-0.5,0.2-0.8,0.1c-1-0.2-1-0.5-2-0.6
	c-1-0.1-1.1,0.2-2.1,0c-1-0.1-1.1-0.8-2.1-0.5c-1,0.3-0.7,0.8-1.5,1.5c-0.7,0.7-0.6,0.9-1.3,1.6c-0.7,0.7-0.9,0.6-1.7,1.3
	c-0.2,0.2-0.4,0.3-0.6,0.4c-0.2,0.1-0.5,0.1-0.7,0c-0.2-0.1-0.4-0.2-0.6-0.4c-0.2-0.2-0.3-0.4-0.3-0.7c-0.2-1-0.4-1-0.5-2
	c-0.2-1,0-1.1-0.2-2.1c-0.1-1,0.1-1.1-0.5-1.9c-0.6-0.8-0.7-0.7-1.6-1.2c-0.9-0.5-1-0.2-2-0.7c-1-0.5-0.8-0.8-1.7-1.2
	c-0.3-0.1-0.5-0.3-0.7-0.5c-0.2-0.2-0.3-0.5-0.3-0.8c0-0.3,0.1-0.6,0.2-0.8C51,108.5,51.2,108.3,51.5,108.2z"/>
</svg>
