<svg width="493" height="165" viewBox="0 0 493 165" fill="none" xmlns="http://www.w3.org/2000/svg">
<g opacity="0.75">
<path d="M0.549974 161.89C0.593344 162.381 0.826709 162.835 1.2003 163.157C1.5739 163.478 2.05818 163.641 2.54997 163.61C3.26997 163.49 3.86997 162.79 4.54997 162.61C5.22997 162.43 6.07995 162.72 6.77995 162.53C7.47995 162.34 8.01995 161.64 8.70995 161.41C9.39995 161.18 10.12 161.06 10.79 160.78C11.46 160.5 12.18 160.32 12.79 160C13.4 159.68 14.04 159.26 14.66 158.89C15.28 158.52 16.01 158.3 16.66 157.89C17.31 157.48 17.8799 157.07 18.5199 156.69C19.1599 156.31 19.62 155.58 20.28 155.25C20.94 154.92 21.73 154.81 22.42 154.53C23.11 154.25 23.84 154.08 24.54 153.84C25.24 153.6 25.97 153.46 26.69 153.26C27.41 153.06 28.07 152.66 28.8 152.5C29.53 152.34 30.31 152.5 31.05 152.41C31.79 152.32 32.4999 152.17 33.2399 152.09C33.9799 152.01 34.72 152.09 35.47 152.09C36.22 152.09 36.93 151.73 37.68 151.73C38.43 151.73 39.17 151.64 39.91 151.73C40.65 151.82 41.3799 151.97 42.1199 152.04C42.8599 152.11 43.58 152.32 44.31 152.43C45.04 152.54 45.82 152.43 46.54 152.63C47.26 152.83 48.0499 152.78 48.7599 152.97C49.4699 153.16 50.0399 153.88 50.7599 154.12C51.4799 154.36 52.3 154.26 52.98 154.54C53.66 154.82 54.31 155.23 54.98 155.54C55.65 155.85 56.17 156.47 56.8 156.84C57.43 157.21 58.37 157.16 58.98 157.58C59.59 158 59.8599 158.94 60.4999 159.32C61.1399 159.7 62.03 159.62 62.69 159.95C63.35 160.28 63.87 160.95 64.56 161.23C65.25 161.51 65.9199 161.85 66.6299 162.09C67.3399 162.33 68.0299 162.62 68.7499 162.82C69.4699 163.02 70.2599 162.92 70.9899 163.08C71.7199 163.24 72.49 163.08 73.22 163.24C73.95 163.4 74.62 163.99 75.36 164.07C76.1 164.15 76.8799 163.86 77.6199 163.9C78.3599 163.94 79.1 164.08 79.84 164.08C80.58 164.08 81.31 163.63 82.05 163.59C82.79 163.55 83.58 164.1 84.32 164.03C85.06 163.96 85.82 163.88 86.55 163.76C87.28 163.64 87.8999 162.88 88.6199 162.76C89.3399 162.64 90.13 162.76 90.85 162.53C91.57 162.3 92.36 162.36 93.06 162.12C93.76 161.88 94.41 161.46 95.06 161.18C95.71 160.9 96.4699 160.64 97.1299 160.32C97.7899 160 98.21 159.2 98.84 158.82C99.47 158.44 100.32 158.39 100.92 157.96C101.52 157.53 102.15 157.14 102.79 156.76C103.43 156.38 104.18 156.24 104.79 155.91C105.4 155.58 105.94 154.86 106.63 154.58C107.32 154.3 108.02 154.06 108.73 153.81C109.44 153.56 110.24 153.68 110.95 153.48C111.66 153.28 112.29 152.69 113.01 152.48C113.73 152.27 114.57 152.74 115.3 152.62C116.03 152.5 116.69 151.78 117.43 151.7C118.17 151.62 118.92 151.7 119.67 151.64C120.42 151.58 121.16 151.48 121.9 151.48C122.64 151.48 123.38 151.89 124.12 151.93C124.86 151.97 125.63 151.71 126.37 151.78C127.11 151.85 127.79 152.35 128.53 152.47C129.27 152.59 130.05 152.47 130.77 152.58C131.49 152.69 132.13 153.26 132.84 153.45C133.55 153.64 134.36 153.57 135.06 153.81C135.76 154.05 136.3 154.71 136.98 155C137.66 155.29 138.55 155.13 139.21 155.46C139.87 155.79 140.5 156.22 141.14 156.59C141.78 156.96 142.54 157.19 143.14 157.59C143.74 157.99 144.14 158.78 144.78 159.16C145.42 159.54 146.26 159.5 146.93 159.83C147.6 160.16 148.1 160.83 148.79 161.11C149.48 161.39 150.11 161.83 150.79 162.11C151.47 162.39 152.23 162.52 152.95 162.72C153.67 162.92 154.45 162.85 155.17 163.01C155.89 163.17 156.64 163.23 157.37 163.35C158.1 163.47 158.86 163.35 159.6 163.42C160.34 163.49 161.03 164.18 161.77 164.21C162.51 164.24 163.27 164.11 164.01 164.11C164.75 164.11 165.5 164.04 166.24 164C166.98 163.96 167.72 163.81 168.45 163.73C169.18 163.65 169.88 163.27 170.62 163.15C171.36 163.03 172.1 163.05 172.82 162.89C173.54 162.73 174.3 162.7 175.01 162.5C175.72 162.3 176.55 162.4 177.25 162.16C177.95 161.92 178.58 161.43 179.25 161.16C179.92 160.89 180.56 160.44 181.25 160.11C181.94 159.78 182.51 159.32 183.14 158.95C183.77 158.58 184.66 158.55 185.27 158.13C185.88 157.71 186.36 157.13 187 156.74C187.64 156.35 188.32 156.07 189 155.74C189.68 155.41 190.38 155.22 191.07 154.93C191.76 154.64 192.43 154.4 193.14 154.16C193.85 153.92 194.46 153.45 195.14 153.26C195.82 153.07 196.51 152.6 197.24 152.44C197.97 152.28 198.73 152.24 199.46 152.12C200.19 152 200.95 152.03 201.69 151.95C202.43 151.87 203.18 151.89 203.92 151.85C204.66 151.81 205.4 151.9 206.15 151.9C206.9 151.9 207.64 151.74 208.38 151.78C209.12 151.82 209.89 151.63 210.63 151.71C211.37 151.79 212.12 151.88 212.85 152C213.58 152.12 214.27 152.54 214.99 152.7C215.71 152.86 216.51 152.79 217.22 152.99C217.93 153.19 218.47 153.99 219.22 154.24C219.97 154.49 220.75 154.36 221.44 154.64C222.13 154.92 222.64 155.56 223.3 155.89C223.96 156.22 224.6 156.58 225.24 156.95C225.88 157.32 226.67 157.46 227.24 157.88C227.81 158.3 228.57 158.49 229.24 158.88C229.91 159.27 230.36 159.88 231.02 160.16C231.68 160.44 232.41 160.6 233.08 160.88C233.75 161.16 234.27 161.88 234.96 162.09C235.65 162.3 236.52 161.96 237.23 162.16C237.94 162.36 238.56 162.78 239.23 162.94C239.9 163.1 240.64 163.32 241.36 163.44C241.568 163.471 241.78 163.454 241.98 163.392C242.18 163.329 242.364 163.223 242.518 163.08C242.672 162.936 242.791 162.761 242.868 162.565C242.944 162.37 242.976 162.159 242.96 161.95C242.96 160.84 242.89 160.84 242.89 159.72C242.89 158.6 243.39 158.6 243.39 157.48C243.39 156.36 242.94 156.36 242.94 155.25C242.94 154.14 243.18 154.13 243.18 153.01C243.18 151.89 242.74 151.89 242.74 150.78C242.74 149.67 243.16 149.66 243.16 148.54C243.16 147.42 242.89 147.43 242.89 146.31C242.89 145.19 242.75 145.19 242.75 144.08C242.75 142.97 242.75 142.96 242.75 141.85C242.75 140.74 243.01 140.73 243.01 139.61C243.01 138.49 243.01 138.5 243.01 137.38C243.01 136.26 243.34 136.26 243.34 135.15C243.34 134.04 242.8 134.03 242.8 132.91C242.8 131.79 243.21 131.8 243.21 130.68C243.21 129.56 242.8 129.56 242.8 128.44C242.8 127.32 243.38 127.32 243.38 126.2C243.38 125.08 242.9 125.08 242.9 123.97C242.9 122.86 243.13 122.85 243.13 121.73C243.13 120.61 243.32 120.61 243.32 119.5C243.32 118.39 243.03 118.38 243.03 117.26C243.03 116.14 243.39 116.15 243.39 115.03C243.39 113.91 243.21 113.91 243.21 112.8C243.21 111.69 243.34 111.68 243.34 110.56V108.32C243.34 107.2 243.11 107.2 243.11 106.08C243.11 104.96 243.26 104.97 243.26 103.85C243.26 102.73 243.42 102.73 243.42 101.61C243.42 100.49 242.87 100.49 242.87 99.3801C242.87 98.2701 242.76 98.2601 242.76 97.1401C242.76 96.0201 243.15 96.02 243.15 94.91C243.15 93.8 243.21 93.79 243.21 92.67C243.21 91.55 243.13 91.55 243.13 90.43C243.13 89.31 243.38 89.31 243.38 88.19C243.38 87.07 243.04 87.07 243.04 85.96C243.04 84.85 243.04 84.84 243.04 83.72C243.04 82.6 243.04 82.6 243.04 81.48C243.04 80.36 242.9 80.36 242.9 79.25C242.9 78.14 243.45 78.1301 243.45 77.0101C243.45 75.8901 242.99 75.8901 242.99 74.7701C242.99 73.6501 242.84 73.65 242.84 72.53C242.84 71.41 243.42 71.41 243.42 70.29C243.42 69.17 243.03 69.18 243.03 68.06C243.03 66.94 243.43 66.94 243.43 65.82C243.43 64.7 243.15 64.7 243.15 63.58C243.15 62.46 243.03 62.46 243.03 61.34C243.03 60.22 242.73 60.22 242.73 59.1C242.73 57.98 242.86 57.98 242.86 56.86C242.86 55.74 242.74 55.74 242.74 54.63C242.74 53.52 243.06 53.51 243.06 52.39C243.06 51.27 242.97 51.27 242.97 50.15C242.97 49.03 242.97 49.03 242.97 47.91C242.97 46.79 243.03 46.8 243.03 45.68C243.03 44.56 243.14 44.56 243.14 43.44C243.14 42.32 243.21 42.32 243.21 41.2C243.21 40.08 243.14 40.08 243.14 38.97C243.14 37.86 242.89 37.85 242.89 36.73C242.89 35.61 243.22 35.61 243.22 34.49C243.22 33.37 243.33 33.37 243.33 32.25C243.33 31.13 243.4 31.13 243.4 30.01C243.4 28.89 243.15 28.89 243.15 27.77C243.15 26.65 243.15 26.65 243.15 25.53C243.15 24.41 243.23 24.41 243.23 23.29C243.23 22.17 243.32 22.17 243.32 21.05C243.32 19.93 242.91 19.93 242.91 18.81C242.91 17.69 243.14 17.69 243.14 16.57C243.14 15.45 242.72 15.45 242.72 14.33C242.72 13.21 242.95 13.21 242.95 12.09C242.95 10.97 242.95 10.97 242.95 9.85002C242.95 8.73002 243.32 8.72002 243.32 7.60002C243.32 6.48002 243.05 6.48003 243.05 5.36003C243.05 4.24003 243.05 4.24003 243.05 3.11003C243.05 1.98003 244.05 1.41998 243.28 0.61998C242.51 -0.18002 241.91 0.530015 240.79 0.530015C239.67 0.530015 239.67 1.14 238.55 1.14C237.43 1.14 237.43 0.670029 236.31 0.670029C235.19 0.670029 235.19 1.08 234.07 1.08C232.95 1.08 232.94 0.569993 231.82 0.569993C230.7 0.569993 230.7 0.569993 229.58 0.569993C228.46 0.569993 228.46 0.509995 227.34 0.509995C226.22 0.509995 226.21 1.11998 225.09 1.11998C223.97 1.11998 223.97 0.980027 222.85 0.980027C221.73 0.980027 221.73 0.62999 220.6 0.62999C219.47 0.62999 219.48 0.87999 218.36 0.87999C217.24 0.87999 217.24 0.520005 216.12 0.520005C215 0.520005 215 0.830002 213.88 0.830002C212.76 0.830002 212.75 0.89 211.63 0.89C210.51 0.89 210.51 0.999985 209.39 0.999985C208.27 0.999985 208.27 1.12999 207.15 1.12999C206.03 1.12999 206.03 0.670029 204.9 0.670029C203.77 0.670029 203.78 0.819993 202.66 0.819993C201.54 0.819993 201.54 0.730027 200.42 0.730027C199.3 0.730027 199.29 1.09001 198.17 1.09001C197.05 1.09001 197.05 1.01 195.93 1.01C194.81 1.01 194.81 1.01 193.68 1.01C192.55 1.01 192.56 0.679978 191.44 0.679978C190.32 0.679978 190.32 1.01 189.2 1.01C188.08 1.01 188.08 0.749985 186.96 0.749985H184.8C183.68 0.749985 183.68 0.590012 182.56 0.590012C181.44 0.590012 181.44 0.920029 180.32 0.920029C179.2 0.920029 179.2 0.749985 178.08 0.749985C176.96 0.749985 176.96 0.850022 175.84 0.850022C174.72 0.850022 174.72 0.710007 173.61 0.710007C172.5 0.710007 172.49 0.809983 171.37 0.809983C170.25 0.809983 170.25 0.90001 169.13 0.90001C168.01 0.90001 168.01 0.689988 166.89 0.689988C165.77 0.689988 165.77 0.61998 164.65 0.61998C163.53 0.61998 163.52 1.09001 162.4 1.09001C161.28 1.09001 161.28 1.15001 160.16 1.15001C159.04 1.15001 159.04 1.22002 157.91 1.22002C156.78 1.22002 156.79 0.929978 155.67 0.929978C154.55 0.929978 154.55 1.09001 153.43 1.09001C152.31 1.09001 152.3 0.61998 151.18 0.61998C150.06 0.61998 150.06 0.520005 148.94 0.520005C147.82 0.520005 147.82 1.18999 146.7 1.18999C145.58 1.18999 145.58 0.699998 144.46 0.699998C143.34 0.699998 143.34 0.699998 142.22 0.699998C141.1 0.699998 141.1 0.590012 139.98 0.590012C138.86 0.590012 138.86 0.759995 137.74 0.759995C136.62 0.759995 136.62 1.17998 135.5 1.17998C134.38 1.17998 134.38 1.17998 133.25 1.17998C132.12 1.17998 132.13 0.970017 131.01 0.970017C129.89 0.970017 129.89 0.790024 128.76 0.790024H126.52C125.4 0.790024 125.4 0.999985 124.27 0.999985H122.03C120.91 0.999985 120.91 0.749985 119.79 0.749985C118.67 0.749985 118.67 0.689988 117.55 0.689988H115.3C114.18 0.689988 114.18 0.929978 113.06 0.929978C111.94 0.929978 111.94 1.18999 110.82 1.18999C109.7 1.18999 109.69 1.18999 108.57 1.18999C107.45 1.18999 107.45 1.30003 106.32 1.30003C105.19 1.30003 105.2 0.759995 104.08 0.759995C102.96 0.759995 102.96 0.90001 101.83 0.90001C100.7 0.90001 100.71 1.05998 99.59 1.05998C98.47 1.05998 98.47 1.17998 97.35 1.17998C96.23 1.17998 96.23 0.939988 95.1 0.939988C93.97 0.939988 93.98 1.02 92.86 1.02C91.74 1.02 91.74 0.710007 90.61 0.710007C89.48 0.710007 89.4899 1.01 88.3699 1.01C87.2499 1.01 87.2399 0.699998 86.1199 0.699998C84.9999 0.699998 84.9999 1.08 83.8799 1.08C82.7599 1.08 82.7499 0.840012 81.6299 0.840012C80.5099 0.840012 80.5099 0.90001 79.3899 0.90001C78.2699 0.90001 78.2599 1.24004 77.1399 1.24004C76.0199 1.24004 76.0199 1.05003 74.8899 1.05003C73.7599 1.05003 73.7699 0.990037 72.6499 0.990037C71.5299 0.990037 71.5199 0.990037 70.3999 0.990037C69.2799 0.990037 69.2799 0.699998 68.1499 0.699998C67.0199 0.699998 67.03 0.999985 65.91 0.999985H63.66C62.54 0.999985 62.54 1.24004 61.41 1.24004C60.28 1.24004 60.29 0.939988 59.17 0.939988C58.05 0.939988 58.04 1.31999 56.92 1.31999C55.8 1.31999 55.8 1.31999 54.67 1.31999C53.54 1.31999 53.55 0.939988 52.43 0.939988C51.31 0.939988 51.3 0.780015 50.18 0.780015C49.06 0.780015 49.06 1.33 47.94 1.33C46.82 1.33 46.81 0.990037 45.69 0.990037H43.45C42.33 0.990037 42.33 0.759995 41.2 0.759995C40.07 0.759995 40.08 1.01 38.96 1.01C37.84 1.01 37.83 1.09001 36.71 1.09001C35.59 1.09001 35.59 0.860032 34.46 0.860032C33.33 0.860032 33.34 0.740037 32.22 0.740037C31.1 0.740037 31.09 0.86998 29.97 0.86998C28.85 0.86998 28.84 1.21001 27.72 1.21001C26.6 1.21001 26.6 0.949998 25.47 0.949998C24.34 0.949998 24.35 1.37999 23.22 1.37999C22.09 1.37999 22.1 1.30003 20.97 1.30003C19.84 1.30003 19.85 1.05998 18.72 1.05998H16.47C15.35 1.05998 15.35 1.05998 14.23 1.05998C13.11 1.05998 13.1 1.17998 11.98 1.17998C10.86 1.17998 10.85 1.17998 9.72997 1.17998C8.60997 1.17998 8.59997 0.929978 7.47997 0.929978C6.35997 0.929978 6.34996 1.04002 5.21996 1.04002C4.08996 1.04002 4.09996 1.48003 2.96996 1.48003C1.83996 1.48003 1.32995 0.180027 0.529954 0.980027C-0.270046 1.78003 0.409959 2.28001 0.409959 3.40001C0.409959 4.52001 0.499986 4.52 0.499986 5.64C0.499986 6.76 0.999986 6.74998 0.999986 7.86998C0.999986 8.98998 0.519944 8.99003 0.519944 10.11C0.519944 11.23 0.859971 11.22 0.859971 12.34C0.859971 13.46 0.409959 13.46 0.409959 14.57C0.409959 15.68 0.409959 15.69 0.409959 16.81C0.409959 17.93 1.03996 17.92 1.03996 19.04C1.03996 20.16 0.769944 20.16 0.769944 21.27C0.769944 22.38 0.359971 22.39 0.359971 23.5C0.359971 24.61 0.569993 24.62 0.569993 25.74C0.569993 26.86 0.739976 26.85 0.739976 27.97C0.739976 29.09 0.609971 29.09 0.609971 30.2C0.609971 31.31 0.929979 31.32 0.929979 32.44C0.929979 33.56 0.609971 33.56 0.609971 34.68C0.609971 35.8 0.669969 35.8 0.669969 36.92C0.669969 38.04 0.819993 38.03 0.819993 39.15C0.819993 40.27 0.349961 40.27 0.349961 41.39C0.349961 42.51 0.849961 42.5 0.849961 43.62C0.849961 44.74 0.789964 44.74 0.789964 45.85C0.789964 46.96 0.719957 46.97 0.719957 48.09C0.719957 49.21 0.539964 49.21 0.539964 50.32C0.539964 51.43 0.539964 51.44 0.539964 52.56C0.539964 53.68 1.01 53.68 1.01 54.79C1.01 55.9 0.629991 55.91 0.629991 57.03C0.629991 58.15 0.629991 58.15 0.629991 59.27C0.629991 60.39 0.569993 60.39 0.569993 61.51C0.569993 62.63 0.689988 62.62 0.689988 63.74C0.689988 64.86 0.479966 64.86 0.479966 65.98C0.479966 67.1 0.479966 67.1 0.479966 68.21C0.479966 69.32 0.709947 69.33 0.709947 70.45C0.709947 71.57 1.04997 71.57 1.04997 72.69C1.04997 73.81 0.479966 73.81 0.479966 74.93C0.479966 76.05 0.909959 76.04 0.909959 77.16C0.909959 78.28 0.839952 78.2799 0.839952 79.3999C0.839952 80.5199 0.649949 80.5201 0.649949 81.6401C0.649949 82.7601 0.769944 82.75 0.769944 83.87C0.769944 84.99 0.830003 84.99 0.830003 86.11C0.830003 87.23 0.779954 87.23 0.779954 88.35C0.779954 89.47 0.529954 89.47 0.529954 90.59C0.529954 91.71 0.379991 91.71 0.379991 92.82C0.379991 93.93 0.709947 93.94 0.709947 95.06C0.709947 96.18 0.409959 96.18 0.409959 97.3C0.409959 98.42 0.649949 98.42 0.649949 99.54C0.649949 100.66 0.999986 100.66 0.999986 101.78C0.999986 102.9 0.589952 102.9 0.589952 104.02C0.589952 105.14 0.339952 105.14 0.339952 106.25C0.339952 107.36 0.569993 107.37 0.569993 108.49C0.569993 109.61 0.939988 109.61 0.939988 110.73C0.939988 111.85 0.689988 111.85 0.689988 112.97C0.689988 114.09 0.349961 114.09 0.349961 115.21C0.349961 116.33 1.03996 116.32 1.03996 117.44C1.03996 118.56 0.459947 118.56 0.459947 119.68C0.459947 120.8 1.04997 120.79 1.04997 121.91C1.04997 123.03 0.409959 123.03 0.409959 124.15C0.409959 125.27 0.830003 125.27 0.830003 126.39C0.830003 127.51 1.05998 127.51 1.05998 128.63C1.05998 129.75 1.05998 129.75 1.05998 130.87C1.05998 131.99 0.359971 131.99 0.359971 133.11C0.359971 134.23 0.949998 134.23 0.949998 135.35C0.949998 136.47 0.729966 136.47 0.729966 137.59C0.729966 138.71 1.02995 138.71 1.02995 139.83C1.02995 140.95 0.649949 140.95 0.649949 142.07C0.649949 143.19 0.919969 143.19 0.919969 144.31C0.919969 145.43 0.919969 145.43 0.919969 146.55C0.919969 147.67 0.580003 147.67 0.580003 148.79C0.580003 149.91 0.409959 149.91 0.409959 151.03C0.409959 152.15 1.01994 152.15 1.01994 153.27C1.01994 154.39 1.09996 154.39 1.09996 155.52C1.09996 156.65 0.379991 156.64 0.379991 157.76C0.379991 158.88 1.05999 158.9 0.999986 160.02C0.939986 161.14 0.549974 160.77 0.549974 161.89Z" fill="#8E7167"/>
<path d="M249.88 162.15C249.901 162.382 249.968 162.608 250.078 162.815C250.187 163.021 250.336 163.203 250.517 163.351C250.698 163.499 250.906 163.61 251.129 163.677C251.353 163.743 251.588 163.765 251.82 163.74C252.54 163.62 253.27 163.53 253.98 163.37C254.69 163.21 255.4 163.02 256.1 162.82C256.8 162.62 257.38 162.04 258.1 161.82C258.82 161.6 259.56 161.59 260.23 161.31C260.9 161.03 261.67 160.91 262.31 160.59C262.95 160.27 263.66 159.95 264.31 159.59C264.96 159.23 265.31 158.37 265.86 157.96C266.41 157.55 267.03 156.96 267.67 156.62C268.31 156.28 269.11 156.12 269.77 155.79C270.43 155.46 271.23 155.44 271.92 155.15C272.61 154.86 273.23 154.46 273.92 154.22C274.61 153.98 275.24 153.46 275.92 153.22C276.6 152.98 277.37 152.86 278.1 152.7C278.83 152.54 279.58 152.52 280.32 152.4C281.06 152.28 281.77 151.96 282.51 151.88C283.25 151.8 284.03 152.25 284.77 152.21C285.51 152.17 286.24 152.34 286.99 152.34C287.74 152.34 288.48 151.83 289.22 151.87C289.96 151.91 290.68 152.26 291.42 152.34C292.16 152.42 292.86 152.69 293.6 152.8C294.34 152.91 295.14 152.62 295.86 152.8C296.58 152.98 297.2 153.56 297.86 153.8C298.52 154.04 299.47 153.65 300.17 153.89C300.87 154.13 301.48 154.66 302.17 154.95C302.86 155.24 303.48 155.65 304.17 155.95C304.86 156.25 305.47 156.67 306.1 157.04C306.73 157.41 307.5 157.61 308.1 158.04C308.7 158.47 309.24 159.04 309.88 159.38C310.52 159.72 311.35 159.77 312.01 160.1C312.67 160.43 313.3 160.8 314.01 161.1C314.72 161.4 315.26 161.98 316.01 162.22C316.76 162.46 317.38 162.87 318.09 163.07C318.8 163.27 319.61 163.16 320.34 163.32C321.07 163.48 321.83 163.32 322.57 163.47C323.31 163.62 323.99 164.03 324.73 164.11C325.47 164.19 326.2 164.37 326.95 164.4C327.7 164.43 328.44 164.52 329.18 164.52C329.92 164.52 330.67 164.12 331.41 164.08C332.15 164.04 332.89 164.02 333.63 163.94C334.37 163.86 335.13 163.94 335.86 163.86C336.59 163.78 337.27 163.3 338 163.15C338.73 163 339.52 163.1 340.23 162.9C340.94 162.7 341.57 162.19 342.23 161.9C342.89 161.61 343.55 161.24 344.23 160.96C344.91 160.68 345.74 160.7 346.4 160.37C347.06 160.04 347.78 159.77 348.4 159.37C349.02 158.97 349.78 158.72 350.4 158.3C351.02 157.88 351.48 157.3 352.12 156.88C352.76 156.46 353.33 156.01 354 155.68C354.67 155.35 355.35 155.05 356 154.77C356.65 154.49 357.39 154.25 358.1 154C358.81 153.75 359.45 153.33 360.17 153.13C360.89 152.93 361.75 153.35 362.48 153.2C363.21 153.05 363.91 152.9 364.65 152.79C365.39 152.68 366.06 152.17 366.8 152.09C367.54 152.01 368.27 151.78 369.01 151.74C369.75 151.7 370.51 151.63 371.25 151.63C371.99 151.63 372.73 152.04 373.47 152.08C374.21 152.12 374.99 151.87 375.72 151.95C376.45 152.03 377.23 152.02 377.96 152.14C378.69 152.26 379.33 152.94 380.05 153.14C380.77 153.34 381.49 153.46 382.2 153.66C382.91 153.86 383.78 153.59 384.48 153.83C385.18 154.07 385.89 154.36 386.58 154.64C387.27 154.92 387.67 155.82 388.33 156.15C388.99 156.48 389.92 156.33 390.56 156.71C391.2 157.09 391.82 157.52 392.42 157.94C393.02 158.36 393.53 158.94 394.17 159.33C394.81 159.72 395.57 159.85 396.23 160.18C396.89 160.51 397.57 160.79 398.23 161.08C398.89 161.37 399.42 162.08 400.13 162.35C400.84 162.62 401.62 162.6 402.33 162.8C403.04 163 403.75 163.27 404.48 163.43C405.21 163.59 405.98 163.43 406.72 163.6C407.46 163.77 408.21 163.6 408.94 163.6C409.67 163.6 410.39 164.07 411.13 164.1C411.87 164.13 412.62 163.9 413.36 163.9C414.1 163.9 414.84 164.03 415.58 164C416.32 163.97 417.07 164 417.81 163.9C418.55 163.8 419.23 163.42 419.97 163.31C420.71 163.2 421.54 163.63 422.26 163.47C422.98 163.31 423.63 162.8 424.35 162.6C425.07 162.4 425.68 161.93 426.35 161.69C427.02 161.45 427.73 161.19 428.41 160.91C429.09 160.63 429.92 160.64 430.58 160.32C431.24 160 432.01 159.82 432.65 159.44C433.29 159.06 433.65 158.32 434.31 157.9C434.97 157.48 435.58 157.13 436.22 156.75C436.86 156.37 437.57 156.13 438.22 155.8C438.87 155.47 439.47 154.97 440.16 154.68C440.85 154.39 441.6 154.28 442.31 154.04C443.02 153.8 443.76 153.72 444.47 153.52C445.18 153.32 445.86 152.94 446.59 152.78C447.32 152.62 448.12 152.94 448.85 152.78C449.58 152.62 450.27 152.25 451 152.17C451.73 152.09 452.47 151.88 453.21 151.84C453.95 151.8 454.7 151.58 455.45 151.58C456.2 151.58 456.95 151.65 457.69 151.69C458.43 151.73 459.15 152.16 459.88 152.23C460.61 152.3 461.38 152.23 462.12 152.33C462.86 152.43 463.49 153.03 464.21 153.18C464.93 153.33 465.77 153.07 466.48 153.27C467.19 153.47 467.91 153.69 468.61 153.93C469.31 154.17 469.87 154.79 470.56 155.07C471.25 155.35 472.04 155.38 472.7 155.71C473.36 156.04 474.13 156.21 474.77 156.58C475.41 156.95 475.86 157.65 476.47 158.07C477.08 158.49 477.69 158.86 478.32 159.23C478.95 159.6 479.51 160.1 480.17 160.43C480.83 160.76 481.53 160.96 482.17 161.25C482.81 161.54 483.63 161.49 484.32 161.73C485.01 161.97 485.7 162.15 486.4 162.35C487.1 162.55 487.69 163.18 488.4 163.35C489.11 163.52 489.9 163.27 490.62 163.35C491.53 163.5 492.62 162.93 492.62 162.01C492.62 160.9 492.56 160.9 492.56 159.78C492.56 158.66 492.12 158.66 492.12 157.54C492.12 156.42 492.58 156.42 492.58 155.31C492.58 154.2 492.58 154.19 492.58 153.07C492.58 151.95 492.35 151.95 492.35 150.84C492.35 149.73 492.35 149.72 492.35 148.6C492.35 147.48 492.64 147.49 492.64 146.37C492.64 145.25 492.64 145.25 492.64 144.14C492.64 143.03 492.2 143.02 492.2 141.91C492.2 140.8 491.96 140.79 491.96 139.67C491.96 138.55 492.55 138.56 492.55 137.44C492.55 136.32 492.25 136.32 492.25 135.21C492.25 134.1 492.09 134.09 492.09 132.97C492.09 131.85 492.09 131.86 492.09 130.74C492.09 129.62 492.24 129.62 492.24 128.5C492.24 127.38 492.49 127.38 492.49 126.26C492.49 125.14 492.49 125.14 492.49 124.03C492.49 122.92 492.16 122.91 492.16 121.79C492.16 120.67 492.22 120.68 492.22 119.56C492.22 118.44 492.09 118.44 492.09 117.32C492.09 116.2 492.74 116.21 492.74 115.09C492.74 113.97 492.43 113.97 492.43 112.86C492.43 111.75 492.17 111.74 492.17 110.62C492.17 109.5 492.51 109.5 492.51 108.38C492.51 107.26 492.71 107.26 492.71 106.14C492.71 105.02 492.13 105.03 492.13 103.91C492.13 102.79 492.25 102.79 492.25 101.67C492.25 100.55 492.25 100.55 492.25 99.44C492.25 98.33 492.1 98.32 492.1 97.2C492.1 96.08 492.64 96.08 492.64 94.97C492.64 93.86 492.03 93.85 492.03 92.73C492.03 91.61 492.35 91.6101 492.35 90.4901C492.35 89.3701 492.2 89.3701 492.2 88.2501C492.2 87.1301 492.04 87.1301 492.04 86.0201C492.04 84.9101 492.59 84.9 492.59 83.78C492.59 82.66 492.59 82.66 492.59 81.54C492.59 80.42 492.23 80.42 492.23 79.31C492.23 78.2 492.66 78.19 492.66 77.07C492.66 75.95 491.96 75.95 491.96 74.83C491.96 73.71 492.41 73.71 492.41 72.59C492.41 71.47 492.56 71.47 492.56 70.35C492.56 69.23 491.94 69.24 491.94 68.12C491.94 67 492.62 67 492.62 65.88C492.62 64.76 492.51 64.76 492.51 63.64C492.51 62.52 492.41 62.52 492.41 61.4C492.41 60.28 492.09 60.28 492.09 59.16C492.09 58.04 492.22 58.04 492.22 56.92C492.22 55.8 492.34 55.8 492.34 54.69C492.34 53.58 492.5 53.57 492.5 52.45C492.5 51.33 492.66 51.33 492.66 50.21C492.66 49.09 492.08 49.09 492.08 47.97C492.08 46.85 492.18 46.8601 492.18 45.7401C492.18 44.6201 492.58 44.62 492.58 43.5C492.58 42.38 492.5 42.38 492.5 41.26C492.5 40.14 491.97 40.14 491.97 39.03C491.97 37.92 492.18 37.91 492.18 36.79C492.18 35.67 492.18 35.67 492.18 34.55C492.18 33.43 492.62 33.43 492.62 32.31C492.62 31.19 492.52 31.19 492.52 30.07V27.83C492.52 26.71 492.33 26.71 492.33 25.59C492.33 24.47 492.09 24.47 492.09 23.35C492.09 22.23 492.45 22.23 492.45 21.11C492.45 19.99 492.37 19.99 492.37 18.87C492.37 17.75 492.1 17.75 492.1 16.63C492.1 15.51 492.1 15.51 492.1 14.39C492.1 13.27 492.1 13.27 492.1 12.15C492.1 11.03 492.58 11.03 492.58 9.91003C492.58 8.79003 492.67 8.78003 492.67 7.66003C492.67 6.54003 492.19 6.54004 492.19 5.42004C492.19 4.30004 492 4.30004 492 3.17004C492 2.04004 493.23 1.64004 492.43 0.850037C491.63 0.0600368 491.23 0.790039 490.11 0.790039C488.99 0.790039 488.99 0.970032 487.87 0.970032H485.63C484.51 0.970032 484.51 0.970032 483.39 0.970032C482.27 0.970032 482.27 0.600037 481.14 0.600037C480.01 0.600037 480.02 0.820008 478.9 0.820008C477.78 0.820008 477.78 0.630005 476.66 0.630005C475.54 0.630005 475.53 0.860047 474.41 0.860047C473.29 0.860047 473.29 0.650025 472.17 0.650025C471.05 0.650025 471.05 1 469.92 1C468.79 1 468.8 0.720032 467.68 0.720032C466.56 0.720032 466.56 0.720032 465.44 0.720032C464.32 0.720032 464.32 0.790039 463.2 0.790039C462.08 0.790039 462.07 1.20001 460.95 1.20001H458.71C457.59 1.20001 457.59 0.690003 456.47 0.690003C455.35 0.690003 455.35 1.27002 454.22 1.27002C453.09 1.27002 453.1 0.840027 451.98 0.840027C450.86 0.840027 450.86 0.640015 449.74 0.640015C448.62 0.640015 448.61 1.27002 447.49 1.27002C446.37 1.27002 446.37 1.20001 445.25 1.20001C444.13 1.20001 444.13 1.12 443 1.12H440.76C439.64 1.12 439.64 0.610047 438.52 0.610047H436.28C435.16 0.610047 435.16 1.06 434.04 1.06C432.92 1.06 432.92 0.720032 431.8 0.720032H429.56C428.44 0.720032 428.44 0.929993 427.32 0.929993C426.2 0.929993 426.2 1.15002 425.08 1.15002C423.96 1.15002 423.96 1.02002 422.85 1.02002C421.74 1.02002 421.73 1.07001 420.61 1.07001C419.49 1.07001 419.49 1.14001 418.37 1.14001C417.25 1.14001 417.25 0.980042 416.13 0.980042C415.01 0.980042 415.01 1.17004 413.89 1.17004C412.77 1.17004 412.76 0.75 411.64 0.75C410.52 0.75 410.52 0.900025 409.4 0.900025C408.28 0.900025 408.28 1.16003 407.15 1.16003C406.02 1.16003 406.03 0.950012 404.91 0.950012C403.79 0.950012 403.79 1.13001 402.67 1.13001C401.55 1.13001 401.55 0.690003 400.42 0.690003C399.29 0.690003 399.3 1.07001 398.18 1.07001C397.06 1.07001 397.06 1.07001 395.94 1.07001C394.82 1.07001 394.82 1.17999 393.7 1.17999C392.58 1.17999 392.58 1.17999 391.46 1.17999C390.34 1.17999 390.34 1 389.22 1C388.1 1 388.1 1.19 386.98 1.19C385.86 1.19 385.86 0.75 384.74 0.75C383.62 0.75 383.62 0.850037 382.49 0.850037C381.36 0.850037 381.37 1.24005 380.25 1.24005C379.13 1.24005 379.13 0.960022 378 0.960022C376.87 0.960022 376.88 0.800049 375.76 0.800049C374.64 0.800049 374.64 0.970032 373.51 0.970032C372.38 0.970032 372.39 1.07001 371.27 1.07001C370.15 1.07001 370.15 1.12 369.03 1.12C367.91 1.12 367.91 0.550049 366.79 0.550049C365.67 0.550049 365.67 1.10004 364.54 1.10004C363.41 1.10004 363.42 0.619995 362.3 0.619995C361.18 0.619995 361.18 0.869995 360.06 0.869995C358.94 0.869995 358.93 0.619995 357.81 0.619995C356.69 0.619995 356.69 0.550049 355.57 0.550049C354.45 0.550049 354.44 1.09003 353.32 1.09003C352.2 1.09003 352.2 0.590027 351.08 0.590027C349.96 0.590027 349.95 1 348.83 1C347.71 1 347.71 0.660034 346.59 0.660034C345.47 0.660034 345.47 1.10004 344.34 1.10004C343.21 1.10004 343.22 0.840027 342.1 0.840027C340.98 0.840027 340.98 1.14001 339.85 1.14001C338.72 1.14001 338.73 0.790039 337.61 0.790039C336.49 0.790039 336.48 1.01001 335.36 1.01001C334.24 1.01001 334.24 1.17999 333.12 1.17999C332 1.17999 331.99 0.910034 330.87 0.910034C329.75 0.910034 329.75 0.780029 328.63 0.780029C327.51 0.780029 327.5 0.610047 326.38 0.610047C325.26 0.610047 325.26 0.710022 324.13 0.710022C323 0.710022 323.01 0.800049 321.89 0.800049C320.77 0.800049 320.76 0.600037 319.64 0.600037C318.52 0.600037 318.52 0.970032 317.4 0.970032C316.28 0.970032 316.27 0.809998 315.15 0.809998H312.9C311.78 0.809998 311.78 0.530029 310.65 0.530029C309.52 0.530029 309.53 0.76001 308.41 0.76001C307.29 0.76001 307.28 0.950012 306.16 0.950012C305.04 0.950012 305.04 0.850037 303.91 0.850037C302.78 0.850037 302.79 0.640015 301.67 0.640015C300.55 0.640015 300.54 0.720032 299.42 0.720032H297.18C296.05 0.720032 296.05 0.580017 294.93 0.580017C293.81 0.580017 293.81 1.21002 292.69 1.21002C291.57 1.21002 291.57 0.880005 290.44 0.880005C289.31 0.880005 289.32 0.960022 288.2 0.960022C287.08 0.960022 287.07 0.850037 285.95 0.850037C284.83 0.850037 284.83 1.05005 283.7 1.05005C282.57 1.05005 282.58 1.24005 281.46 1.24005C280.34 1.24005 280.33 1.09003 279.21 1.09003C278.09 1.09003 278.08 0.910034 276.96 0.910034H274.8C273.68 0.910034 273.68 0.720032 272.55 0.720032C271.42 0.720032 271.43 0.869995 270.3 0.869995C269.17 0.869995 269.18 0.929993 268.05 0.929993C266.92 0.929993 266.93 1.01001 265.8 1.01001C264.67 1.01001 264.68 0.690003 263.56 0.690003C262.44 0.690003 262.43 0.850037 261.31 0.850037C260.19 0.850037 260.18 1.13001 259.06 1.13001C257.94 1.13001 257.93 0.590027 256.81 0.590027C255.69 0.590027 255.68 0.590027 254.55 0.590027C253.42 0.590027 253.43 0.860047 252.3 0.860047C251.17 0.860047 251 0.280007 250.2 1.07001C249.4 1.86001 250.12 2.07002 250.12 3.15002C250.12 4.23002 249.81 4.27001 249.81 5.39001C249.81 6.51001 250.04 6.5 250.04 7.62C250.04 8.74 250.04 8.74005 250.04 9.86005C250.04 10.98 250.14 10.97 250.14 12.09C250.14 13.21 250.33 13.21 250.33 14.32C250.33 15.43 249.88 15.44 249.88 16.56C249.88 17.68 249.93 17.67 249.93 18.79C249.93 19.91 250.06 19.91 250.06 21.02C250.06 22.13 249.89 22.14 249.89 23.25C249.89 24.36 250.15 24.3701 250.15 25.4901C250.15 26.6101 250.08 26.6 250.08 27.72C250.08 28.84 249.95 28.84 249.95 29.96C249.95 31.08 250.23 31.07 250.23 32.19C250.23 33.31 250.23 33.31 250.23 34.43C250.23 35.55 250.23 35.55 250.23 36.67C250.23 37.79 249.75 37.78 249.75 38.9C249.75 40.02 249.75 40.02 249.75 41.14C249.75 42.26 250.24 42.25 250.24 43.37C250.24 44.49 249.85 44.49 249.85 45.6C249.85 46.71 250.32 46.72 250.32 47.84C250.32 48.96 250.32 48.96 250.32 50.07C250.32 51.18 249.92 51.19 249.92 52.31C249.92 53.43 250.14 53.43 250.14 54.55V56.78C250.14 57.9 249.82 57.9 249.82 59.02C249.82 60.14 249.82 60.14 249.82 61.26C249.82 62.38 250.02 62.3701 250.02 63.4901C250.02 64.6101 250.33 64.61 250.33 65.73C250.33 66.85 250.11 66.85 250.11 67.96C250.11 69.07 249.77 69.08 249.77 70.2C249.77 71.32 249.99 71.32 249.99 72.44C249.99 73.56 250.3 73.56 250.3 74.68C250.3 75.8 249.95 75.79 249.95 76.91C249.95 78.03 249.95 78.03 249.95 79.15C249.95 80.27 250.02 80.2701 250.02 81.3901C250.02 82.5101 250.02 82.5001 250.02 83.6201C250.02 84.7401 249.76 84.74 249.76 85.86C249.76 86.98 249.9 86.98 249.9 88.1C249.9 89.22 250.09 89.22 250.09 90.34C250.09 91.46 249.98 91.46 249.98 92.57C249.98 93.68 249.91 93.69 249.91 94.81C249.91 95.93 249.98 95.93 249.98 97.05C249.98 98.17 250.14 98.17 250.14 99.29C250.14 100.41 249.78 100.41 249.78 101.53C249.78 102.65 249.69 102.65 249.69 103.77C249.69 104.89 250.05 104.89 250.05 106.01C250.05 107.13 249.68 107.12 249.68 108.24C249.68 109.36 249.98 109.36 249.98 110.48C249.98 111.6 249.98 111.6 249.98 112.72C249.98 113.84 249.8 113.84 249.8 114.96C249.8 116.08 250.07 116.07 250.07 117.19C250.07 118.31 250.01 118.31 250.01 119.43C250.01 120.55 250.25 120.54 250.25 121.66C250.25 122.78 250.38 122.78 250.38 123.9C250.38 125.02 250.31 125.02 250.31 126.14C250.31 127.26 250.02 127.26 250.02 128.38C250.02 129.5 249.66 129.5 249.66 130.62C249.66 131.74 249.66 131.74 249.66 132.86C249.66 133.98 250.34 133.98 250.34 135.1C250.34 136.22 249.92 136.22 249.92 137.34C249.92 138.46 250.25 138.46 250.25 139.58C250.25 140.7 250.12 140.7 250.12 141.82C250.12 142.94 250.22 142.94 250.22 144.06C250.22 145.18 250.29 145.18 250.29 146.3C250.29 147.42 250.16 147.42 250.16 148.54C250.16 149.66 249.64 149.66 249.64 150.78C249.64 151.9 250.32 151.9 250.32 153.02C250.32 154.14 250.24 154.14 250.24 155.27C250.24 156.4 250.02 156.39 250.02 157.51C250.02 158.63 250.22 158.64 250.16 159.77C250.1 160.9 249.88 161.03 249.88 162.15Z" fill="#8E7167"/>
<path d="M444.98 52.96C445.25 54.17 445.36 54.15 445.64 55.36C445.92 56.57 445.25 56.9 446.04 57.87C446.83 58.84 447.19 58.44 448.32 58.95C449.45 59.46 449.57 59.2 450.71 59.71C450.905 59.7945 451.071 59.9342 451.188 60.1119C451.304 60.2896 451.366 60.4975 451.366 60.71C451.366 60.9225 451.304 61.1304 451.188 61.3081C451.071 61.4857 450.905 61.6254 450.71 61.71C449.64 62.34 449.71 62.38 448.6 63.02C447.49 63.66 447.07 63.27 446.4 64.32C445.73 65.37 446.55 65.65 446.4 66.89C446.25 68.13 446.14 68.11 446 69.35C445.975 69.5509 445.895 69.7411 445.769 69.8994C445.643 70.0578 445.475 70.1782 445.285 70.2475C445.095 70.3167 444.889 70.3322 444.69 70.292C444.492 70.2519 444.308 70.1578 444.16 70.0201C443.22 69.2001 443.16 69.3 442.16 68.48C441.16 67.66 441.57 67.02 440.37 66.71C439.17 66.4 439.13 67 437.91 67.26C436.69 67.52 436.7 67.54 435.48 67.8C435.283 67.8656 435.07 67.8681 434.871 67.807C434.672 67.746 434.497 67.6245 434.371 67.4595C434.244 67.2945 434.172 67.0941 434.165 66.8863C434.158 66.6784 434.215 66.4735 434.33 66.3C434.82 65.16 434.76 65.13 435.25 63.99C435.74 62.85 436.25 62.94 436.25 61.69C436.25 60.44 435.62 60.62 435 59.54C434.38 58.46 434.4 58.45 433.79 57.37C433.689 57.1965 433.635 56.9991 433.636 56.7982C433.636 56.5972 433.69 56.4 433.792 56.2268C433.893 56.0536 434.04 55.9107 434.215 55.8128C434.391 55.715 434.589 55.6657 434.79 55.67C436.03 55.79 436.04 55.72 437.28 55.83C438.52 55.94 438.6 56.67 439.76 56.22C440.92 55.77 440.59 55.28 441.43 54.35C442.27 53.42 442.29 53.46 443.13 52.53C443.239 52.3503 443.403 52.2097 443.597 52.1282C443.791 52.0467 444.006 52.0285 444.211 52.0761C444.415 52.1238 444.6 52.2348 444.738 52.3935C444.876 52.5522 444.961 52.7504 444.98 52.96Z" fill="#A58983"/>
<path d="M432.04 99.46C432.58 100.14 432.57 100.15 433.11 100.83C433.65 101.51 433.44 101.77 434.23 102.14C435.02 102.51 435.08 102.14 435.95 102.14H437.69C437.832 102.134 437.973 102.168 438.098 102.237C438.222 102.307 438.325 102.41 438.394 102.534C438.463 102.658 438.497 102.8 438.491 102.942C438.485 103.084 438.44 103.222 438.36 103.34C437.88 104.07 437.93 104.1 437.45 104.83C436.97 105.56 436.55 105.38 436.45 106.25C436.35 107.12 436.84 107.03 437.13 107.85C437.42 108.67 437.35 108.7 437.65 109.52C437.692 109.663 437.697 109.815 437.663 109.96C437.63 110.106 437.56 110.241 437.459 110.351C437.359 110.462 437.232 110.544 437.09 110.591C436.948 110.639 436.797 110.648 436.65 110.62C435.81 110.38 435.82 110.31 434.98 110.08C434.14 109.85 434.15 109.38 433.3 109.55C432.45 109.72 432.66 110.2 431.97 110.73C431.28 111.26 431.27 111.24 430.58 111.73C430.462 111.814 430.324 111.865 430.18 111.878C430.036 111.891 429.891 111.865 429.76 111.803C429.629 111.74 429.518 111.644 429.437 111.524C429.356 111.404 429.309 111.265 429.3 111.12C429.3 110.25 429.3 110.25 429.23 109.38C429.16 108.51 429.52 108.38 429.1 107.66C428.68 106.94 428.39 107.21 427.66 106.66C426.93 106.11 427.04 106.03 426.32 105.54C426.199 105.47 426.101 105.368 426.036 105.245C425.97 105.122 425.942 104.983 425.952 104.844C425.962 104.705 426.012 104.571 426.095 104.459C426.177 104.347 426.29 104.261 426.42 104.21C427.23 103.91 427.25 103.96 428.07 103.65C428.89 103.34 429.13 103.65 429.73 103.06C430.33 102.47 429.89 102.18 430.14 101.34C430.39 100.5 430.55 100.56 430.79 99.72C430.815 99.5855 430.88 99.4614 430.975 99.3636C431.071 99.2658 431.194 99.1987 431.328 99.1708C431.462 99.143 431.601 99.1556 431.728 99.2071C431.855 99.2586 431.963 99.3466 432.04 99.46Z" fill="#7F5C51"/>
<path d="M459.26 75.2899C459.85 76.1399 459.8 76.1799 460.39 77.0299C460.98 77.8799 461.29 77.67 461.88 78.52C462.47 79.37 461.97 79.89 462.88 80.39C463.79 80.89 463.95 80.1699 464.99 80.2099C466.03 80.2499 465.99 80.6199 467.06 80.6499C468.13 80.6799 468.06 80.3899 469.14 80.4199C469.413 80.452 469.673 80.5522 469.897 80.7111C470.121 80.8701 470.302 81.0827 470.422 81.3296C470.543 81.5764 470.599 81.8496 470.587 82.124C470.574 82.3984 470.493 82.6651 470.35 82.8999C469.72 83.7299 469.6 83.6399 468.97 84.4699C468.34 85.2999 468.39 85.3299 467.76 86.1599C467.13 86.9899 466.69 86.74 466.49 87.76C466.29 88.78 466.62 88.76 466.91 89.76C467.2 90.76 467.38 90.76 467.67 91.76C467.96 92.76 467.67 92.8399 467.93 93.8399C468.026 94.0629 468.053 94.3093 468.009 94.5479C467.965 94.7866 467.852 95.007 467.683 95.1812C467.514 95.3555 467.297 95.4758 467.06 95.5272C466.823 95.5786 466.576 95.5587 466.35 95.4699C465.35 95.1299 465.35 95.0499 464.42 94.6999C463.49 94.3499 463.42 94.3199 462.47 93.9699C461.52 93.6199 461.47 93.3899 460.47 93.5299C459.47 93.6699 459.7 94.17 458.84 94.75C457.98 95.33 457.9 95.2 457.03 95.75C456.16 96.3 456.19 96.3599 455.33 96.9399C455.098 97.0769 454.835 97.1524 454.566 97.1591C454.296 97.1659 454.03 97.1037 453.791 96.9785C453.553 96.8532 453.351 96.6691 453.203 96.4436C453.056 96.218 452.969 95.9586 452.95 95.6899C452.95 94.6899 452.95 94.69 452.95 93.62C452.95 92.55 453.16 92.6199 453.18 91.5399C453.2 90.4599 453.81 90.3399 453.37 89.3999C452.93 88.4599 452.37 88.88 451.55 88.24C450.73 87.6 450.63 87.7199 449.82 87.0799C449.01 86.4399 449.13 86.27 448.31 85.63C448.113 85.4778 447.963 85.2734 447.876 85.0401C447.79 84.8068 447.77 84.554 447.82 84.3103C447.87 84.0665 447.988 83.8417 448.159 83.6613C448.331 83.481 448.549 83.3522 448.79 83.2899C449.79 82.9899 449.71 82.7299 450.7 82.4299C451.69 82.1299 451.81 82.5199 452.81 82.2199C453.81 81.9199 453.88 82.0199 454.64 81.2999C455.4 80.5799 455.22 80.48 455.58 79.5C455.94 78.52 455.92 78.5 456.28 77.5C456.64 76.5 456.57 76.5 456.92 75.5C456.995 75.2594 457.139 75.0465 457.335 74.8881C457.53 74.7298 457.769 74.6333 458.02 74.6108C458.27 74.5883 458.522 74.6408 458.743 74.7617C458.964 74.8826 459.144 75.0665 459.26 75.2899Z" fill="#7F5C51"/>
<path d="M274.61 126.06L276.61 124.63C277.61 123.92 278.06 124.34 278.61 123.24C279.16 122.14 278.56 122.02 278.61 120.77C278.66 119.52 278.84 119.54 278.88 118.29C278.88 118.1 278.934 117.913 279.035 117.753C279.137 117.592 279.283 117.464 279.455 117.383C279.627 117.302 279.819 117.272 280.007 117.296C280.196 117.321 280.374 117.398 280.52 117.52C281.52 118.26 281.66 118.07 282.66 118.82C283.66 119.57 283.34 120.2 284.57 120.42C285.8 120.64 285.75 120.06 286.95 119.71C288.15 119.36 288.2 119.54 289.39 119.19C289.557 119.115 289.744 119.093 289.924 119.129C290.104 119.164 290.269 119.254 290.396 119.386C290.523 119.519 290.606 119.687 290.634 119.869C290.661 120.05 290.632 120.236 290.55 120.4C290.15 121.58 290.17 121.59 289.77 122.76C289.37 123.93 288.87 123.93 289.04 125.17C289.21 126.41 289.74 126.17 290.44 127.25C291.14 128.33 291.32 128.16 292.02 129.19C292.126 129.387 292.183 129.607 292.184 129.831C292.185 130.055 292.13 130.276 292.025 130.474C291.92 130.671 291.768 130.84 291.582 130.965C291.397 131.09 291.183 131.167 290.96 131.19C289.72 131.19 289.72 131.19 288.47 131.13C287.22 131.07 287.17 130.53 286.05 131.07C284.93 131.61 285.21 131.91 284.44 132.89C283.67 133.87 283.8 133.97 283.04 134.95C282.906 135.104 282.732 135.218 282.537 135.281C282.343 135.343 282.135 135.351 281.936 135.304C281.737 135.256 281.555 135.155 281.409 135.012C281.264 134.869 281.16 134.688 281.11 134.49C280.74 133.3 280.64 133.33 280.28 132.14C279.92 130.95 280.38 130.69 279.52 129.79C278.66 128.89 278.35 129.4 277.18 128.98C276.01 128.56 276.04 128.46 274.87 128.04C274.678 127.968 274.508 127.845 274.38 127.685C274.253 127.524 274.171 127.332 274.144 127.128C274.117 126.925 274.147 126.718 274.229 126.529C274.311 126.341 274.443 126.179 274.61 126.06Z" fill="#A58983"/>
<path d="M207.33 48.21C207.6 49.42 207.63 49.4199 207.9 50.6299C208.17 51.8399 207.72 52.13 208.5 53.09C209.28 54.05 209.74 53.48 210.87 53.99C212 54.5 211.96 54.6199 213.09 55.1299C213.288 55.2023 213.461 55.3293 213.589 55.4963C213.717 55.6632 213.795 55.8632 213.814 56.0729C213.833 56.2825 213.792 56.4932 213.695 56.6804C213.599 56.8676 213.452 57.0235 213.27 57.1299L211.12 58.3899C210.05 59.0299 209.56 58.5199 208.89 59.5699C208.22 60.6199 208.82 60.85 208.69 62.09C208.56 63.33 208.4 63.31 208.27 64.54C208.279 64.742 208.227 64.9421 208.121 65.114C208.014 65.2859 207.858 65.4214 207.673 65.5027C207.488 65.5839 207.282 65.6071 207.083 65.5691C206.885 65.5311 206.702 65.4338 206.56 65.29C205.63 64.46 205.56 64.56 204.56 63.73C203.56 62.9 204.03 62.16 202.83 61.84C201.63 61.52 201.54 62.08 200.32 62.34C199.1 62.6 199.11 62.6299 197.89 62.8799C197.692 62.9329 197.483 62.9309 197.286 62.8743C197.089 62.8176 196.911 62.7085 196.771 62.5585C196.632 62.4085 196.535 62.2233 196.493 62.0227C196.45 61.8221 196.463 61.6138 196.53 61.42C197.03 60.27 197.31 60.4199 197.8 59.2499C198.29 58.0799 198.7 58.15 198.63 56.91C198.56 55.67 198.07 55.8 197.45 54.72C196.83 53.64 196.69 53.72 196.07 52.65C195.979 52.4649 195.94 52.2587 195.956 52.0532C195.972 51.8476 196.043 51.6501 196.161 51.4814C196.28 51.3127 196.442 51.1791 196.63 51.0944C196.818 51.0096 197.025 50.977 197.23 50.9999C198.47 51.1199 198.47 51.1399 199.71 51.2499C200.95 51.3599 200.98 51.7099 202.14 51.2499C203.3 50.7899 202.94 50.4 203.78 49.48C204.62 48.56 204.78 48.7 205.61 47.78C205.714 47.6118 205.868 47.481 206.051 47.4065C206.234 47.332 206.436 47.3176 206.627 47.3655C206.819 47.4134 206.99 47.5211 207.117 47.6729C207.243 47.8247 207.318 48.0128 207.33 48.21Z" fill="#7F5C51"/>
<path d="M182.1 26.34C182.64 27.02 182.7 26.97 183.24 27.66C183.78 28.35 183.45 28.78 184.24 29.15C185.03 29.52 185.15 29.06 186.02 29.03C186.89 29 186.9 29.03 187.77 29.03C187.909 29.0149 188.049 29.04 188.175 29.1024C188.3 29.1647 188.404 29.2617 188.476 29.3818C188.548 29.5018 188.583 29.64 188.579 29.7797C188.574 29.9195 188.529 30.0549 188.45 30.17C187.97 30.9 187.89 30.85 187.45 31.57C187.01 32.29 186.62 32.2 186.52 33.07C186.42 33.94 186.75 33.92 187.04 34.75C187.33 35.58 187.46 35.52 187.76 36.34C187.803 36.479 187.807 36.627 187.772 36.7682C187.737 36.9093 187.664 37.0383 187.561 37.1411C187.458 37.244 187.329 37.3168 187.188 37.3519C187.047 37.3869 186.899 37.3828 186.76 37.34C185.92 37.11 185.9 37.17 185.06 36.94C184.22 36.71 184.24 36.16 183.38 36.32C182.52 36.48 182.7 36.93 182.01 37.47C181.32 38.01 181.29 37.96 180.6 38.47C180.505 38.5629 180.383 38.6242 180.251 38.6456C180.12 38.667 179.985 38.6474 179.865 38.5896C179.745 38.5318 179.645 38.4385 179.58 38.3223C179.515 38.2061 179.487 38.0726 179.5 37.94C179.5 37.07 179.44 37.07 179.41 36.2C179.38 35.33 179.72 35.2 179.29 34.43C178.86 33.66 178.49 34 177.77 33.51C177.05 33.02 177.1 32.95 176.38 32.45C176.262 32.3728 176.167 32.265 176.105 32.138C176.044 32.011 176.017 31.8697 176.03 31.7291C176.042 31.5885 176.092 31.4538 176.175 31.3395C176.258 31.2252 176.37 31.1355 176.5 31.08L178.14 30.48C178.96 30.17 179.23 30.58 179.82 29.94C180.41 29.3 180.02 29.07 180.27 28.23C180.52 27.39 180.62 27.42 180.86 26.59C180.888 26.4587 180.954 26.3386 181.05 26.2443C181.146 26.1499 181.267 26.0856 181.398 26.059C181.53 26.0325 181.666 26.0449 181.791 26.0948C181.916 26.1448 182.023 26.23 182.1 26.34Z" fill="#A58983"/>
<path d="M26.98 118.21C28.22 118.21 28.23 118.07 29.48 118.11C30.73 118.15 30.8599 118.94 31.9899 118.42C33.1199 117.9 32.64 117.3 33.42 116.33C34.2 115.36 34.42 115.52 35.17 114.55C35.2876 114.387 35.4476 114.259 35.6327 114.181C35.8178 114.103 36.0208 114.076 36.2198 114.105C36.4187 114.134 36.606 114.217 36.7612 114.345C36.9163 114.472 37.0335 114.64 37.1 114.83C37.44 116.03 37.35 116.06 37.7 117.25C38.05 118.44 37.46 118.8 38.3 119.72C39.14 120.64 39.5999 119.94 40.7599 120.38C41.9199 120.82 41.8599 121 43.0199 121.44C43.2165 121.491 43.3929 121.601 43.5256 121.755C43.6582 121.908 43.7409 122.099 43.7626 122.301C43.7843 122.503 43.7439 122.707 43.647 122.885C43.5501 123.064 43.4012 123.208 43.22 123.3C42.22 124 42.13 123.92 41.1 124.62C40.07 125.32 39.71 125.05 39.1 126.13C38.49 127.21 39.1 127.4 39.1 128.64C39.1 129.88 39.1 129.89 39.04 131.13C39.0169 131.34 38.9392 131.541 38.8145 131.712C38.6898 131.883 38.5224 132.018 38.3291 132.104C38.1359 132.19 37.9235 132.224 37.7131 132.202C37.5026 132.18 37.3016 132.104 37.1299 131.98C36.1299 131.21 36.1299 131.19 35.1299 130.42C34.1299 129.65 34.4 129.14 33.18 128.9C31.96 128.66 31.9799 129.2 30.7699 129.53C29.5599 129.86 29.5699 129.83 28.3699 130.16C28.1762 130.215 27.9711 130.216 27.7769 130.163C27.5827 130.109 27.4068 130.003 27.2686 129.857C27.1304 129.71 27.0351 129.529 26.993 129.332C26.9509 129.135 26.9637 128.93 27.0299 128.74C27.4599 127.57 27.5699 127.61 28.0299 126.44C28.4899 125.27 28.82 125.31 28.68 124.07C28.54 122.83 28.2099 122.94 27.5299 121.9C26.8499 120.86 26.6 121.02 25.91 119.98C25.8138 119.796 25.7666 119.59 25.7731 119.382C25.7796 119.174 25.8395 118.972 25.9471 118.794C26.0546 118.616 26.2061 118.469 26.387 118.367C26.5679 118.264 26.7722 118.21 26.98 118.21Z" fill="#A58983"/>
<path d="M74.85 130.36C75.7 130.19 75.6699 130.04 76.5299 129.87C77.3899 129.7 77.53 130.06 78.2 129.53C78.87 129 78.6299 128.8 78.9999 128.01L79.7599 126.44C79.8262 126.308 79.9258 126.196 80.0488 126.114C80.1719 126.032 80.3141 125.984 80.4614 125.974C80.6088 125.963 80.7563 125.992 80.8893 126.056C81.0223 126.12 81.1363 126.218 81.22 126.34C81.65 127.1 81.6099 127.12 82.0299 127.88C82.4499 128.64 82.0299 129.03 82.7799 129.52C83.5299 130.01 83.71 129.52 84.57 129.59C85.43 129.66 85.4199 129.83 86.2799 129.94C86.4171 129.951 86.5483 130.001 86.6585 130.084C86.7686 130.166 86.8531 130.278 86.9022 130.407C86.9514 130.536 86.9631 130.675 86.9362 130.81C86.9092 130.945 86.8447 131.07 86.7499 131.17C86.1499 131.81 86.2299 131.88 85.6399 132.52C85.0499 133.16 84.58 132.89 84.34 133.73C84.1 134.57 84.5199 134.61 84.6799 135.47C84.8399 136.33 84.95 136.3 85.11 137.16C85.1272 137.305 85.1053 137.452 85.0466 137.586C84.988 137.719 84.8949 137.835 84.7766 137.921C84.6584 138.006 84.5194 138.059 84.374 138.073C84.2287 138.087 84.0823 138.062 83.95 138C83.16 137.64 83.1 137.76 82.31 137.39C81.52 137.02 81.6399 136.48 80.7699 136.51C79.8999 136.54 80.0499 137.06 79.2899 137.51C78.5299 137.96 78.4399 137.78 77.6699 138.19C77.5501 138.263 77.4126 138.302 77.2722 138.303C77.1318 138.303 76.9939 138.266 76.8734 138.194C76.753 138.121 76.6545 138.018 76.5886 137.894C76.5228 137.77 76.4921 137.63 76.4999 137.49C76.5999 136.62 76.6699 136.63 76.7699 135.76C76.8699 134.89 77.3399 134.83 77.0499 134.01C76.7599 133.19 76.2699 133.51 75.6399 132.91C75.0099 132.31 75.1 132.22 74.46 131.62C74.3442 131.533 74.2581 131.413 74.2134 131.276C74.1687 131.138 74.1677 130.991 74.2105 130.852C74.2532 130.714 74.3375 130.593 74.452 130.505C74.5665 130.417 74.7056 130.366 74.85 130.36Z" fill="#A58983"/>
<path d="M50.8 108.21C51.72 107.73 51.74 107.76 52.66 107.28C53.58 106.8 53.66 106.92 54.56 106.44C55.46 105.96 55.7 106.24 56.32 105.44C56.94 104.64 56.49 104.44 56.66 103.44C56.83 102.44 56.89 102.44 57.06 101.44C57.23 100.44 57.12 100.44 57.29 99.37C57.3442 99.1204 57.4656 98.8905 57.6411 98.7049C57.8166 98.5194 58.0394 98.3855 58.2855 98.3175C58.5316 98.2495 58.7917 98.2501 59.0375 98.3193C59.2833 98.3885 59.5055 98.5236 59.68 98.7099C60.42 99.4399 60.44 99.4199 61.18 100.15C61.92 100.88 62.1201 100.67 62.8601 101.4C63.6001 102.13 63.21 102.68 64.2 103C65.19 103.32 65.2 103 66.28 102.88C67.36 102.76 67.28 102.33 68.28 102.17C69.28 102.01 69.34 102.24 70.37 102.08C70.6353 102.047 70.9047 102.083 71.152 102.185C71.3992 102.287 71.6159 102.451 71.781 102.661C71.9461 102.872 72.054 103.121 72.0941 103.385C72.1342 103.65 72.1052 103.92 72.01 104.17C71.55 105.09 71.21 104.92 70.74 105.85C70.27 106.78 70.51 106.85 70.04 107.85C69.57 108.85 69.16 108.62 69.16 109.66C69.16 110.7 69.49 110.59 69.95 111.52C70.41 112.45 70.41 112.45 70.88 113.38C71.35 114.31 71.53 114.22 71.99 115.15C72.0868 115.405 72.1177 115.681 72.0796 115.951C72.0415 116.221 71.9358 116.477 71.7722 116.696C71.6086 116.914 71.3924 117.088 71.1438 117.201C70.8952 117.313 70.6222 117.361 70.3501 117.34C69.3501 117.18 69.3501 116.89 68.3501 116.74C67.3501 116.59 67.28 116.89 66.25 116.74C65.22 116.59 65.17 115.89 64.19 116.21C63.21 116.53 63.4501 117.01 62.7101 117.74C61.9701 118.47 62.1001 118.6 61.3601 119.33C60.6201 120.06 60.4501 119.89 59.7101 120.62C59.545 120.802 59.331 120.933 59.0936 120.997C58.8562 121.061 58.6056 121.055 58.3714 120.98C58.1373 120.905 57.9296 120.764 57.7733 120.575C57.617 120.385 57.5186 120.154 57.49 119.91C57.32 118.91 57.12 118.91 56.95 117.91C56.78 116.91 56.95 116.85 56.8 115.83C56.65 114.81 56.87 114.74 56.26 113.9C55.65 113.06 55.54 113.22 54.62 112.74C53.7 112.26 53.62 112.49 52.62 112.02C51.62 111.55 51.85 111.26 50.92 110.78C50.6563 110.691 50.4254 110.525 50.2578 110.303C50.0901 110.081 49.9935 109.814 49.9806 109.536C49.9676 109.258 50.0389 108.983 50.1852 108.746C50.3314 108.51 50.5457 108.323 50.8 108.21Z" fill="#7F5C51"/>
</g>
</svg>
