<svg width="85" height="37" viewBox="0 0 85 37" fill="none" xmlns="http://www.w3.org/2000/svg">
<path d="M34.7031 28.05C37.96 28.231 41.1868 25.5621 42.393 24.2051C43.5993 25.5621 46.826 28.231 50.0829 28.05C49.8568 30.6133 48.0021 35.7399 42.393 35.7399C36.7839 35.7399 34.9293 30.6133 34.7031 28.05Z" fill="#FFB0B0"/>
<path d="M3.67639 18.2163C4.18754 18.2163 4.18743 18.2163 4.69859 18.2163C5.20974 18.2163 5.20974 18.3203 5.7209 18.3203C6.23205 18.3203 6.23205 18.162 6.74321 18.162C7.25436 18.162 7.25436 18.1982 7.76552 18.1982C8.27667 18.1982 8.27215 18.058 8.7833 18.058C9.29445 18.058 9.29446 17.9766 9.80561 17.9766C10.3168 17.9766 10.3168 18.0173 10.8279 18.0173C11.3391 18.0173 11.3391 18.1937 11.8502 18.1937C12.3614 18.1937 12.3614 18.4063 12.8725 18.4063C13.3837 18.4063 13.3837 18.4063 13.8948 18.4063C14.406 18.4063 14.406 18.0037 14.9172 18.0037C15.4283 18.0037 15.4283 18.257 15.9395 18.257C16.4506 18.257 16.4506 18.0535 16.9663 18.0535C17.482 18.0535 17.4775 18.1349 17.9886 18.1349C18.3174 18.116 18.6472 18.1388 18.9702 18.2027C19.2938 18.2784 19.6068 18.3939 19.902 18.5465C20.1757 18.7334 20.4236 18.9555 20.6394 19.2069C20.8656 19.4286 20.8113 19.8583 20.9696 20.1343C21.1279 20.4102 21.6209 20.5504 21.7024 20.8625C21.7711 21.1895 21.7985 21.5239 21.7838 21.8577C21.7838 22.4322 21.6527 22.4322 21.6527 23.0112C21.6527 23.5902 21.7341 23.5902 21.7341 24.1692C21.7574 24.4989 21.7391 24.8302 21.6797 25.1553C21.5983 25.4674 21.1958 25.6529 21.0374 25.9288C20.9105 26.2142 20.7445 26.4807 20.5443 26.7204C20.3182 26.9466 20.1915 27.3356 19.9111 27.4985C19.6306 27.6613 19.2281 27.5347 18.916 27.6161C18.6239 27.7174 18.3197 27.7798 18.0113 27.8016H16.9663C16.4552 27.8016 16.4551 28.0006 15.944 28.0006C15.4328 28.0006 15.4328 27.7744 14.9217 27.7744C14.4105 27.7744 14.4105 27.8423 13.8994 27.8423C13.3882 27.8423 13.3882 27.9327 12.8771 27.9327C12.3659 27.9327 12.3659 28.0277 11.8548 28.0277C11.3436 28.0277 11.3436 27.607 10.8324 27.607C10.3213 27.607 10.3258 27.8965 9.81467 27.8965C9.30351 27.8965 9.30351 27.9734 8.79236 27.9734C8.2812 27.9734 8.2812 27.8332 7.77005 27.8332C7.25889 27.8332 7.25889 27.6251 6.74774 27.6251C6.23658 27.6251 6.23657 27.9101 5.7209 27.9101C5.20522 27.9101 5.20974 27.7246 4.69859 27.7246C4.18743 27.7246 4.18754 27.9418 3.67186 27.9418C3.3446 27.9265 3.02066 27.8687 2.7083 27.7699C2.41164 27.6394 2.13331 27.4705 1.88047 27.2678C1.60454 27.1094 1.17489 27.114 0.948719 26.8878C0.736655 26.6322 0.557265 26.351 0.41487 26.051C0.250352 25.7662 0.121298 25.4624 0.0304404 25.1463C-0.0101468 24.8234 -0.0101468 24.4966 0.0304404 24.1737C0.0304404 23.5947 0.102776 23.5947 0.102776 23.0157C0.102776 22.4367 0.0756089 22.4367 0.0756089 21.8622C0.0728925 21.5477 0.112454 21.2343 0.193224 20.9304C0.306291 20.6369 0.458446 20.3599 0.645571 20.1071C0.803893 19.8312 0.826577 19.4557 1.05275 19.2296C1.25484 18.9649 1.49056 18.7277 1.75391 18.5239C2.02984 18.3656 2.44146 18.4741 2.75358 18.3927C3.05181 18.2926 3.36224 18.2332 3.67639 18.2163Z" fill="#FFD9DD"/>
<path d="M66.8153 18.1072C67.3265 18.1072 67.3265 18.2972 67.8331 18.2972C68.3398 18.2972 68.3443 18.1977 68.8554 18.1977C69.3666 18.1977 69.3666 18.0349 69.8777 18.0349C70.3889 18.0349 70.3889 18.356 70.9001 18.356C71.4112 18.356 71.4112 18.356 71.9224 18.356C72.4335 18.356 72.4335 18.1977 72.9447 18.1977C73.4558 18.1977 73.4558 18.0303 73.967 18.0303C74.4781 18.0303 74.4781 18.1208 74.9848 18.1208C75.4914 18.1208 75.4959 18.3063 76.0071 18.3063C76.5182 18.3063 76.5182 18.166 77.0294 18.166C77.5405 18.166 77.5405 18.166 78.0517 18.166C78.5629 18.166 78.5674 18.1027 79.0785 18.1027C79.5897 18.1027 79.5897 17.9941 80.1008 17.9941C80.612 17.9941 80.6165 18.261 81.1277 18.261C81.4319 18.2516 81.736 18.282 82.0324 18.3515C82.3457 18.4064 82.6501 18.5038 82.9371 18.641C83.1941 18.8285 83.4253 19.049 83.6247 19.2969C83.8508 19.5186 84.1629 19.6769 84.3257 19.9528C84.4747 20.2387 84.5857 20.5428 84.6559 20.8575C84.7123 21.1708 84.7275 21.4902 84.7012 21.8074C84.7012 22.3819 84.8641 22.3819 84.8641 22.9609V24.1642C84.8642 24.4919 84.8247 24.8184 84.7465 25.1367C84.6605 25.4488 84.2941 25.6298 84.1222 25.9012C83.9737 26.1675 83.7879 26.4113 83.5703 26.6249C83.3487 26.8511 83.2718 27.2718 82.9958 27.4301C82.7199 27.5884 82.34 27.5025 82.0279 27.5839C81.7157 27.6653 81.4353 27.9865 81.1232 27.9865C80.612 27.9865 80.612 28.0136 80.1008 28.0136C79.5897 28.0136 79.5897 27.7694 79.0785 27.7694C78.5674 27.7694 78.5674 27.9006 78.0608 27.9006H77.0384C76.5273 27.9006 76.5273 27.706 76.0161 27.706C75.505 27.706 75.505 27.6789 74.9938 27.6789C74.4827 27.6789 74.4827 27.7965 73.9715 27.7965C73.4604 27.7965 73.4604 27.982 72.9492 27.982C72.4381 27.982 72.438 27.8508 71.9269 27.8508C71.4157 27.8508 71.4157 27.6518 70.9046 27.6518C70.3934 27.6518 70.3934 27.7784 69.8823 27.7784C69.3711 27.7784 69.3711 27.9639 68.86 27.9639C68.3488 27.9639 68.3488 27.7558 67.8331 27.7558H66.8108C66.495 27.7679 66.179 27.7406 65.87 27.6744C65.563 27.5924 65.2679 27.4707 64.9924 27.3125C64.7119 27.1542 64.5717 26.8602 64.3455 26.6249C64.11 26.4257 63.9003 26.1978 63.7214 25.9464C63.5345 25.6902 63.3824 25.4103 63.269 25.1141C63.2081 24.8014 63.1883 24.482 63.2101 24.1642C63.2101 23.5852 63.2509 23.5852 63.2509 23.0062C63.2509 22.4272 63.2101 22.4272 63.2101 21.8527C63.1781 21.5317 63.1872 21.2079 63.2373 20.8892C63.3187 20.5771 63.6399 20.378 63.7982 20.1021C63.9614 19.8467 64.1593 19.6153 64.3863 19.4145C64.6125 19.1883 64.7164 18.8446 64.9969 18.6862C65.2774 18.5279 65.6212 18.6139 65.9333 18.5279C66.2454 18.442 66.4897 18.1072 66.8153 18.1072Z" fill="#FFD9DD"/>
<path d="M50.3697 28.7106C50.0938 28.7106 49.8223 28.6835 49.5238 28.6609C49.1815 28.704 48.8373 28.7297 48.4924 28.7378C48.1412 28.7264 47.791 28.6962 47.443 28.6473C47.1128 28.5388 46.9906 27.9552 46.6694 27.8195C46.3482 27.6838 45.9819 27.6974 45.6879 27.5345C45.3938 27.3717 44.8962 27.4938 44.6203 27.3129C44.3443 27.1319 44.0187 26.9239 43.7563 26.7248C43.494 26.5258 43.218 26.2454 42.9828 26.0328C42.7476 25.8201 42.6164 25.6618 42.4038 25.4447C42.1912 25.6618 41.9153 25.5668 41.6348 25.8201C41.3544 26.0735 41.2639 26.4127 40.979 26.6299C40.694 26.847 40.3094 26.8515 40.0154 27.046C39.7214 27.2405 39.5903 27.6657 39.2872 27.8331C38.9841 28.0005 38.5362 27.8602 38.2196 27.9959C37.8972 28.0979 37.5695 28.1825 37.238 28.2493C36.9169 28.3533 36.6998 28.8871 36.3605 28.9549C36.0212 29.0228 35.6322 28.6835 35.2884 28.7106C34.9446 28.7378 34.5872 28.8056 34.2525 28.8011C33.9067 28.7802 33.5623 28.7394 33.2211 28.679C32.8593 28.6338 32.4431 28.9278 32.1174 28.8418C31.7917 28.7559 31.5022 28.3895 31.2127 28.2583C30.8784 28.1564 30.5506 28.034 30.2312 27.8919C29.9004 27.759 29.5772 27.608 29.2631 27.4395C28.9958 27.202 28.7449 26.9466 28.5122 26.6751C28.2318 26.3991 28.2363 25.9287 28.0599 25.6935C27.8001 25.4138 27.4798 25.1972 27.1235 25.0602C26.9878 24.7933 27.4266 24.4948 27.5126 24.2324C27.5985 23.97 27.5126 23.6172 27.7568 23.477C28.0011 23.3368 28.2816 23.5177 28.5439 23.6036C28.6588 23.6333 28.765 23.6897 28.8538 23.7684C28.9427 23.847 29.0116 23.9456 29.055 24.056C29.4088 24.1522 29.7335 24.3339 30.0005 24.5852C30.1905 24.7933 30.1905 25.2547 30.48 25.4899C30.7695 25.7251 31.0952 25.6935 31.3847 25.8609C31.6868 25.9679 31.9968 26.0511 32.3119 26.1096C32.6042 26.2366 32.9069 26.338 33.2166 26.4127C33.5197 26.467 33.8092 26.761 34.153 26.7791C34.4843 26.8479 34.8197 26.8947 35.1572 26.9193C35.4784 26.8967 35.7317 26.4218 36.0619 26.3494C36.3691 26.2808 36.6713 26.1917 36.9666 26.0825C37.2697 25.9649 37.6542 26.0599 37.9347 25.9197C38.2151 25.7794 38.3869 25.404 38.6402 25.2366C38.8936 25.0692 39.1966 24.92 39.4409 24.7345C39.6852 24.5491 40.0199 24.4133 40.2461 24.2143C40.4723 24.0153 40.9563 23.961 41.1508 23.762C41.3895 23.4975 41.5146 23.1498 41.4991 22.7939C41.6175 22.6536 41.7631 22.5388 41.9272 22.4563C42.0912 22.3739 42.2704 22.3257 42.4536 22.3145V22.3552C42.6216 22.3815 42.7819 22.4441 42.9233 22.5386C43.0647 22.6331 43.1837 22.7573 43.2723 22.9025C43.4415 23.1791 43.6435 23.4343 43.8739 23.6625C44.0639 23.857 44.4168 23.961 44.6837 24.2007C44.9505 24.4405 45.05 24.7345 45.3169 24.9381C45.5838 25.1416 45.9321 25.1552 46.2216 25.3316C46.5111 25.508 46.778 25.6075 47.0675 25.7568C47.364 25.8586 47.666 25.9432 47.9722 26.0101C48.2663 26.1232 48.4653 26.5213 48.782 26.5937C49.0977 26.6438 49.4166 26.671 49.7363 26.6751C50.0847 26.7022 50.4014 26.4851 50.709 26.4715C51.0308 26.5004 51.354 26.5094 51.6769 26.4987C52.0061 26.4866 52.3341 26.4518 52.6585 26.3946C52.9723 26.2697 53.2749 26.1183 53.5632 25.9423C53.8631 25.805 54.1521 25.6447 54.4272 25.4628C54.7248 25.2949 55.0117 25.1091 55.2867 24.9064C55.4013 24.7626 55.482 24.5947 55.5228 24.4154C55.5635 24.236 55.5632 24.0498 55.5219 23.8705C55.6576 23.6036 56.1325 23.7484 56.3949 23.667C56.6572 23.5855 56.9196 23.2689 57.182 23.4046C57.4461 23.5591 57.6418 23.8081 57.7294 24.1012C57.8153 24.3681 57.9871 24.8024 57.8514 25.0692C57.5244 25.2671 57.23 25.5143 56.9784 25.802C56.7884 26.0418 56.4266 26.1775 56.1326 26.458C55.8386 26.7384 55.929 27.2857 55.6214 27.5119C55.3138 27.7381 54.8841 27.6702 54.5539 27.8512C54.2237 28.0321 53.8346 27.9009 53.4863 28.0366C53.1759 28.1945 52.8556 28.332 52.5274 28.4483C52.1839 28.5158 51.8363 28.5612 51.487 28.584C51.1178 28.6514 50.7446 28.6937 50.3697 28.7106Z" fill="#383838"/>
<path d="M42.4038 36.6214C42.0482 36.6416 41.6919 36.6416 41.3363 36.6214C40.9864 36.5608 40.6405 36.4792 40.3004 36.3771C39.9495 36.3179 39.6022 36.2394 39.26 36.1419C38.9298 36.0111 38.6079 35.8601 38.2964 35.6895C37.9918 35.5072 37.6987 35.3063 37.4189 35.0879C37.1216 34.8956 36.8361 34.6857 36.564 34.4591C36.3062 34.2284 36.1523 33.8801 35.9125 33.6178C35.6728 33.3554 35.3833 33.1654 35.1707 32.8623C34.9581 32.5593 34.75 32.2969 34.5646 31.9893C34.3791 31.6817 34.3249 31.3289 34.1711 31.0077C34.0173 30.6865 33.7187 30.4423 33.583 30.103C33.4473 29.7638 33.6328 29.3476 33.5288 29.0038C33.4247 28.66 33.2844 28.357 33.2075 28.0086C33.1708 27.8818 33.1623 27.7484 33.1827 27.6179C33.203 27.4874 33.2516 27.3629 33.3251 27.2532C33.4744 27.018 33.6146 26.6516 33.9087 26.5838C34.2207 26.5602 34.5307 26.6502 34.7817 26.8371C34.8877 26.93 34.9743 27.043 35.0364 27.1695C35.0986 27.2961 35.1349 27.4337 35.1436 27.5744C35.2205 27.9001 35.2341 28.2439 35.3246 28.5515C35.415 28.8591 35.6954 29.1305 35.813 29.429C35.9306 29.7276 36.0755 30.0306 36.2202 30.3337C36.3554 30.634 36.5064 30.9269 36.6726 31.2113C36.8432 31.4932 37.0321 31.7637 37.238 32.021C37.4497 32.274 37.6795 32.5114 37.9256 32.7312C38.1619 32.9605 38.416 33.1707 38.6855 33.3599C38.9539 33.5531 39.2366 33.7255 39.5313 33.8756C39.8204 34.0501 40.1229 34.2014 40.436 34.3279C40.7639 34.3969 41.0967 34.4408 41.4313 34.4591C41.7635 34.4444 42.0944 34.4081 42.4219 34.3506C42.7453 34.3571 43.0688 34.3404 43.3899 34.3008C43.7082 34.2435 44.0214 34.1603 44.3262 34.052C44.6243 33.9369 44.9131 33.7993 45.1902 33.6404C45.4901 33.5262 45.7806 33.3886 46.0588 33.2287C46.3257 33.0433 46.7644 33.0614 47.0041 32.8352C47.2439 32.609 47.3389 32.2426 47.5515 31.9848C47.7589 31.7323 47.9493 31.4663 48.1215 31.1887C48.2876 30.9089 48.4386 30.6205 48.5739 30.3247C48.7186 30.0397 48.895 29.7638 49.0262 29.4516C49.1574 29.1395 49.2659 28.85 49.3655 28.5469C49.465 28.2439 49.4559 27.9046 49.5328 27.5789C49.6115 27.2879 49.7972 27.0375 50.0529 26.8778C50.3112 26.7403 50.6127 26.7079 50.8943 26.7873C51.1838 26.8552 51.3196 27.0859 51.4688 27.3166C51.5464 27.42 51.6001 27.5394 51.6259 27.6662C51.6517 27.7929 51.6491 27.9238 51.6181 28.0494C51.5412 28.3977 51.7131 28.8048 51.6181 29.1395C51.5231 29.4743 51.1115 29.7185 50.9893 30.0442C50.8672 30.3699 50.7993 30.7273 50.6501 31.0394C50.5008 31.3515 50.2248 31.6048 50.0484 31.8988C49.872 32.1929 49.8947 32.6407 49.6911 32.9211C49.4435 33.1749 49.1823 33.415 48.9086 33.6404C48.6609 33.8855 48.3995 34.1166 48.1259 34.3325C47.859 34.5677 47.7505 34.9974 47.4655 35.1965C47.165 35.3874 46.854 35.561 46.5338 35.7167C46.2048 35.8492 45.8678 35.961 45.5249 36.0514C45.1843 36.1377 44.8383 36.2012 44.4891 36.2414C44.1637 36.3813 43.8297 36.5006 43.4894 36.5987C43.1283 36.6282 42.7658 36.6358 42.4038 36.6214Z" fill="#383838"/>
<path d="M25.3095 8.95649C24.9747 8.86602 24.5766 9.00624 24.2736 8.89315C23.9705 8.78007 23.7127 8.44081 23.4232 8.31415C23.1524 8.11811 22.8969 7.90187 22.6588 7.6673C22.4002 7.47191 22.1595 7.25392 21.9395 7.01591C21.6861 6.80933 21.4515 6.58075 21.2383 6.33287C21.0477 6.06593 20.8754 5.78634 20.7227 5.49603C20.5677 5.20222 20.4287 4.90021 20.3065 4.59134C20.1979 4.28827 20.1301 3.97161 20.0442 3.63235C19.9582 3.29309 19.6325 2.99002 19.5511 2.69147C19.4425 2.30698 19.2842 2.00391 19.1937 1.71893C19.0535 1.29825 19.1937 0.877565 19.0716 0.646867C18.9935 0.467201 18.8681 0.31211 18.7088 0.198178C18.5494 0.0842461 18.3621 0.0157444 18.1669 0C17.8457 0 17.6739 0.312126 17.4387 0.741857C17.2674 1.03849 17.1279 1.35235 17.0224 1.67822C16.9274 1.95867 16.7737 2.2708 16.6652 2.65529C16.5792 2.95384 16.3937 3.26143 16.2987 3.63235C16.2037 4.00327 16.2489 4.32898 16.1358 4.63205C16.0228 4.93512 15.6835 5.17034 15.5568 5.45984C15.4302 5.74934 15.5252 6.23336 15.3352 6.50025C15.1017 6.7518 14.8475 6.98331 14.5753 7.19234C14.3334 7.42539 14.0732 7.63868 13.7972 7.83015C13.5349 8.02013 13.1458 8.00203 12.8427 8.16035C12.5598 8.32904 12.2668 8.48011 11.9652 8.6127C11.6667 8.72126 11.3907 8.94744 11.0605 9.03791C10.7303 9.12838 10.3367 9.151 10.0337 9.23694C9.6537 9.34098 9.29182 9.3636 9.01137 9.45407C8.66675 9.54995 8.32961 9.67089 8.00264 9.81595C7.8291 9.90887 7.68478 10.0481 7.58574 10.2183C7.48671 10.3884 7.43685 10.5827 7.44173 10.7794C7.44685 10.9715 7.50606 11.1583 7.61247 11.3183C7.71888 11.4784 7.86822 11.6051 8.04339 11.6841C8.36157 11.8342 8.69131 11.9582 9.02948 12.0551C9.30993 12.1501 9.67635 12.132 10.0608 12.236C10.3594 12.322 10.6624 12.5255 11.0333 12.625C11.4043 12.7245 11.7255 12.6838 12.0286 12.7969C12.3317 12.91 12.5488 13.2854 12.8338 13.4302C13.126 13.5737 13.4071 13.7385 13.6751 13.9233C13.951 14.1223 14.4712 14.0228 14.7019 14.258C14.9326 14.4932 14.9145 14.9591 15.1135 15.2351C15.3224 15.4912 15.5129 15.7618 15.6835 16.0448C15.8368 16.3381 15.9728 16.6402 16.0907 16.9495C16.2459 17.2432 16.3848 17.5452 16.5068 17.8542C16.6063 18.2251 16.5475 18.596 16.6289 18.8991C16.7375 19.2791 16.9275 19.5821 17.018 19.8671C17.1102 20.2008 17.2266 20.5274 17.3662 20.8442C17.6014 21.2739 17.8502 21.6041 18.1714 21.6041C18.3756 21.5812 18.5705 21.5064 18.7376 21.3869C18.9047 21.2673 19.0384 21.1069 19.1259 20.9211C19.2526 20.6904 19.1259 20.2652 19.2752 19.849C19.3657 19.5686 19.5194 19.2564 19.6279 18.8765C19.7139 18.5734 19.6777 18.207 19.7773 17.8361C19.9207 17.5261 20.0807 17.2241 20.2568 16.9314C20.415 16.636 20.5933 16.3519 20.7905 16.081C20.9185 15.7801 21.0697 15.4898 21.2429 15.2124C21.456 14.9632 21.6906 14.7331 21.944 14.5249C22.1715 14.2964 22.4164 14.0862 22.6768 13.8961C22.9354 13.6981 23.2075 13.5182 23.491 13.3578C23.776 13.2131 23.9932 12.9055 24.3188 12.7698C24.6445 12.6341 24.9928 12.7698 25.3321 12.6657C25.6714 12.5617 25.9428 12.1365 26.2368 12.0551C26.6213 11.9465 26.9922 12.0008 27.2727 11.9058C27.6085 11.8199 27.9379 11.7111 28.2588 11.5801C28.6885 11.3404 29.0096 11.0825 29.0096 10.7614C28.9876 10.5575 28.9137 10.3627 28.7949 10.1956C28.6762 10.0285 28.5164 9.89469 28.3311 9.8069C28.0057 9.66173 27.6701 9.54076 27.3269 9.44502C27.0465 9.35455 26.7117 9.25956 26.3272 9.151C26.0332 9.09219 25.6804 9.05601 25.3095 8.95649Z" fill="#FFED4F"/>
<path d="M73.6992 9.20125C73.3645 9.11078 73.066 8.90721 72.7629 8.79865C72.4599 8.69009 72.211 8.37344 71.9215 8.22869C71.632 8.08394 71.1797 8.14275 70.9128 7.95276C70.6459 7.76278 70.6007 7.27877 70.3655 7.04807C70.1372 6.8165 69.9298 6.56522 69.7457 6.29717C69.5557 6.03481 69.0898 5.92624 68.936 5.61865C68.7822 5.31105 68.8863 4.92203 68.7687 4.59634C68.6511 4.27065 68.6375 3.96305 68.547 3.62379C68.4566 3.28453 68.1625 2.97693 68.0947 2.67386C67.9906 2.28937 67.9907 1.93202 67.9002 1.64704C67.8164 1.3019 67.7121 0.962048 67.588 0.629255C67.4971 0.462486 67.3599 0.325523 67.193 0.234845C67.0261 0.144167 66.8366 0.103631 66.6472 0.1181C66.3215 0.1181 66.0953 0.285472 65.8601 0.715202C65.746 1.04114 65.6508 1.37341 65.5751 1.71036C65.4846 1.99081 65.4123 2.32103 65.3083 2.70553C65.2223 3.00408 64.8558 3.26191 64.7518 3.63284C64.6477 4.00376 64.5935 4.28422 64.485 4.5873C64.3534 4.8908 64.2023 5.18545 64.0326 5.46938C63.9029 5.77375 63.7518 6.06852 63.5803 6.35145C63.3773 6.60926 63.1534 6.84982 62.9108 7.07068C62.6756 7.3059 62.5896 7.71753 62.3137 7.91657C62.0055 8.06225 61.6882 8.18767 61.3637 8.29202C61.0602 8.42508 60.7491 8.53988 60.4319 8.63581C60.13 8.77804 59.8204 8.90337 59.5046 9.01125C59.1337 9.11077 58.7808 9.12887 58.4823 9.21029C58.0978 9.31885 57.84 9.66263 57.5776 9.74406C57.1569 9.88428 56.7091 9.70335 56.4784 9.83C56.3184 9.92713 56.1923 10.0715 56.1177 10.2433C56.0432 10.4151 56.0238 10.6057 56.0622 10.789C56.0532 10.9569 56.0985 11.1232 56.1914 11.2633C56.2843 11.4034 56.4198 11.5099 56.5779 11.567C56.8827 11.7298 57.2022 11.8631 57.5323 11.9651C57.8128 12.0601 58.1204 12.2274 58.5049 12.336C58.8035 12.422 59.1337 12.526 59.5046 12.6255C59.8755 12.725 60.2555 12.535 60.5586 12.6481C60.8617 12.7612 61.0923 13.1412 61.3818 13.2859C61.6936 13.4154 61.9959 13.5666 62.2865 13.7383C62.5468 13.9466 62.7876 14.1783 63.0058 14.4304C63.2402 14.6674 63.455 14.9231 63.6481 15.1949C63.8853 15.4367 64.1031 15.6968 64.2994 15.9729C64.3916 16.3021 64.4671 16.6358 64.5256 16.9726C64.6342 17.2756 64.6975 17.5923 64.788 17.9315C64.8785 18.2708 65.0504 18.6146 65.1318 18.9131C65.2403 19.2976 65.3625 19.6233 65.4529 19.9038C65.5932 20.3245 65.566 20.7225 65.6927 20.9532C65.7864 21.1254 65.9262 21.2682 66.0963 21.3656C66.2665 21.4631 66.4603 21.5114 66.6563 21.5051C66.9774 21.5051 67.1809 21.2699 67.4207 20.8401C67.6205 20.5586 67.7874 20.255 67.9182 19.9354C68.0132 19.655 67.9182 19.2705 68.0358 18.886C68.1218 18.5874 68.2259 18.2572 68.3254 17.8863C68.4249 17.5154 68.5425 17.2349 68.6511 16.9319C68.7324 16.5994 68.832 16.2717 68.9496 15.9503C69.1034 15.6427 69.5874 15.5477 69.7774 15.2808C69.9679 15.0181 70.1813 14.7729 70.4152 14.548C70.6504 14.3173 70.6731 13.8288 70.949 13.6433C71.225 13.4578 71.6411 13.5121 71.9487 13.3538C72.2235 13.1631 72.5106 12.9909 72.8081 12.8381C73.1185 12.7096 73.4357 12.5978 73.7581 12.5034C74.129 12.4039 74.5 12.4581 74.803 12.3722C75.1875 12.2636 75.5087 12.1325 75.7891 12.0375C76.1244 11.9394 76.4499 11.8107 76.7616 11.653C76.9323 11.5836 77.0795 11.4665 77.1854 11.3156C77.2913 11.1648 77.3515 10.9867 77.3588 10.8025C77.3588 10.4769 77.1642 10.2371 76.7345 10.0019C76.4149 9.87143 76.087 9.76262 75.7529 9.67621C75.4679 9.58574 75.2146 9.22386 74.8482 9.12887C74.5044 9.03388 74.0701 9.30076 73.6992 9.20125Z" fill="#FFED4F"/>
<path d="M47.0299 20.0119C46.9876 20.3063 46.8943 20.591 46.7541 20.8533C46.6807 21.1343 46.5565 21.3996 46.3876 21.6359C46.1887 21.8503 45.9584 22.0333 45.7046 22.1787C45.3982 22.4126 45.0581 22.5987 44.6959 22.7305C44.318 22.813 43.9334 22.8614 43.5469 22.8753C43.1678 22.9307 42.7855 22.9624 42.4024 22.9703C42.0187 22.9718 41.6351 22.9522 41.2535 22.9115C40.8758 22.8479 40.5048 22.7495 40.1452 22.6174C39.7742 22.5283 39.4177 22.3866 39.0867 22.1968C38.8553 22.024 38.6537 21.8147 38.4897 21.5771C38.2906 21.3464 38.0373 21.1699 37.9197 20.8985C37.8705 20.599 37.8705 20.2934 37.9197 19.9938C37.9068 19.7089 37.9451 19.4239 38.0328 19.1525C38.1012 18.8693 38.2207 18.601 38.3856 18.3609C38.59 18.1486 38.8228 17.9659 39.0776 17.818C39.3922 17.5927 39.7361 17.4115 40.0999 17.2798C40.4741 17.187 40.8554 17.1265 41.2399 17.0988C41.6226 17.0782 42.0061 17.0782 42.3889 17.0988C42.7738 17.0632 43.1604 17.0496 43.5469 17.0581C43.9319 17.103 44.312 17.1832 44.6823 17.2979C45.0399 17.4404 45.3751 17.6339 45.6774 17.8723C45.9324 18.0129 46.1669 18.1879 46.3741 18.3925C46.5616 18.6181 46.7071 18.8755 46.8038 19.1525C46.9259 19.4246 47.0023 19.715 47.0299 20.0119Z" fill="#FFB3C5"/>
</svg>
