<svg width="112" height="60" viewBox="0 0 112 60" fill="none" xmlns="http://www.w3.org/2000/svg">
<g filter="url(#filter0_i_1153_9950)">
<rect width="112" height="60" rx="10" fill="white"/>
</g>
<path d="M48.7031 40.05C51.96 40.231 55.1868 37.5621 56.393 36.2051C57.5993 37.5621 60.826 40.231 64.0829 40.05C63.8568 42.6133 62.0021 47.7399 56.393 47.7399C50.7839 47.7399 48.9293 42.6133 48.7031 40.05Z" fill="#FFB0B0"/>
<path d="M17.6764 30.2158C18.1875 30.2158 18.1874 30.2158 18.6986 30.2158C19.2097 30.2158 19.2097 30.3198 19.7209 30.3198C20.232 30.3198 20.2321 30.1615 20.7432 30.1615C21.2544 30.1615 21.2544 30.1977 21.7655 30.1977C22.2767 30.1977 22.2721 30.0575 22.7833 30.0575C23.2945 30.0575 23.2945 29.9761 23.8056 29.9761C24.3168 29.9761 24.3168 30.0168 24.8279 30.0168C25.3391 30.0168 25.3391 30.1932 25.8502 30.1932C26.3614 30.1932 26.3614 30.4058 26.8725 30.4058C27.3837 30.4058 27.3837 30.4058 27.8948 30.4058C28.406 30.4058 28.406 30.0032 28.9172 30.0032C29.4283 30.0032 29.4283 30.2565 29.9395 30.2565C30.4506 30.2565 30.4506 30.053 30.9663 30.053C31.482 30.053 31.4775 30.1344 31.9886 30.1344C32.3174 30.1155 32.6472 30.1383 32.9702 30.2022C33.2938 30.2779 33.6068 30.3934 33.902 30.546C34.1757 30.7329 34.4236 30.955 34.6394 31.2065C34.8656 31.4281 34.8113 31.8578 34.9696 32.1338C35.1279 32.4097 35.6209 32.5499 35.7024 32.8621C35.7711 33.189 35.7985 33.5234 35.7838 33.8572C35.7838 34.4317 35.6527 34.4317 35.6527 35.0107C35.6527 35.5897 35.7341 35.5897 35.7341 36.1687C35.7574 36.4984 35.7391 36.8297 35.6797 37.1548C35.5983 37.4669 35.1958 37.6524 35.0374 37.9283C34.9105 38.2138 34.7445 38.4802 34.5443 38.7199C34.3182 38.9461 34.1915 39.3351 33.9111 39.498C33.6306 39.6608 33.2281 39.5342 32.916 39.6156C32.6239 39.7169 32.3197 39.7793 32.0113 39.8011H30.9663C30.4552 39.8011 30.4551 40.0001 29.944 40.0001C29.4328 40.0001 29.4328 39.7739 28.9217 39.7739C28.4105 39.7739 28.4105 39.8418 27.8994 39.8418C27.3882 39.8418 27.3882 39.9322 26.8771 39.9322C26.3659 39.9322 26.3659 40.0272 25.8548 40.0272C25.3436 40.0272 25.3436 39.6065 24.8324 39.6065C24.3213 39.6065 24.3258 39.8961 23.8147 39.8961C23.3035 39.8961 23.3035 39.973 22.7924 39.973C22.2812 39.973 22.2812 39.8327 21.77 39.8327C21.2589 39.8327 21.2589 39.6246 20.7477 39.6246C20.2366 39.6246 20.2366 39.9096 19.7209 39.9096C19.2052 39.9096 19.2097 39.7242 18.6986 39.7242C18.1874 39.7242 18.1875 39.9413 17.6719 39.9413C17.3446 39.926 17.0207 39.8682 16.7083 39.7694C16.4116 39.6389 16.1333 39.4701 15.8805 39.2673C15.6045 39.109 15.1749 39.1135 14.9487 38.8873C14.7367 38.6317 14.5573 38.3506 14.4149 38.0505C14.2504 37.7657 14.1213 37.4619 14.0304 37.1458C13.9899 36.8229 13.9899 36.4961 14.0304 36.1732C14.0304 35.5942 14.1028 35.5942 14.1028 35.0152C14.1028 34.4362 14.0756 34.4362 14.0756 33.8617C14.0729 33.5473 14.1125 33.2338 14.1932 32.9299C14.3063 32.6364 14.4584 32.3595 14.6456 32.1066C14.8039 31.8307 14.8266 31.4552 15.0528 31.2291C15.2548 30.9644 15.4906 30.7272 15.7539 30.5234C16.0298 30.3651 16.4415 30.4736 16.7536 30.3922C17.0518 30.2921 17.3622 30.2327 17.6764 30.2158Z" fill="#FFD9DD"/>
<path d="M80.8153 30.1072C81.3265 30.1072 81.3265 30.2972 81.8331 30.2972C82.3398 30.2972 82.3443 30.1977 82.8554 30.1977C83.3666 30.1977 83.3666 30.0349 83.8777 30.0349C84.3889 30.0349 84.3889 30.356 84.9001 30.356C85.4112 30.356 85.4112 30.356 85.9224 30.356C86.4335 30.356 86.4335 30.1977 86.9447 30.1977C87.4558 30.1977 87.4558 30.0303 87.967 30.0303C88.4781 30.0303 88.4781 30.1208 88.9848 30.1208C89.4914 30.1208 89.4959 30.3063 90.0071 30.3063C90.5182 30.3063 90.5182 30.166 91.0294 30.166C91.5405 30.166 91.5405 30.166 92.0517 30.166C92.5629 30.166 92.5674 30.1027 93.0785 30.1027C93.5897 30.1027 93.5897 29.9941 94.1008 29.9941C94.612 29.9941 94.6165 30.261 95.1277 30.261C95.4319 30.2516 95.736 30.282 96.0324 30.3515C96.3457 30.4064 96.6501 30.5038 96.9371 30.641C97.1941 30.8285 97.4253 31.049 97.6247 31.2969C97.8508 31.5186 98.1629 31.6769 98.3257 31.9528C98.4747 32.2387 98.5857 32.5428 98.6559 32.8575C98.7123 33.1708 98.7275 33.4902 98.7012 33.8074C98.7012 34.3819 98.8641 34.3819 98.8641 34.9609V36.1642C98.8642 36.4919 98.8247 36.8184 98.7465 37.1367C98.6605 37.4488 98.2941 37.6298 98.1222 37.9012C97.9737 38.1675 97.7879 38.4113 97.5703 38.6249C97.3487 38.8511 97.2718 39.2718 96.9958 39.4301C96.7199 39.5884 96.34 39.5025 96.0279 39.5839C95.7157 39.6653 95.4353 39.9865 95.1232 39.9865C94.612 39.9865 94.612 40.0136 94.1008 40.0136C93.5897 40.0136 93.5897 39.7694 93.0785 39.7694C92.5674 39.7694 92.5674 39.9006 92.0608 39.9006H91.0384C90.5273 39.9006 90.5273 39.706 90.0161 39.706C89.505 39.706 89.505 39.6789 88.9938 39.6789C88.4827 39.6789 88.4827 39.7965 87.9715 39.7965C87.4604 39.7965 87.4604 39.982 86.9492 39.982C86.4381 39.982 86.438 39.8508 85.9269 39.8508C85.4157 39.8508 85.4157 39.6518 84.9046 39.6518C84.3934 39.6518 84.3934 39.7784 83.8823 39.7784C83.3711 39.7784 83.3711 39.9639 82.86 39.9639C82.3488 39.9639 82.3488 39.7558 81.8331 39.7558H80.8108C80.495 39.7679 80.179 39.7406 79.87 39.6744C79.563 39.5924 79.2679 39.4707 78.9924 39.3125C78.7119 39.1542 78.5717 38.8602 78.3455 38.6249C78.11 38.4257 77.9003 38.1978 77.7214 37.9464C77.5345 37.6902 77.3824 37.4103 77.269 37.1141C77.2081 36.8014 77.1883 36.482 77.2101 36.1642C77.2101 35.5852 77.2509 35.5852 77.2509 35.0062C77.2509 34.4272 77.2101 34.4272 77.2101 33.8527C77.1781 33.5317 77.1872 33.2079 77.2373 32.8892C77.3187 32.5771 77.6399 32.378 77.7982 32.1021C77.9614 31.8467 78.1593 31.6153 78.3863 31.4145C78.6125 31.1883 78.7164 30.8446 78.9969 30.6862C79.2774 30.5279 79.6212 30.6139 79.9333 30.5279C80.2454 30.442 80.4897 30.1072 80.8153 30.1072Z" fill="#FFD9DD"/>
<path d="M64.3697 40.7102C64.0938 40.7102 63.8223 40.683 63.5238 40.6604C63.1815 40.7035 62.8373 40.7292 62.4924 40.7373C62.1412 40.7259 61.791 40.6957 61.443 40.6468C61.1128 40.5383 60.9906 39.9547 60.6694 39.819C60.3482 39.6833 59.9819 39.6969 59.6879 39.5341C59.3938 39.3712 58.8962 39.4933 58.6203 39.3124C58.3443 39.1315 58.0187 38.9234 57.7563 38.7244C57.494 38.5253 57.218 38.2449 56.9828 38.0323C56.7476 37.8197 56.6164 37.6613 56.4038 37.4442C56.1912 37.6613 55.9153 37.5663 55.6348 37.8197C55.3544 38.073 55.2639 38.4122 54.979 38.6294C54.694 38.8465 54.3094 38.851 54.0154 39.0455C53.7214 39.24 53.5903 39.6652 53.2872 39.8326C52.9841 40 52.5362 39.8597 52.2196 39.9954C51.8972 40.0974 51.5695 40.182 51.238 40.2488C50.9169 40.3528 50.6998 40.8866 50.3605 40.9544C50.0212 41.0223 49.6322 40.683 49.2884 40.7102C48.9446 40.7373 48.5872 40.8052 48.2525 40.8006C47.9067 40.7797 47.5623 40.7389 47.2211 40.6785C46.8593 40.6333 46.4431 40.9273 46.1174 40.8413C45.7917 40.7554 45.5022 40.389 45.2127 40.2578C44.8784 40.1559 44.5506 40.0335 44.2312 39.8914C43.9004 39.7585 43.5772 39.6075 43.2631 39.4391C42.9958 39.2015 42.7449 38.9461 42.5122 38.6746C42.2318 38.3987 42.2363 37.9282 42.0599 37.693C41.8001 37.4133 41.4798 37.1967 41.1235 37.0597C40.9878 36.7928 41.4266 36.4943 41.5126 36.2319C41.5985 35.9696 41.5126 35.6167 41.7568 35.4765C42.0011 35.3363 42.2816 35.5172 42.5439 35.6032C42.6588 35.6328 42.765 35.6893 42.8538 35.7679C42.9427 35.8465 43.0116 35.9451 43.055 36.0555C43.4088 36.1517 43.7335 36.3334 44.0005 36.5847C44.1905 36.7928 44.1905 37.2542 44.48 37.4894C44.7695 37.7247 45.0952 37.693 45.3847 37.8604C45.6868 37.9674 45.9968 38.0506 46.3119 38.1092C46.6042 38.2361 46.9069 38.3375 47.2166 38.4122C47.5197 38.4665 47.8092 38.7605 48.153 38.7786C48.4843 38.8474 48.8197 38.8943 49.1572 38.9189C49.4784 38.8962 49.7317 38.4213 50.0619 38.3489C50.3691 38.2803 50.6713 38.1912 50.9666 38.082C51.2697 37.9644 51.6542 38.0594 51.9347 37.9192C52.2151 37.7789 52.3869 37.4035 52.6402 37.2361C52.8936 37.0688 53.1966 36.9195 53.4409 36.734C53.6852 36.5486 54.0199 36.4128 54.2461 36.2138C54.4723 36.0148 54.9563 35.9605 55.1508 35.7615C55.3895 35.497 55.5146 35.1493 55.4991 34.7935C55.6175 34.6531 55.7631 34.5383 55.9272 34.4558C56.0912 34.3734 56.2704 34.3252 56.4536 34.314V34.3547C56.6216 34.381 56.7819 34.4436 56.9233 34.5381C57.0647 34.6327 57.1837 34.7568 57.2723 34.902C57.4415 35.1786 57.6435 35.4338 57.8739 35.662C58.0639 35.8565 58.4168 35.9605 58.6837 36.2002C58.9505 36.44 59.05 36.734 59.3169 36.9376C59.5838 37.1411 59.9321 37.1547 60.2216 37.3311C60.5111 37.5075 60.778 37.607 61.0675 37.7563C61.364 37.8581 61.666 37.9427 61.9722 38.0096C62.2663 38.1227 62.4653 38.5208 62.782 38.5932C63.0977 38.6433 63.4166 38.6705 63.7363 38.6746C64.0847 38.7017 64.4014 38.4846 64.709 38.471C65.0308 38.4999 65.354 38.5089 65.6769 38.4982C66.0061 38.4861 66.3341 38.4513 66.6585 38.3941C66.9723 38.2692 67.2749 38.1178 67.5632 37.9418C67.8631 37.8045 68.1521 37.6442 68.4272 37.4623C68.7248 37.2945 69.0117 37.1087 69.2867 36.9059C69.4013 36.7621 69.482 36.5943 69.5228 36.4149C69.5635 36.2355 69.5632 36.0493 69.5219 35.87C69.6576 35.6032 70.1325 35.7479 70.3949 35.6665C70.6572 35.5851 70.9196 35.2684 71.182 35.4041C71.4461 35.5586 71.6418 35.8076 71.7294 36.1007C71.8153 36.3676 71.9871 36.8019 71.8514 37.0688C71.5244 37.2666 71.2299 37.5138 70.9784 37.8016C70.7884 38.0413 70.4266 38.177 70.1326 38.4575C69.8386 38.7379 69.929 39.2853 69.6214 39.5114C69.3138 39.7376 68.8841 39.6698 68.5539 39.8507C68.2237 40.0316 67.8346 39.9005 67.4863 40.0362C67.1759 40.194 66.8556 40.3315 66.5274 40.4478C66.1839 40.5154 65.8363 40.5607 65.487 40.5835C65.1178 40.6509 64.7446 40.6932 64.3697 40.7102Z" fill="#383838"/>
<path d="M56.4038 48.6218C56.0482 48.6421 55.6918 48.6421 55.3363 48.6218C54.9864 48.5613 54.6405 48.4797 54.3004 48.3776C53.9495 48.3184 53.6022 48.2399 53.26 48.1424C52.9298 48.0116 52.6079 47.8605 52.2964 47.69C51.9918 47.5077 51.6987 47.3068 51.4189 47.0884C51.1216 46.8961 50.8361 46.6862 50.564 46.4596C50.3062 46.2289 50.1523 45.8806 49.9125 45.6182C49.6728 45.3559 49.3833 45.1659 49.1707 44.8628C48.9581 44.5598 48.75 44.2974 48.5646 43.9898C48.3791 43.6822 48.3249 43.3294 48.1711 43.0082C48.0173 42.687 47.7187 42.4428 47.583 42.1035C47.4473 41.7642 47.6328 41.3481 47.5288 41.0043C47.4247 40.6605 47.2844 40.3574 47.2075 40.0091C47.1708 39.8823 47.1623 39.7489 47.1827 39.6184C47.203 39.4879 47.2516 39.3634 47.3251 39.2537C47.4744 39.0185 47.6146 38.6521 47.9087 38.5842C48.2207 38.5607 48.5307 38.6507 48.7817 38.8376C48.8877 38.9305 48.9743 39.0435 49.0364 39.17C49.0986 39.2966 49.1349 39.4342 49.1436 39.5749C49.2205 39.9006 49.2341 40.2444 49.3246 40.552C49.415 40.8596 49.6954 41.131 49.813 41.4295C49.9306 41.7281 50.0755 42.0311 50.2202 42.3342C50.3554 42.6345 50.5064 42.9274 50.6726 43.2118C50.8432 43.4937 51.0321 43.7641 51.238 44.0215C51.4497 44.2745 51.6795 44.5119 51.9256 44.7316C52.1619 44.961 52.416 45.1712 52.6855 45.3604C52.9539 45.5536 53.2366 45.726 53.5313 45.8761C53.8204 46.0506 54.1229 46.2019 54.436 46.3284C54.7639 46.3974 55.0967 46.4413 55.4313 46.4596C55.7635 46.4449 56.0944 46.4086 56.4219 46.351C56.7453 46.3576 57.0688 46.3409 57.3899 46.3013C57.7082 46.244 58.0214 46.1608 58.3262 46.0525C58.6243 45.9374 58.9131 45.7998 59.1902 45.6409C59.4901 45.5267 59.7806 45.3891 60.0588 45.2292C60.3257 45.0438 60.7644 45.0619 61.0041 44.8357C61.2439 44.6095 61.3389 44.2431 61.5515 43.9853C61.7589 43.7327 61.9493 43.4668 62.1215 43.1891C62.2876 42.9094 62.4386 42.621 62.5739 42.3252C62.7186 42.0402 62.895 41.7642 63.0262 41.4521C63.1574 41.14 63.2659 40.8505 63.3655 40.5474C63.465 40.2444 63.4559 39.9051 63.5328 39.5794C63.6115 39.2884 63.7972 39.0379 64.0529 38.8783C64.3112 38.7408 64.6127 38.7084 64.8943 38.7878C65.1838 38.8556 65.3196 39.0863 65.4688 39.317C65.5464 39.4205 65.6001 39.5399 65.6259 39.6667C65.6517 39.7934 65.6491 39.9243 65.6181 40.0498C65.5412 40.3982 65.7131 40.8053 65.6181 41.14C65.5231 41.4747 65.1115 41.719 64.9893 42.0447C64.8672 42.3704 64.7993 42.7278 64.6501 43.0399C64.5008 43.352 64.2248 43.6053 64.0484 43.8993C63.872 44.1934 63.8947 44.6412 63.6911 44.9216C63.4435 45.1754 63.1823 45.4155 62.9086 45.6409C62.6609 45.886 62.3995 46.1171 62.1259 46.333C61.859 46.5682 61.7505 46.9979 61.4655 47.1969C61.165 47.3879 60.854 47.5615 60.5338 47.7171C60.2048 47.8497 59.8678 47.9614 59.5249 48.0519C59.1843 48.1382 58.8383 48.2017 58.4891 48.2419C58.1637 48.3818 57.8297 48.5011 57.4894 48.5992C57.1283 48.6287 56.7658 48.6362 56.4038 48.6218Z" fill="#383838"/>
<path d="M39.3095 20.9565C38.9747 20.866 38.5766 21.0062 38.2736 20.8932C37.9705 20.7801 37.7127 20.4408 37.4232 20.3141C37.1524 20.1181 36.8969 19.9019 36.6588 19.6673C36.4002 19.4719 36.1595 19.2539 35.9395 19.0159C35.6861 18.8093 35.4515 18.5808 35.2383 18.3329C35.0477 18.0659 34.8754 17.7863 34.7227 17.496C34.5677 17.2022 34.4287 16.9002 34.3065 16.5913C34.1979 16.2883 34.1301 15.9716 34.0442 15.6323C33.9582 15.2931 33.6325 14.99 33.5511 14.6915C33.4425 14.307 33.2842 14.0039 33.1937 13.7189C33.0535 13.2982 33.1937 12.8776 33.0716 12.6469C32.9935 12.4672 32.8681 12.3121 32.7088 12.1982C32.5494 12.0842 32.3621 12.0157 32.1669 12C31.8457 12 31.6739 12.3121 31.4387 12.7419C31.2674 13.0385 31.1279 13.3524 31.0224 13.6782C30.9274 13.9587 30.7737 14.2708 30.6652 14.6553C30.5792 14.9538 30.3937 15.2614 30.2987 15.6323C30.2037 16.0033 30.2489 16.329 30.1358 16.632C30.0228 16.9351 29.6835 17.1703 29.5568 17.4598C29.4302 17.7493 29.5252 18.2334 29.3352 18.5002C29.1017 18.7518 28.8475 18.9833 28.5753 19.1923C28.3334 19.4254 28.0732 19.6387 27.7972 19.8301C27.5349 20.0201 27.1458 20.002 26.8427 20.1604C26.5598 20.329 26.2668 20.4801 25.9652 20.6127C25.6667 20.7213 25.3907 20.9474 25.0605 21.0379C24.7303 21.1284 24.3367 21.151 24.0337 21.2369C23.6537 21.341 23.2918 21.3636 23.0114 21.4541C22.6667 21.5499 22.3296 21.6709 22.0026 21.8159C21.8291 21.9089 21.6848 22.0481 21.5857 22.2183C21.4867 22.3884 21.4369 22.5827 21.4417 22.7794C21.4468 22.9715 21.5061 23.1583 21.6125 23.3183C21.7189 23.4784 21.8682 23.6051 22.0434 23.6841C22.3616 23.8342 22.6913 23.9582 23.0295 24.0551C23.3099 24.1501 23.6763 24.132 24.0608 24.236C24.3594 24.322 24.6624 24.5255 25.0333 24.625C25.4043 24.7245 25.7255 24.6838 26.0286 24.7969C26.3317 24.91 26.5488 25.2854 26.8338 25.4302C27.126 25.5737 27.4071 25.7385 27.6751 25.9233C27.951 26.1223 28.4712 26.0228 28.7019 26.258C28.9326 26.4932 28.9145 26.9591 29.1135 27.2351C29.3224 27.4912 29.5129 27.7618 29.6835 28.0448C29.8368 28.3381 29.9728 28.6402 30.0907 28.9495C30.2459 29.2432 30.3848 29.5452 30.5068 29.8542C30.6063 30.2251 30.5475 30.596 30.6289 30.8991C30.7375 31.2791 30.9275 31.5821 31.018 31.8671C31.1102 32.2008 31.2266 32.5274 31.3662 32.8442C31.6014 33.2739 31.8502 33.6041 32.1714 33.6041C32.3756 33.5812 32.5705 33.5064 32.7376 33.3869C32.9047 33.2673 33.0384 33.1069 33.1259 32.9211C33.2526 32.6904 33.1259 32.2652 33.2752 31.849C33.3657 31.5686 33.5194 31.2564 33.6279 30.8765C33.7139 30.5734 33.6777 30.207 33.7773 29.8361C33.9207 29.5261 34.0807 29.2241 34.2568 28.9314C34.415 28.636 34.5933 28.3519 34.7905 28.081C34.9185 27.7801 35.0697 27.4898 35.2429 27.2124C35.456 26.9632 35.6906 26.7331 35.944 26.5249C36.1715 26.2964 36.4164 26.0862 36.6768 25.8961C36.9354 25.6981 37.2075 25.5182 37.491 25.3578C37.776 25.2131 37.9932 24.9055 38.3188 24.7698C38.6445 24.6341 38.9928 24.7698 39.3321 24.6657C39.6714 24.5617 39.9428 24.1365 40.2368 24.0551C40.6213 23.9465 40.9922 24.0008 41.2727 23.9058C41.6085 23.8199 41.9379 23.7111 42.2588 23.5801C42.6885 23.3404 43.0096 23.0825 43.0096 22.7614C42.9876 22.5575 42.9137 22.3627 42.7949 22.1956C42.6762 22.0285 42.5164 21.8947 42.3311 21.8069C42.0057 21.6617 41.6701 21.5408 41.3269 21.445C41.0465 21.3545 40.7117 21.2596 40.3272 21.151C40.0332 21.0922 39.6804 21.056 39.3095 20.9565Z" fill="#FFED4F"/>
<path d="M87.6992 21.2008C87.3645 21.1103 87.066 20.9067 86.7629 20.7982C86.4599 20.6896 86.211 20.373 85.9215 20.2282C85.632 20.0834 85.1797 20.1423 84.9128 19.9523C84.6459 19.7623 84.6007 19.2783 84.3655 19.0476C84.1372 18.816 83.9298 18.5647 83.7457 18.2967C83.5557 18.0343 83.0898 17.9258 82.936 17.6182C82.7822 17.3106 82.8863 16.9215 82.7687 16.5958C82.6511 16.2702 82.6375 15.9626 82.547 15.6233C82.4566 15.284 82.1625 14.9764 82.0947 14.6734C81.9906 14.2889 81.9907 13.9315 81.9002 13.6465C81.8164 13.3014 81.7121 12.9616 81.588 12.6288C81.4971 12.462 81.3599 12.325 81.193 12.2344C81.0261 12.1437 80.8366 12.1031 80.6472 12.1176C80.3215 12.1176 80.0953 12.285 79.8601 12.7147C79.746 13.0407 79.6508 13.3729 79.5751 13.7099C79.4846 13.9903 79.4123 14.3205 79.3083 14.705C79.2223 15.0036 78.8558 15.2614 78.7518 15.6323C78.6477 16.0033 78.5935 16.2837 78.485 16.5868C78.3534 16.8903 78.2023 17.185 78.0326 17.4689C77.9029 17.7733 77.7518 18.068 77.5803 18.351C77.3773 18.6088 77.1534 18.8493 76.9108 19.0702C76.6756 19.3054 76.5896 19.717 76.3137 19.9161C76.0055 20.0618 75.6882 20.1872 75.3637 20.2915C75.0602 20.4246 74.7491 20.5394 74.4319 20.6353C74.13 20.7775 73.8204 20.9029 73.5046 21.0108C73.1337 21.1103 72.7808 21.1284 72.4823 21.2098C72.0978 21.3184 71.84 21.6621 71.5776 21.7436C71.1569 21.8838 70.7091 21.7029 70.4784 21.8295C70.3184 21.9266 70.1923 22.071 70.1177 22.2428C70.0432 22.4146 70.0238 22.6052 70.0622 22.7885C70.0532 22.9564 70.0985 23.1227 70.1914 23.2628C70.2843 23.4029 70.4198 23.5094 70.5779 23.5665C70.8827 23.7293 71.2022 23.8626 71.5323 23.9646C71.8128 24.0596 72.1204 24.227 72.5049 24.3355C72.8035 24.4215 73.1337 24.5255 73.5046 24.625C73.8755 24.7245 74.2555 24.5346 74.5586 24.6476C74.8617 24.7607 75.0923 25.1407 75.3818 25.2855C75.6936 25.415 75.9959 25.5661 76.2865 25.7378C76.5468 25.9462 76.7876 26.1778 77.0058 26.4299C77.2402 26.667 77.455 26.9226 77.6481 27.1944C77.8853 27.4362 78.1031 27.6963 78.2994 27.9724C78.3916 28.3016 78.4671 28.6353 78.5256 28.9721C78.6342 29.2752 78.6975 29.5918 78.788 29.9311C78.8785 30.2703 79.0504 30.6141 79.1318 30.9127C79.2403 31.2972 79.3625 31.6228 79.4529 31.9033C79.5932 32.324 79.566 32.722 79.6927 32.9527C79.7864 33.1249 79.9262 33.2677 80.0963 33.3652C80.2665 33.4626 80.4603 33.5109 80.6563 33.5046C80.9774 33.5046 81.1809 33.2694 81.4207 32.8397C81.6205 32.5581 81.7874 32.2545 81.9182 31.935C82.0132 31.6545 81.9182 31.27 82.0358 30.8855C82.1218 30.587 82.2259 30.2567 82.3254 29.8858C82.4249 29.5149 82.5425 29.2344 82.6511 28.9314C82.7324 28.5989 82.832 28.2712 82.9496 27.9498C83.1034 27.6422 83.5874 27.5472 83.7774 27.2803C83.9679 27.0177 84.1813 26.7724 84.4152 26.5475C84.6504 26.3168 84.6731 25.8283 84.949 25.6428C85.225 25.4573 85.6411 25.5116 85.9487 25.3533C86.2235 25.1626 86.5106 24.9904 86.8081 24.8376C87.1185 24.7091 87.4357 24.5973 87.7581 24.5029C88.129 24.4034 88.5 24.4577 88.803 24.3717C89.1875 24.2631 89.5087 24.132 89.7891 24.037C90.1244 23.9389 90.4499 23.8102 90.7616 23.6525C90.9323 23.5831 91.0795 23.466 91.1854 23.3151C91.2913 23.1643 91.3515 22.9862 91.3588 22.8021C91.3588 22.4764 91.1642 22.2366 90.7345 22.0014C90.4149 21.8709 90.087 21.7621 89.7529 21.6757C89.4679 21.5852 89.2146 21.2234 88.8482 21.1284C88.5044 21.0334 88.0701 21.3003 87.6992 21.2008Z" fill="#FFED4F"/>
<path d="M61.0299 32.0119C60.9876 32.3063 60.8943 32.591 60.7541 32.8533C60.6807 33.1343 60.5565 33.3996 60.3876 33.6359C60.1887 33.8503 59.9584 34.0333 59.7046 34.1787C59.3982 34.4126 59.0581 34.5987 58.6959 34.7305C58.318 34.813 57.9334 34.8614 57.5469 34.8753C57.1678 34.9307 56.7855 34.9624 56.4024 34.9703C56.0187 34.9718 55.6351 34.9522 55.2535 34.9115C54.8758 34.8479 54.5048 34.7495 54.1452 34.6174C53.7742 34.5283 53.4177 34.3866 53.0867 34.1968C52.8553 34.024 52.6537 33.8147 52.4897 33.5771C52.2906 33.3464 52.0373 33.1699 51.9197 32.8985C51.8705 32.599 51.8705 32.2934 51.9197 31.9938C51.9068 31.7089 51.9451 31.4239 52.0328 31.1525C52.1012 30.8693 52.2207 30.601 52.3856 30.3609C52.59 30.1486 52.8228 29.9659 53.0776 29.818C53.3922 29.5927 53.7361 29.4115 54.0999 29.2798C54.4741 29.187 54.8554 29.1265 55.2399 29.0988C55.6226 29.0782 56.0061 29.0782 56.3889 29.0988C56.7738 29.0632 57.1604 29.0496 57.5469 29.0581C57.9319 29.103 58.312 29.1832 58.6823 29.2979C59.0399 29.4404 59.3751 29.6339 59.6774 29.8723C59.9324 30.0129 60.1669 30.1879 60.3741 30.3925C60.5616 30.6181 60.7071 30.8755 60.8038 31.1525C60.9259 31.4246 61.0023 31.715 61.0299 32.0119Z" fill="#FFB3C5"/>
<defs>
<filter id="filter0_i_1153_9950" x="0" y="-4" width="112" height="64" filterUnits="userSpaceOnUse" color-interpolation-filters="sRGB">
<feFlood flood-opacity="0" result="BackgroundImageFix"/>
<feBlend mode="normal" in="SourceGraphic" in2="BackgroundImageFix" result="shape"/>
<feColorMatrix in="SourceAlpha" type="matrix" values="0 0 0 0 0 0 0 0 0 0 0 0 0 0 0 0 0 0 127 0" result="hardAlpha"/>
<feOffset dy="-4"/>
<feGaussianBlur stdDeviation="5"/>
<feComposite in2="hardAlpha" operator="arithmetic" k2="-1" k3="1"/>
<feColorMatrix type="matrix" values="0 0 0 0 0.341176 0 0 0 0 0.615686 0 0 0 0 1 0 0 0 0.3 0"/>
<feBlend mode="normal" in2="shape" result="effect1_innerShadow_1153_9950"/>
</filter>
</defs>
</svg>
