<svg width="157" height="158" viewBox="0 0 157 158" fill="none" xmlns="http://www.w3.org/2000/svg">
<rect width="156.296" height="156.296" fill="white"/>
<path d="M127.724 51.6771C127.599 56.7346 125.692 61.5857 122.34 65.3746C121.067 66.4683 119.659 67.3947 118.15 68.1315C115.362 70.02 112.025 70.9287 108.664 70.7147C105.285 70.9225 101.92 70.1292 98.9891 68.4342C96.0585 66.7392 93.6929 64.2176 92.1879 61.185C90.432 58.3131 89.4383 55.0405 89.3008 51.6771C89.3964 49.9991 89.7177 48.3416 90.2559 46.7494C90.6511 45.1289 91.2569 43.5671 92.0577 42.1039C92.8699 40.6283 93.8695 39.2638 95.0317 38.0446C96.2486 36.8978 97.6138 35.9194 99.091 35.1358C100.504 34.2065 102.038 33.476 103.65 32.965C105.298 32.6211 106.984 32.497 108.664 32.596C112.004 32.61 115.3 33.3508 118.324 34.7667C119.716 35.7131 120.985 36.8288 122.101 38.088C123.347 39.208 124.441 40.4849 125.357 41.8869C126.227 43.337 126.891 44.9003 127.333 46.5323C127.686 48.223 127.817 49.9525 127.724 51.6771Z" fill="#C8D2ED"/>
<path d="M153.06 123.965C152.018 121.795 151.041 122.359 149.196 120.883C147.35 119.407 147.025 119.928 145.093 118.452C143.161 116.975 142.922 117.279 141.185 115.803C139.449 114.327 139.818 113.763 137.994 112.287C136.171 110.811 135.824 111.201 134 109.703C132.177 108.206 132.763 107.533 130.939 106.013C129.116 104.494 129.051 104.602 127.206 103.126C125.36 101.65 124.796 102.344 122.864 100.955C120.932 99.5659 121.648 98.7844 119.803 97.2432C117.958 95.7019 117.285 96.6136 115.462 95.0724C113.638 93.5312 113.855 93.2924 112.01 91.8162C110.165 90.3401 109.839 90.644 108.059 89.1679C106.757 88.1259 105.541 86.5413 103.978 86.5413C102.259 86.6665 100.625 87.3355 99.3112 88.4515C97.249 90.1013 97.3357 90.2099 95.2735 91.8814C93.2112 93.5529 93.385 93.7482 91.3011 95.398C89.2171 97.0478 89.3039 97.1346 87.22 98.8061C85.136 100.478 85.6353 101.563 82.8784 101.693C80.1216 101.824 80.7077 100.868 78.9711 99.4139C77.2345 97.9595 77.3864 97.6122 75.5629 96.1578C73.7395 94.7034 73.9782 94.356 72.1331 92.8799L68.5947 89.8843C66.7713 88.4081 66.424 88.712 64.6873 87.2359C62.9507 85.7598 63.1461 85.3907 61.3227 83.8929C59.4992 82.3951 59.6295 82.2648 57.7843 80.7887C55.9391 79.3126 55.6135 79.8336 53.7032 78.3357C51.7929 76.8379 51.9883 76.7076 50.1431 75.2098C48.298 73.712 48.4282 73.5817 46.583 72.1056C45.1403 71.3149 43.4736 71.032 41.8508 71.3024C40.2482 71.0792 38.6174 71.4084 37.227 72.2358C35.447 73.6686 36.0331 74.4066 34.253 75.8611C32.473 77.3155 31.5613 76.2084 29.7813 77.6628C28.0012 79.1172 28.4571 79.6816 26.6553 81.136C24.8536 82.5905 24.4845 82.0912 22.6828 83.5456C20.881 85 21.185 85.369 19.3833 86.8235C17.5816 88.2779 18.0591 88.8423 16.2574 90.2967C14.4556 91.7511 14.2168 91.4472 12.4368 92.9016C10.6568 94.356 10.0489 93.618 8.22548 95.0724C6.40203 96.5268 6.05471 96.3749 4.96932 98.4805C3.88393 100.586 5.75077 100.912 5.75077 103.321C5.75077 105.731 4.53514 105.731 4.53514 108.14C4.53514 110.55 4.99105 110.55 4.99105 112.96C4.99105 115.369 5.42523 115.369 5.42523 117.779C5.42523 120.188 4.77389 120.188 4.77389 122.598C4.77389 125.007 5.46856 125.007 5.46856 127.395C5.46856 129.783 4.33984 129.805 4.33984 132.214C4.33984 134.624 4.5786 134.646 4.5786 137.055C4.5786 139.465 5.70744 139.465 5.70744 141.874C5.70744 144.284 4.36144 144.284 4.36144 146.693C4.36144 149.103 5.46856 149.103 5.46856 151.534C5.46856 153.965 3.73194 154.269 5.46856 155.876C7.20518 157.482 7.53083 155.55 9.9838 155.55C12.4368 155.55 12.4368 155.832 14.8898 155.832C17.3427 155.832 17.3428 156.201 19.8175 156.201C22.2922 156.201 22.2703 156.418 24.7233 156.418C27.1763 156.418 27.1763 155.594 29.6293 155.594C32.0823 155.594 32.0823 155.811 34.557 155.811C37.0317 155.811 37.01 156.722 39.463 156.722C41.9159 156.722 41.916 155.789 44.3689 155.789C46.8219 155.789 46.8218 156.245 49.2748 156.245C51.7277 156.245 51.7278 156.961 54.1807 156.961C56.6337 156.961 56.6337 155.767 59.0867 155.767C61.5397 155.767 61.5397 155.615 63.9927 155.615C66.4457 155.615 66.4674 155.615 68.9204 155.615C71.3734 155.615 71.3732 155.615 73.8262 155.615C76.2792 155.615 76.2792 156.831 78.7322 156.831C81.1852 156.831 81.1852 156.18 83.6599 156.18C86.1346 156.18 86.1129 155.767 88.5659 155.767C91.0188 155.767 91.0189 156.245 93.4718 156.245C95.9248 156.245 95.9464 155.832 98.3994 155.832C100.852 155.832 100.852 155.702 103.305 155.702C105.758 155.702 105.78 155.702 108.233 155.702C110.686 155.702 110.686 156.158 113.139 156.158H118.067C120.52 156.158 120.52 157.026 122.973 157.026C125.426 157.026 125.447 155.984 127.9 155.984C130.353 155.984 130.353 156.636 132.828 156.636C135.303 156.636 135.281 156.115 137.734 156.115C140.187 156.115 140.209 156.31 142.662 156.31C145.114 156.31 145.136 156.722 147.589 156.722C150.042 156.722 150.303 157.504 152.104 155.832C153.906 154.161 152.104 154.009 152.104 151.708C152.104 149.407 152.452 149.537 152.452 147.128C152.452 144.718 153.081 144.827 153.081 142.526C153.081 140.224 152.864 140.355 152.864 137.945C152.864 135.536 152.321 135.644 152.321 133.343C152.321 131.042 151.518 130.89 151.974 128.633C152.43 126.375 154.058 126.049 153.06 123.965Z" fill="#C8D2ED"/>
<rect opacity="0.3" width="156.296" height="156.296" fill="#354E80"/>
<circle cx="79" cy="86" r="24" fill="white"/>
<path d="M70.0312 85.9961C70.0312 85.1289 70.7461 84.4258 71.6133 84.4258H77.918V78.1211C77.918 77.2539 78.6211 76.5391 79.4883 76.5391C80.3672 76.5391 81.0703 77.2539 81.0703 78.1211V84.4258H87.375C88.2422 84.4258 88.957 85.1289 88.957 85.9961C88.957 86.875 88.2422 87.5781 87.375 87.5781H81.0703V93.8828C81.0703 94.75 80.3672 95.4648 79.4883 95.4648C78.6211 95.4648 77.918 94.75 77.918 93.8828V87.5781H71.6133C70.7461 87.5781 70.0312 86.875 70.0312 85.9961Z" fill="#5E9BF0"/>
</svg>
