<svg width="653" height="306" viewBox="0 0 653 306" fill="none" xmlns="http://www.w3.org/2000/svg">
<path d="M1.12324 233.486C1.12324 232.419 0.856459 231.352 0.952498 230.37C1.23188 229.365 1.56312 228.375 1.9449 227.404C2.13698 226.337 2.2757 225.376 2.56382 224.395C2.9027 223.433 3.29094 222.489 3.72697 221.567C4.11113 220.606 4.06844 219.433 4.53797 218.547C5.00749 217.661 6.25601 217.181 6.8109 216.327C7.29159 215.433 7.81874 214.563 8.39021 213.724C9.03048 212.923 9.14785 211.653 9.85214 210.907C10.5564 210.16 11.5702 209.701 12.3492 209.039C13.1281 208.377 14.0992 207.972 14.9422 207.364C16.2548 206.446 15.892 205.923 17.2045 205.006C18.517 204.088 18.6878 204.333 20.0003 203.415C21.3128 202.498 21.601 202.893 22.9135 201.975C24.226 201.057 23.9806 200.673 25.2611 199.745C26.5416 198.816 27.0432 199.499 28.3557 198.582C29.6683 197.664 29.5616 197.514 30.8741 196.575C32.1866 195.636 31.7811 195.081 33.0937 194.164C34.4062 193.246 34.9398 194.004 36.295 193.097C37.6502 192.19 36.9779 191.261 38.2905 190.343C39.603 189.426 39.5923 189.404 40.9049 188.487C42.2174 187.569 42.6656 188.22 43.9781 187.292C45.2907 186.363 45.1413 186.16 46.4538 185.243C47.7663 184.325 47.5956 184.08 48.9081 183.109C50.2207 182.137 50.3701 182.394 51.6826 181.476C52.9952 180.558 53.0272 180.601 54.3397 179.683C55.6522 178.765 55.8123 178.989 57.1248 178.072C58.4374 177.154 58.0532 176.61 59.3764 175.692C60.6996 174.774 60.9771 175.18 62.2896 174.262C63.6022 173.344 63.4421 173.099 64.7546 172.128C66.0672 171.157 66.3019 171.552 67.6252 170.634C68.9484 169.716 68.6069 169.257 69.9194 168.329C71.232 167.401 71.3173 167.539 72.6405 166.622C73.9637 165.704 74.2519 166.131 75.5644 165.213C76.8769 164.295 76.7809 164.146 78.0934 163.228C79.406 162.311 79.4166 162.332 80.7292 161.414C82.0417 160.497 82.1271 160.614 83.4503 159.696C84.7735 158.779 84.2613 158.064 85.5845 157.146C86.9077 156.228 87.0678 156.463 88.3803 155.545C89.6929 154.627 89.4474 154.35 90.8133 153.411C92.1792 152.472 92.0832 152.419 93.3957 151.501C94.7082 150.583 94.9537 150.935 96.2662 150.007C97.5788 149.079 97.7281 149.313 99.0407 148.396C100.353 147.478 100.641 147.883 101.954 146.966C103.266 146.048 102.573 145.066 103.885 144.149C105.198 143.231 105.742 144.01 107.087 143.081C108.431 142.153 108.421 142.196 109.733 141.278C111.046 140.36 111.12 140.467 112.433 139.549C113.745 138.632 113.329 138.013 114.642 137.095C115.954 136.177 116.168 136.487 117.48 135.569C118.793 134.651 118.846 134.715 120.159 133.798C121.471 132.88 120.97 132.165 122.293 131.247C123.616 130.329 123.979 130.863 125.291 129.945C126.604 129.028 126.529 128.878 127.842 128.014L130.467 126.178C131.779 125.261 131.534 124.909 132.847 124.044C134.159 123.18 134.287 123.308 135.6 122.39C136.912 121.473 137.072 121.707 138.385 120.79C139.697 119.872 139.74 119.925 141.053 119.008C142.365 118.09 142.408 118.154 143.731 117.236C145.054 116.319 144.681 115.796 145.993 114.878C147.306 113.96 147.562 114.323 148.874 113.395C150.187 112.466 150.059 112.327 151.382 111.388C152.705 110.449 152.929 110.812 154.242 109.884C155.555 108.956 155.821 109.35 157.134 108.433C158.446 107.515 158.265 107.248 159.577 106.298C160.89 105.349 160.517 104.858 161.829 103.94C163.142 103.022 163.27 103.182 164.582 102.265C165.895 101.347 166.055 101.582 167.367 100.664C168.68 99.7464 168.328 99.2341 169.64 98.3164C170.953 97.3987 170.857 97.2493 172.169 96.3316C173.482 95.4139 174.165 96.3316 175.477 95.4566C176.79 94.5816 176.15 93.6318 177.473 92.7141L180.098 90.868C181.41 89.9503 182.104 90.9534 183.417 90.0357C184.729 89.1179 184.676 89.0326 185.988 88.1149C187.301 87.1972 186.757 86.4183 188.069 85.4899C189.382 84.5615 189.403 84.5828 190.716 83.6651C192.028 82.7474 192.604 83.5584 193.917 82.598C195.229 81.6376 195.176 81.6057 196.489 80.6879C197.801 79.7702 197.406 79.194 198.719 78.2763C200.031 77.3586 199.914 77.2092 201.227 76.2594C202.539 75.3097 202.518 75.3097 203.83 74.392C205.143 73.4743 205.388 73.8157 206.701 72.898C208.013 71.9803 207.981 71.9269 209.305 70.9986C210.628 70.0702 210.564 70.0168 211.887 69.0991C213.21 68.1814 212.954 67.8933 214.309 66.9649C215.664 66.0365 216.123 66.7408 217.436 65.8231C218.748 64.9054 218.258 64.2011 219.57 63.2834C220.883 62.3657 221.384 63.0594 222.697 62.1417C224.009 61.224 223.87 61.0745 225.183 60.1035C226.496 59.1324 226.762 59.5486 228.075 58.6309C229.387 57.7132 229.217 57.4571 230.529 56.4967L233.165 54.6506C234.478 53.7329 234.648 53.9783 235.961 53.0606C237.273 52.1429 237.113 51.8975 238.426 50.9264C239.738 49.9553 239.568 49.7526 240.88 48.7922C242.193 47.8318 241.947 47.4477 243.206 46.5299C244.466 45.6122 244.69 45.847 246.002 44.9293C247.315 44.0116 247.251 43.8621 248.563 42.9871C249.876 42.1121 250.239 42.5923 251.562 41.6746L254.187 39.8285C255.499 38.9108 255.617 39.0815 256.94 38.1638C258.263 37.246 257.9 36.7339 259.213 35.8162C260.526 34.8985 260.493 34.8451 261.806 33.9274C263.119 33.0097 263.407 33.4045 264.719 32.4761C266.032 31.5478 265.989 31.4944 267.302 30.566C268.614 29.6376 268.796 29.8937 270.108 28.9653C271.421 28.0369 271.261 27.8129 272.584 26.8952C273.907 25.9775 273.79 25.8281 275.102 24.889C276.415 23.95 276.105 23.5231 277.418 22.5947C278.73 21.6664 278.986 22.0292 280.299 21.1115C281.611 20.1938 281.814 20.4712 283.127 19.5428C284.439 18.6145 284.066 18.0809 285.378 17.1525C286.691 16.2242 287.16 16.8965 288.473 15.9681C289.785 15.0397 289.604 14.7729 290.927 13.8339C292.251 12.8948 292.411 13.1402 293.734 12.2225C295.057 11.3048 295.132 11.4115 296.444 10.4831C297.341 9.85355 298.152 9.14923 299.069 8.58367C299.987 8.01811 300.915 7.51655 301.876 6.96165C302.836 6.40676 303.476 5.2863 304.469 4.82744C305.461 4.36859 306.496 3.97386 307.51 3.5897C308.524 3.20554 309.708 3.25877 310.711 2.92797C311.714 2.59717 312.942 2.92809 313.998 2.65064C315.055 2.37319 316.058 2.08498 317.125 1.88223C318.192 1.67948 319.259 1.46604 320.326 1.32731C321.393 1.18859 322.46 0.527053 323.527 0.463026C324.594 0.399 325.662 0.644481 326.793 0.644481C327.924 0.644481 328.991 -0.0599117 330.079 0.00411453C331.168 0.0681408 332.288 0.0681981 333.366 0.196251C334.444 0.324303 335.436 1.16728 336.503 1.35936C337.57 1.55144 338.638 1.7009 339.705 1.96768C340.772 2.23446 341.956 2.07429 342.991 2.39442C344.026 2.71455 344.741 3.98452 345.755 4.37934C346.769 4.77417 348.113 4.37924 349.106 4.80608C350.098 5.23292 351.155 5.63843 352.115 6.15064C353.075 6.66285 353.449 8.18888 354.377 8.75444C355.306 9.32001 356.405 9.5761 357.301 10.2057C358.614 11.1234 358.368 11.4968 359.659 12.4145C360.951 13.3322 361.345 12.8095 362.658 13.7272C363.971 14.6449 363.81 14.8689 365.134 15.7866L367.759 17.622C369.071 18.5397 369.199 18.3584 370.512 19.2761C371.824 20.1938 372.081 19.8417 373.393 20.7594C374.706 21.6771 374.151 22.4667 375.527 23.3844C376.904 24.3021 377.021 24.046 378.334 24.9637C379.646 25.8814 379.774 25.7 381.098 26.6178C382.421 27.5355 382.165 27.8876 383.467 28.752C384.768 29.6163 384.918 29.4776 386.23 30.3953C387.543 31.313 387.596 31.2489 388.909 32.1666C390.221 33.0843 390.243 33.0631 391.555 33.9808C392.868 34.8985 392.836 34.9305 394.148 35.8589C395.461 36.7873 395.674 36.4778 396.987 37.3955C398.299 38.3132 398.193 38.4626 399.505 39.3803C400.818 40.298 400.754 40.4474 402.066 41.3225C403.379 42.1975 403.581 41.952 404.894 42.8804C406.207 43.8088 405.886 44.257 407.199 45.1747C408.511 46.0924 408.885 45.5588 410.198 46.4872C411.51 47.4156 411.158 47.9064 412.47 48.8241C413.783 49.7418 413.74 49.8166 415.053 50.7343C416.365 51.652 416.28 51.8013 417.593 52.687C418.905 53.5727 419.065 53.3806 420.378 54.2984C421.69 55.2161 422.074 54.6826 423.387 55.6003C424.699 56.518 424.657 56.582 425.969 57.4997C427.282 58.4174 427.314 58.3748 428.626 59.2925C429.939 60.2102 429.32 61.0959 430.643 62.0136C431.966 62.9313 432.607 62.0136 433.919 62.9206C435.232 63.8277 434.858 64.3719 436.181 65.2896C437.505 66.2073 437.441 66.2714 438.764 67.1997C440.087 68.1281 439.831 68.4589 441.143 69.3339C442.456 70.209 442.477 70.2196 443.79 71.1373C445.102 72.055 445.775 71.1373 447.087 72.0017C448.4 72.8661 447.824 73.7517 449.136 74.6695C450.449 75.5872 450.961 74.8509 452.273 75.7366C453.586 76.6223 453.223 77.1771 454.536 78.0948C455.848 79.0125 456.286 78.3829 457.598 79.3007C458.911 80.2184 458.58 80.7092 459.892 81.6269C461.205 82.5446 460.96 82.8434 462.304 83.7611C463.649 84.6788 463.606 84.7002 464.919 85.618C466.231 86.5357 466.263 86.4929 467.565 87.4106C468.867 88.3283 468.984 88.1789 470.297 89.0966C471.609 90.0143 471.535 90.1638 472.847 91.0388C474.16 91.9138 474.064 92.1059 475.376 93.0129C476.689 93.9199 477.19 93.205 478.503 94.08C479.815 94.955 479.655 95.2326 480.968 96.1503C482.28 97.068 482.355 96.9719 483.668 97.8896C484.98 98.8074 484.852 98.9566 486.165 99.9064C487.477 100.856 487.093 101.379 488.416 102.297C489.739 103.215 490.252 102.457 491.564 103.364C492.877 104.271 492.813 104.431 494.125 105.295C495.438 106.16 495.192 106.522 496.537 107.429C497.881 108.337 497.967 108.187 499.279 109.105C500.592 110.022 500.474 110.172 501.787 111.111C503.1 112.05 503.537 111.399 504.85 112.327C506.162 113.256 505.479 114.216 506.792 115.134C508.104 116.052 508.713 115.134 509.993 116.105C511.274 117.076 510.996 117.471 512.309 118.389C513.621 119.306 514.005 118.773 515.318 119.691C516.63 120.608 516.588 120.683 517.9 121.601C519.213 122.518 518.562 123.457 519.874 124.375C521.187 125.293 521.731 124.514 523.076 125.442C524.42 126.371 524.58 126.082 525.893 127C527.205 127.918 527.077 128.067 528.39 129.028C529.702 129.988 529.372 130.426 530.684 131.343C531.997 132.261 531.751 132.634 533.053 133.552C534.355 134.47 534.515 134.278 535.828 135.196C537.14 136.113 537.012 136.263 538.325 137.223C539.637 138.183 540.267 137.223 541.579 138.162C542.892 139.101 542.454 139.709 543.714 140.627C544.973 141.545 545.154 141.374 546.467 142.292C547.779 143.21 547.598 143.487 548.91 144.426C550.223 145.365 550.511 144.938 551.824 145.867C553.136 146.795 553.051 146.934 554.374 147.819C555.697 148.705 555.441 149.121 556.732 150.039C558.023 150.957 558.696 150.039 560.008 150.957C561.321 151.874 560.979 152.376 562.292 153.294C563.604 154.211 563.242 154.745 564.554 155.663C565.867 156.58 566.336 155.919 567.649 156.836C568.961 157.754 568.716 158.053 570.071 158.971C571.426 159.888 571.138 160.262 572.451 161.18C573.763 162.097 574.382 161.18 575.652 162.14C576.922 163.1 576.719 163.367 578.074 164.274C579.43 165.181 579.461 165.096 580.774 166.014C582.087 166.931 581.905 167.198 583.218 168.148C584.53 169.097 584.85 168.607 586.163 169.524C587.475 170.442 587.39 170.591 588.703 171.488C590.015 172.384 589.908 172.555 591.221 173.494C592.534 174.433 592.288 174.838 593.558 175.756C594.828 176.674 595.201 176.204 596.514 177.122C597.826 178.04 597.773 178.189 599.086 179.053C600.398 179.918 600.249 180.195 601.561 181.113C602.874 182.031 603.076 181.753 604.389 182.671C605.702 183.589 605.776 183.503 607.089 184.421C608.401 185.339 607.985 185.936 609.298 186.865C610.61 187.793 610.6 187.804 611.923 188.722C613.246 189.639 613.865 188.721 615.188 189.671C616.511 190.621 616.255 190.984 617.536 191.912C618.816 192.841 619.136 192.424 620.46 193.353C621.783 194.281 621.676 194.42 622.999 195.316C624.323 196.213 623.832 196.927 625.134 197.845C626.435 198.763 626.499 198.699 627.823 199.627C629.146 200.556 629.669 199.798 631.024 200.694C632.379 201.591 632.166 201.868 633.489 202.829C634.812 203.789 634.492 204.205 635.815 205.134C637.138 206.062 637.17 206.009 638.494 206.926C639.337 207.524 640.436 207.78 641.215 208.442C641.994 209.103 642.442 210.138 643.157 210.875C643.872 211.611 644.288 212.571 644.928 213.372C645.647 214.097 646.327 214.859 646.966 215.655C647.521 216.509 648.343 217.224 648.823 218.131C649.303 219.038 650.018 219.87 650.403 220.82C650.787 221.77 650.061 223.103 650.403 224.085C650.744 225.067 651.726 225.857 651.929 226.86C652.131 227.863 652.569 228.866 652.665 229.89C652.761 230.915 651.672 232.025 651.672 233.017C651.672 234.65 652.932 234.65 652.932 236.282C652.932 237.915 651.672 237.915 651.672 239.484C651.672 241.052 652.526 241.116 652.526 242.749C652.526 244.382 652.27 244.382 652.27 246.014C652.27 247.647 652.451 247.647 652.451 249.28C652.451 250.912 651.683 250.912 651.683 252.545C651.683 254.178 652.91 254.167 652.91 255.746C652.91 257.326 652.59 257.379 652.59 259.012C652.59 260.644 652.718 260.644 652.718 262.277C652.718 263.91 652.718 263.91 652.718 265.478C652.718 267.047 652.046 267.111 652.046 268.744C652.046 270.376 651.865 270.376 651.865 272.009C651.865 273.642 651.939 273.642 651.939 275.274C651.939 276.907 651.939 276.907 651.939 278.54C651.939 280.172 651.939 280.172 651.939 281.805C651.939 283.438 651.726 283.438 651.726 285.07C651.726 286.703 652.089 286.703 652.089 288.346C652.089 289.99 652.185 289.979 652.185 291.548C652.185 293.116 652.579 293.191 652.579 294.824C652.579 296.456 652.259 296.456 652.259 298.089C652.259 299.722 652.74 299.722 652.74 301.354C652.74 302.987 652.249 302.998 652.249 304.63C652.249 306.263 653.422 306.764 652.249 307.96C651.075 309.155 650.595 308.258 648.994 308.258C647.393 308.258 647.393 307.576 645.793 307.576C644.192 307.576 644.192 307.8 642.591 307.8C640.991 307.8 640.991 307.469 639.39 307.469C637.789 307.469 637.789 308.002 636.189 308.002C634.588 308.002 634.588 308.184 632.987 308.184C631.387 308.184 631.387 308.451 629.786 308.451C628.185 308.451 628.185 307.981 626.585 307.981C624.984 307.981 624.984 307.501 623.384 307.501C621.783 307.501 621.783 307.319 620.182 307.319C618.582 307.319 618.582 307.874 616.981 307.874C615.38 307.874 615.38 308.269 613.78 308.269C612.179 308.269 612.179 307.405 610.578 307.405C608.978 307.405 608.978 307.554 607.377 307.554C605.776 307.554 605.776 308.429 604.176 308.429C602.575 308.429 602.575 308.429 600.974 308.429C599.374 308.429 599.363 307.768 597.773 307.768C596.183 307.768 596.172 307.362 594.572 307.362C592.971 307.362 592.971 308.429 591.37 308.429C589.77 308.429 589.77 307.81 588.169 307.81C586.568 307.81 586.568 308.045 584.968 308.045C583.367 308.045 583.367 308.525 581.766 308.525C580.166 308.525 580.166 307.458 578.565 307.458C576.965 307.458 576.965 308.386 575.364 308.386C573.763 308.386 573.763 307.319 572.163 307.319C570.562 307.319 570.551 308.152 568.961 308.152C567.371 308.152 567.361 307.351 565.76 307.351C564.159 307.351 564.159 308.418 562.559 308.418C560.958 308.418 560.958 308.109 559.357 308.109C557.757 308.109 557.757 307.341 556.156 307.341C554.555 307.341 554.555 307.341 552.955 307.341C551.354 307.341 551.354 308.002 549.753 308.002C548.153 308.002 548.153 307.864 546.552 307.864C544.951 307.864 544.951 307.437 543.351 307.437C541.75 307.437 541.75 308.504 540.149 308.504C538.549 308.504 538.549 308.013 536.948 308.013C535.347 308.013 535.347 307.554 533.747 307.554C532.146 307.554 532.146 308.557 530.545 308.557C528.945 308.557 528.945 307.298 527.344 307.298H524.143C522.542 307.298 522.542 308.365 520.942 308.365C519.341 308.365 519.341 307.597 517.74 307.597C516.14 307.597 516.14 308.568 514.539 308.568C512.938 308.568 512.938 307.426 511.338 307.426C509.737 307.426 509.737 307.672 508.136 307.672C506.536 307.672 506.536 307.8 504.935 307.8C503.334 307.8 503.334 307.533 501.734 307.533C500.133 307.533 500.133 307.938 498.532 307.938C496.932 307.938 496.932 308.002 495.331 308.002C493.73 308.002 493.73 307.949 492.13 307.949C490.529 307.949 490.529 308.333 488.928 308.333C487.328 308.333 487.328 307.8 485.727 307.8C484.126 307.8 484.126 307.8 482.526 307.8C480.925 307.8 480.925 307.565 479.324 307.565C477.724 307.565 477.724 308.397 476.123 308.397H472.922C471.321 308.397 471.321 308.205 469.721 308.205C468.12 308.205 468.12 307.33 466.519 307.33C464.919 307.33 464.919 307.757 463.318 307.757H460.117C458.516 307.757 458.516 308.056 456.915 308.056C455.315 308.056 455.315 308.322 453.714 308.322C452.113 308.322 452.113 308.12 450.513 308.12C448.912 308.12 448.901 307.458 447.311 307.458C445.721 307.458 445.711 308.024 444.11 308.024C442.509 308.024 442.509 308.312 440.909 308.312C439.308 308.312 439.297 308.472 437.707 308.472C436.117 308.472 436.107 307.618 434.506 307.618C432.905 307.618 432.895 307.287 431.305 307.287H428.103C426.492 307.287 426.492 308.504 424.902 308.504C423.312 308.504 423.302 307.554 421.701 307.554C420.1 307.554 420.1 307.896 418.5 307.896C416.899 307.896 416.899 308.461 415.298 308.461C413.698 308.461 413.687 307.8 412.097 307.8C410.507 307.8 410.496 308.205 408.896 308.205C407.295 308.205 407.295 307.533 405.694 307.533C404.094 307.533 404.094 308.226 402.493 308.226C400.892 308.226 400.892 307.832 399.292 307.832C397.691 307.832 397.691 307.96 396.09 307.96C394.49 307.96 394.49 307.778 392.889 307.778C391.288 307.778 391.278 307.405 389.688 307.405C388.098 307.405 388.087 308.056 386.486 308.056C384.886 308.056 384.886 307.49 383.285 307.49C381.684 307.49 381.674 307.362 380.084 307.362C378.494 307.362 378.483 307.746 376.883 307.746C375.282 307.746 375.271 308.429 373.681 308.429C372.091 308.429 372.081 307.362 370.48 307.362C368.879 307.362 368.879 307.479 367.279 307.479C365.678 307.479 365.667 307.629 364.077 307.629C362.487 307.629 362.477 308.418 360.876 308.418C359.275 308.418 359.265 307.704 357.675 307.704C356.085 307.704 356.074 307.704 354.473 307.704C352.873 307.704 352.873 307.864 351.272 307.864C349.671 307.864 349.671 308.322 348.071 308.322C346.47 308.322 346.47 307.789 344.869 307.789C343.269 307.789 343.269 307.789 341.668 307.789C340.067 307.789 340.067 307.597 338.467 307.597C336.866 307.597 336.866 308.056 335.265 308.056C333.665 308.056 333.654 308.386 332.064 308.386C330.474 308.386 330.464 308.184 328.863 308.184C327.262 308.184 327.252 307.778 325.662 307.778C324.072 307.778 324.061 307.96 322.46 307.96C320.86 307.96 320.86 308.258 319.259 308.258C317.658 308.258 317.648 308.184 316.058 308.184C314.468 308.184 314.457 307.725 312.856 307.725C311.256 307.725 311.245 308.44 309.655 308.44C308.065 308.44 308.054 308.301 306.454 308.301C304.853 308.301 304.842 307.96 303.252 307.96C301.662 307.96 301.652 307.629 300.051 307.629C298.45 307.629 298.45 308.536 296.85 308.536C295.249 308.536 295.249 307.704 293.648 307.704C292.048 307.704 292.048 307.341 290.447 307.341C288.846 307.341 288.846 308.162 287.246 308.162C285.645 308.162 285.634 308.066 284.044 308.066C282.454 308.066 282.444 308.333 280.843 308.333C279.243 308.333 279.243 307.842 277.642 307.842C276.041 307.842 276.031 307.351 274.441 307.351C272.851 307.351 272.84 307.597 271.239 307.597C269.639 307.597 269.628 308.344 268.038 308.344C266.448 308.344 266.437 307.746 264.837 307.746C263.236 307.746 263.225 308.6 261.635 308.6C260.045 308.6 260.035 307.65 258.434 307.65C256.833 307.65 256.823 308.493 255.233 308.493C253.643 308.493 253.621 307.426 252.031 307.426C250.441 307.426 250.431 307.97 248.83 307.97H245.629C244.028 307.97 244.028 308.301 242.427 308.301C240.827 308.301 240.827 308.237 239.226 308.237C237.625 308.237 237.625 308.483 236.025 308.483C234.424 308.483 234.424 307.415 232.823 307.415C231.223 307.415 231.212 308.12 229.622 308.12C228.032 308.12 228.022 307.458 226.421 307.458C224.82 307.458 224.82 308.184 223.22 308.184C221.619 308.184 221.608 308.472 220.018 308.472C218.428 308.472 218.418 307.928 216.817 307.928C215.216 307.928 215.216 308.152 213.616 308.152C212.015 308.152 212.004 307.682 210.414 307.682C208.824 307.682 208.814 307.938 207.213 307.938C205.612 307.938 205.602 307.672 204.012 307.672C202.422 307.672 202.411 307.437 200.81 307.437C199.21 307.437 199.21 307.33 197.609 307.33C196.008 307.33 196.008 307.938 194.408 307.938C192.807 307.938 192.807 307.938 191.206 307.938C189.606 307.938 189.606 307.682 188.005 307.682C186.404 307.682 186.394 308.034 184.804 308.034C183.214 308.034 183.192 307.277 181.603 307.277C180.013 307.277 180.002 307.49 178.401 307.49C176.801 307.49 176.79 308.034 175.2 308.034C173.61 308.034 173.599 307.309 171.999 307.309C170.398 307.309 170.398 307.864 168.797 307.864C167.197 307.864 167.197 308.226 165.596 308.226C163.995 308.226 163.995 308.515 162.395 308.515C160.794 308.515 160.794 307.821 159.193 307.821C157.593 307.821 157.582 307.554 155.992 307.554C154.402 307.554 154.391 307.49 152.791 307.49C151.19 307.49 151.19 308.098 149.589 308.098C147.989 308.098 147.989 308.397 146.388 308.397C144.787 308.397 144.787 307.981 143.187 307.981C141.586 307.981 141.586 307.768 139.985 307.768C138.385 307.768 138.385 308.12 136.784 308.12C135.184 308.12 135.184 307.757 133.583 307.757C131.982 307.757 131.972 307.319 130.382 307.319C128.792 307.319 128.781 307.704 127.18 307.704C125.58 307.704 125.58 308.472 123.979 308.472C122.378 308.472 122.368 307.405 120.778 307.405C119.188 307.405 119.177 307.607 117.576 307.607C115.976 307.607 115.976 307.458 114.375 307.458C112.774 307.458 112.764 308.301 111.174 308.301C109.584 308.301 109.562 308.152 107.972 308.152C106.382 308.152 106.372 308.205 104.771 308.205C103.17 308.205 103.17 307.96 101.57 307.96H98.3684C96.7571 307.96 96.7571 308.12 95.1671 308.12C93.5771 308.12 93.5558 308.226 91.9658 308.226C90.3758 308.226 90.3651 308.024 88.7645 308.024C87.1638 308.024 87.1638 307.586 85.5632 307.586C83.9625 307.586 83.9625 307.586 82.3619 307.586C80.7612 307.586 80.7612 307.885 79.1605 307.885C77.5599 307.885 77.5492 307.81 75.9592 307.81C74.3692 307.81 74.3479 307.682 72.7579 307.682C71.1679 307.682 71.1466 308.045 69.5566 308.045C67.9666 308.045 67.9453 307.255 66.3553 307.255C64.7653 307.255 64.744 307.639 63.154 307.639C61.564 307.639 61.5427 308.322 59.9527 308.322C58.3627 308.322 58.3413 308.322 56.7514 308.322C55.1614 308.322 55.1507 308.322 53.55 308.322C51.9494 308.322 51.9387 307.81 50.3487 307.81C48.7588 307.81 48.7374 307.415 47.1474 307.415C45.5574 307.415 45.5361 308.162 43.9461 308.162C42.3561 308.162 42.3455 307.629 40.7448 307.629C39.1441 307.629 39.1441 308.354 37.5435 308.354C35.9428 308.354 35.9322 307.287 34.3422 307.287C32.7522 307.287 32.7309 308.354 31.1409 308.354C29.5509 308.354 29.5295 307.287 27.9396 307.287C26.3496 307.287 26.3282 307.874 24.7382 307.874C23.1483 307.874 23.1376 308.44 21.5369 308.44C19.9363 308.44 19.9363 307.266 18.3356 307.266C16.735 307.266 16.735 307.618 15.1343 307.618C13.5337 307.618 13.523 308.386 11.933 308.386C10.343 308.386 10.3217 307.704 8.73168 307.704C7.14169 307.704 7.12035 307.287 5.53037 307.287C3.94038 307.287 3.76965 308.728 2.63852 307.586C1.50739 306.444 1.97692 306.274 1.97692 304.641C1.97692 303.008 2.14765 303.008 2.14765 301.376C2.14765 299.743 1.73148 299.743 1.73148 298.11C1.73148 296.478 1.78484 296.478 1.78484 294.845C1.78484 293.212 2.45712 293.212 2.45712 291.58C2.45712 289.947 2.169 289.958 2.169 288.378C2.169 286.799 1.80618 286.746 1.80618 285.113C1.80618 283.48 1.88087 283.491 1.88087 281.858C1.88087 280.226 1.96624 280.226 1.96624 278.593C1.96624 276.96 1.96624 276.96 1.96624 275.328C1.96624 273.695 2.52114 273.695 2.52114 272.062C2.52114 270.43 1.74216 270.43 1.74216 268.797C1.74216 267.164 2.39309 267.164 2.39309 265.532C2.39309 263.899 2.10497 263.899 2.10497 262.266C2.10497 260.634 2.9053 260.634 2.9053 259.001C2.9053 257.368 2.85194 257.368 2.85194 255.736C2.85194 254.103 1.9449 254.103 1.9449 252.47C1.9449 250.838 2.95866 250.838 2.95866 249.205C2.95866 247.572 2.54249 247.572 2.54249 245.94C2.54249 244.307 2.04095 244.307 2.04095 242.674C2.04095 241.042 2.6812 241.031 2.6812 239.398C2.6812 237.766 2.43577 237.766 2.40376 236.122C2.37175 234.479 1.12324 235.066 1.12324 233.486Z" fill="#CFE2F6"/>
</svg>
