<svg width="36" height="36" viewBox="0 0 36 36" fill="none" xmlns="http://www.w3.org/2000/svg">
<path d="M36 18C36 27.9411 27.9411 36 18 36C8.05887 36 0 27.9411 0 18C0 8.05887 8.05887 0 18 0C27.9411 0 36 8.05887 36 18Z" fill="#D6E7FF"/>
<path d="M12.832 21.1172C10.3447 21.1172 8.88574 19.5088 8.88574 17.5049C8.88574 15.7383 10.0371 14.4287 11.5576 13.9805C11.8389 10.8867 14.4229 8.43457 17.5693 8.43457C20.0127 8.43457 21.9287 9.77051 22.957 11.8096C25.7871 11.8096 27.958 13.7783 27.958 16.4414C27.958 19.0342 25.9102 21.1172 23.168 21.1172H12.832ZM19.6787 25.0371C19.5381 25.2832 19.2305 25.3711 18.9756 25.2305C18.7119 25.0811 18.6416 24.7822 18.7822 24.5361L19.8721 22.6553C20.0303 22.3916 20.3203 22.3037 20.5752 22.4531C20.8301 22.6025 20.918 22.9102 20.7598 23.165L19.6787 25.0371ZM21.6123 27.4014C21.4717 27.6562 21.1816 27.7354 20.9355 27.5947C20.6807 27.4453 20.6104 27.1465 20.751 26.8828L23.1855 22.6465C23.3438 22.3916 23.6514 22.3125 23.8975 22.4619C24.1436 22.6113 24.2139 22.9014 24.0645 23.1562L21.6123 27.4014ZM13.0693 25.0459C12.9199 25.292 12.6123 25.3799 12.3574 25.2393C12.1025 25.0898 12.0234 24.791 12.1729 24.5449L13.2539 22.6641C13.4121 22.4004 13.7021 22.3125 13.9658 22.4619C14.2207 22.6113 14.2998 22.9102 14.1416 23.1738L13.0693 25.0459ZM15.0029 27.4102C14.8535 27.665 14.5635 27.7441 14.3174 27.6035C14.0625 27.4541 13.9922 27.1465 14.1328 26.8916L16.5762 22.6553C16.7256 22.4004 17.0332 22.3213 17.2793 22.4707C17.5254 22.6201 17.6045 22.9102 17.4551 23.165L15.0029 27.4102Z" fill="#5E9BF0"/>
</svg>
