<svg width="85" height="26" viewBox="0 0 85 26" fill="none" xmlns="http://www.w3.org/2000/svg">
<path d="M3.82684 12.1352C4.338 12.1352 4.338 12.2437 4.84915 12.2437C5.36031 12.2437 5.36031 12.1307 5.87146 12.1307C6.38262 12.1307 6.38262 12.3975 6.88924 12.3975C7.39587 12.3975 7.4004 12.3342 7.91155 12.3342C8.42271 12.3342 8.42271 12.1035 8.93386 12.1035C9.44502 12.1035 9.44502 12.2664 9.95617 12.2664C10.4673 12.2664 10.4673 12.3614 10.9785 12.3614C11.4896 12.3614 11.4896 12.2618 12.0007 12.2618C12.5119 12.2618 12.5119 12.203 13.023 12.203C13.5342 12.203 13.5342 12.1759 14.0454 12.1759C14.5565 12.1759 14.5565 12.5152 15.0677 12.5152C15.5788 12.5152 15.5788 12.1849 16.09 12.1849C16.6011 12.1849 16.6011 12.4699 17.1168 12.4699C17.6325 12.4699 17.628 12.3206 18.1391 12.3206C18.4514 12.3681 18.7558 12.4579 19.0438 12.5875C19.3341 12.6785 19.611 12.8078 19.8671 12.972C20.143 13.1349 20.5818 13.0715 20.8035 13.2932C21.0251 13.5148 20.9889 13.9446 21.1518 14.225C21.3146 14.5055 21.6448 14.6774 21.7262 14.9985C21.7417 15.3215 21.7174 15.6451 21.6539 15.962C21.6539 16.5365 21.9162 16.5365 21.9162 17.1155C21.9162 17.6945 21.7579 17.6945 21.7579 18.2735C21.8159 18.5973 21.8341 18.9269 21.8122 19.2551C21.7262 19.5672 21.4096 19.7934 21.2513 20.0693C21.1266 20.3656 20.9655 20.6452 20.7718 20.9017C20.5616 21.1573 20.32 21.3853 20.0525 21.5802C19.7417 21.6951 19.4182 21.7726 19.089 21.8109C18.7755 21.8656 18.4562 21.8793 18.1391 21.8516C17.628 21.8516 17.628 21.7566 17.1213 21.7566C16.6147 21.7566 16.6102 21.8154 16.099 21.8154C15.5879 21.8154 15.5879 21.8697 15.0767 21.8697C14.5656 21.8697 14.5656 21.7476 14.0544 21.7476C13.5433 21.7476 13.5433 21.9692 13.0321 21.9692C12.521 21.9692 12.5209 21.8742 12.0098 21.8742H10.9875C10.4763 21.8742 10.4763 21.7114 9.9697 21.7114C9.46307 21.7114 9.45855 21.8516 8.94739 21.8516C8.43624 21.8516 8.43629 21.9602 7.92514 21.9602C7.41399 21.9602 7.41398 21.9014 6.90283 21.9014C6.39168 21.9014 6.38714 21.7747 5.87599 21.7747C5.36484 21.7747 5.36483 21.8245 4.85368 21.8245H3.82684C3.51729 21.7989 3.21281 21.7304 2.92215 21.6209C2.61003 21.5395 2.17125 21.7611 1.89984 21.6209C1.62843 21.4807 1.44751 21.0962 1.24396 20.87C1.01777 20.6393 0.82168 20.381 0.66041 20.101C0.520144 19.814 0.418281 19.5099 0.357372 19.1963C0.23541 18.8962 0.153271 18.5814 0.113087 18.26C0.113087 17.681 0 17.681 0 17.102C0 16.5229 0.0904474 16.523 0.0904474 15.9485C0.127615 15.6235 0.205115 15.3044 0.321149 14.9985C0.400088 14.6826 0.520254 14.3784 0.678521 14.0938C0.869391 13.8394 1.09295 13.6113 1.34346 13.4153C1.54469 13.1715 1.77744 12.9555 2.03556 12.773C2.30863 12.604 2.60194 12.4703 2.90856 12.3749C3.20346 12.257 3.51196 12.1765 3.82684 12.1352Z" fill="#FFD9DD"/>
<path d="M66.9771 12.2986C67.4883 12.2986 67.4883 12.1539 67.9949 12.1539C68.5015 12.1539 68.506 12.371 69.0172 12.371C69.5284 12.371 69.5284 12.3213 70.0395 12.3213C70.5507 12.3213 70.5507 12.1584 71.0618 12.1584C71.573 12.1584 71.573 12.1584 72.0841 12.1584C72.5953 12.1584 72.5953 12.1584 73.1064 12.1584C73.6176 12.1584 73.6176 12.4479 74.1287 12.4479C74.6399 12.4479 74.6354 12.4977 75.1465 12.4977C75.6577 12.4977 75.6577 12.2172 76.1688 12.2172C76.68 12.2172 76.68 12.0996 77.1911 12.0996C77.7023 12.0996 77.7023 12.3755 78.2134 12.3755C78.7246 12.3755 78.7246 12.3755 79.2402 12.3755C79.7559 12.3755 79.7514 12.2715 80.2626 12.2715C80.7737 12.2715 80.7737 12.2715 81.2894 12.2715C81.6105 12.2631 81.9314 12.2966 82.2438 12.371C82.556 12.4524 82.7505 12.7691 83.0264 12.9274C83.3144 13.0433 83.5865 13.1953 83.8361 13.3798C84.0275 13.6256 84.1871 13.8946 84.3111 14.1804C84.5064 14.4269 84.669 14.6975 84.7951 14.9856C84.8335 15.298 84.8335 15.614 84.7951 15.9265C84.7951 16.5009 84.9986 16.501 84.9986 17.08C84.9986 17.659 84.8313 17.659 84.8313 18.238C84.8243 18.5447 84.7756 18.8491 84.6865 19.1427C84.622 19.4441 84.5154 19.7349 84.3699 20.0066C84.2116 20.2871 84.2025 20.6942 83.9764 20.9113C83.7449 21.1507 83.4834 21.359 83.1983 21.5311C82.9269 21.6894 82.5107 21.5311 82.1986 21.6125C81.8865 21.6939 81.6196 22.0648 81.2939 22.0648C80.7828 22.0648 80.7828 21.8115 80.2716 21.8115C79.7605 21.8115 79.7605 21.6939 79.2493 21.6939C78.7381 21.6939 78.7381 22.0648 78.2315 22.0648C77.7249 22.0648 77.7204 22.0241 77.2092 22.0241C76.6981 22.0241 76.698 21.9789 76.1869 21.9789C75.6757 21.9789 75.6757 21.9789 75.1646 21.9789C74.6534 21.9789 74.6534 21.6803 74.1423 21.6803C73.6311 21.6803 73.6312 21.6803 73.12 21.6803C72.6089 21.6803 72.6089 21.9472 72.0977 21.9472C71.5866 21.9472 71.5866 21.7482 71.0754 21.7482H70.0531C69.5419 21.7482 69.5419 21.8748 69.0308 21.8748C68.5196 21.8748 68.5196 22.0015 68.0039 22.0015C67.4883 22.0015 67.4928 21.9291 66.9816 21.9291C66.6575 21.9377 66.3336 21.9043 66.0181 21.8296C65.7035 21.7572 65.3995 21.6447 65.1134 21.4949C64.8502 21.3033 64.6117 21.08 64.4033 20.8299C64.1481 20.6261 63.9201 20.3905 63.7248 20.1288C63.5664 19.8528 63.6705 19.4638 63.589 19.1517C63.4788 18.861 63.4088 18.5566 63.381 18.247C63.381 17.668 63.2227 17.668 63.2227 17.089C63.2227 16.51 63.3493 16.51 63.3493 15.9355C63.3083 15.6126 63.3083 15.2859 63.3493 14.963C63.4307 14.6509 63.8017 14.4609 63.9464 14.1895C64.0912 13.918 64.1183 13.529 64.3445 13.2848C64.5709 13.0524 64.8263 12.8502 65.1044 12.6831C65.384 12.4919 65.6883 12.3397 66.0091 12.2308C66.3333 12.214 66.6584 12.2368 66.9771 12.2986Z" fill="#FFD9DD"/>
<path d="M50.1688 24.9136C50.015 24.9136 49.8477 25.0855 49.6848 25.0764C49.3619 25.029 49.0417 24.9641 48.7258 24.8819C48.4086 24.8083 48.096 24.7161 47.7895 24.606C47.4729 24.52 47.2693 24.1536 46.9753 24.0451C46.6812 23.9365 46.1927 24.2034 45.9168 24.0451C45.646 23.8582 45.3861 23.6558 45.1387 23.4389C44.8718 23.2535 44.8402 22.7875 44.605 22.5795C44.3643 22.3812 44.1347 22.1698 43.9174 21.9462C43.6912 21.7019 43.3836 21.5662 43.1936 21.3129C43.0037 21.0596 42.7413 20.9239 42.5649 20.657C42.402 20.9239 42.1125 21.0234 41.8999 21.2857C41.6873 21.5481 41.4973 21.7381 41.2757 22.0005C41.0737 22.245 40.8593 22.479 40.6333 22.7016C40.3936 22.9097 40.38 23.4299 40.1131 23.6063C39.8188 23.7548 39.5168 23.8877 39.2084 24.0044C38.9325 24.1536 38.5209 24.0043 38.2133 24.14C37.9186 24.2642 37.6164 24.3699 37.3086 24.4567C36.9995 24.5236 36.6868 24.5735 36.3722 24.606C36.0649 24.7074 35.7524 24.7919 35.4359 24.8593C35.1013 24.9305 34.763 24.9834 34.4226 25.0176C34.0866 24.9604 33.7543 24.8834 33.4275 24.7869C33.0882 24.7236 32.8394 24.3798 32.5228 24.2848C32.2142 24.1756 31.9121 24.0487 31.6181 23.9048C31.2969 23.7646 30.8762 23.8822 30.5958 23.7239C30.2975 23.5656 30.0076 23.3919 29.7272 23.2037C29.4332 23.0001 29.2749 22.6337 29.0578 22.4302C28.8407 22.2266 28.3386 22.1542 28.1531 21.9507C27.9134 21.7127 27.6954 21.4539 27.5017 21.1772C27.3207 20.9374 27.0494 20.5801 27.0856 20.3042C27.1217 20.0282 27.6238 19.9468 27.8591 19.7659C27.9501 19.6918 28.0578 19.6411 28.173 19.6182C28.2881 19.5953 28.407 19.601 28.5195 19.6347C28.7954 19.6709 29.3156 19.404 29.4965 19.6347C29.6584 19.911 29.8613 20.1611 30.0981 20.3765C30.3062 20.571 30.2294 21.1907 30.5234 21.4124C30.8169 21.5787 31.1189 21.7297 31.4281 21.8647C31.7027 22.0689 31.9914 22.2533 32.2921 22.4166C32.6199 22.5187 32.9538 22.6003 33.2918 22.6609C33.6219 22.7396 33.9576 22.7925 34.2959 22.8192C34.6171 22.8554 34.9564 22.6111 35.3001 22.593C35.614 22.559 35.9253 22.5046 36.232 22.4302C36.5667 22.3668 36.9603 22.6156 37.2543 22.5161C37.5483 22.4166 37.7338 21.9688 38.0098 21.824C38.2857 21.6793 38.7425 21.7652 38.9913 21.5798C39.2605 21.3883 39.516 21.1782 39.7558 20.951C39.9537 20.6885 40.1321 20.4118 40.2896 20.1232C40.4596 19.852 40.6107 19.5693 40.7419 19.2773C40.8931 18.9926 41.0246 18.6979 41.1354 18.3952C41.2671 18.0962 41.4182 17.806 41.5878 17.5267C41.6964 17.0291 42.0401 16.423 42.5513 16.423V16.4004C42.8453 16.4366 43.1233 16.5546 43.3536 16.7409C43.5839 16.9272 43.7573 17.1744 43.8541 17.4544C43.8111 17.774 43.85 18.0993 43.9671 18.3998C44.0387 18.7176 44.1355 19.0292 44.2567 19.3316C44.4085 19.6205 44.5777 19.9 44.7633 20.1684C44.9707 20.4195 45.1943 20.6568 45.4327 20.8786C45.6499 21.0958 46.1113 21.0279 46.3827 21.2269C46.6246 21.414 46.8819 21.5804 47.1517 21.7245C47.4276 21.8693 47.604 22.1769 47.9297 22.299C48.2233 22.4236 48.5257 22.5264 48.8344 22.6066C49.1443 22.724 49.4616 22.8207 49.7843 22.8961C50.1281 22.9187 50.4538 22.5659 50.775 22.5342C51.0935 22.4894 51.4081 22.4198 51.7159 22.3261C52.0488 22.2965 52.3796 22.2466 52.7065 22.1769C53.0076 22.0434 53.3006 21.8923 53.5841 21.7245C53.8464 21.5203 54.0943 21.2981 54.3259 21.0596C54.6245 20.8334 54.9773 20.7429 55.1854 20.5439C55.4478 20.3012 55.7551 20.1122 56.0901 19.9875C56.271 19.7523 56.3208 19.5849 56.5967 19.5352C56.7183 19.5097 56.844 19.5119 56.9646 19.5417C57.0852 19.5715 57.1975 19.628 57.2933 19.707C57.3905 19.7815 57.4693 19.8774 57.5234 19.9872C57.5776 20.097 57.6056 20.2179 57.6054 20.3403C57.6416 20.6163 57.9492 21.0279 57.7637 21.245C57.369 21.2948 56.9952 21.4512 56.6826 21.6974C56.461 21.9145 56.3796 22.3488 56.0674 22.6021C55.7553 22.8554 55.4975 22.9956 55.1627 23.2082C54.8899 23.4479 54.6045 23.6729 54.3078 23.8822C53.9686 24.0104 53.6228 24.1207 53.272 24.2124C52.9551 24.3847 52.6272 24.5358 52.2903 24.6648C51.9346 24.7329 51.5751 24.7798 51.2138 24.805C50.868 24.8625 50.519 24.8987 50.1688 24.9136Z" fill="#383838"/>
<path d="M17.9602 13.6458C18.0254 13.695 18.1048 13.7216 18.1864 13.7216C18.268 13.7216 18.3474 13.695 18.4126 13.6458C18.6976 13.4694 18.9825 13.3111 19.2494 13.1347C19.5163 12.9582 19.7968 12.7592 20.0591 12.5692C20.3215 12.3792 20.7015 12.3114 20.9638 12.1169C21.2262 11.9224 21.4162 11.6283 21.6695 11.4203C21.9228 11.2122 22.2711 11.0765 22.5018 10.8548C22.7325 10.6332 22.8139 10.2215 23.0356 9.99083C23.2572 9.76014 23.488 9.50683 23.6915 9.26256C23.8951 9.01829 24.2524 8.85092 24.4379 8.59308C24.6234 8.33524 24.6233 7.90551 24.7907 7.64315C24.958 7.38079 25.3878 7.19081 25.528 6.92845C25.6189 6.60285 25.6899 6.27202 25.7406 5.9378C25.8654 5.64282 25.9726 5.34073 26.0618 5.03311C26.1878 4.71949 26.2921 4.39756 26.3739 4.06961C26.3739 3.77106 26.0437 3.46798 25.9623 3.11967C25.9307 2.7912 25.8655 2.46684 25.7678 2.15166C25.6405 1.84442 25.4781 1.55297 25.2838 1.28314C25.0463 1.04993 24.7767 0.851906 24.4831 0.695098C24.2162 0.514159 24.0036 0.1749 23.6734 0.0753837C23.334 0.0318431 22.9905 0.0318431 22.6511 0.0753837C22.3371 0.0419821 22.0211 0.0329092 21.7057 0.0482439C21.3968 0.104091 21.0939 0.188903 20.801 0.301557C20.5088 0.426419 20.2287 0.577837 19.9642 0.753905C19.7075 0.936549 19.4682 1.14248 19.2494 1.36909C19.014 1.57013 18.7933 1.78782 18.589 2.02047C18.5451 2.0821 18.487 2.13233 18.4198 2.16699C18.3525 2.20166 18.2779 2.21974 18.2023 2.21974C18.1266 2.21974 18.052 2.20166 17.9847 2.16699C17.9174 2.13233 17.8594 2.0821 17.8155 2.02047C17.608 1.79045 17.3826 1.57718 17.1415 1.38266C16.9317 1.14575 16.7 0.929174 16.4494 0.735807C16.1549 0.632345 15.8523 0.553669 15.5447 0.500591C15.2713 0.351052 14.9833 0.22979 14.6853 0.138705C14.3958 0.0844234 14.0791 0.260848 13.7534 0.260848C13.4278 0.215347 13.0974 0.215347 12.7718 0.260848C12.4309 0.304452 12.0985 0.398989 11.7857 0.541301C11.5247 0.76685 11.2977 1.0289 11.1117 1.31934C10.9072 1.5842 10.7327 1.87093 10.5915 2.17427C10.4889 2.49069 10.4177 2.81644 10.3789 3.14681C10.2698 3.46097 10.1926 3.78527 10.1482 4.11484C10.2085 4.43689 10.2963 4.75319 10.4106 5.06025C10.49 5.36808 10.5897 5.67031 10.7091 5.96494C10.7736 6.29148 10.8597 6.61336 10.967 6.92845C11.1072 7.20438 11.3243 7.4577 11.5098 7.75172C11.6952 8.04575 11.9169 8.24478 12.1204 8.52523C12.324 8.80569 12.428 9.09519 12.6497 9.35755C12.8713 9.61991 13.0478 9.87323 13.2785 10.122C13.5092 10.3708 13.8122 10.502 14.0565 10.7417C14.3008 10.9815 14.5767 11.1217 14.8345 11.3434C15.0923 11.565 15.1602 11.9631 15.4271 12.1757C15.694 12.3883 15.9789 12.5285 16.2504 12.7275C16.5218 12.9266 16.8882 12.9492 17.1551 13.1392C17.4219 13.3292 17.6707 13.4694 17.9602 13.6458Z" fill="#FF5353"/>
<path d="M66.5472 13.8721C66.7282 13.9852 67.0312 13.8223 67.2077 13.7138C67.4926 13.5328 67.7053 13.2614 67.9721 13.0805C68.239 12.8995 68.6552 12.895 68.9175 12.705C69.1799 12.515 69.4287 12.2753 69.682 12.0763C69.9353 11.8772 70.1841 11.6239 70.4238 11.4249C70.6636 11.2259 70.8762 10.9409 71.1205 10.7192C71.3647 10.4976 71.5049 10.1674 71.7221 9.93213C71.9392 9.69691 72.283 9.54311 72.4866 9.29885C72.6901 9.05458 73.0384 8.87364 73.2239 8.62033C73.4094 8.36701 73.432 7.93728 73.5948 7.67492C73.7576 7.41256 73.8843 7.06877 74.0471 6.79284C74.21 6.51691 74.4995 6.25907 74.6262 5.97862C74.7253 5.66224 74.7994 5.33858 74.8478 5.0106C74.9626 4.69562 75.0519 4.37189 75.1147 4.04257C75.044 3.7097 74.9426 3.38412 74.8116 3.07003C74.7344 2.75809 74.6252 2.45493 74.4859 2.16533C74.3548 1.86475 74.1861 1.58202 73.9838 1.32396C73.7624 1.08613 73.5062 0.883284 73.2239 0.722342C72.957 0.541403 72.7715 0.229275 72.4187 0.134282C72.0659 0.0392892 71.7764 0.206659 71.4145 0.206659C71.0526 0.206659 70.7586 -0.0466563 70.4691 0.00762539C70.1796 0.0619071 69.9127 0.383087 69.6368 0.487126C69.3391 0.564859 69.0485 0.667758 68.7683 0.794719C68.4912 0.938496 68.2264 1.10493 67.9767 1.2923C67.7363 1.49091 67.5109 1.70712 67.3026 1.93916C67.2688 1.99942 67.2196 2.04958 67.1599 2.08449C67.1003 2.11941 67.0325 2.13781 66.9634 2.13781C66.8943 2.13781 66.8265 2.11941 66.7668 2.08449C66.7072 2.04958 66.6579 1.99942 66.6241 1.93916C66.4613 1.74013 66.1175 1.62704 65.8506 1.39182C65.6 1.22146 65.3369 1.07025 65.0635 0.939474C64.8231 0.749335 64.5639 0.584121 64.29 0.446403C64.0146 0.294212 63.7253 0.168505 63.426 0.0709607C63.1131 0.0637714 62.8001 0.0803989 62.4897 0.120712C62.1516 0.0671875 61.8079 0.0580645 61.4674 0.0935725C61.1575 0.236032 60.8733 0.428604 60.626 0.663535C60.36 0.85726 60.1238 1.0889 59.9249 1.3511C59.7123 1.61346 59.3911 1.80346 59.2509 2.11105C59.1206 2.42458 59.0221 2.7504 58.9568 3.0836C58.8818 3.41306 58.8438 3.7499 58.8438 4.08781C58.9065 4.41372 58.9942 4.73432 59.1061 5.04678C59.1902 5.35431 59.2929 5.65644 59.4137 5.95148C59.5129 6.25869 59.6276 6.56065 59.7575 6.85617C59.8977 7.13211 60.1239 7.37637 60.3048 7.67039C60.4858 7.96442 60.5084 8.3082 60.7119 8.57509C60.9155 8.84197 61.1643 9.02744 61.3995 9.28981C61.6347 9.55217 61.7614 9.83262 61.9966 10.0814C62.2318 10.3302 62.5123 10.484 62.7566 10.7192C63.0008 10.9544 63.1456 11.253 63.4034 11.4792C63.6612 11.7053 63.9462 11.841 64.2131 12.0536C64.48 12.2662 64.8102 12.3341 65.0862 12.5331C65.3621 12.7322 65.5611 12.9855 65.8416 13.1755C66.122 13.3655 66.2532 13.6957 66.5472 13.8721Z" fill="#FF5353"/>
<path d="M47.0837 14.2605C47.1255 14.5616 47.1148 14.8677 47.052 15.1652C46.957 15.4366 46.6811 15.6175 46.4821 15.8482C46.3201 16.0885 46.1217 16.3022 45.894 16.4815C45.5674 16.6813 45.2141 16.8336 44.8446 16.9339C44.4697 17.016 44.0882 17.0645 43.7047 17.0786C43.3255 17.1338 42.9433 17.1656 42.5602 17.1736C42.1753 17.1846 41.7901 17.1725 41.4067 17.1374C41.0254 17.1018 40.6483 17.0307 40.2804 16.9248C39.9082 16.8239 39.552 16.6717 39.2219 16.4725C38.9644 16.3245 38.7284 16.1419 38.5207 15.9297C38.3677 15.6824 38.2605 15.4097 38.2041 15.1245C38.1056 14.8534 38.0566 14.5669 38.0594 14.2786C38.0521 13.9881 38.0965 13.6986 38.1905 13.4236C38.2976 13.1604 38.4508 12.9184 38.6429 12.7089C38.8004 12.4614 38.9958 12.2401 39.2219 12.053C39.5531 11.8528 39.911 11.7005 40.2849 11.6007C40.6484 11.4666 41.0241 11.3681 41.4067 11.3067C41.7911 11.2622 42.1778 11.241 42.5647 11.2433C42.9497 11.2791 43.332 11.3396 43.7092 11.4243C44.0892 11.4679 44.4646 11.5451 44.831 11.655C45.2123 11.7291 45.5819 11.8539 45.9302 12.0259C46.174 12.1973 46.3919 12.403 46.5771 12.6366C46.7622 12.869 46.9046 13.1324 46.9977 13.4146C47.0721 13.69 47.1011 13.9757 47.0837 14.2605Z" fill="#FFB3C5"/>
</svg>
