<svg width="112" height="60" viewBox="0 0 112 60" fill="none" xmlns="http://www.w3.org/2000/svg">
<g filter="url(#filter0_i_1153_9934)">
<rect width="112" height="60" rx="10" fill="white"/>
</g>
<path d="M17.8268 29.1347C18.338 29.1347 18.338 29.2433 18.8492 29.2433C19.3603 29.2433 19.3603 29.1302 19.8715 29.1302C20.3826 29.1302 20.3826 29.3971 20.8892 29.3971C21.3959 29.3971 21.4004 29.3337 21.9116 29.3337C22.4227 29.3337 22.4227 29.103 22.9339 29.103C23.445 29.103 23.445 29.2659 23.9562 29.2659C24.4673 29.2659 24.4673 29.3609 24.9785 29.3609C25.4896 29.3609 25.4896 29.2614 26.0007 29.2614C26.5119 29.2614 26.5119 29.2025 27.023 29.2025C27.5342 29.2025 27.5342 29.1754 28.0454 29.1754C28.5565 29.1754 28.5565 29.5147 29.0677 29.5147C29.5788 29.5147 29.5788 29.1844 30.09 29.1844C30.6011 29.1844 30.6011 29.4694 31.1168 29.4694C31.6325 29.4694 31.628 29.3201 32.1391 29.3201C32.4514 29.3676 32.7558 29.4574 33.0438 29.587C33.3341 29.678 33.611 29.8073 33.8671 29.9715C34.143 30.1344 34.5818 30.0711 34.8035 30.2927C35.0251 30.5144 34.9889 30.9441 35.1518 31.2245C35.3146 31.505 35.6448 31.6769 35.7262 31.998C35.7417 32.321 35.7174 32.6446 35.6539 32.9616C35.6539 33.536 35.9162 33.536 35.9162 34.115C35.9162 34.694 35.7579 34.694 35.7579 35.273C35.8159 35.5968 35.8341 35.9265 35.8122 36.2546C35.7262 36.5668 35.4096 36.7929 35.2513 37.0689C35.1266 37.3651 34.9655 37.6447 34.7718 37.9012C34.5616 38.1568 34.32 38.3848 34.0525 38.5797C33.7417 38.6946 33.4182 38.7721 33.089 38.8104C32.7755 38.8651 32.4562 38.8788 32.1391 38.8511C31.628 38.8511 31.628 38.7561 31.1213 38.7561C30.6147 38.7561 30.6102 38.8149 30.099 38.8149C29.5879 38.8149 29.5879 38.8692 29.0767 38.8692C28.5656 38.8692 28.5656 38.7471 28.0544 38.7471C27.5433 38.7471 27.5433 38.9687 27.0321 38.9687C26.521 38.9687 26.5209 38.8737 26.0098 38.8737H24.9875C24.4763 38.8737 24.4763 38.7109 23.9697 38.7109C23.4631 38.7109 23.4585 38.8511 22.9474 38.8511C22.4362 38.8511 22.4363 38.9597 21.9251 38.9597C21.414 38.9597 21.414 38.9009 20.9028 38.9009C20.3917 38.9009 20.3871 38.7742 19.876 38.7742C19.3648 38.7742 19.3648 38.824 18.8537 38.824H17.8268C17.5173 38.7984 17.2128 38.7299 16.9221 38.6204C16.61 38.539 16.1712 38.7606 15.8998 38.6204C15.6284 38.4802 15.4475 38.0957 15.244 37.8695C15.0178 37.6389 14.8217 37.3805 14.6604 37.1005C14.5201 36.8136 14.4183 36.5094 14.3574 36.1958C14.2354 35.8957 14.1533 35.5809 14.1131 35.2595C14.1131 34.6805 14 34.6805 14 34.1015C14 33.5225 14.0904 33.5225 14.0904 32.948C14.1276 32.623 14.2051 32.3039 14.3211 31.998C14.4001 31.6821 14.5203 31.3779 14.6785 31.0934C14.8694 30.8389 15.093 30.6108 15.3435 30.4148C15.5447 30.171 15.7774 29.955 16.0356 29.7725C16.3086 29.6035 16.6019 29.4698 16.9086 29.3744C17.2035 29.2566 17.512 29.176 17.8268 29.1347Z" fill="#FFD9DD"/>
<path d="M80.9771 29.2982C81.4883 29.2982 81.4883 29.1534 81.9949 29.1534C82.5015 29.1534 82.506 29.3705 83.0172 29.3705C83.5284 29.3705 83.5284 29.3208 84.0395 29.3208C84.5507 29.3208 84.5507 29.1579 85.0618 29.1579C85.573 29.1579 85.573 29.1579 86.0841 29.1579C86.5953 29.1579 86.5953 29.1579 87.1064 29.1579C87.6176 29.1579 87.6176 29.4474 88.1287 29.4474C88.6399 29.4474 88.6354 29.4972 89.1465 29.4972C89.6577 29.4972 89.6577 29.2167 90.1688 29.2167C90.68 29.2167 90.68 29.0991 91.1911 29.0991C91.7023 29.0991 91.7023 29.3751 92.2134 29.3751C92.7246 29.3751 92.7246 29.3751 93.2402 29.3751C93.7559 29.3751 93.7514 29.271 94.2626 29.271C94.7737 29.271 94.7737 29.271 95.2894 29.271C95.6105 29.2626 95.9314 29.2961 96.2438 29.3705C96.556 29.452 96.7505 29.7686 97.0264 29.9269C97.3144 30.0428 97.5865 30.1948 97.8361 30.3793C98.0275 30.6251 98.1871 30.8941 98.3111 31.1799C98.5064 31.4264 98.669 31.697 98.7951 31.9851C98.8335 32.2976 98.8335 32.6135 98.7951 32.926C98.7951 33.5005 98.9986 33.5005 98.9986 34.0795C98.9986 34.6585 98.8313 34.6585 98.8313 35.2375C98.8243 35.5442 98.7756 35.8486 98.6865 36.1422C98.622 36.4436 98.5154 36.7344 98.3699 37.0062C98.2116 37.2866 98.2025 37.6937 97.9764 37.9109C97.7449 38.1502 97.4834 38.3586 97.1983 38.5306C96.9269 38.6889 96.5107 38.5306 96.1986 38.612C95.8865 38.6934 95.6196 39.0643 95.2939 39.0643C94.7828 39.0643 94.7828 38.811 94.2716 38.811C93.7605 38.811 93.7605 38.6934 93.2493 38.6934C92.7381 38.6934 92.7381 39.0643 92.2315 39.0643C91.7249 39.0643 91.7204 39.0236 91.2092 39.0236C90.6981 39.0236 90.698 38.9784 90.1869 38.9784C89.6757 38.9784 89.6757 38.9784 89.1646 38.9784C88.6534 38.9784 88.6534 38.6798 88.1423 38.6798C87.6311 38.6798 87.6312 38.6798 87.12 38.6798C86.6089 38.6798 86.6089 38.9467 86.0977 38.9467C85.5866 38.9467 85.5866 38.7477 85.0754 38.7477H84.0531C83.5419 38.7477 83.5419 38.8744 83.0308 38.8744C82.5196 38.8744 82.5196 39.001 82.0039 39.001C81.4883 39.001 81.4928 38.9286 80.9816 38.9286C80.6575 38.9373 80.3336 38.9038 80.0181 38.8291C79.7035 38.7567 79.3995 38.6442 79.1134 38.4944C78.8502 38.3028 78.6117 38.0795 78.4033 37.8294C78.1481 37.6256 77.9201 37.39 77.7248 37.1283C77.5664 36.8524 77.6705 36.4633 77.589 36.1512C77.4788 35.8605 77.4088 35.5562 77.381 35.2465C77.381 34.6675 77.2227 34.6675 77.2227 34.0885C77.2227 33.5095 77.3493 33.5095 77.3493 32.935C77.3083 32.6121 77.3083 32.2854 77.3493 31.9625C77.4307 31.6504 77.8017 31.4604 77.9464 31.189C78.0912 30.9176 78.1183 30.5285 78.3445 30.2843C78.5709 30.0519 78.8263 29.8497 79.1044 29.6827C79.384 29.4914 79.6883 29.3392 80.0091 29.2303C80.3333 29.2135 80.6584 29.2363 80.9771 29.2982Z" fill="#FFD9DD"/>
<path d="M64.1686 41.9136C64.0148 41.9136 63.8474 42.0855 63.6846 42.0764C63.3616 42.029 63.0415 41.9641 62.7256 41.8819C62.4084 41.8083 62.0957 41.7161 61.7893 41.606C61.4726 41.52 61.269 41.1536 60.975 41.0451C60.681 40.9365 60.1925 41.2034 59.9165 41.0451C59.6457 40.8582 59.3859 40.6558 59.1385 40.4389C58.8716 40.2535 58.8399 39.7875 58.6047 39.5795C58.364 39.3812 58.1345 39.1698 57.9171 38.9462C57.691 38.7019 57.3834 38.5662 57.1934 38.3129C57.0034 38.0596 56.741 37.9239 56.5646 37.657C56.4018 37.9239 56.1123 38.0234 55.8997 38.2857C55.6871 38.5481 55.4971 38.7381 55.2755 39.0005C55.0735 39.245 54.8591 39.479 54.6331 39.7016C54.3934 39.9097 54.3798 40.4299 54.1129 40.6063C53.8185 40.7548 53.5166 40.8877 53.2082 41.0044C52.9323 41.1536 52.5206 41.0043 52.213 41.14C51.9183 41.2642 51.6162 41.3699 51.3084 41.4567C50.9992 41.5236 50.6866 41.5735 50.372 41.606C50.0647 41.7074 49.7521 41.7919 49.4356 41.8593C49.101 41.9305 48.7628 41.9834 48.4224 42.0176C48.0864 41.9604 47.7541 41.8834 47.4272 41.7869C47.088 41.7236 46.8392 41.3798 46.5225 41.2848C46.2139 41.1756 45.9119 41.0487 45.6178 40.9048C45.2967 40.7646 44.876 40.8822 44.5955 40.7239C44.2973 40.5656 44.0073 40.3919 43.727 40.2037C43.433 40.0001 43.2747 39.6337 43.0575 39.4302C42.8404 39.2266 42.3383 39.1542 42.1528 38.9507C41.9131 38.7127 41.6951 38.4539 41.5014 38.1772C41.3205 37.9374 41.0491 37.5801 41.0853 37.3042C41.1215 37.0282 41.6236 36.9468 41.8588 36.7659C41.9498 36.6918 42.0576 36.6411 42.1727 36.6182C42.2878 36.5953 42.4068 36.601 42.5192 36.6347C42.7951 36.6709 43.3154 36.404 43.4963 36.6347C43.6582 36.911 43.861 37.1611 44.0979 37.3765C44.306 37.571 44.2291 38.1907 44.5231 38.4124C44.8167 38.5787 45.1186 38.7297 45.4278 38.8647C45.7024 39.0689 45.9912 39.2533 46.2918 39.4166C46.6197 39.5187 46.9535 39.6003 47.2915 39.6609C47.6216 39.7396 47.9574 39.7925 48.2957 39.8192C48.6169 39.8554 48.9561 39.6111 49.2999 39.593C49.6137 39.559 49.925 39.5046 50.2318 39.4302C50.5665 39.3668 50.96 39.6156 51.2541 39.5161C51.5481 39.4166 51.7336 38.9688 52.0095 38.824C52.2854 38.6793 52.7423 38.7652 52.9911 38.5798C53.2603 38.3883 53.5157 38.1782 53.7556 37.951C53.9535 37.6885 54.1318 37.4118 54.2893 37.1232C54.4593 36.852 54.6105 36.5693 54.7417 36.2773C54.8928 35.9926 55.0243 35.6979 55.1352 35.3952C55.2668 35.0962 55.4179 34.806 55.5875 34.5267C55.6961 34.0291 56.0399 33.423 56.551 33.423V33.4004C56.8451 33.4366 57.123 33.5546 57.3533 33.7409C57.5836 33.9272 57.757 34.1744 57.8538 34.4544C57.8108 34.774 57.8498 35.0993 57.9669 35.3998C58.0385 35.7176 58.1353 36.0292 58.2564 36.3316C58.4083 36.6205 58.5774 36.9 58.763 37.1684C58.9704 37.4195 59.1941 37.6568 59.4325 37.8786C59.6496 38.0958 60.111 38.0279 60.3824 38.2269C60.6244 38.414 60.8817 38.5804 61.1514 38.7245C61.4274 38.8693 61.6038 39.1769 61.9295 39.299C62.2231 39.4236 62.5255 39.5264 62.8342 39.6066C63.1441 39.724 63.4614 39.8207 63.7841 39.8961C64.1279 39.9187 64.4536 39.5659 64.7748 39.5342C65.0933 39.4894 65.4079 39.4198 65.7156 39.3261C66.0485 39.2965 66.3794 39.2466 66.7063 39.1769C67.0074 39.0434 67.3004 38.8923 67.5838 38.7245C67.8462 38.5203 68.094 38.2981 68.3257 38.0596C68.6242 37.8334 68.9771 37.7429 69.1851 37.5439C69.4475 37.3012 69.7549 37.1122 70.0898 36.9875C70.2708 36.7523 70.3205 36.5849 70.5965 36.5352C70.718 36.5097 70.8437 36.5119 70.9643 36.5417C71.0849 36.5715 71.1973 36.628 71.293 36.707C71.3903 36.7815 71.4691 36.8774 71.5232 36.9872C71.5773 37.097 71.6054 37.2179 71.6052 37.3403C71.6414 37.6163 71.949 38.0279 71.7635 38.245C71.3687 38.2948 70.9949 38.4512 70.6824 38.6974C70.4607 38.9145 70.3793 39.3488 70.0672 39.6021C69.7551 39.8554 69.4972 39.9956 69.1625 40.2082C68.8897 40.4479 68.6043 40.6729 68.3076 40.8822C67.9683 41.0104 67.6226 41.1207 67.2717 41.2124C66.9549 41.3847 66.6269 41.5358 66.2901 41.6648C65.9344 41.7329 65.5749 41.7798 65.2135 41.805C64.8677 41.8625 64.5188 41.8987 64.1686 41.9136Z" fill="#383838"/>
<path d="M31.9605 30.6458C32.0256 30.695 32.105 30.7216 32.1867 30.7216C32.2683 30.7216 32.3477 30.695 32.4128 30.6458C32.6978 30.4694 32.9828 30.3111 33.2497 30.1347C33.5166 29.9582 33.797 29.7592 34.0594 29.5692C34.3217 29.3792 34.7017 29.3114 34.9641 29.1169C35.2264 28.9224 35.4164 28.6283 35.6697 28.4203C35.923 28.2122 36.2714 28.0765 36.5021 27.8548C36.7328 27.6332 36.8142 27.2215 37.0358 26.9908C37.2575 26.7601 37.4882 26.5068 37.6918 26.2626C37.8953 26.0183 38.2527 25.8509 38.4381 25.5931C38.6236 25.3352 38.6236 24.9055 38.7909 24.6431C38.9583 24.3808 39.388 24.1908 39.5283 23.9284C39.6192 23.6029 39.6901 23.272 39.7408 22.9378C39.8656 22.6428 39.9729 22.3407 40.062 22.0331C40.1881 21.7195 40.2923 21.3976 40.3741 21.0696C40.3741 20.7711 40.044 20.468 39.9625 20.1197C39.9309 19.7912 39.8657 19.4668 39.768 19.1517C39.6408 18.8444 39.4784 18.553 39.284 18.2831C39.0466 18.0499 38.7769 17.8519 38.4834 17.6951C38.2165 17.5142 38.0039 17.1749 37.6736 17.0754C37.3343 17.0318 36.9907 17.0318 36.6513 17.0754C36.3374 17.042 36.0213 17.0329 35.7059 17.0482C35.3971 17.1041 35.0942 17.1889 34.8012 17.3016C34.509 17.4264 34.2289 17.5778 33.9644 17.7539C33.7078 17.9365 33.4685 18.1425 33.2497 18.3691C33.0142 18.5701 32.7935 18.7878 32.5893 19.0205C32.5453 19.0821 32.4873 19.1323 32.42 19.167C32.3527 19.2017 32.2782 19.2197 32.2025 19.2197C32.1268 19.2197 32.0522 19.2017 31.985 19.167C31.9177 19.1323 31.8597 19.0821 31.8158 19.0205C31.6082 18.7904 31.3829 18.5772 31.1418 18.3827C30.9319 18.1458 30.7002 17.9292 30.4497 17.7358C30.1552 17.6323 29.8526 17.5537 29.545 17.5006C29.2715 17.3511 28.9835 17.2298 28.6855 17.1387C28.396 17.0844 28.0793 17.2608 27.7536 17.2608C27.428 17.2153 27.0977 17.2153 26.7721 17.2608C26.4312 17.3045 26.0988 17.399 25.7859 17.5413C25.525 17.7669 25.298 18.0289 25.1119 18.3193C24.9075 18.5842 24.733 18.8709 24.5917 19.1743C24.4891 19.4907 24.4179 19.8164 24.3791 20.1468C24.2701 20.461 24.1928 20.7853 24.1484 21.1148C24.2087 21.4369 24.2965 21.7532 24.4108 22.0602C24.4902 22.3681 24.5899 22.6703 24.7093 22.9649C24.7738 23.2915 24.86 23.6134 24.9672 23.9284C25.1074 24.2044 25.3245 24.4577 25.51 24.7517C25.6955 25.0457 25.9171 25.2448 26.1207 25.5252C26.3242 25.8057 26.4283 26.0952 26.6499 26.3576C26.8716 26.6199 27.048 26.8732 27.2787 27.122C27.5094 27.3708 27.8125 27.502 28.0567 27.7417C28.301 27.9815 28.5769 28.1217 28.8348 28.3434C29.0926 28.565 29.1605 28.9631 29.4274 29.1757C29.6942 29.3883 29.9792 29.5285 30.2506 29.7275C30.522 29.9266 30.8884 29.9492 31.1553 30.1392C31.4222 30.3292 31.671 30.4694 31.9605 30.6458Z" fill="#FF5353"/>
<path d="M80.5472 30.8721C80.7282 30.9852 81.0312 30.8223 81.2077 30.7138C81.4926 30.5328 81.7053 30.2614 81.9721 30.0805C82.239 29.8995 82.6552 29.895 82.9175 29.705C83.1799 29.515 83.4287 29.2753 83.682 29.0763C83.9353 28.8772 84.1841 28.6239 84.4238 28.4249C84.6636 28.2259 84.8762 27.9409 85.1205 27.7192C85.3647 27.4976 85.5049 27.1674 85.7221 26.9321C85.9392 26.6969 86.283 26.5431 86.4866 26.2988C86.6901 26.0546 87.0384 25.8736 87.2239 25.6203C87.4094 25.367 87.432 24.9373 87.5948 24.6749C87.7576 24.4126 87.8843 24.0688 88.0471 23.7928C88.21 23.5169 88.4995 23.2591 88.6262 22.9786C88.7253 22.6622 88.7994 22.3386 88.8478 22.0106C88.9626 21.6956 89.0519 21.3719 89.1147 21.0426C89.044 20.7097 88.9426 20.3841 88.8116 20.07C88.7344 19.7581 88.6252 19.4549 88.4859 19.1653C88.3548 18.8647 88.1861 18.582 87.9838 18.324C87.7624 18.0861 87.5062 17.8833 87.2239 17.7223C86.957 17.5414 86.7715 17.2293 86.4187 17.1343C86.0659 17.0393 85.7764 17.2067 85.4145 17.2067C85.0526 17.2067 84.7586 16.9533 84.4691 17.0076C84.1796 17.0619 83.9127 17.3831 83.6368 17.4871C83.3391 17.5649 83.0485 17.6678 82.7683 17.7947C82.4912 17.9385 82.2264 18.1049 81.9767 18.2923C81.7363 18.4909 81.5109 18.7071 81.3026 18.9392C81.2688 18.9994 81.2196 19.0496 81.1599 19.0845C81.1003 19.1194 81.0325 19.1378 80.9634 19.1378C80.8943 19.1378 80.8265 19.1194 80.7668 19.0845C80.7072 19.0496 80.6579 18.9994 80.6241 18.9392C80.4613 18.7401 80.1175 18.627 79.8506 18.3918C79.6 18.2215 79.3369 18.0702 79.0635 17.9395C78.8231 17.7493 78.5639 17.5841 78.29 17.4464C78.0146 17.2942 77.7253 17.1685 77.426 17.071C77.1131 17.0638 76.8001 17.0804 76.4897 17.1207C76.1516 17.0672 75.8079 17.0581 75.4674 17.0936C75.1575 17.236 74.8733 17.4286 74.626 17.6635C74.36 17.8573 74.1238 18.0889 73.9249 18.3511C73.7123 18.6135 73.3911 18.8035 73.2509 19.1111C73.1206 19.4246 73.0221 19.7504 72.9568 20.0836C72.8818 20.4131 72.8438 20.7499 72.8438 21.0878C72.9065 21.4137 72.9942 21.7343 73.1061 22.0468C73.1902 22.3543 73.2929 22.6564 73.4137 22.9515C73.5129 23.2587 73.6276 23.5606 73.7575 23.8562C73.8977 24.1321 74.1239 24.3764 74.3048 24.6704C74.4858 24.9644 74.5084 25.3082 74.7119 25.5751C74.9155 25.842 75.1643 26.0274 75.3995 26.2898C75.6347 26.5522 75.7614 26.8326 75.9966 27.0814C76.2318 27.3302 76.5123 27.484 76.7566 27.7192C77.0008 27.9544 77.1456 28.253 77.4034 28.4792C77.6612 28.7053 77.9462 28.841 78.2131 29.0536C78.48 29.2662 78.8102 29.3341 79.0862 29.5331C79.3621 29.7322 79.5611 29.9855 79.8416 30.1755C80.122 30.3655 80.2532 30.6957 80.5472 30.8721Z" fill="#FF5353"/>
<path d="M61.0837 31.2605C61.1255 31.5616 61.1148 31.8677 61.052 32.1652C60.957 32.4366 60.6811 32.6175 60.4821 32.8482C60.3201 33.0885 60.1217 33.3022 59.894 33.4815C59.5674 33.6813 59.2141 33.8336 58.8446 33.9339C58.4697 34.016 58.0882 34.0645 57.7047 34.0786C57.3255 34.1338 56.9433 34.1656 56.5602 34.1736C56.1753 34.1846 55.7901 34.1725 55.4067 34.1374C55.0254 34.1018 54.6483 34.0307 54.2804 33.9248C53.9082 33.8239 53.552 33.6717 53.2219 33.4725C52.9644 33.3245 52.7284 33.1419 52.5207 32.9297C52.3677 32.6824 52.2605 32.4097 52.2041 32.1245C52.1056 31.8534 52.0566 31.5669 52.0594 31.2786C52.0521 30.9881 52.0965 30.6986 52.1905 30.4236C52.2976 30.1604 52.4508 29.9184 52.6429 29.7089C52.8004 29.4614 52.9958 29.2401 53.2219 29.053C53.5531 28.8528 53.911 28.7005 54.2849 28.6007C54.6484 28.4666 55.0241 28.3681 55.4067 28.3067C55.7911 28.2622 56.1778 28.241 56.5647 28.2433C56.9497 28.2791 57.332 28.3396 57.7092 28.4243C58.0892 28.4679 58.4646 28.5451 58.831 28.655C59.2123 28.7291 59.5819 28.8539 59.9302 29.0259C60.174 29.1973 60.3919 29.403 60.5771 29.6366C60.7622 29.869 60.9046 30.1324 60.9977 30.4146C61.0721 30.69 61.1011 30.9757 61.0837 31.2605Z" fill="#FFB3C5"/>
<defs>
<filter id="filter0_i_1153_9934" x="0" y="-4" width="112" height="64" filterUnits="userSpaceOnUse" color-interpolation-filters="sRGB">
<feFlood flood-opacity="0" result="BackgroundImageFix"/>
<feBlend mode="normal" in="SourceGraphic" in2="BackgroundImageFix" result="shape"/>
<feColorMatrix in="SourceAlpha" type="matrix" values="0 0 0 0 0 0 0 0 0 0 0 0 0 0 0 0 0 0 127 0" result="hardAlpha"/>
<feOffset dy="-4"/>
<feGaussianBlur stdDeviation="5"/>
<feComposite in2="hardAlpha" operator="arithmetic" k2="-1" k3="1"/>
<feColorMatrix type="matrix" values="0 0 0 0 0.341176 0 0 0 0 0.615686 0 0 0 0 1 0 0 0 0.3 0"/>
<feBlend mode="normal" in2="shape" result="effect1_innerShadow_1153_9934"/>
</filter>
</defs>
</svg>
