<svg width="493" height="165" viewBox="0 0 493 165" fill="none" xmlns="http://www.w3.org/2000/svg">
<g opacity="0.75">
<path d="M0.550035 161.89C0.593405 162.381 0.82674 162.835 1.20033 163.157C1.57393 163.478 2.05824 163.641 2.55003 163.61C3.27003 163.49 3.87003 162.79 4.55003 162.61C5.23003 162.43 6.08005 162.72 6.78005 162.53C7.48005 162.34 8.03004 161.64 8.71004 161.41C9.39004 161.18 10.12 161.06 10.79 160.78C11.46 160.5 12.18 160.32 12.79 160C13.4 159.68 14.04 159.26 14.66 158.89C15.28 158.52 16.01 158.3 16.66 157.89C17.31 157.48 17.88 157.07 18.52 156.69C19.16 156.31 19.62 155.58 20.28 155.25C20.94 154.92 21.73 154.81 22.42 154.53C23.11 154.25 23.84 154.08 24.54 153.84C25.24 153.6 25.9701 153.46 26.6901 153.26C27.4101 153.06 28.07 152.66 28.8 152.5C29.53 152.34 30.31 152.5 31.05 152.41C31.79 152.32 32.5 152.17 33.24 152.09C33.98 152.01 34.72 152.09 35.47 152.09C36.22 152.09 36.93 151.73 37.68 151.73C38.43 151.73 39.17 151.64 39.91 151.73C40.65 151.82 41.38 151.97 42.12 152.04C42.86 152.11 43.58 152.32 44.31 152.43C45.04 152.54 45.82 152.43 46.54 152.63C47.26 152.83 48.05 152.78 48.76 152.97C49.47 153.16 50.04 153.88 50.76 154.12C51.48 154.36 52.3 154.26 52.98 154.54C53.66 154.82 54.31 155.23 54.98 155.54C55.65 155.85 56.17 156.47 56.8 156.84C57.43 157.21 58.37 157.16 58.98 157.58C59.59 158 59.86 158.94 60.5 159.32C61.14 159.7 62.03 159.62 62.69 159.95C63.35 160.28 63.87 160.95 64.56 161.23C65.25 161.51 65.92 161.85 66.63 162.09C67.34 162.33 68.03 162.62 68.75 162.82C69.47 163.02 70.26 162.92 70.99 163.08C71.72 163.24 72.49 163.08 73.22 163.24C73.95 163.4 74.62 163.99 75.36 164.07C76.1 164.15 76.88 163.86 77.62 163.9C78.36 163.94 79.1 164.08 79.84 164.08C80.58 164.08 81.31 163.63 82.05 163.59C82.79 163.55 83.58 164.1 84.32 164.03C85.06 163.96 85.82 163.88 86.55 163.76C87.28 163.64 87.9 162.88 88.62 162.76C89.34 162.64 90.13 162.76 90.85 162.53C91.57 162.3 92.36 162.36 93.06 162.12C93.76 161.88 94.41 161.46 95.06 161.18C95.71 160.9 96.47 160.64 97.13 160.32C97.79 160 98.21 159.2 98.84 158.82C99.47 158.44 100.32 158.39 100.92 157.96C101.52 157.53 102.15 157.14 102.79 156.76C103.43 156.38 104.18 156.24 104.85 155.91C105.52 155.58 105.99 154.86 106.68 154.58C107.37 154.3 108.07 154.06 108.78 153.81C109.49 153.56 110.29 153.68 111 153.48C111.71 153.28 112.34 152.69 113.06 152.48C113.78 152.27 114.62 152.74 115.35 152.62C116.08 152.5 116.74 151.78 117.48 151.7C118.22 151.62 118.97 151.7 119.72 151.64C120.47 151.58 121.21 151.48 121.95 151.48C122.69 151.48 123.43 151.89 124.17 151.93C124.91 151.97 125.68 151.71 126.42 151.78C127.16 151.85 127.84 152.35 128.58 152.47C129.32 152.59 130.1 152.47 130.82 152.58C131.54 152.69 132.18 153.26 132.89 153.45C133.6 153.64 134.41 153.57 135.11 153.81C135.81 154.05 136.35 154.71 137.03 155C137.71 155.29 138.6 155.13 139.26 155.46C139.92 155.79 140.55 156.22 141.19 156.59C141.83 156.96 142.59 157.19 143.19 157.59C143.79 157.99 144.19 158.78 144.83 159.16C145.47 159.54 146.31 159.5 146.98 159.83C147.65 160.16 148.15 160.83 148.84 161.11C149.53 161.39 150.16 161.83 150.84 162.11C151.52 162.39 152.28 162.52 153 162.72C153.72 162.92 154.5 162.85 155.22 163.01C155.94 163.17 156.69 163.23 157.42 163.35C158.15 163.47 158.91 163.35 159.65 163.42C160.39 163.49 161.08 164.18 161.82 164.21C162.56 164.24 163.32 164.11 164.06 164.11C164.8 164.11 165.55 164.04 166.29 164C167.03 163.96 167.77 163.81 168.5 163.73C169.23 163.65 169.93 163.27 170.67 163.15C171.41 163.03 172.15 163.05 172.87 162.89C173.59 162.73 174.35 162.7 175.06 162.5C175.77 162.3 176.6 162.4 177.3 162.16C178 161.92 178.63 161.43 179.3 161.16C179.97 160.89 180.61 160.44 181.3 160.11C181.99 159.78 182.56 159.32 183.19 158.95C183.82 158.58 184.71 158.55 185.32 158.13C185.93 157.71 186.41 157.13 187.05 156.74C187.69 156.35 188.37 156.07 189.05 155.74C189.73 155.41 190.43 155.22 191.12 154.93C191.81 154.64 192.48 154.4 193.19 154.16C193.9 153.92 194.51 153.45 195.19 153.26C195.87 153.07 196.56 152.6 197.29 152.44C198.02 152.28 198.78 152.24 199.51 152.12C200.24 152 201 152.03 201.74 151.95C202.48 151.87 203.23 151.89 203.97 151.85C204.71 151.81 205.45 151.9 206.2 151.9C206.95 151.9 207.69 151.74 208.43 151.78C209.17 151.82 209.94 151.63 210.68 151.71C211.42 151.79 212.17 151.88 212.9 152C213.63 152.12 214.32 152.54 215.04 152.7C215.76 152.86 216.56 152.79 217.27 152.99C217.98 153.19 218.52 153.99 219.27 154.24C220.02 154.49 220.8 154.36 221.49 154.64C222.18 154.92 222.69 155.56 223.35 155.89C224.01 156.22 224.65 156.58 225.29 156.95C225.93 157.32 226.72 157.46 227.29 157.88C227.86 158.3 228.62 158.49 229.29 158.88C229.96 159.27 230.41 159.88 231.07 160.16C231.73 160.44 232.46 160.6 233.13 160.88C233.8 161.16 234.32 161.88 235.01 162.09C235.7 162.3 236.57 161.96 237.28 162.16C237.99 162.36 238.61 162.78 239.28 162.94C239.95 163.1 240.69 163.32 241.41 163.44C241.618 163.471 241.83 163.454 242.03 163.392C242.231 163.329 242.414 163.223 242.568 163.08C242.722 162.936 242.841 162.761 242.918 162.565C242.994 162.37 243.026 162.159 243.01 161.95C243.01 160.84 242.94 160.84 242.94 159.72C242.94 158.6 243.44 158.6 243.44 157.48C243.44 156.36 242.99 156.36 242.99 155.25C242.99 154.14 243.23 154.13 243.23 153.01C243.23 151.89 242.79 151.89 242.79 150.78C242.79 149.67 243.21 149.66 243.21 148.54C243.21 147.42 242.94 147.43 242.94 146.31C242.94 145.19 242.8 145.19 242.8 144.08C242.8 142.97 242.8 142.96 242.8 141.85C242.8 140.74 243.06 140.73 243.06 139.61C243.06 138.49 243.06 138.5 243.06 137.38C243.06 136.26 243.39 136.26 243.39 135.15C243.39 134.04 242.85 134.03 242.85 132.91C242.85 131.79 243.26 131.8 243.26 130.68C243.26 129.56 242.85 129.56 242.85 128.44C242.85 127.32 243.43 127.32 243.43 126.2C243.43 125.08 242.95 125.08 242.95 123.97C242.95 122.86 243.18 122.85 243.18 121.73C243.18 120.61 243.37 120.61 243.37 119.5C243.37 118.39 243.08 118.38 243.08 117.26C243.08 116.14 243.44 116.15 243.44 115.03C243.44 113.91 243.26 113.91 243.26 112.8C243.26 111.69 243.39 111.68 243.39 110.56V108.32C243.39 107.2 243.16 107.2 243.16 106.08C243.16 104.96 243.31 104.97 243.31 103.85C243.31 102.73 243.47 102.73 243.47 101.61C243.47 100.49 242.92 100.49 242.92 99.3801C242.92 98.2701 242.81 98.2601 242.81 97.1401C242.81 96.0201 243.2 96.02 243.2 94.91C243.2 93.8 243.26 93.79 243.26 92.67C243.26 91.55 243.18 91.55 243.18 90.43C243.18 89.31 243.43 89.31 243.43 88.19C243.43 87.07 243.09 87.07 243.09 85.96C243.09 84.85 243.09 84.84 243.09 83.72C243.09 82.6 243.09 82.6 243.09 81.48C243.09 80.36 242.95 80.36 242.95 79.25C242.95 78.14 243.5 78.1301 243.5 77.0101C243.5 75.8901 243.04 75.8901 243.04 74.7701C243.04 73.6501 242.89 73.65 242.89 72.53C242.89 71.41 243.47 71.41 243.47 70.29C243.47 69.17 243.08 69.18 243.08 68.06C243.08 66.94 243.48 66.94 243.48 65.82C243.48 64.7 243.2 64.7 243.2 63.58C243.2 62.46 243.08 62.46 243.08 61.34C243.08 60.22 242.78 60.22 242.78 59.1C242.78 57.98 242.91 57.98 242.91 56.86C242.91 55.74 242.79 55.74 242.79 54.63C242.79 53.52 243.11 53.51 243.11 52.39C243.11 51.27 243.02 51.27 243.02 50.15C243.02 49.03 243.02 49.03 243.02 47.91C243.02 46.79 243.08 46.8 243.08 45.68C243.08 44.56 243.19 44.56 243.19 43.44C243.19 42.32 243.26 42.32 243.26 41.2C243.26 40.08 243.19 40.08 243.19 38.97C243.19 37.86 242.94 37.85 242.94 36.73C242.94 35.61 243.27 35.61 243.27 34.49C243.27 33.37 243.38 33.37 243.38 32.25C243.38 31.13 243.45 31.13 243.45 30.01C243.45 28.89 243.2 28.89 243.2 27.77C243.2 26.65 243.2 26.65 243.2 25.53C243.2 24.41 243.28 24.41 243.28 23.29C243.28 22.17 243.37 22.17 243.37 21.05C243.37 19.93 242.96 19.93 242.96 18.81C242.96 17.69 243.19 17.69 243.19 16.57C243.19 15.45 242.77 15.45 242.77 14.33C242.77 13.21 243 13.21 243 12.09C243 10.97 243 10.97 243 9.85002C243 8.73002 243.37 8.72002 243.37 7.60002C243.37 6.48002 243.1 6.48003 243.1 5.36003C243.1 4.24003 243.1 4.24003 243.1 3.11003C243.1 1.98003 244.1 1.41998 243.33 0.61998C242.56 -0.18002 241.96 0.530015 240.84 0.530015C239.72 0.530015 239.72 1.14 238.6 1.14C237.48 1.14 237.48 0.670029 236.36 0.670029C235.24 0.670029 235.24 1.08 234.12 1.08C233 1.08 232.99 0.569993 231.87 0.569993C230.75 0.569993 230.75 0.569993 229.63 0.569993C228.51 0.569993 228.51 0.509995 227.39 0.509995C226.27 0.509995 226.26 1.11998 225.14 1.11998C224.02 1.11998 224.02 0.980027 222.9 0.980027C221.78 0.980027 221.78 0.62999 220.65 0.62999C219.52 0.62999 219.53 0.87999 218.41 0.87999C217.29 0.87999 217.29 0.520005 216.17 0.520005C215.05 0.520005 215.05 0.830002 213.93 0.830002C212.81 0.830002 212.8 0.89 211.68 0.89C210.56 0.89 210.56 0.999985 209.44 0.999985C208.32 0.999985 208.32 1.12999 207.2 1.12999C206.08 1.12999 206.08 0.670029 204.95 0.670029C203.82 0.670029 203.83 0.819993 202.71 0.819993C201.59 0.819993 201.59 0.730027 200.47 0.730027C199.35 0.730027 199.34 1.09001 198.22 1.09001C197.1 1.09001 197.1 1.01 195.98 1.01C194.86 1.01 194.86 1.01 193.73 1.01C192.6 1.01 192.61 0.679978 191.49 0.679978C190.37 0.679978 190.37 1.01 189.25 1.01C188.13 1.01 188.13 0.749985 187.01 0.749985H184.77C183.65 0.749985 183.65 0.590012 182.53 0.590012C181.41 0.590012 181.41 0.920029 180.29 0.920029C179.17 0.920029 179.17 0.749985 178.05 0.749985C176.93 0.749985 176.93 0.850022 175.81 0.850022C174.69 0.850022 174.69 0.710007 173.58 0.710007C172.47 0.710007 172.46 0.809983 171.34 0.809983C170.22 0.809983 170.22 0.90001 169.1 0.90001C167.98 0.90001 167.98 0.689988 166.86 0.689988C165.74 0.689988 165.74 0.61998 164.62 0.61998C163.5 0.61998 163.49 1.09001 162.37 1.09001C161.25 1.09001 161.25 1.15001 160.13 1.15001C159.01 1.15001 159.01 1.22002 157.88 1.22002C156.75 1.22002 156.76 0.929978 155.64 0.929978C154.52 0.929978 154.52 1.09001 153.4 1.09001C152.28 1.09001 152.27 0.61998 151.15 0.61998C150.03 0.61998 150.03 0.520005 148.91 0.520005C147.79 0.520005 147.79 1.18999 146.67 1.18999C145.55 1.18999 145.55 0.699998 144.43 0.699998C143.31 0.699998 143.31 0.699998 142.19 0.699998C141.07 0.699998 141.07 0.590012 139.95 0.590012C138.83 0.590012 138.83 0.759995 137.71 0.759995C136.59 0.759995 136.59 1.17998 135.47 1.17998C134.35 1.17998 134.35 1.17998 133.22 1.17998C132.09 1.17998 132.1 0.970017 130.98 0.970017C129.86 0.970017 129.86 0.790024 128.73 0.790024H126.55C125.43 0.790024 125.43 0.999985 124.3 0.999985H122.06C120.94 0.999985 120.94 0.749985 119.82 0.749985C118.7 0.749985 118.7 0.689988 117.58 0.689988H115.33C114.21 0.689988 114.21 0.929978 113.09 0.929978C111.97 0.929978 111.97 1.18999 110.85 1.18999C109.73 1.18999 109.72 1.18999 108.6 1.18999C107.48 1.18999 107.48 1.30003 106.36 1.30003C105.24 1.30003 105.23 0.759995 104.11 0.759995C102.99 0.759995 102.99 0.90001 101.86 0.90001C100.73 0.90001 100.74 1.05998 99.62 1.05998C98.5 1.05998 98.5 1.17998 97.38 1.17998C96.26 1.17998 96.26 0.939988 95.13 0.939988C94 0.939988 94.01 1.02 92.89 1.02C91.77 1.02 91.77 0.710007 90.64 0.710007C89.51 0.710007 89.52 1.01 88.4 1.01C87.28 1.01 87.27 0.699998 86.15 0.699998C85.03 0.699998 85.03 1.08 83.91 1.08C82.79 1.08 82.78 0.840012 81.66 0.840012C80.54 0.840012 80.54 0.90001 79.42 0.90001C78.3 0.90001 78.29 1.24004 77.17 1.24004C76.05 1.24004 76.05 1.05003 74.92 1.05003C73.79 1.05003 73.8 0.990037 72.68 0.990037C71.56 0.990037 71.55 0.990037 70.43 0.990037C69.31 0.990037 69.31 0.699998 68.18 0.699998C67.05 0.699998 67.06 0.999985 65.94 0.999985H63.69C62.57 0.999985 62.57 1.24004 61.44 1.24004C60.31 1.24004 60.32 0.939988 59.2 0.939988C58.08 0.939988 58.07 1.31999 56.95 1.31999C55.83 1.31999 55.83 1.31999 54.7 1.31999C53.57 1.31999 53.58 0.939988 52.46 0.939988C51.34 0.939988 51.33 0.780015 50.21 0.780015C49.09 0.780015 49.09 1.33 47.97 1.33C46.85 1.33 46.84 0.990037 45.72 0.990037H43.48C42.36 0.990037 42.36 0.759995 41.23 0.759995C40.1 0.759995 40.11 1.01 38.99 1.01C37.87 1.01 37.86 1.09001 36.74 1.09001C35.62 1.09001 35.62 0.860032 34.49 0.860032C33.36 0.860032 33.37 0.740037 32.25 0.740037C31.13 0.740037 31.12 0.86998 30 0.86998C28.88 0.86998 28.87 1.21001 27.75 1.21001C26.63 1.21001 26.63 0.949998 25.5 0.949998C24.37 0.949998 24.38 1.37999 23.25 1.37999C22.12 1.37999 22.13 1.30003 21 1.30003C19.87 1.30003 19.88 1.05998 18.75 1.05998H16.55C15.43 1.05998 15.43 1.05998 14.31 1.05998C13.19 1.05998 13.18 1.17998 12.06 1.17998C10.94 1.17998 10.93 1.17998 9.81004 1.17998C8.69004 1.17998 8.68004 0.929978 7.56004 0.929978C6.44004 0.929978 6.43003 1.04002 5.30003 1.04002C4.17003 1.04002 4.18003 1.48003 3.05003 1.48003C1.92003 1.48003 1.41003 0.180027 0.610032 0.980027C-0.189968 1.78003 0.490037 2.28001 0.490037 3.40001C0.490037 4.52001 0.580033 4.52 0.580033 5.64C0.580033 6.76 1.08003 6.74998 1.08003 7.86998C1.08003 8.98998 0.600022 8.99003 0.600022 10.11C0.600022 11.23 0.940049 11.22 0.940049 12.34C0.940049 13.46 0.490037 13.46 0.490037 14.57C0.490037 15.68 0.490037 15.69 0.490037 16.81C0.490037 17.93 1.12004 17.92 1.12004 19.04C1.12004 20.16 0.850022 20.16 0.850022 21.27C0.850022 22.38 0.440049 22.39 0.440049 23.5C0.440049 24.61 0.650041 24.62 0.650041 25.74C0.650041 26.86 0.820024 26.85 0.820024 27.97C0.820024 29.09 0.690049 29.09 0.690049 30.2C0.690049 31.31 1.01003 31.32 1.01003 32.44C1.01003 33.56 0.690049 33.56 0.690049 34.68C0.690049 35.8 0.750047 35.8 0.750047 36.92C0.750047 38.04 0.900041 38.03 0.900041 39.15C0.900041 40.27 0.43004 40.27 0.43004 41.39C0.43004 42.51 0.93004 42.5 0.93004 43.62C0.93004 44.74 0.870042 44.74 0.870042 45.85C0.870042 46.96 0.800035 46.97 0.800035 48.09C0.800035 49.21 0.620042 49.21 0.620042 50.32C0.620042 51.43 0.620042 51.44 0.620042 52.56C0.620042 53.68 1.09004 53.68 1.09004 54.79C1.09004 55.9 0.710038 55.91 0.710038 57.03C0.710038 58.15 0.710038 58.15 0.710038 59.27C0.710038 60.39 0.650041 60.39 0.650041 61.51C0.650041 62.63 0.770036 62.62 0.770036 63.74C0.770036 64.86 0.560044 64.86 0.560044 65.98C0.560044 67.1 0.560044 67.1 0.560044 68.21C0.560044 69.32 0.790025 69.33 0.790025 70.45C0.790025 71.57 1.13002 71.57 1.13002 72.69C1.13002 73.81 0.560044 73.81 0.560044 74.93C0.560044 76.05 0.990037 76.04 0.990037 77.16C0.990037 78.28 0.92003 78.2799 0.92003 79.3999C0.92003 80.5199 0.730027 80.5201 0.730027 81.6401C0.730027 82.7601 0.850022 82.75 0.850022 83.87C0.850022 84.99 0.91002 84.99 0.91002 86.11C0.91002 87.23 0.860032 87.23 0.860032 88.35C0.860032 89.47 0.610032 89.47 0.610032 90.59C0.610032 91.71 0.460038 91.71 0.460038 92.82C0.460038 93.93 0.790025 93.94 0.790025 95.06C0.790025 96.18 0.490037 96.18 0.490037 97.3C0.490037 98.42 0.730027 98.42 0.730027 99.54C0.730027 100.66 1.08003 100.66 1.08003 101.78C1.08003 102.9 0.67003 102.9 0.67003 104.02C0.67003 105.14 0.42003 105.14 0.42003 106.25C0.42003 107.36 0.650041 107.37 0.650041 108.49C0.650041 109.61 1.02004 109.61 1.02004 110.73C1.02004 111.85 0.770036 111.85 0.770036 112.97C0.770036 114.09 0.43004 114.09 0.43004 115.21C0.43004 116.33 1.12004 116.32 1.12004 117.44C1.12004 118.56 0.540025 118.56 0.540025 119.68C0.540025 120.8 1.13002 120.79 1.13002 121.91C1.13002 123.03 0.490037 123.03 0.490037 124.15C0.490037 125.27 0.91002 125.27 0.91002 126.39C0.91002 127.51 1.14003 127.51 1.14003 128.63C1.14003 129.75 1.14003 129.75 1.14003 130.87C1.14003 131.99 0.440049 131.99 0.440049 133.11C0.440049 134.23 1.03005 134.23 1.03005 135.35C1.03005 136.47 0.810044 136.47 0.810044 137.59C0.810044 138.71 1.11003 138.71 1.11003 139.83C1.11003 140.95 0.730027 140.95 0.730027 142.07C0.730027 143.19 1.00005 143.19 1.00005 144.31C1.00005 145.43 1.00005 145.43 1.00005 146.55C1.00005 147.67 0.66002 147.67 0.66002 148.79C0.66002 149.91 0.490037 149.91 0.490037 151.03C0.490037 152.15 1.10002 152.15 1.10002 153.27C1.10002 154.39 1.18004 154.39 1.18004 155.52C1.18004 156.65 0.460038 156.64 0.460038 157.76C0.460038 158.88 1.14003 158.9 1.08003 160.02C1.02003 161.14 0.550035 160.77 0.550035 161.89Z" fill="#5E4A54"/>
<path d="M249.88 162.15C249.901 162.382 249.968 162.608 250.078 162.815C250.187 163.021 250.336 163.203 250.517 163.351C250.698 163.499 250.906 163.61 251.129 163.677C251.353 163.743 251.588 163.765 251.82 163.74C252.54 163.62 253.27 163.53 253.98 163.37C254.69 163.21 255.4 163.02 256.1 162.82C256.8 162.62 257.38 162.04 258.1 161.82C258.82 161.6 259.56 161.59 260.23 161.31C260.9 161.03 261.67 160.91 262.31 160.59C262.95 160.27 263.66 159.95 264.31 159.59C264.96 159.23 265.31 158.37 265.86 157.96C266.41 157.55 267.03 156.96 267.67 156.62C268.31 156.28 269.11 156.12 269.77 155.79C270.43 155.46 271.23 155.44 271.92 155.15C272.61 154.86 273.23 154.46 273.92 154.22C274.61 153.98 275.24 153.46 275.92 153.22C276.6 152.98 277.37 152.86 278.1 152.7C278.83 152.54 279.58 152.52 280.32 152.4C281.06 152.28 281.77 151.96 282.51 151.88C283.25 151.8 284.03 152.25 284.77 152.21C285.51 152.17 286.25 152.34 286.99 152.34C287.73 152.34 288.48 151.83 289.22 151.87C289.96 151.91 290.68 152.26 291.42 152.34C292.16 152.42 292.86 152.69 293.6 152.8C294.34 152.91 295.14 152.62 295.86 152.8C296.58 152.98 297.2 153.56 297.91 153.8C298.62 154.04 299.52 153.65 300.22 153.89C300.92 154.13 301.53 154.66 302.22 154.95C302.91 155.24 303.53 155.65 304.22 155.95C304.91 156.25 305.52 156.67 306.15 157.04C306.78 157.41 307.55 157.61 308.15 158.04C308.75 158.47 309.29 159.04 309.93 159.38C310.57 159.72 311.4 159.77 312.06 160.1C312.72 160.43 313.35 160.8 314.06 161.1C314.77 161.4 315.31 161.98 316.01 162.22C316.71 162.46 317.38 162.87 318.09 163.07C318.8 163.27 319.61 163.16 320.34 163.32C321.07 163.48 321.83 163.32 322.57 163.47C323.31 163.62 323.99 164.03 324.73 164.11C325.47 164.19 326.2 164.37 326.95 164.4C327.7 164.43 328.44 164.52 329.18 164.52C329.92 164.52 330.67 164.12 331.41 164.08C332.15 164.04 332.89 164.02 333.63 163.94C334.37 163.86 335.13 163.94 335.86 163.86C336.59 163.78 337.27 163.3 338 163.15C338.73 163 339.52 163.1 340.23 162.9C340.94 162.7 341.57 162.19 342.23 161.9C342.89 161.61 343.55 161.24 344.23 160.96C344.91 160.68 345.74 160.7 346.4 160.37C347.06 160.04 347.78 159.77 348.4 159.37C349.02 158.97 349.78 158.72 350.4 158.3C351.02 157.88 351.48 157.3 352.12 156.88C352.76 156.46 353.33 156.01 354 155.68C354.67 155.35 355.35 155.05 356 154.77C356.65 154.49 357.39 154.25 358.1 154C358.81 153.75 359.45 153.33 360.17 153.13C360.89 152.93 361.75 153.35 362.48 153.2C363.21 153.05 363.91 152.9 364.65 152.79C365.39 152.68 366.06 152.17 366.8 152.09C367.54 152.01 368.27 151.78 369.01 151.74C369.75 151.7 370.51 151.63 371.25 151.63C371.99 151.63 372.73 152.04 373.47 152.08C374.21 152.12 374.99 151.87 375.72 151.95C376.45 152.03 377.23 152.02 377.96 152.14C378.69 152.26 379.33 152.94 380.05 153.14C380.77 153.34 381.49 153.46 382.2 153.66C382.91 153.86 383.78 153.59 384.48 153.83C385.18 154.07 385.89 154.36 386.58 154.64C387.27 154.92 387.67 155.82 388.33 156.15C388.99 156.48 389.92 156.33 390.56 156.71C391.2 157.09 391.82 157.52 392.42 157.94C393.02 158.36 393.53 158.94 394.17 159.33C394.81 159.72 395.57 159.85 396.23 160.18C396.89 160.51 397.57 160.79 398.23 161.08C398.89 161.37 399.43 162.08 400.13 162.35C400.83 162.62 401.62 162.6 402.33 162.8C403.04 163 403.75 163.27 404.48 163.43C405.21 163.59 405.98 163.43 406.72 163.6C407.46 163.77 408.21 163.6 408.94 163.6C409.67 163.6 410.39 164.07 411.13 164.1C411.87 164.13 412.62 163.9 413.36 163.9C414.1 163.9 414.84 164.03 415.58 164C416.32 163.97 417.07 164 417.81 163.9C418.55 163.8 419.23 163.42 419.97 163.31C420.71 163.2 421.54 163.63 422.26 163.47C422.98 163.31 423.63 162.8 424.35 162.6C425.07 162.4 425.68 161.93 426.35 161.69C427.02 161.45 427.73 161.19 428.41 160.91C429.09 160.63 429.92 160.64 430.58 160.32C431.24 160 432.01 159.82 432.65 159.44C433.29 159.06 433.7 158.32 434.31 157.9C434.92 157.48 435.58 157.13 436.22 156.75C436.86 156.37 437.57 156.13 438.22 155.8C438.87 155.47 439.47 154.97 440.16 154.68C440.85 154.39 441.6 154.28 442.31 154.04C443.02 153.8 443.76 153.72 444.47 153.52C445.18 153.32 445.86 152.94 446.59 152.78C447.32 152.62 448.12 152.94 448.85 152.78C449.58 152.62 450.27 152.25 451 152.17C451.73 152.09 452.47 151.88 453.21 151.84C453.95 151.8 454.7 151.58 455.45 151.58C456.2 151.58 456.95 151.65 457.69 151.69C458.43 151.73 459.15 152.16 459.88 152.23C460.61 152.3 461.38 152.23 462.12 152.33C462.86 152.43 463.49 153.03 464.21 153.18C464.93 153.33 465.77 153.07 466.48 153.27C467.19 153.47 467.91 153.69 468.61 153.93C469.31 154.17 469.87 154.79 470.61 155.07C471.35 155.35 472.09 155.38 472.75 155.71C473.41 156.04 474.18 156.21 474.82 156.58C475.46 156.95 475.91 157.65 476.52 158.07C477.13 158.49 477.74 158.86 478.37 159.23C479 159.6 479.56 160.1 480.22 160.43C480.88 160.76 481.58 160.96 482.22 161.25C482.86 161.54 483.68 161.49 484.37 161.73C485.06 161.97 485.75 162.15 486.45 162.35C487.15 162.55 487.74 163.18 488.45 163.35C489.16 163.52 489.95 163.27 490.68 163.35C491.58 163.5 492.68 162.93 492.68 162.01C492.68 160.9 492.62 160.9 492.62 159.78C492.62 158.66 492.18 158.66 492.18 157.54C492.18 156.42 492.64 156.42 492.64 155.31C492.64 154.2 492.64 154.19 492.64 153.07C492.64 151.95 492.41 151.95 492.41 150.84V148.6C492.41 147.49 492.69 147.49 492.69 146.37C492.69 145.25 492.69 145.25 492.69 144.14C492.69 143.03 492.25 143.02 492.25 141.91C492.25 140.8 492.01 140.79 492.01 139.67C492.01 138.55 492.6 138.56 492.6 137.44C492.6 136.32 492.3 136.32 492.3 135.21C492.3 134.1 492.14 134.09 492.14 132.97C492.14 131.85 492.09 131.86 492.09 130.74C492.09 129.62 492.24 129.62 492.24 128.5C492.24 127.38 492.49 127.38 492.49 126.26C492.49 125.14 492.49 125.14 492.49 124.03C492.49 122.92 492.16 122.91 492.16 121.79C492.16 120.67 492.22 120.68 492.22 119.56C492.22 118.44 492.09 118.44 492.09 117.32C492.09 116.2 492.74 116.21 492.74 115.09C492.74 113.97 492.43 113.97 492.43 112.86C492.43 111.75 492.17 111.74 492.17 110.62C492.17 109.5 492.51 109.5 492.51 108.38C492.51 107.26 492.71 107.26 492.71 106.14C492.71 105.02 492.13 105.03 492.13 103.91C492.13 102.79 492.25 102.79 492.25 101.67C492.25 100.55 492.25 100.55 492.25 99.44C492.25 98.33 492.1 98.32 492.1 97.2C492.1 96.08 492.64 96.08 492.64 94.97C492.64 93.86 492.03 93.85 492.03 92.73C492.03 91.61 492.35 91.6101 492.35 90.4901C492.35 89.3701 492.2 89.3701 492.2 88.2501C492.2 87.1301 492.04 87.1301 492.04 86.0201C492.04 84.9101 492.59 84.9 492.59 83.78C492.59 82.66 492.64 82.66 492.64 81.54C492.64 80.42 492.28 80.42 492.28 79.31C492.28 78.2 492.71 78.19 492.71 77.07C492.71 75.95 492.01 75.95 492.01 74.83C492.01 73.71 492.46 73.71 492.46 72.59C492.46 71.47 492.61 71.47 492.61 70.35C492.61 69.23 491.99 69.24 491.99 68.12C491.99 67 492.67 67 492.67 65.88C492.67 64.76 492.56 64.76 492.56 63.64C492.56 62.52 492.46 62.52 492.46 61.4C492.46 60.28 492.14 60.28 492.14 59.16C492.14 58.04 492.27 58.04 492.27 56.92C492.27 55.8 492.39 55.8 492.39 54.69C492.39 53.58 492.55 53.57 492.55 52.45C492.55 51.33 492.71 51.33 492.71 50.21C492.71 49.09 492.13 49.09 492.13 47.97C492.13 46.85 492.23 46.8601 492.23 45.7401C492.23 44.6201 492.63 44.62 492.63 43.5C492.63 42.38 492.55 42.38 492.55 41.26C492.55 40.14 492.02 40.14 492.02 39.03C492.02 37.92 492.23 37.91 492.23 36.79C492.23 35.67 492.23 35.67 492.23 34.55C492.23 33.43 492.67 33.43 492.67 32.31C492.67 31.19 492.57 31.19 492.57 30.07V27.83C492.57 26.71 492.38 26.71 492.38 25.59C492.38 24.47 492.14 24.47 492.14 23.35C492.14 22.23 492.5 22.23 492.5 21.11C492.5 19.99 492.42 19.99 492.42 18.87C492.42 17.75 492.15 17.75 492.15 16.63C492.15 15.51 492.15 15.51 492.15 14.39C492.15 13.27 492.15 13.27 492.15 12.15C492.15 11.03 492.63 11.03 492.63 9.91003C492.63 8.79003 492.72 8.78003 492.72 7.66003C492.72 6.54003 492.24 6.54004 492.24 5.42004C492.24 4.30004 492.05 4.30004 492.05 3.17004C492.05 2.04004 493.28 1.64004 492.48 0.850037C491.68 0.0600368 491.28 0.790039 490.16 0.790039C489.04 0.790039 489.04 0.970032 487.92 0.970032H485.68C484.56 0.970032 484.56 0.970032 483.44 0.970032C482.32 0.970032 482.32 0.600037 481.19 0.600037C480.06 0.600037 480.07 0.820008 478.95 0.820008C477.83 0.820008 477.83 0.630005 476.71 0.630005C475.59 0.630005 475.58 0.860047 474.46 0.860047C473.34 0.860047 473.34 0.650025 472.22 0.650025C471.1 0.650025 471.1 1 469.97 1C468.84 1 468.85 0.720032 467.73 0.720032C466.61 0.720032 466.61 0.720032 465.49 0.720032C464.37 0.720032 464.37 0.790039 463.25 0.790039C462.13 0.790039 462.12 1.20001 461 1.20001H458.76C457.64 1.20001 457.64 0.690003 456.52 0.690003C455.4 0.690003 455.4 1.27002 454.27 1.27002C453.14 1.27002 453.15 0.840027 452.03 0.840027C450.91 0.840027 450.91 0.640015 449.79 0.640015C448.67 0.640015 448.66 1.27002 447.54 1.27002C446.42 1.27002 446.42 1.20001 445.3 1.20001C444.18 1.20001 444.18 1.12 443.05 1.12H440.81C439.69 1.12 439.69 0.610047 438.57 0.610047H436.33C435.21 0.610047 435.21 1.06 434.09 1.06C432.97 1.06 432.97 0.720032 431.85 0.720032H429.61C428.49 0.720032 428.49 0.929993 427.37 0.929993C426.25 0.929993 426.25 1.15002 425.13 1.15002C424.01 1.15002 424.01 1.02002 422.9 1.02002C421.79 1.02002 421.78 1.07001 420.66 1.07001C419.54 1.07001 419.54 1.14001 418.42 1.14001C417.3 1.14001 417.3 0.980042 416.18 0.980042C415.06 0.980042 415.06 1.17004 413.94 1.17004C412.82 1.17004 412.81 0.75 411.69 0.75C410.57 0.75 410.57 0.900025 409.45 0.900025C408.33 0.900025 408.33 1.16003 407.2 1.16003C406.07 1.16003 406.08 0.950012 404.96 0.950012C403.84 0.950012 403.84 1.13001 402.72 1.13001C401.6 1.13001 401.6 0.690003 400.47 0.690003C399.34 0.690003 399.35 1.07001 398.23 1.07001C397.11 1.07001 397.11 1.07001 395.99 1.07001C394.87 1.07001 394.87 1.17999 393.75 1.17999C392.63 1.17999 392.63 1.17999 391.51 1.17999C390.39 1.17999 390.39 1 389.27 1C388.15 1 388.15 1.19 387.03 1.19C385.91 1.19 385.91 0.75 384.79 0.75C383.67 0.75 383.67 0.850037 382.54 0.850037C381.41 0.850037 381.42 1.24005 380.3 1.24005C379.18 1.24005 379.18 0.960022 378.05 0.960022C376.92 0.960022 376.93 0.800049 375.81 0.800049C374.69 0.800049 374.69 0.970032 373.56 0.970032C372.43 0.970032 372.44 1.07001 371.32 1.07001C370.2 1.07001 370.2 1.12 369.08 1.12C367.96 1.12 367.96 0.550049 366.84 0.550049C365.72 0.550049 365.72 1.10004 364.59 1.10004C363.46 1.10004 363.47 0.619995 362.35 0.619995C361.23 0.619995 361.23 0.869995 360.11 0.869995C358.99 0.869995 358.98 0.619995 357.86 0.619995C356.74 0.619995 356.74 0.550049 355.62 0.550049C354.5 0.550049 354.49 1.09003 353.37 1.09003C352.25 1.09003 352.25 0.590027 351.13 0.590027C350.01 0.590027 350 1 348.88 1C347.76 1 347.76 0.660034 346.64 0.660034C345.52 0.660034 345.52 1.10004 344.39 1.10004C343.26 1.10004 343.27 0.840027 342.15 0.840027C341.03 0.840027 341.03 1.14001 339.9 1.14001C338.77 1.14001 338.78 0.790039 337.66 0.790039C336.54 0.790039 336.53 1.01001 335.41 1.01001C334.29 1.01001 334.29 1.17999 333.17 1.17999C332.05 1.17999 332.04 0.910034 330.92 0.910034C329.8 0.910034 329.8 0.780029 328.68 0.780029C327.56 0.780029 327.55 0.610047 326.43 0.610047C325.31 0.610047 325.31 0.710022 324.18 0.710022C323.05 0.710022 323.06 0.800049 321.94 0.800049C320.82 0.800049 320.81 0.600037 319.69 0.600037C318.57 0.600037 318.57 0.970032 317.45 0.970032C316.33 0.970032 316.32 0.809998 315.2 0.809998H312.95C311.83 0.809998 311.83 0.530029 310.7 0.530029C309.57 0.530029 309.58 0.76001 308.46 0.76001C307.34 0.76001 307.33 0.950012 306.21 0.950012C305.09 0.950012 305.09 0.850037 303.96 0.850037C302.83 0.850037 302.84 0.640015 301.72 0.640015C300.6 0.640015 300.59 0.720032 299.47 0.720032H297.23C296.1 0.720032 296.1 0.580017 294.98 0.580017C293.86 0.580017 293.86 1.21002 292.74 1.21002C291.62 1.21002 291.62 0.880005 290.49 0.880005C289.36 0.880005 289.37 0.960022 288.25 0.960022C287.13 0.960022 287.12 0.850037 286 0.850037C284.88 0.850037 284.88 1.05005 283.75 1.05005C282.62 1.05005 282.63 1.24005 281.51 1.24005C280.39 1.24005 280.38 1.09003 279.26 1.09003C278.14 1.09003 278.13 0.910034 277.01 0.910034H274.76C273.64 0.910034 273.64 0.720032 272.51 0.720032C271.38 0.720032 271.39 0.869995 270.26 0.869995C269.13 0.869995 269.14 0.929993 268.01 0.929993C266.88 0.929993 266.89 1.01001 265.76 1.01001C264.63 1.01001 264.64 0.690003 263.52 0.690003C262.4 0.690003 262.39 0.850037 261.27 0.850037C260.15 0.850037 260.14 1.13001 259.02 1.13001C257.9 1.13001 257.89 0.590027 256.77 0.590027C255.65 0.590027 255.64 0.590027 254.51 0.590027C253.38 0.590027 253.39 0.860047 252.26 0.860047C251.13 0.860047 250.96 0.280007 250.16 1.07001C249.36 1.86001 250.08 2.07002 250.08 3.15002C250.08 4.23002 249.77 4.27001 249.77 5.39001C249.77 6.51001 250 6.5 250 7.62C250 8.74 250 8.74005 250 9.86005C250 10.98 250.1 10.97 250.1 12.09C250.1 13.21 250.29 13.21 250.29 14.32C250.29 15.43 249.84 15.44 249.84 16.56C249.84 17.68 249.84 17.67 249.84 18.79C249.84 19.91 249.97 19.91 249.97 21.02C249.97 22.13 249.8 22.14 249.8 23.25C249.8 24.36 250.06 24.3701 250.06 25.4901C250.06 26.6101 249.99 26.6 249.99 27.72C249.99 28.84 249.86 28.84 249.86 29.96C249.86 31.08 250.14 31.07 250.14 32.19C250.14 33.31 250.14 33.31 250.14 34.43C250.14 35.55 250.14 35.55 250.14 36.67C250.14 37.79 249.66 37.78 249.66 38.9C249.66 40.02 249.66 40.02 249.66 41.14C249.66 42.26 250.15 42.25 250.15 43.37C250.15 44.49 249.76 44.49 249.76 45.6C249.76 46.71 250.23 46.72 250.23 47.84C250.23 48.96 250.23 48.96 250.23 50.07C250.23 51.18 249.83 51.19 249.83 52.31C249.83 53.43 250.05 53.43 250.05 54.55V56.78C250.05 57.9 249.73 57.9 249.73 59.02C249.73 60.14 249.68 60.14 249.68 61.26C249.68 62.38 249.88 62.3701 249.88 63.4901C249.88 64.6101 250.19 64.61 250.19 65.73C250.19 66.85 249.97 66.85 249.97 67.96C249.97 69.07 249.63 69.08 249.63 70.2C249.63 71.32 249.85 71.32 249.85 72.44C249.85 73.56 250.16 73.56 250.16 74.68C250.16 75.8 249.81 75.79 249.81 76.91C249.81 78.03 249.81 78.03 249.81 79.15C249.81 80.27 249.88 80.2701 249.88 81.3901C249.88 82.5101 249.88 82.5001 249.88 83.6201C249.88 84.7401 249.62 84.74 249.62 85.86C249.62 86.98 249.76 86.98 249.76 88.1C249.76 89.22 249.95 89.22 249.95 90.34C249.95 91.46 249.84 91.46 249.84 92.57C249.84 93.68 249.77 93.69 249.77 94.81C249.77 95.93 249.84 95.93 249.84 97.05C249.84 98.17 250 98.17 250 99.29C250 100.41 249.64 100.41 249.64 101.53C249.64 102.65 249.56 102.65 249.56 103.77C249.56 104.89 249.91 104.89 249.91 106.01C249.91 107.13 249.54 107.12 249.54 108.24C249.54 109.36 249.84 109.36 249.84 110.48C249.84 111.6 249.84 111.6 249.84 112.72C249.84 113.84 249.66 113.84 249.66 114.96C249.66 116.08 249.93 116.07 249.93 117.19C249.93 118.31 249.87 118.31 249.87 119.43C249.87 120.55 250.11 120.54 250.11 121.66C250.11 122.78 250.24 122.78 250.24 123.9C250.24 125.02 250.17 125.02 250.17 126.14C250.17 127.26 249.88 127.26 249.88 128.38C249.88 129.5 249.52 129.5 249.52 130.62C249.52 131.74 249.52 131.74 249.52 132.86C249.52 133.98 250.2 133.98 250.2 135.1C250.2 136.22 249.78 136.22 249.78 137.34C249.78 138.46 250.11 138.46 250.11 139.58C250.11 140.7 249.98 140.7 249.98 141.82C249.98 142.94 250.08 142.94 250.08 144.06C250.08 145.18 250.15 145.18 250.15 146.3C250.15 147.42 250.02 147.42 250.02 148.54C250.02 149.66 249.5 149.66 249.5 150.78C249.5 151.9 250.18 151.9 250.18 153.02C250.18 154.14 250.1 154.14 250.1 155.27C250.1 156.4 249.88 156.39 249.88 157.51C249.88 158.63 250.08 158.64 250.02 159.77C249.96 160.9 249.88 161.03 249.88 162.15Z" fill="#5E4A54"/>
<path d="M444.98 52.96C445.25 54.17 445.36 54.15 445.64 55.36C445.92 56.57 445.25 56.9 446.04 57.87C446.83 58.84 447.19 58.44 448.32 58.95C449.45 59.46 449.57 59.2 450.71 59.71C450.905 59.7945 451.071 59.9342 451.188 60.1119C451.304 60.2896 451.366 60.4975 451.366 60.71C451.366 60.9225 451.304 61.1304 451.188 61.3081C451.071 61.4857 450.905 61.6254 450.71 61.71C449.64 62.34 449.71 62.38 448.6 63.02C447.49 63.66 447.07 63.27 446.4 64.32C445.73 65.37 446.55 65.65 446.4 66.89C446.25 68.13 446.14 68.11 446 69.35C445.975 69.5509 445.895 69.7411 445.769 69.8994C445.643 70.0578 445.475 70.1782 445.285 70.2475C445.095 70.3167 444.889 70.3322 444.69 70.292C444.492 70.2519 444.308 70.1578 444.16 70.0201C443.22 69.2001 443.16 69.3 442.16 68.48C441.16 67.66 441.57 67.02 440.37 66.71C439.17 66.4 439.13 67 437.91 67.26C436.69 67.52 436.7 67.54 435.48 67.8C435.283 67.8656 435.07 67.8681 434.871 67.807C434.672 67.746 434.497 67.6245 434.371 67.4595C434.244 67.2945 434.172 67.0941 434.165 66.8863C434.158 66.6784 434.215 66.4735 434.33 66.3C434.82 65.16 434.76 65.13 435.25 63.99C435.74 62.85 436.25 62.94 436.25 61.69C436.25 60.44 435.62 60.62 435 59.54C434.38 58.46 434.41 58.45 433.79 57.37C433.689 57.1965 433.635 56.9991 433.636 56.7982C433.636 56.5972 433.69 56.4 433.792 56.2268C433.894 56.0536 434.04 55.9107 434.215 55.8128C434.391 55.715 434.589 55.6657 434.79 55.67C436.03 55.79 436.04 55.72 437.28 55.83C438.52 55.94 438.6 56.67 439.76 56.22C440.92 55.77 440.6 55.28 441.43 54.35C442.26 53.42 442.29 53.46 443.13 52.53C443.24 52.3503 443.403 52.2097 443.597 52.1282C443.791 52.0467 444.006 52.0285 444.211 52.0761C444.415 52.1238 444.6 52.2348 444.738 52.3935C444.877 52.5522 444.961 52.7504 444.98 52.96Z" fill="#715C67"/>
<path d="M432.11 99.4099C432.65 100.09 432.57 100.15 433.11 100.84C433.65 101.53 433.4 101.84 434.19 102.23C434.98 102.62 435.08 102.23 435.95 102.17L437.69 102.11C437.829 102.103 437.968 102.134 438.09 102.202C438.213 102.269 438.314 102.369 438.383 102.49C438.451 102.612 438.484 102.75 438.479 102.89C438.473 103.029 438.428 103.164 438.35 103.28C437.87 104.01 437.8 103.96 437.35 104.69C436.9 105.42 436.46 105.32 436.35 106.18C436.24 107.04 436.67 107.05 436.96 107.87C437.25 108.69 437.33 108.67 437.62 109.49C437.666 109.622 437.676 109.763 437.647 109.9C437.619 110.037 437.554 110.163 437.46 110.266C437.365 110.369 437.245 110.444 437.111 110.483C436.977 110.523 436.835 110.525 436.7 110.49C435.86 110.26 435.88 110.17 435.04 109.94C434.2 109.71 434.22 109.46 433.36 109.63C432.5 109.8 432.64 110.05 431.95 110.63C431.26 111.21 431.34 111.26 430.65 111.79C430.519 111.871 430.37 111.919 430.217 111.928C430.063 111.938 429.91 111.909 429.77 111.844C429.63 111.78 429.509 111.682 429.416 111.559C429.324 111.436 429.263 111.292 429.24 111.14C429.24 110.27 429.39 110.26 429.35 109.39C429.31 108.52 429.52 108.47 429.1 107.7C428.68 106.93 428.4 107.26 427.68 106.77C426.96 106.28 427.03 106.18 426.31 105.68C426.193 105.6 426.1 105.489 426.042 105.36C425.983 105.23 425.961 105.088 425.977 104.947C425.994 104.806 426.048 104.672 426.135 104.56C426.222 104.448 426.338 104.361 426.47 104.31C427.28 104.01 427.33 104.12 428.14 103.81C428.95 103.5 429.14 103.81 429.77 103.13C430.4 102.45 429.95 102.26 430.19 101.42C430.43 100.58 430.51 100.6 430.75 99.77C430.787 99.6319 430.859 99.5061 430.96 99.4051C431.061 99.3042 431.187 99.2317 431.326 99.1952C431.464 99.1586 431.609 99.1593 431.747 99.197C431.884 99.2347 432.01 99.3081 432.11 99.4099Z" fill="#4C353F"/>
<path d="M459.2 75.33C459.8 76.18 459.9 76.11 460.49 76.96C461.08 77.81 461.03 77.85 461.62 78.71C462.21 79.57 461.9 80.0201 462.81 80.5201C463.72 81.0201 463.95 80.25 464.99 80.29C466.03 80.33 465.99 80.4701 467.06 80.5001C468.13 80.5301 468.06 80.7 469.13 80.74C469.385 80.7338 469.636 80.797 469.858 80.923C470.079 81.0491 470.262 81.2332 470.386 81.4554C470.511 81.6776 470.572 81.9296 470.564 82.1841C470.556 82.4387 470.478 82.6861 470.34 82.9C469.71 83.72 469.67 83.6901 469.04 84.5201C468.41 85.3501 468.17 85.16 467.54 85.99C466.91 86.82 466.54 86.72 466.37 87.74C466.2 88.76 466.79 88.74 467.07 89.74C467.35 90.74 467.07 90.81 467.4 91.81C467.73 92.81 467.98 92.73 468.26 93.73C468.316 93.9814 468.304 94.2433 468.224 94.4883C468.145 94.7334 468.001 94.9525 467.808 95.1231C467.615 95.2937 467.38 95.4094 467.127 95.4581C466.874 95.5068 466.613 95.4867 466.37 95.4C465.37 95.06 465.37 95.16 464.37 94.82C463.37 94.48 463.37 94.46 462.37 94.11C461.37 93.76 461.45 93.3 460.37 93.43C459.29 93.56 459.43 93.87 458.57 94.43C457.71 94.99 457.72 95.04 456.86 95.62C456 96.2 456.07 96.3101 455.21 96.8901C455.004 97.0308 454.762 97.1102 454.513 97.1192C454.264 97.1282 454.017 97.0662 453.801 96.9406C453.585 96.815 453.41 96.6308 453.295 96.4095C453.179 96.1881 453.129 95.9387 453.15 95.69C453.15 94.69 453.06 94.69 453.08 93.61C453.1 92.53 453.29 92.61 453.31 91.54C453.33 90.47 453.79 90.31 453.31 89.37C452.83 88.43 452.4 88.7 451.58 88.06C450.76 87.42 450.66 87.56 449.84 86.92C449.02 86.28 449.04 86.24 448.22 85.6C448.022 85.4458 447.871 85.2398 447.783 85.0049C447.694 84.77 447.673 84.5153 447.721 84.269C447.768 84.0226 447.883 83.7943 448.052 83.6092C448.222 83.424 448.439 83.2893 448.68 83.22C449.68 82.92 449.68 82.95 450.68 82.65C451.68 82.35 451.68 82.2 452.68 81.9C453.68 81.6 454.05 82.2301 454.81 81.5101C455.57 80.7901 454.94 80.38 455.3 79.41C455.66 78.44 455.83 78.4901 456.19 77.5201C456.55 76.5501 456.28 76.4501 456.64 75.5201C456.73 75.2628 456.893 75.0374 457.11 74.8715C457.326 74.7057 457.586 74.6065 457.858 74.5864C458.13 74.5662 458.402 74.6259 458.64 74.758C458.878 74.8901 459.073 75.0889 459.2 75.33Z" fill="#4C353F"/>
<path d="M274.61 126.06L276.61 124.63C277.61 123.92 278.06 124.34 278.61 123.24C279.16 122.14 278.61 122.02 278.61 120.77C278.61 119.52 278.84 119.54 278.88 118.29C278.88 118.1 278.934 117.913 279.035 117.753C279.137 117.592 279.283 117.464 279.455 117.383C279.627 117.302 279.819 117.272 280.007 117.296C280.196 117.321 280.374 117.398 280.52 117.52C281.52 118.26 281.66 118.07 282.66 118.82C283.66 119.57 283.34 120.2 284.57 120.42C285.8 120.64 285.75 120.06 286.95 119.71C288.15 119.36 288.2 119.54 289.39 119.19C289.557 119.115 289.744 119.093 289.924 119.129C290.104 119.164 290.269 119.254 290.396 119.386C290.523 119.519 290.606 119.687 290.634 119.869C290.661 120.05 290.632 120.236 290.55 120.4C290.15 121.58 290.17 121.59 289.77 122.76C289.37 123.93 288.87 123.93 289.04 125.17C289.21 126.41 289.74 126.17 290.44 127.25C291.14 128.33 291.32 128.16 292.02 129.19C292.126 129.387 292.183 129.607 292.184 129.831C292.185 130.055 292.13 130.276 292.025 130.474C291.92 130.671 291.768 130.84 291.582 130.965C291.397 131.09 291.183 131.167 290.96 131.19C289.72 131.19 289.72 131.19 288.47 131.13C287.22 131.07 287.17 130.53 286.05 131.07C284.93 131.61 285.21 131.91 284.44 132.89C283.67 133.87 283.8 133.97 283.04 134.95C282.906 135.104 282.732 135.218 282.537 135.281C282.343 135.343 282.135 135.351 281.936 135.304C281.737 135.256 281.555 135.155 281.409 135.012C281.264 134.869 281.16 134.688 281.11 134.49C280.74 133.3 280.64 133.33 280.28 132.14C279.92 130.95 280.38 130.69 279.52 129.79C278.66 128.89 278.35 129.4 277.18 128.98C276.01 128.56 276.04 128.46 274.87 128.04C274.678 127.968 274.508 127.845 274.38 127.685C274.253 127.524 274.171 127.332 274.144 127.128C274.117 126.925 274.147 126.718 274.229 126.529C274.311 126.341 274.443 126.179 274.61 126.06Z" fill="#715C67"/>
<path d="M207.33 48.21C207.6 49.42 207.63 49.4199 207.9 50.6299C208.17 51.8399 207.72 52.13 208.5 53.09C209.28 54.05 209.74 53.48 210.87 53.99C212 54.5 211.96 54.6199 213.09 55.1299C213.288 55.2023 213.461 55.3293 213.589 55.4963C213.717 55.6632 213.795 55.8632 213.814 56.0729C213.833 56.2825 213.792 56.4932 213.696 56.6804C213.599 56.8676 213.452 57.0235 213.27 57.1299L211.12 58.3899C210.05 59.0299 209.56 58.5199 208.89 59.5699C208.22 60.6199 208.82 60.85 208.69 62.09C208.56 63.33 208.4 63.31 208.27 64.54C208.279 64.742 208.227 64.9421 208.121 65.114C208.014 65.2859 207.858 65.4214 207.673 65.5027C207.488 65.5839 207.282 65.6071 207.083 65.5691C206.885 65.5311 206.702 65.4338 206.56 65.29C205.63 64.46 205.56 64.56 204.56 63.73C203.56 62.9 204.03 62.16 202.83 61.84C201.63 61.52 201.54 62.08 200.32 62.34C199.1 62.6 199.11 62.6299 197.89 62.8799C197.692 62.9329 197.483 62.9309 197.286 62.8743C197.089 62.8176 196.911 62.7085 196.771 62.5585C196.632 62.4085 196.535 62.2233 196.493 62.0227C196.45 61.8221 196.463 61.6138 196.53 61.42C197.03 60.27 197.31 60.4199 197.8 59.2499C198.29 58.0799 198.7 58.15 198.63 56.91C198.56 55.67 198.07 55.8 197.45 54.72C196.83 53.64 196.69 53.72 196.07 52.65C195.979 52.4649 195.94 52.2587 195.956 52.0532C195.972 51.8476 196.043 51.6501 196.161 51.4814C196.28 51.3127 196.442 51.1791 196.63 51.0944C196.818 51.0096 197.025 50.977 197.23 50.9999C198.47 51.1199 198.47 51.1399 199.71 51.2499C200.95 51.3599 200.98 51.7099 202.14 51.2499C203.3 50.7899 202.94 50.4 203.78 49.48C204.62 48.56 204.78 48.7 205.61 47.78C205.714 47.6118 205.868 47.481 206.051 47.4065C206.234 47.332 206.436 47.3176 206.627 47.3655C206.819 47.4134 206.99 47.5211 207.117 47.6729C207.243 47.8247 207.318 48.0128 207.33 48.21Z" fill="#4C353F"/>
<path d="M182.1 26.34C182.64 27.02 182.7 26.97 183.24 27.66C183.78 28.35 183.45 28.78 184.24 29.15C185.03 29.52 185.15 29.06 186.02 29.03C186.89 29 186.9 29.03 187.77 29.03C187.909 29.0149 188.049 29.04 188.175 29.1024C188.3 29.1647 188.404 29.2617 188.476 29.3818C188.548 29.5018 188.583 29.64 188.579 29.7797C188.574 29.9195 188.529 30.0549 188.45 30.17C187.97 30.9 187.89 30.85 187.45 31.57C187.01 32.29 186.62 32.2 186.52 33.07C186.42 33.94 186.75 33.92 187.04 34.75C187.33 35.58 187.46 35.52 187.76 36.34C187.803 36.479 187.807 36.627 187.772 36.7682C187.737 36.9093 187.664 37.0383 187.561 37.1411C187.458 37.244 187.329 37.3168 187.188 37.3519C187.047 37.3869 186.899 37.3828 186.76 37.34C185.92 37.11 185.9 37.17 185.06 36.94C184.22 36.71 184.24 36.16 183.38 36.32C182.52 36.48 182.7 36.93 182.01 37.47C181.32 38.01 181.29 37.96 180.6 38.47C180.504 38.5629 180.383 38.6242 180.251 38.6456C180.12 38.667 179.985 38.6474 179.865 38.5896C179.745 38.5318 179.645 38.4385 179.58 38.3223C179.515 38.2061 179.487 38.0726 179.5 37.94C179.5 37.07 179.44 37.07 179.41 36.2C179.38 35.33 179.72 35.2 179.29 34.43C178.86 33.66 178.49 34 177.77 33.51C177.05 33.02 177.1 32.95 176.38 32.45C176.262 32.3728 176.167 32.265 176.105 32.138C176.044 32.011 176.018 31.8697 176.03 31.7291C176.042 31.5885 176.092 31.4538 176.175 31.3395C176.258 31.2252 176.37 31.1355 176.5 31.08L178.14 30.48C178.96 30.17 179.23 30.58 179.82 29.94C180.41 29.3 180.02 29.07 180.27 28.23C180.52 27.39 180.62 27.42 180.86 26.59C180.888 26.4587 180.954 26.3386 181.05 26.2443C181.146 26.1499 181.267 26.0856 181.398 26.059C181.53 26.0325 181.666 26.0449 181.791 26.0948C181.916 26.1448 182.023 26.23 182.1 26.34Z" fill="#715C67"/>
<path d="M26.9801 118.21C28.2201 118.21 28.2301 118.07 29.4801 118.11C30.7301 118.15 30.8601 118.94 31.9901 118.42C33.1201 117.9 32.6401 117.3 33.4201 116.33C34.2001 115.36 34.4201 115.52 35.1701 114.55C35.2877 114.387 35.4478 114.259 35.6329 114.181C35.818 114.103 36.021 114.076 36.2199 114.105C36.4189 114.134 36.6061 114.217 36.7612 114.345C36.9164 114.472 37.0336 114.64 37.1001 114.83C37.4401 116.03 37.3501 116.06 37.7001 117.25C38.0501 118.44 37.4601 118.8 38.3001 119.72C39.1401 120.64 39.6001 119.94 40.7601 120.38C41.9201 120.82 41.8601 121 43.0201 121.44C43.2167 121.491 43.393 121.601 43.5256 121.755C43.6583 121.908 43.741 122.099 43.7627 122.301C43.7844 122.503 43.7441 122.707 43.6472 122.885C43.5503 123.064 43.4013 123.208 43.2201 123.3C42.2201 124 42.1301 123.92 41.1001 124.62C40.0701 125.32 39.7101 125.05 39.1001 126.13C38.4901 127.21 39.1001 127.4 39.0501 128.64C39.0001 129.88 39.0501 129.89 38.9901 131.13C38.9671 131.34 38.8893 131.541 38.7646 131.712C38.6398 131.883 38.4725 132.018 38.2792 132.104C38.086 132.19 37.8736 132.224 37.6632 132.202C37.4528 132.18 37.2517 132.104 37.0801 131.98C36.0801 131.21 36.0801 131.19 35.1301 130.42C34.1801 129.65 34.4001 129.14 33.1801 128.9C31.9601 128.66 31.9801 129.2 30.7801 129.53C29.5801 129.86 29.5701 129.83 28.3701 130.16C28.1764 130.215 27.9712 130.216 27.777 130.163C27.5828 130.109 27.407 130.003 27.2688 129.857C27.1305 129.71 27.0352 129.529 26.9931 129.332C26.951 129.135 26.9638 128.93 27.0301 128.74C27.4601 127.57 27.5701 127.61 28.0301 126.44C28.4901 125.27 28.8201 125.31 28.6801 124.07C28.5401 122.83 28.2101 122.94 27.5301 121.9C26.8501 120.86 26.6001 121.02 25.9101 119.98C25.8139 119.796 25.7668 119.59 25.7733 119.382C25.7798 119.174 25.8397 118.972 25.9472 118.794C26.0547 118.616 26.2062 118.469 26.3872 118.367C26.5681 118.264 26.7723 118.21 26.9801 118.21Z" fill="#715C67"/>
<path d="M74.85 130.36C75.7 130.19 75.67 130.04 76.53 129.87C77.39 129.7 77.53 130.06 78.21 129.53C78.89 129 78.63 128.8 79 128.01L79.76 126.44C79.8263 126.308 79.9259 126.196 80.0489 126.114C80.1719 126.032 80.3141 125.984 80.4615 125.974C80.6089 125.963 80.7563 125.992 80.8893 126.056C81.0223 126.12 81.1363 126.218 81.22 126.34C81.65 127.1 81.61 127.12 82.03 127.88C82.45 128.64 82.03 129.03 82.78 129.52C83.53 130.01 83.71 129.52 84.57 129.59C85.43 129.66 85.42 129.83 86.28 129.94C86.4172 129.951 86.5485 130.001 86.6586 130.084C86.7687 130.166 86.8532 130.278 86.9023 130.407C86.9515 130.536 86.9633 130.675 86.9363 130.81C86.9093 130.945 86.8448 131.07 86.75 131.17C86.15 131.81 86.23 131.88 85.64 132.52C85.05 133.16 84.58 132.89 84.34 133.73C84.1 134.57 84.52 134.61 84.68 135.47C84.84 136.33 84.95 136.3 85.11 137.16C85.1272 137.305 85.1053 137.452 85.0467 137.586C84.9881 137.719 84.8949 137.835 84.7766 137.921C84.6584 138.006 84.5194 138.059 84.3741 138.073C84.2288 138.087 84.0824 138.062 83.95 138C83.16 137.64 83.1 137.76 82.31 137.39C81.52 137.02 81.65 136.48 80.77 136.51C79.89 136.54 80.05 137.06 79.29 137.51C78.53 137.96 78.44 137.78 77.67 138.19C77.5502 138.263 77.4126 138.302 77.2722 138.303C77.1318 138.303 76.994 138.266 76.8735 138.194C76.753 138.121 76.6545 138.018 76.5887 137.894C76.5229 137.77 76.4922 137.63 76.5 137.49C76.6 136.62 76.67 136.63 76.77 135.76C76.87 134.89 77.34 134.83 77.05 134.01C76.76 133.19 76.27 133.51 75.64 132.91C75.01 132.31 75.1 132.22 74.46 131.62C74.3443 131.533 74.2582 131.413 74.2135 131.276C74.1688 131.138 74.1678 130.991 74.2105 130.852C74.2532 130.714 74.3376 130.593 74.4521 130.505C74.5666 130.417 74.7056 130.366 74.85 130.36Z" fill="#715C67"/>
<path d="M50.84 108.21C51.76 107.73 51.78 107.76 52.7 107.28C53.62 106.8 53.7 106.92 54.6 106.44C55.5 105.96 55.74 106.24 56.36 105.44C56.98 104.64 56.53 104.44 56.7 103.44C56.87 102.44 56.93 102.44 57.1 101.44C57.27 100.44 57.16 100.44 57.33 99.37C57.3842 99.1204 57.5056 98.8905 57.681 98.7049C57.8565 98.5194 58.0794 98.3855 58.3255 98.3175C58.5716 98.2495 58.8317 98.2501 59.0775 98.3193C59.3233 98.3885 59.5455 98.5236 59.72 98.7099C60.46 99.4399 60.48 99.4199 61.22 100.15C61.96 100.88 62.16 100.67 62.9 101.4C63.64 102.13 63.25 102.68 64.24 103C65.23 103.32 65.29 103 66.32 102.88C67.35 102.76 67.32 102.33 68.32 102.17C69.32 102.01 69.38 102.24 70.41 102.08C70.6754 102.047 70.9447 102.083 71.192 102.185C71.4392 102.287 71.6559 102.451 71.821 102.661C71.9861 102.872 72.0939 103.121 72.134 103.385C72.1742 103.65 72.1452 103.92 72.05 104.17C71.59 105.09 71.25 104.92 70.78 105.85C70.31 106.78 70.55 106.85 70.08 107.85C69.61 108.85 69.2 108.62 69.2 109.66C69.2 110.7 69.53 110.59 69.99 111.52C70.45 112.45 70.45 112.45 70.92 113.38C71.39 114.31 71.57 114.22 72.03 115.15C72.1269 115.405 72.1577 115.681 72.1196 115.951C72.0815 116.221 71.9758 116.477 71.8122 116.696C71.6486 116.914 71.4324 117.088 71.1838 117.201C70.9352 117.313 70.6621 117.361 70.39 117.34C69.39 117.18 69.39 116.89 68.39 116.74C67.39 116.59 67.32 116.89 66.29 116.74C65.26 116.59 65.21 115.89 64.23 116.21C63.25 116.53 63.49 117.01 62.75 117.74C62.01 118.47 62.14 118.6 61.4 119.33C60.66 120.06 60.49 119.89 59.75 120.62C59.585 120.802 59.371 120.933 59.1336 120.997C58.8963 121.061 58.6455 121.055 58.4114 120.98C58.1773 120.905 57.9696 120.764 57.8133 120.575C57.657 120.385 57.5587 120.154 57.53 119.91C57.36 118.91 57.16 118.91 56.99 117.91C56.82 116.91 56.99 116.85 56.84 115.83C56.69 114.81 56.91 114.74 56.3 113.9C55.69 113.06 55.58 113.22 54.66 112.74C53.74 112.26 53.66 112.49 52.66 112.02C51.66 111.55 51.89 111.26 50.96 110.78C50.6963 110.691 50.4655 110.525 50.2978 110.303C50.1302 110.081 50.0335 109.814 50.0205 109.536C50.0076 109.258 50.0789 108.983 50.2251 108.746C50.3714 108.51 50.5857 108.323 50.84 108.21Z" fill="#4C353F"/>
</g>
</svg>
