<svg width="36" height="36" viewBox="0 0 36 36" fill="none" xmlns="http://www.w3.org/2000/svg">
<path d="M36 18C36 27.9411 27.9411 36 18 36C8.05887 36 0 27.9411 0 18C0 8.05887 8.05887 0 18 0C27.9411 0 36 8.05887 36 18Z" fill="#D6E7FF"/>
<path d="M13.2881 21.5215C10.6514 21.5215 8.9375 19.7373 8.9375 17.4434C8.9375 15.5449 10.1416 14.1562 11.7324 13.6201C12.1455 10.5 14.7559 8.05664 18.0957 8.05664C20.9258 8.05664 22.7363 9.50684 23.7119 11.3965C26.6738 11.3965 28.9062 13.6025 28.9062 16.4678C28.9062 19.2891 26.6826 21.5215 23.7559 21.5215H13.2881ZM21.3564 24.5625C21.6113 24.5625 21.6816 24.8086 21.4883 24.9844L17.0498 29.0361C16.9531 29.124 16.8652 29.1504 16.7861 29.1152C16.7158 29.0889 16.6895 28.9922 16.7334 28.8779L17.8408 26.2061H16.2764C16.0566 26.2061 15.9775 26.0742 16.0654 25.8633L17.2783 23.1123C17.3486 22.9365 17.4365 22.8486 17.6738 22.8486H20.0205C20.2051 22.8486 20.2842 22.9893 20.1875 23.1738L19.458 24.5625H21.3564Z" fill="#5E9BF0"/>
</svg>
