<svg width="72" height="73" viewBox="0 0 72 73" fill="none" xmlns="http://www.w3.org/2000/svg">
<rect y="0.332031" width="72" height="72" fill="white"/>
<path d="M58.8406 24.1372C58.7833 26.4671 57.905 28.7018 56.3607 30.4472C55.774 30.951 55.1255 31.3778 54.4307 31.7172C53.1461 32.5872 51.609 33.0058 50.0607 32.9072C48.504 33.0029 46.9537 32.6375 45.6037 31.8566C44.2537 31.0758 43.1639 29.9142 42.4706 28.5172C41.6618 27.1942 41.204 25.6866 41.1406 24.1372C41.1847 23.3642 41.3327 22.6007 41.5806 21.8672C41.7627 21.1207 42.0417 20.4013 42.4106 19.7272C42.7848 19.0474 43.2453 18.4189 43.7806 17.8572C44.3412 17.3289 44.9702 16.8782 45.6506 16.5172C46.3014 16.0891 47.0081 15.7526 47.7507 15.5172C48.5098 15.3588 49.2865 15.3016 50.0607 15.3472C51.599 15.3537 53.1174 15.6949 54.5106 16.3472C55.1517 16.7832 55.7363 17.2971 56.2507 17.8772C56.8243 18.3931 57.3285 18.9814 57.7507 19.6272C58.1511 20.2953 58.4573 21.0154 58.6606 21.7672C58.8232 22.5461 58.8837 23.3428 58.8406 24.1372Z" fill="#C8D2ED"/>
<path d="M70.51 57.4378C70.03 56.4378 69.58 56.6978 68.73 56.0178C67.88 55.3378 67.73 55.5778 66.84 54.8978C65.95 54.2178 65.8399 54.3578 65.0399 53.6778C64.2399 52.9978 64.4099 52.7378 63.5699 52.0578C62.7299 51.3778 62.57 51.5578 61.73 50.8678C60.89 50.1778 61.1599 49.8678 60.3199 49.1678C59.4799 48.4678 59.45 48.5178 58.6 47.8378C57.75 47.1578 57.49 47.4778 56.6 46.8378C55.71 46.1978 56.04 45.8378 55.19 45.1278C54.34 44.4178 54.03 44.8378 53.19 44.1278C52.35 43.4178 52.45 43.3078 51.6 42.6278C50.75 41.9478 50.6 42.0878 49.78 41.4078C49.18 40.9278 48.62 40.1978 47.9 40.1978C47.1081 40.2555 46.3551 40.5637 45.75 41.0778C44.8 41.8378 44.84 41.8878 43.89 42.6578C42.94 43.4278 43.02 43.5178 42.06 44.2778C41.1 45.0378 41.14 45.0778 40.18 45.8478C39.22 46.6178 39.45 47.1178 38.18 47.1778C36.91 47.2378 37.18 46.7978 36.38 46.1278C35.58 45.4578 35.65 45.2978 34.81 44.6278C33.97 43.9578 34.08 43.7978 33.23 43.1178L31.6 41.7378C30.76 41.0578 30.6 41.1978 29.8 40.5178C29 39.8378 29.09 39.6678 28.25 38.9778C27.41 38.2878 27.47 38.2278 26.62 37.5478C25.77 36.8678 25.62 37.1078 24.74 36.4178C23.86 35.7278 23.95 35.6678 23.1 34.9778C22.25 34.2878 22.31 34.2278 21.46 33.5478C20.7953 33.1835 20.0276 33.0532 19.28 33.1778C18.5417 33.075 17.7905 33.2266 17.15 33.6078C16.33 34.2678 16.6 34.6078 15.78 35.2778C14.96 35.9478 14.54 35.4378 13.72 36.1078C12.9 36.7778 13.11 37.0378 12.28 37.7078C11.45 38.3778 11.28 38.1478 10.45 38.8178C9.61995 39.4878 9.75999 39.6578 8.92999 40.3278C8.09999 40.9978 8.31999 41.2578 7.48999 41.9278C6.65999 42.5978 6.54998 42.4578 5.72998 43.1278C4.90998 43.7978 4.62998 43.4578 3.78998 44.1278C2.94998 44.7978 2.78998 44.7278 2.28998 45.6978C1.78998 46.6678 2.64996 46.8178 2.64996 47.9278C2.64996 49.0378 2.08997 49.0378 2.08997 50.1478C2.08997 51.2578 2.29999 51.2578 2.29999 52.3678C2.29999 53.4778 2.5 53.4778 2.5 54.5878C2.5 55.6978 2.19995 55.6978 2.19995 56.8078C2.19995 57.9178 2.51996 57.9178 2.51996 59.0178C2.51996 60.1178 2 60.1278 2 61.2378C2 62.3478 2.10999 62.3578 2.10999 63.4678C2.10999 64.5778 2.63 64.5778 2.63 65.6878C2.63 66.7978 2.00995 66.7978 2.00995 67.9078C2.00995 69.0178 2.51996 69.0178 2.51996 70.1378C2.51996 71.2578 1.71996 71.3978 2.51996 72.1378C3.31996 72.8778 3.46998 71.9878 4.59998 71.9878C5.72998 71.9878 5.72999 72.1178 6.85999 72.1178C7.98999 72.1178 7.99001 72.2878 9.13 72.2878C10.27 72.2878 10.26 72.3878 11.39 72.3878C12.52 72.3878 12.52 72.0078 13.65 72.0078C14.78 72.0078 14.78 72.1078 15.92 72.1078C17.06 72.1078 17.05 72.5278 18.18 72.5278C19.31 72.5278 19.31 72.0978 20.44 72.0978C21.57 72.0978 21.57 72.3078 22.7 72.3078C23.83 72.3078 23.83 72.6378 24.96 72.6378C26.09 72.6378 26.09 72.0878 27.22 72.0878C28.35 72.0878 28.35 72.0178 29.48 72.0178C30.61 72.0178 30.62 72.0178 31.75 72.0178C32.88 72.0178 32.8799 72.0178 34.0099 72.0178C35.1399 72.0178 35.14 72.5778 36.27 72.5778C37.4 72.5778 37.4 72.2778 38.54 72.2778C39.68 72.2778 39.67 72.0878 40.8 72.0878C41.93 72.0878 41.93 72.3078 43.06 72.3078C44.19 72.3078 44.2 72.1178 45.33 72.1178C46.46 72.1178 46.46 72.0578 47.59 72.0578C48.72 72.0578 48.73 72.0578 49.86 72.0578C50.99 72.0578 50.99 72.2678 52.12 72.2678H54.39C55.52 72.2678 55.52 72.6678 56.65 72.6678C57.78 72.6678 57.79 72.1878 58.92 72.1878C60.05 72.1878 60.0499 72.4878 61.1899 72.4878C62.3299 72.4878 62.32 72.2478 63.45 72.2478C64.58 72.2478 64.59 72.3378 65.72 72.3378C66.85 72.3378 66.86 72.5278 67.99 72.5278C69.12 72.5278 69.2399 72.8878 70.0699 72.1178C70.8999 71.3478 70.0699 71.2778 70.0699 70.2178C70.0699 69.1578 70.23 69.2178 70.23 68.1078C70.23 66.9978 70.52 67.0478 70.52 65.9878C70.52 64.9278 70.4199 64.9878 70.4199 63.8778C70.4199 62.7678 70.1699 62.8178 70.1699 61.7578C70.1699 60.6978 69.8 60.6278 70.01 59.5878C70.22 58.5478 70.97 58.3978 70.51 57.4378Z" fill="#C8D2ED"/>
</svg>
