<svg width="86" height="24" viewBox="0 0 86 24" fill="none" xmlns="http://www.w3.org/2000/svg">
<path d="M3.85854 10.0104C4.36969 10.0104 4.36969 10.1687 4.88085 10.1687C5.392 10.1687 5.392 10.3496 5.90316 10.3496C6.41431 10.3496 6.41431 10.2547 6.92094 10.2547C7.42757 10.2547 7.4321 10.0692 7.94325 10.0692H8.96556C9.47671 10.0692 9.47672 10.1416 9.98787 10.1416C10.499 10.1416 10.499 10.0059 11.0102 10.0059C11.5213 10.0059 11.5213 10.3044 12.0325 10.3044C12.5436 10.3044 12.5436 10.4175 13.0548 10.4175C13.566 10.4175 13.566 10.1009 14.0771 10.1009C14.5883 10.1009 14.5882 10.2773 15.0994 10.2773C15.6105 10.2773 15.6105 10.3813 16.1217 10.3813C16.6328 10.3813 16.6328 10.1235 17.1485 10.1235C17.6642 10.1235 17.6597 10.3858 18.1708 10.3858C18.4965 10.3858 18.8629 10.0782 19.166 10.1597C19.4679 10.3013 19.7506 10.4806 20.0074 10.6934C20.2694 10.8727 20.5066 11.0856 20.713 11.3267C20.9287 11.5527 21.1128 11.8068 21.2603 12.0821C21.46 12.3346 21.6273 12.6112 21.758 12.9054C21.799 13.2253 21.799 13.5491 21.758 13.8689C21.758 14.4434 21.9841 14.4434 21.9841 15.0224C21.9841 15.6014 21.9344 15.6014 21.9344 16.1804C21.9344 16.5061 21.681 16.8001 21.5996 17.0851C21.4871 17.3719 21.3348 17.6414 21.1472 17.8858C21.0438 18.1831 20.9024 18.4659 20.7266 18.7271C20.5004 18.9533 20.3285 19.279 20.0526 19.4418C19.7378 19.5371 19.4129 19.5948 19.0846 19.6137C18.7791 19.6715 18.4672 19.6882 18.1572 19.6635C17.6461 19.6635 17.6461 19.6318 17.1395 19.6318C16.6328 19.6318 16.6283 19.8535 16.1171 19.8535C15.606 19.8535 15.606 19.8535 15.0949 19.8535C14.5837 19.8535 14.5837 19.7313 14.0726 19.7313C13.5614 19.7313 13.5614 19.9123 13.0503 19.9123C12.5391 19.9123 12.5391 19.7359 12.028 19.7359C11.5168 19.7359 11.5168 19.9213 11.0057 19.9213C10.4945 19.9213 10.4945 20.0208 9.98787 20.0208C9.48124 20.0208 9.47671 19.8037 8.96556 19.8037C8.45441 19.8037 8.4544 19.7494 7.94325 19.7494C7.4321 19.7494 7.43209 19.6454 6.92094 19.6454C6.40979 19.6454 6.40525 19.8082 5.8941 19.8082C5.38295 19.8082 5.38294 19.9032 4.87179 19.9032H3.84495C3.52038 19.8966 3.19804 19.848 2.88598 19.7585C2.55681 19.7153 2.23453 19.6302 1.927 19.5052C1.65107 19.3468 1.61944 18.8583 1.39327 18.6367C1.17681 18.4237 0.991089 18.1816 0.841415 17.9174C0.683093 17.646 0.339292 17.4651 0.257869 17.1439C0.13973 16.8356 0.0621763 16.5132 0.0271674 16.1849C0.0271674 15.6059 0 15.6059 0 15.0269C0 14.4479 0.230702 14.4479 0.230702 13.8734C0.173654 13.548 0.153922 13.2172 0.171894 12.8873C0.242949 12.5599 0.353892 12.2424 0.502154 11.9419C0.664999 11.666 1.12639 11.6026 1.34804 11.3765C1.56386 11.1556 1.80889 10.9654 2.07631 10.811C2.35225 10.6527 2.52865 10.2501 2.85434 10.1642C3.18112 10.0702 3.5186 10.0185 3.85854 10.0104Z" fill="#FFD9DD"/>
<path d="M66.9976 10.0794C67.5088 10.0794 67.5088 10.1336 68.0154 10.1336C68.522 10.1336 68.5266 10.3734 69.0377 10.3734C69.5489 10.3734 69.5488 10.3734 70.06 10.3734C70.5711 10.3734 70.5711 10.4231 71.0823 10.4231C71.5934 10.4231 71.5934 10.1427 72.1046 10.1427C72.6158 10.1427 72.6158 10.2377 73.1269 10.2377C73.6381 10.2377 73.6381 10.3734 74.1492 10.3734C74.6604 10.3734 74.6559 10.1156 75.167 10.1156C75.6782 10.1156 75.6782 10.2603 76.1893 10.2603H77.2116C77.7228 10.2603 77.7228 10.2196 78.2339 10.2196C78.7451 10.2196 78.7451 10.0703 79.2608 10.0703C79.7764 10.0703 79.7719 10.1065 80.2831 10.1065C80.7942 10.1065 80.7942 10.387 81.3099 10.387C81.6356 10.387 81.9703 10.206 82.2689 10.2874C82.5868 10.3753 82.8912 10.5062 83.1736 10.6765C83.482 10.8003 83.7725 10.9645 84.0375 11.165C84.2637 11.3912 84.2999 11.7937 84.4582 12.0697C84.6465 12.3299 84.7987 12.6145 84.9106 12.9156C85.0434 13.2236 85.1361 13.5474 85.1865 13.8791C85.1865 14.4536 84.7884 14.4536 84.7884 15.0326C84.7884 15.6116 84.9694 15.6116 84.9694 16.1906C85.0014 16.5131 84.9922 16.8384 84.9422 17.1586C84.8118 17.4567 84.643 17.7365 84.4401 17.9909C84.2709 18.2538 84.067 18.4927 83.834 18.7011C83.6327 18.9435 83.3999 19.158 83.1419 19.3389C82.8573 19.4961 82.5531 19.6147 82.2372 19.6917C81.9284 19.7472 81.6138 19.7639 81.3009 19.7415C80.7897 19.7415 80.7897 19.9496 80.2786 19.9496C79.7674 19.9496 79.7674 19.7505 79.2562 19.7505C78.7451 19.7505 78.7451 20.0536 78.2339 20.0536C77.7228 20.0536 77.7228 19.6329 77.2162 19.6329C76.7095 19.6329 76.705 20.0401 76.1938 20.0401C75.6827 20.0401 75.6827 19.927 75.1715 19.927C74.6604 19.927 74.6604 19.7324 74.1492 19.7324C73.6381 19.7324 73.6381 19.9315 73.1269 19.9315C72.6158 19.9315 72.6158 19.8546 72.1046 19.8546C71.5934 19.8546 71.5934 20.0084 71.0823 20.0084C70.5711 20.0084 70.5711 20.0084 70.06 20.0084C69.5488 20.0084 69.5489 19.8772 69.0377 19.8772C68.5266 19.8772 68.5266 19.9134 68.0109 19.9134C67.4952 19.9134 67.4997 19.8772 66.9886 19.8772C66.6675 19.853 66.351 19.7861 66.0477 19.6782C65.7348 19.6236 65.4306 19.5278 65.143 19.3932C64.8625 19.2303 64.7902 18.8368 64.564 18.6106C64.3307 18.4145 64.1265 18.186 63.9578 17.9321C63.7921 17.673 63.6613 17.3932 63.5688 17.0998C63.4824 16.8056 63.4338 16.5016 63.4241 16.1951C63.4241 15.6161 63.4512 15.6161 63.4512 15.0371C63.4512 14.4581 63.4512 14.4581 63.4512 13.8836C63.4512 13.5534 63.2703 13.2051 63.3472 12.902C63.4863 12.605 63.6627 12.3268 63.8719 12.0742C64.0633 11.8255 64.2869 11.6035 64.5368 11.4138C64.7572 11.2045 65.0053 11.0264 65.2742 10.8845C65.5501 10.7307 65.7265 10.3191 66.0296 10.2332C66.3444 10.1407 66.6697 10.089 66.9976 10.0794Z" fill="#FFD9DD"/>
<path d="M50.1899 22.5865C50.0361 22.5865 49.8913 22.5865 49.7375 22.5865C49.4028 22.5865 49.0635 22.8308 48.7514 22.781C48.4448 22.6923 48.1428 22.5881 47.8467 22.4689C47.5255 22.383 47.132 22.5187 46.8425 22.4056C46.553 22.2925 46.3902 21.804 46.1233 21.6547C45.8535 21.4925 45.5937 21.3142 45.3452 21.1209C45.0784 20.9355 44.6531 20.9716 44.4134 20.7636C44.1736 20.5555 44.1284 20.1438 43.9113 19.9086C43.6942 19.6734 43.3639 19.5377 43.174 19.2844C42.984 19.0311 42.7623 18.5018 42.604 18.2349C42.4411 18.5018 42.0838 18.9089 41.8848 19.1758C41.6857 19.4427 41.5726 19.7186 41.351 19.9584C41.1293 20.1981 41.1293 20.6505 40.8986 20.8631C40.6607 21.0927 40.41 21.3086 40.1477 21.5099C39.8673 21.7193 39.5743 21.9112 39.2702 22.0844C38.9489 22.1778 38.6227 22.2533 38.2931 22.3106C37.9973 22.4269 37.6953 22.5265 37.3884 22.6091C37.0853 22.6906 36.719 22.4689 36.3887 22.5232C36.0585 22.5775 35.8052 23.0072 35.484 23.0253C35.1406 23.0458 34.7962 23.0458 34.4527 23.0253C34.1089 23.0027 33.8149 22.6544 33.4937 22.5956C33.1725 22.5368 32.7112 22.8851 32.3945 22.7856C32.0779 22.686 31.8291 22.3061 31.526 22.1749C31.2229 22.0437 30.7841 22.098 30.4992 21.9397C30.2142 21.7813 30.1147 21.2476 29.8523 21.0621C29.59 20.8766 29.0878 20.9038 28.8481 20.7048C28.6055 20.4639 28.376 20.2102 28.1605 19.9448C27.9086 19.704 27.6395 19.4817 27.3554 19.2799C27.1769 18.9788 27.1007 18.6281 27.1383 18.2802C27.1744 18.0042 27.5046 17.7283 27.7399 17.5474C27.9758 17.3226 28.2797 17.1826 28.6039 17.1493C28.8798 17.1855 29.0562 17.6016 29.2552 17.8233C29.5923 17.9235 29.9019 18.1 30.1599 18.339C30.3725 18.538 30.472 18.918 30.766 19.1442C31.0601 19.3703 31.128 19.782 31.431 19.9584C31.7341 20.1348 32.2498 19.8001 32.5619 19.9584C32.8558 20.0774 33.1582 20.1742 33.4666 20.2479C33.7591 20.373 34.0618 20.4729 34.3713 20.5464C34.6925 20.5826 35.0226 20.9988 35.3619 20.9626C35.7012 20.9264 36.0087 20.6912 36.3118 20.6324C36.6233 20.5325 36.9259 20.4069 37.2165 20.2569C37.5256 20.1669 37.8279 20.055 38.1212 19.9222C38.4125 19.7925 38.6937 19.6413 38.9626 19.4699C39.1996 19.2538 39.4175 19.0177 39.614 18.7642C39.8492 18.5244 40.2699 18.4566 40.4508 18.2078C40.6611 17.9543 40.8559 17.6885 41.0344 17.4117C41.1506 17.0999 41.2413 16.7791 41.3058 16.4527C41.4221 16.1487 41.4715 15.8231 41.4505 15.4982C41.5334 15.2538 41.6932 15.0428 41.906 14.8969C42.1189 14.7509 42.3733 14.6778 42.6312 14.6885V14.8469C42.7305 14.8293 42.8325 14.8333 42.9302 14.8585C43.0279 14.8838 43.119 14.9297 43.1975 14.9931C43.2759 15.0566 43.3398 15.1361 43.3849 15.2264C43.43 15.3166 43.4553 15.4155 43.4589 15.5163C43.4589 15.5661 43.6896 15.9099 43.9113 16.421C44.0153 16.6789 44.4224 16.8372 44.5989 17.1538C44.7285 17.4423 44.8797 17.7205 45.0512 17.9862C45.2263 18.2509 45.4213 18.502 45.6347 18.737C45.8551 18.9661 46.0942 19.1764 46.3494 19.3658C46.5982 19.5513 46.6797 20.0624 46.9737 20.2162C47.2677 20.37 47.6929 20.2162 48.0095 20.3022C48.3288 20.3472 48.6506 20.3729 48.973 20.3791C49.2681 20.49 49.5703 20.5807 49.8777 20.6505C50.2074 20.626 50.5343 20.5731 50.8548 20.4922C51.1861 20.5149 51.5187 20.5149 51.85 20.4922C52.1614 20.3741 52.4638 20.2335 52.7547 20.0715C53.0481 19.9258 53.3307 19.7595 53.6006 19.5739C53.8982 19.4291 54.188 19.2691 54.4691 19.0944C54.7631 18.8682 55.0028 18.6421 55.2154 18.4475C55.6452 18.0359 55.8985 17.76 55.9075 17.7509C56.0885 17.5157 56.3599 17.095 56.6132 17.0588C56.8665 17.0227 57.1515 17.4795 57.3867 17.6605C57.622 17.8414 57.9024 18.0088 57.9386 18.2847C57.9347 18.5755 57.8198 18.8539 57.6174 19.0627C57.4415 19.3782 57.2222 19.6675 56.966 19.9222C56.7489 20.1393 56.3146 20.1891 56.0025 20.4469C55.6904 20.7048 55.6406 21.1119 55.3285 21.3245C55.0164 21.5371 54.6862 21.6275 54.356 21.804C54.0282 21.9484 53.693 22.0752 53.3518 22.1839C53.0261 22.3106 52.7728 22.7087 52.4154 22.8036C52.0581 22.8986 51.6645 22.7222 51.3026 22.7675C50.9407 22.8127 50.5789 22.5865 50.1899 22.5865Z" fill="#383838"/>
<path d="M12.1308 7.80803C11.8859 7.7946 11.6501 7.71058 11.4518 7.5661C11.2536 7.42162 11.1013 7.22287 11.0135 6.99381C10.9185 6.70883 11.1131 6.41932 11.2397 6.17053C11.2837 6.03719 11.354 5.91404 11.4465 5.80837C11.539 5.7027 11.6517 5.61665 11.778 5.55533C12.1127 5.44677 12.4294 5.27036 12.7687 5.17989C13.1079 5.08942 13.506 5.23869 13.8452 5.17989C14.1845 5.12108 14.5057 4.89038 14.8449 4.83157C15.1842 4.77277 15.5505 4.77729 15.8943 4.73658C16.2381 4.69587 16.591 4.59183 16.9348 4.56469C17.2785 4.53755 17.6449 4.56469 17.9932 4.56469C18.3415 4.56469 18.6989 4.42899 19.0427 4.42899C19.3865 4.42899 19.7529 4.46517 20.0967 4.47874C20.4404 4.49231 20.8113 4.47874 21.1506 4.47874C21.4899 4.47874 21.7658 4.60993 22.1006 4.64612C21.8156 4.47423 21.603 4.38828 21.318 4.23448C21.0331 4.08069 20.6938 4.03093 20.4133 3.89522C20.1329 3.75952 19.9203 3.36144 19.6217 3.24836C19.3232 3.13527 18.9839 3.05838 18.6808 2.96339C18.3777 2.86839 17.9797 3.00409 17.6721 2.92719C17.3645 2.85029 17.0343 2.77339 16.7267 2.71459C16.4191 2.65578 16.1024 2.42962 15.7948 2.38438C15.4872 2.33915 15.1299 2.2351 14.8313 2.20796C14.4604 2.17177 14.1302 2.14011 13.8543 2.12654C13.5271 2.10976 13.199 2.13254 12.8772 2.19439C12.5863 2.24435 12.2871 2.18646 12.0359 2.03155C11.8401 1.80786 11.7352 1.519 11.7418 1.22185C11.6977 0.929735 11.7673 0.631824 11.9363 0.389529C12.1449 0.171139 12.4268 0.0374356 12.7279 0.014073C12.7958 0.014073 13.1803 -0.0175913 13.7774 0.014073C14.0714 0.014073 14.4152 0.190499 14.8087 0.222163C15.1254 0.249304 15.4691 0.276436 15.8401 0.326194C16.211 0.375952 16.5458 0.204062 16.9076 0.271914C17.2695 0.339767 17.5771 0.412142 17.9299 0.498088C18.2827 0.584034 18.5994 0.66546 18.9432 0.7695C19.287 0.873539 19.5991 0.986622 19.9383 1.10423C20.2776 1.22184 20.5354 1.47064 20.843 1.60635C21.1506 1.74205 21.5351 1.76014 21.8518 1.91394C22.1684 2.06774 22.4715 2.23511 22.7565 2.41152C23.0414 2.58794 23.3445 2.77792 23.6612 2.97243C23.9778 3.16694 24.1135 3.53786 24.3894 3.75047C24.6654 3.96307 25.0725 3.99926 25.3394 4.22996C25.6062 4.46065 25.76 4.79538 26.0133 5.04418C26.2667 5.29297 26.425 5.59605 26.6602 5.85841C26.8272 5.99911 26.9392 6.19421 26.9764 6.40935C27.0136 6.62449 26.9737 6.84588 26.8638 7.03452C26.7474 7.25059 26.5673 7.42557 26.348 7.53565C26.1286 7.64572 25.8807 7.68555 25.6379 7.6497C25.3752 7.40518 25.0493 7.23908 24.6971 7.17021C24.4121 7.11141 24.023 7.30592 23.6385 7.23806C23.3309 7.18831 22.9962 7.09784 22.6298 7.04809C22.2634 6.99833 21.9875 6.79024 21.6301 6.75405C21.2728 6.71786 20.9471 6.86262 20.5897 6.84452C20.2323 6.82643 19.9202 6.72692 19.5674 6.72239C19.2146 6.71787 18.8934 6.72239 18.5406 6.72239C18.1878 6.72239 17.8621 6.68168 17.5138 6.72239C17.1655 6.76311 16.8262 6.69978 16.4779 6.72239C16.1296 6.74501 15.7903 6.7631 15.4465 6.81738C15.1027 6.87167 14.8087 7.12951 14.4695 7.20188C14.1302 7.27426 13.7593 7.17473 13.4245 7.2652C13.0898 7.35567 12.746 7.40544 12.4158 7.514C12.3208 7.54114 12.253 7.80803 12.1308 7.80803Z" fill="#383838"/>
<path d="M73.03 7.64097C72.9169 7.64097 72.7677 7.78119 72.6546 7.745C72.3289 7.63644 72.0711 7.29266 71.7499 7.19766C71.4287 7.10267 71.0261 7.25647 70.6914 7.19766C70.3566 7.13886 70.0264 7.03482 69.6872 6.98506C69.3479 6.9353 69.0222 6.76341 68.683 6.73175C68.3437 6.70008 67.9818 6.7996 67.6471 6.77698C67.3123 6.75437 66.955 6.70912 66.6157 6.70008C66.2764 6.69103 65.9237 6.70008 65.5844 6.70008C65.2451 6.70008 64.8968 6.84031 64.5621 6.86293C64.2273 6.88555 63.8609 6.82674 63.5352 6.86293C63.2096 6.89912 62.825 6.86293 62.4994 6.8946C62.1737 6.92626 61.7801 6.91721 61.468 6.97149C61.0835 7.03482 60.7669 7.22933 60.4819 7.28814C60.142 7.36362 59.7939 7.39554 59.446 7.38313C59.2432 7.46579 59.018 7.47582 58.8086 7.41152C58.5992 7.34723 58.4185 7.21255 58.297 7.0303C58.1523 6.83368 58.0742 6.59593 58.0742 6.35178C58.0742 6.10762 58.1523 5.86987 58.297 5.67325C58.5322 5.41089 58.9258 5.30685 59.1701 5.06711C59.4143 4.82737 59.541 4.44287 59.8034 4.21669C60.0657 3.99052 60.3462 3.76434 60.6176 3.56078C60.889 3.35723 61.2056 3.17177 61.4906 2.98178C61.7756 2.79179 62.142 2.70133 62.4405 2.52943C62.7391 2.35754 62.9924 2.07709 63.3 1.92329C63.6076 1.76949 63.9242 1.59308 64.2409 1.47094C64.5575 1.34881 64.8923 1.19502 65.2134 1.08193C65.5346 0.968842 65.9327 1.01407 66.2584 0.919077C66.5841 0.824084 66.9097 0.616006 67.2399 0.539107C67.5702 0.462207 67.9773 0.602435 68.3029 0.539107C68.6286 0.475778 68.986 0.317458 69.3117 0.272223C69.6374 0.226988 70.04 0.272223 70.3566 0.272223C70.7502 0.240559 71.0894 0.0324845 71.3835 0.0234375C71.9806 0.0234375 72.356 0.023432 72.4239 0.0460494C72.7285 0.0595815 73.0179 0.183361 73.2381 0.394352C73.4028 0.643448 73.4674 0.945564 73.419 1.24025C73.419 1.5388 73.1748 1.69259 72.9667 1.86901C72.7586 2.04542 72.5686 2.34397 72.2746 2.32136V2.16756C72.2746 2.16756 71.8946 2.16756 71.293 2.1947C71.0171 2.1947 70.6823 2.1947 70.3159 2.22637C69.9495 2.25803 69.6826 2.2716 69.3388 2.32136C68.9951 2.37112 68.7463 2.61538 68.4341 2.68323C68.122 2.75108 67.8235 2.85061 67.4933 2.93203C67.1631 3.01345 66.851 2.99988 66.5343 3.0994C66.2177 3.19891 65.9553 3.3889 65.6296 3.51103C65.3039 3.63317 64.9511 3.55627 64.648 3.69197C64.3449 3.82767 64.1504 4.14432 63.8609 4.29811C63.5714 4.45191 63.3227 4.48811 63.0377 4.66C63.3724 4.62381 63.6392 4.59214 64.0056 4.56952C64.372 4.54691 64.7023 4.70071 65.0597 4.68714C65.417 4.67357 65.7472 4.58309 66.1091 4.58309C66.471 4.58309 66.8012 4.51524 67.1586 4.52882C67.5159 4.54239 67.8461 4.66 68.1989 4.68714C68.5517 4.71428 68.891 4.73689 69.2439 4.7776C69.5967 4.81831 69.9495 4.7776 70.2978 4.83188C70.6461 4.88616 70.9945 4.90879 71.3382 4.98569C71.682 5.06259 71.9805 5.30685 72.3198 5.39731C72.6591 5.48778 73.0662 5.35661 73.4009 5.46518C73.7357 5.57374 73.808 5.91752 73.9302 6.17084C73.979 6.29096 74.0015 6.42018 73.996 6.54973C73.9905 6.67929 73.9573 6.80616 73.8985 6.92174C73.8566 7.12224 73.7478 7.30257 73.59 7.43322C73.4323 7.56388 73.2348 7.63712 73.03 7.64097Z" fill="#383838"/>
<path d="M47.0638 12.1727C47.102 12.4636 47.0898 12.7589 47.0277 13.0457C46.9112 13.3168 46.7472 13.565 46.5436 13.7785C46.3629 14.0075 46.1495 14.2086 45.9103 14.3756C45.5933 14.5999 45.2461 14.778 44.879 14.9049C44.4962 14.9677 44.1089 14.9995 43.721 14.9999C43.3457 15.0963 42.9651 15.1703 42.5811 15.2215C42.1931 15.2075 41.8064 15.1697 41.4231 15.1084C41.0466 15.033 40.6784 14.9209 40.3239 14.7737C39.9396 14.7127 39.5653 14.6001 39.2111 14.439C38.9722 14.2586 38.7631 14.0419 38.5914 13.7966C38.3963 13.5725 38.243 13.3151 38.139 13.0367C38.0487 12.7578 38.0059 12.4658 38.0124 12.1727C38.0256 11.8822 38.0884 11.5962 38.1978 11.3268C38.2563 11.0337 38.3665 10.7534 38.5235 10.499C38.7308 10.2838 38.9668 10.0981 39.2247 9.94715C39.5524 9.73981 39.907 9.57846 40.2786 9.46765C40.645 9.33982 41.0219 9.24447 41.405 9.18268C41.7917 9.15227 42.1799 9.14471 42.5675 9.16006C42.9537 9.17329 43.3387 9.20803 43.721 9.2641C44.0972 9.33179 44.4667 9.43322 44.8247 9.56717C45.1962 9.65535 45.5538 9.79384 45.8877 9.9788C46.1512 10.1191 46.3946 10.294 46.6115 10.499C46.7983 10.7361 46.9422 11.004 47.0367 11.2906C47.0938 11.5812 47.103 11.8792 47.0638 12.1727Z" fill="#FFB3C5"/>
</svg>
