<?xml version="1.0" encoding="utf-8"?>
<!-- Generator: Adobe Illustrator 26.0.3, SVG Export Plug-In . SVG Version: 6.00 Build 0)  -->
<svg version="1.1" id="레이어_1" xmlns="http://www.w3.org/2000/svg" xmlns:xlink="http://www.w3.org/1999/xlink" x="0px"
	 y="0px" viewBox="0 0 529 173" style="enable-background:new 0 0 529 173;" xml:space="preserve">
<style type="text/css">
	.st0{opacity:0.75;}
	.st1{fill:#8E7167;}
	.st2{fill:#7F5C51;}
	.st3{fill:#FFAA93;}
	.st4{fill:#A58983;}
</style>
<g class="st0">
	<path class="st1" d="M0.8,0.6C0,1.4,0.6,1.6,0.6,2.7s0,1.1,0,2.2s0.1,1.1,0.1,2.3s0,1.1,0,2.3c0,1.1,0.1,1.1,0.1,2.3
		S0.5,12.9,0.5,14s0.2,1.1,0.2,2.2s-0.2,1.1-0.2,2.2s0.2,1.1,0.2,2.3c0,1.1-0.1,1.1-0.1,2.2c0,1.1,0,1.1,0,2.2v2.3
		c0,1.1,0.4,1.1,0.4,2.2c0,1.1-0.3,1.1-0.3,2.3c0,1.1,0.3,1.1,0.3,2.3c0,1.1-0.4,1.1-0.4,2.3s0,1.1,0,2.2s0,1.1,0,2.3
		c0,1.1,0.2,1.1,0.2,2.2c0,1.1,0.2,1.1,0.2,2.3s-0.1,1.1-0.1,2.2s-0.2,1.1-0.2,2.3c0,1.1,0.1,1.1,0.1,2.2c0,1.1,0.2,1.1,0.2,2.3
		s-0.5,1.1-0.5,2.3C0.5,58,1,58,1,59.1s-0.1,1.1-0.1,2.3c0,1.1-0.3,1.1-0.3,2.2c0,1.1,0,1.1,0,2.3c0,1.1,0.2,1.1,0.2,2.2
		c0,1.1-0.1,1.1-0.1,2.3s0,1.1,0,2.3c0,1.1-0.1,1.1-0.1,2.3c0,1.1,0.3,1.1,0.3,2.3c0,1.1-0.2,1.1-0.2,2.2c0,1.1,0.2,1.1,0.2,2.3
		s0,1.1,0,2.3v2.3c0,1.1-0.3,1.1-0.3,2.3c0,1.1,0.3,1.1,0.3,2.3c0,1.1,0,1.1,0,2.2c0,1.1-0.1,1.1-0.1,2.3c0,1.1,0.2,1.1,0.2,2.3
		s-0.5,1.1-0.5,2.3c0,1.1,0.5,1.1,0.5,2.3c0,1.1-0.2,1.1-0.2,2.3c0,1.1,0.1,1.1,0.1,2.3s-0.3,1.1-0.3,2.3c0,1.1,0.3,1.1,0.3,2.3
		c0,1.1,0,1.1,0,2.3s0,1.1,0,2.2s-0.2,1.1-0.2,2.3c0,1.1-0.1,1.1-0.1,2.2c0,1.1,0,1.1,0,2.3c0,1.1,0.1,1.1,0.1,2.3
		c0,1.1,0.2,1.1,0.2,2.3s-0.4,1.1-0.4,2.3c0,1.1,0.4,1.1,0.4,2.3c0,1.1-0.3,1.1-0.3,2.3s0.4,1.1,0.4,2.3c0,1.1-0.1,1.1-0.1,2.3
		c0,1.1-0.3,1.1-0.3,2.3s-0.1,1.1-0.1,2.3c0,1.1,0.4,1.1,0.4,2.3c0,1.1-0.1,1.1-0.1,2.3c0,1.1,0.2,1.1,0.2,2.3s-0.2,1.1-0.2,2.3
		c0,1.1,0,1.1,0,2.3c0,1.1-0.2,1.1-0.2,2.3c0,1.1,0.3,1.1,0.3,2.3c0,1.1,0.1,1.1,0.1,2.3c0,1.1-0.1,1.1-0.1,2.3c0,0.2,0,0.4,0.1,0.6
		c0.1,0.2,0.2,0.4,0.4,0.5c0.2,0.1,0.4,0.3,0.6,0.3c0.2,0.1,0.4,0.1,0.6,0c0.8-0.1,1.6-0.2,2.3-0.2c0.8,0,1.6,0,2.4,0.1
		c0.7,0.3,1.4,0.7,2.1,1.1c0.7,0.3,1.4,0.7,2.1,1.2c0.5,0.6,1,1.2,1.5,1.8c0.6,0.5,1.2,1,1.9,1.4c0.5,0.6,1.1,1.1,1.7,1.6
		c0.7,0.3,1.4,0.6,2.2,0.8c0.8,0.1,1.5,0.2,2.3,0.1c0.7,0.2,1.5,0.2,2.3,0.2c0.8-0.1,1.5-0.2,2.3-0.4c0.7-0.3,1.1-1,1.6-1.4
		c0.5-0.4,1.4-0.6,1.8-1.1c0.4-0.5,0.4-1.4,0.6-2c0.3-0.6,0.5-1.3,0.7-1.9c0-0.8-0.4-0.8-0.1-1.5c0.7-0.1,1.5,0,2.2,0.1
		c0.7,0.3,1.4,0.6,2,1c0.7,0.3,1.3,0.7,1.9,1.1c0.9,0.6,1.6,1.3,2.3,2.2c0.6,0.5,1.2,1,1.8,1.4c0.6,0.5,1.2,0.9,1.9,1.3
		c0.6,0.4,1.3,0.8,2,1.1c0.7,0.2,1.5,0.2,2.2,0.2c0.7,0.1,1.5,0.1,2.2,0c0.8,0,1.5-0.2,2.3-0.4c0.7-0.3,1.1-0.9,1.6-1.3
		c0.6-0.3,1.2-0.7,1.7-1.2c0.4-0.6,0.7-1.2,0.8-1.9c0.3-0.6,0.4-1.3,0.4-2c0-1.1,0.3-1.1,0.3-2.2s-0.3-1.1-0.3-2.2s-0.1-1.1-0.1-2.2
		c0-1.1,0.1-1.1,0.1-2.2s-0.2-1.1-0.2-2.2s0.2-1.1,0.2-2.2s-0.2-1.1-0.2-2.2c0-1.1,0-1.1,0-2.2v-2.2c0-1.1,0.4-1.1,0.4-2.2
		s-0.2-1.1-0.2-2.2c0-1.1,0-1.1,0-2.2s0.2-1.1,0.2-2.2s-0.3-1.1-0.3-2.2s0.2-1.1,0.2-2.2s-0.2-1.1-0.2-2.2c0-1.1,0-1.1,0-2.2
		c0-1.1-0.2-1.1-0.2-2.2c0-1.1,0.1-1.1,0.1-2.2s0.2-1.1,0.2-2.2c0-1.1-0.1-1.1-0.1-2.2c0-1.1,0.1-1.1,0.1-2.2c0-1.1-0.3-1.1-0.3-2.2
		s-0.1-1.1-0.1-2.2s0.1-1.1,0.1-2.2c0-1.1-0.1-1.1-0.1-2.2c0-1.1,0.4-1.1,0.4-2.2c0-1.1-0.2-1.1-0.2-2.2s0.2-1.1,0.2-2.2
		c0-1.1,0.1-1.1,0.1-2.2s-0.1-1.1-0.1-2.2c0-1.1-0.2-1.1-0.2-2.2c0-1.1,0-1.1,0-2.2c0-1.1,0.2-1.1,0.2-2.2c0-1.1,0.1-1.1,0.1-2.2
		s0.2-1.1,0.2-2.2c0-1.1-0.2-1.1-0.2-2.2s0.1-1.1,0.1-2.2c0-1.1-0.3-1.1-0.3-2.2c0-1.1,0-1.1,0-2.2s0.4-1.1,0.4-2.2
		s-0.2-1.1-0.2-2.2s-0.1-1.1-0.1-2.2c0-1.1,0.4-1.1,0.4-2.2c0-1.1-0.2-1.1-0.2-2.2s-0.2-1.1-0.2-2.2c0-1.1,0.2-1.1,0.2-2.2
		s0-1.1,0-2.2c0-1.1,0-1.1,0-2.2c0-1.1,0.1-1.1,0.1-2.2s-0.2-1.1-0.2-2.2c0-1.1,0.1-1.1,0.1-2.2c0-1.1,0.1-1.1,0.1-2.2
		c0-1.1,0-1.1,0-2.2c0-1.1-0.3-1.1-0.3-2.2c0-1.1,0.1-1.1,0.1-2.2s0.3-1.1,0.3-2.2s-0.2-1.1-0.2-2.2s-0.1-1.1-0.1-2.2
		s0.1-1.1,0.1-2.2s-0.1-1.1-0.1-2.2c0-1.1,0.1-1.1,0.1-2.2c0-1.1,0-1.1,0-2.2c0-1.1,0.2-1.1,0.2-2.2c0-1.1-0.3-1.1-0.3-2.2
		c0-1.1,0.3-1.1,0.3-2.2c0-1.1,0.1-1.1,0.1-2.2c0-1.1,0-1.1,0-2.2s-0.3-1.1-0.3-2.2s0.3-1.1,0.3-2.2c0-1.1-0.4-1.1-0.4-2.3
		s0.3-1.1,0.3-2.2s-0.1-1.1-0.1-2.2s0.8-1.4,0-2.2c-0.8-0.8-1.1,0-2.2,0s-1.1,0.1-2.3,0.1c-1.1,0-1.1-0.2-2.3-0.2s-1.1-0.1-2.3-0.1
		c-1.1,0-1.1,0.2-2.3,0.2S43,0.2,41.8,0.2s-1.1,0.5-2.3,0.5h-2.3c-1.1,0-1.1-0.2-2.3-0.2s-1.1-0.3-2.3-0.3c-1.1,0-1.1,0-2.3,0
		c-1.1,0-1.1,0.4-2.3,0.4c-1.1,0-1.1-0.4-2.3-0.4s-1.1,0.3-2.3,0.3c-1.1,0-1.1-0.2-2.3-0.2c-1.1,0-1.1,0.1-2.3,0.1s-1.1-0.2-2.3-0.2
		c-1.1,0-1.1,0.1-2.3,0.1s-1.1,0.2-2.3,0.2S11,0.4,9.9,0.4c-1.1,0-1.1,0-2.3,0S6.5,0.2,5.3,0.2c-0.7,0.1-1.5,0.1-2.2,0
		C1.9,0,1.7-0.2,0.8,0.6z"/>
	<path class="st2" d="M29.9,0.3c-0.8,0.8,0.2,1.2,0.2,2.3s0,1.1,0,2.2s-0.2,1.1-0.2,2.2s0.3,1.1,0.3,2.2c0,1.1-0.1,1.1-0.1,2.2
		S30,12.8,30,13.9s0,1.1,0,2.2c0,1.1-0.3,1.1-0.3,2.2c0,1.1,0.1,1.1,0.1,2.2s0,1.1,0,2.2c0,1.1-0.1,1.1-0.1,2.2
		c0,1.1,0.4,1.1,0.4,2.2s-0.3,1.1-0.3,2.2s0.2,1.1,0.2,2.2s-0.3,1.1-0.3,2.2s0.2,1.1,0.2,2.2c0,1.1,0.1,1.1,0.1,2.2
		c0,1.1-0.2,1.1-0.2,2.2s0.1,1.1,0.1,2.2c0,1.1-0.1,1.1-0.1,2.2c0,1.1,0,1.1,0,2.2s0,1.1,0,2.2S30,50.9,30,52c0,1.1-0.2,1.1-0.2,2.2
		s0.2,1.1,0.2,2.2s-0.2,1.1-0.2,2.2c0,1.1-0.1,1.1-0.1,2.2c0,1.1,0.1,1.1,0.1,2.2c0,1.1,0.2,1.1,0.2,2.2c0,1.1-0.2,1.1-0.2,2.2
		c0,1.1,0.2,1.1,0.2,2.2c0,1.1-0.2,1.1-0.2,2.2c0,1.1,0.2,1.1,0.2,2.2c0,1.1-0.1,1.1-0.1,2.2s0,1.1,0,2.2s0,1.1,0,2.2
		c0,1.1,0.2,1.1,0.2,2.2c0,1.1-0.3,1.1-0.3,2.2c0,1.1,0.1,1.1,0.1,2.2S30,89,30,90.2s0.2,1.1,0.2,2.2c0,1.1-0.3,1.1-0.3,2.2v2.2
		c0,1.1,0.1,1.1,0.1,2.2c0,1.1,0.1,1.1,0.1,2.3c0,1.1-0.3,1.1-0.3,2.2s0.1,1.1,0.1,2.2s0,1.1,0,2.2c0,1.1-0.1,1.1-0.1,2.2
		c0,1.1,0.3,1.1,0.3,2.2c0,1.1-0.1,1.1-0.1,2.2c0,1.1,0,1.1,0,2.2s0,1.1,0,2.2c0,1.1,0.1,1.1,0.1,2.2c0,1.1,0,1.1,0,2.2
		c0,1.1-0.3,1.1-0.3,2.2c0,1.1,0.3,1.1,0.3,2.2c0,1.1,0.1,1.1,0.1,2.2s0,1.1,0,2.2c0,1.1-0.4,1.1-0.4,2.2c0,1.1,0,1.1,0,2.2
		c0,1.1,0,1.1,0,2.2s0.2,1.1,0.2,2.2s0.1,1.1,0.1,2.2s-0.2,1.1-0.2,2.2s0,1.1,0,2.2s0.1,1.1,0.1,2.2c0,1.1,0.2,1.1,0.2,2.2
		c0,1.1-0.2,1.1-0.2,2.2c0,1.1,0,1.1,0,2.2c0,1.1,0.2,1.1,0.2,2.2c0,1.1-0.3,1.1-0.3,2.3c-0.1,0.7,0,1.5,0.2,2.2
		c0.7,0.1,1.4,0.2,2,0.5c0.7,0.1,1.4,0.4,2,0.7c0.8,0.3,1.5,0.6,2.2,1.1c0.3-1.1-0.5-1.2-0.5-2.3c0-1.1,0.3-1.1,0.3-2.2
		c0-1.1-0.2-1.1-0.2-2.2s0.2-1.1,0.2-2.2c0-1.1,0-1.1,0-2.2c0-1.1,0.2-1.1,0.2-2.2s-0.3-1.1-0.3-2.2s0.2-1.1,0.2-2.2
		s-0.2-1.1-0.2-2.2c0-1.1,0.2-1.1,0.2-2.2c0-1.1-0.4-1.1-0.4-2.2s0-1.1,0-2.2c0-1.1,0.3-1.1,0.3-2.2s0-1.1,0-2.2
		c0-1.1-0.2-1.1-0.2-2.2c0-1.1,0.3-1.1,0.3-2.2s0-1.1,0-2.2c0-1.1-0.3-1.1-0.3-2.2c0-1.1,0.2-1.1,0.2-2.2c0-1.1-0.2-1.1-0.2-2.2
		c0-1.1,0.3-1.1,0.3-2.2s-0.4-1.1-0.4-2.2c0-1.1,0-1.1,0-2.2c0-1.1,0.4-1.1,0.4-2.2s0-1.1,0-2.2c0-1.1-0.4-1.1-0.4-2.2
		c0-1.1,0.2-1.1,0.2-2.2c0-1.1,0.1-1.1,0.1-2.2c0-1.1,0-1.1,0-2.2s-0.3-1.1-0.3-2.2c0-1.1,0.1-1.1,0.1-2.2s-0.1-1.1-0.1-2.2
		c0-1.1-0.1-1.1-0.1-2.2c0-1.1,0.1-1.1,0.1-2.2c0-1.1,0.4-1.1,0.4-2.2c0-1.1-0.1-1.1-0.1-2.2s-0.1-1.1-0.1-2.2
		c0-1.1-0.1-1.1-0.1-2.2c0-1.1,0.1-1.1,0.1-2.2S36,77.9,36,76.8s-0.2-1.1-0.2-2.2s0.5-1.1,0.5-2.2c0-1.1,0-1.1,0-2.2
		c0-1.1-0.1-1.1-0.1-2.2c0-1.1-0.2-1.1-0.2-2.2s0.2-1.1,0.2-2.3c0-1.1,0-1.1,0-2.2c0-1.1,0-1.1,0-2.2s0-1.1,0-2.2s0.1-1.1,0.1-2.2
		c0-1.1-0.1-1.1-0.1-2.2S36,51,36,49.8s0.1-1.1,0.1-2.2s-0.4-1.1-0.4-2.2c0-1.1,0.4-1.1,0.4-2.2c0-1.1-0.4-1.1-0.4-2.2
		c0-1.1,0.3-1.1,0.3-2.2s-0.3-1.1-0.3-2.2c0-1.1,0.4-1.1,0.4-2.2c0-1.1-0.3-1.1-0.3-2.2c0-1.1-0.2-1.1-0.2-2.2
		c0-1.1,0.1-1.1,0.1-2.2c0-1.1-0.1-1.1-0.1-2.2c0-1.1,0.1-1.1,0.1-2.2c0-1.1,0.3-1.1,0.3-2.2c0-1.1,0-1.1,0-2.2c0-1.1,0-1.1,0-2.2
		c0-1.1-0.4-1.1-0.4-2.2s0.1-1.1,0.1-2.2s0.1-1.1,0.1-2.2c0-1.1-0.2-1.1-0.2-2.2s0-1.1,0-2.2S36,3.8,36,2.7s0.7-1.3-0.1-2.2
		c-0.8-0.8-0.9-0.3-1.9-0.3c-1,0-1.1,0.5-2.1,0.3C30.9,0.3,30.5-0.4,29.9,0.3z"/>
	<path class="st3" d="M36.3,119c0-0.2-0.1-0.4-0.1-0.6C36.1,118.6,36.2,118.8,36.3,119z"/>
	<path class="st2" d="M45.6,48c0.3,1.2,0.3,1.2,0.6,2.4c0.3,1.2-0.2,1.5,0.6,2.5c0.8,1,1.2,0.4,2.4,0.9s1.1,0.6,2.2,1.1
		c0.2,0.1,0.4,0.2,0.5,0.4c0.1,0.2,0.2,0.4,0.2,0.6c0,0.2,0,0.4-0.1,0.6c-0.1,0.2-0.2,0.3-0.4,0.4l-2.2,1.3
		c-1.1,0.6-1.6,0.1-2.2,1.2c-0.7,1-0.1,1.3-0.2,2.5c-0.1,1.2-0.3,1.2-0.4,2.5c0,0.2,0,0.4-0.1,0.6c-0.1,0.2-0.3,0.3-0.4,0.4
		c-0.2,0.1-0.4,0.1-0.6,0.1c-0.2,0-0.4-0.1-0.5-0.3c-0.9-0.8-1-0.7-1.9-1.6c-0.9-0.8-0.5-1.6-1.7-1.9c-1.2-0.3-1.3,0.2-2.5,0.5
		s-1.2,0.3-2.4,0.6c-0.2,0.1-0.4,0-0.6,0c-0.2-0.1-0.4-0.2-0.5-0.3c-0.1-0.2-0.2-0.3-0.3-0.5c0-0.2,0-0.4,0-0.6
		c0.5-1.1,0.8-1,1.3-2.2c0.5-1.2,0.9-1.1,0.8-2.3c-0.1-1.2-0.6-1.1-1.2-2.2c-0.6-1.1-0.8-1-1.4-2.1c-0.1-0.2-0.1-0.4-0.1-0.6
		c0-0.2,0.1-0.4,0.2-0.6c0.1-0.2,0.3-0.3,0.5-0.4s0.4-0.1,0.6-0.1l2.5,0.2c1.2,0.1,1.3,0.5,2.4,0s0.8-0.9,1.6-1.8
		c0.8-0.9,1-0.8,1.8-1.7c0.1-0.1,0.3-0.3,0.4-0.3c0.2-0.1,0.4-0.1,0.5,0c0.2,0,0.3,0.1,0.5,0.3C45.5,47.7,45.6,47.8,45.6,48z"/>
	<path class="st4" d="M11.4,118.1c1.2,0,1.2-0.1,2.5-0.1s1.4,0.8,2.5,0.3c1.1-0.5,0.6-1.1,1.4-2.1c0.8-1,1-0.8,1.8-1.8
		c0.1-0.2,0.3-0.3,0.5-0.4c0.2-0.1,0.4-0.1,0.6-0.1c0.2,0,0.4,0.1,0.5,0.2c0.2,0.1,0.3,0.3,0.3,0.5c0.3,1.2,0.3,1.2,0.6,2.4
		c0.3,1.2-0.2,1.6,0.6,2.5s1.3,0.2,2.5,0.7c1.2,0.4,1.1,0.6,2.3,1.1c0.2,0.1,0.4,0.2,0.5,0.3c0.1,0.2,0.2,0.3,0.2,0.5
		c0,0.2,0,0.4-0.1,0.6c-0.1,0.2-0.2,0.3-0.4,0.4c-1,0.7-1.1,0.6-2.1,1.3c-1,0.7-1.4,0.4-2,1.5c-0.6,1.1,0,1.3,0,2.5
		c0,1.2,0,1.2-0.1,2.5c0,0.2-0.1,0.4-0.2,0.6c-0.1,0.2-0.3,0.3-0.5,0.4c-0.2,0.1-0.4,0.1-0.6,0.1c-0.2,0-0.4-0.1-0.6-0.2
		c-1-0.8-1-0.8-1.9-1.6c-0.9-0.8-0.7-1.3-2-1.5s-1.2,0.3-2.4,0.6c-1.2,0.3-1.2,0.3-2.4,0.6c-0.2,0.1-0.4,0.1-0.6,0
		c-0.2-0.1-0.4-0.2-0.5-0.3c-0.1-0.1-0.2-0.3-0.3-0.5c0-0.2,0-0.4,0-0.6c0.4-1.2,0.5-1.1,1-2.3s0.8-1.1,0.7-2.4
		c-0.1-1.2-0.5-1.1-1.2-2.2c-0.7-1-0.9-0.9-1.6-1.9c-0.1-0.2-0.2-0.4-0.1-0.6c0-0.2,0.1-0.4,0.2-0.6c0.1-0.2,0.3-0.3,0.5-0.4
		C11,118.1,11.2,118.1,11.4,118.1z"/>
	<path class="st1" d="M527.9,0.7c0.8,0.8,0.3,1,0.3,2.1s-0.1,1.1-0.1,2.3s0,1.1,0,2.3s0.2,1.1,0.2,2.2c0,1.1,0,1.1,0,2.3
		s0,1.1,0,2.2s-0.2,1.1-0.2,2.2s0,1.1,0,2.3s0.2,1.1,0.2,2.2s-0.3,1.1-0.3,2.2s0.5,1.1,0.5,2.3c0,1.1-0.1,1.1-0.1,2.2
		c0,1.1,0,1.1,0,2.3c0,1.1,0.1,1.1,0.1,2.2c0,1.1-0.4,1.1-0.4,2.3c0,1.1,0.4,1.1,0.4,2.3c0,1.1-0.3,1.1-0.3,2.2
		c0,1.1,0.4,1.1,0.4,2.3s0,1.1,0,2.3s-0.1,1.1-0.1,2.2s0,1.1,0,2.2s-0.1,1.1-0.1,2.3s0,1.1,0,2.3c0,1.1-0.1,1.1-0.1,2.2
		c0,1.1,0.1,1.1,0.1,2.3s0,1.1,0,2.3c0,1.1,0,1.1,0,2.3s-0.1,1.1-0.1,2.2s0.4,1.1,0.4,2.3c0,1.1-0.2,1.1-0.2,2.3s-0.1,1.1-0.1,2.2
		s-0.1,1.1-0.1,2.3c0,1.1-0.1,1.1-0.1,2.3c0,1.1,0.4,1.1,0.4,2.3v2.3c0,1.1,0,1.1,0,2.2c0,1.1-0.1,1.1-0.1,2.3c0,1.1,0,1.1,0,2.3
		c0,1.1,0.1,1.1,0.1,2.3s-0.3,1.1-0.3,2.3c0,1.1,0,1.1,0,2.3c0,1.1,0.5,1.1,0.5,2.3s-0.4,1.1-0.4,2.3c0,1.1,0,1.1,0,2.2
		c0,1.1,0.2,1.1,0.2,2.3s0.2,1.1,0.2,2.3c0,1.1-0.3,1.1-0.3,2.3c0,1.1,0.2,1.1,0.2,2.3c0,1.1-0.1,1.1-0.1,2.3s-0.4,1.1-0.4,2.3
		c0,1.1,0.1,1.1,0.1,2.3c0,1.1,0.3,1.1,0.3,2.2c0,1.1-0.1,1.1-0.1,2.3s-0.1,1.1-0.1,2.3v2.3c0,1.1,0.2,1.1,0.2,2.2
		c0,1.1-0.3,1.1-0.3,2.3s0.1,1.1,0.1,2.3c0,1.1,0,1.1,0,2.3s0.2,1.1,0.2,2.3c0,1.1,0.1,1.1,0.1,2.3c0,1.1-0.4,1.1-0.4,2.3
		c0,1.1,0.2,1.1,0.2,2.3c0,1.1-0.1,1.1-0.1,2.3v2.3c0,1.1-0.2,1.1-0.2,2.3c0,1.1,0.5,1.1,0.5,2.3s0,1.1,0,2.3s-0.2,1.1-0.2,2.3
		s-0.2,1.1-0.2,2.3s-0.1,1.1-0.1,2.3c0,1.1,0.5,1.1,0.5,2.3c0,0.2-0.1,0.5-0.2,0.7c-0.1,0.2-0.3,0.4-0.5,0.6
		c-0.2,0.2-0.4,0.3-0.6,0.3c-0.2,0.1-0.5,0.1-0.7,0.1c-0.8-0.2-1.5-0.4-2.3-0.5c-0.8,0-1.6,0.1-2.4,0.3c-0.8,0.2-1.5,0.5-2.2,0.9
		c-0.7,0.4-1.3,0.9-1.9,1.4c-0.6,0.5-1.2,1-1.8,1.5c-0.4,0.6-0.9,1.2-1.5,1.8c-0.6,0.5-1.2,1-1.8,1.4c-0.7,0.3-1.5,0.5-2.2,0.7
		c-0.7,0.2-1.5,0.3-2.2,0.4c-0.8,0.1-1.5,0.1-2.3,0c-0.8-0.1-1.5-0.3-2.2-0.5c-0.7-0.3-1.1-0.9-1.6-1.3c-0.6-0.3-1.2-0.7-1.7-1.2
		c-0.4-0.5-0.8-1.2-1-1.8c-0.2-0.6-0.4-1.3-0.4-2c0-0.8,0.3-0.9,0-1.6c-0.7,0-1.5,0-2.2,0.1c-0.7,0.2-1.4,0.5-2,0.8
		c-0.7,0.3-1.3,0.7-1.9,1.1c-0.9,0.6-1.7,1.3-2.4,2.1c-0.5,0.6-1,1.1-1.6,1.6c-0.5,0.6-1.1,1.1-1.7,1.5c-0.7,0.3-1.4,0.6-2.1,0.8
		c-0.7,0.2-1.5,0.3-2.2,0.3c-0.7,0-1.5,0-2.2-0.1c-0.7-0.1-1.5-0.3-2.2-0.5c-0.7-0.2-1.4-0.4-2-0.7c-0.6-0.4-1.1-0.9-1.5-1.5
		c-0.4-0.5-0.8-1.2-1-1.8c-0.2-0.6-0.3-1.3-0.3-2c0-1.1,0-1.1,0-2.2c0-1.1-0.3-1.1-0.3-2.2c0-1.1,0-1.1,0-2.2s0.3-1.1,0.3-2.2
		c0-1.1-0.1-1.1-0.1-2.2v-2.2c0-1.1,0.2-1.1,0.2-2.2c0-1.1-0.3-1.1-0.3-2.2s0.3-1.1,0.3-2.2c0-1.1-0.2-1.1-0.2-2.2
		c0-1.1-0.2-1.1-0.2-2.2s0.4-1.1,0.4-2.2s0-1.1,0-2.2c0-1.1-0.2-1.1-0.2-2.2c0-1.1,0-1.1,0-2.2s-0.3-1.1-0.3-2.2
		c0-1.1,0.1-1.1,0.1-2.2s0-1.1,0-2.2s0-1.1,0-2.2c0-1.1,0-1.1,0-2.2s0.2-1.1,0.2-2.2s-0.3-1.1-0.3-2.2s0.1-1.1,0.1-2.2
		c0-1.1,0.3-1.1,0.3-2.2c0-1.1-0.3-1.1-0.3-2.2s0-1.1,0-2.2s0.3-1.1,0.3-2.2c0-1.1,0-1.1,0-2.2s-0.1-1.1-0.1-2.2
		c0-1.1-0.3-1.1-0.3-2.2c0-1.1,0.1-1.1,0.1-2.2c0-1.1,0-1.1,0-2.2s0-1.1,0-2.2c0-1.1,0.1-1.1,0.1-2.2s0.2-1.1,0.2-2.2
		c0-1.1-0.4-1.1-0.4-2.2c0-1.1,0.5-1.1,0.5-2.2c0-1.1-0.4-1.1-0.4-2.2s0.1-1.1,0.1-2.2s0.2-1.1,0.2-2.2c0-1.1-0.1-1.1-0.1-2.2
		s0.2-1.1,0.2-2.2c0-1.1-0.2-1.1-0.2-2.2v-2.2c0-1.1-0.1-1.1-0.1-2.2s0.3-1.1,0.3-2.2c0-1.1-0.4-1.1-0.4-2.2c0-1.1,0-1.1,0-2.2
		c0-1.1,0-1.1,0-2.2s0.4-1.1,0.4-2.2c0-1.1-0.1-1.1-0.1-2.2s-0.1-1.1-0.1-2.2s0.2-1.1,0.2-2.2c0-1.1-0.1-1.1-0.1-2.2
		c0-1.1-0.2-1.1-0.2-2.2c0-1.1,0-1.1,0-2.2s0.2-1.1,0.2-2.2s0-1.1,0-2.2s-0.1-1.1-0.1-2.2c0-1.1-0.1-1.1-0.1-2.2
		c0-1.1-0.2-1.1-0.2-2.2s0-1.1,0-2.2c0-1.1,0-1.1,0-2.2c0-1.1,0-1.1,0-2.2c0-1.1,0.3-1.1,0.3-2.2s-0.3-1.1-0.3-2.2
		c0-1.1,0.3-1.1,0.3-2.2s0-1.1,0-2.2s0-1.1,0-2.2s-0.2-1.1-0.2-2.2c0-1.1,0.2-1.1,0.2-2.2s-0.1-1.1-0.1-2.2s0.1-1.1,0.1-2.2
		s-0.9-1.4-0.1-2.2c0.8-0.8,1.1-0.3,2.2-0.3c1.1,0,1.1,0.3,2.3,0.3c1.1,0,1.1-0.1,2.3-0.1c1.1,0,1.1-0.1,2.3-0.1
		c1.1,0,1.1-0.1,2.3-0.1s1.1,0.2,2.3,0.2c1.1,0,1.1,0.2,2.3,0.2c1.1,0,1.1-0.4,2.3-0.4s1.1,0.3,2.3,0.3h2.2c1.1,0,1.1,0.1,2.3,0.1
		h2.3c1.1,0,1.1-0.1,2.3-0.1c1.1,0,1.1,0.2,2.3,0.2s1.1,0,2.3,0c1.1,0,1.1-0.1,2.3-0.1c1.1,0,1.1,0.1,2.3,0.1s1.1-0.2,2.3-0.2
		c1.1,0,1.1,0.3,2.3,0.3s1.1-0.5,2.3-0.5c1.2,0,1.1,0.4,2.3,0.4s1.1-0.3,2.3-0.3c1.2,0,1.2,0.5,2.3,0.3C527,0.6,527.1-0.1,527.9,0.7
		z"/>
	<path class="st2" d="M498.9,0.4c0.8,0.8-0.2,1.2-0.2,2.4s-0.1,1.1-0.1,2.2s0.1,1.1,0.1,2.2s0.2,1.1,0.2,2.2c0,1.1,0,1.1,0,2.2
		s0.1,1.1,0.1,2.2s-0.1,1.1-0.1,2.2v2.2c0,1.1,0.1,1.1,0.1,2.2c0,1.1,0.1,1.1,0.1,2.2c0,1.1-0.1,1.1-0.1,2.2c0,1.1-0.1,1.1-0.1,2.2
		c0,1.1,0.2,1.1,0.2,2.2c0,1.1-0.1,1.1-0.1,2.2c0,1.1-0.1,1.1-0.1,2.2c0,1.1,0.1,1.1,0.1,2.2c0,1.1,0.1,1.1,0.1,2.2
		s-0.2,1.1-0.2,2.2s0,1.1,0,2.2c0,1.1,0.1,1.1,0.1,2.2s0,1.1,0,2.2c0,1.1-0.1,1.1-0.1,2.2c0,1.1,0.3,1.1,0.3,2.2
		c0,1.1-0.3,1.1-0.3,2.2c0,1.1,0.2,1.1,0.2,2.2c0,1.1-0.1,1.1-0.1,2.2c0,1.1-0.1,1.1-0.1,2.2s-0.1,1.1-0.1,2.2
		c0,1.1,0.2,1.1,0.2,2.2c0,1.1,0.2,1.1,0.2,2.2c0,1.1,0.1,1.1,0.1,2.2c0,1.1-0.3,1.1-0.3,2.2s-0.1,1.1-0.1,2.2s0.3,1.1,0.3,2.2
		s0,1.1,0,2.2c0,1.1-0.3,1.1-0.3,2.2c0,1.1,0.1,1.1,0.1,2.2v2.2c0,1.1,0.2,1.1,0.2,2.2c0,1.1,0.1,1.1,0.1,2.2s-0.4,1.1-0.4,2.2
		s0,1.1,0,2.2c0,1.1,0.2,1.1,0.2,2.2c0,1.1-0.1,1.1-0.1,2.2c0,1.1-0.1,1.1-0.1,2.3s0.4,1.1,0.4,2.2c0,1.1-0.4,1.1-0.4,2.2
		c0,1.1,0.3,1.1,0.3,2.2c0,1.1-0.2,1.1-0.2,2.2c0,1.1,0.3,1.1,0.3,2.2c0,1.1-0.2,1.1-0.2,2.2s-0.2,1.1-0.2,2.2s0,1.1,0,2.2
		c0,1.1,0.2,1.1,0.2,2.2c0,1.1-0.1,1.1-0.1,2.2c0,1.1-0.1,1.1-0.1,2.2c0,1.1,0,1.1,0,2.2c0,1.1,0.1,1.1,0.1,2.2s0.3,1.1,0.3,2.2
		s0,1.1,0,2.2c0,1.1-0.1,1.1-0.1,2.2c0,1.1-0.1,1.1-0.1,2.2c0,1.1-0.3,1.1-0.3,2.2c0,1.1,0.1,1.1,0.1,2.2c0,1.1,0.1,1.1,0.1,2.2
		c0,1.1-0.1,1.1-0.1,2.2c0,1.1,0.2,1.1,0.2,2.2c0,1.1-0.3,1.1-0.3,2.2s0.2,1.1,0.2,2.2s0.1,1.1,0.1,2.2s-0.3,1.1-0.3,2.3
		c0,1.1,0,1.1,0,2.2c0,1.1,0.2,1.1-0.1,2.2c-0.7,0.1-1.3,0.2-1.9,0.4c-0.7,0.1-1.5,0.2-2.2,0.4c-0.6,0.4-1.1,0.8-1.6,1.3
		c-0.4-1.1-0.1-1.1-0.1-2.2c0-1.1,0-1.1,0-2.2s-0.4-1.1-0.4-2.2c0-1.1,0.1-1.1,0.1-2.2c0-1.1,0-1.1,0-2.2s0.1-1.1,0.1-2.2
		c0-1.1-0.1-1.1-0.1-2.2c0-1.1-0.1-1.1-0.1-2.2s0.3-1.1,0.3-2.2c0-1.1-0.2-1.1-0.2-2.2s0.1-1.1,0.1-2.2c0-1.1,0.2-1.1,0.2-2.2v-2.2
		c0-1.1,0-1.1,0-2.2c0-1.1-0.3-1.1-0.3-2.2c0-1.1,0.4-1.1,0.4-2.2c0-1.1-0.4-1.1-0.4-2.2c0-1.1,0.2-1.1,0.2-2.2s0-1.1,0-2.2
		c0-1.1,0.2-1.1,0.2-2.2c0-1.1,0-1.1,0-2.2c0-1.1-0.4-1.1-0.4-2.2s0.4-1.1,0.4-2.2c0-1.1-0.1-1.1-0.1-2.2c0-1.1-0.2-1.1-0.2-2.2
		s0.1-1.1,0.1-2.2c0-1.1,0.2-1.1,0.2-2.2c0-1.1-0.2-1.1-0.2-2.2c0-1.1,0.2-1.1,0.2-2.2c0-1.1-0.2-1.1-0.2-2.2c0-1.1,0.1-1.1,0.1-2.2
		c0-1.1-0.1-1.1-0.1-2.2s0.2-1.1,0.2-2.2c0-1.1-0.4-1.1-0.4-2.2c0-1.1,0-1.1,0-2.2c0-1.1,0.4-1.1,0.4-2.2c0-1.1-0.3-1.1-0.3-2.2
		s0.2-1.1,0.2-2.2c0-1.1-0.3-1.1-0.3-2.2c0-1.1,0.3-1.1,0.3-2.2c0-1.1-0.4-1.1-0.4-2.2c0-1.1,0.2-1.1,0.2-2.2s0.2-1.1,0.2-2.2
		c0-1.1,0-1.1,0-2.2c0-1.1-0.2-1.1-0.2-2.2c0-1.1,0-1.1,0-2.2c0-1.1,0-1.1,0-2.2s-0.1-1.1-0.1-2.2c0-1.1,0.1-1.1,0.1-2.2
		s-0.4-1.1-0.4-2.2s0.3-1.1,0.3-2.2c0-1.1-0.2-1.1-0.2-2.2c0-1.1,0.1-1.1,0.1-2.2c0-1.1-0.1-1.1-0.1-2.2c0-1.1-0.1-1.1-0.1-2.2
		s-0.1-1.1-0.1-2.2s0.1-1.1,0.1-2.2c0-1.1,0-1.1,0-2.2s0-1.1,0-2.2c0-1.1,0.4-1.1,0.4-2.2s-0.1-1.1-0.1-2.2c0-1.1,0-1.1,0-2.2
		c0-1.1-0.1-1.1-0.1-2.2c0-1.1,0.1-1.1,0.1-2.2c0-1.1,0-1.1,0-2.2c0-1.1-0.4-1.1-0.4-2.2c0-1.1,0.1-1.1,0.1-2.2
		c0-1.1,0.3-1.1,0.3-2.2s-0.4-1.1-0.4-2.2s-0.1-1.1-0.1-2.2c0-1.1,0.3-1.1,0.3-2.3s-0.1-1.1-0.1-2.2s0.2-1.1,0.2-2.2
		s-0.7-1.3,0.1-2.1c0.8-0.8,0.8-0.4,1.9-0.4c1,0,1,0.3,2,0.1S498.3-0.3,498.9,0.4z"/>
	<path class="st4" d="M475.1,134.7l3-4l5,0.1c0.2,0,0.4,0,0.6-0.2c0.2-0.1,0.3-0.3,0.4-0.4c0.1-0.2,0.1-0.4,0.1-0.6
		c0-0.2-0.1-0.4-0.2-0.6l-2.8-4.1l1.6-4.7c0.1-0.2,0.1-0.4,0-0.6c0-0.2-0.1-0.4-0.3-0.5c-0.1-0.1-0.3-0.3-0.5-0.3
		c-0.2-0.1-0.4,0-0.6,0l-4.8,1.4l-3.4-2.6c0.2,0.4,0.2,0.9,0.2,1.4c0,1.1-0.2,1.1-0.2,2.2c0,1.1,0,1.1,0,2.2s0,1.1,0,2.2
		s0,1.1,0,2.2s-0.1,1.1-0.1,2.2s0.3,1.1,0.3,2.2c0,1.1,0,1.1,0,2.2v0.1c0.1,0.1,0.2,0.2,0.4,0.3c0.1,0.1,0.3,0.1,0.5,0.1
		c0.2,0,0.3,0,0.4-0.1C474.9,134.9,475,134.8,475.1,134.7z"/>
	<path class="st4" d="M498.8,61.1c0,1.1-0.1,1.1-0.1,2.2c0,1.1,0.1,1.1,0.1,2.2c0,0.2-0.1,0.4-0.1,0.5c0.1-1-0.3-1.1,0.3-1.9
		c0.7-1,1.1-0.6,2.1-1.2c1.1-0.6,1-0.7,2.1-1.4c0.2-0.1,0.3-0.2,0.4-0.4c0.1-0.2,0.1-0.4,0.1-0.6c0-0.2-0.1-0.4-0.2-0.6
		c-0.1-0.2-0.3-0.3-0.5-0.4c-1.1-0.5-1.1-0.5-2.2-1c-0.7-0.4-1.4-0.8-2.1-1c-0.1,0.4-0.1,0.8-0.2,1.2
		C498.7,59.9,498.8,59.9,498.8,61.1z"/>
	<path class="st2" d="M521.7,80.4l-2.1-0.1c-1,0-1-0.2-2.1-0.2c-1.1,0-1.1,0.3-2-0.2c-0.9-0.5-0.9-0.6-1.5-1.4
		c-0.6-0.8-0.6-0.8-1.2-1.7c-0.6-0.8-0.4-1-1-1.9c-0.2-0.2-0.4-0.4-0.6-0.5c-0.2-0.1-0.5-0.1-0.8-0.1c-0.3,0-0.5,0.1-0.7,0.3
		c-0.2,0.2-0.4,0.4-0.5,0.6c-0.3,1-0.5,0.9-0.9,1.9c-0.4,1-0.1,1.1-0.4,2.1c-0.4,1,0,1.2-0.8,2s-1.1,0.1-2.1,0.4c-1,0.3-1,0.4-2,0.7
		c-1,0.3-0.9,0.5-1.9,0.8c-0.2,0.1-0.4,0.2-0.6,0.4c-0.2,0.2-0.3,0.4-0.3,0.6c0,0.2,0,0.5,0.1,0.7c0.1,0.2,0.3,0.4,0.5,0.5
		c0.8,0.6,0.6,0.8,1.5,1.5c0.8,0.6,0.9,0.6,1.7,1.2c0.8,0.6,1.1,0.4,1.5,1.3s0.1,1,0.1,2s0.2,1,0.1,2.1c0,1.1-0.2,1-0.3,2.1
		c0,0.3,0.1,0.5,0.2,0.7c0.1,0.2,0.3,0.4,0.5,0.5c0.2,0.1,0.5,0.2,0.7,0.2c0.3,0,0.5-0.1,0.7-0.2c0.9-0.6,0.7-0.8,1.6-1.3
		c0.9-0.6,1-0.4,1.8-1c0.9-0.6,0.6-1.2,1.7-1.4c1-0.1,1,0.3,2,0.6c1,0.4,0.9,0.6,1.9,0.9c1,0.3,1.1,0.1,2.1,0.4
		c0.2,0.1,0.5,0.1,0.7,0.1c0.2,0,0.5-0.1,0.7-0.3c0.2-0.2,0.3-0.4,0.4-0.6c0.1-0.2,0.1-0.5,0-0.7c-0.3-1-0.2-1-0.5-2s-0.4-1-0.7-2
		c-0.3-1-0.7-0.9-0.5-1.9c0.2-1,0.3-1,1-1.8c0.7-0.8,0.8-0.7,1.4-1.6s0.7-0.8,1.3-1.6c0.1-0.2,0.2-0.4,0.3-0.7c0-0.2,0-0.5-0.1-0.7
		c-0.1-0.2-0.3-0.4-0.5-0.6C522.1,80.5,521.9,80.5,521.7,80.4z"/>
</g>
</svg>
