<svg width="529" height="173" viewBox="0 0 529 173" fill="none" xmlns="http://www.w3.org/2000/svg">
<g opacity="0.75">
<path d="M0.450013 0.619995C-0.349987 1.41 0.179994 1.62 0.179994 2.72C0.179994 3.82 0.179994 3.85 0.179994 4.97C0.179994 6.09 0.279969 6.09998 0.279969 7.22998C0.279969 8.35998 0.279969 8.35999 0.279969 9.48999C0.279969 10.62 0.359986 10.62 0.359986 11.74C0.359986 12.86 0.140016 12.87 0.140016 14C0.140016 15.13 0.299989 15.12 0.299989 16.25C0.299989 17.38 0.0599987 17.38 0.0599987 18.5C0.0599987 19.62 0.229982 19.63 0.229982 20.76C0.229982 21.89 0.119996 21.88 0.119996 23.01C0.119996 24.14 0.119996 24.14 0.119996 25.26V27.52C0.119996 28.64 0.549989 28.64 0.549989 29.77C0.549989 30.9 0.219972 30.9 0.219972 32.03C0.219972 33.16 0.479982 33.16 0.479982 34.29C0.479982 35.42 0.0899669 35.42 0.0899669 36.55C0.0899669 37.68 0.0899669 37.67 0.0899669 38.8C0.0899669 39.93 0.0899669 39.93 0.0899669 41.06C0.0899669 42.19 0.320008 42.18 0.320008 43.31C0.320008 44.44 0.489991 44.44 0.489991 45.57C0.489991 46.7 0.429994 46.69 0.429994 47.82C0.429994 48.95 0.250001 48.95 0.250001 50.08C0.250001 51.21 0.349977 51.21 0.349977 52.33C0.349977 53.45 0.589967 53.46 0.589967 54.59C0.589967 55.72 0.0999767 55.72 0.0999767 56.85C0.0999767 57.98 0.589967 57.98 0.589967 59.11C0.589967 60.24 0.479982 60.24 0.479982 61.37C0.479982 62.5 0.169984 62.49 0.169984 63.62C0.169984 64.75 0.169984 64.75 0.169984 65.88C0.169984 67.01 0.380006 67.01 0.380006 68.13C0.380006 69.25 0.289979 69.26 0.289979 70.39C0.289979 71.52 0.289979 71.52 0.289979 72.65C0.289979 73.78 0.190004 73.78 0.190004 74.91C0.190004 76.04 0.479982 76.04 0.479982 77.17C0.479982 78.3 0.289979 78.3 0.289979 79.42C0.289979 80.54 0.479982 80.55 0.479982 81.68C0.479982 82.81 0.479982 82.81 0.479982 83.94V86.21C0.479982 87.34 0.179994 87.34 0.179994 88.47C0.179994 89.6 0.469972 89.6 0.469972 90.73C0.469972 91.86 0.419984 91.85 0.419984 92.98C0.419984 94.11 0.359986 94.11 0.359986 95.24C0.359986 96.37 0.609986 96.37 0.609986 97.5C0.609986 98.63 0.119996 98.63 0.119996 99.76C0.119996 100.89 0.589967 100.89 0.589967 102.02C0.589967 103.15 0.349977 103.15 0.349977 104.28C0.349977 105.41 0.469972 105.41 0.469972 106.54C0.469972 107.67 0.119996 107.67 0.119996 108.8C0.119996 109.93 0.440004 109.93 0.440004 111.06C0.440004 112.19 0.440004 112.19 0.440004 113.32C0.440004 114.45 0.440004 114.45 0.440004 115.57C0.440004 116.69 0.260011 116.7 0.260011 117.83C0.260011 118.96 0.140016 118.96 0.140016 120.08C0.140016 121.2 0.140016 121.21 0.140016 122.34C0.140016 123.47 0.279969 123.47 0.279969 124.6C0.279969 125.73 0.479982 125.73 0.479982 126.86C0.479982 127.99 0.0999767 127.99 0.0999767 129.12C0.0999767 130.25 0.459962 130.25 0.459962 131.38C0.459962 132.51 0.140016 132.51 0.140016 133.64C0.140016 134.77 0.529969 134.77 0.529969 135.9C0.529969 137.03 0.459962 137.03 0.459962 138.16C0.459962 139.29 0.209962 139.29 0.209962 140.42C0.209962 141.55 0.130006 141.55 0.130006 142.68C0.130006 143.81 0.549989 143.82 0.549989 144.95C0.549989 146.08 0.419984 146.08 0.419984 147.21C0.419984 148.34 0.580018 148.34 0.580018 149.47C0.580018 150.6 0.349977 150.6 0.349977 151.73C0.349977 152.86 0.349977 152.86 0.349977 153.99C0.349977 155.12 0.159974 155.13 0.159974 156.26C0.159974 157.39 0.479982 157.39 0.479982 158.52C0.479982 159.65 0.539979 159.66 0.539979 160.79C0.539979 161.92 0.419984 161.93 0.419984 163.06C0.3976 163.277 0.426091 163.496 0.503175 163.699C0.580259 163.903 0.703808 164.086 0.864015 164.234C1.02422 164.381 1.21667 164.489 1.42603 164.549C1.63538 164.61 1.8559 164.62 2.07001 164.58C2.84088 164.434 3.62603 164.377 4.40997 164.41C5.20273 164.361 5.99847 164.408 6.77997 164.55C7.51796 164.851 8.22194 165.23 8.88001 165.68C9.60479 165.991 10.2952 166.376 10.94 166.83C11.4878 167.401 11.9831 168.02 12.42 168.68C12.9944 169.198 13.6172 169.661 14.28 170.06C14.8001 170.629 15.3726 171.148 15.99 171.61C16.6804 171.948 17.4043 172.213 18.15 172.4C18.9023 172.532 19.6672 172.579 20.43 172.54C21.1766 172.692 21.9385 172.756 22.7 172.73C23.4766 172.675 24.2446 172.534 24.99 172.31C25.66 172.04 26.07 171.31 26.61 170.93C27.15 170.55 28.01 170.36 28.42 169.84C28.83 169.32 28.79 168.44 29.03 167.84C29.3589 167.237 29.579 166.58 29.68 165.9C29.68 165.13 29.3 165.06 29.63 164.36C30.3631 164.302 31.1003 164.318 31.83 164.41C32.528 164.677 33.1979 165.012 33.83 165.41C34.4833 165.713 35.1062 166.078 35.69 166.5C36.5455 167.116 37.3156 167.842 37.98 168.66C38.5545 169.17 39.1699 169.631 39.82 170.04C40.3921 170.525 41.0119 170.95 41.67 171.31C42.2952 171.734 42.9661 172.086 43.67 172.36C44.4089 172.521 45.1637 172.599 45.92 172.59C46.6642 172.675 47.4157 172.675 48.16 172.59C48.9314 172.552 49.6962 172.428 50.44 172.22C51.11 171.95 51.54 171.32 52.08 170.94C52.6942 170.621 53.2626 170.221 53.77 169.75C54.1505 169.173 54.4344 168.538 54.61 167.87C54.8786 167.236 55.031 166.558 55.06 165.87C55.06 164.76 55.32 164.76 55.32 163.64C55.32 162.52 55.05 162.52 55.05 161.41C55.05 160.3 54.92 160.29 54.92 159.18C54.92 158.07 55.05 158.06 55.05 156.94C55.05 155.82 54.9 155.82 54.9 154.71C54.9 153.6 55.15 153.59 55.15 152.47C55.15 151.35 54.9 151.36 54.9 150.24C54.9 149.12 54.9 149.13 54.9 148.01V145.78C54.9 144.66 55.29 144.66 55.29 143.55C55.29 142.44 55.1299 142.43 55.1299 141.32C55.1299 140.21 55.1299 140.2 55.1299 139.09C55.1299 137.98 55.28 137.97 55.28 136.86C55.28 135.75 55.0099 135.74 55.0099 134.63C55.0099 133.52 55.2499 133.51 55.2499 132.4C55.2499 131.29 55.06 131.28 55.06 130.16C55.06 129.04 55.06 129.04 55.06 127.93C55.06 126.82 54.81 126.81 54.81 125.69C54.81 124.57 54.91 124.57 54.91 123.46C54.91 122.35 55.1299 122.34 55.1299 121.22C55.1299 120.1 55.07 120.11 55.07 118.99C55.07 117.87 55.21 117.88 55.21 116.76C55.21 115.64 54.95 115.64 54.95 114.53C54.95 113.42 54.82 113.41 54.82 112.3C54.82 111.19 54.94 111.18 54.94 110.06C54.94 108.94 54.82 108.95 54.82 107.83C54.82 106.71 55.17 106.71 55.17 105.59C55.17 104.47 54.93 104.47 54.93 103.36C54.93 102.25 55.1199 102.24 55.1199 101.12C55.1199 100 55.19 100.01 55.19 98.89C55.19 97.77 55.05 97.77 55.05 96.66C55.05 95.55 54.89 95.54 54.89 94.42C54.89 93.3 54.89 93.31 54.89 92.19C54.89 91.07 55.1 91.07 55.1 89.95C55.1 88.83 55.16 88.83 55.16 87.72C55.16 86.61 55.32 86.6 55.32 85.48C55.32 84.36 55.11 84.36 55.11 83.25C55.11 82.14 55.18 82.13 55.18 81.01C55.18 79.89 54.89 79.9 54.89 78.78C54.89 77.66 54.89 77.66 54.89 76.54C54.89 75.42 55.28 75.42 55.28 74.31C55.28 73.2 55.03 73.19 55.03 72.07C55.03 70.95 54.92 70.95 54.92 69.84C54.92 68.73 55.33 68.72 55.33 67.6C55.33 66.48 55.18 66.48 55.18 65.36C55.18 64.24 54.95 64.24 54.95 63.13C54.95 62.02 55.18 62.01 55.18 60.89C55.18 59.77 55.18 59.77 55.18 58.65C55.18 57.53 55.18 57.54 55.18 56.42C55.18 55.3 55.2399 55.3 55.2399 54.18C55.2399 53.06 55.03 53.06 55.03 51.94C55.03 50.82 55.1299 50.83 55.1299 49.71C55.1299 48.59 55.19 48.59 55.19 47.47C55.19 46.35 55.19 46.36 55.19 45.24C55.19 44.12 54.9 44.13 54.9 43.01C54.9 41.89 54.96 41.89 54.96 40.77C54.96 39.65 55.28 39.65 55.28 38.54C55.28 37.43 55.07 37.42 55.07 36.3C55.07 35.18 54.96 35.18 54.96 34.07C54.96 32.96 55.05 32.95 55.05 31.83C55.05 30.71 54.97 30.71 54.97 29.59C54.97 28.47 55.06 28.47 55.06 27.35C55.06 26.23 55.06 26.23 55.06 25.12C55.06 24.01 55.22 24 55.22 22.88C55.22 21.76 54.93 21.76 54.93 20.64C54.93 19.52 55.19 19.52 55.19 18.4C55.19 17.28 55.29 17.28 55.29 16.16C55.29 15.04 55.29 15.04 55.29 13.92C55.29 12.8 55.0099 12.81 55.0099 11.69C55.0099 10.57 55.29 10.57 55.29 9.44998C55.29 8.32998 54.92 8.31998 54.92 7.19998C54.92 6.07998 55.2 6.07999 55.2 4.95999C55.2 3.83999 55.06 3.84 55.06 2.72C55.06 1.6 55.81 1.30999 55.06 0.519989C54.31 -0.270011 53.97 0.519989 52.83 0.519989C51.69 0.519989 51.69 0.669983 50.55 0.669983C49.41 0.669983 49.41 0.459992 48.27 0.459992C47.13 0.459992 47.1299 0.319977 45.9999 0.319977C44.8699 0.319977 44.86 0.479981 43.72 0.479981C42.58 0.479981 42.58 0.229981 41.44 0.229981C40.3 0.229981 40.3 0.729981 39.16 0.729981H36.8799C35.7399 0.729981 35.74 0.529999 34.6 0.529999C33.46 0.529999 33.46 0.269989 32.32 0.269989C31.18 0.269989 31.18 0.269989 30.04 0.269989C28.9 0.269989 28.9 0.679993 27.76 0.679993C26.62 0.679993 26.62 0.289978 25.48 0.289978C24.34 0.289978 24.34 0.569977 23.2 0.569977C22.06 0.569977 22.06 0.350006 20.92 0.350006C19.78 0.350006 19.78 0.440003 18.63 0.440003C17.48 0.440003 17.49 0.25 16.35 0.25C15.21 0.25 15.21 0.380005 14.07 0.380005C12.93 0.380005 12.93 0.630005 11.79 0.630005C10.65 0.630005 10.65 0.399994 9.51001 0.399994C8.37001 0.399994 8.36997 0.399994 7.21997 0.399994C6.06997 0.399994 6.08 0.160004 4.94 0.160004C4.19332 0.259707 3.43669 0.259707 2.69 0.160004C1.5 0.0500037 1.26001 -0.180005 0.450013 0.619995Z" fill="#8E7167"/>
<path d="M29.46 0.350003C28.71 1.18 29.68 1.57998 29.68 2.69998C29.68 3.81998 29.68 3.82 29.68 4.94C29.68 6.06 29.5 6.07 29.5 7.19C29.5 8.31 29.84 8.30999 29.84 9.42999C29.84 10.55 29.75 10.55 29.75 11.67C29.75 12.79 29.65 12.8 29.65 13.92C29.65 15.04 29.65 15.04 29.65 16.16C29.65 17.28 29.33 17.28 29.33 18.4C29.33 19.52 29.41 19.52 29.41 20.64C29.41 21.76 29.41 21.76 29.41 22.88C29.41 24 29.31 23.99 29.31 25.11C29.31 26.23 29.69 26.23 29.69 27.35C29.69 28.47 29.4 28.47 29.4 29.6C29.4 30.73 29.62 30.72 29.62 31.84C29.62 32.96 29.31 32.96 29.31 34.08C29.31 35.2 29.49 35.2 29.49 36.32C29.49 37.44 29.63 37.45 29.63 38.57C29.63 39.69 29.38 39.69 29.38 40.81C29.38 41.93 29.45 41.93 29.45 43.05C29.45 44.17 29.36 44.18 29.36 45.3C29.36 46.42 29.36 46.42 29.36 47.54C29.36 48.66 29.36 48.66 29.36 49.78C29.36 50.9 29.6 50.9 29.6 52.02C29.6 53.14 29.43 53.14 29.43 54.26C29.43 55.38 29.66 55.38 29.66 56.51C29.66 57.64 29.5 57.63 29.5 58.75C29.5 59.87 29.38 59.87 29.38 61C29.38 62.13 29.49 62.12 29.49 63.24C29.49 64.36 29.65 64.36 29.65 65.48C29.65 66.6 29.4 66.6 29.4 67.72C29.4 68.84 29.65 68.85 29.65 69.97C29.65 71.09 29.44 71.09 29.44 72.21C29.44 73.33 29.63 73.33 29.63 74.46C29.63 75.59 29.48 75.58 29.48 76.7C29.48 77.82 29.48 77.82 29.48 78.95C29.48 80.08 29.48 80.07 29.48 81.19C29.48 82.31 29.69 82.31 29.69 83.43C29.69 84.55 29.35 84.56 29.35 85.68C29.35 86.8 29.46 86.8 29.46 87.92C29.46 89.04 29.65 89.05 29.65 90.17C29.65 91.29 29.81 91.29 29.81 92.41C29.81 93.53 29.53 93.54 29.53 94.66V96.9C29.53 98.03 29.63 98.03 29.63 99.15C29.63 100.27 29.76 100.27 29.76 101.4C29.76 102.53 29.45 102.52 29.45 103.64C29.45 104.76 29.54 104.76 29.54 105.89C29.54 107.02 29.54 107.01 29.54 108.13C29.54 109.25 29.4 109.25 29.4 110.38C29.4 111.51 29.73 111.5 29.73 112.62C29.73 113.74 29.62 113.75 29.62 114.87C29.62 115.99 29.62 115.99 29.62 117.11C29.62 118.23 29.62 118.23 29.62 119.35C29.62 120.47 29.7 120.47 29.7 121.6C29.7 122.73 29.7 122.72 29.7 123.84C29.7 124.96 29.43 124.96 29.43 126.09C29.43 127.22 29.75 127.21 29.75 128.33C29.75 129.45 29.87 129.45 29.87 130.58C29.87 131.71 29.87 131.7 29.87 132.82C29.87 133.94 29.42 133.95 29.42 135.07C29.42 136.19 29.42 136.19 29.42 137.32C29.42 138.45 29.42 138.44 29.42 139.56C29.42 140.68 29.61 140.69 29.61 141.81C29.61 142.93 29.72 142.94 29.72 144.06C29.72 145.18 29.49 145.18 29.49 146.31C29.49 147.44 29.49 147.43 29.49 148.56C29.49 149.69 29.55 149.68 29.55 150.8C29.55 151.92 29.77 151.93 29.77 153.05C29.77 154.17 29.6 154.18 29.6 155.3C29.6 156.42 29.6 156.43 29.6 157.55C29.6 158.67 29.79 158.68 29.79 159.8C29.79 160.92 29.49 160.93 29.49 162.06C29.3952 162.808 29.4739 163.567 29.72 164.28C30.4017 164.369 31.072 164.53 31.72 164.76C32.4075 164.906 33.0778 165.124 33.72 165.41C34.4722 165.697 35.1982 166.048 35.89 166.46C36.24 165.4 35.43 165.27 35.43 164.15C35.43 163.03 35.76 163.03 35.76 161.91C35.76 160.79 35.55 160.79 35.55 159.67C35.55 158.55 35.7201 158.55 35.7201 157.43C35.7201 156.31 35.7201 156.3 35.7201 155.18C35.7201 154.06 35.89 154.06 35.89 152.94C35.89 151.82 35.6001 151.82 35.6001 150.71C35.6001 149.6 35.81 149.59 35.81 148.47C35.81 147.35 35.6101 147.35 35.6101 146.23C35.6101 145.11 35.81 145.11 35.81 143.99C35.81 142.87 35.41 142.87 35.41 141.76C35.41 140.65 35.41 140.64 35.41 139.52C35.41 138.4 35.7399 138.4 35.7399 137.28C35.7399 136.16 35.7399 136.16 35.7399 135.04C35.7399 133.92 35.54 133.92 35.54 132.8C35.54 131.68 35.88 131.68 35.88 130.56C35.88 129.44 35.88 129.44 35.88 128.32C35.88 127.2 35.59 127.2 35.59 126.08C35.59 124.96 35.84 124.96 35.84 123.84C35.84 122.72 35.62 122.72 35.62 121.6C35.62 120.48 35.91 120.48 35.91 119.36C35.91 118.24 35.4801 118.24 35.4801 117.12C35.4801 116 35.4801 116 35.4801 114.88C35.4801 113.76 35.92 113.76 35.92 112.64C35.92 111.52 35.92 111.52 35.92 110.4C35.92 109.28 35.4801 109.28 35.4801 108.16C35.4801 107.04 35.69 107.04 35.69 105.91C35.69 104.78 35.83 104.79 35.83 103.67C35.83 102.55 35.83 102.55 35.83 101.43C35.83 100.31 35.54 100.31 35.54 99.19C35.54 98.07 35.62 98.07 35.62 96.95C35.62 95.83 35.53 95.83 35.53 94.71C35.53 93.59 35.42 93.59 35.42 92.47C35.42 91.35 35.52 91.35 35.52 90.23C35.52 89.11 35.91 89.1 35.91 87.98C35.91 86.86 35.8501 86.86 35.8501 85.74C35.8501 84.62 35.76 84.62 35.76 83.5C35.76 82.38 35.67 82.38 35.67 81.26C35.67 80.14 35.7301 80.14 35.7301 79.02C35.7301 77.9 35.64 77.89 35.64 76.77C35.64 75.65 35.42 75.65 35.42 74.53C35.42 73.41 35.9 73.41 35.9 72.29C35.9 71.17 35.9 71.17 35.9 70.04C35.9 68.91 35.81 68.92 35.81 67.8C35.81 66.68 35.57 66.68 35.57 65.56C35.57 64.44 35.77 64.44 35.77 63.31C35.77 62.18 35.77 62.19 35.77 61.07C35.77 59.95 35.77 59.95 35.77 58.83C35.77 57.71 35.77 57.71 35.77 56.58C35.77 55.45 35.84 55.46 35.84 54.34C35.84 53.22 35.78 53.22 35.78 52.1C35.78 50.98 35.65 50.98 35.65 49.85C35.65 48.72 35.7301 48.73 35.7301 47.61C35.7301 46.49 35.3601 46.49 35.3601 45.37C35.3601 44.25 35.8 44.25 35.8 43.13C35.8 42.01 35.44 42.01 35.44 40.89C35.44 39.77 35.77 39.77 35.77 38.65C35.77 37.53 35.46 37.53 35.46 36.41C35.46 35.29 35.84 35.28 35.84 34.16C35.84 33.04 35.52 33.04 35.52 31.92C35.52 30.8 35.3601 30.8 35.3601 29.67C35.3601 28.54 35.4801 28.55 35.4801 27.43C35.4801 26.31 35.3601 26.31 35.3601 25.18C35.3601 24.05 35.46 24.06 35.46 22.94C35.46 21.82 35.78 21.81 35.78 20.69C35.78 19.57 35.78 19.57 35.78 18.45C35.78 17.33 35.78 17.32 35.78 16.2C35.78 15.08 35.38 15.08 35.38 13.96C35.38 12.84 35.46 12.83 35.46 11.71C35.46 10.59 35.54 10.59 35.54 9.45999C35.54 8.32999 35.38 8.34 35.38 7.22C35.38 6.1 35.38 6.09 35.38 4.97C35.38 3.85 35.58 3.83999 35.58 2.70999C35.58 1.57999 36.2499 1.36 35.4899 0.529995C34.7299 -0.300005 34.55 0.229977 33.54 0.229977C32.53 0.229977 32.47 0.769986 31.49 0.519986C30.51 0.269986 30.14 -0.399997 29.46 0.350003Z" fill="#7F5C51"/>
<path d="M35.87 119.05C35.8561 118.832 35.8124 118.616 35.74 118.41C35.7358 118.63 35.7802 118.849 35.87 119.05Z" fill="#FFAA93"/>
<path d="M45.21 48.0099C45.48 49.2299 45.51 49.22 45.78 50.44C46.05 51.66 45.5999 51.9299 46.3799 52.8999C47.1599 53.8699 47.6199 53.2899 48.7499 53.7999C49.8799 54.3099 49.84 54.43 50.97 54.94C51.1677 55.0123 51.3407 55.1393 51.4689 55.3063C51.5971 55.4732 51.6753 55.6732 51.6941 55.8829C51.713 56.0925 51.6718 56.3032 51.5755 56.4904C51.4791 56.6776 51.3316 56.8335 51.1499 56.94L48.9999 58.2099C47.9299 58.8399 47.4399 58.3399 46.7699 59.3899C46.0999 60.4399 46.71 60.6599 46.57 61.8999C46.43 63.1399 46.2799 63.1199 46.1499 64.3599C46.1594 64.562 46.1074 64.7622 46.0008 64.934C45.8942 65.1059 45.738 65.2414 45.5528 65.3226C45.3676 65.4039 45.162 65.4271 44.9633 65.3891C44.7646 65.3511 44.5822 65.2538 44.44 65.1099C43.51 64.2799 43.4399 64.3699 42.4999 63.5499C41.5599 62.7299 41.9599 61.97 40.7599 61.66C39.5599 61.35 39.4699 61.8999 38.2499 62.1499C37.0299 62.3999 37.04 62.4399 35.82 62.6999C35.6213 62.7503 35.4126 62.7461 35.2161 62.6879C35.0196 62.6296 34.8424 62.5195 34.7032 62.369C34.564 62.2186 34.4679 62.0334 34.4251 61.8329C34.3823 61.6324 34.3943 61.4241 34.4599 61.2299C34.9599 60.0899 35.24 60.2299 35.73 59.0699C36.22 57.9099 36.63 57.9699 36.56 56.7299C36.49 55.4899 35.9999 55.6199 35.3799 54.5399C34.7599 53.4599 34.62 53.5399 34 52.4599C33.908 52.2755 33.8678 52.0696 33.8836 51.8641C33.8994 51.6586 33.9705 51.4613 34.0895 51.293C34.2085 51.1248 34.3709 50.9919 34.5594 50.9086C34.7479 50.8253 34.9554 50.7947 35.16 50.8199L37.6399 51.0699C38.8799 51.1899 38.91 51.5199 40.07 51.0699C41.23 50.6199 40.88 50.2199 41.71 49.2999C42.54 48.3799 42.71 48.52 43.55 47.6C43.6571 47.4501 43.8068 47.3358 43.9795 47.2719C44.1523 47.2081 44.3403 47.1975 44.5191 47.2417C44.6979 47.2859 44.8594 47.3827 44.9826 47.5197C45.1058 47.6566 45.185 47.8274 45.21 48.0099Z" fill="#7F5C51"/>
<path d="M11.03 118.06C12.28 118.06 12.28 117.92 13.53 117.96C14.78 118 14.91 118.79 16.04 118.27C17.17 117.75 16.69 117.15 17.47 116.18C18.25 115.21 18.47 115.37 19.22 114.4C19.3355 114.234 19.4952 114.103 19.6809 114.022C19.8666 113.942 20.0711 113.914 20.2715 113.943C20.4719 113.972 20.6603 114.057 20.8154 114.187C20.9706 114.317 21.0864 114.488 21.15 114.68C21.49 115.88 21.41 115.9 21.75 117.1C22.09 118.3 21.51 118.65 22.35 119.57C23.19 120.49 23.65 119.79 24.81 120.23C25.97 120.67 25.91 120.85 27.08 121.29C27.276 121.342 27.4513 121.453 27.5829 121.608C27.7144 121.762 27.796 121.953 27.8166 122.155C27.8372 122.356 27.7959 122.56 27.6983 122.737C27.6007 122.915 27.4513 123.059 27.27 123.15C26.27 123.85 26.18 123.77 25.15 124.46C24.12 125.15 23.76 124.89 23.15 125.98C22.54 127.07 23.15 127.24 23.1 128.49C23.05 129.74 23.1 129.73 23.04 130.98C23.0169 131.19 22.9392 131.391 22.8144 131.562C22.6897 131.733 22.5224 131.868 22.3292 131.954C22.1359 132.04 21.9235 132.074 21.7131 132.052C21.5027 132.03 21.3016 131.954 21.13 131.83C20.13 131.06 20.13 131.04 19.19 130.27C18.25 129.5 18.45 128.99 17.19 128.74C15.93 128.49 15.99 129.05 14.79 129.37C13.59 129.69 13.58 129.68 12.38 130.01C12.1852 130.066 11.9786 130.068 11.7831 130.014C11.5876 129.96 11.4107 129.853 11.2721 129.705C11.1334 129.557 11.0384 129.374 10.9974 129.175C10.9565 128.977 10.9712 128.771 11.04 128.58C11.47 127.41 11.58 127.46 12.04 126.29C12.5 125.12 12.83 125.16 12.69 123.92C12.55 122.68 12.22 122.79 11.54 121.75C10.86 120.71 10.61 120.87 9.92999 119.83C9.82934 119.644 9.77969 119.435 9.78607 119.223C9.79245 119.012 9.85462 118.806 9.9663 118.626C10.078 118.446 10.2352 118.299 10.422 118.2C10.6088 118.1 10.8185 118.052 11.03 118.06Z" fill="#A58983"/>
<path d="M527.55 0.700024C528.36 1.49002 527.84 1.65004 527.84 2.78004C527.84 3.91004 527.75 3.91002 527.75 5.04002C527.75 6.17002 527.75 6.17003 527.75 7.30003C527.75 8.43003 528 8.42003 528 9.55003C528 10.68 527.95 10.68 527.95 11.81C527.95 12.94 527.95 12.93 527.95 14.06C527.95 15.19 527.75 15.19 527.75 16.31C527.75 17.43 527.75 17.44 527.75 18.57C527.75 19.7 527.91 19.69 527.91 20.82C527.91 21.95 527.58 21.95 527.58 23.07C527.58 24.19 528.04 24.2 528.04 25.33C528.04 26.46 527.95 26.45 527.95 27.58C527.95 28.71 527.95 28.71 527.95 29.84C527.95 30.97 528.03 30.96 528.03 32.09C528.03 33.22 527.62 33.22 527.62 34.35C527.62 35.48 527.98 35.48 527.98 36.61C527.98 37.74 527.67 37.74 527.67 38.86C527.67 39.98 528.08 39.99 528.08 41.12C528.08 42.25 528.08 42.25 528.08 43.38C528.08 44.51 528 44.5 528 45.63C528 46.76 528 46.76 528 47.88C528 49 527.92 49.01 527.92 50.14C527.92 51.27 527.92 51.27 527.92 52.4C527.92 53.53 527.81 53.53 527.81 54.65C527.81 55.77 527.89 55.78 527.89 56.91C527.89 58.04 527.89 58.04 527.89 59.17C527.89 60.3 527.84 60.3 527.84 61.43C527.84 62.56 527.75 62.56 527.75 63.68C527.75 64.8 528.15 64.81 528.15 65.94C528.15 67.07 527.96 67.07 527.96 68.2C527.96 69.33 527.89 69.33 527.89 70.45C527.89 71.57 527.78 71.58 527.78 72.71C527.78 73.84 527.64 73.84 527.64 74.97C527.64 76.1 528.02 76.1 528.02 77.23V79.49C528.02 80.62 528.02 80.62 528.02 81.74C528.02 82.86 527.92 82.87 527.92 84C527.92 85.13 527.92 85.13 527.92 86.26C527.92 87.39 528.06 87.39 528.06 88.52C528.06 89.65 527.71 89.65 527.71 90.78C527.71 91.91 527.71 91.91 527.71 93.04C527.71 94.17 528.2 94.17 528.2 95.3C528.2 96.43 527.77 96.43 527.77 97.56C527.77 98.69 527.77 98.68 527.77 99.81C527.77 100.94 527.95 100.94 527.95 102.07C527.95 103.2 528.17 103.2 528.17 104.33C528.17 105.46 527.91 105.46 527.91 106.59C527.91 107.72 528.13 107.72 528.13 108.85C528.13 109.98 528.07 109.98 528.07 111.11C528.07 112.24 527.71 112.24 527.71 113.37C527.71 114.5 527.79 114.5 527.79 115.63C527.79 116.76 528.14 116.75 528.14 117.88C528.14 119.01 528.01 119.01 528.01 120.14C528.01 121.27 527.9 121.27 527.9 122.4V124.66C527.9 125.78 528.06 125.78 528.06 126.91C528.06 128.04 527.79 128.04 527.79 129.17C527.79 130.3 527.86 130.3 527.86 131.43C527.86 132.56 527.86 132.56 527.86 133.69C527.86 134.82 528.05 134.82 528.05 135.95C528.05 137.08 528.13 137.08 528.13 138.21C528.13 139.34 527.77 139.35 527.77 140.48C527.77 141.61 527.96 141.61 527.96 142.74C527.96 143.87 527.85 143.87 527.85 145V147.26C527.85 148.39 527.67 148.39 527.67 149.52C527.67 150.65 528.13 150.65 528.13 151.78C528.13 152.91 528.13 152.91 528.13 154.05C528.13 155.19 527.89 155.18 527.89 156.31C527.89 157.44 527.73 157.44 527.73 158.58C527.73 159.72 527.66 159.71 527.66 160.84C527.66 161.97 528.11 161.98 528.11 163.11C528.097 163.354 528.034 163.593 527.924 163.811C527.814 164.03 527.661 164.224 527.473 164.38C527.286 164.537 527.068 164.653 526.833 164.722C526.599 164.791 526.353 164.811 526.11 164.78C525.36 164.54 524.585 164.385 523.8 164.32C523.004 164.333 522.212 164.437 521.44 164.63C520.679 164.86 519.944 165.172 519.25 165.56C518.577 165.977 517.948 166.459 517.37 167C516.722 167.454 516.119 167.97 515.57 168.54C515.127 169.167 514.632 169.756 514.09 170.3C513.527 170.831 512.914 171.307 512.26 171.72C511.546 172.025 510.802 172.253 510.04 172.4C509.31 172.614 508.559 172.745 507.8 172.79C507.039 172.88 506.271 172.88 505.51 172.79C504.743 172.697 503.988 172.519 503.26 172.26C502.59 171.99 502.17 171.34 501.63 170.96C501.021 170.639 500.459 170.235 499.96 169.76C499.53 169.212 499.192 168.597 498.96 167.94C498.727 167.299 498.608 166.622 498.61 165.94C498.61 165.17 498.92 165.08 498.61 164.38C497.868 164.34 497.123 164.38 496.39 164.5C495.698 164.703 495.028 164.974 494.39 165.31C493.721 165.61 493.082 165.971 492.48 166.39C491.585 166.981 490.765 167.68 490.04 168.47C489.559 169.047 489.031 169.582 488.46 170.07C487.936 170.624 487.36 171.126 486.74 171.57C486.057 171.906 485.339 172.168 484.6 172.35C483.87 172.531 483.122 172.629 482.37 172.64C481.624 172.685 480.876 172.645 480.14 172.52C479.395 172.424 478.664 172.243 477.96 171.98C477.269 171.814 476.598 171.572 475.96 171.26C475.404 170.836 474.91 170.338 474.49 169.78C474.061 169.234 473.724 168.623 473.49 167.97C473.261 167.328 473.146 166.651 473.15 165.97C473.15 164.86 473.15 164.86 473.15 163.74C473.15 162.62 472.83 162.63 472.83 161.51C472.83 160.39 472.83 160.39 472.83 159.28C472.83 158.17 473.16 158.16 473.16 157.04C473.16 155.92 473.06 155.93 473.06 154.81V152.58C473.06 151.46 473.25 151.46 473.25 150.34C473.25 149.22 472.97 149.23 472.97 148.11C472.97 146.99 473.31 147 473.31 145.88C473.31 144.76 473.08 144.77 473.08 143.65C473.08 142.53 472.88 142.54 472.88 141.42C472.88 140.3 473.29 140.31 473.29 139.19C473.29 138.07 473.29 138.08 473.29 136.96C473.29 135.84 473.12 135.85 473.12 134.73C473.12 133.61 473.12 133.61 473.12 132.5C473.12 131.39 472.84 131.38 472.84 130.26C472.84 129.14 472.96 129.15 472.96 128.03C472.96 126.91 472.96 126.91 472.96 125.79C472.96 124.67 472.96 124.68 472.96 123.56C472.96 122.44 472.96 122.44 472.96 121.33C472.96 120.22 473.21 120.21 473.21 119.1C473.21 117.99 472.87 117.98 472.87 116.86C472.87 115.74 472.94 115.75 472.94 114.63C472.94 113.51 473.26 113.52 473.26 112.4C473.26 111.28 472.94 111.28 472.94 110.17C472.94 109.06 472.94 109.05 472.94 107.93C472.94 106.81 473.22 106.81 473.22 105.69C473.22 104.57 473.22 104.58 473.22 103.46C473.22 102.34 473.16 102.34 473.16 101.23C473.16 100.12 472.9 100.11 472.9 98.99C472.9 97.87 473 97.88 473 96.76C473 95.64 473 95.64 473 94.53C473 93.42 473 93.41 473 92.29C473 91.17 473.07 91.17 473.07 90.06C473.07 88.95 473.22 88.94 473.22 87.82C473.22 86.7 472.85 86.7 472.85 85.58C472.85 84.46 473.3 84.47 473.3 83.35C473.3 82.23 472.94 82.23 472.94 81.12C472.94 80.01 473.08 80 473.08 78.88C473.08 77.76 473.27 77.76 473.27 76.64C473.27 75.52 473.15 75.53 473.15 74.41C473.15 73.29 473.31 73.29 473.31 72.17C473.31 71.05 473.07 71.06 473.07 69.94V67.7C473.07 66.58 472.98 66.58 472.98 65.47C472.98 64.36 473.25 64.35 473.25 63.23C473.25 62.11 472.9 62.11 472.9 60.99C472.9 59.87 472.9 59.88 472.9 58.76C472.9 57.64 472.9 57.64 472.9 56.52C472.9 55.4 473.28 55.4 473.28 54.28C473.28 53.16 473.19 53.17 473.19 52.05C473.19 50.93 473.11 50.93 473.11 49.81C473.11 48.69 473.34 48.69 473.34 47.58C473.34 46.47 473.28 46.46 473.28 45.35C473.28 44.24 473.1 44.23 473.1 43.11C473.1 41.99 473.1 41.99 473.1 40.88C473.1 39.77 473.35 39.76 473.35 38.64C473.35 37.52 473.35 37.52 473.35 36.41C473.35 35.3 473.24 35.29 473.24 34.17C473.24 33.05 473.17 33.05 473.17 31.93C473.17 30.81 472.99 30.81 472.99 29.69C472.99 28.57 472.99 28.58 472.99 27.46C472.99 26.34 472.99 26.34 472.99 25.22C472.99 24.1 472.99 24.1 472.99 22.98C472.99 21.86 473.28 21.86 473.28 20.74C473.28 19.62 472.94 19.62 472.94 18.5C472.94 17.38 473.21 17.38 473.21 16.26C473.21 15.14 473.21 15.15 473.21 14.03C473.21 12.91 473.21 12.91 473.21 11.79C473.21 10.67 473 10.67 473 9.55003C473 8.43003 473.23 8.43004 473.23 7.31004C473.23 6.19004 473.13 6.19004 473.13 5.06004C473.13 3.93004 473.23 3.94002 473.23 2.82002C473.23 1.70002 472.35 1.41004 473.15 0.620037C473.95 -0.169963 474.25 0.360027 475.39 0.360027C476.53 0.360027 476.53 0.700024 477.67 0.700024C478.81 0.700024 478.8 0.590038 479.94 0.590038C481.08 0.590038 481.08 0.460033 482.22 0.460033C483.36 0.460033 483.36 0.340038 484.49 0.340038C485.62 0.340038 485.63 0.520031 486.77 0.520031C487.91 0.520031 487.91 0.730022 489.05 0.730022C490.19 0.730022 490.19 0.330028 491.33 0.330028C492.47 0.330028 492.47 0.610027 493.61 0.610027H495.8C496.94 0.610027 496.94 0.700024 498.08 0.700024H500.36C501.5 0.700024 501.5 0.55003 502.64 0.55003C503.78 0.55003 503.78 0.760021 504.93 0.760021C506.08 0.760021 506.07 0.760021 507.21 0.760021C508.35 0.760021 508.35 0.660045 509.49 0.660045C510.63 0.660045 510.63 0.770031 511.77 0.770031C512.91 0.770031 512.91 0.560039 514.05 0.560039C515.19 0.560039 515.19 0.870037 516.33 0.870037C517.47 0.870037 517.47 0.410045 518.62 0.410045C519.77 0.410045 519.76 0.810039 520.9 0.810039C522.04 0.810039 522.04 0.520031 523.19 0.520031C524.34 0.520031 524.38 1.01004 525.51 0.810039C526.64 0.610039 526.74 -0.109976 527.55 0.700024Z" fill="#8E7167"/>
<path d="M498.54 0.419887C499.3 1.24989 498.3 1.63989 498.3 2.76989C498.3 3.89989 498.2 3.88988 498.2 5.00988C498.2 6.12988 498.28 6.1299 498.28 7.2499C498.28 8.3699 498.49 8.3699 498.49 9.4999C498.49 10.6299 498.49 10.6199 498.49 11.7399C498.49 12.8599 498.55 12.8599 498.55 13.9799C498.55 15.0999 498.4 15.0999 498.4 16.2199V18.4599C498.4 19.5799 498.48 19.5799 498.48 20.6999C498.48 21.8199 498.55 21.8199 498.55 22.9399C498.55 24.0599 498.42 24.0599 498.42 25.1799C498.42 26.2999 498.29 26.2999 498.29 27.4199C498.29 28.5399 498.51 28.5399 498.51 29.6599C498.51 30.7799 498.4 30.7799 498.4 31.8999C498.4 33.0199 498.28 33.0199 498.28 34.1399C498.28 35.2599 498.41 35.2699 498.41 36.3899C498.41 37.5099 498.51 37.5099 498.51 38.6299C498.51 39.7499 498.31 39.7499 498.31 40.8799C498.31 42.0099 498.31 41.9999 498.31 43.1199C498.31 44.2399 498.43 44.2399 498.43 45.3599C498.43 46.4799 498.43 46.4799 498.43 47.5999C498.43 48.7199 498.32 48.7199 498.32 49.8399C498.32 50.9599 498.66 50.9599 498.66 52.0799C498.66 53.1999 498.39 53.1999 498.39 54.3299C498.39 55.4599 498.57 55.4499 498.57 56.5699C498.57 57.6899 498.44 57.6899 498.44 58.8199C498.44 59.9499 498.35 59.9399 498.35 61.0599C498.35 62.1799 498.25 62.1799 498.25 63.2999C498.25 64.4199 498.41 64.4199 498.41 65.5499C498.41 66.6799 498.64 66.6699 498.64 67.7899C498.64 68.9099 498.7 68.9099 498.7 70.0299C498.7 71.1499 498.43 71.1499 498.43 72.2699C498.43 73.3899 498.3 73.3999 498.3 74.5199C498.3 75.6399 498.64 75.6399 498.64 76.7699C498.64 77.8999 498.64 77.8899 498.64 79.0099C498.64 80.1299 498.33 80.1299 498.33 81.2499C498.33 82.3699 498.4 82.3699 498.4 83.4999V85.7399C498.4 86.8599 498.6 86.8599 498.6 87.9899C498.6 89.1199 498.74 89.1099 498.74 90.2299C498.74 91.3499 498.37 91.3499 498.37 92.4799C498.37 93.6099 498.37 93.5999 498.37 94.7199C498.37 95.8399 498.6 95.8399 498.6 96.9699C498.6 98.0999 498.46 98.0899 498.46 99.2099C498.46 100.33 498.33 100.34 498.33 101.46C498.33 102.58 498.69 102.58 498.69 103.7C498.69 104.82 498.33 104.83 498.33 105.95C498.33 107.07 498.65 107.07 498.65 108.2C498.65 109.33 498.48 109.32 498.48 110.44C498.48 111.56 498.76 111.56 498.76 112.69C498.76 113.82 498.6 113.81 498.6 114.93C498.6 116.05 498.36 116.05 498.36 117.18C498.36 118.31 498.36 118.3 498.36 119.42C498.36 120.54 498.57 120.54 498.57 121.66C498.57 122.78 498.51 122.78 498.51 123.91C498.51 125.04 498.45 125.03 498.45 126.15C498.45 127.27 498.45 127.27 498.45 128.39C498.45 129.51 498.51 129.52 498.51 130.64C498.51 131.76 498.81 131.76 498.81 132.89C498.81 134.02 498.81 134.01 498.81 135.13C498.81 136.25 498.74 136.26 498.74 137.38C498.74 138.5 498.61 138.5 498.61 139.63C498.61 140.76 498.33 140.75 498.33 141.88C498.33 143.01 498.45 143 498.45 144.12C498.45 145.24 498.58 145.25 498.58 146.37C498.58 147.49 498.52 147.5 498.52 148.62C498.52 149.74 498.73 149.74 498.73 150.87C498.73 152 498.42 151.99 498.42 153.11C498.42 154.23 498.66 154.24 498.66 155.36C498.66 156.48 498.78 156.49 498.78 157.61C498.78 158.73 498.47 158.74 498.47 159.87C498.47 161 498.47 160.99 498.47 162.12C498.47 163.25 498.67 163.23 498.32 164.3C497.666 164.355 497.021 164.489 496.4 164.7C495.661 164.764 494.93 164.905 494.22 165.12C493.659 165.487 493.136 165.909 492.66 166.38C492.3 165.32 492.6 165.33 492.6 164.21C492.6 163.09 492.6 163.09 492.6 161.97C492.6 160.85 492.18 160.85 492.18 159.73C492.18 158.61 492.26 158.61 492.26 157.49C492.26 156.37 492.26 156.37 492.26 155.25C492.26 154.13 492.33 154.13 492.33 153.01C492.33 151.89 492.27 151.89 492.27 150.77C492.27 149.65 492.17 149.65 492.17 148.53C492.17 147.41 492.45 147.41 492.45 146.29C492.45 145.17 492.21 145.17 492.21 144.06C492.21 142.95 492.27 142.94 492.27 141.82C492.27 140.7 492.5 140.7 492.5 139.58V137.34C492.5 136.22 492.5 136.22 492.5 135.1C492.5 133.98 492.24 133.99 492.24 132.87C492.24 131.75 492.59 131.74 492.59 130.62C492.59 129.5 492.17 129.5 492.17 128.38C492.17 127.26 492.41 127.26 492.41 126.14C492.41 125.02 492.41 125.02 492.41 123.9C492.41 122.78 492.57 122.78 492.57 121.66C492.57 120.54 492.57 120.54 492.57 119.42C492.57 118.3 492.18 118.3 492.18 117.18C492.18 116.06 492.61 116.06 492.61 114.94C492.61 113.82 492.49 113.82 492.49 112.7C492.49 111.58 492.32 111.58 492.32 110.46C492.32 109.34 492.43 109.34 492.43 108.22C492.43 107.1 492.61 107.1 492.61 105.98C492.61 104.86 492.36 104.86 492.36 103.74C492.36 102.62 492.55 102.61 492.55 101.49C492.55 100.37 492.34 100.37 492.34 99.2499C492.34 98.1299 492.4 98.1299 492.4 97.0099C492.4 95.8899 492.33 95.8899 492.33 94.7699C492.33 93.6499 492.54 93.6499 492.54 92.5299C492.54 91.4099 492.16 91.4099 492.16 90.2899C492.16 89.1699 492.16 89.1699 492.16 88.0499C492.16 86.9299 492.57 86.9199 492.57 85.7999C492.57 84.6799 492.3 84.6799 492.3 83.5599C492.3 82.4399 492.51 82.4399 492.51 81.3199C492.51 80.1999 492.19 80.1999 492.19 79.0799C492.19 77.9599 492.53 77.9599 492.53 76.8399C492.53 75.7199 492.15 75.7099 492.15 74.5899C492.15 73.4699 492.35 73.4699 492.35 72.3499C492.35 71.2299 492.54 71.2299 492.54 70.1099C492.54 68.9899 492.54 68.9899 492.54 67.8699C492.54 66.7499 492.38 66.7399 492.38 65.6199C492.38 64.4999 492.43 64.4999 492.43 63.3799C492.43 62.2599 492.43 62.2599 492.43 61.1299C492.43 59.9999 492.35 60.0099 492.35 58.8899C492.35 57.7699 492.5 57.7699 492.5 56.6499C492.5 55.5299 492.12 55.5299 492.12 54.3999C492.12 53.2699 492.4 53.2799 492.4 52.1599C492.4 51.0399 492.23 51.0399 492.23 49.9199C492.23 48.7999 492.36 48.7999 492.36 47.6799C492.36 46.5599 492.28 46.5599 492.28 45.4399C492.28 44.3199 492.13 44.3199 492.13 43.1999C492.13 42.0799 492.03 42.0799 492.03 40.9499C492.03 39.8199 492.15 39.8299 492.15 38.7099C492.15 37.5899 492.15 37.5899 492.15 36.4699C492.15 35.3499 492.15 35.3499 492.15 34.2299C492.15 33.1099 492.51 33.0999 492.51 31.9799C492.51 30.8599 492.41 30.8599 492.41 29.7399C492.41 28.6199 492.41 28.6099 492.41 27.4899C492.41 26.3699 492.3 26.3699 492.3 25.2499C492.3 24.1299 492.41 24.1199 492.41 22.9999C492.41 21.8799 492.41 21.8799 492.41 20.7599C492.41 19.6399 492.03 19.6299 492.03 18.5099C492.03 17.3899 492.1 17.3899 492.1 16.2599C492.1 15.1299 492.41 15.1399 492.41 14.0199C492.41 12.8999 492.06 12.8999 492.06 11.7699C492.06 10.6399 491.98 10.6499 491.98 9.5299C491.98 8.4099 492.24 8.3999 492.24 7.2799C492.24 6.1599 492.12 6.1499 492.12 5.0299C492.12 3.9099 492.35 3.8999 492.35 2.7799C492.35 1.6599 491.65 1.51991 492.41 0.689906C493.17 -0.140094 493.24 0.299892 494.26 0.299892C495.28 0.299892 495.26 0.609899 496.26 0.369899C497.26 0.129899 497.86 -0.330113 498.54 0.419887Z" fill="#7F5C51"/>
<path d="M474.72 134.69L477.72 130.69L482.72 130.77C482.923 130.773 483.123 130.721 483.298 130.619C483.474 130.517 483.618 130.368 483.715 130.19C483.812 130.012 483.858 129.81 483.848 129.607C483.838 129.404 483.773 129.208 483.66 129.04L480.85 124.93L482.47 120.22C482.535 120.028 482.545 119.822 482.501 119.624C482.457 119.427 482.36 119.245 482.219 119.099C482.079 118.952 481.902 118.847 481.706 118.794C481.511 118.742 481.305 118.744 481.11 118.8L476.33 120.2L472.92 117.63C473.078 118.069 473.159 118.533 473.16 119C473.16 120.11 472.91 120.11 472.91 121.23C472.91 122.35 472.91 122.34 472.91 123.46C472.91 124.58 472.91 124.58 472.91 125.69C472.91 126.8 472.91 126.81 472.91 127.93C472.91 129.05 472.79 129.05 472.79 130.16C472.79 131.27 473.07 131.28 473.07 132.4C473.07 133.52 473.07 133.51 473.07 134.63V134.73C473.176 134.844 473.305 134.935 473.449 134.996C473.593 135.057 473.748 135.086 473.904 135.082C474.06 135.079 474.214 135.042 474.354 134.974C474.495 134.906 474.62 134.809 474.72 134.69Z" fill="#A58983"/>
<path d="M498.36 61.0599C498.36 62.1799 498.26 62.1799 498.26 63.2999C498.26 64.4199 498.4 64.4199 498.4 65.5499C498.4 65.7699 498.33 65.9299 498.34 66.0799C498.46 65.0799 498.06 64.9599 498.64 64.1799C499.37 63.1799 499.71 63.5699 500.78 62.9299C501.85 62.2899 501.78 62.2099 502.87 61.5699C503.046 61.476 503.193 61.3342 503.292 61.1608C503.391 60.9873 503.44 60.7894 503.431 60.5897C503.423 60.39 503.358 60.1968 503.245 60.0323C503.131 59.8677 502.974 59.7387 502.79 59.6599C501.71 59.1799 501.7 59.1899 500.63 58.6599C499.946 58.2522 499.231 57.901 498.49 57.6099C498.403 57.9945 498.349 58.386 498.33 58.7799C498.33 59.9399 498.36 59.9399 498.36 61.0599Z" fill="#A58983"/>
<path d="M521.27 80.44L519.2 80.38C518.2 80.38 518.2 80.23 517.12 80.2C516.04 80.17 516.06 80.47 515.12 79.97C514.18 79.47 514.26 79.42 513.67 78.57C513.08 77.72 513.07 77.72 512.47 76.87C511.87 76.02 512.11 75.87 511.47 75C511.315 74.7911 511.106 74.6278 510.867 74.5271C510.627 74.4265 510.364 74.3923 510.106 74.4281C509.849 74.4639 509.605 74.5683 509.402 74.7306C509.198 74.8928 509.042 75.1068 508.95 75.35C508.6 76.35 508.41 76.26 508.06 77.23C507.71 78.2 507.98 78.31 507.62 79.29C507.26 80.27 507.62 80.54 506.87 81.29C506.12 82.04 505.79 81.4 504.8 81.7C503.81 82 503.8 82.07 502.8 82.37C501.8 82.67 501.85 82.83 500.86 83.13C500.625 83.1838 500.412 83.3059 500.246 83.4809C500.081 83.6559 499.971 83.876 499.93 84.1134C499.889 84.3508 499.92 84.5949 500.018 84.8149C500.116 85.035 500.277 85.2212 500.48 85.35C501.3 85.99 501.13 86.2 501.95 86.84C502.77 87.48 502.82 87.41 503.64 88.05C504.46 88.69 504.7 88.44 505.15 89.38C505.6 90.32 505.3 90.38 505.28 91.38C505.26 92.38 505.44 92.38 505.42 93.46C505.4 94.54 505.17 94.46 505.15 95.54C505.151 95.8014 505.221 96.0579 505.353 96.2837C505.485 96.5094 505.674 96.6965 505.901 96.8262C506.128 96.9559 506.385 97.0236 506.646 97.0225C506.908 97.0215 507.164 96.9516 507.39 96.82C508.25 96.24 508.12 96.05 508.98 95.47C509.84 94.89 509.98 95.07 510.83 94.47C511.68 93.87 511.44 93.24 512.48 93.1C513.52 92.96 513.48 93.38 514.48 93.73C515.48 94.08 515.38 94.3 516.36 94.64C517.34 94.98 517.44 94.71 518.42 95.06C518.648 95.1616 518.9 95.1975 519.147 95.1637C519.394 95.1299 519.627 95.0277 519.819 94.8686C520.012 94.7096 520.156 94.5 520.235 94.2635C520.315 94.027 520.327 93.773 520.27 93.53C519.99 92.53 520.06 92.53 519.77 91.53C519.48 90.53 519.39 90.53 519.1 89.53C518.81 88.53 518.36 88.61 518.56 87.58C518.76 86.55 518.9 86.58 519.56 85.8C520.22 85.02 520.32 85.07 520.95 84.24C521.58 83.41 521.64 83.46 522.27 82.63C522.412 82.4313 522.498 82.1988 522.521 81.9559C522.545 81.713 522.504 81.4683 522.402 81.2464C522.301 81.0244 522.143 80.833 521.944 80.6915C521.745 80.55 521.513 80.4632 521.27 80.44Z" fill="#7F5C51"/>
</g>
</svg>
