<svg width="68" height="25" viewBox="0 0 68 25" fill="none" xmlns="http://www.w3.org/2000/svg">
<path d="M44.6807 24.7645C44.6054 24.7711 44.5298 24.7711 44.4545 24.7645C44.1152 24.6967 43.7715 24.6107 43.4413 24.5112C43.111 24.4117 42.8577 24.086 42.5366 23.9594C42.2154 23.8327 41.7676 23.982 41.4554 23.8327C41.1433 23.6834 40.8493 23.4708 40.5507 23.3035C40.2522 23.1361 40.0396 22.8014 39.7456 22.6159C39.4516 22.4304 39.0987 22.3309 38.8182 22.1273C38.5378 21.9238 38.3659 21.5981 38.0764 21.3855C37.7869 21.1729 37.4069 21.0915 37.1717 20.8698C36.9365 20.6482 36.7601 20.2682 36.5158 20.0375C36.2715 19.8068 35.9458 19.5852 35.7152 19.3635C35.4845 19.1419 35.0592 18.9926 34.8421 18.7528C34.625 18.5131 34.4893 17.9296 34.2903 17.6943C34.0912 17.9296 33.9736 18.4452 33.7113 18.7302C33.4489 19.0152 33.2589 19.2188 32.983 19.4811C32.707 19.7435 32.5035 19.9697 32.2411 20.2184C31.9788 20.4672 31.6485 20.5939 31.3817 20.8291C31.1148 21.0643 30.7755 21.1729 30.4996 21.3945C30.2237 21.6162 29.9703 21.8469 29.6853 22.0414C29.4004 22.2359 29.233 22.6159 28.939 22.8059C28.645 22.9959 28.3283 23.1406 28.0343 23.3125C27.7403 23.4844 27.2924 23.3849 26.9803 23.5387C26.6682 23.6925 26.4375 24.0182 26.1118 24.1493C25.7861 24.2805 25.4062 24.2172 25.0714 24.3167C24.7367 24.4162 24.4653 24.7329 24.1215 24.8053C23.8175 24.8772 23.4979 24.8421 23.2168 24.7057C22.9765 24.4985 22.8164 24.2136 22.7644 23.9006C22.7056 23.6065 22.9816 23.3713 23.1354 23.1361C23.1938 23.021 23.2775 22.9206 23.3801 22.8423C23.4826 22.764 23.6015 22.7098 23.7279 22.6837C24.0671 22.6159 24.4023 22.5298 24.7322 22.4259C25.0579 22.3219 25.3564 22.1319 25.673 21.9962C25.9897 21.8605 26.347 21.8107 26.6501 21.6524C26.9532 21.4941 27.1025 21.0553 27.3874 20.8789C27.6724 20.7025 27.9664 20.526 28.2469 20.3315C28.5273 20.137 28.9164 20.0827 29.1833 19.8792C29.4501 19.6756 29.803 19.5354 30.0563 19.3183C30.3096 19.1011 30.382 18.6398 30.6217 18.4136C30.8615 18.1874 31.3681 18.1693 31.5988 17.9386C31.8295 17.7079 31.9878 17.3234 32.2004 17.0882C32.413 16.853 32.6528 16.5228 32.8563 16.3011C33.0776 16.0349 33.3229 15.7896 33.5891 15.5683C33.7927 15.2879 33.9962 15.0436 34.3446 15.0436C34.5236 15.0282 34.7039 15.0522 34.8727 15.1139C35.0415 15.1757 35.1947 15.2736 35.3216 15.4009C35.4806 15.7044 35.67 15.9908 35.887 16.2559C36.0725 16.4821 36.3394 16.7082 36.5746 17.0113C36.8098 17.3144 37.131 17.3913 37.3888 17.6491C37.6467 17.9069 37.6648 18.3186 37.9271 18.5538C38.1895 18.789 38.4338 19.0062 38.7007 19.2323C38.9675 19.4585 39.153 19.7299 39.447 19.9425C39.741 20.1551 40.0984 20.2139 40.3834 20.3949C40.6684 20.5758 40.7995 21.0101 41.0936 21.191C41.3876 21.3719 41.763 21.4172 42.0661 21.5755C42.3692 21.7338 42.7085 21.8288 43.0251 21.96C43.3417 22.0912 43.6946 22.1047 44.0202 22.2088C44.3482 22.2903 44.6805 22.3538 45.0154 22.3988C45.3094 22.4621 45.5175 22.8104 45.6713 23.0411C45.7465 23.1603 45.7972 23.2933 45.8205 23.4323C45.8438 23.5713 45.8392 23.7136 45.807 23.8508C45.7631 24.1143 45.6244 24.3527 45.4169 24.521C45.2094 24.6893 44.9476 24.7759 44.6807 24.7645Z" fill="#383838"/>
<path d="M17.7382 8.19478C17.5473 8.2124 17.3549 8.19084 17.1727 8.13144C16.9058 7.99121 16.6435 7.75148 16.3042 7.58863C15.965 7.42579 15.7886 7.13628 15.4583 6.97343C15.1281 6.81059 14.8296 6.74274 14.5039 6.59799C14.1782 6.45324 13.857 6.38992 13.5359 6.24969C13.2147 6.10946 12.889 6.0416 12.5678 5.9059C12.2467 5.7702 11.9119 5.72043 11.5908 5.58925C11.2696 5.45807 10.9982 5.2319 10.6861 5.10072C10.374 4.96954 10.0347 4.88359 9.71805 4.75693C9.4014 4.63028 9.1119 4.41315 8.81335 4.30459C8.5148 4.19602 8.16196 4.08294 7.84079 3.96081C7.51963 3.83868 7.2256 3.63512 6.90896 3.50846C6.59232 3.38181 6.18521 3.4768 5.86857 3.36371C5.55192 3.25062 5.21718 3.11492 4.90054 3.01088C4.58389 2.90684 4.29439 2.61734 3.99584 2.51782C3.69729 2.4183 3.32638 2.27808 3.01878 2.19213C2.71119 2.10618 2.30408 2.05642 2.00553 1.98857C1.70698 1.92072 1.41295 1.88 1.26367 1.64478C1.07399 1.3931 0.980884 1.08172 1.0013 0.767225C1.06463 0.473199 1.40841 0.274173 1.64363 0.124899C1.76779 0.0708571 1.90175 0.0429688 2.03717 0.0429688C2.17258 0.0429688 2.30657 0.0708571 2.43074 0.124899C2.72476 0.188227 3.0414 0.269649 3.38971 0.364642C3.73802 0.459635 4.05917 0.364638 4.39391 0.473201C4.72865 0.581765 5.05433 0.550102 5.38002 0.658666C5.70571 0.767229 5.98616 0.925549 6.30733 1.03864C6.6285 1.15172 6.8411 1.51361 7.15775 1.6267C7.47439 1.73978 7.79558 1.79858 8.11222 1.91619C8.42886 2.0338 8.8043 1.95238 9.12095 2.06999C9.43759 2.1876 9.66377 2.49972 9.97589 2.62185C10.288 2.74399 10.6318 2.78017 10.9394 2.90231C11.247 3.02444 11.5817 3.09682 11.8893 3.21895L12.8166 3.59892C13.1287 3.72558 13.3549 4.05128 13.658 4.16889C13.961 4.2865 14.3908 4.16888 14.6893 4.30459C14.9879 4.44029 15.291 4.62123 15.594 4.75693C15.8971 4.89264 16.25 4.96049 16.5395 5.09619C16.829 5.2319 17.1411 5.43093 17.4442 5.54854C17.7472 5.66615 18.0277 5.94209 18.2945 6.07779C18.5747 6.1841 18.8043 6.39259 18.9369 6.66131C18.9928 6.95752 18.9363 7.26394 18.7786 7.52078C18.6838 7.7179 18.5366 7.88509 18.3531 8.004C18.1696 8.1229 17.9568 8.18891 17.7382 8.19478Z" fill="#383838"/>
<path d="M50.7946 8.19529C50.5972 8.17244 50.4095 8.09758 50.2505 7.97836C50.0916 7.85914 49.9671 7.69985 49.8899 7.51677C49.7264 7.27396 49.6616 6.97788 49.709 6.68898C49.7977 6.38807 49.9942 6.1304 50.2609 5.96522C50.5232 5.82951 50.8489 5.72547 51.1656 5.57168C51.4822 5.41788 51.7219 5.22788 52.0386 5.08313C52.3552 4.93838 52.69 4.93387 53.0021 4.79364C53.3142 4.65341 53.6625 4.66246 53.9746 4.52675C54.2867 4.39105 54.4948 4.0744 54.8069 3.93869C55.1191 3.80299 55.499 3.87537 55.8066 3.74419C56.1142 3.61301 56.354 3.32802 56.6616 3.20137C56.9692 3.07471 57.2632 2.90734 57.5663 2.78069C57.8693 2.65403 58.1679 2.49118 58.4709 2.36905C58.774 2.24691 59.1902 2.36905 59.5023 2.26049C59.8144 2.15192 60.122 2.02074 60.4341 1.90766C60.7463 1.79457 61.0539 1.65434 61.366 1.54126C61.6781 1.42817 61.9902 1.28794 62.2978 1.1839C62.6054 1.07986 62.9492 1.00296 63.2568 0.898918C63.5644 0.794878 63.8629 0.568703 64.1615 0.47371C64.46 0.378717 64.8038 0.229451 65.1069 0.143505C65.41 0.0575591 65.8171 0.143503 66.1111 0.0711278C66.3792 -0.031001 66.6768 -0.0228752 66.9389 0.0937397C67.1784 0.266648 67.3408 0.526424 67.3913 0.817499C67.4546 1.107 67.2736 1.30604 67.1289 1.54126C66.9841 1.77648 66.9208 2.19716 66.6268 2.26049C66.3328 2.32382 65.9573 2.26048 65.6 2.35548C65.2426 2.45047 64.9441 2.48666 64.6003 2.59522C64.2565 2.70378 63.9308 2.69927 63.5915 2.81235C63.2523 2.92544 63.017 3.21947 62.6868 3.33708C62.3566 3.45469 62.04 3.5361 61.7098 3.65371C61.3796 3.77132 61.0584 3.84822 60.7327 3.96583C60.407 4.08344 60.0904 4.19202 59.7647 4.31415C59.439 4.43628 59.1947 4.73483 58.86 4.85696C58.5253 4.97909 58.1724 4.98362 57.8558 5.11027C57.5391 5.23693 57.1953 5.32288 56.8832 5.44953C56.5711 5.57619 56.2861 5.81594 55.9785 5.94712C55.6709 6.0783 55.3045 6.12806 54.9969 6.25924C54.6893 6.39042 54.3184 6.44923 54.0153 6.58493C53.7123 6.72063 53.3911 6.91514 53.1106 7.03728C52.8302 7.15941 52.4502 7.30416 52.1652 7.43986C51.8802 7.57556 51.6405 8.00983 51.3691 8.14553C51.1834 8.20308 50.9875 8.22005 50.7946 8.19529Z" fill="#383838"/>
<path d="M38.8631 10.9506C38.8227 11.2407 38.734 11.522 38.6007 11.7829C38.5502 12.0733 38.4475 12.3523 38.2977 12.6061C38.0797 12.8081 37.8346 12.9787 37.5694 13.1128C37.2686 13.3593 36.9333 13.5605 36.5742 13.7099C36.1976 13.81 35.8133 13.8781 35.4253 13.9134C35.0391 13.9282 34.6525 13.9207 34.2672 13.8908C33.8815 13.9132 33.4949 13.9132 33.1092 13.8908C32.7306 13.8162 32.3597 13.7072 32.001 13.5651C31.6246 13.479 31.2622 13.3404 30.9244 13.1535C30.6899 12.9781 30.4839 12.7676 30.3137 12.5292C30.1322 12.3049 29.9942 12.0488 29.9066 11.7738C29.8211 11.5019 29.7828 11.2173 29.7935 10.9325C29.7817 10.6472 29.8216 10.3622 29.9111 10.0911C29.9962 9.81556 30.1311 9.55798 30.3092 9.33116C30.5061 9.12073 30.7333 8.94082 30.9832 8.79738C31.2855 8.55897 31.6207 8.36548 31.9783 8.2229C32.3523 8.13106 32.7339 8.07353 33.1183 8.051C33.4979 7.97885 33.8816 7.9305 34.2672 7.90625C34.6525 7.94828 35.0348 8.01476 35.4117 8.10528C35.7971 8.11157 36.1814 8.1494 36.5606 8.21837C36.9331 8.31826 37.2895 8.47056 37.6191 8.67072C37.8738 8.82943 38.1052 9.02279 38.3067 9.24521C38.4622 9.49818 38.571 9.77704 38.6279 10.0685C38.7589 10.3459 38.8386 10.6447 38.8631 10.9506Z" fill="#FF7777"/>
</svg>
