<svg width="529" height="174" viewBox="0 0 529 174" fill="none" xmlns="http://www.w3.org/2000/svg">
<g opacity="0.75">
<path d="M0.44994 1.61988C-0.35006 2.40988 0.179951 2.61988 0.179951 3.71988C0.179951 4.81988 0.179951 4.84988 0.179951 5.96988C0.179951 7.08988 0.279957 7.09986 0.279957 8.22986C0.279957 9.35986 0.279957 9.35987 0.279957 10.4899C0.279957 11.6199 0.359944 11.6199 0.359944 12.7399C0.359944 13.8599 0.139943 13.8699 0.139943 14.9999C0.139943 16.1299 0.299946 16.1199 0.299946 17.2499C0.299946 18.3799 0.0599561 18.3799 0.0599561 19.4999C0.0599561 20.6199 0.229939 20.6299 0.229939 21.7599C0.229939 22.8899 0.119954 22.8799 0.119954 24.0099C0.119954 25.1399 0.119954 25.1399 0.119954 26.2599V28.5199C0.119954 29.6399 0.549946 29.6399 0.549946 30.7699C0.549946 31.8999 0.21996 31.8999 0.21996 33.0299C0.21996 34.1599 0.479939 34.1599 0.479939 35.2899C0.479939 36.4199 0.0899548 36.4199 0.0899548 37.5499C0.0899548 38.6799 0.0899548 38.6699 0.0899548 39.7999C0.0899548 40.9299 0.0399365 40.9299 0.0399365 42.0599C0.0399365 43.1899 0.269948 43.1799 0.269948 44.3099C0.269948 45.4399 0.439961 45.4399 0.439961 46.5699C0.439961 47.6999 0.379933 47.6899 0.379933 48.8199C0.379933 49.9499 0.19994 49.9499 0.19994 51.0799C0.19994 52.2099 0.299946 52.2099 0.299946 53.3299C0.299946 54.4499 0.539937 54.4599 0.539937 55.5899C0.539937 56.7199 0.0499463 56.7199 0.0499463 57.8499C0.0499463 58.9799 0.539937 58.9799 0.539937 60.1099C0.539937 61.2399 0.439961 61.2399 0.439961 62.3699C0.439961 63.4999 0.119954 63.4899 0.119954 64.6199C0.119954 65.7499 0.119954 65.7499 0.119954 66.8799C0.119954 68.0099 0.329945 68.0099 0.329945 69.1299C0.329945 70.2499 0.239949 70.2599 0.239949 71.3899C0.239949 72.5199 0.239949 72.5199 0.239949 73.6499C0.239949 74.7799 0.139943 74.7799 0.139943 75.9099C0.139943 77.0399 0.429951 77.0399 0.429951 78.1699C0.429951 79.2999 0.239949 79.2999 0.239949 80.4199C0.239949 81.5399 0.429951 81.5499 0.429951 82.6799C0.429951 83.8099 0.429951 83.8099 0.429951 84.9399V87.2099C0.429951 88.3399 0.129933 88.3399 0.129933 89.4699C0.129933 90.5999 0.419941 90.5999 0.419941 91.7299C0.419941 92.8599 0.419941 92.8499 0.419941 93.9799C0.419941 95.1099 0.359944 95.1099 0.359944 96.2399C0.359944 97.3699 0.609944 97.3699 0.609944 98.4999C0.609944 99.6299 0.119954 99.6299 0.119954 100.76C0.119954 101.89 0.589955 101.89 0.589955 103.02C0.589955 104.15 0.349934 104.15 0.349934 105.28C0.349934 106.41 0.46996 106.41 0.46996 107.54C0.46996 108.67 0.119954 108.67 0.119954 109.8C0.119954 110.93 0.439961 110.93 0.439961 112.06C0.439961 113.19 0.439961 113.19 0.439961 114.32C0.439961 115.45 0.439961 115.45 0.439961 116.57C0.439961 117.69 0.259938 117.7 0.259938 118.83C0.259938 119.96 0.139943 119.96 0.139943 121.08C0.139943 122.2 0.139943 122.21 0.139943 123.34C0.139943 124.47 0.279957 124.47 0.279957 125.6C0.279957 126.73 0.479939 126.73 0.479939 127.86C0.479939 128.99 0.0999341 128.99 0.0999341 130.12C0.0999341 131.25 0.45995 131.25 0.45995 132.38C0.45995 133.51 0.139943 133.51 0.139943 134.64C0.139943 135.77 0.529957 135.77 0.529957 136.9C0.529957 138.03 0.45995 138.03 0.45995 139.16C0.45995 140.29 0.20995 140.29 0.20995 141.42C0.20995 142.55 0.129933 142.55 0.129933 143.68C0.129933 144.81 0.549946 144.82 0.549946 145.95C0.549946 147.08 0.419941 147.08 0.419941 148.21C0.419941 149.34 0.579945 149.34 0.579945 150.47C0.579945 151.6 0.349934 151.6 0.349934 152.73C0.349934 153.86 0.349934 153.86 0.349934 154.99C0.349934 156.12 0.159932 156.13 0.159932 157.26C0.159932 158.39 0.479939 158.39 0.479939 159.52C0.479939 160.65 0.539937 160.66 0.539937 161.79C0.539937 162.92 0.419941 162.93 0.419941 164.06C0.397557 164.277 0.426048 164.495 0.503132 164.699C0.580217 164.903 0.703765 165.086 0.863972 165.233C1.02418 165.381 1.21663 165.489 1.42598 165.549C1.63534 165.609 1.85582 165.62 2.06994 165.58C2.84081 165.433 3.62599 165.376 4.40993 165.41C5.20269 165.361 5.99846 165.408 6.77996 165.55C7.51795 165.851 8.22187 166.23 8.87993 166.68C9.60472 166.991 10.2951 167.376 10.94 167.83C11.4878 168.401 11.9831 169.02 12.4199 169.68C12.9944 170.198 13.6172 170.66 14.28 171.06C14.8001 171.629 15.3726 172.148 15.9899 172.61C16.6804 172.948 17.4043 173.213 18.15 173.4C18.9023 173.532 19.6671 173.579 20.43 173.54C21.1766 173.692 21.9384 173.756 22.6999 173.73C23.4765 173.675 24.2445 173.534 24.9899 173.31C25.6599 173.04 26.0699 172.31 26.6099 171.93C27.1499 171.55 28.0099 171.36 28.4199 170.84C28.8299 170.32 28.79 169.44 29.03 168.84C29.3589 168.236 29.5789 167.58 29.68 166.9C29.68 166.13 29.3 166.06 29.68 165.36C30.4131 165.302 31.1502 165.318 31.8799 165.41C32.5779 165.677 33.2478 166.012 33.8799 166.41C34.5353 166.715 35.1613 167.08 35.75 167.5C36.6001 168.118 37.3664 168.844 38.03 169.66C38.6044 170.17 39.2198 170.631 39.87 171.04C40.442 171.525 41.0619 171.95 41.72 172.31C42.3452 172.734 43.0161 173.086 43.72 173.36C44.4588 173.521 45.2137 173.599 45.97 173.59C46.7142 173.675 47.4657 173.675 48.2099 173.59C48.9814 173.552 49.7462 173.428 50.4899 173.22C51.1599 172.95 51.5899 172.32 52.1299 171.94C52.7441 171.621 53.3126 171.221 53.8199 170.75C54.2005 170.173 54.4842 169.538 54.6599 168.87C54.9285 168.236 55.081 167.558 55.1099 166.87C55.1099 165.76 55.37 165.76 55.37 164.64C55.37 163.52 55.0999 163.52 55.0999 162.41C55.0999 161.3 54.97 161.29 54.97 160.18C54.97 159.07 55.0999 159.06 55.0999 157.94C55.0999 156.82 54.9499 156.82 54.9499 155.71C54.9499 154.6 55.1999 154.59 55.1999 153.47C55.1999 152.35 54.9499 152.36 54.9499 151.24C54.9499 150.12 54.9499 150.13 54.9499 149.01V146.78C54.9499 145.66 55.34 145.66 55.34 144.55C55.34 143.44 55.18 143.43 55.18 142.32C55.18 141.21 55.18 141.2 55.18 140.09C55.18 138.98 55.3299 138.97 55.3299 137.86C55.3299 136.75 55.06 136.74 55.06 135.63C55.06 134.52 55.2999 134.51 55.2999 133.4C55.2999 132.29 55.1099 132.28 55.1099 131.16C55.1099 130.04 55.1099 130.04 55.1099 128.93C55.1099 127.82 54.8599 127.81 54.8599 126.69C54.8599 125.57 54.9599 125.57 54.9599 124.46C54.9599 123.35 55.18 123.34 55.18 122.22C55.18 121.1 55.12 121.11 55.12 119.99C55.12 118.87 55.2599 118.88 55.2599 117.76C55.2599 116.64 55 116.64 55 115.53C55 114.42 54.87 114.41 54.87 113.3C54.87 112.19 54.9899 112.18 54.9899 111.06C54.9899 109.94 54.87 109.95 54.87 108.83C54.87 107.71 55.22 107.71 55.22 106.59C55.22 105.47 54.9799 105.47 54.9799 104.36C54.9799 103.25 55.1699 103.24 55.1699 102.12C55.1699 101 55.2399 101.01 55.2399 99.8899C55.2399 98.7699 55.0999 98.7699 55.0999 97.6599C55.0999 96.5499 54.94 96.5399 54.94 95.4199C54.94 94.2999 54.94 94.3099 54.94 93.1899C54.94 92.0699 55.15 92.0699 55.15 90.9499C55.15 89.8299 55.2099 89.8299 55.2099 88.7199C55.2099 87.6099 55.37 87.5999 55.37 86.4799C55.37 85.3599 55.1599 85.3599 55.1599 84.2499C55.1599 83.1399 55.2299 83.1299 55.2299 82.0099C55.2299 80.8899 54.94 80.8999 54.94 79.7799C54.94 78.6599 54.94 78.6599 54.94 77.5399C54.94 76.4199 55.3299 76.4199 55.3299 75.3099C55.3299 74.1999 55.0799 74.1899 55.0799 73.0699C55.0799 71.9499 54.97 71.9499 54.97 70.8399C54.97 69.7299 55.3799 69.7199 55.3799 68.5999C55.3799 67.4799 55.2299 67.4799 55.2299 66.3599C55.2299 65.2399 55 65.2399 55 64.1299C55 63.0199 55.2299 63.0099 55.2299 61.8899C55.2299 60.7699 55.2299 60.7699 55.2299 59.6499C55.2299 58.5299 55.2299 58.5399 55.2299 57.4199C55.2299 56.2999 55.2899 56.2999 55.2899 55.1799C55.2899 54.0599 55.0799 54.0599 55.0799 52.9399C55.0799 51.8199 55.18 51.8299 55.18 50.7099C55.18 49.5899 55.2399 49.5899 55.2399 48.4699C55.2399 47.3499 55.2399 47.3599 55.2399 46.2399C55.2399 45.1199 54.9499 45.1299 54.9499 44.0099C54.9499 42.8899 55.0099 42.8899 55.0099 41.7699C55.0099 40.6499 55.3299 40.6499 55.3299 39.5399C55.3299 38.4299 55.12 38.4199 55.12 37.2999C55.12 36.1799 55.0099 36.1799 55.0099 35.0699C55.0099 33.9599 55.0999 33.9499 55.0999 32.8299C55.0999 31.7099 55.0199 31.7099 55.0199 30.5899C55.0199 29.4699 55.1099 29.4699 55.1099 28.3499C55.1099 27.2299 55.1099 27.2299 55.1099 26.1199C55.1099 25.0099 55.2699 24.9999 55.2699 23.8799C55.2699 22.7599 54.9799 22.7599 54.9799 21.6399C54.9799 20.5199 55.2399 20.5199 55.2399 19.3999C55.2399 18.2799 55.34 18.2799 55.34 17.1599C55.34 16.0399 55.34 16.0399 55.34 14.9199C55.34 13.7999 55.06 13.8099 55.06 12.6899C55.06 11.5699 55.34 11.5699 55.34 10.4499C55.34 9.32986 54.97 9.31986 54.97 8.19986C54.97 7.07986 55.25 7.07987 55.25 5.95987C55.25 4.83987 55.1099 4.83988 55.1099 3.71988C55.1099 2.59988 55.86 2.30987 55.06 1.51987C54.26 0.729871 53.9699 1.51987 52.8299 1.51987C51.6899 1.51987 51.6899 1.66987 50.5499 1.66987C49.4099 1.66987 49.4099 1.45987 48.2699 1.45987C47.1299 1.45987 47.13 1.31986 46 1.31986C44.87 1.31986 44.86 1.47986 43.72 1.47986C42.58 1.47986 42.55 1.20987 41.37 1.20987C40.19 1.20987 40.23 1.70987 39.09 1.70987H36.81C35.67 1.70987 35.67 1.50986 34.53 1.50986C33.39 1.50986 33.39 1.24988 32.25 1.24988C31.11 1.24988 31.11 1.24988 29.97 1.24988C28.83 1.24988 28.83 1.65989 27.69 1.65989C26.55 1.65989 26.5499 1.26987 25.4099 1.26987C24.2699 1.26987 24.2699 1.54987 23.1299 1.54987C21.9899 1.54987 21.9899 1.32987 20.8499 1.32987C19.7099 1.32987 19.71 1.41987 18.56 1.41987C17.41 1.41987 17.42 1.22986 16.28 1.22986C15.14 1.22986 15.14 1.35987 14 1.35987C12.86 1.35987 12.86 1.60987 11.72 1.60987C10.58 1.60987 10.58 1.37989 9.43996 1.37989C8.29996 1.37989 8.29995 1.37989 7.14995 1.37989C5.99995 1.37989 6.00995 1.13987 4.86995 1.13987C4.12327 1.23957 3.36664 1.23957 2.61995 1.13987C1.54995 1.04987 1.25994 0.819877 0.44994 1.61988Z" fill="#5E4A54"/>
<path d="M29.4599 1.34997C28.7099 2.17997 29.6799 2.57994 29.6799 3.69994C29.6799 4.81994 29.6799 4.81996 29.6799 5.93996C29.6799 7.05996 29.4999 7.06996 29.4999 8.18996C29.4999 9.30996 29.8399 9.30995 29.8399 10.43C29.8399 11.55 29.7499 11.5499 29.7499 12.6699C29.7499 13.7899 29.6499 13.7999 29.6499 14.9199C29.6499 16.0399 29.6499 16.04 29.6499 17.16C29.6499 18.28 29.3299 18.28 29.3299 19.4C29.3299 20.52 29.4099 20.5199 29.4099 21.6399C29.4099 22.7599 29.4099 22.76 29.4099 23.88C29.4099 25 29.3099 24.9899 29.3099 26.1099C29.3099 27.2299 29.6899 27.23 29.6899 28.35C29.6899 29.47 29.3999 29.47 29.3999 30.6C29.3999 31.73 29.6199 31.72 29.6199 32.84C29.6199 33.96 29.3099 33.9599 29.3099 35.0799C29.3099 36.1999 29.4899 36.1999 29.4899 37.3199C29.4899 38.4399 29.6299 38.4499 29.6299 39.5699C29.6299 40.6899 29.3799 40.69 29.3799 41.81C29.3799 42.93 29.4499 42.9299 29.4499 44.0499C29.4499 45.1699 29.3599 45.1799 29.3599 46.2999C29.3599 47.4199 29.3599 47.4199 29.3599 48.5399C29.3599 49.6599 29.3599 49.66 29.3599 50.78C29.3599 51.9 29.5999 51.9 29.5999 53.02C29.5999 54.14 29.4299 54.1399 29.4299 55.2599C29.4299 56.3799 29.6599 56.3799 29.6599 57.5099C29.6599 58.6399 29.4999 58.63 29.4999 59.75C29.4999 60.87 29.3799 60.87 29.3799 62C29.3799 63.13 29.4899 63.12 29.4899 64.24C29.4899 65.36 29.6499 65.3599 29.6499 66.4799C29.6499 67.5999 29.3999 67.6 29.3999 68.72C29.3999 69.84 29.6499 69.85 29.6499 70.97C29.6499 72.09 29.4399 72.09 29.4399 73.21C29.4399 74.33 29.6299 74.33 29.6299 75.46C29.6299 76.59 29.4799 76.5799 29.4799 77.6999C29.4799 78.8199 29.4799 78.8199 29.4799 79.9499C29.4799 81.0799 29.4799 81.07 29.4799 82.19C29.4799 83.31 29.6899 83.31 29.6899 84.43C29.6899 85.55 29.3499 85.56 29.3499 86.68C29.3499 87.8 29.4599 87.7999 29.4599 88.9199C29.4599 90.0399 29.6599 90.0499 29.6599 91.1699C29.6599 92.2899 29.8099 92.29 29.8099 93.41C29.8099 94.53 29.5299 94.54 29.5299 95.66V97.9C29.5299 99.03 29.6299 99.03 29.6299 100.15C29.6299 101.27 29.7599 101.27 29.7599 102.4C29.7599 103.53 29.4499 103.52 29.4499 104.64C29.4499 105.76 29.5399 105.76 29.5399 106.89C29.5399 108.02 29.5399 108.01 29.5399 109.13C29.5399 110.25 29.3999 110.25 29.3999 111.38C29.3999 112.51 29.7299 112.5 29.7299 113.62C29.7299 114.74 29.6199 114.75 29.6199 115.87C29.6199 116.99 29.5699 116.99 29.5699 118.11C29.5699 119.23 29.5699 119.23 29.5699 120.35C29.5699 121.47 29.6499 121.47 29.6499 122.6C29.6499 123.73 29.6499 123.72 29.6499 124.84C29.6499 125.96 29.3799 125.96 29.3799 127.09C29.3799 128.22 29.6999 128.21 29.6999 129.33C29.6999 130.45 29.8199 130.45 29.8199 131.58C29.8199 132.71 29.8199 132.7 29.8199 133.82C29.8199 134.94 29.3699 134.95 29.3699 136.07C29.3699 137.19 29.3699 137.19 29.3699 138.32C29.3699 139.45 29.3699 139.44 29.3699 140.56C29.3699 141.68 29.5599 141.69 29.5599 142.81C29.5599 143.93 29.6699 143.94 29.6699 145.06C29.6699 146.18 29.4399 146.18 29.4399 147.31C29.4399 148.44 29.4399 148.43 29.4399 149.56C29.4399 150.69 29.4999 150.68 29.4999 151.8C29.4999 152.92 29.7199 152.93 29.7199 154.05C29.7199 155.17 29.5499 155.21 29.5499 156.3C29.5499 157.39 29.5499 157.43 29.5499 158.55C29.5499 159.67 29.7399 159.68 29.7399 160.8C29.7399 161.92 29.4399 161.93 29.4399 163.06C29.3452 163.808 29.4239 164.567 29.6699 165.28C30.3516 165.369 31.022 165.53 31.6699 165.76C32.3574 165.906 33.0277 166.124 33.6699 166.41C34.4221 166.697 35.1481 167.048 35.8399 167.46C36.1899 166.4 35.3799 166.27 35.3799 165.15C35.3799 164.03 35.7099 164.03 35.7099 162.91C35.7099 161.79 35.4999 161.79 35.4999 160.67C35.4999 159.55 35.6699 159.55 35.6699 158.43C35.6699 157.31 35.6699 157.3 35.6699 156.18C35.6699 155.06 35.8399 155.06 35.8399 153.94C35.8399 152.82 35.5499 152.82 35.5499 151.71C35.5499 150.6 35.7599 150.59 35.7599 149.47C35.7599 148.35 35.5599 148.35 35.5599 147.23C35.5599 146.11 35.7599 146.11 35.7599 144.99C35.7599 143.87 35.3599 143.87 35.3599 142.76C35.3599 141.65 35.3599 141.64 35.3599 140.52C35.3599 139.4 35.6899 139.4 35.6899 138.28C35.6899 137.16 35.6899 137.16 35.6899 136.04C35.6899 134.92 35.4899 134.92 35.4899 133.8C35.4899 132.68 35.8299 132.68 35.8299 131.56C35.8299 130.44 35.7799 130.44 35.7799 129.32C35.7799 128.2 35.5499 128.21 35.5499 127.08C35.5499 125.95 35.7999 125.96 35.7999 124.84C35.7999 123.72 35.5799 123.72 35.5799 122.6C35.5799 121.48 35.8699 121.48 35.8699 120.36C35.8699 119.24 35.4399 119.24 35.4399 118.12C35.4399 117 35.4399 117 35.4399 115.88C35.4399 114.76 35.8799 114.76 35.8799 113.64C35.8799 112.52 35.8799 112.52 35.8799 111.4C35.8799 110.28 35.4399 110.28 35.4399 109.16C35.4399 108.04 35.6499 108.04 35.6499 106.91C35.6499 105.78 35.7899 105.79 35.7899 104.67C35.7899 103.55 35.7899 103.55 35.7899 102.43C35.7899 101.31 35.5499 101.31 35.5499 100.21C35.5499 99.11 35.6299 99.09 35.6299 97.97C35.6299 96.85 35.5399 96.8499 35.5399 95.7299C35.5399 94.6099 35.4299 94.61 35.4299 93.49C35.4299 92.37 35.5299 92.37 35.5299 91.25C35.5299 90.13 35.9199 90.12 35.9199 89C35.9199 87.88 35.8599 87.8799 35.8599 86.7599C35.8599 85.6399 35.7699 85.64 35.7699 84.52C35.7699 83.4 35.6799 83.4 35.6799 82.28C35.6799 81.16 35.7399 81.1599 35.7399 80.0399C35.7399 78.9199 35.6499 78.9099 35.6499 77.7899C35.6499 76.6699 35.4299 76.6699 35.4299 75.5499C35.4299 74.4299 35.9099 74.43 35.9099 73.31C35.9099 72.19 35.9099 72.19 35.9099 71.06C35.9099 69.93 35.8199 69.9399 35.8199 68.8199C35.8199 67.6999 35.5799 67.6999 35.5799 66.5799C35.5799 65.4599 35.7799 65.4599 35.7799 64.3299C35.7799 63.1999 35.7799 63.21 35.7799 62.09C35.7799 60.97 35.7799 60.97 35.7799 59.85C35.7799 58.73 35.7799 58.73 35.7799 57.6C35.7799 56.47 35.8499 56.4799 35.8499 55.3599C35.8499 54.2399 35.7899 54.24 35.7899 53.12C35.7899 52 35.6599 52 35.6599 50.87C35.6599 49.74 35.7399 49.75 35.7399 48.63C35.7399 47.51 35.3699 47.5099 35.3699 46.3899C35.3699 45.2699 35.8099 45.27 35.8099 44.15C35.8099 43.03 35.4499 43.03 35.4499 41.91C35.4499 40.79 35.7799 40.7899 35.7799 39.6699C35.7799 38.5499 35.4699 38.55 35.4699 37.43C35.4699 36.31 35.8499 36.3 35.8499 35.18C35.8499 34.06 35.5299 34.06 35.5299 32.94C35.5299 31.82 35.3699 31.82 35.3699 30.69C35.3699 29.56 35.4899 29.5699 35.4899 28.4499C35.4899 27.3299 35.3699 27.3299 35.3699 26.1999C35.3699 25.0699 35.4699 25.08 35.4699 23.96C35.4699 22.84 35.7899 22.83 35.7899 21.71C35.7899 20.59 35.7899 20.59 35.7899 19.47C35.7899 18.35 35.7899 18.34 35.7899 17.22C35.7899 16.1 35.3899 16.0999 35.3899 14.9799C35.3899 13.8599 35.4699 13.8499 35.4699 12.7299C35.4699 11.6099 35.5499 11.6099 35.5499 10.4799C35.5499 9.34994 35.3899 9.35995 35.3899 8.23995C35.3899 7.11995 35.3899 7.10995 35.3899 5.98995C35.3899 4.86995 35.5899 4.85994 35.5899 3.72994C35.5899 2.59994 36.2599 2.37995 35.4999 1.54995C34.7399 0.719949 34.5599 1.24996 33.5499 1.24996C32.5399 1.24996 32.4799 1.78994 31.4999 1.53994C30.4699 1.20994 30.1499 0.599967 29.4599 1.34997Z" fill="#543B44"/>
<path d="M35.87 120.05C35.8562 119.832 35.8124 119.616 35.74 119.41C35.7358 119.63 35.7802 119.849 35.87 120.05Z" fill="#FFAA93"/>
<path d="M45.21 49.0099C45.48 50.2299 45.51 50.22 45.78 51.44C46.05 52.66 45.6 52.9299 46.38 53.8999C47.16 54.8699 47.62 54.2899 48.75 54.7999C49.88 55.3099 49.84 55.43 50.97 55.94C51.1677 56.0123 51.3408 56.1393 51.469 56.3063C51.5972 56.4732 51.6753 56.6732 51.6942 56.8829C51.713 57.0925 51.6719 57.3032 51.5755 57.4904C51.4792 57.6776 51.3316 57.8335 51.15 57.94L49 59.2099C47.93 59.8399 47.44 59.3399 46.77 60.3899C46.1 61.4399 46.71 61.6599 46.57 62.8999C46.43 64.1399 46.28 64.1199 46.15 65.3599C46.1595 65.562 46.1075 65.7622 46.0009 65.934C45.8942 66.1059 45.738 66.2414 45.5528 66.3226C45.3675 66.4039 45.162 66.4271 44.9634 66.3891C44.7647 66.3511 44.5822 66.2538 44.44 66.1099C43.51 65.2799 43.44 65.3699 42.5 64.5499C41.56 63.7299 41.96 62.97 40.76 62.66C39.56 62.35 39.47 62.8999 38.25 63.1499C37.03 63.3999 37.04 63.4399 35.82 63.6999C35.6215 63.7516 35.4127 63.7482 35.2159 63.6902C35.0192 63.6322 34.8419 63.5218 34.7032 63.3707C34.5645 63.2196 34.4694 63.0336 34.4284 62.8327C34.3873 62.6317 34.4017 62.4233 34.47 62.2299C34.96 61.0899 35.24 61.2299 35.73 60.0699C36.22 58.9099 36.63 58.9699 36.56 57.7299C36.49 56.4899 36 56.6199 35.38 55.5399C34.76 54.4599 34.62 54.5399 34 53.4599C33.9081 53.2755 33.8678 53.0696 33.8836 52.8641C33.8994 52.6586 33.9705 52.4613 34.0896 52.293C34.2086 52.1248 34.3709 51.9919 34.5594 51.9086C34.7479 51.8253 34.9555 51.7947 35.16 51.8199L37.64 52.0699C38.88 52.1899 38.91 52.5199 40.07 52.0699C41.23 51.6199 40.88 51.2199 41.71 50.2999C42.54 49.3799 42.71 49.52 43.55 48.6C43.6571 48.4501 43.8067 48.3358 43.9795 48.2719C44.1523 48.2081 44.3403 48.1975 44.5191 48.2417C44.698 48.2859 44.8594 48.3827 44.9826 48.5197C45.1058 48.6566 45.185 48.8274 45.21 49.0099Z" fill="#4C353F"/>
<path d="M11.0299 119.06C12.2799 119.06 12.2799 118.92 13.5299 118.96C14.7799 119 14.9099 119.79 16.0399 119.27C17.1699 118.75 16.6899 118.15 17.4699 117.18C18.2499 116.21 18.4699 116.37 19.2199 115.4C19.3354 115.234 19.495 115.103 19.6808 115.022C19.8665 114.942 20.071 114.914 20.2714 114.943C20.4718 114.972 20.6601 115.057 20.8153 115.187C20.9705 115.317 21.0863 115.488 21.1499 115.68C21.4899 116.88 21.4099 116.9 21.7499 118.1C22.0899 119.3 21.5098 119.65 22.3498 120.57C23.1898 121.49 23.6499 120.79 24.8099 121.23C25.9699 121.67 25.9099 121.85 27.0799 122.29C27.2758 122.342 27.4512 122.453 27.5828 122.608C27.7143 122.762 27.7959 122.953 27.8165 123.155C27.8371 123.356 27.7958 123.56 27.6982 123.737C27.6006 123.915 27.4512 124.059 27.2699 124.15C26.2699 124.85 26.1799 124.77 25.1499 125.46C24.1199 126.15 23.7599 125.89 23.1499 126.98C22.5399 128.07 23.1498 128.24 23.0998 129.49C23.0498 130.74 23.0999 130.73 23.0399 131.98C23.0168 132.19 22.9391 132.391 22.8143 132.562C22.6896 132.733 22.5223 132.868 22.329 132.954C22.1358 133.04 21.9234 133.074 21.7129 133.052C21.5025 133.03 21.3015 132.954 21.1298 132.83C20.1298 132.06 20.1299 132.04 19.1899 131.27C18.2499 130.5 18.4499 129.99 17.1899 129.74C15.9299 129.49 15.9899 130.05 14.7899 130.37C13.5899 130.69 13.5798 130.68 12.3798 131.01C12.185 131.066 11.9785 131.068 11.783 131.014C11.5874 130.96 11.4106 130.853 11.2719 130.705C11.1333 130.557 11.0382 130.374 10.9973 130.175C10.9563 129.977 10.9711 129.771 11.0399 129.58C11.4699 128.41 11.5899 128.46 12.0399 127.29C12.4899 126.12 12.8299 126.16 12.6899 124.92C12.5499 123.68 12.2199 123.79 11.5399 122.75C10.8599 121.71 10.6099 121.87 9.92987 120.83C9.82922 120.644 9.77957 120.435 9.78595 120.223C9.79233 120.012 9.8545 119.806 9.96618 119.626C10.0779 119.446 10.2351 119.299 10.4219 119.2C10.6087 119.1 10.8184 119.052 11.0299 119.06Z" fill="#715C67"/>
<path d="M527.55 1.70002C528.36 2.49002 527.84 2.65004 527.84 3.78004C527.84 4.91004 527.75 4.91002 527.75 6.04002C527.75 7.17002 527.75 7.17003 527.75 8.30003C527.75 9.43003 528 9.42003 528 10.55C528 11.68 528 11.68 528 12.81C528 13.94 528 13.93 528 15.06C528 16.19 527.8 16.19 527.8 17.31C527.8 18.43 527.8 18.44 527.8 19.57C527.8 20.7 527.96 20.69 527.96 21.82C527.96 22.95 527.63 22.95 527.63 24.07C527.63 25.19 528.09 25.2 528.09 26.33C528.09 27.46 528 27.45 528 28.58C528 29.71 528 29.71 528 30.84C528 31.97 528.08 31.96 528.08 33.09C528.08 34.22 527.67 34.22 527.67 35.35C527.67 36.48 528.03 36.48 528.03 37.61C528.03 38.74 527.72 38.74 527.72 39.86C527.72 40.98 528.13 40.99 528.13 42.12C528.13 43.25 528.13 43.25 528.13 44.38C528.13 45.51 528.05 45.5 528.05 46.63C528.05 47.76 528.05 47.76 528.05 48.88C528.05 50 527.97 50.01 527.97 51.14C527.97 52.27 527.97 52.27 527.97 53.4C527.97 54.53 527.86 54.53 527.86 55.65C527.86 56.77 527.94 56.78 527.94 57.91C527.94 59.04 527.94 59.04 527.94 60.17C527.94 61.3 527.94 61.3 527.94 62.43C527.94 63.56 527.85 63.56 527.85 64.68C527.85 65.8 528.25 65.81 528.25 66.94C528.25 68.07 528.06 68.07 528.06 69.2C528.06 70.33 527.99 70.33 527.99 71.45C527.99 72.57 527.88 72.58 527.88 73.71C527.88 74.84 527.74 74.84 527.74 75.97C527.74 77.1 528.12 77.1 528.12 78.23V80.49C528.12 81.62 528.12 81.62 528.12 82.74C528.12 83.86 528.02 83.87 528.02 85C528.02 86.13 528.02 86.13 528.02 87.26C528.02 88.39 528.16 88.39 528.16 89.52C528.16 90.65 527.81 90.65 527.81 91.78C527.81 92.91 527.81 92.91 527.81 94.04C527.81 95.17 528.3 95.17 528.3 96.3C528.3 97.43 527.87 97.43 527.87 98.56C527.87 99.69 527.87 99.68 527.87 100.81C527.87 101.94 528.05 101.94 528.05 103.07C528.05 104.2 528.27 104.2 528.27 105.33C528.27 106.46 528.01 106.46 528.01 107.59C528.01 108.72 528.23 108.72 528.23 109.85C528.23 110.98 528.17 110.98 528.17 112.11C528.17 113.24 527.55 113.21 527.55 114.37C527.55 115.53 527.63 115.5 527.63 116.63C527.63 117.76 527.98 117.75 527.98 118.88C527.98 120.01 527.85 120.01 527.85 121.14C527.85 122.27 527.74 122.27 527.74 123.4V125.66C527.74 126.78 527.9 126.78 527.9 127.91C527.9 129.04 527.63 129.04 527.63 130.17C527.63 131.3 527.7 131.3 527.7 132.43C527.7 133.56 527.7 133.56 527.7 134.69C527.7 135.82 527.89 135.82 527.89 136.95C527.89 138.08 527.97 138.08 527.97 139.21C527.97 140.34 527.61 140.35 527.61 141.48C527.61 142.61 527.8 142.61 527.8 143.74C527.8 144.87 527.69 144.87 527.69 146V148.26C527.69 149.39 527.51 149.39 527.51 150.52C527.51 151.65 527.97 151.65 527.97 152.78C527.97 153.91 527.97 153.91 527.97 155.05C527.97 156.19 527.73 156.18 527.73 157.31C527.73 158.44 527.57 158.44 527.57 159.58C527.57 160.72 527.5 160.71 527.5 161.84C527.5 162.97 527.95 162.98 527.95 164.11C527.937 164.354 527.873 164.593 527.764 164.811C527.654 165.03 527.501 165.224 527.313 165.38C527.126 165.537 526.908 165.653 526.673 165.722C526.439 165.791 526.192 165.811 525.95 165.78C525.2 165.54 524.425 165.385 523.64 165.32C522.844 165.333 522.052 165.437 521.28 165.63C520.518 165.86 519.784 166.172 519.09 166.56C518.417 166.977 517.788 167.459 517.21 168C516.562 168.454 515.959 168.97 515.41 169.54C514.967 170.167 514.472 170.756 513.93 171.3C513.367 171.831 512.754 172.307 512.1 172.72C511.386 173.025 510.642 173.253 509.88 173.4C509.15 173.614 508.399 173.745 507.64 173.79C506.879 173.88 506.111 173.88 505.35 173.79C504.583 173.697 503.828 173.519 503.1 173.26C502.43 172.99 502.01 172.34 501.47 171.96C500.861 171.639 500.299 171.235 499.8 170.76C499.37 170.212 499.032 169.597 498.8 168.94C498.567 168.299 498.448 167.622 498.45 166.94C498.45 166.17 498.76 166.08 498.45 165.38C497.708 165.34 496.963 165.38 496.23 165.5C495.521 165.699 494.834 165.971 494.18 166.31C493.511 166.61 492.872 166.971 492.27 167.39C491.375 167.981 490.555 168.68 489.83 169.47C489.349 170.047 488.821 170.582 488.25 171.07C487.726 171.624 487.15 172.126 486.53 172.57C485.847 172.906 485.129 173.168 484.39 173.35C483.66 173.531 482.912 173.629 482.16 173.64C481.414 173.685 480.666 173.645 479.93 173.52C479.185 173.424 478.453 173.243 477.75 172.98C477.059 172.814 476.388 172.572 475.75 172.26C475.194 171.836 474.7 171.338 474.28 170.78C473.851 170.234 473.514 169.623 473.28 168.97C473.051 168.328 472.936 167.651 472.94 166.97C472.94 165.86 472.94 165.86 472.94 164.74C472.94 163.62 472.62 163.63 472.62 162.51C472.62 161.39 472.62 161.39 472.62 160.28C472.62 159.17 472.95 159.16 472.95 158.04C472.95 156.92 472.85 156.93 472.85 155.81V153.58C472.85 152.46 473.04 152.46 473.04 151.34C473.04 150.22 472.76 150.23 472.76 149.11C472.76 147.99 473.1 148 473.1 146.88C473.1 145.76 472.87 145.77 472.87 144.65C472.87 143.53 472.67 143.54 472.67 142.42C472.67 141.3 473.08 141.31 473.08 140.19C473.08 139.07 473.08 139.08 473.08 137.96C473.08 136.84 472.91 136.85 472.91 135.73C472.91 134.61 472.91 134.61 472.91 133.5C472.91 132.39 472.63 132.38 472.63 131.26C472.63 130.14 472.75 130.15 472.75 129.03C472.75 127.91 472.75 127.91 472.75 126.79C472.75 125.67 472.75 125.68 472.75 124.56C472.75 123.44 472.75 123.44 472.75 122.33C472.75 121.22 473 121.21 473 120.1C473 118.99 472.66 118.98 472.66 117.86C472.66 116.74 472.73 116.75 472.73 115.63C472.73 114.51 473.05 114.52 473.05 113.4C473.05 112.28 472.73 112.28 472.73 111.17C472.73 110.06 472.68 110.05 472.68 108.93C472.68 107.81 472.96 107.81 472.96 106.69C472.96 105.57 472.91 105.58 472.91 104.46C472.91 103.34 472.85 103.34 472.85 102.23C472.85 101.12 472.59 101.11 472.59 99.99C472.59 98.87 472.69 98.88 472.69 97.76C472.69 96.64 472.69 96.64 472.69 95.53C472.69 94.42 472.69 94.41 472.69 93.29C472.69 92.17 472.76 92.17 472.76 91.06C472.76 89.95 472.91 89.94 472.91 88.82C472.91 87.7 472.54 87.7 472.54 86.58C472.54 85.46 472.99 85.47 472.99 84.35C472.99 83.23 472.63 83.23 472.63 82.12C472.63 81.01 472.77 81 472.77 79.88C472.77 78.76 472.96 78.76 472.96 77.64C472.96 76.52 472.84 76.53 472.84 75.41C472.84 74.29 473 74.29 473 73.17C473 72.05 472.76 72.06 472.76 70.94V68.7C472.76 67.58 472.67 67.58 472.67 66.47C472.67 65.36 472.94 65.35 472.94 64.23C472.94 63.11 472.59 63.11 472.59 61.99C472.59 60.87 472.59 60.88 472.59 59.76C472.59 58.64 472.59 58.64 472.59 57.52C472.59 56.4 472.97 56.4 472.97 55.28C472.97 54.16 472.88 54.17 472.88 53.05C472.88 51.93 472.8 51.93 472.8 50.81C472.8 49.69 473.03 49.69 473.03 48.58C473.03 47.47 472.97 47.46 472.97 46.35C472.97 45.24 472.79 45.23 472.79 44.11C472.79 42.99 472.74 42.99 472.74 41.88C472.74 40.77 472.99 40.76 472.99 39.64C472.99 38.52 472.99 38.52 472.99 37.41C472.99 36.3 472.88 36.29 472.88 35.17C472.88 34.05 472.81 34.05 472.81 32.93C472.81 31.81 472.63 31.81 472.63 30.69C472.63 29.57 472.63 29.58 472.63 28.46C472.63 27.34 472.63 27.34 472.63 26.22C472.63 25.1 472.63 25.1 472.63 23.98C472.63 22.86 472.92 22.86 472.92 21.74C472.92 20.62 472.58 20.62 472.58 19.5C472.58 18.38 472.85 18.38 472.85 17.26C472.85 16.14 472.85 16.15 472.85 15.03C472.85 13.91 472.85 13.91 472.85 12.79C472.85 11.67 472.64 11.67 472.64 10.55C472.64 9.43003 472.87 9.43004 472.87 8.31004C472.87 7.19004 472.77 7.19004 472.77 6.06004C472.77 4.93004 472.87 4.94002 472.87 3.82002C472.87 2.70002 471.99 2.41004 472.79 1.62004C473.59 0.830037 473.89 1.36003 475.03 1.36003C476.17 1.36003 476.17 1.70002 477.31 1.70002C478.45 1.70002 478.44 1.59004 479.58 1.59004C480.72 1.59004 480.72 1.46003 481.86 1.46003C483 1.46003 483 1.34004 484.13 1.34004C485.26 1.34004 485.27 1.52003 486.41 1.52003C487.55 1.52003 487.55 1.73002 488.69 1.73002C489.83 1.73002 489.83 1.33003 490.97 1.33003C492.11 1.33003 492.11 1.61003 493.25 1.61003H495.53C496.67 1.61003 496.67 1.70002 497.81 1.70002H500.09C501.23 1.70002 501.23 1.55003 502.37 1.55003C503.51 1.55003 503.51 1.76002 504.66 1.76002C505.81 1.76002 505.8 1.76002 506.94 1.76002C508.08 1.76002 508.08 1.66005 509.22 1.66005C510.36 1.66005 510.36 1.77003 511.5 1.77003C512.64 1.77003 512.64 1.56004 513.78 1.56004C514.92 1.56004 514.92 1.87004 516.06 1.87004C517.2 1.87004 517.2 1.41005 518.35 1.41005C519.5 1.41005 519.49 1.81004 520.63 1.81004C521.77 1.81004 521.77 1.52003 522.92 1.52003C524.07 1.52003 524.11 2.01004 525.24 1.81004C526.37 1.61004 526.74 0.890024 527.55 1.70002Z" fill="#5E4A54"/>
<path d="M498.55 1.41989C499.31 2.24989 498.31 2.63989 498.31 3.76989C498.31 4.89989 498.21 4.88988 498.21 6.00988C498.21 7.12988 498.29 7.1299 498.29 8.2499C498.29 9.3699 498.5 9.3699 498.5 10.4999C498.5 11.6299 498.5 11.6199 498.5 12.7399C498.5 13.8599 498.56 13.8599 498.56 14.9799C498.56 16.0999 498.41 16.0999 498.41 17.2199V19.4599C498.41 20.5799 498.49 20.5799 498.49 21.6999C498.49 22.8199 498.56 22.8199 498.56 23.9399C498.56 25.0599 498.43 25.0599 498.43 26.1799C498.43 27.2999 498.3 27.2999 498.3 28.4199C498.3 29.5399 498.52 29.5399 498.52 30.6599C498.52 31.7799 498.41 31.7799 498.41 32.8999C498.41 34.0199 498.29 34.0199 498.29 35.1399C498.29 36.2599 498.42 36.2699 498.42 37.3899C498.42 38.5099 498.52 38.5099 498.52 39.6299C498.52 40.7499 498.32 40.7499 498.32 41.8799C498.32 43.0099 498.32 42.9999 498.32 44.1199C498.32 45.2399 498.44 45.2399 498.44 46.3599C498.44 47.4799 498.44 47.4799 498.44 48.5999C498.44 49.7199 498.33 49.7199 498.33 50.8399C498.33 51.9599 498.67 51.9599 498.67 53.0799C498.67 54.1999 498.4 54.1999 498.4 55.3299C498.4 56.4599 498.58 56.4499 498.58 57.5699C498.58 58.6899 498.45 58.6899 498.45 59.8199C498.45 60.9499 498.36 60.9399 498.36 62.0599C498.36 63.1799 498.26 63.1799 498.26 64.2999C498.26 65.4199 498.42 65.4199 498.42 66.5499C498.42 67.6799 498.65 67.6699 498.65 68.7899C498.65 69.9099 498.71 69.9099 498.71 71.0299C498.71 72.1499 498.44 72.1499 498.44 73.2699C498.44 74.3899 498.31 74.3999 498.31 75.5199C498.31 76.6399 498.65 76.6399 498.65 77.7699C498.65 78.8999 498.65 78.8899 498.65 80.0099C498.65 81.1299 498.34 81.1299 498.34 82.2499C498.34 83.3699 498.41 83.3699 498.41 84.4999V86.7399C498.41 87.8599 498.61 87.8599 498.61 88.9899C498.61 90.1199 498.75 90.1099 498.75 91.2299C498.75 92.3499 498.38 92.3499 498.38 93.4799C498.38 94.6099 498.38 94.5999 498.38 95.7199C498.38 96.8399 498.61 96.8399 498.61 97.9699C498.61 99.0999 498.47 99.0899 498.47 100.21C498.47 101.33 498.34 101.34 498.34 102.46C498.34 103.58 498.7 103.58 498.7 104.7C498.7 105.82 498.34 105.83 498.34 106.95C498.34 108.07 498.66 108.07 498.66 109.2C498.66 110.33 498.49 110.32 498.49 111.44C498.49 112.56 498.77 112.56 498.77 113.69C498.77 114.82 498.61 114.81 498.61 115.93C498.61 117.05 498.37 117.05 498.37 118.18C498.37 119.31 498.37 119.3 498.37 120.42C498.37 121.54 498.58 121.54 498.58 122.66C498.58 123.78 498.52 123.78 498.52 124.91C498.52 126.04 498.46 126.03 498.46 127.15C498.46 128.27 498.46 128.27 498.46 129.39C498.46 130.51 498.52 130.52 498.52 131.64C498.52 132.76 498.82 132.76 498.82 133.89C498.82 135.02 498.82 135.01 498.82 136.13C498.82 137.25 498.75 137.26 498.75 138.38C498.75 139.5 498.62 139.5 498.62 140.63C498.62 141.76 498.34 141.75 498.34 142.88C498.34 144.01 498.46 144 498.46 145.12C498.46 146.24 498.59 146.25 498.59 147.37C498.59 148.49 498.53 148.5 498.53 149.62C498.53 150.74 498.74 150.74 498.74 151.87C498.74 153 498.43 152.99 498.43 154.11C498.43 155.23 498.67 155.24 498.67 156.36C498.67 157.48 498.79 157.49 498.79 158.61C498.79 159.73 498.48 159.74 498.48 160.87C498.48 162 498.48 161.99 498.48 163.12C498.48 164.25 498.68 164.23 498.33 165.3C497.676 165.355 497.031 165.489 496.41 165.7C495.671 165.764 494.94 165.905 494.23 166.12C493.669 166.487 493.146 166.909 492.67 167.38C492.31 166.32 492.61 166.33 492.61 165.21C492.61 164.09 492.61 164.09 492.61 162.97C492.61 161.85 492.19 161.85 492.19 160.73C492.19 159.61 492.27 159.61 492.27 158.49C492.27 157.37 492.27 157.37 492.27 156.25C492.27 155.13 492.34 155.13 492.34 154.01C492.34 152.89 492.28 152.89 492.28 151.77C492.28 150.65 492.18 150.65 492.18 149.53C492.18 148.41 492.46 148.41 492.46 147.29C492.46 146.17 492.22 146.17 492.22 145.06C492.22 143.95 492.28 143.94 492.28 142.82C492.28 141.7 492.51 141.7 492.51 140.58V138.34C492.51 137.22 492.56 137.22 492.56 136.1C492.56 134.98 492.3 134.99 492.3 133.87C492.3 132.75 492.65 132.74 492.65 131.62C492.65 130.5 492.23 130.5 492.23 129.38C492.23 128.26 492.47 128.26 492.47 127.14C492.47 126.02 492.42 126.02 492.42 124.9C492.42 123.78 492.58 123.78 492.58 122.66C492.58 121.54 492.58 121.54 492.58 120.42C492.58 119.3 492.19 119.3 492.19 118.18C492.19 117.06 492.62 117.06 492.62 115.94C492.62 114.82 492.5 114.82 492.5 113.7C492.5 112.58 492.33 112.58 492.33 111.46C492.33 110.34 492.44 110.34 492.44 109.22C492.44 108.1 492.62 108.1 492.62 106.98C492.62 105.86 492.37 105.86 492.37 104.74C492.37 103.62 492.56 103.61 492.56 102.49C492.56 101.37 492.35 101.37 492.35 100.25C492.35 99.1299 492.41 99.1299 492.41 98.0099C492.41 96.8899 492.34 96.8899 492.34 95.7699C492.34 94.6499 492.55 94.6499 492.55 93.5299C492.55 92.4099 492.17 92.4099 492.17 91.2899C492.17 90.1699 492.17 90.1699 492.17 89.0499C492.17 87.9299 492.58 87.9199 492.58 86.7999C492.58 85.6799 492.31 85.6799 492.31 84.5599C492.31 83.4399 492.52 83.4399 492.52 82.3199C492.52 81.1999 492.2 81.1999 492.2 80.0799C492.2 78.9599 492.54 78.9599 492.54 77.8399C492.54 76.7199 492.16 76.7099 492.16 75.5899C492.16 74.4699 492.36 74.4699 492.36 73.3499C492.36 72.2299 492.55 72.2299 492.55 71.1099C492.55 69.9899 492.55 69.9899 492.55 68.8699C492.55 67.7499 492.39 67.7399 492.39 66.6199C492.39 65.4999 492.39 65.4999 492.39 64.3799C492.39 63.2599 492.39 63.2599 492.39 62.1299C492.39 60.9999 492.31 61.0099 492.31 59.8899C492.31 58.7699 492.46 58.7699 492.46 57.6499C492.46 56.5299 492.08 56.5299 492.08 55.3999C492.08 54.2699 492.36 54.2799 492.36 53.1599C492.36 52.0399 492.19 52.0399 492.19 50.9199C492.19 49.7999 492.32 49.7999 492.32 48.6799C492.32 47.5599 492.24 47.5599 492.24 46.4399C492.24 45.3199 492.09 45.3199 492.09 44.1999C492.09 43.0799 491.99 43.0799 491.99 41.9499C491.99 40.8199 492.11 40.8299 492.11 39.7099C492.11 38.5899 492.11 38.5899 492.11 37.4699C492.11 36.3499 492.11 36.3499 492.11 35.2299C492.11 34.1099 492.47 34.0999 492.47 32.9799C492.47 31.8599 492.37 31.8599 492.37 30.7399C492.37 29.6199 492.37 29.6099 492.37 28.4899C492.37 27.3699 492.26 27.3699 492.26 26.2499C492.26 25.1299 492.37 25.1199 492.37 23.9999C492.37 22.8799 492.37 22.8799 492.37 21.7599C492.37 20.6399 491.99 20.6299 491.99 19.5099C491.99 18.3899 492.06 18.3899 492.06 17.2599C492.06 16.1299 492.37 16.1399 492.37 15.0199C492.37 13.8999 492.02 13.8999 492.02 12.7699C492.02 11.6399 491.94 11.6499 491.94 10.5299C491.94 9.4099 492.2 9.3999 492.2 8.2799C492.2 7.1599 492.08 7.1499 492.08 6.0299C492.08 4.9099 492.31 4.8999 492.31 3.7799C492.31 2.6599 491.61 2.51991 492.37 1.68991C493.13 0.859906 493.2 1.29989 494.22 1.29989C495.24 1.29989 495.22 1.6099 496.22 1.3699C497.22 1.1299 497.86 0.669887 498.55 1.41989Z" fill="#543B44"/>
<path d="M474.72 135.69L477.77 131.69L482.77 131.77C482.973 131.773 483.173 131.721 483.348 131.619C483.524 131.517 483.668 131.368 483.765 131.19C483.862 131.012 483.908 130.81 483.898 130.607C483.888 130.405 483.823 130.208 483.71 130.04L480.9 125.93L482.52 121.22C482.584 121.028 482.595 120.822 482.551 120.624C482.507 120.427 482.409 120.245 482.269 120.099C482.129 119.952 481.952 119.847 481.756 119.795C481.561 119.742 481.354 119.744 481.16 119.8L476.35 121.21L472.94 118.64C473.098 119.079 473.179 119.543 473.18 120.01C473.18 121.12 472.93 121.12 472.93 122.24C472.93 123.36 472.93 123.35 472.93 124.47C472.93 125.59 472.93 125.59 472.93 126.7C472.93 127.81 472.93 127.82 472.93 128.94C472.93 130.06 472.81 130.06 472.81 131.17C472.81 132.28 473.09 132.29 473.09 133.41C473.09 134.53 473.09 134.52 473.09 135.64V135.74C473.196 135.851 473.325 135.938 473.467 135.996C473.61 136.054 473.762 136.081 473.916 136.076C474.07 136.072 474.22 136.035 474.359 135.968C474.497 135.902 474.62 135.807 474.72 135.69Z" fill="#715C67"/>
<path d="M498.36 62.0599C498.36 63.1799 498.26 63.1799 498.26 64.2999C498.26 65.4199 498.4 65.4199 498.4 66.5499C498.4 66.7699 498.33 66.9299 498.34 67.0799C498.46 66.0799 498.06 65.9599 498.64 65.1799C499.37 64.1799 499.71 64.5699 500.78 63.9299C501.85 63.2899 501.78 63.2099 502.87 62.5699C503.046 62.476 503.193 62.3342 503.292 62.1608C503.391 61.9873 503.44 61.7894 503.431 61.5897C503.423 61.39 503.358 61.1968 503.245 61.0323C503.131 60.8677 502.974 60.7387 502.79 60.6599C501.71 60.1799 501.7 60.1899 500.63 59.6599C499.949 59.2541 499.237 58.903 498.5 58.6099C498.404 58.993 498.347 59.3851 498.33 59.7799C498.33 60.9399 498.36 60.9399 498.36 62.0599Z" fill="#715C67"/>
<path d="M521.27 81.44L519.2 81.38C518.2 81.38 518.2 81.23 517.12 81.2C516.04 81.17 516.06 81.47 515.12 80.97C514.18 80.47 514.26 80.42 513.67 79.57C513.08 78.72 513.07 78.72 512.47 77.87C511.87 77.02 512.11 76.87 511.47 76C511.315 75.7911 511.106 75.6278 510.866 75.5271C510.627 75.4265 510.364 75.3923 510.106 75.4281C509.849 75.4639 509.605 75.5683 509.402 75.7306C509.198 75.8928 509.042 76.1068 508.95 76.35C508.6 77.35 508.41 77.26 508.06 78.23C507.71 79.2 507.98 79.31 507.62 80.29C507.26 81.27 507.62 81.54 506.87 82.29C506.12 83.04 505.79 82.4 504.8 82.7C503.81 83 503.8 83.07 502.8 83.37C501.8 83.67 501.8 83.83 500.86 84.13C500.625 84.1838 500.412 84.3059 500.246 84.4809C500.081 84.6559 499.971 84.876 499.93 85.1134C499.889 85.3508 499.92 85.5949 500.018 85.8149C500.116 86.035 500.276 86.2212 500.48 86.35C501.3 86.99 501.13 87.2 501.95 87.84C502.77 88.48 502.82 88.41 503.64 89.05C504.46 89.69 504.7 89.44 505.15 90.38C505.6 91.32 505.3 91.38 505.28 92.38C505.26 93.38 505.44 93.38 505.42 94.46C505.4 95.54 505.17 95.46 505.15 96.54C505.151 96.8014 505.221 97.0579 505.353 97.2837C505.485 97.5094 505.674 97.6965 505.901 97.8262C506.128 97.9559 506.385 98.0236 506.646 98.0225C506.908 98.0215 507.164 97.9516 507.39 97.82C508.25 97.24 508.12 97.05 508.98 96.47C509.84 95.89 509.98 96.07 510.83 95.47C511.68 94.87 511.55 94.21 512.55 94.09C513.55 93.97 513.6 94.37 514.55 94.72C515.5 95.07 515.45 95.29 516.43 95.63C517.41 95.97 517.51 95.7 518.49 96.05C518.718 96.1516 518.97 96.1875 519.217 96.1537C519.464 96.1199 519.697 96.0177 519.889 95.8586C520.082 95.6996 520.226 95.49 520.305 95.2535C520.385 95.017 520.397 94.763 520.34 94.52C520.06 93.52 520.13 93.52 519.84 92.52C519.55 91.52 519.46 91.52 519.17 90.52C518.88 89.52 518.43 89.6 518.63 88.57C518.83 87.54 518.97 87.57 519.63 86.79C520.29 86.01 520.39 86.06 521.02 85.23C521.65 84.4 521.71 84.45 522.34 83.62C522.481 83.4165 522.565 83.1791 522.584 82.9322C522.602 82.6853 522.554 82.438 522.445 82.2157C522.336 81.9934 522.17 81.8043 521.963 81.668C521.757 81.5316 521.517 81.4529 521.27 81.44Z" fill="#4C353F"/>
</g>
</svg>
