<?xml version="1.0" encoding="utf-8"?>
<!-- Generator: Adobe Illustrator 26.0.3, SVG Export Plug-In . SVG Version: 6.00 Build 0)  -->
<svg version="1.1" id="레이어_1" xmlns="http://www.w3.org/2000/svg" xmlns:xlink="http://www.w3.org/1999/xlink" x="0px"
	 y="0px" viewBox="0 0 529 174" style="enable-background:new 0 0 529 174;" xml:space="preserve">
<style type="text/css">
	.st0{opacity:0.75;}
	.st1{fill:#5E4A54;}
	.st2{fill:#543B44;}
	.st3{fill:#FFAA93;}
	.st4{fill:#4C353F;}
	.st5{fill:#715C67;}
</style>
<g class="st0">
	<path class="st1" d="M0.9,0.9C0.1,1.7,0.6,1.9,0.6,3s0,1.1,0,2.3s0.1,1.1,0.1,2.2s0,1.1,0,2.3c0,1.1,0.1,1.1,0.1,2.3
		s-0.2,1.1-0.2,2.3s0.2,1.1,0.2,2.2c0,1.1-0.2,1.1-0.2,2.2s0.2,1.1,0.2,2.3c0,1.1-0.1,1.1-0.1,2.2c0,1.1,0,1.1,0,2.2v2.3
		C0.6,28.9,1,28.9,1,30c0,1.1-0.3,1.1-0.3,2.3c0,1.1,0.3,1.1,0.3,2.3c0,1.1-0.4,1.1-0.4,2.3s0,1.1,0,2.2s-0.1,1.1-0.1,2.3
		c0,1.1,0.2,1.1,0.2,2.2c0,1.1,0.2,1.1,0.2,2.3s0,1.1,0,2.2s-0.2,1.1-0.2,2.3c0,1.1,0.1,1.1,0.1,2.3S1,53.7,1,54.8S0.6,56,0.6,57.1
		c0,1.1,0.5,1.1,0.5,2.3s-0.1,1.1-0.1,2.3c0,1.1-0.3,1.1-0.3,2.2c0,1.1,0,1.1,0,2.3c0,1.1,0.2,1.1,0.2,2.3c0,1.1-0.1,1.1-0.1,2.2
		c0,1.1,0,1.1,0,2.3c0,1.1-0.1,1.1-0.1,2.3s0.3,1.1,0.3,2.3c0,1.1-0.2,1.1-0.2,2.3c0,1.1,0.2,1.1,0.2,2.2c0,1.1,0,1.1,0,2.3v2.3
		c0,1.1-0.3,1.1-0.3,2.3c0,1.1,0.3,1.1,0.3,2.3c0,1.1,0,1.1,0,2.3s-0.1,1.1-0.1,2.2s0.3,1.1,0.3,2.3c0,1.1-0.5,1.1-0.5,2.3
		c0,1.1,0.5,1.1,0.5,2.3s-0.2,1.1-0.2,2.3c0,1.1,0.1,1.1,0.1,2.3c0,1.1-0.3,1.1-0.3,2.3c0,1.1,0.3,1.1,0.3,2.3s0,1.1,0,2.3
		c0,1.1,0,1.1,0,2.3c0,1.1-0.2,1.1-0.2,2.2c0,1.1-0.1,1.1-0.1,2.3s0,1.1,0,2.3c0,1.1,0.1,1.1,0.1,2.3c0,1.1,0.2,1.1,0.2,2.2
		c0,1.1-0.4,1.1-0.4,2.3c0,1.1,0.4,1.1,0.4,2.3s-0.3,1.1-0.3,2.3c0,1.1,0.4,1.1,0.4,2.3c0,1.1-0.1,1.1-0.1,2.3s-0.2,1.1-0.2,2.3
		s-0.1,1.1-0.1,2.3S1,144,1,145.2c0,1.1-0.1,1.1-0.1,2.3s0.2,1.1,0.2,2.3c0,1.1-0.2,1.1-0.2,2.3c0,1.1,0,1.1,0,2.3s-0.2,1.1-0.2,2.3
		c0,1.1,0.3,1.1,0.3,2.3S1,159.9,1,161c0,1.1-0.1,1.1-0.1,2.3c0,0.2,0,0.4,0.1,0.6c0.1,0.2,0.2,0.4,0.4,0.5c0.2,0.1,0.4,0.3,0.6,0.3
		c0.2,0.1,0.4,0.1,0.6,0c0.8-0.2,1.6-0.2,2.3-0.2c0.8,0,1.6,0,2.4,0.1c0.7,0.3,1.4,0.7,2.1,1.1c0.7,0.3,1.4,0.7,2.1,1.1
		c0.5,0.6,1,1.2,1.5,1.9c0.6,0.5,1.2,1,1.9,1.4c0.5,0.6,1.1,1.1,1.7,1.5c0.7,0.3,1.4,0.6,2.2,0.8c0.8,0.1,1.5,0.2,2.3,0.1
		c0.7,0.2,1.5,0.2,2.3,0.2c0.8-0.1,1.5-0.2,2.3-0.4c0.7-0.3,1.1-1,1.6-1.4s1.4-0.6,1.8-1.1s0.4-1.4,0.6-2c0.3-0.6,0.6-1.3,0.6-2
		c0-0.8-0.4-0.8,0-1.5c0.7-0.1,1.5,0,2.2,0.1c0.7,0.3,1.4,0.6,2,1c0.7,0.3,1.3,0.7,1.9,1.1c0.9,0.6,1.6,1.3,2.3,2.2
		c0.6,0.5,1.2,1,1.8,1.4c0.6,0.5,1.2,0.9,1.9,1.3c0.6,0.4,1.3,0.8,2,1.1c0.7,0.2,1.5,0.2,2.2,0.2c0.7,0.1,1.5,0.1,2.2,0
		c0.8,0,1.5-0.2,2.3-0.4c0.7-0.3,1.1-0.9,1.6-1.3c0.6-0.3,1.2-0.7,1.7-1.2c0.4-0.6,0.7-1.2,0.8-1.9c0.3-0.6,0.4-1.3,0.5-2
		c0-1.1,0.3-1.1,0.3-2.2s-0.3-1.1-0.3-2.2c0-1.1-0.1-1.1-0.1-2.2s0.1-1.1,0.1-2.2c0-1.1-0.1-1.1-0.1-2.2c0-1.1,0.2-1.1,0.2-2.2
		s-0.2-1.1-0.2-2.2c0-1.1,0-1.1,0-2.2V146c0-1.1,0.4-1.1,0.4-2.2c0-1.1-0.2-1.1-0.2-2.2c0-1.1,0-1.1,0-2.2s0.1-1.1,0.1-2.2
		c0-1.1-0.3-1.1-0.3-2.2c0-1.1,0.2-1.1,0.2-2.2s-0.2-1.1-0.2-2.2c0-1.1,0-1.1,0-2.2c0-1.1-0.2-1.1-0.2-2.2c0-1.1,0.1-1.1,0.1-2.2
		c0-1.1,0.2-1.1,0.2-2.2s-0.1-1.1-0.1-2.2s0.1-1.1,0.1-2.2c0-1.1-0.3-1.1-0.3-2.2c0-1.1-0.1-1.1-0.1-2.2s0.1-1.1,0.1-2.2
		s-0.1-1.1-0.1-2.2c0-1.1,0.4-1.1,0.4-2.2c0-1.1-0.2-1.1-0.2-2.2c0-1.1,0.2-1.1,0.2-2.2c0-1.1,0.1-1.1,0.1-2.2
		c0-1.1-0.1-1.1-0.1-2.2s-0.2-1.1-0.2-2.2s0-1.1,0-2.2c0-1.1,0.2-1.1,0.2-2.2c0-1.1,0.1-1.1,0.1-2.2c0-1.1,0.2-1.1,0.2-2.2
		c0-1.1-0.2-1.1-0.2-2.2s0.1-1.1,0.1-2.2s-0.3-1.1-0.3-2.2s0-1.1,0-2.2c0-1.1,0.4-1.1,0.4-2.2c0-1.1-0.2-1.1-0.2-2.2
		s-0.1-1.1-0.1-2.2s0.4-1.1,0.4-2.2s-0.2-1.1-0.2-2.2c0-1.1-0.2-1.1-0.2-2.2c0-1.1,0.2-1.1,0.2-2.2s0-1.1,0-2.2s0-1.1,0-2.2
		c0-1.1,0.1-1.1,0.1-2.2c0-1.1-0.2-1.1-0.2-2.2c0-1.1,0.1-1.1,0.1-2.2s0.1-1.1,0.1-2.2s0-1.1,0-2.2c0-1.1-0.3-1.1-0.3-2.2
		c0-1.1,0.1-1.1,0.1-2.2c0-1.1,0.3-1.1,0.3-2.2c0-1.1-0.2-1.1-0.2-2.2s-0.1-1.1-0.1-2.2s0.1-1.1,0.1-2.2c0-1.1-0.1-1.1-0.1-2.2
		c0-1.1,0.1-1.1,0.1-2.2c0-1.1,0-1.1,0-2.2c0-1.1,0.2-1.1,0.2-2.2s-0.3-1.1-0.3-2.2c0-1.1,0.3-1.1,0.3-2.2c0-1.1,0.1-1.1,0.1-2.2
		s0-1.1,0-2.2s-0.3-1.1-0.3-2.2s0.3-1.1,0.3-2.2c0-1.1-0.4-1.1-0.4-2.2s0.3-1.1,0.3-2.2S55.5,4,55.5,2.9s0.8-1.4,0-2.2
		c-0.8-0.8-1.1,0-2.2,0c-1.1,0-1.1,0.1-2.3,0.1s-1.1-0.2-2.3-0.2s-1.1-0.1-2.3-0.1s-1.1,0.2-2.3,0.2c-1.1,0-1.1-0.2-2.3-0.2
		s-1.1,0.5-2.3,0.5h-2.3c-1.1,0-1.1-0.2-2.3-0.2c-1.1,0-1.1-0.3-2.3-0.3s-1.1,0-2.3,0c-1.1,0-1.1,0.4-2.3,0.4
		c-1.1,0-1.1-0.4-2.3-0.4s-1.1,0.3-2.3,0.3c-1.1,0-1.1-0.2-2.3-0.2S20.2,0.7,19,0.7c-1.1,0-1.1-0.2-2.3-0.2s-1.1,0.1-2.3,0.1
		s-1.1,0.2-2.3,0.2s-1.1-0.2-2.3-0.2c-1.1,0-1.2,0-2.3,0S6.5,0.4,5.3,0.4c-0.7,0.1-1.5,0.1-2.3,0C1.9,0.3,1.7,0.1,0.9,0.9z"/>
	<path class="st2" d="M29.9,0.6c-0.8,0.8,0.2,1.2,0.2,2.3s0,1.1,0,2.2s-0.2,1.1-0.2,2.2s0.3,1.1,0.3,2.2c0,1.1-0.1,1.1-0.1,2.2
		s-0.1,1.1-0.1,2.2s0,1.1,0,2.2c0,1.1-0.3,1.1-0.3,2.2c0,1.1,0.1,1.1,0.1,2.2c0,1.1,0,1.1,0,2.2c0,1.1-0.1,1.1-0.1,2.2
		c0,1.1,0.4,1.1,0.4,2.2c0,1.1-0.3,1.1-0.3,2.2c0,1.1,0.2,1.1,0.2,2.2c0,1.1-0.3,1.1-0.3,2.2c0,1.1,0.2,1.1,0.2,2.2
		c0,1.1,0.1,1.1,0.1,2.2s-0.3,1.1-0.3,2.2c0,1.1,0.1,1.1,0.1,2.2c0,1.1-0.1,1.1-0.1,2.2s0,1.1,0,2.2c0,1.1,0,1.1,0,2.2
		c0,1.1,0.2,1.1,0.2,2.2s-0.2,1.1-0.2,2.2c0,1.1,0.2,1.1,0.2,2.2c0,1.1-0.2,1.1-0.2,2.2s0,1.1,0,2.2s0.1,1.1,0.1,2.2
		s0.2,1.1,0.2,2.2s-0.2,1.1-0.2,2.2s0.2,1.1,0.2,2.2c0,1.1-0.2,1.1-0.2,2.2c0,1.1,0.2,1.1,0.2,2.2c0,1.1-0.1,1.1-0.1,2.2
		c0,1.1,0,1.1,0,2.2c0,1.1,0,1.1,0,2.2s0.2,1.1,0.2,2.2s-0.3,1.1-0.3,2.2c0,1.1,0.1,1.1,0.1,2.2c0,1.1,0.2,1.1,0.2,2.2
		c0,1.1,0.2,1.1,0.2,2.2c0,1.1-0.3,1.1-0.3,2.2v2.2c0,1.1,0.1,1.1,0.1,2.2c0,1.1,0.1,1.1,0.1,2.2s-0.3,1.1-0.3,2.2
		c0,1.1,0.1,1.1,0.1,2.2c0,1.1,0,1.1,0,2.2c0,1.1-0.1,1.1-0.1,2.2c0,1.1,0.3,1.1,0.3,2.2c0,1.1-0.1,1.1-0.1,2.2c0,1.1,0,1.1,0,2.2
		v2.2c0,1.1,0.1,1.1,0.1,2.2c0,1.1,0,1.1,0,2.2c0,1.1-0.3,1.1-0.3,2.2c0,1.1,0.3,1.1,0.3,2.2c0,1.1,0.1,1.1,0.1,2.2
		c0,1.1,0,1.1,0,2.2c0,1.1-0.5,1.1-0.5,2.2s0,1.1,0,2.2s0,1.1,0,2.2s0.2,1.1,0.2,2.2c0,1.1,0.1,1.1,0.1,2.2c0,1.1-0.2,1.1-0.2,2.2
		c0,1.1,0,1.1,0,2.2c0,1.1,0.1,1.1,0.1,2.2c0,1.1,0.2,1.1,0.2,2.2c0,1.1-0.2,1.1-0.2,2.2c0,1.1,0,1.1,0,2.2c0,1.1,0.2,1.1,0.2,2.2
		c0,1.1-0.3,1.1-0.3,2.3c-0.1,0.7,0,1.5,0.2,2.2c0.7,0.1,1.4,0.3,2,0.5c0.7,0.1,1.4,0.4,2,0.6c0.8,0.3,1.5,0.6,2.2,1.1
		c0.3-1.1-0.5-1.2-0.5-2.3s0.3-1.1,0.3-2.2c0-1.1-0.2-1.1-0.2-2.2c0-1.1,0.2-1.1,0.2-2.2s0-1.1,0-2.2c0-1.1,0.2-1.1,0.2-2.2
		c0-1.1-0.3-1.1-0.3-2.2s0.2-1.1,0.2-2.2c0-1.1-0.2-1.1-0.2-2.2s0.2-1.1,0.2-2.2c0-1.1-0.4-1.1-0.4-2.2s0-1.1,0-2.2
		c0-1.1,0.3-1.1,0.3-2.2c0-1.1,0-1.1,0-2.2S36,134.1,36,133c0-1.1,0.3-1.1,0.3-2.2c0-1.1,0-1.1,0-2.2s-0.3-1.1-0.3-2.2
		s0.2-1.1,0.2-2.2c0-1.1-0.2-1.1-0.2-2.2c0-1.1,0.3-1.1,0.3-2.2s-0.4-1.1-0.4-2.2c0-1.1,0-1.1,0-2.2c0-1.1,0.4-1.1,0.4-2.2
		c0-1.1,0-1.1,0-2.2s-0.4-1.1-0.4-2.2c0-1.1,0.2-1.1,0.2-2.2c0-1.1,0.1-1.1,0.1-2.2c0-1.1,0-1.1,0-2.2s-0.3-1.1-0.3-2.2
		c0-1.1,0.1-1.1,0.1-2.2c0-1.1-0.1-1.1-0.1-2.2c0-1.1-0.1-1.1-0.1-2.2c0-1.1,0.1-1.1,0.1-2.2s0.4-1.1,0.4-2.2s-0.1-1.1-0.1-2.2
		c0-1.1-0.1-1.1-0.1-2.2c0-1.1-0.1-1.1-0.1-2.2s0.1-1.1,0.1-2.2c0-1.1-0.1-1.1-0.1-2.2c0-1.1-0.2-1.1-0.2-2.2c0-1.1,0.5-1.1,0.5-2.2
		c0-1.1,0-1.1,0-2.2s-0.1-1.1-0.1-2.2S36,66.9,36,65.8c0-1.1,0.2-1.1,0.2-2.2c0-1.1,0-1.1,0-2.2c0-1.1,0-1.1,0-2.2s0-1.1,0-2.2
		c0-1.1,0.1-1.1,0.1-2.2c0-1.1-0.1-1.1-0.1-2.2s-0.1-1.1-0.1-2.2c0-1.1,0.1-1.1,0.1-2.2s-0.4-1.1-0.4-2.2c0-1.1,0.4-1.1,0.4-2.2
		s-0.4-1.1-0.4-2.2s0.3-1.1,0.3-2.2c0-1.1-0.3-1.1-0.3-2.2c0-1.1,0.4-1.1,0.4-2.2c0-1.1-0.3-1.1-0.3-2.2s-0.2-1.1-0.2-2.2
		c0-1.1,0.1-1.1,0.1-2.2c0-1.1-0.1-1.1-0.1-2.2s0.1-1.1,0.1-2.2s0.3-1.1,0.3-2.2s0-1.1,0-2.2c0-1.1,0-1.1,0-2.2s-0.4-1.1-0.4-2.2
		s0.1-1.1,0.1-2.2S36,10.8,36,9.7c0-1.1-0.2-1.1-0.2-2.2s0-1.1,0-2.2S36,4.1,36,2.9s0.7-1.4-0.1-2.2c-0.8-0.8-0.9-0.3-2-0.3
		s-1.1,0.5-2,0.3C30.9,0.5,30.6-0.2,29.9,0.6z"/>
	<path class="st3" d="M36.3,119.3c0-0.2-0.1-0.4-0.1-0.7C36.2,118.9,36.2,119.1,36.3,119.3z"/>
	<path class="st4" d="M45.6,48.3c0.3,1.2,0.3,1.2,0.6,2.4c0.3,1.2-0.2,1.5,0.6,2.5c0.8,1,1.2,0.4,2.4,0.9c1.1,0.5,1.1,0.6,2.2,1.1
		c0.2,0.1,0.4,0.2,0.5,0.4c0.1,0.2,0.2,0.4,0.2,0.6c0,0.2,0,0.4-0.1,0.6c-0.1,0.2-0.2,0.3-0.4,0.4c-1.1,0.6-1.1,0.6-2.1,1.3
		c-1.1,0.6-1.6,0.1-2.2,1.2c-0.7,1-0.1,1.3-0.2,2.5c-0.1,1.2-0.3,1.2-0.4,2.5c0,0.2,0,0.4-0.1,0.6c-0.1,0.2-0.3,0.3-0.4,0.4
		c-0.2,0.1-0.4,0.1-0.6,0.1c-0.2,0-0.4-0.1-0.5-0.3c-0.9-0.8-1-0.7-1.9-1.6c-0.9-0.8-0.5-1.6-1.7-1.9s-1.3,0.2-2.5,0.5
		c-1.2,0.3-1.2,0.3-2.4,0.5c-0.2,0.1-0.4,0.1-0.6,0c-0.2-0.1-0.4-0.2-0.5-0.3c-0.1-0.1-0.2-0.3-0.3-0.5c0-0.2,0-0.4,0-0.6
		c0.5-1.1,0.8-1,1.3-2.2c0.5-1.2,0.9-1.1,0.8-2.3c-0.1-1.2-0.6-1.1-1.2-2.2c-0.6-1.1-0.8-1-1.4-2.1c-0.1-0.2-0.1-0.4-0.1-0.6
		c0-0.2,0.1-0.4,0.2-0.6c0.1-0.2,0.3-0.3,0.5-0.4c0.2-0.1,0.4-0.1,0.6-0.1c1.2,0.1,1.2,0.1,2.5,0.2c1.2,0.1,1.3,0.5,2.4,0
		s0.8-0.9,1.6-1.8c0.8-0.9,1-0.8,1.8-1.7c0.1-0.2,0.3-0.3,0.4-0.3c0.2-0.1,0.4-0.1,0.5,0c0.2,0,0.3,0.1,0.5,0.3
		C45.5,47.9,45.6,48.1,45.6,48.3z"/>
	<path class="st5" d="M11.5,118.3c1.2,0,1.2-0.1,2.5-0.1c1.2,0,1.4,0.8,2.5,0.3c1.1-0.5,0.6-1.1,1.4-2.1c0.8-1,1-0.8,1.8-1.8
		c0.1-0.2,0.3-0.3,0.5-0.4c0.2-0.1,0.4-0.1,0.6-0.1c0.2,0,0.4,0.1,0.5,0.2c0.2,0.1,0.3,0.3,0.3,0.5c0.3,1.2,0.3,1.2,0.6,2.4
		c0.3,1.2-0.2,1.6,0.6,2.5c0.8,0.9,1.3,0.2,2.5,0.7s1.1,0.6,2.3,1.1c0.2,0.1,0.4,0.2,0.5,0.3c0.1,0.2,0.2,0.3,0.2,0.5
		c0,0.2,0,0.4-0.1,0.6c-0.1,0.2-0.2,0.3-0.4,0.4c-1,0.7-1.1,0.6-2.1,1.3c-1,0.7-1.4,0.4-2,1.5c-0.6,1.1,0,1.3,0,2.5
		c-0.1,1.2,0,1.2-0.1,2.5c0,0.2-0.1,0.4-0.2,0.6c-0.1,0.2-0.3,0.3-0.5,0.4c-0.2,0.1-0.4,0.1-0.6,0.1c-0.2,0-0.4-0.1-0.6-0.2
		c-1-0.8-1-0.8-1.9-1.6c-0.9-0.8-0.7-1.3-2-1.5c-1.3-0.2-1.2,0.3-2.4,0.6s-1.2,0.3-2.4,0.6c-0.2,0.1-0.4,0.1-0.6,0
		c-0.2-0.1-0.4-0.2-0.5-0.3c-0.1-0.1-0.2-0.3-0.3-0.5c0-0.2,0-0.4,0-0.6c0.4-1.2,0.5-1.1,1-2.3s0.8-1.1,0.6-2.4
		c-0.1-1.2-0.5-1.1-1.1-2.2s-0.9-0.9-1.6-1.9c-0.1-0.2-0.2-0.4-0.1-0.6c0-0.2,0.1-0.4,0.2-0.6c0.1-0.2,0.3-0.3,0.5-0.4
		C11,118.3,11.3,118.3,11.5,118.3z"/>
	<path class="st1" d="M528,0.9c0.8,0.8,0.3,0.9,0.3,2.1s-0.1,1.1-0.1,2.3s0,1.1,0,2.3s0.2,1.1,0.2,2.2c0,1.1,0,1.1,0,2.3
		s0,1.1,0,2.2s-0.2,1.1-0.2,2.2s0,1.1,0,2.3c0,1.1,0.2,1.1,0.2,2.2c0,1.1-0.5,1.2-0.5,2.2c0,1.1,0.5,1.1,0.5,2.3
		c0,1.1-0.1,1.1-0.1,2.2c0,1.1,0,1.1,0,2.3c0,1.1,0.1,1.1,0.1,2.3c0,1.1-0.4,1.1-0.4,2.3s0.4,1.1,0.4,2.3c0,1.1-0.3,1.1-0.3,2.3
		s0.4,1.1,0.4,2.2s0,1.1,0,2.3c0,1.1-0.1,1.1-0.1,2.2c0,1.1,0,1.1,0,2.3s-0.1,1.1-0.1,2.2s0,1.1,0,2.3c0,1.1-0.1,1.1-0.1,2.3
		c0,1.1,0.1,1.1,0.1,2.2c0,1.1,0,1.1,0,2.3s0,1.1,0,2.3c0,1.1-0.1,1.1-0.1,2.3s0.4,1.1,0.4,2.2c0,1.1-0.2,1.1-0.2,2.3
		c0,1.1-0.1,1.1-0.1,2.3s-0.1,1.1-0.1,2.2s-0.2,1.1-0.2,2.3c0,1.1,0.4,1.1,0.4,2.3v2.3c0,1.1,0,1.1,0,2.3c0,1.1-0.1,1.1-0.1,2.2
		c0,1.1,0,1.1,0,2.3c0,1.1,0.1,1.1,0.1,2.3c0,1.1-0.3,1.1-0.3,2.3s0,1.1,0,2.3c0,1.1,0.5,1.1,0.5,2.3c0,1.1-0.4,1.1-0.4,2.3
		s0,1.1,0,2.3c0,1.1,0.2,1.1,0.2,2.2c0,1.1,0.2,1.1,0.2,2.3s-0.3,1.1-0.3,2.3c0,1.1,0.2,1.1,0.2,2.3c0,1.1-0.1,1.1-0.1,2.3
		c0,1.1-0.4,1.1-0.4,2.3s0.1,1.1,0.1,2.3c0,1.1,0.3,1.1,0.3,2.2c0,1.1-0.1,1.1-0.1,2.3c0,1.1-0.1,1.1-0.1,2.3v2.3
		c0,1.1,0.2,1.1,0.2,2.3c0,1.1-0.3,1.1-0.3,2.2c0,1.1,0.1,1.1,0.1,2.3c0,1.1,0,1.1,0,2.2c0,1.1,0.2,1.1,0.2,2.3
		c0,1.1,0.1,1.1,0.1,2.3c0,1.1-0.4,1.1-0.4,2.3s0.2,1.1,0.2,2.3c0,1.1-0.1,1.1-0.1,2.3v2.3c0,1.1-0.2,1.1-0.2,2.3
		c0,1.1,0.5,1.1,0.5,2.3c0,1.1,0,1.1,0,2.3c0,1.1-0.2,1.1-0.2,2.3c0,1.1-0.2,1.1-0.2,2.3c0,1.1-0.1,1.1-0.1,2.3s0.5,1.1,0.5,2.3
		c0,0.2-0.1,0.5-0.2,0.7c-0.1,0.2-0.3,0.4-0.5,0.6c-0.2,0.2-0.4,0.3-0.6,0.3c-0.2,0.1-0.5,0.1-0.7,0.1c-0.8-0.2-1.5-0.4-2.3-0.4
		c-0.8,0-1.6,0.1-2.4,0.3c-0.8,0.2-1.5,0.5-2.2,0.9c-0.7,0.4-1.3,0.9-1.9,1.4c-0.6,0.5-1.3,1-1.8,1.5c-0.4,0.6-0.9,1.2-1.5,1.8
		c-0.6,0.5-1.2,1-1.8,1.4c-0.7,0.3-1.5,0.5-2.2,0.7c-0.7,0.2-1.5,0.3-2.2,0.4c-0.8,0.1-1.5,0.1-2.3,0c-0.8-0.1-1.5-0.3-2.2-0.5
		c-0.7-0.3-1.1-0.9-1.6-1.3c-0.6-0.3-1.2-0.7-1.7-1.2c-0.4-0.5-0.8-1.2-1-1.8c-0.2-0.6-0.4-1.3-0.4-2c0-0.8,0.3-0.9,0-1.6
		c-0.7,0-1.5,0-2.2,0.1c-0.7,0.2-1.4,0.5-2,0.8c-0.7,0.3-1.3,0.7-1.9,1.1c-0.9,0.6-1.7,1.3-2.4,2.1c-0.5,0.6-1,1.1-1.6,1.6
		c-0.5,0.6-1.1,1.1-1.7,1.5c-0.7,0.3-1.4,0.6-2.1,0.8c-0.7,0.2-1.5,0.3-2.2,0.3c-0.7,0-1.5,0-2.2-0.1c-0.7-0.1-1.5-0.3-2.2-0.5
		c-0.7-0.2-1.3-0.4-2-0.7c-0.6-0.4-1-0.9-1.5-1.5c-0.4-0.5-0.8-1.2-1-1.8c-0.2-0.6-0.3-1.3-0.3-2c0-1.1,0.1-1.1,0.1-2.2
		s-0.3-1.1-0.3-2.2s0-1.1,0-2.2c0-1.1,0.3-1.1,0.3-2.2s-0.1-1.1-0.1-2.2c0-1.1,0-1.1,0-2.2s0.2-1.1,0.2-2.2s-0.3-1.1-0.3-2.2
		s0.3-1.1,0.3-2.2c0-1.1-0.2-1.1-0.2-2.2s-0.2-1.1-0.2-2.2c0-1.1,0.4-1.1,0.4-2.2c0-1.1,0-1.1,0-2.2c0-1.1-0.2-1.1-0.2-2.2
		s0-1.1,0-2.2c0-1.1-0.3-1.1-0.3-2.2s0.1-1.1,0.1-2.2c0-1.1,0-1.1,0-2.2s0-1.1,0-2.2c0-1.1,0-1.1,0-2.2s0.2-1.1,0.2-2.2
		s-0.3-1.1-0.3-2.2s0.1-1.1,0.1-2.2c0-1.1,0.3-1.1,0.3-2.2s-0.3-1.1-0.3-2.2s-0.1-1.1-0.1-2.2s0.3-1.1,0.3-2.2c0-1.1,0-1.1,0-2.2
		c0-1.1-0.1-1.1-0.1-2.2s-0.3-1.1-0.3-2.2c0-1.1,0.1-1.1,0.1-2.2c0-1.1,0-1.1,0-2.2s0-1.1,0-2.2c0-1.1,0.1-1.1,0.1-2.2
		s0.1-1.1,0.1-2.2c0-1.1-0.4-1.1-0.4-2.2s0.5-1.1,0.5-2.2c0-1.1-0.4-1.1-0.4-2.2c0-1.1,0.1-1.1,0.1-2.2s0.2-1.1,0.2-2.2
		c0-1.1-0.1-1.1-0.1-2.2c0-1.1,0.2-1.1,0.2-2.2s-0.2-1.1-0.2-2.2v-2.2c0-1.1-0.1-1.1-0.1-2.2c0-1.1,0.3-1.1,0.3-2.2
		c0-1.1-0.4-1.1-0.4-2.2s0-1.1,0-2.2c0-1.1,0-1.1,0-2.2s0.4-1.1,0.4-2.2s-0.1-1.1-0.1-2.2c0-1.1-0.1-1.1-0.1-2.2s0.2-1.1,0.2-2.2
		s-0.1-1.1-0.1-2.2s-0.2-1.1-0.2-2.2s0-1.1,0-2.2s0.2-1.1,0.2-2.2c0-1.1,0-1.1,0-2.2c0-1.1-0.1-1.1-0.1-2.2s-0.1-1.1-0.1-2.2
		c0-1.1-0.2-1.1-0.2-2.2c0-1.1,0-1.1,0-2.2c0-1.1,0-1.1,0-2.2s0-1.1,0-2.2c0-1.1,0.3-1.1,0.3-2.2c0-1.1-0.3-1.1-0.3-2.2
		c0-1.1,0.3-1.1,0.3-2.2s0-1.1,0-2.2s0-1.1,0-2.2s-0.2-1.1-0.2-2.2c0-1.1,0.2-1.1,0.2-2.2s-0.1-1.1-0.1-2.2s0.1-1.1,0.1-2.2
		s-0.9-1.4-0.1-2.2c0.8-0.8,1.1-0.3,2.2-0.3c1.1,0,1.1,0.4,2.3,0.4c1.1,0,1.1-0.1,2.3-0.1c1.1,0,1.1-0.1,2.3-0.1
		c1.1,0,1.1-0.1,2.3-0.1s1.1,0.2,2.3,0.2c1.1,0,1.1,0.2,2.3,0.2c1.1,0,1.1-0.4,2.3-0.4c1.1,0,1.1,0.3,2.3,0.3h2.3
		c1.1,0,1.1,0.1,2.3,0.1c1.1,0,1.1,0,2.3,0c1.1,0,1.1-0.1,2.3-0.1c1.1,0,1.1,0.2,2.3,0.2s1.1,0,2.3,0c1.1,0,1.1-0.1,2.3-0.1
		c1.1,0,1.1,0.1,2.3,0.1c1.1,0,1.1-0.2,2.3-0.2c1.1,0,1.1,0.3,2.3,0.3s1.1-0.5,2.3-0.5c1.1,0,1.1,0.4,2.3,0.4s1.1-0.3,2.3-0.3
		c1.2,0,1.2,0.5,2.3,0.3C527.1,0.9,527.2,0.1,528,0.9z"/>
	<path class="st2" d="M499,0.7c0.8,0.8-0.2,1.2-0.2,2.3s-0.1,1.1-0.1,2.2s0.1,1.1,0.1,2.2s0.2,1.1,0.2,2.3c0,1.1,0,1.1,0,2.2
		s0.1,1.1,0.1,2.2s-0.1,1.1-0.1,2.2v2.2c0,1.1,0.1,1.1,0.1,2.2c0,1.1,0.1,1.1,0.1,2.2c0,1.1-0.1,1.1-0.1,2.2s-0.1,1.1-0.1,2.2
		c0,1.1,0.2,1.1,0.2,2.2c0,1.1-0.1,1.1-0.1,2.2s-0.1,1.1-0.1,2.2c0,1.1,0.1,1.1,0.1,2.2c0,1.1,0.1,1.1,0.1,2.2
		c0,1.1-0.2,1.1-0.2,2.2c0,1.1,0,1.1,0,2.2s0.1,1.1,0.1,2.2c0,1.1,0,1.1,0,2.2s-0.1,1.1-0.1,2.2c0,1.1,0.3,1.1,0.3,2.2
		s-0.3,1.1-0.3,2.2s0.2,1.1,0.2,2.2c0,1.1-0.1,1.1-0.1,2.2c0,1.1-0.1,1.1-0.1,2.2s-0.1,1.1-0.1,2.2s0.2,1.1,0.2,2.2s0.2,1.1,0.2,2.2
		c0,1.1,0.1,1.1,0.1,2.2c0,1.1-0.3,1.1-0.3,2.2c0,1.1-0.1,1.1-0.1,2.2c0,1.1,0.3,1.1,0.3,2.2c0,1.1,0,1.1,0,2.2s-0.3,1.1-0.3,2.2
		c0,1.1,0.1,1.1,0.1,2.2V86c0,1.1,0.2,1.1,0.2,2.2c0,1.1,0.1,1.1,0.1,2.2c0,1.1-0.4,1.1-0.4,2.2c0,1.1,0,1.1,0,2.2s0.2,1.1,0.2,2.2
		s-0.1,1.1-0.1,2.2c0,1.1-0.1,1.1-0.1,2.2c0,1.1,0.4,1.1,0.4,2.2c0,1.1-0.4,1.1-0.4,2.2c0,1.1,0.3,1.1,0.3,2.2
		c0,1.1-0.2,1.1-0.2,2.2s0.3,1.1,0.3,2.2s-0.3,1.1-0.3,2.3c0,1.2-0.2,1.1-0.2,2.2s0,1.1,0,2.2c0,1.1,0.2,1.1,0.2,2.2
		c0,1.1-0.1,1.1-0.1,2.2c0,1.1-0.1,1.1-0.1,2.2s0,1.1,0,2.2c0,1.1,0.1,1.1,0.1,2.2s0.3,1.1,0.3,2.2s0,1.1,0,2.2
		c0,1.1-0.1,1.1-0.1,2.2c0,1.1-0.1,1.1-0.1,2.2c0,1.1-0.3,1.1-0.3,2.2c0,1.1,0.1,1.1,0.1,2.2c0,1.1,0.1,1.1,0.1,2.2
		c0,1.1-0.1,1.1-0.1,2.2c0,1.1,0.2,1.1,0.2,2.2c0,1.1-0.3,1.1-0.3,2.2s0.2,1.1,0.2,2.3c0,1.1,0.1,1.1,0.1,2.2c0,1.1-0.3,1.1-0.3,2.2
		c0,1.1,0,1.1,0,2.2c0,1.1,0.2,1.1-0.1,2.2c-0.7,0.1-1.3,0.2-1.9,0.4c-0.7,0.1-1.5,0.2-2.2,0.4c-0.6,0.4-1.1,0.8-1.6,1.3
		c-0.4-1.1-0.1-1-0.1-2.2s0-1.1,0-2.2s-0.4-1.1-0.4-2.2c0-1.1,0.1-1.1,0.1-2.2c0-1.1,0-1.1,0-2.2s0.1-1.1,0.1-2.2
		c0-1.1-0.1-1.1-0.1-2.2c0-1.1-0.1-1.1-0.1-2.2s0.3-1.1,0.3-2.2c0-1.1-0.2-1.1-0.2-2.2c0-1.1,0.1-1.1,0.1-2.2c0-1.1,0.2-1.1,0.2-2.2
		v-2.2c0-1.1,0-1.1,0-2.2s-0.3-1.1-0.3-2.2c0-1.1,0.4-1.1,0.4-2.2c0-1.1-0.4-1.1-0.4-2.2c0-1.1,0.2-1.1,0.2-2.2c0-1.1,0-1.1,0-2.2
		s0.2-1.1,0.2-2.2c0-1.1,0-1.1,0-2.2c0-1.1-0.4-1.1-0.4-2.2s0.4-1.1,0.4-2.2c0-1.1-0.1-1.1-0.1-2.2c0-1.1-0.2-1.1-0.2-2.2
		c0-1.1,0.1-1.1,0.1-2.2s0.2-1.1,0.2-2.2c0-1.1-0.2-1.1-0.2-2.2c0-1.1,0.2-1.1,0.2-2.2c0-1.1-0.2-1.1-0.2-2.2s0.1-1.1,0.1-2.2
		c0-1.1-0.1-1.1-0.1-2.2c0-1.1,0.2-1.1,0.2-2.2c0-1.1-0.4-1.1-0.4-2.2s0-1.1,0-2.2c0-1.1,0.4-1.1,0.4-2.2c0-1.1-0.3-1.1-0.3-2.2
		c0-1.1,0.2-1.1,0.2-2.2c0-1.1-0.3-1.1-0.3-2.2s0.3-1.1,0.3-2.2c0-1.1-0.4-1.1-0.4-2.2c0-1.1,0.2-1.1,0.2-2.2c0-1.1,0.2-1.1,0.2-2.2
		s0-1.1,0-2.2c0-1.1-0.2-1.1-0.2-2.2c0-1.1,0-1.1,0-2.2s0-1.1,0-2.2c0-1.1,0.2-1.2,0.2-2.3c0-1.1,0.1-1.1,0.1-2.2s-0.4-1.1-0.4-2.2
		c0-1.1,0.3-1.1,0.3-2.2c0-1.1-0.2-1.1-0.2-2.2s0.1-1.1,0.1-2.2c0-1.1-0.1-1.1-0.1-2.2s-0.1-1.1-0.1-2.2c0-1.1-0.1-1.1-0.1-2.2
		s0.1-1.1,0.1-2.2s0-1.1,0-2.2c0-1.1,0-1.1,0-2.2c0-1.1,0.4-1.1,0.4-2.2c0-1.1-0.1-1.1-0.1-2.2c0-1.1,0-1.1,0-2.2
		c0-1.1-0.1-1.1-0.1-2.2c0-1.1,0.1-1.1,0.1-2.2c0-1.1,0-1.1,0-2.2s-0.4-1.1-0.4-2.2s0.1-1.1,0.1-2.2s0.3-1.1,0.3-2.2
		s-0.4-1.1-0.4-2.2s-0.1-1.1-0.1-2.2c0-1.1,0.3-1.1,0.3-2.3s-0.1-1.1-0.1-2.2s0.2-1.1,0.2-2.2s-0.7-1.2,0.1-2.1
		c0.8-0.8,0.8-0.4,1.9-0.4c1,0,1,0.3,2,0.1S498.3-0.1,499,0.7z"/>
	<path class="st5" d="M475.2,134.9l3-3.9l5,0.1c0.2,0,0.4-0.1,0.6-0.2c0.2-0.1,0.3-0.3,0.4-0.4c0.1-0.2,0.1-0.4,0.1-0.6
		c0-0.2-0.1-0.4-0.2-0.6l-2.8-4.1l1.6-4.7c0.1-0.2,0.1-0.4,0-0.6s-0.1-0.4-0.3-0.5c-0.1-0.1-0.3-0.3-0.5-0.3c-0.2-0.1-0.4,0-0.6,0
		l-4.8,1.4l-3.4-2.6c0.2,0.4,0.2,0.9,0.2,1.4c0,1.1-0.2,1.1-0.2,2.2c0,1.1,0,1.1,0,2.2s0,1.1,0,2.2c0,1.1,0,1.1,0,2.2
		c0,1.1-0.1,1.1-0.1,2.2s0.3,1.1,0.3,2.2c0,1.1,0,1.1,0,2.2v0.1c0.1,0.1,0.2,0.2,0.4,0.3c0.1,0.1,0.3,0.1,0.5,0.1
		c0.2,0,0.3-0.1,0.4-0.1C474.9,135.2,475.1,135.1,475.2,134.9z"/>
	<path class="st5" d="M498.8,61.3c0,1.1-0.1,1.1-0.1,2.2c0,1.1,0.1,1.1,0.1,2.2c0,0.2-0.1,0.4-0.1,0.5c0.1-1-0.3-1.1,0.3-1.9
		c0.7-1,1.1-0.6,2.1-1.2c1.1-0.6,1-0.7,2.1-1.4c0.2-0.1,0.3-0.2,0.4-0.4c0.1-0.2,0.1-0.4,0.1-0.6c0-0.2-0.1-0.4-0.2-0.6
		c-0.1-0.2-0.3-0.3-0.4-0.4l-2.2-1c-0.7-0.4-1.4-0.8-2.1-1c-0.1,0.4-0.1,0.8-0.2,1.2C498.8,60.2,498.8,60.2,498.8,61.3z"/>
	<path class="st4" d="M521.7,80.7l-2.1-0.1c-1,0-1-0.2-2.1-0.2c-1.1,0-1.1,0.3-2-0.2s-0.9-0.6-1.4-1.4c-0.6-0.8-0.6-0.9-1.2-1.7
		s-0.4-1-0.9-1.9c-0.2-0.2-0.4-0.4-0.6-0.5c-0.2-0.1-0.5-0.1-0.8-0.1s-0.5,0.1-0.7,0.3c-0.2,0.2-0.4,0.4-0.5,0.6
		c-0.4,1-0.5,0.9-0.9,1.9c-0.4,1-0.1,1.1-0.4,2.1c-0.4,1,0,1.2-0.8,2s-1.1,0.1-2.1,0.4c-1,0.3-1,0.4-2,0.7c-1,0.3-1,0.5-1.9,0.8
		c-0.2,0.1-0.4,0.2-0.6,0.4c-0.2,0.2-0.3,0.4-0.3,0.6c0,0.2,0,0.5,0.1,0.7s0.3,0.4,0.5,0.5c0.8,0.6,0.6,0.8,1.5,1.5
		c0.8,0.6,0.9,0.6,1.7,1.2c0.8,0.6,1.1,0.4,1.5,1.3c0.5,0.9,0.1,1,0.1,2s0.2,1,0.1,2.1c0,1.1-0.2,1-0.3,2.1c0,0.3,0.1,0.5,0.2,0.7
		c0.1,0.2,0.3,0.4,0.5,0.5s0.5,0.2,0.7,0.2c0.3,0,0.5-0.1,0.7-0.2c0.9-0.6,0.7-0.8,1.6-1.3c0.9-0.6,1-0.4,1.8-1
		c0.9-0.6,0.6-1.2,1.6-1.4s1,0.3,2,0.6c1,0.3,0.9,0.6,1.9,0.9c1,0.3,1.1,0.1,2.1,0.4c0.2,0.1,0.5,0.1,0.7,0.1c0.2,0,0.5-0.1,0.7-0.3
		c0.2-0.2,0.3-0.4,0.4-0.6c0.1-0.2,0.1-0.5,0-0.7c-0.3-1-0.2-1-0.5-2c-0.3-1-0.4-1-0.7-2s-0.7-0.9-0.5-1.9c0.2-1,0.3-1,1-1.8
		c0.7-0.8,0.8-0.7,1.4-1.6c0.6-0.8,0.7-0.8,1.3-1.6c0.1-0.2,0.2-0.4,0.2-0.7c0-0.2,0-0.5-0.1-0.7c-0.1-0.2-0.3-0.4-0.5-0.5
		C522.2,80.8,522,80.7,521.7,80.7z"/>
</g>
</svg>
