<svg width="56" height="152" viewBox="0 0 56 152" fill="none" xmlns="http://www.w3.org/2000/svg">
<path d="M54.9559 -20.3219C55.7659 -19.5319 55.246 -19.322 55.246 -18.242C55.246 -17.162 55.1559 -17.112 55.1559 -15.982C55.1559 -14.852 55.1559 -14.8519 55.1559 -13.7219C55.1559 -12.5919 55.4059 -12.5919 55.4059 -11.4719C55.4059 -10.3519 55.4059 -10.3419 55.4059 -9.21193C55.4059 -8.08193 55.4059 -8.09193 55.4059 -6.96193C55.4059 -5.83193 55.2059 -5.83192 55.2059 -4.70192C55.2059 -3.57192 55.2059 -3.58192 55.2059 -2.45192C55.2059 -1.32192 55.366 -1.33192 55.366 -0.201923C55.366 0.928076 55.0359 0.928076 55.0359 2.04808C55.0359 3.16808 55.496 3.17809 55.496 4.30809C55.496 5.43809 55.4059 5.42809 55.4059 6.55809C55.4059 7.68809 55.4059 7.68804 55.4059 8.81804C55.4059 9.94803 55.486 9.94803 55.486 11.068C55.486 12.188 55.0759 12.198 55.0759 13.328C55.0759 14.458 55.436 14.4581 55.436 15.5881C55.436 16.7181 55.126 16.7181 55.126 17.8481C55.126 18.9781 55.5359 18.9681 55.5359 20.0981C55.5359 21.2281 55.5359 21.2281 55.5359 22.3581C55.5359 23.4881 55.4559 23.478 55.4559 24.608C55.4559 25.738 55.4559 25.7381 55.4559 26.8681C55.4559 27.9981 55.376 27.9881 55.376 29.1181V31.3781C55.376 32.5081 55.2759 32.508 55.2759 33.638C55.2759 34.768 55.356 34.7681 55.356 35.8981C55.356 37.0281 55.356 37.0181 55.356 38.1481C55.356 39.2781 55.356 39.2781 55.356 40.4081C55.356 41.5381 55.2659 41.5381 55.2659 42.6681C55.2659 43.7981 55.666 43.7881 55.666 44.9181C55.666 46.0481 55.4759 46.048 55.4759 47.178C55.4759 48.308 55.3959 48.3081 55.3959 49.4381C55.3959 50.5681 55.296 50.5681 55.296 51.6881C55.296 52.8081 55.1559 52.8181 55.1559 53.9481C55.1559 55.0781 55.5359 55.078 55.5359 56.208V58.4681C55.5359 59.5981 55.5359 59.5981 55.5359 60.7281C55.5359 61.8581 55.436 61.8581 55.436 62.9781C55.436 64.0981 55.436 64.108 55.436 65.238C55.436 66.368 55.5759 66.3681 55.5759 67.4981C55.5759 68.6281 55.2259 68.6281 55.2259 69.7581C55.2259 70.8881 55.2259 70.888 55.2259 72.018C55.2259 73.148 55.7159 73.1481 55.7159 74.2781C55.7159 75.4081 55.2859 75.4081 55.2859 76.5381C55.2859 77.6681 55.2859 77.668 55.2859 78.798C55.2859 79.928 55.4659 79.928 55.4659 81.048C55.4659 82.168 55.686 82.1781 55.686 83.3081C55.686 84.438 55.426 84.4381 55.426 85.5681C55.426 86.6981 55.6459 86.698 55.6459 87.828C55.6459 88.958 55.5859 88.9581 55.5859 90.0881C55.5859 91.218 55.2259 91.2181 55.2259 92.3481C55.2259 93.4781 55.306 93.478 55.306 94.608C55.306 95.738 55.6559 95.738 55.6559 96.858C55.6559 97.978 55.5259 97.9881 55.5259 99.118C55.5259 100.248 55.416 100.248 55.416 101.378V103.638C55.416 104.768 55.5759 104.768 55.5759 105.898C55.5759 107.028 55.306 107.028 55.306 108.148C55.306 109.268 55.376 109.288 55.376 110.418C55.376 111.548 55.376 111.548 55.376 112.668C55.376 113.788 55.566 113.808 55.566 114.938C55.566 116.068 55.6459 116.068 55.6459 117.198C55.6459 118.328 55.2759 118.328 55.2759 119.458C55.2759 120.588 55.4759 120.588 55.4759 121.718C55.4759 122.848 55.366 122.848 55.366 123.978V126.238C55.366 127.368 55.186 127.368 55.186 128.498C55.186 129.628 55.6459 129.628 55.6459 130.758C55.6459 131.888 55.6459 131.898 55.6459 133.028C55.6459 134.158 55.4059 134.158 55.4059 135.288C55.4059 136.418 55.246 136.418 55.246 137.558C55.246 138.698 55.176 138.688 55.176 139.828C55.176 140.968 55.626 140.958 55.626 142.088C55.6128 142.332 55.5494 142.571 55.4399 142.789C55.3304 143.008 55.1771 143.202 54.9894 143.358C54.8018 143.515 54.5839 143.631 54.3493 143.7C54.1147 143.769 53.8685 143.789 53.626 143.758C52.8765 143.517 52.1011 143.366 51.316 143.308C50.5201 143.313 49.7277 143.414 48.9559 143.608C48.194 143.841 47.4597 144.156 46.7659 144.548C46.0914 144.958 45.4613 145.438 44.8859 145.978C44.2368 146.435 43.631 146.951 43.0759 147.518C42.6365 148.145 42.1447 148.734 41.606 149.278C41.0432 149.809 40.4303 150.285 39.7759 150.698C39.0622 151.003 38.318 151.231 37.556 151.378C36.8263 151.592 36.0749 151.723 35.316 151.768C34.5553 151.858 33.7866 151.858 33.0259 151.768C32.2582 151.672 31.5035 151.491 30.7759 151.228C30.1059 150.958 29.6859 150.318 29.1459 149.928C28.5369 149.607 27.975 149.203 27.4759 148.728C27.0458 148.18 26.708 147.565 26.4759 146.908C26.2416 146.267 26.1231 145.59 26.126 144.908C26.126 144.128 26.436 144.048 26.126 143.338C25.3838 143.303 24.64 143.343 23.9059 143.458C23.2139 143.661 22.5439 143.932 21.9059 144.268C21.239 144.572 20.5999 144.933 19.996 145.348C19.1008 145.939 18.2813 146.638 17.556 147.428C17.0754 148.005 16.5468 148.54 15.9759 149.028C15.4519 149.582 14.876 150.084 14.256 150.528C13.5728 150.864 12.8553 151.126 12.116 151.308C11.3859 151.488 10.6378 151.586 9.88592 151.598C9.14044 151.643 8.39229 151.603 7.65594 151.478C6.91097 151.382 6.17949 151.201 5.47595 150.938C4.78501 150.772 4.11435 150.53 3.47595 150.218C2.82375 149.828 2.23382 149.343 1.72595 148.778C1.29922 148.228 0.961765 147.613 0.725948 146.958C0.492592 146.317 0.374135 145.64 0.375973 144.958C0.375973 143.838 0.43597 143.838 0.43597 142.728C0.43597 141.618 0.115963 141.608 0.115963 140.488C0.115963 139.368 0.115963 139.378 0.115963 138.258C0.115963 137.138 0.445919 137.138 0.445919 136.028C0.445919 134.918 0.335934 134.908 0.335934 133.788C0.335934 132.668 0.335934 132.668 0.335934 131.558C0.335934 130.448 0.525936 130.438 0.525936 129.328C0.525936 128.218 0.245968 128.208 0.245968 127.098C0.245968 125.988 0.585934 125.978 0.585934 124.868C0.585934 123.758 0.355953 123.748 0.355953 122.628C0.355953 121.508 0.155941 121.518 0.155941 120.398C0.155941 119.278 0.565975 119.288 0.565975 118.168C0.565975 117.048 0.565975 117.058 0.565975 115.938C0.565975 114.818 0.395931 114.828 0.395931 113.708C0.395931 112.588 0.395931 112.598 0.395931 111.478C0.395931 110.358 0.115963 110.358 0.115963 109.248C0.115963 108.138 0.235958 108.128 0.235958 107.008C0.235958 105.888 0.235958 105.888 0.235958 104.778C0.235958 103.668 0.235958 103.658 0.235958 102.538C0.235958 101.418 0.235958 101.428 0.235958 100.308C0.235958 99.188 0.485958 99.188 0.485958 98.078C0.485958 96.968 0.145931 96.9581 0.145931 95.8481C0.145931 94.7381 0.215938 94.728 0.215938 93.608C0.215938 92.488 0.535946 92.4981 0.535946 91.3781C0.535946 90.2581 0.215938 90.258 0.215938 89.148C0.215938 88.038 0.155941 88.0281 0.155941 86.9081C0.155941 85.7881 0.445919 85.798 0.445919 84.678C0.445919 83.558 0.395931 83.5581 0.395931 82.4381C0.395931 81.3181 0.335934 81.318 0.335934 80.208C0.335934 79.098 0.0759238 79.0881 0.0759238 77.9681C0.0759238 76.8481 0.17596 76.858 0.17596 75.738C0.17596 74.618 0.17596 74.6181 0.17596 73.5081C0.17596 72.3981 0.17596 72.388 0.17596 71.268C0.17596 70.148 0.245968 70.1581 0.245968 69.0381C0.245968 67.9181 0.395931 67.918 0.395931 66.798C0.395931 65.678 0.025936 65.6781 0.025936 64.5681C0.025936 63.4581 0.475948 63.448 0.475948 62.328C0.475948 61.208 0.115963 61.2181 0.115963 60.0981C0.115963 58.9781 0.255977 58.978 0.255977 57.858C0.255977 56.738 0.445919 56.7481 0.445919 55.6281C0.445919 54.5081 0.315975 54.508 0.315975 53.388C0.315975 52.268 0.485958 52.2681 0.485958 51.1581C0.485958 50.0481 0.245968 50.0381 0.245968 48.9181V46.678C0.245968 45.568 0.155941 45.5681 0.155941 44.4481C0.155941 43.3281 0.42596 43.328 0.42596 42.208C0.42596 41.0881 0.0759238 41.0881 0.0759238 39.9781C0.0759238 38.8681 0.0759238 38.858 0.0759238 37.738C0.0759238 36.618 0.0759238 36.6181 0.0759238 35.4981C0.0759238 34.3781 0.455929 34.378 0.455929 33.268C0.455929 32.158 0.365963 32.1481 0.365963 31.0281C0.365963 29.9081 0.285946 29.9081 0.285946 28.7881C0.285946 27.6681 0.515926 27.6781 0.515926 26.5581C0.515926 25.4381 0.455929 25.438 0.455929 24.328C0.455929 23.218 0.275936 23.2081 0.275936 22.0881C0.275936 20.9681 0.275936 20.9781 0.275936 19.8581C0.275936 18.7381 0.525936 18.7381 0.525936 17.6181C0.525936 16.4981 0.525936 16.498 0.525936 15.388C0.525936 14.278 0.415951 14.2681 0.415951 13.1481C0.415951 12.0281 0.335934 12.0281 0.335934 10.9081C0.335934 9.78806 0.165951 9.79808 0.165951 8.67808C0.165951 7.55808 0.165951 7.55803 0.165951 6.43803C0.165951 5.31803 0.165951 5.31804 0.165951 4.19804C0.165951 3.07804 0.165951 3.07805 0.165951 1.95805C0.165951 0.838049 0.465938 0.83806 0.465938 -0.28194C0.465938 -1.40194 0.125973 -1.40193 0.125973 -2.52193C0.125973 -3.64193 0.395931 -3.64197 0.395931 -4.75197C0.395931 -5.86197 0.395931 -5.87196 0.395931 -6.99196C0.395931 -8.11196 0.395931 -8.11195 0.395931 -9.23195C0.395931 -10.352 0.18597 -10.3519 0.18597 -11.4719C0.18597 -12.5919 0.415951 -12.5919 0.415951 -13.7119C0.415951 -14.8319 0.315975 -14.8319 0.315975 -15.9519C0.315975 -17.0719 0.415951 -17.0819 0.415951 -18.2019C0.415951 -19.3219 -0.464066 -19.6119 0.335934 -20.4019C1.13593 -21.1919 1.42597 -20.6619 2.56597 -20.6619C3.70598 -20.6619 3.70594 -20.312 4.84594 -20.312C5.98594 -20.312 5.98597 -20.432 7.12597 -20.432C8.26597 -20.432 8.26594 -20.562 9.40594 -20.562C10.5459 -20.562 10.536 -20.682 11.676 -20.682C12.816 -20.682 12.8159 -20.502 13.9559 -20.502C15.0959 -20.502 15.096 -20.292 16.236 -20.292C17.376 -20.292 17.3759 -20.6919 18.5159 -20.6919C19.6559 -20.6919 19.656 -20.4119 20.796 -20.4119H23.0759C24.2159 -20.4119 24.216 -20.312 25.356 -20.312C26.496 -20.312 26.4959 -20.312 27.6359 -20.312C28.7759 -20.312 28.776 -20.4619 29.916 -20.4619C31.056 -20.4619 31.0559 -20.242 32.1959 -20.242C33.3359 -20.242 33.346 -20.242 34.486 -20.242C35.626 -20.242 35.6259 -20.3319 36.7659 -20.3319C37.9059 -20.3319 37.906 -20.2219 39.046 -20.2219C40.186 -20.2219 40.1859 -20.4419 41.3259 -20.4419C42.4659 -20.4419 42.466 -20.1319 43.606 -20.1319C44.746 -20.1319 44.7459 -20.5919 45.8959 -20.5919C47.0459 -20.5919 47.036 -20.182 48.176 -20.182C49.316 -20.182 49.3159 -20.482 50.4659 -20.482C51.6159 -20.482 51.6559 -19.992 52.7859 -20.182C53.9159 -20.372 54.1459 -21.1219 54.9559 -20.3219Z" fill="#FFD0C0"/>
<path opacity="0.5" d="M31.1665 31.1981C31.4465 32.4181 31.4665 32.4081 31.7465 33.6281C32.0265 34.8481 31.5565 35.1181 32.3465 36.0881C33.1365 37.0581 33.5765 36.4781 34.7165 36.9881C35.8565 37.4981 35.7965 37.6181 36.9365 38.1281C37.1336 38.2015 37.3057 38.3294 37.4329 38.4969C37.5602 38.6645 37.6372 38.8646 37.655 39.0742C37.6728 39.2838 37.6307 39.4941 37.5336 39.6807C37.4365 39.8673 37.2883 40.0224 37.1065 40.1281C36.0365 40.7681 36.0264 40.7581 34.9564 41.3881C33.8864 42.0181 33.3965 41.5181 32.7265 42.5681C32.0565 43.6181 32.6665 43.8481 32.5365 45.0781C32.4065 46.3081 32.2465 46.2981 32.1065 47.5381C32.1138 47.7381 32.0609 47.9356 31.9547 48.1053C31.8485 48.2749 31.6939 48.4087 31.5108 48.4895C31.3277 48.5703 31.1246 48.5943 30.9277 48.5583C30.7308 48.5224 30.5492 48.4283 30.4065 48.2881C29.4665 47.4581 29.4064 47.5481 28.4564 46.7281C27.5064 45.9081 27.9265 45.1481 26.7165 44.8381C25.5065 44.5281 25.4265 45.0781 24.2165 45.3281C23.0065 45.5781 22.9965 45.6181 21.7865 45.8781C21.5884 45.931 21.3797 45.929 21.1826 45.8724C20.9856 45.8158 20.8077 45.7066 20.6679 45.5566C20.5282 45.4066 20.4319 45.2214 20.3894 45.0208C20.3468 44.8203 20.3597 44.6119 20.4265 44.4181C20.9165 43.2681 21.1965 43.4181 21.6865 42.2481C22.1765 41.0781 22.5864 41.1481 22.5164 39.9081C22.4464 38.6681 21.9665 38.7981 21.3465 37.7181C20.7265 36.6381 20.5764 36.7181 19.9564 35.6381C19.868 35.4534 19.8306 35.2484 19.8479 35.0444C19.8652 34.8403 19.9366 34.6446 20.0548 34.4774C20.1731 34.3102 20.3338 34.1777 20.5205 34.0934C20.7071 34.0091 20.9129 33.9762 21.1165 33.9981L23.5965 34.2481C24.8365 34.3681 24.8665 34.6981 26.0265 34.2481C27.1865 33.7981 26.8365 33.3981 27.6665 32.4781C28.4965 31.5581 28.6665 31.6981 29.5065 30.7781C29.6142 30.628 29.7646 30.5138 29.9382 30.4504C30.1118 30.387 30.3004 30.3773 30.4795 30.4226C30.6586 30.468 30.82 30.5662 30.9425 30.7045C31.0651 30.8428 31.1431 31.0148 31.1665 31.1981Z" fill="white"/>
<path d="M25.9449 -20.592C26.7049 -19.762 25.705 -19.372 25.705 -18.252C25.705 -17.132 25.605 -17.132 25.605 -16.012C25.605 -14.892 25.685 -14.892 25.685 -13.772C25.685 -12.652 25.895 -12.642 25.895 -11.522C25.895 -10.402 25.895 -10.402 25.895 -9.28199C25.895 -8.16199 25.955 -8.162 25.955 -7.042C25.955 -5.922 25.805 -5.92201 25.805 -4.80201V-2.56202C25.805 -1.44202 25.8849 -1.44197 25.8849 -0.32197C25.8849 0.798031 25.955 0.798019 25.955 1.91802C25.955 3.03802 25.825 3.03801 25.825 4.15801C25.825 5.27801 25.6949 5.278 25.6949 6.398C25.6949 7.518 25.915 7.51799 25.915 8.63799C25.915 9.75799 25.805 9.75798 25.805 10.878C25.805 11.998 25.685 11.998 25.685 13.128C25.685 14.258 25.815 14.248 25.815 15.368C25.815 16.488 25.915 16.488 25.915 17.608C25.915 18.728 25.715 18.738 25.715 19.858C25.715 20.978 25.715 20.978 25.715 22.098C25.715 23.218 25.835 23.218 25.835 24.338C25.835 25.458 25.835 25.458 25.835 26.578C25.835 27.698 25.725 27.698 25.725 28.778C25.725 29.858 26.055 29.898 26.055 31.018C26.055 32.138 25.795 32.148 25.795 33.268C25.795 34.388 25.975 34.388 25.975 35.508C25.975 36.628 25.845 36.628 25.845 37.758C25.845 38.888 25.755 38.878 25.755 39.998C25.755 41.118 25.655 41.118 25.655 42.248C25.655 43.378 25.815 43.368 25.815 44.488C25.815 45.608 26.045 45.608 26.045 46.728C26.045 47.848 26.105 47.848 26.105 48.968C26.105 50.088 25.835 50.088 25.835 51.218C25.835 52.348 25.705 52.338 25.705 53.458C25.705 54.578 26.045 54.578 26.045 55.708C26.045 56.838 26.045 56.828 26.045 57.948C26.045 59.068 25.735 59.068 25.735 60.198C25.735 61.328 25.805 61.318 25.805 62.438V64.678C25.805 65.808 26.005 65.808 26.005 66.928C26.005 68.048 26.145 68.048 26.145 69.168C26.145 70.288 25.775 70.298 25.775 71.418C25.775 72.538 25.775 72.538 25.775 73.658C25.775 74.778 26.005 74.788 26.005 75.908C26.005 77.028 25.865 77.028 25.865 78.158C25.865 79.288 25.735 79.278 25.735 80.398C25.735 81.518 26.095 81.518 26.095 82.648C26.095 83.778 25.735 83.768 25.735 84.888C25.735 86.008 26.055 86.008 26.055 87.138C26.055 88.268 25.8849 88.258 25.8849 89.378C25.8849 90.498 26.165 90.508 26.165 91.628C26.165 92.748 26.005 92.748 26.005 93.868C26.005 94.988 25.765 94.998 25.765 96.118C25.765 97.238 25.765 97.238 25.765 98.358C25.765 99.478 25.975 99.478 25.975 100.598C25.975 101.718 25.915 101.718 25.915 102.848C25.915 103.978 25.845 103.968 25.845 105.088C25.845 106.208 25.845 106.208 25.845 107.338C25.845 108.468 25.915 108.458 25.915 109.578C25.915 110.698 26.215 110.708 26.215 111.828C26.215 112.948 26.215 112.948 26.215 114.068C26.215 115.188 26.145 115.198 26.145 116.318C26.145 117.438 26.015 117.448 26.015 118.568C26.015 119.688 25.735 119.688 25.735 120.818C25.735 121.948 25.855 121.938 25.855 123.068C25.855 124.198 25.975 124.188 25.975 125.308C25.975 126.428 25.975 126.438 25.975 127.558C25.975 128.678 26.185 128.688 26.185 129.808C26.185 130.928 25.865 130.928 25.865 132.058C25.865 133.188 26.115 133.178 26.115 134.308C26.115 135.438 26.235 135.428 26.235 136.558C26.235 137.688 25.925 137.678 25.925 138.808C25.925 139.938 25.925 139.938 25.925 141.058C25.925 142.178 26.125 142.168 25.775 143.248C25.1215 143.3 24.4768 143.431 23.855 143.638C23.1158 143.703 22.3852 143.843 21.675 144.058C21.1141 144.425 20.5915 144.847 20.115 145.318C19.755 144.258 20.055 144.268 20.055 143.148C20.055 142.028 20.055 142.028 20.055 140.908C20.055 139.788 19.6349 139.788 19.6349 138.668C19.6349 137.548 19.715 137.548 19.715 136.428C19.715 135.308 19.715 135.308 19.715 134.188C19.715 133.068 19.785 133.068 19.785 131.948C19.785 130.828 19.725 130.828 19.725 129.708C19.725 128.588 19.625 128.588 19.625 127.468C19.625 126.348 19.905 126.348 19.905 125.228C19.905 124.108 19.665 124.118 19.665 122.998C19.665 121.878 19.725 121.878 19.725 120.758C19.725 119.638 19.955 119.638 19.955 118.518V116.288C19.955 115.168 19.955 115.168 19.955 114.048C19.955 112.928 19.6949 112.928 19.6949 111.808C19.6949 110.688 20.045 110.688 20.045 109.568C20.045 108.448 19.625 108.448 19.625 107.318C19.625 106.188 19.865 106.198 19.865 105.078C19.865 103.958 19.815 103.958 19.815 102.838C19.815 101.718 19.975 101.718 19.975 100.598C19.975 99.478 19.975 99.478 19.975 98.358C19.975 97.238 19.585 97.238 19.585 96.118C19.585 94.998 20.015 94.998 20.015 93.878C20.015 92.758 19.895 92.758 19.895 91.648C19.895 90.538 19.725 90.518 19.725 89.398C19.725 88.278 19.835 88.278 19.835 87.158C19.835 86.038 20.015 86.038 20.015 84.918C20.015 83.798 19.765 83.798 19.765 82.678C19.765 81.558 19.955 81.558 19.955 80.438C19.955 79.318 19.745 79.318 19.745 78.198C19.745 77.078 19.805 77.078 19.805 75.958C19.805 74.838 19.725 74.878 19.725 73.778C19.725 72.678 19.935 72.648 19.935 71.528C19.935 70.408 19.555 70.408 19.555 69.288C19.555 68.168 19.605 68.168 19.605 67.048C19.605 65.928 20.015 65.928 20.015 64.808C20.015 63.688 19.745 63.688 19.745 62.558C19.745 61.428 19.955 61.438 19.955 60.318C19.955 59.198 19.6349 59.198 19.6349 58.078C19.6349 56.958 19.975 56.958 19.975 55.838C19.975 54.718 19.595 54.718 19.595 53.588C19.595 52.458 19.795 52.468 19.795 51.348C19.795 50.228 19.985 50.228 19.985 49.108C19.985 47.988 19.985 47.988 19.985 46.868C19.985 45.748 19.825 45.738 19.825 44.618C19.825 43.498 19.825 43.498 19.825 42.378C19.825 41.258 19.825 41.258 19.825 40.138C19.825 39.018 19.745 39.018 19.745 37.888C19.745 36.758 19.895 36.768 19.895 35.648C19.895 34.528 19.515 34.528 19.515 33.408C19.515 32.288 19.795 32.278 19.795 31.158C19.795 30.038 19.625 30.038 19.625 28.918C19.625 27.798 19.755 27.798 19.755 26.678C19.755 25.558 19.665 25.558 19.665 24.438C19.665 23.318 19.525 23.318 19.525 22.198C19.525 21.078 19.425 21.078 19.425 19.958C19.425 18.838 19.545 18.828 19.545 17.708C19.545 16.588 19.545 16.588 19.545 15.468C19.545 14.348 19.545 14.348 19.545 13.228C19.545 12.108 19.905 12.098 19.905 10.978C19.905 9.85802 19.805 9.85803 19.805 8.73803C19.805 7.61803 19.805 7.61803 19.805 6.48803C19.805 5.35803 19.6949 5.36798 19.6949 4.24798C19.6949 3.12798 19.805 3.12798 19.805 1.99798C19.805 0.867977 19.805 0.877987 19.805 -0.242014C19.805 -1.36201 19.425 -1.37201 19.425 -2.49201C19.425 -3.61201 19.495 -3.61201 19.495 -4.74201C19.495 -5.87201 19.805 -5.862 19.805 -6.982C19.805 -8.102 19.455 -8.10199 19.455 -9.22199C19.455 -10.342 19.375 -10.352 19.375 -11.472C19.375 -12.592 19.6349 -12.602 19.6349 -13.722C19.6349 -14.842 19.515 -14.842 19.515 -15.972C19.515 -17.102 19.745 -17.092 19.745 -18.222C19.745 -19.352 19.045 -19.472 19.805 -20.312C20.565 -21.152 20.635 -20.702 21.655 -20.702C22.675 -20.702 22.655 -20.382 23.655 -20.622C24.655 -20.862 25.2649 -21.352 25.9449 -20.592Z" fill="#FFBBA7"/>
<path opacity="0.8" d="M49.1727 58.6383C48.2727 58.1283 48.8027 57.5883 48.1727 56.7383C47.5427 55.8883 47.4127 55.9983 46.8127 55.1383C46.2127 54.2783 46.3527 54.1983 45.8127 53.3483C45.6416 53.1392 45.4194 52.9777 45.1676 52.8796C44.9159 52.7815 44.643 52.75 44.3755 52.7882C44.108 52.8265 43.855 52.9331 43.6407 53.0977C43.4265 53.2624 43.2584 53.4796 43.1527 53.7283C42.7927 54.7283 43.0727 54.8083 42.7227 55.7783C42.3727 56.7483 42.3527 56.7783 41.9927 57.7283C41.6327 58.6783 41.7827 58.8283 40.9927 59.5483C40.2027 60.2683 39.9927 59.7683 38.9927 60.0683C37.9927 60.3683 38.0827 60.6483 37.0827 60.9483C36.0827 61.2483 36.0027 60.9483 35.0127 61.2683C34.7588 61.3715 34.5348 61.5364 34.3606 61.7479C34.1864 61.9595 34.0677 62.2111 34.0151 62.48C33.9625 62.7489 33.9777 63.0267 34.0593 63.2883C34.141 63.5499 34.2865 63.787 34.4827 63.9783C35.3027 64.6183 35.4827 64.3783 36.3027 64.9783C37.1227 65.5783 36.9427 65.8583 37.7627 66.4983C38.5827 67.1383 39.0627 66.6983 39.5127 67.6383C39.9627 68.5783 39.6127 68.6383 39.5927 69.7083C39.5727 70.7783 39.2927 70.7083 39.2727 71.7883C39.2527 72.8683 39.6227 72.8383 39.6027 73.8683C39.5625 74.1041 39.5949 74.3465 39.6957 74.5635C39.7964 74.7804 39.9607 74.9616 40.1667 75.0831C40.3728 75.2046 40.6109 75.2606 40.8495 75.2436C41.0881 75.2267 41.3159 75.1376 41.5027 74.9883C42.3627 74.4083 42.5027 74.5683 43.3227 73.9883C44.1427 73.4083 44.2227 73.4483 45.0827 72.8683C45.9427 72.2883 45.7027 71.8683 46.7327 71.7383C47.7627 71.6083 47.6327 72.0783 48.6127 72.4183L50.6127 73.0983C51.6127 73.4383 51.6127 73.2983 52.6127 73.6383C52.8562 73.721 53.1176 73.7356 53.3688 73.6804C53.6199 73.6253 53.8511 73.5025 54.0375 73.3253C54.2239 73.1482 54.3584 72.9235 54.4263 72.6755C54.4941 72.4275 54.4929 72.1657 54.4227 71.9183L53.8427 69.9183C53.5627 68.9183 53.4727 68.9183 53.1827 67.9183C52.8927 66.9183 52.5027 66.9183 52.6827 65.9183C52.8627 64.9183 53.1327 65.0083 53.6827 64.2183C54.2327 63.4283 54.8927 63.7583 55.2027 62.8183C55.5127 61.8783 55.2027 61.7583 55.2027 60.7383C55.2027 59.7183 55.7327 59.4583 55.0427 58.7383C54.3527 58.0183 54.0427 58.4883 53.0427 58.4583C52.3785 58.3775 51.7069 58.3775 51.0427 58.4583C50.1427 58.6383 50.0327 59.1183 49.1727 58.6383Z" fill="#FFAF99"/>
</svg>
