<svg width="446" height="158" viewBox="0 0 446 158" fill="none" xmlns="http://www.w3.org/2000/svg">
<path d="M0.661156 0.690138C1.71116 -0.379862 2.09115 0.690138 3.59115 0.690138C5.09115 0.690138 5.08115 0.460138 6.59115 0.460138C8.10115 0.460138 8.09115 0.770138 9.59115 0.770138H12.5911C14.0911 0.770138 14.0911 0.770138 15.5911 0.770138C17.0911 0.770138 17.0911 0.830138 18.5911 0.830138C20.0911 0.830138 20.0911 0.330138 21.5911 0.330138C23.0911 0.330138 23.0911 0.280137 24.5911 0.280137C26.0911 0.280137 26.0811 0.970138 27.5911 0.970138H30.5911C32.0911 0.970138 32.0911 0.760138 33.5911 0.760138C35.0911 0.760138 35.0911 0.140138 36.5911 0.140138C38.0911 0.140138 38.0812 0.490138 39.5911 0.490138C41.1011 0.490138 41.0911 0.490138 42.5911 0.490138C44.0911 0.490138 44.0911 0.490138 45.5911 0.490138C47.0911 0.490138 47.0911 0.550138 48.5911 0.550138C50.0911 0.550138 50.0911 0.730138 51.5911 0.730138C53.0911 0.730138 53.0911 0.880138 54.5911 0.880138C56.0911 0.880138 56.0911 0.450138 57.5911 0.450138C59.0911 0.450138 59.0911 0.800138 60.5911 0.800138C62.0911 0.800138 62.0911 0.290138 63.5911 0.290138C65.0911 0.290138 65.0911 0.580138 66.5911 0.580138C68.0911 0.580138 68.0911 0.270138 69.5911 0.270138C71.0911 0.270138 71.0911 0.980138 72.5911 0.980138C74.0911 0.980138 74.0911 0.280137 75.5911 0.280137C77.0911 0.280137 77.0911 0.370138 78.5911 0.370138C80.0911 0.370138 80.0911 0.700138 81.5911 0.700138C83.0911 0.700138 83.0911 0.400138 84.5911 0.400138H87.5911C89.0911 0.400138 89.0911 0.920138 90.5911 0.920138C92.0911 0.920138 92.0911 0.240137 93.5911 0.240137C95.0911 0.240137 95.0911 0.980138 96.5911 0.980138C98.0911 0.980138 98.0911 0.410138 99.5911 0.410138C101.091 0.410138 101.091 0.780138 102.591 0.780138H105.591C107.091 0.780138 107.091 0.470138 108.591 0.470138C110.091 0.470138 110.081 0.660138 111.591 0.660138C113.101 0.660138 113.091 1.01014 114.591 1.01014C116.091 1.01014 116.091 0.190138 117.591 0.190138C119.091 0.190138 119.091 0.480138 120.591 0.480138C122.091 0.480138 122.091 0.550138 123.591 0.550138C125.091 0.550138 125.091 0.970138 126.591 0.970138C128.091 0.970138 128.091 0.860138 129.591 0.860138C131.091 0.860138 131.091 1.00014 132.591 1.00014C134.091 1.00014 134.091 0.820138 135.591 0.820138C137.091 0.820138 137.091 0.390138 138.591 0.390138C140.091 0.390138 140.091 0.830138 141.591 0.830138C143.091 0.830138 143.091 0.970138 144.591 0.970138C146.091 0.970138 146.091 0.470138 147.591 0.470138C149.091 0.470138 149.091 0.340138 150.591 0.340138C152.091 0.340138 152.091 0.820138 153.591 0.820138C155.091 0.820138 155.091 0.670138 156.591 0.670138C158.091 0.670138 158.081 0.850138 159.591 0.850138C161.101 0.850138 161.091 0.490138 162.591 0.490138C164.091 0.490138 164.091 0.780138 165.591 0.780138C167.091 0.780138 167.091 0.540138 168.591 0.540138C170.091 0.540138 170.091 0.930138 171.591 0.930138C173.091 0.930138 173.091 0.290138 174.591 0.290138C176.091 0.290138 176.091 0.860138 177.591 0.860138C179.091 0.860138 179.091 0.170138 180.591 0.170138C182.091 0.170138 182.091 0.280137 183.591 0.280137C185.091 0.280137 185.091 0.570138 186.591 0.570138C188.091 0.570138 188.091 0.650138 189.591 0.650138C191.091 0.650138 191.091 1.00014 192.591 1.00014C194.091 1.00014 194.091 0.720138 195.591 0.720138C197.091 0.720138 197.091 0.830138 198.591 0.830138C200.091 0.830138 200.091 0.170138 201.591 0.170138C203.091 0.170138 203.091 0.510138 204.591 0.510138C206.091 0.510138 206.091 0.920138 207.591 0.920138C209.091 0.920138 209.101 0.210138 210.591 0.210138C212.081 0.210138 212.091 0.780138 213.591 0.780138C215.091 0.780138 215.091 0.920138 216.591 0.920138C218.091 0.920138 218.091 0.720138 219.591 0.720138C221.091 0.720138 221.091 0.970138 222.591 0.970138C224.091 0.970138 224.081 0.780138 225.591 0.780138C227.101 0.780138 227.091 0.700138 228.591 0.700138C230.091 0.700138 230.091 0.630138 231.591 0.630138C233.091 0.630138 233.101 0.320137 234.591 0.320137C236.081 0.320137 236.091 0.580138 237.591 0.580138C239.091 0.580138 239.091 0.690138 240.591 0.690138H243.591C245.091 0.690138 245.091 0.410138 246.591 0.410138C248.091 0.410138 248.091 0.720138 249.591 0.720138C251.091 0.720138 251.091 0.350138 252.591 0.350138C254.091 0.350138 254.091 0.270138 255.591 0.270138C257.091 0.270138 257.091 1.02014 258.591 1.02014C260.091 1.02014 260.091 0.530138 261.591 0.530138C263.091 0.530138 263.091 0.750138 264.591 0.750138C266.091 0.750138 266.091 0.350138 267.591 0.350138C269.091 0.350138 269.091 0.550138 270.591 0.550138C272.091 0.550138 272.091 0.280137 273.591 0.280137C275.091 0.280137 275.091 0.600138 276.591 0.600138C278.091 0.600138 278.091 0.770138 279.591 0.770138C281.091 0.770138 281.091 0.590138 282.591 0.590138C284.091 0.590138 284.091 0.370138 285.591 0.370138C287.091 0.370138 287.081 0.960138 288.591 0.960138C290.101 0.960138 290.091 0.470138 291.591 0.470138C293.091 0.470138 293.091 0.700138 294.591 0.700138C296.091 0.700138 296.091 0.280137 297.591 0.280137C299.091 0.280137 299.091 0.340138 300.591 0.340138C302.091 0.340138 302.091 1.03014 303.591 1.03014C305.091 1.03014 305.091 0.240137 306.591 0.240137C308.091 0.240137 308.091 0.900138 309.591 0.900138C311.091 0.900138 311.091 0.540138 312.591 0.540138C314.091 0.540138 314.091 0.230138 315.591 0.230138C317.091 0.230138 317.091 0.640138 318.591 0.640138C320.091 0.640138 320.091 0.180138 321.591 0.180138C323.091 0.180138 323.101 0.480138 324.591 0.480138C326.081 0.480138 326.091 0.950138 327.591 0.950138C329.091 0.950138 329.091 0.240137 330.591 0.240137C332.091 0.240137 332.091 0.240137 333.591 0.240137C335.091 0.240137 335.091 0.750138 336.591 0.750138C338.091 0.750138 338.091 0.640138 339.591 0.640138C341.091 0.640138 341.091 0.970138 342.591 0.970138C344.091 0.970138 344.091 0.510138 345.591 0.510138C347.091 0.510138 347.091 0.790138 348.591 0.790138C350.091 0.790138 350.091 0.890138 351.591 0.890138H354.591C356.091 0.890138 356.091 0.620138 357.591 0.620138C359.091 0.620138 359.091 0.900138 360.591 0.900138C362.091 0.900138 362.091 0.800138 363.591 0.800138C365.091 0.800138 365.091 0.200138 366.591 0.200138C368.091 0.200138 368.091 0.710138 369.591 0.710138C371.091 0.710138 371.091 0.410138 372.591 0.410138C374.091 0.410138 374.091 0.920138 375.591 0.920138C377.091 0.920138 377.091 0.920138 378.591 0.920138C380.091 0.920138 380.091 0.830138 381.591 0.830138C383.091 0.830138 383.101 0.910138 384.591 0.910138C386.081 0.910138 386.091 0.240137 387.591 0.240137C389.091 0.240137 389.091 0.990138 390.591 0.990138C392.091 0.990138 392.091 0.480138 393.591 0.480138C395.091 0.480138 395.091 0.620138 396.591 0.620138C398.091 0.620138 398.091 0.880138 399.591 0.880138C401.091 0.880138 401.091 0.310138 402.591 0.310138C404.091 0.310138 404.091 0.380138 405.591 0.380138C407.091 0.380138 407.101 0.800138 408.591 0.800138C410.081 0.800138 410.091 0.420138 411.591 0.420138C413.091 0.420138 413.091 1.04014 414.591 1.04014C416.091 1.04014 416.091 0.250138 417.591 0.250138C419.091 0.250138 419.091 0.950138 420.591 0.950138C422.091 0.950138 422.091 0.550138 423.591 0.550138C425.091 0.550138 425.101 1.04014 426.591 1.04014C428.081 1.04014 428.091 0.420138 429.591 0.420138C431.091 0.420138 431.101 0.170138 432.591 0.170138C434.081 0.170138 434.091 0.410138 435.591 0.410138C437.091 0.410138 437.091 0.650138 438.591 0.650138C440.091 0.650138 440.101 0.270138 441.591 0.270138C443.081 0.270138 443.591 -0.499862 444.591 0.560138C445.591 1.62014 444.171 2.11014 444.171 3.61014C444.171 5.11014 444.571 5.12014 444.571 6.61014C444.571 8.10014 444.701 8.12014 444.701 9.61014C444.701 11.1001 444.191 11.1201 444.191 12.6101C444.191 14.1001 444.271 14.1201 444.271 15.6101C444.271 17.1001 444.681 17.1201 444.681 18.6101C444.681 20.1001 444.251 20.1201 444.251 21.6101C444.251 23.1001 444.881 23.1201 444.881 24.6101C444.881 26.1001 444.231 26.1201 444.231 27.6101C444.231 29.1001 444.451 29.1201 444.451 30.6101C444.451 32.1001 444.121 32.1201 444.121 33.6101C444.121 35.1001 444.431 35.1101 444.431 36.6101C444.431 38.1101 444.581 38.1201 444.581 39.6101C444.581 41.1001 444.991 41.1201 444.991 42.6101C444.991 44.1001 444.401 44.1101 444.401 45.6101C444.401 47.1101 444.601 47.1101 444.601 48.6101C444.601 50.1101 444.381 50.1201 444.381 51.6101C444.381 53.1001 444.571 53.1201 444.571 54.6101C444.571 56.1001 444.981 56.1201 444.981 57.6101C444.981 59.1001 444.821 59.1201 444.821 60.6101C444.821 62.1001 444.321 62.1101 444.321 63.6101C444.321 65.1101 444.931 65.1101 444.931 66.6101C444.931 68.1101 444.141 68.1201 444.141 69.6101C444.141 71.1001 444.771 71.1101 444.771 72.6101V75.6101C444.771 77.1101 444.131 77.1101 444.131 78.6101C444.131 80.1101 444.881 80.1201 444.881 81.6101C444.881 83.1001 444.551 83.1101 444.551 84.6101C444.551 86.1101 444.111 86.1201 444.111 87.6101C444.111 89.1001 444.701 89.1201 444.701 90.6101C444.701 92.1001 444.341 92.1201 444.341 93.6101C444.341 95.1001 444.811 95.1201 444.811 96.6101C444.811 98.1001 444.921 98.1201 444.921 99.6101C444.921 101.1 444.281 101.11 444.281 102.61C444.281 104.11 444.431 104.12 444.431 105.61C444.431 107.1 444.201 107.11 444.201 108.61C444.201 110.11 444.931 110.11 444.931 111.61C444.931 113.11 444.471 113.12 444.471 114.61C444.471 116.1 444.711 116.11 444.711 117.61C444.711 119.11 444.651 119.12 444.651 120.61C444.651 122.1 444.411 122.12 444.411 123.61C444.411 125.1 444.171 125.12 444.171 126.61C444.171 128.1 444.971 128.12 444.971 129.61C444.971 131.1 444.971 131.12 444.971 132.61C444.971 134.1 444.971 134.12 444.971 135.61C444.971 137.1 444.411 137.12 444.411 138.61C444.411 140.1 444.411 140.12 444.411 141.61C444.411 143.1 444.741 143.12 444.741 144.61C444.741 146.1 444.741 146.12 444.741 147.61C444.741 149.1 444.841 149.12 444.841 150.61C444.841 152.1 444.781 152.12 444.781 153.61C444.781 155.1 445.961 155.75 444.901 156.82C443.841 157.89 443.201 156.21 441.701 156.21C440.201 156.21 440.211 156.9 438.701 156.9C437.191 156.9 437.201 156.73 435.701 156.73C434.201 156.73 434.201 156.31 432.701 156.31C431.201 156.31 431.201 156.26 429.701 156.26C428.201 156.26 428.201 156.85 426.701 156.85C425.201 156.85 425.201 156.38 423.701 156.38H420.701C419.211 156.38 419.211 156.38 417.701 156.38C416.191 156.38 416.201 156.23 414.701 156.23C413.201 156.23 413.201 156.34 411.701 156.34C410.201 156.34 410.201 156.93 408.701 156.93C407.201 156.93 407.211 156.75 405.701 156.75C404.191 156.75 404.201 156.5 402.701 156.5C401.201 156.5 401.201 156.78 399.701 156.78C398.201 156.78 398.201 156.59 396.701 156.59C395.201 156.59 395.201 156.23 393.701 156.23C392.201 156.23 392.201 156.67 390.701 156.67C389.201 156.67 389.201 156.92 387.701 156.92C386.201 156.92 386.201 156.51 384.701 156.51C383.201 156.51 383.201 156.6 381.701 156.6C380.201 156.6 380.201 157.01 378.701 157.01C377.201 157.01 377.201 156.85 375.701 156.85C374.201 156.85 374.201 156.46 372.701 156.46C371.201 156.46 371.201 156.55 369.701 156.55H366.701C365.201 156.55 365.201 156.9 363.701 156.9C362.201 156.9 362.201 156.84 360.701 156.84C359.201 156.84 359.201 156.7 357.701 156.7C356.201 156.7 356.201 156.91 354.701 156.91C353.201 156.91 353.201 156.22 351.701 156.22C350.201 156.22 350.201 156.22 348.701 156.22C347.201 156.22 347.201 156.68 345.701 156.68H342.701C341.201 156.68 341.201 156.22 339.701 156.22C338.201 156.22 338.201 156.6 336.701 156.6C335.201 156.6 335.211 156.6 333.701 156.6C332.191 156.6 332.201 156.9 330.701 156.9C329.201 156.9 329.201 156.38 327.701 156.38C326.201 156.38 326.201 156.65 324.701 156.65C323.201 156.65 323.201 156.46 321.701 156.46C320.201 156.46 320.201 156.46 318.701 156.46H315.701C314.201 156.46 314.201 156.38 312.701 156.38C311.201 156.38 311.201 156.81 309.701 156.81C308.201 156.81 308.201 156.23 306.701 156.23C305.201 156.23 305.201 156.61 303.701 156.61C302.201 156.61 302.201 156.61 300.701 156.61C299.201 156.61 299.201 156.24 297.701 156.24C296.201 156.24 296.201 156.79 294.701 156.79C293.201 156.79 293.201 156.79 291.701 156.79C290.201 156.79 290.201 156.34 288.701 156.34C287.201 156.34 287.211 156.8 285.701 156.8C284.191 156.8 284.201 156.68 282.701 156.68C281.201 156.68 281.201 156.88 279.701 156.88C278.201 156.88 278.201 156.15 276.701 156.15C275.201 156.15 275.201 156.62 273.701 156.62C272.201 156.62 272.201 156.44 270.701 156.44C269.201 156.44 269.201 156.12 267.701 156.12C266.201 156.12 266.201 156.06 264.701 156.06C263.201 156.06 263.201 156.76 261.701 156.76C260.201 156.76 260.201 156.62 258.701 156.62C257.201 156.62 257.201 156.7 255.701 156.7H252.701C251.201 156.7 251.201 156.65 249.701 156.65C248.201 156.65 248.201 156.8 246.701 156.8C245.201 156.8 245.201 156.38 243.701 156.38C242.201 156.38 242.201 156.82 240.701 156.82C239.201 156.82 239.201 156.66 237.701 156.66C236.201 156.66 236.191 156.14 234.701 156.14C233.211 156.14 233.201 156.52 231.701 156.52C230.201 156.52 230.201 156.39 228.701 156.39C227.201 156.39 227.201 156.45 225.701 156.45C224.201 156.45 224.201 156.82 222.701 156.82C221.201 156.82 221.211 156.82 219.701 156.82C218.191 156.82 218.201 156.38 216.701 156.38H213.701C212.191 156.38 212.191 156.48 210.701 156.48C209.211 156.48 209.201 156.67 207.701 156.67C206.201 156.67 206.201 156.17 204.701 156.17C203.201 156.17 203.201 156.9 201.701 156.9C200.201 156.9 200.201 156.35 198.701 156.35C197.201 156.35 197.201 156.06 195.701 156.06C194.201 156.06 194.201 156.13 192.701 156.13C191.201 156.13 191.201 156.13 189.701 156.13C188.201 156.13 188.201 156.78 186.701 156.78C185.201 156.78 185.201 156.58 183.701 156.58C182.201 156.58 182.201 156.85 180.701 156.85H177.701C176.201 156.85 176.201 156.53 174.701 156.53C173.201 156.53 173.201 156.04 171.701 156.04C170.201 156.04 170.201 156.71 168.701 156.71C167.201 156.71 167.201 156.71 165.701 156.71C164.201 156.71 164.201 156.36 162.701 156.36C161.201 156.36 161.201 156.53 159.701 156.53C158.201 156.53 158.211 156.63 156.701 156.63C155.191 156.63 155.201 156.63 153.701 156.63C152.201 156.63 152.201 156.17 150.701 156.17C149.201 156.17 149.201 156.33 147.701 156.33C146.201 156.33 146.201 156.58 144.701 156.58C143.201 156.58 143.201 156.39 141.701 156.39C140.201 156.39 140.201 156.72 138.701 156.72C137.201 156.72 137.201 156.85 135.701 156.85C134.201 156.85 134.201 156.22 132.701 156.22C131.201 156.22 131.201 156.31 129.701 156.31C128.201 156.31 128.201 156.76 126.701 156.76H123.701C122.191 156.76 122.191 156.76 120.701 156.76H117.701C116.201 156.76 116.201 156.19 114.701 156.19C113.201 156.19 113.201 156.42 111.701 156.42C110.201 156.42 110.201 156.59 108.701 156.59C107.201 156.59 107.201 156.81 105.701 156.81C104.201 156.81 104.201 156.49 102.701 156.49C101.201 156.49 101.201 156.11 99.7011 156.11H96.7011C95.2011 156.11 95.2011 156.6 93.7011 156.6C92.2011 156.6 92.2011 156.83 90.7011 156.83H87.7011C86.2011 156.83 86.2011 156.66 84.7011 156.66C83.2011 156.66 83.2011 156.76 81.7011 156.76C80.2011 156.76 80.2011 156.51 78.7011 156.51C77.2011 156.51 77.2011 156.05 75.7011 156.05C74.2011 156.05 74.2011 156.24 72.7011 156.24C71.2011 156.24 71.2011 156.84 69.7011 156.84C68.2011 156.84 68.2011 156.41 66.7011 156.41C65.2011 156.41 65.2011 156.46 63.7011 156.46C62.2011 156.46 62.1911 156.36 60.7011 156.36H57.7011C56.2011 156.36 56.2011 156.81 54.7011 156.81C53.2011 156.81 53.2011 156.44 51.7011 156.44C50.2011 156.44 50.2011 156.09 48.7011 156.09C47.2011 156.09 47.2011 156.34 45.7011 156.34C44.2011 156.34 44.2011 156.42 42.7011 156.42C41.2011 156.42 41.2011 156.42 39.7011 156.42C38.2011 156.42 38.1912 156.12 36.7011 156.12C35.2111 156.12 35.2011 156.12 33.7011 156.12C32.2011 156.12 32.2011 156.32 30.7011 156.32C29.2011 156.32 29.2011 156.77 27.7011 156.77C26.2011 156.77 26.2011 156.27 24.7011 156.27C23.2011 156.27 23.2011 156.27 21.7011 156.27C20.2011 156.27 20.1911 156.08 18.7011 156.08C17.2111 156.08 17.2011 156.08 15.7011 156.08C14.2011 156.08 14.1911 156.08 12.7011 156.08C11.2112 156.08 11.2011 156.64 9.70115 156.64C8.20115 156.64 8.20115 156.34 6.70115 156.34C5.20115 156.34 5.19115 156.11 3.70115 156.11C2.21115 156.11 1.76115 157.44 0.70115 156.38C-0.35885 155.32 0.841149 154.88 0.841149 153.38C0.841149 151.88 0.841149 151.88 0.841149 150.38C0.841149 148.88 0.481149 148.88 0.481149 147.38C0.481149 145.88 0.56115 145.88 0.56115 144.38C0.56115 142.88 1.07114 142.87 1.07114 141.38C1.07114 139.89 0.491143 139.88 0.491143 138.38C0.491143 136.88 0.241143 136.88 0.241143 135.38C0.241143 133.88 0.741143 133.88 0.741143 132.38C0.741143 130.88 0.961144 130.88 0.961144 129.38C0.961144 127.88 0.961144 127.87 0.961144 126.38C0.961144 124.89 0.901147 124.87 0.901147 123.38C0.901147 121.89 0.771142 121.87 0.771142 120.38C0.771142 118.89 0.601144 118.88 0.601144 117.38C0.601144 115.88 0.45115 115.87 0.45115 114.38C0.45115 112.89 0.661156 112.87 0.661156 111.38C0.661156 109.89 0.911156 109.88 0.911156 108.38C0.911156 106.88 0.431145 106.88 0.431145 105.38C0.431145 103.88 0.621148 103.87 0.621148 102.38C0.621148 100.89 0.20115 100.87 0.20115 99.3801C0.20115 97.8901 0.731149 97.8701 0.731149 96.3801C0.731149 94.8901 0.221154 94.8701 0.221154 93.3801C0.221154 91.8901 0.351144 91.8701 0.351144 90.3801C0.351144 88.8901 0.351144 88.8701 0.351144 87.3801C0.351144 85.8901 0.271142 85.8701 0.271142 84.3801C0.271142 82.8901 0.621148 82.8801 0.621148 81.3801C0.621148 79.8801 0.211144 79.8701 0.211144 78.3801C0.211144 76.8901 0.321145 76.8801 0.321145 75.3801C0.321145 73.8801 0.551156 73.8701 0.551156 72.3801C0.551156 70.8901 0.831155 70.8801 0.831155 69.3801C0.831155 67.8801 0.831155 67.8701 0.831155 66.3801C0.831155 64.8901 0.721154 64.8801 0.721154 63.3801C0.721154 61.8801 0.361153 61.8701 0.361153 60.3801C0.361153 58.8901 0.741143 58.8801 0.741143 57.3801C0.741143 55.8801 0.911156 55.8701 0.911156 54.3801C0.911156 52.8901 0.731149 52.8801 0.731149 51.3801C0.731149 49.8801 0.521142 49.8701 0.521142 48.3801C0.521142 46.8901 0.251153 46.8701 0.251153 45.3801C0.251153 43.8901 0.781152 43.8801 0.781152 42.3801C0.781152 40.8801 0.541146 40.8701 0.541146 39.3801C0.541146 37.8901 0.541146 37.8701 0.541146 36.3801C0.541146 34.8901 0.431145 34.8701 0.431145 33.3801C0.431145 31.8901 0.661156 31.8701 0.661156 30.3801C0.661156 28.8901 0.20115 28.8701 0.20115 27.3801C0.20115 25.8901 1.03115 25.8701 1.03115 24.3801C1.03115 22.8901 0.411156 22.8701 0.411156 21.3801C0.411156 19.8901 0.581155 19.8701 0.581155 18.3801C0.581155 16.8901 0.971154 16.8701 0.971154 15.3801C0.971154 13.8901 0.731149 13.8701 0.731149 12.3801C0.731149 10.8901 1.07114 10.8701 1.07114 9.38014C1.07114 7.89014 0.991143 7.87014 0.991143 6.38014C0.991143 4.89014 0.671148 4.89014 0.371148 3.38014C0.0711479 1.87014 -0.408844 1.76014 0.661156 0.690138Z" fill="#A6CCFA"/>
</svg>
