<svg width="653" height="73" viewBox="0 0 653 73" fill="none" xmlns="http://www.w3.org/2000/svg">
<path d="M652.008 74.8054C653.15 73.6743 651.784 73.1193 651.784 71.5187C651.784 69.918 651.72 69.918 651.72 68.3174C651.72 66.7167 651.816 66.7167 651.816 65.116C651.816 63.5154 651.763 63.5154 651.763 61.9147C651.763 60.3141 651.934 60.3141 651.934 58.7134C651.934 57.1128 651.784 57.1234 651.784 55.5121C651.784 53.9008 651.987 53.9114 651.987 52.3108C651.987 50.7101 651.934 50.7101 651.934 49.1095C651.934 47.5088 652.03 47.5088 652.03 45.9082C652.03 44.3075 651.827 44.3075 651.827 42.7069C651.827 41.1062 651.741 41.1062 651.741 39.5055C651.741 37.9049 652.04 37.9049 652.04 36.3042C652.04 34.7036 651.795 34.7036 651.795 33.1029C651.795 31.5023 652.104 31.5023 652.104 29.9016C652.104 28.3009 651.955 28.3009 651.955 26.7003C651.955 25.0996 651.763 25.0996 651.763 23.499C651.763 21.8983 651.976 21.8983 651.976 20.2977C651.976 18.697 651.976 18.697 651.976 17.0964C651.976 15.4957 651.923 15.4957 651.923 13.895C651.923 12.2944 652.04 12.2944 652.04 10.6937C652.04 9.09308 652.126 9.08241 652.126 7.49242C652.126 5.90244 652.126 5.89176 652.126 4.29111C652.126 2.69045 653.278 1.94353 651.976 1.00447C650.674 0.0654235 650.386 1.51668 648.882 2.07158C647.377 2.62647 647.377 2.60513 645.862 3.13868C644.346 3.67224 644.41 3.82162 642.906 4.33383L639.875 5.40094C638.371 5.91315 638.296 5.69974 636.781 6.21195C635.265 6.72416 635.34 6.90558 633.835 7.42846C632.331 7.95134 632.299 7.87667 630.794 8.38888C629.29 8.90109 629.258 8.81574 627.753 9.33862C626.248 9.8615 626.302 10.0321 624.797 10.555C623.292 11.0779 623.26 10.9925 621.756 11.5154C620.251 12.0383 620.198 11.8676 618.683 12.3905C617.167 12.9134 617.221 13.0201 615.716 13.5429C614.211 14.0658 614.275 14.2686 612.76 14.7915C611.245 15.3144 611.223 15.2184 609.708 15.7306C608.193 16.2428 608.236 16.3708 606.731 16.883C605.226 17.3952 605.109 17.0965 603.604 17.6087C602.1 18.1209 602.174 18.3556 600.67 18.8785C599.165 19.4013 599.069 19.1346 597.565 19.6574C596.06 20.1803 596.113 20.3404 594.609 20.8633C593.104 21.3861 593.125 21.4502 591.61 21.9304C590.095 22.4106 590.063 22.3145 588.548 22.8374C587.032 23.3603 587.011 23.2749 585.506 23.7871C584.002 24.2993 584.012 24.3634 582.508 24.8542C581.003 25.3451 580.95 25.249 579.445 25.7719L576.415 26.839C574.91 27.3512 574.963 27.5326 573.459 28.0449C571.954 28.5571 571.997 28.6959 570.481 29.2081C568.966 29.7203 568.924 29.5709 567.408 30.0937C565.893 30.6166 565.882 30.5633 564.378 31.0755C562.873 31.5877 562.905 31.7051 561.39 32.2279C559.874 32.7508 559.821 32.5481 558.306 33.071C556.791 33.5939 556.855 33.754 555.339 34.2768C553.824 34.7997 553.867 34.8744 552.351 35.3439C550.836 35.8135 550.815 35.792 549.31 36.3042C547.805 36.8164 547.838 36.9446 546.333 37.4568C544.828 37.969 544.775 37.873 543.27 38.3852C541.766 38.8974 541.787 39.004 540.282 39.5162C538.778 40.0284 538.778 40.0711 537.263 40.5833C535.747 41.0955 535.726 41.0102 534.211 41.5331C532.695 42.0559 532.642 41.8746 531.137 42.3975C529.633 42.9204 529.686 43.1123 528.181 43.6245C526.677 44.1368 526.602 43.9661 525.098 44.489C523.593 45.0118 523.668 45.2359 522.152 45.7588C520.637 46.2816 520.552 46.015 519.047 46.5378C517.542 47.0607 517.574 47.1887 516.07 47.701C514.565 48.2132 514.597 48.3412 513.082 48.8641C511.567 49.3869 511.535 49.2696 510.03 49.7924C508.525 50.3153 508.472 50.1766 506.957 50.6995C505.441 51.2223 505.559 51.5532 504.044 52.0654C502.528 52.5776 502.486 52.4283 500.97 52.9512C499.455 53.474 499.402 53.3032 497.897 53.8261C496.392 54.349 496.414 54.4237 494.898 54.8932C493.383 55.3628 493.426 55.5228 491.911 56.035C490.395 56.5472 490.353 56.3979 488.837 56.9207C487.322 57.4436 487.407 57.6783 485.903 58.1905C484.398 58.7028 484.313 58.4894 482.808 59.0122C481.304 59.5351 481.25 59.4177 479.746 59.9406C478.241 60.4635 478.262 60.5275 476.747 61.0077C475.232 61.4879 475.317 61.7548 473.802 62.2776C472.287 62.8005 472.201 62.5337 470.686 63.0566L467.666 64.1237C466.151 64.6359 466.215 64.8067 464.699 65.3295C463.184 65.8524 463.195 65.8738 461.68 66.3966C460.164 66.9195 460.196 67.0048 458.681 67.517C457.166 68.0292 457.08 67.7839 455.565 68.2961C454.05 68.8083 454.114 68.9896 452.609 69.5125C451.105 70.0354 451.019 69.822 449.504 70.3449C447.989 70.8678 448.063 71.0492 446.548 71.5721C445.033 72.0949 445.075 72.223 443.571 72.7458C442.066 73.2687 441.938 72.938 440.423 73.4609C438.908 73.9837 437.147 73.0767 437.403 74.656C437.659 76.2353 439.036 74.4425 440.604 74.4425C442.173 74.4425 442.205 74.7734 443.806 74.7734C445.406 74.7734 445.406 74.5066 447.007 74.5066C448.608 74.5066 448.608 74.624 450.208 74.624C451.809 74.624 451.809 74.4746 453.409 74.4746C455.01 74.4746 455.01 74.7947 456.611 74.7947C458.211 74.7947 458.201 74.5812 459.812 74.5812C461.423 74.5812 461.413 74.5173 463.013 74.5173C464.614 74.5173 464.603 74.5173 466.215 74.5173C467.826 74.5173 467.815 74.8373 469.416 74.8373H472.617H475.819C477.419 74.8373 477.419 74.8373 479.02 74.8373C480.621 74.8373 480.61 74.8373 482.221 74.8373C483.833 74.8373 483.822 74.6133 485.423 74.6133C487.023 74.6133 487.013 74.6133 488.624 74.6133C490.235 74.6133 490.225 74.72 491.825 74.72C493.426 74.72 493.426 74.8373 495.027 74.8373H498.228C499.829 74.8373 499.829 74.8373 501.429 74.8373C503.03 74.8373 503.03 74.56 504.63 74.56H511.033C512.634 74.56 512.634 74.656 514.234 74.656C515.835 74.656 515.835 74.7734 517.436 74.7734H520.637C522.238 74.7734 522.238 74.848 523.838 74.848C525.439 74.848 525.439 74.5493 527.04 74.5493C528.64 74.5493 528.64 74.5493 530.241 74.5493C531.842 74.5493 531.842 74.6453 533.442 74.6453C535.043 74.6453 535.043 74.752 536.644 74.752C538.244 74.752 538.234 74.5919 539.845 74.5919C541.456 74.5919 541.456 74.5919 543.046 74.5919C544.636 74.5919 544.647 74.6881 546.248 74.6881C547.848 74.6881 547.848 74.7734 549.449 74.7734C551.049 74.7734 551.049 74.7734 552.65 74.7734C554.251 74.7734 554.251 74.56 555.851 74.56C557.452 74.56 557.452 74.8373 559.053 74.8373C560.653 74.8373 560.653 74.5812 562.254 74.5812C563.855 74.5812 563.855 74.8801 565.455 74.8801C567.056 74.8801 567.056 74.656 568.657 74.656C570.257 74.656 570.257 74.7947 571.858 74.7947C573.459 74.7947 573.459 74.7413 575.059 74.7413H578.261C579.861 74.7413 579.861 74.9441 581.462 74.9441C583.063 74.9441 583.073 74.6346 584.663 74.6346C586.253 74.6346 586.264 74.6346 587.865 74.6346C589.465 74.6346 589.465 74.6987 591.066 74.6987C592.667 74.6987 592.667 74.8268 594.267 74.8268C595.868 74.8268 595.868 74.7093 597.469 74.7093C599.069 74.7093 599.069 74.7093 600.67 74.7093C602.27 74.7093 602.27 74.8694 603.871 74.8694C605.472 74.8694 605.472 74.5919 607.072 74.5919C608.673 74.5919 608.673 74.5919 610.274 74.5919C611.874 74.5919 611.874 74.752 613.475 74.752C615.076 74.752 615.076 74.6667 616.676 74.6667C618.277 74.6667 618.288 74.6667 619.878 74.6667C621.468 74.6667 621.478 75.0081 623.079 75.0081C624.68 75.0081 624.68 74.6346 626.28 74.6346H629.482C631.082 74.6346 631.082 74.752 632.683 74.752C634.284 74.752 634.284 74.752 635.884 74.752C637.485 74.752 637.485 74.9335 639.086 74.9335C640.686 74.9335 640.686 74.7734 642.287 74.7734C643.888 74.7734 643.888 74.9121 645.488 74.9121C646.553 74.7647 647.635 74.7971 648.689 75.0081C650.386 75.3176 650.877 75.9366 652.008 74.8054Z" fill="#B5CDEB"/>
<path d="M1.65151 74.6959C0.509708 73.5648 1.43809 73.1913 1.43809 71.5906C1.43809 69.99 1.50212 69.99 1.50212 68.3893C1.50212 66.7887 1.64084 66.7887 1.64084 65.188C1.64084 63.5873 1.37407 63.5873 1.37407 61.9867C1.37407 60.386 1.68352 60.386 1.68352 58.7854C1.68352 57.1847 1.68352 57.1954 1.68352 55.5841C1.68352 53.9727 1.68352 53.9834 1.68352 52.3828C1.68352 50.7821 1.56614 50.7821 1.56614 49.1814C1.56614 47.5808 1.65151 47.5808 1.65151 45.9801C1.65151 44.3795 1.75823 44.3795 1.75823 42.7788C1.75823 41.1782 1.55547 41.1782 1.55547 39.5775C1.55547 37.9768 1.42743 37.9768 1.42743 36.3762C1.42743 34.7755 1.42743 34.7755 1.42743 33.1749C1.42743 31.5742 1.65151 31.5742 1.65151 29.9736C1.65151 28.3729 1.74754 28.3729 1.74754 26.7723C1.74754 25.1716 1.6942 25.1716 1.6942 23.5709C1.6942 21.9703 1.45944 21.9703 1.45944 20.3696C1.45944 18.769 1.70487 18.769 1.70487 17.1683C1.70487 15.5677 1.70487 15.5677 1.70487 13.967C1.70487 12.3664 1.44876 12.3664 1.44876 10.7657C1.44876 9.16505 1.44876 9.15438 1.44876 7.56439C1.44876 5.97441 1.60883 5.96374 1.60883 4.36308C1.60883 2.76242 0.178902 1.94086 1.48077 1.00181C2.78264 0.0627553 3.13478 1.53536 4.68208 2.06891C6.22938 2.60246 6.12267 2.77308 7.63796 3.28529C9.15325 3.7975 9.17459 3.71215 10.6899 4.23503C12.2052 4.75791 12.1625 4.8647 13.6671 5.37691C15.1717 5.88912 15.2037 5.80376 16.719 6.32664C18.2343 6.84953 18.2236 6.81746 19.7389 7.34034C21.2542 7.86322 21.1902 8.00192 22.7055 8.51413C24.2208 9.02634 24.2741 8.85565 25.7787 9.36786C27.2833 9.88007 27.2193 10.0722 28.7239 10.5951L31.7438 11.6622C33.2485 12.1744 33.2805 12.0997 34.7851 12.6119C36.2897 13.1241 36.3431 12.996 37.8477 13.5189C39.3523 14.0418 39.3523 14.0525 40.8569 14.586C42.3615 15.1196 42.2762 15.397 43.7808 15.9092C45.2854 16.4214 45.3281 16.3254 46.8434 16.8376C48.3587 17.3498 48.4013 17.2217 49.9059 17.7446C51.4106 18.2675 51.3786 18.3741 52.8832 18.8863C54.3878 19.3986 54.3771 19.4626 55.8817 19.9535C57.3864 20.4443 57.4824 20.2097 58.987 20.7219C60.4916 21.2341 60.513 21.1806 62.0282 21.7035C63.5435 22.2264 63.5009 22.3011 65.0161 22.7706C66.5314 23.2401 66.5421 23.2402 68.0467 23.7524C69.5513 24.2646 69.4553 24.5848 70.9599 25.1076L73.9905 26.1747C75.4951 26.6976 75.5911 26.4308 77.0958 26.943C78.6004 27.4552 78.5257 27.7006 80.0303 28.2235C81.5349 28.7464 81.6203 28.533 83.1249 29.0559L86.1341 30.123C87.6494 30.6459 87.5854 30.8273 89.09 31.3502C90.5946 31.8731 90.7013 31.5742 92.2059 32.0971C93.7106 32.62 93.6252 32.8869 95.1405 33.3991C96.6558 33.9113 96.6131 34.0179 98.1284 34.5301C99.6437 35.0423 99.7184 34.8396 101.223 35.3518C102.728 35.864 102.653 36.0989 104.168 36.6217C105.683 37.1446 105.683 37.1233 107.188 37.6888C108.693 38.2544 108.735 38.0943 110.251 38.6172C111.766 39.1401 111.755 39.1614 113.26 39.6843C114.765 40.2072 114.765 40.2179 116.28 40.7514C117.795 41.285 117.763 41.3383 119.278 41.8185C120.794 42.2987 120.815 42.2666 122.32 42.7788C123.824 43.291 123.867 43.1843 125.382 43.7072C126.897 44.2301 126.887 44.2407 128.402 44.7743L131.433 45.8414C132.937 46.3536 132.916 46.4176 134.431 46.9085C135.947 47.3994 135.979 47.3247 137.483 47.8476C138.988 48.3704 138.966 48.4666 140.471 48.9894C141.976 49.5123 142.05 49.2989 143.566 49.8218C145.081 50.3447 144.996 50.5794 146.511 51.1023L149.531 52.1694C151.046 52.6816 151.099 52.5108 152.615 53.0337C154.13 53.5566 154.066 53.7166 155.581 54.2395C157.097 54.7624 157.182 54.485 158.697 55.0079C160.212 55.5308 160.116 55.7869 161.621 56.3098C163.126 56.8326 163.158 56.7687 164.662 57.2915L167.693 58.3586L170.702 59.4257C172.217 59.9486 172.185 60.0233 173.701 60.4928C175.216 60.9624 175.248 60.9197 176.753 61.4319C178.257 61.9441 178.3 61.8586 179.815 62.3708C181.33 62.883 181.266 63.0538 182.782 63.5767C184.297 64.0995 184.35 63.9289 185.866 64.4518C187.381 64.9746 187.317 65.1454 188.822 65.6576C190.326 66.1698 190.347 66.1484 191.863 66.6713L194.893 67.7384C196.409 68.2613 196.43 68.1866 197.945 68.7095L200.976 69.7766C202.48 70.2888 202.47 70.3315 203.985 70.8437C205.5 71.3559 205.543 71.2278 207.058 71.7507L210.068 72.8178C211.594 73.3407 211.562 73.4047 213.077 73.8849C214.592 74.3651 216.278 73.362 216.043 74.952C215.809 76.542 214.507 74.952 212.906 74.952C211.305 74.952 211.305 74.8667 209.705 74.8667C208.104 74.8667 208.104 75.048 206.503 75.048C204.903 75.048 204.903 75.048 203.302 75.048H200.101C198.5 75.048 198.5 74.7919 196.9 74.7919C195.299 74.7919 195.31 75.0161 193.698 75.0161C192.087 75.0161 192.098 74.8453 190.497 74.8453C188.896 74.8453 188.907 74.8453 187.296 74.8453H184.094H180.893C179.292 74.8453 179.292 75.1655 177.692 75.1655C176.091 75.1655 176.091 75.2402 174.49 75.2402C172.89 75.2402 172.9 74.9841 171.289 74.9841C169.678 74.9841 169.688 74.9841 168.088 74.9841H164.886C163.286 74.9841 163.286 74.9841 161.685 74.9841C160.084 74.9841 160.095 75.1442 158.484 75.1442C156.872 75.1442 156.883 75.1442 155.282 75.1442C153.682 75.1442 153.682 74.9307 152.081 74.9307C150.48 74.9307 150.48 75.1442 148.88 75.1442C147.279 75.1442 147.279 75.1442 145.679 75.1442C144.078 75.1442 144.078 74.9413 142.477 74.9413C140.877 74.9413 140.877 75.0587 139.276 75.0587C137.675 75.0587 137.675 74.8347 136.075 74.8347C134.474 74.8347 134.474 75.0908 132.873 75.0908C131.273 75.0908 131.273 75.0908 129.672 75.0908C128.071 75.0908 128.071 74.824 126.471 74.824C124.87 74.824 124.87 75.1014 123.269 75.1014C121.669 75.1014 121.669 74.9413 120.068 74.9413C118.467 74.9413 118.467 74.8667 116.867 74.8667C115.266 74.8667 115.277 74.8667 113.665 74.8667C112.054 74.8667 112.065 74.6959 110.464 74.6959C108.863 74.6959 108.863 75.048 107.263 75.048C105.662 75.048 105.662 74.8988 104.061 74.8988H100.86C99.2595 74.8988 99.2595 74.8988 97.6589 74.8988C96.0582 74.8988 96.0475 75.048 94.4575 75.048C92.8676 75.048 92.8569 74.952 91.2562 74.952C89.6556 74.952 89.6556 75.1335 88.0549 75.1335C86.4543 75.1335 86.4543 75.0268 84.8536 75.0268C83.2529 75.0268 83.2529 75.1442 81.6523 75.1442C80.0516 75.1442 80.0516 74.92 78.451 74.92C76.8503 74.92 76.8503 74.9841 75.2497 74.9841C73.649 74.9841 73.649 75.0587 72.0483 75.0587C70.4477 75.0587 70.4477 74.7493 68.847 74.7493C67.2464 74.7493 67.2464 75.0694 65.6457 75.0694C64.0451 75.0694 64.0451 74.728 62.4444 74.728C60.8438 74.728 60.8438 74.728 59.2431 74.728H56.0418C54.4411 74.728 54.4411 74.9841 52.8405 74.9841H49.6392C48.0385 74.9841 48.0385 74.7919 46.4379 74.7919C44.8372 74.7919 44.8372 74.9948 43.2365 74.9948H40.0352C38.4346 74.9948 38.4346 75.0587 36.8339 75.0587C35.2333 75.0587 35.2226 74.9734 33.6326 74.9734C32.0426 74.9734 32.032 74.7493 30.4313 74.7493C28.8306 74.7493 28.8306 74.9841 27.23 74.9841H24.0287C22.428 74.9841 22.428 74.7707 20.8274 74.7707C19.2267 74.7707 19.216 74.8774 17.6261 74.8774C16.0361 74.8774 16.0254 75.048 14.4247 75.048C12.8241 75.048 12.8241 74.6959 11.2234 74.6959C9.62278 74.6959 9.62278 75.0587 8.02212 75.0587C6.42146 75.0587 6.42146 74.7386 4.82081 75.0587C3.22015 75.3788 2.78264 75.8271 1.65151 74.6959Z" fill="#B5CDEB"/>
</svg>
