<svg width="36" height="36" viewBox="0 0 36 36" fill="none" xmlns="http://www.w3.org/2000/svg">
<path d="M36 18C36 27.9411 27.9411 36 18 36C8.05887 36 0 27.9411 0 18C0 8.05887 8.05887 0 18 0C27.9411 0 36 8.05887 36 18Z" fill="#D6E7FF"/>
<path d="M12.8311 24.5449C10.3613 24.5449 8.71777 22.998 8.71777 20.792C8.71777 19.0254 9.86035 17.6016 11.5303 17.1182C11.8203 13.8398 14.5449 11.2998 17.8057 11.2998C20.3018 11.2998 22.3408 12.6357 23.4482 14.8418C26.4453 14.833 28.6953 16.8984 28.6953 19.6758C28.6953 22.4092 26.5156 24.5449 23.6943 24.5449H12.8311Z" fill="#5E9BF0"/>
</svg>
