<svg width="529" height="173" viewBox="0 0 529 173" fill="none" xmlns="http://www.w3.org/2000/svg">
<g opacity="0.75">
<path d="M0.44214 0.621739C-0.35786 1.41174 0.17212 1.62207 0.17212 2.71207C0.17212 3.80207 0.17212 3.84184 0.17212 4.97184C0.17212 6.10184 0.272218 6.10209 0.272218 7.23209C0.272218 8.36209 0.272218 8.36209 0.272218 9.48209C0.272218 10.6021 0.352296 10.6119 0.352296 11.7419C0.352296 12.8719 0.132081 12.8719 0.132081 13.9919C0.132081 15.1119 0.292237 15.1221 0.292237 16.2521C0.292237 17.3821 0.0520031 17.3721 0.0520031 18.5021C0.0520031 19.6321 0.222413 19.6321 0.222413 20.7521C0.222413 21.8721 0.112062 21.8819 0.112062 23.0119C0.112062 24.1419 0.112062 24.1319 0.112062 25.2619V27.5119C0.112062 28.6419 0.542237 28.6421 0.542237 29.7721C0.542237 30.9021 0.212159 30.9019 0.212159 32.0319C0.212159 33.1619 0.472413 33.1519 0.472413 34.2819C0.472413 35.4119 0.0822765 35.4121 0.0822765 36.5421C0.0822765 37.6721 0.0822765 37.6719 0.0822765 38.8019C0.0822765 39.9319 0.0324718 39.9319 0.0324718 41.0519C0.0324718 42.1719 0.262452 42.1822 0.262452 43.3122C0.262452 44.4422 0.432374 44.4422 0.432374 45.5622C0.432374 46.6822 0.372316 46.6919 0.372316 47.8219C0.372316 48.9519 0.19214 48.9519 0.19214 50.0719C0.19214 51.1919 0.292237 51.2017 0.292237 52.3317C0.292237 53.4617 0.532472 53.462 0.532472 54.592C0.532472 55.722 0.0422374 55.7217 0.0422374 56.8517C0.0422374 57.9817 0.532472 57.982 0.532472 59.112C0.532472 60.242 0.432374 60.232 0.432374 61.362C0.432374 62.492 0.112062 62.4917 0.112062 63.6217C0.112062 64.7517 0.112062 64.7517 0.112062 65.8717C0.112062 66.9917 0.322023 67.002 0.322023 68.132C0.322023 69.262 0.232179 69.2618 0.232179 70.3918C0.232179 71.5218 0.232179 71.522 0.232179 72.652C0.232179 73.782 0.132081 73.7818 0.132081 74.9118C0.132081 76.0418 0.42212 76.0318 0.42212 77.1618C0.42212 78.2918 0.232179 78.292 0.232179 79.422C0.232179 80.552 0.42212 80.5518 0.42212 81.6818C0.42212 82.8118 0.42212 82.8121 0.42212 83.9421V86.2018C0.42212 87.3218 0.122316 87.3218 0.122316 88.4518C0.122316 89.5818 0.412355 89.5821 0.412355 90.7121C0.412355 91.8421 0.362062 91.8418 0.362062 92.9718C0.362062 94.1018 0.302003 94.1021 0.302003 95.2321C0.302003 96.3621 0.552003 96.3619 0.552003 97.4919C0.552003 98.6219 0.062257 98.6221 0.062257 99.7521C0.062257 100.882 0.532472 100.882 0.532472 102.012C0.532472 103.142 0.292237 103.142 0.292237 104.272C0.292237 105.402 0.412355 105.402 0.412355 106.532C0.412355 107.662 0.062257 107.662 0.062257 108.782C0.062257 109.902 0.382081 109.912 0.382081 111.042C0.382081 112.172 0.382081 112.172 0.382081 113.302C0.382081 114.432 0.382081 114.432 0.382081 115.562C0.382081 116.692 0.202394 116.692 0.202394 117.822C0.202394 118.952 0.0822765 118.942 0.0822765 120.072C0.0822765 121.202 0.0822765 121.202 0.0822765 122.332C0.0822765 123.462 0.222413 123.462 0.222413 124.592C0.222413 125.722 0.42212 125.722 0.42212 126.852C0.42212 127.982 0.0422374 127.982 0.0422374 129.112C0.0422374 130.242 0.402101 130.242 0.402101 131.372C0.402101 132.502 0.0822765 132.502 0.0822765 133.632C0.0822765 134.762 0.472413 134.762 0.472413 135.892C0.472413 137.022 0.402101 137.022 0.402101 138.152C0.402101 139.282 0.152101 139.282 0.152101 140.412C0.152101 141.542 0.0720226 141.542 0.0720226 142.672C0.0720226 143.802 0.492433 143.802 0.492433 144.932C0.492433 146.062 0.362062 146.062 0.362062 147.202C0.362062 148.342 0.522218 148.332 0.522218 149.452C0.522218 150.572 0.292237 150.592 0.292237 151.722C0.292237 152.852 0.292237 152.852 0.292237 153.982C0.292237 155.112 0.102296 155.112 0.102296 156.242C0.102296 157.372 0.42212 157.382 0.42212 158.512C0.42212 159.642 0.482179 159.642 0.482179 160.782C0.482179 161.922 0.362062 161.912 0.362062 163.052C0.341788 163.268 0.371667 163.486 0.449464 163.689C0.527261 163.891 0.651094 164.074 0.810792 164.221C0.97049 164.368 1.16196 164.476 1.37036 164.537C1.57877 164.598 1.79865 164.61 2.01245 164.572C2.78295 164.422 3.56797 164.362 4.3523 164.392C5.14543 164.351 5.94071 164.402 6.72241 164.542C7.46203 164.836 8.16602 165.211 8.82202 165.662C9.5448 165.977 10.2349 166.362 10.8821 166.812C11.4299 167.383 11.9252 168.002 12.3621 168.662C12.9389 169.18 13.5618 169.646 14.2224 170.052C14.7426 170.618 15.3151 171.134 15.9324 171.592C16.6225 171.933 17.3461 172.201 18.092 172.392C19.6117 172.455 21.1294 172.565 22.6423 172.722C23.4192 172.664 24.1873 172.52 24.9324 172.292C25.6024 172.032 26.012 171.292 26.552 170.922C27.092 170.552 27.9521 170.352 28.3621 169.832C28.7721 169.312 28.7324 168.432 28.9724 167.832C29.3014 167.228 29.5213 166.572 29.6223 165.892C29.6223 165.112 29.242 165.052 29.572 164.342C30.3055 164.287 31.0428 164.307 31.7722 164.402C32.4703 164.668 33.1403 165.003 33.7722 165.402C34.4298 165.707 35.0562 166.076 35.6423 166.502C36.49 167.12 37.2559 167.842 37.9221 168.652C38.4939 169.168 39.1099 169.633 39.7625 170.042C40.3372 170.521 40.9563 170.942 41.6121 171.302C42.2394 171.725 42.9098 172.08 43.6121 172.362C44.3509 172.523 45.1058 172.601 45.8621 172.592C46.606 172.682 47.3583 172.682 48.1023 172.592C48.8734 172.558 49.6379 172.437 50.3821 172.232C51.0521 171.962 51.4822 171.322 52.0222 170.942C52.6381 170.63 53.207 170.233 53.7122 169.762C54.0911 169.181 54.3745 168.542 54.552 167.872C54.8227 167.238 54.9754 166.56 55.0022 165.872C55.0022 164.752 55.2625 164.752 55.2625 163.642C55.2625 162.532 54.9924 162.522 54.9924 161.412C54.9924 160.302 54.8621 160.292 54.8621 159.172C54.8621 158.052 54.9924 158.052 54.9924 156.942C54.9924 155.832 54.842 155.822 54.842 154.702C54.842 153.582 55.092 153.592 55.092 152.472C55.092 151.352 54.842 151.352 54.842 150.242C54.842 149.132 54.842 149.122 54.842 148.012V145.822C54.842 144.702 55.2322 144.702 55.2322 143.592C55.2322 142.482 55.072 142.472 55.072 141.362C55.072 140.252 55.072 140.242 55.072 139.132C55.072 138.022 55.2224 138.012 55.2224 136.902C55.2224 135.792 54.9524 135.782 54.9524 134.662C54.9524 133.542 55.1921 133.552 55.1921 132.432C55.1921 131.312 55.0022 131.312 55.0022 130.202C55.0022 129.092 55.0022 129.082 55.0022 127.962C55.0022 126.842 54.7522 126.852 54.7522 125.732C54.7522 124.612 54.8523 124.612 54.8523 123.492C54.8523 122.372 55.072 122.382 55.072 121.262C55.072 120.142 55.0125 120.152 55.0125 119.032C55.0125 117.912 55.1521 117.912 55.1521 116.802C55.1521 115.692 54.8923 115.682 54.8923 114.572C54.8923 113.462 54.7625 113.452 54.7625 112.332C54.7625 111.212 54.8821 111.222 54.8821 110.102C54.8821 108.982 54.7625 108.982 54.7625 107.872C54.7625 106.762 55.1121 106.752 55.1121 105.632C55.1121 104.512 54.8723 104.512 54.8723 103.392C54.8723 102.272 55.0623 102.282 55.0623 101.162C55.0623 100.042 55.1321 100.042 55.1321 98.9318C55.1321 97.8218 54.9924 97.8121 54.9924 96.6921C54.9924 95.5721 54.8323 95.5821 54.8323 94.4621C54.8323 93.3421 54.8323 93.3421 54.8323 92.2321C54.8323 91.1221 55.0422 91.1119 55.0422 89.9919C55.0422 88.8719 55.1023 88.8721 55.1023 87.7521C55.1023 86.6321 55.2625 86.6421 55.2625 85.5221C55.2625 84.4021 55.052 84.4019 55.052 83.2819C55.052 82.1619 55.1223 82.1719 55.1223 81.0519C55.1223 79.9319 54.8323 79.9322 54.8323 78.8122C54.8323 77.6922 54.8323 77.7017 54.8323 76.5817C54.8323 75.4617 55.2224 75.462 55.2224 74.342C55.2224 73.222 54.9724 73.222 54.9724 72.112C54.9724 71.002 54.8621 70.9917 54.8621 69.8717C54.8621 68.7517 55.2722 68.7518 55.2722 67.6418C55.2722 66.5318 55.1223 66.522 55.1223 65.402C55.1223 64.282 54.8923 64.2818 54.8923 63.1618C54.8923 62.0418 55.1223 62.0518 55.1223 60.9318C55.1223 59.8118 55.1223 59.8121 55.1223 58.6921C55.1223 57.5721 55.1223 57.5718 55.1223 56.4518C55.1223 55.3318 55.1824 55.3418 55.1824 54.2218C55.1824 53.1018 54.9724 53.1021 54.9724 51.9821C54.9724 50.8621 55.072 50.8619 55.072 49.7419C55.072 48.6219 55.1321 48.6319 55.1321 47.5119C55.1321 46.3919 55.1321 46.4019 55.1321 45.2819C55.1321 44.1619 54.842 44.1619 54.842 43.0519C54.842 41.9419 54.9021 41.9322 54.9021 40.8122C54.9021 39.6922 55.2224 39.6919 55.2224 38.5719C55.2224 37.4519 55.0125 37.462 55.0125 36.342C55.0125 35.222 54.9021 35.2217 54.9021 34.1017C54.9021 32.9817 54.9924 32.982 54.9924 31.862C54.9924 30.742 54.9124 30.752 54.9124 29.632C54.9124 28.512 55.0022 28.5118 55.0022 27.3918C55.0022 26.2718 55.0022 26.272 55.0022 25.152C55.0022 24.032 55.1624 24.0318 55.1624 22.9118C55.1624 21.7918 54.8723 21.7918 54.8723 20.6818C54.8723 19.5718 55.1321 19.5621 55.1321 18.4421C55.1321 17.3221 55.2322 17.3218 55.2322 16.2018C55.2322 15.0818 55.2322 15.0821 55.2322 13.9621C55.2322 12.8421 54.9524 12.8418 54.9524 11.7218C54.9524 10.6018 55.2322 10.6021 55.2322 9.48209C55.2322 8.36209 54.8621 8.36186 54.8621 7.24186C54.8621 6.12186 55.1423 6.12211 55.1423 5.00211C55.1423 3.88211 55.0022 3.88211 55.0022 2.75211C55.0022 1.62211 55.7524 1.35217 54.9524 0.562168C54.1524 -0.227832 53.8624 0.562168 52.7224 0.562168C51.5824 0.562168 51.5821 0.701817 50.4421 0.701817C49.3021 0.701817 49.3024 0.50211 48.1624 0.50211C47.0224 0.50211 47.0223 0.351719 45.8923 0.351719C44.7623 0.351719 44.7521 0.511875 43.6121 0.511875C42.4721 0.511875 42.4723 0.272129 41.3323 0.272129C40.1923 0.272129 40.192 0.772129 39.052 0.772129H36.7722C35.6322 0.772129 35.6324 0.581699 34.4924 0.581699C33.3524 0.581699 33.3522 0.321934 32.2122 0.321934C31.0722 0.321934 31.0724 0.321934 29.9324 0.321934C28.7924 0.321934 28.7921 0.721836 27.6521 0.721836C26.5121 0.721836 26.5123 0.341953 25.3723 0.341953C24.2323 0.341953 24.232 0.611973 23.092 0.611973C21.952 0.611973 21.9523 0.402012 20.8123 0.402012C19.6723 0.402012 19.6722 0.491856 18.5222 0.491856C17.3722 0.491856 17.3824 0.301914 16.2424 0.301914C15.1024 0.301914 15.1022 0.422032 13.9622 0.422032C12.8222 0.422032 12.8224 0.672032 11.6824 0.672032C10.5424 0.672032 10.5421 0.451817 9.4021 0.451817C8.2621 0.451817 8.26206 0.451817 7.11206 0.451817C5.96206 0.451817 5.97228 0.201817 4.83228 0.201817C4.0878 0.31802 3.33118 0.335126 2.58228 0.25211C1.49228 0.0521097 1.25214 -0.178261 0.44214 0.621739Z" fill="#FFCDBC"/>
<path d="M29.4525 0.351665C28.7025 1.18167 29.6723 1.58176 29.6723 2.70176C29.6723 3.82176 29.6723 3.822 29.6723 4.942C29.6723 6.062 29.4926 6.062 29.4926 7.192C29.4926 8.322 29.8324 8.31174 29.8324 9.43174C29.8324 10.5517 29.7426 10.552 29.7426 11.672C29.7426 12.792 29.6425 12.7917 29.6425 13.9117C29.6425 15.0317 29.6425 15.032 29.6425 16.152C29.6425 17.272 29.3222 17.2717 29.3222 18.3917C29.3222 19.5117 29.4022 19.5119 29.4022 20.6319C29.4022 21.7519 29.4022 21.7517 29.4022 22.8717C29.4022 23.9917 29.3021 23.9919 29.3021 25.1119C29.3021 26.2319 29.6825 26.2317 29.6825 27.3517C29.6825 28.4717 29.3925 28.4719 29.3925 29.5919C29.3925 30.7119 29.6122 30.7116 29.6122 31.8316C29.6122 32.9516 29.3021 32.9616 29.3021 34.0816C29.3021 35.2016 29.4823 35.2019 29.4823 36.3219C29.4823 37.4419 29.6225 37.4419 29.6225 38.5719C29.6225 39.7019 29.3725 39.6921 29.3725 40.8121C29.3725 41.9321 29.4423 41.9319 29.4423 43.0519C29.4423 44.1719 29.3524 44.1721 29.3524 45.2921C29.3524 46.4121 29.3524 46.4118 29.3524 47.5318C29.3524 48.6518 29.3524 48.6521 29.3524 49.7721C29.3524 50.8921 29.5922 50.9021 29.5922 52.0221C29.5922 53.1421 29.4223 53.1418 29.4223 54.2618C29.4223 55.3818 29.6522 55.3821 29.6522 56.5021C29.6522 57.6221 29.4926 57.6321 29.4926 58.7521C29.4926 59.8721 29.3725 59.8718 29.3725 60.9918C29.3725 62.1118 29.4823 62.1218 29.4823 63.2418C29.4823 64.3618 29.6425 64.362 29.6425 65.482C29.6425 66.602 29.3925 66.6018 29.3925 67.7218C29.3925 68.8418 29.6425 68.842 29.6425 69.962C29.6425 71.082 29.4325 71.092 29.4325 72.212C29.4325 73.332 29.6225 73.3318 29.6225 74.4518C29.6225 75.5718 29.4726 75.5818 29.4726 76.7018C29.4726 77.8218 29.4726 77.822 29.4726 78.942C29.4726 80.062 29.4726 80.062 29.4726 81.192C29.4726 82.322 29.6825 82.3117 29.6825 83.4317C29.6825 84.5517 29.3422 84.552 29.3422 85.672C29.3422 86.792 29.4525 86.802 29.4525 87.922C29.4525 89.042 29.6522 89.042 29.6522 90.172C29.6522 91.302 29.8021 91.2917 29.8021 92.4117C29.8021 93.5317 29.5224 93.532 29.5224 94.652V96.902C29.5224 98.022 29.6225 98.022 29.6225 99.152C29.6225 100.282 29.7523 100.272 29.7523 101.392C29.7523 102.512 29.4423 102.512 29.4423 103.642C29.4423 104.772 29.5326 104.762 29.5326 105.882C29.5326 107.002 29.5326 107.012 29.5326 108.132C29.5326 109.252 29.3925 109.252 29.3925 110.372C29.3925 111.492 29.7226 111.502 29.7226 112.622C29.7226 113.742 29.6122 113.742 29.6122 114.872C29.6122 116.002 29.5624 115.992 29.5624 117.112C29.5624 118.232 29.5624 118.232 29.5624 119.352C29.5624 120.472 29.6425 120.472 29.6425 121.592C29.6425 122.712 29.6425 122.722 29.6425 123.842C29.6425 124.962 29.3725 124.962 29.3725 126.082C29.3725 127.202 29.6923 127.212 29.6923 128.332C29.6923 129.452 29.8124 129.452 29.8124 130.572C29.8124 131.692 29.8124 131.702 29.8124 132.822C29.8124 133.942 29.3622 133.942 29.3622 135.072C29.3622 136.202 29.3622 136.192 29.3622 137.312C29.3622 138.432 29.3622 138.442 29.3622 139.562C29.3622 140.682 29.5521 140.692 29.5521 141.812C29.5521 142.932 29.6625 142.932 29.6625 144.062C29.6625 145.192 29.4325 145.182 29.4325 146.312C29.4325 147.442 29.4325 147.432 29.4325 148.552C29.4325 149.672 29.4926 149.682 29.4926 150.802C29.4926 151.922 29.7123 151.922 29.7123 153.052C29.7123 154.182 29.5424 154.172 29.5424 155.302C29.5424 156.432 29.5424 156.422 29.5424 157.552C29.5424 158.682 29.7323 158.672 29.7323 159.802C29.7323 160.932 29.4325 160.932 29.4325 162.052C29.337 162.8 29.4157 163.56 29.6625 164.272C30.3445 164.365 31.0148 164.529 31.6625 164.762C32.35 164.908 33.0203 165.126 33.6625 165.412C34.4147 165.699 35.1406 166.05 35.8324 166.462C36.1824 165.402 35.3725 165.262 35.3725 164.142C35.3725 163.022 35.7025 163.022 35.7025 161.902C35.7025 160.782 35.4926 160.782 35.4926 159.662C35.4926 158.542 35.6625 158.542 35.6625 157.422C35.6625 156.302 35.6625 156.302 35.6625 155.182C35.6625 154.062 35.8324 154.062 35.8324 152.942C35.8324 151.822 35.5424 151.822 35.5424 150.702C35.5424 149.582 35.7523 149.582 35.7523 148.462C35.7523 147.342 35.5521 147.352 35.5521 146.232C35.5521 145.112 35.7523 145.112 35.7523 143.992C35.7523 142.872 35.3524 142.872 35.3524 141.752C35.3524 140.632 35.3524 140.632 35.3524 139.512C35.3524 138.392 35.6825 138.402 35.6825 137.282C35.6825 136.162 35.6825 136.162 35.6825 135.042C35.6825 133.922 35.4823 133.922 35.4823 132.802C35.4823 131.682 35.8222 131.682 35.8222 130.562C35.8222 129.442 35.8222 129.442 35.8222 128.322C35.8222 127.202 35.5326 127.192 35.5326 126.072C35.5326 124.952 35.7826 124.952 35.7826 123.832C35.7826 122.712 35.5624 122.712 35.5624 121.592C35.5624 120.472 35.8524 120.472 35.8524 119.352C35.8524 118.232 35.4223 118.232 35.4223 117.122C35.4223 116.012 35.4223 116.002 35.4223 114.882C35.4223 113.762 35.8622 113.762 35.8622 112.642C35.8622 111.522 35.8622 111.522 35.8622 110.402C35.8622 109.282 35.4223 109.282 35.4223 108.152C35.4223 107.022 35.6322 107.032 35.6322 105.912C35.6322 104.792 35.7724 104.792 35.7724 103.672C35.7724 102.552 35.7724 102.552 35.7724 101.432C35.7724 100.312 35.4823 100.312 35.4823 99.192C35.4823 98.072 35.5624 98.0718 35.5624 96.9518C35.5624 95.8318 35.4726 95.832 35.4726 94.712C35.4726 93.592 35.3622 93.5918 35.3622 92.4718C35.3622 91.3518 35.4623 91.3418 35.4623 90.2218C35.4623 89.1018 35.8524 89.102 35.8524 87.982C35.8524 86.862 35.7924 86.8618 35.7924 85.7418C35.7924 84.6218 35.7025 84.6221 35.7025 83.5021C35.7025 82.3821 35.6122 82.3821 35.6122 81.2521C35.6122 80.1221 35.6723 80.1318 35.6723 79.0118C35.6723 77.8918 35.5824 77.8921 35.5824 76.7721C35.5824 75.6521 35.3622 75.6518 35.3622 74.5318C35.3622 73.4118 35.8422 73.4018 35.8422 72.2818C35.8422 71.1618 35.8422 71.1621 35.8422 70.0421C35.8422 68.9221 35.7523 68.9219 35.7523 67.8019C35.7523 66.6819 35.5126 66.6819 35.5126 65.5519C35.5126 64.4219 35.7123 64.4321 35.7123 63.3121C35.7123 62.1921 35.7123 62.1919 35.7123 61.0719C35.7123 59.9519 35.7123 59.9516 35.7123 58.8316C35.7123 57.7116 35.7123 57.7016 35.7123 56.5816C35.7123 55.4616 35.7826 55.4619 35.7826 54.3419C35.7826 53.2219 35.7226 53.2219 35.7226 52.0919C35.7226 50.9619 35.5922 50.9717 35.5922 49.8517C35.5922 48.7317 35.6723 48.7319 35.6723 47.6119C35.6723 46.4919 35.3021 46.4917 35.3021 45.3717C35.3021 44.2517 35.7426 44.2519 35.7426 43.1319C35.7426 42.0119 35.3822 42.0117 35.3822 40.8917C35.3822 39.7717 35.7123 39.7717 35.7123 38.6417C35.7123 37.5117 35.4022 37.522 35.4022 36.402C35.4022 35.282 35.7826 35.2817 35.7826 34.1617C35.7826 33.0417 35.4623 33.0417 35.4623 31.9117C35.4623 30.7817 35.3021 30.792 35.3021 29.672C35.3021 28.552 35.4223 28.5517 35.4223 27.4317C35.4223 26.3117 35.3021 26.3017 35.3021 25.1817C35.3021 24.0617 35.4022 24.0617 35.4022 22.9317C35.4022 21.8017 35.7226 21.812 35.7226 20.692C35.7226 19.572 35.7226 19.572 35.7226 18.442C35.7226 17.312 35.7226 17.3218 35.7226 16.2018C35.7226 15.0818 35.3222 15.0818 35.3222 13.9518C35.3222 12.8218 35.4022 12.832 35.4022 11.712C35.4022 10.592 35.4823 10.582 35.4823 9.46202C35.4823 8.34202 35.3222 8.34202 35.3222 7.21202C35.3222 6.08202 35.3222 6.09202 35.3222 4.96202C35.3222 3.83202 35.5224 3.84202 35.5224 2.71202C35.5224 1.58202 36.1925 1.36208 35.4325 0.522075C34.6725 -0.317925 34.4923 0.232036 33.4823 0.232036C32.4723 0.232036 32.4125 0.762075 31.4325 0.522075C30.4625 0.242075 30.1425 -0.398335 29.4525 0.351665Z" fill="#FFAA93"/>
<path d="M35.8622 119.052C35.8473 118.83 35.8037 118.612 35.7324 118.402C35.727 118.625 35.7713 118.847 35.8622 119.052Z" fill="#FFAA93"/>
<path d="M45.2025 48.0116C45.4725 49.2316 45.5024 49.2215 45.7724 50.4315C46.0424 51.6415 45.5925 51.9315 46.3725 52.8915C47.1525 53.8515 47.6126 53.2916 48.7426 53.8016C49.8726 54.3116 49.8323 54.4315 50.9623 54.9315C51.1571 55.0069 51.3269 55.1353 51.4525 55.3021C51.5782 55.469 51.655 55.6678 51.6737 55.8759C51.6925 56.0839 51.6524 56.2928 51.5585 56.4794C51.4646 56.666 51.3207 56.8226 51.1425 56.9315C50.0725 57.5615 50.0626 57.5518 48.9926 58.1918C47.9226 58.8318 47.4326 58.3217 46.7626 59.3617C46.0926 60.4017 46.7024 60.6417 46.5624 61.8817C46.4224 63.1217 46.2725 63.1017 46.1425 64.3417C46.1498 64.5429 46.0961 64.7417 45.9887 64.912C45.8812 65.0822 45.7252 65.2158 45.5404 65.2958C45.3557 65.3757 45.1507 65.398 44.953 65.3597C44.7554 65.3215 44.5742 65.2245 44.4325 65.0814C43.5025 64.2614 43.4326 64.3516 42.4926 63.5316C41.5526 62.7116 41.9523 61.9517 40.7523 61.6317C39.5523 61.3117 39.4626 61.8817 38.2426 62.1317C37.0226 62.3817 37.0324 62.4215 35.8124 62.6815C35.6139 62.7332 35.4051 62.7298 35.2084 62.6718C35.0117 62.6138 34.8345 62.5035 34.6957 62.3524C34.557 62.2013 34.4619 62.0153 34.4208 61.8143C34.3797 61.6134 34.394 61.4052 34.4623 61.2118C34.9523 60.0718 35.2326 60.2116 35.7226 59.0516C36.2126 57.8916 36.6222 57.9515 36.5522 56.7015C36.4822 55.4515 35.9925 55.6019 35.3725 54.5219C34.7525 53.4419 34.6126 53.5218 33.9926 52.4418C33.9006 52.2573 33.8601 52.0516 33.8759 51.8461C33.8917 51.6406 33.9629 51.443 34.0819 51.2748C34.2009 51.1065 34.3632 50.9738 34.5517 50.8905C34.7402 50.8072 34.9477 50.7764 35.1523 50.8016C36.3923 50.9116 36.3922 50.9316 37.6322 51.0516C38.8722 51.1716 38.9024 51.5016 40.0624 51.0516C41.2224 50.6016 40.8725 50.2019 41.7025 49.2719C42.5325 48.3419 42.7024 48.5017 43.5424 47.5717C43.6514 47.421 43.8033 47.307 43.9784 47.2445C44.1536 47.182 44.3436 47.1739 44.5233 47.2216C44.7031 47.2692 44.8645 47.3701 44.9857 47.5111C45.1069 47.6521 45.1825 47.8267 45.2025 48.0116Z" fill="#FFB29D"/>
<path d="M11.0425 118.062C12.2925 118.062 12.2925 117.912 13.5425 117.962C14.7925 118.012 14.9223 118.792 16.0523 118.272C17.1823 117.752 16.7025 117.152 17.4825 116.182C18.2625 115.212 18.4825 115.362 19.2325 114.392C19.3488 114.225 19.509 114.095 19.6954 114.015C19.8817 113.935 20.0866 113.909 20.2872 113.939C20.4877 113.969 20.676 114.055 20.8306 114.186C20.9852 114.317 21.1003 114.489 21.1627 114.682C21.5027 115.872 21.4228 115.901 21.7628 117.101C22.1028 118.301 21.5224 118.652 22.3624 119.562C23.2024 120.472 23.6623 119.782 24.8223 120.222C25.9823 120.662 25.9223 120.842 27.0923 121.292C27.2883 121.344 27.4637 121.455 27.5953 121.609C27.7268 121.764 27.8085 121.954 27.8292 122.156C27.8498 122.358 27.8086 122.561 27.711 122.739C27.6134 122.917 27.4641 123.061 27.2828 123.152C26.2828 123.842 26.1927 123.762 25.1627 124.462C24.1327 125.162 23.7727 124.892 23.1627 125.982C22.5527 127.072 23.1624 127.242 23.1124 128.482C23.0624 129.722 23.1123 129.732 23.0523 130.972C23.028 131.181 22.9499 131.381 22.8253 131.552C22.7006 131.722 22.5338 131.857 22.3414 131.944C22.1489 132.03 21.9373 132.065 21.7271 132.046C21.5169 132.026 21.3157 131.952 21.1426 131.831C20.1426 131.061 20.1427 131.032 19.2027 130.272C18.2627 129.512 18.4627 128.992 17.2027 128.742C15.9427 128.492 16.0023 129.041 14.8023 129.371C13.6023 129.701 13.5926 129.672 12.3926 130.002C12.1985 130.061 11.9916 130.065 11.7955 130.013C11.5993 129.961 11.4216 129.855 11.2823 129.707C11.143 129.559 11.048 129.376 11.0074 129.177C10.9668 128.978 10.9821 128.772 11.0523 128.581C11.4823 127.411 11.6023 127.452 12.0523 126.282C12.5023 125.112 12.8427 125.152 12.7027 123.922C12.5627 122.692 12.2323 122.792 11.5523 121.752C10.8723 120.712 10.6224 120.871 9.94244 119.831C9.84179 119.645 9.79202 119.436 9.7984 119.225C9.80478 119.013 9.86738 118.807 9.97906 118.627C10.0907 118.448 10.2478 118.301 10.4346 118.202C10.6214 118.102 10.8311 118.054 11.0425 118.062Z" fill="#FFE6DE"/>
<path d="M527.542 0.692103C528.352 1.4921 527.833 1.69195 527.833 2.78195C527.833 3.87195 527.743 3.91195 527.743 5.03195C527.743 6.15195 527.743 6.1622 527.743 7.2922C527.743 8.4222 527.993 8.42197 527.993 9.55197C527.993 10.682 527.942 10.672 527.942 11.802C527.942 12.932 527.942 12.9322 527.942 14.0622C527.942 15.1922 527.743 15.1822 527.743 16.3122C527.743 17.4422 527.743 17.4422 527.743 18.5622C527.743 19.6822 527.902 19.692 527.902 20.822C527.902 21.952 527.572 21.942 527.572 23.072C527.572 24.202 528.033 24.202 528.033 25.322C528.033 26.442 527.942 26.4518 527.942 27.5818C527.942 28.7118 527.942 28.7018 527.942 29.8318C527.942 30.9618 528.022 30.962 528.022 32.092C528.022 33.222 527.612 33.2218 527.612 34.3518C527.612 35.4818 527.973 35.4818 527.973 36.6018C527.973 37.7218 527.663 37.732 527.663 38.862C527.663 39.992 528.072 39.9918 528.072 41.1218C528.072 42.2518 528.072 42.2418 528.072 43.3718C528.072 44.5018 527.993 44.502 527.993 45.632C527.993 46.762 527.993 46.752 527.993 47.882C527.993 49.012 527.913 49.0118 527.913 50.1418C527.913 51.2718 527.913 51.2618 527.913 52.3918C527.913 53.5218 527.802 53.5221 527.802 54.6521C527.802 55.7821 527.882 55.7818 527.882 56.9118C527.882 58.0418 527.882 58.0421 527.882 59.1721C527.882 60.3021 527.833 60.3021 527.833 61.4221C527.833 62.5421 527.743 62.5519 527.743 63.6819C527.743 64.8119 528.143 64.8121 528.143 65.9421C528.143 67.0721 527.953 67.0721 527.953 68.1921C527.953 69.3121 527.882 69.3219 527.882 70.4519C527.882 71.5819 527.772 71.5821 527.772 72.7121C527.772 73.8421 527.632 73.8419 527.632 74.9719C527.632 76.1019 528.013 76.1021 528.013 77.2321V79.4821C528.013 80.6121 528.013 80.6119 528.013 81.7419C528.013 82.8719 527.913 82.8722 527.913 84.0022C527.913 85.1322 527.913 85.1319 527.913 86.2619C527.913 87.3919 528.052 87.3922 528.052 88.5222C528.052 89.6522 527.703 89.6519 527.703 90.7819C527.703 91.9119 527.703 91.9019 527.703 93.0319C527.703 94.1619 528.192 94.1622 528.192 95.2922C528.192 96.4222 527.763 96.422 527.763 97.552C527.763 98.682 527.763 98.6822 527.763 99.8122C527.763 100.942 527.942 100.942 527.942 102.072C527.942 103.202 528.163 103.202 528.163 104.332C528.163 105.462 527.902 105.462 527.902 106.592C527.902 107.722 528.123 107.722 528.123 108.852C528.123 109.982 528.062 109.982 528.062 111.112C528.062 112.242 527.703 112.242 527.703 113.372C527.703 114.502 527.783 114.492 527.783 115.622C527.783 116.752 528.132 116.752 528.132 117.882C528.132 119.012 528.002 119.012 528.002 120.132C528.002 121.252 527.893 121.262 527.893 122.392V124.652C527.893 125.782 528.052 125.782 528.052 126.912C528.052 128.042 527.783 128.042 527.783 129.172C527.783 130.302 527.853 130.302 527.853 131.432C527.853 132.562 527.853 132.562 527.853 133.692C527.853 134.822 528.042 134.822 528.042 135.952C528.042 137.082 528.123 137.082 528.123 138.212C528.123 139.342 527.763 139.342 527.763 140.472C527.763 141.602 527.953 141.602 527.953 142.732C527.953 143.862 527.842 143.872 527.842 145.002V147.262C527.842 148.392 527.663 148.392 527.663 149.522C527.663 150.652 528.123 150.652 528.123 151.782C528.123 152.912 528.123 152.912 528.123 154.042C528.123 155.172 527.882 155.172 527.882 156.312C527.882 157.452 527.723 157.442 527.723 158.572C527.723 159.702 527.652 159.712 527.652 160.842C527.652 161.972 528.103 161.972 528.103 163.112C528.088 163.356 528.024 163.593 527.914 163.811C527.804 164.029 527.65 164.222 527.463 164.379C527.276 164.535 527.058 164.652 526.824 164.721C526.59 164.79 526.345 164.811 526.103 164.782C525.354 164.537 524.578 164.382 523.792 164.322C522.191 164.314 520.618 164.743 519.243 165.562C518.566 165.973 517.935 166.455 517.362 167.002C516.714 167.457 516.112 167.972 515.562 168.542C515.12 169.17 514.625 169.758 514.083 170.302C513.517 170.83 512.904 171.305 512.252 171.722C511.54 172.028 510.796 172.253 510.033 172.392C509.305 172.614 508.552 172.748 507.792 172.792C507.032 172.877 506.263 172.877 505.502 172.792C504.736 172.694 503.982 172.516 503.252 172.262C502.582 171.992 502.163 171.342 501.623 170.962C501.016 170.637 500.454 170.234 499.953 169.762C499.522 169.21 499.184 168.592 498.953 167.932C498.718 167.291 498.6 166.614 498.603 165.932C498.603 165.162 498.913 165.072 498.603 164.372C497.86 164.332 497.116 164.372 496.382 164.492C495.69 164.694 495.02 164.966 494.382 165.302C493.713 165.602 493.074 165.963 492.473 166.382C491.575 166.97 490.755 167.669 490.033 168.462C489.552 169.039 489.024 169.574 488.453 170.062C487.926 170.613 487.35 171.115 486.732 171.562C486.049 171.895 485.331 172.153 484.592 172.332C483.862 172.513 483.114 172.61 482.362 172.622C481.617 172.677 480.868 172.637 480.132 172.502C479.389 172.405 478.658 172.227 477.953 171.972C477.277 171.803 476.623 171.558 476.002 171.242C475.445 170.824 474.95 170.33 474.533 169.772C474.104 169.227 473.767 168.615 473.533 167.962C473.305 167.32 473.189 166.643 473.192 165.962C473.192 164.852 473.243 164.852 473.243 163.732C473.243 162.612 472.922 162.612 472.922 161.502C472.922 160.392 472.922 160.382 472.922 159.262C472.922 158.142 473.252 158.152 473.252 157.032C473.252 155.912 473.152 155.912 473.152 154.802V152.562C473.152 151.452 473.342 151.452 473.342 150.332C473.342 149.212 473.062 149.222 473.062 148.102C473.062 146.982 473.402 146.982 473.402 145.872C473.402 144.762 473.172 144.752 473.172 143.642C473.172 142.532 472.973 142.522 472.973 141.412C472.973 140.302 473.382 140.292 473.382 139.182C473.382 138.072 473.382 138.062 473.382 136.952C473.382 135.842 473.212 135.832 473.212 134.722C473.212 133.612 473.212 133.602 473.212 132.482C473.212 131.362 472.933 131.372 472.933 130.252C472.933 129.132 473.052 129.132 473.052 128.022C473.052 126.912 473.052 126.902 473.052 125.782C473.052 124.662 473.052 124.662 473.052 123.552C473.052 122.442 473.052 122.432 473.052 121.312C473.052 120.192 473.302 120.202 473.302 119.082C473.302 117.962 472.962 117.972 472.962 116.852C472.962 115.732 473.033 115.732 473.033 114.622C473.033 113.512 473.353 113.502 473.353 112.392C473.353 111.282 473.033 111.272 473.033 110.152C473.033 109.032 473.033 109.042 473.033 107.922C473.033 106.802 473.312 106.802 473.312 105.682C473.312 104.562 473.263 104.562 473.263 103.452C473.263 102.342 473.203 102.332 473.203 101.212C473.203 100.092 472.942 100.102 472.942 98.9821C472.942 97.8621 473.042 97.8622 473.042 96.7522C473.042 95.6422 473.042 95.6319 473.042 94.5119C473.042 93.3919 473.042 93.4019 473.042 92.2819C473.042 91.1619 473.112 91.1622 473.112 90.0422C473.112 88.9222 473.263 88.9222 473.263 87.8122C473.263 86.7022 472.893 86.692 472.893 85.572C472.893 84.452 473.342 84.452 473.342 83.342C473.342 82.232 472.982 82.2218 472.982 81.1018C472.982 79.9818 473.123 79.9918 473.123 78.8718C473.123 77.7518 473.312 77.752 473.312 76.632C473.312 75.512 473.192 75.5121 473.192 74.4021C473.192 73.2921 473.353 73.2818 473.353 72.1618C473.353 71.0418 473.112 71.0418 473.112 69.9318V67.6921C473.112 66.5721 473.022 66.5719 473.022 65.4519C473.022 64.3319 473.292 64.3319 473.292 63.2219C473.292 62.1119 472.942 62.1021 472.942 60.9821C472.942 59.8621 472.993 59.8619 472.993 58.7419C472.993 57.6219 472.993 57.6319 472.993 56.5119C472.993 55.3919 473.373 55.3922 473.373 54.2722C473.373 53.1522 473.283 53.1519 473.283 52.0319C473.283 50.9119 473.203 50.922 473.203 49.802C473.203 48.682 473.433 48.6822 473.433 47.5622C473.433 46.4422 473.373 46.4518 473.373 45.3318C473.373 44.2118 473.192 44.2218 473.192 43.1018C473.192 41.9818 473.192 41.982 473.192 40.862C473.192 39.742 473.442 39.742 473.442 38.632C473.442 37.522 473.442 37.5118 473.442 36.3918C473.442 35.2718 473.333 35.2718 473.333 34.1618C473.333 33.0518 473.263 33.0421 473.263 31.9221C473.263 30.8021 473.083 30.8018 473.083 29.6818C473.083 28.5618 473.083 28.5621 473.083 27.4421C473.083 26.3221 473.083 26.3221 473.083 25.2121C473.083 24.1021 473.083 24.0919 473.083 22.9719C473.083 21.8519 473.373 21.8521 473.373 20.7321C473.373 19.6121 473.033 19.6119 473.033 18.4919C473.033 17.3719 473.302 17.3722 473.302 16.2522C473.302 15.1322 473.302 15.1319 473.302 14.0119C473.302 12.8919 473.302 12.9019 473.302 11.7819C473.302 10.6619 473.092 10.6619 473.092 9.53195C473.092 8.40195 473.322 8.4122 473.322 7.2922C473.322 6.1722 473.223 6.17197 473.223 5.05197C473.223 3.93197 473.322 3.93222 473.322 2.81222C473.322 1.69222 472.443 1.39202 473.243 0.612025C474.043 -0.167975 474.342 0.351771 475.482 0.351771C476.622 0.351771 476.623 0.692103 477.763 0.692103C478.903 0.692103 478.893 0.581751 480.033 0.581751C481.173 0.581751 481.173 0.451869 482.312 0.451869C483.452 0.451869 483.453 0.321986 484.583 0.321986C485.713 0.321986 485.722 0.511927 486.862 0.511927C488.002 0.511927 488.003 0.712122 489.143 0.712122C490.283 0.712122 490.282 0.31222 491.422 0.31222C492.562 0.31222 492.563 0.592005 493.703 0.592005H495.982C497.122 0.592005 497.123 0.692103 498.263 0.692103C499.403 0.692103 499.402 0.692103 500.542 0.692103C501.682 0.692103 501.682 0.531947 502.822 0.531947C503.962 0.531947 503.962 0.752162 505.112 0.752162C506.262 0.752162 506.253 0.752162 507.393 0.752162C508.533 0.752162 508.532 0.661829 509.672 0.661829C510.812 0.661829 510.813 0.772181 511.953 0.772181C513.093 0.772181 513.092 0.56222 514.232 0.56222C515.372 0.56222 515.373 0.862025 516.513 0.862025C517.653 0.862025 517.652 0.402064 518.802 0.402064C519.952 0.402064 519.943 0.81222 521.083 0.81222C522.223 0.81222 522.223 0.511927 523.373 0.511927C524.523 0.511927 524.562 1.01222 525.692 0.81222C526.822 0.61222 526.732 -0.107897 527.542 0.692103Z" fill="#FFCDBC"/>
<path d="M498.533 0.421707C499.293 1.25171 498.292 1.64155 498.292 2.76155C498.292 3.88155 498.192 3.88179 498.192 5.00179C498.192 6.12179 498.272 6.13179 498.272 7.25179C498.272 8.37179 498.482 8.37153 498.482 9.49153C498.482 10.6115 498.482 10.6118 498.482 11.7318C498.482 12.8518 498.542 12.8618 498.542 13.9818C498.542 15.1018 498.393 15.1015 498.393 16.2215V18.4617C498.393 19.5817 498.473 19.5815 498.473 20.7015C498.473 21.8215 498.542 21.8115 498.542 22.9315C498.542 24.0515 498.413 24.0517 498.413 25.1717C498.413 26.2917 498.283 26.2915 498.283 27.4115C498.283 28.5315 498.502 28.5317 498.502 29.6517C498.502 30.7717 498.393 30.7817 498.393 31.9017C498.393 33.0217 498.272 33.0214 498.272 34.1414C498.272 35.2614 498.402 35.2617 498.402 36.3817C498.402 37.5017 498.502 37.5117 498.502 38.6317C498.502 39.7517 498.302 39.7514 498.302 40.8714C498.302 41.9914 498.302 41.9916 498.302 43.1116C498.302 44.2316 498.422 44.2316 498.422 45.3616C498.422 46.4916 498.422 46.4814 498.422 47.6014C498.422 48.7214 498.312 48.7216 498.312 49.8416C498.312 50.9616 498.652 50.9614 498.652 52.0814C498.652 53.2014 498.382 53.2016 498.382 54.3216C498.382 55.4416 498.562 55.4416 498.562 56.5716C498.562 57.7016 498.433 57.6918 498.433 58.8118C498.433 59.9318 498.342 59.9318 498.342 61.0618C498.342 62.1918 498.243 62.1816 498.243 63.3016C498.243 64.4216 498.402 64.4218 498.402 65.5418C498.402 66.6618 498.632 66.6616 498.632 67.7816C498.632 68.9016 498.692 68.9116 498.692 70.0316C498.692 71.1516 498.422 71.1518 498.422 72.2718C498.422 73.3918 498.292 73.3918 498.292 74.5218C498.292 75.6518 498.632 75.6416 498.632 76.7616C498.632 77.8816 498.583 77.8816 498.583 79.0116C498.583 80.1416 498.272 80.1318 498.272 81.2518C498.272 82.3718 498.342 82.3715 498.342 83.4915V85.7415C498.342 86.8615 498.542 86.8618 498.542 87.9818C498.542 89.1018 498.683 89.1118 498.683 90.2318C498.683 91.3518 498.312 91.3515 498.312 92.4715C498.312 93.5915 498.312 93.6015 498.312 94.7215C498.312 95.8415 498.542 95.8417 498.542 96.9617C498.542 98.0817 498.402 98.0917 498.402 99.2117C498.402 100.332 498.272 100.331 498.272 101.451C498.272 102.571 498.632 102.581 498.632 103.701C498.632 104.821 498.272 104.821 498.272 105.951C498.272 107.081 498.592 107.072 498.592 108.192C498.592 109.312 498.422 109.312 498.422 110.442C498.422 111.572 498.703 111.561 498.703 112.681C498.703 113.801 498.542 113.811 498.542 114.931C498.542 116.051 498.302 116.052 498.302 117.172C498.302 118.292 498.302 118.291 498.302 119.411C498.302 120.531 498.513 120.531 498.513 121.661C498.513 122.791 498.453 122.782 498.453 123.902C498.453 125.022 498.393 125.022 498.393 126.152C498.393 127.282 498.342 127.271 498.342 128.391C498.342 129.511 498.402 129.511 498.402 130.641C498.402 131.771 498.703 131.762 498.703 132.882C498.703 134.002 498.703 134.012 498.703 135.132C498.703 136.252 498.632 136.252 498.632 137.382C498.632 138.512 498.502 138.501 498.502 139.621C498.502 140.741 498.223 140.751 498.223 141.871C498.223 142.991 498.342 143.001 498.342 144.121C498.342 145.241 498.473 145.241 498.473 146.371C498.473 147.501 498.413 147.491 498.413 148.621C498.413 149.751 498.623 149.742 498.623 150.862C498.623 151.982 498.312 151.992 498.312 153.112C498.312 154.232 498.552 154.242 498.552 155.362C498.552 156.482 498.672 156.492 498.672 157.612C498.672 158.732 498.362 158.742 498.362 159.862C498.362 160.982 498.362 160.991 498.362 162.121C498.362 163.251 498.562 163.232 498.212 164.302C497.56 164.358 496.916 164.489 496.292 164.692C495.553 164.76 494.822 164.903 494.112 165.121C493.472 165.411 493.112 165.931 492.552 166.371C492.192 165.311 492.493 165.372 492.493 164.212C492.493 163.052 492.493 163.092 492.493 161.972C492.493 160.852 492.072 160.852 492.072 159.732C492.072 158.612 492.152 158.612 492.152 157.492C492.152 156.372 492.152 156.362 492.152 155.242C492.152 154.122 492.223 154.122 492.223 153.002C492.223 151.882 492.163 151.882 492.163 150.772C492.163 149.662 492.062 149.652 492.062 148.532C492.062 147.412 492.342 147.412 492.342 146.292C492.342 145.172 492.103 145.172 492.103 144.052C492.103 142.932 492.163 142.932 492.163 141.822C492.163 140.712 492.393 140.701 492.393 139.581V137.342C492.393 136.222 492.393 136.221 492.393 135.101C492.393 133.981 492.132 133.982 492.132 132.862C492.132 131.742 492.482 131.741 492.482 130.621C492.482 129.501 492.062 129.502 492.062 128.382C492.062 127.262 492.302 127.261 492.302 126.141C492.302 125.021 492.252 125.022 492.252 123.902C492.252 122.782 492.413 122.781 492.413 121.661C492.413 120.541 492.413 120.542 492.413 119.422C492.413 118.302 492.022 118.301 492.022 117.181C492.022 116.061 492.453 116.062 492.453 114.942C492.453 113.822 492.333 113.821 492.333 112.701C492.333 111.581 492.163 111.582 492.163 110.462C492.163 109.342 492.272 109.342 492.272 108.222C492.272 107.102 492.453 107.102 492.453 105.972C492.453 104.842 492.203 104.852 492.203 103.732C492.203 102.612 492.393 102.612 492.393 101.492C492.393 100.372 492.183 100.372 492.183 99.2518C492.183 98.1318 492.243 98.1316 492.243 97.0116C492.243 95.8916 492.172 95.8918 492.172 94.7718C492.172 93.6518 492.382 93.6516 492.382 92.5316C492.382 91.4116 492.002 91.4118 492.002 90.2918C492.002 89.1718 492.052 89.1618 492.052 88.0418C492.052 86.9218 492.462 86.9216 492.462 85.8016C492.462 84.6816 492.192 84.6818 492.192 83.5618C492.192 82.4418 492.402 82.4416 492.402 81.3216C492.402 80.2016 492.083 80.2014 492.083 79.0814C492.083 77.9614 492.422 77.9514 492.422 76.8314C492.422 75.7114 492.042 75.7116 492.042 74.5916C492.042 73.4716 492.243 73.4714 492.243 72.3514C492.243 71.2314 492.433 71.2314 492.433 70.1014C492.433 68.9714 492.433 68.9816 492.433 67.8616C492.433 66.7416 492.272 66.7414 492.272 65.6214C492.272 64.5014 492.322 64.5014 492.322 63.3714C492.322 62.2414 492.322 62.2517 492.322 61.1317C492.322 60.0117 492.243 60.0114 492.243 58.8914C492.243 57.7714 492.393 57.7714 492.393 56.6414C492.393 55.5114 492.013 55.5217 492.013 54.4017C492.013 53.2817 492.292 53.2815 492.292 52.1615C492.292 51.0415 492.123 51.0415 492.123 49.9115C492.123 48.7815 492.252 48.7917 492.252 47.6717C492.252 46.5517 492.172 46.5515 492.172 45.4315C492.172 44.3115 492.022 44.3117 492.022 43.1917C492.022 42.0717 491.922 42.0715 491.922 40.9515C491.922 39.8315 492.042 39.8317 492.042 38.7117C492.042 37.5917 492.042 37.5915 492.042 36.4715C492.042 35.3515 492.042 35.3415 492.042 34.2215C492.042 33.1015 492.402 33.1018 492.402 31.9818C492.402 30.8618 492.302 30.8618 492.302 29.7318C492.302 28.6018 492.302 28.6115 492.302 27.4915C492.302 26.3715 492.192 26.3715 492.192 25.2415C492.192 24.1115 492.302 24.1218 492.302 23.0018C492.302 21.8818 492.302 21.8718 492.302 20.7518C492.302 19.6318 491.922 19.6316 491.922 18.5116C491.922 17.3916 491.993 17.3816 491.993 16.2616C491.993 15.1416 492.302 15.1418 492.302 14.0218C492.302 12.9018 491.953 12.8918 491.953 11.7718C491.953 10.6518 491.873 10.6518 491.873 9.5218C491.873 8.3918 492.132 8.4018 492.132 7.2718C492.132 6.1418 492.013 6.15157 492.013 5.03157C492.013 3.91157 492.243 3.9018 492.243 2.7718C492.243 1.6418 491.542 1.52147 492.302 0.681473C493.062 -0.158527 493.132 0.30159 494.152 0.30159C495.172 0.30159 495.152 0.611414 496.152 0.371414C497.152 0.131414 497.853 -0.328293 498.533 0.421707Z" fill="#FFAA93"/>
<path d="M474.712 134.682L477.763 130.742L482.763 130.822C482.966 130.825 483.165 130.773 483.341 130.671C483.516 130.569 483.66 130.42 483.757 130.242C483.854 130.063 483.9 129.862 483.891 129.659C483.881 129.456 483.816 129.26 483.703 129.092L480.893 124.982L482.513 120.272C482.58 120.079 482.592 119.872 482.549 119.673C482.506 119.474 482.409 119.29 482.269 119.142C482.128 118.994 481.949 118.888 481.752 118.835C481.556 118.782 481.348 118.785 481.152 118.842L476.373 120.242L472.962 117.682C473.121 118.118 473.202 118.578 473.203 119.042C473.203 120.162 472.953 120.162 472.953 121.272C472.953 122.382 472.953 122.392 472.953 123.512C472.953 124.632 472.953 124.622 472.953 125.742C472.953 126.862 472.953 126.862 472.953 127.982C472.953 129.102 472.833 129.092 472.833 130.212C472.833 131.332 473.112 131.332 473.112 132.442C473.112 133.552 473.112 133.562 473.112 134.682V134.782C473.222 134.885 473.351 134.964 473.493 135.015C473.634 135.066 473.784 135.087 473.934 135.078C474.084 135.068 474.23 135.029 474.364 134.96C474.498 134.892 474.617 134.797 474.712 134.682Z" fill="#FFE6DE"/>
<path d="M498.353 61.062C498.353 62.182 498.252 62.1818 498.252 63.3018C498.252 64.4218 498.393 64.422 498.393 65.542C498.393 65.762 498.323 65.9215 498.333 66.0815C498.453 65.0815 498.052 64.9616 498.632 64.1816C499.362 63.1816 499.702 63.5616 500.772 62.9316C501.842 62.3016 501.772 62.2018 502.862 61.5718C503.039 61.4779 503.185 61.336 503.285 61.1626C503.384 60.9892 503.432 60.7915 503.424 60.5918C503.415 60.3921 503.351 60.1987 503.237 60.0342C503.124 59.8697 502.966 59.7404 502.783 59.6616L500.623 58.6616C499.941 58.2559 499.229 57.905 498.493 57.6118C498.396 57.9916 498.339 58.3805 498.322 58.772C498.322 59.932 498.353 59.932 498.353 61.062Z" fill="#FFE6DE"/>
<path d="M521.263 80.4419L519.192 80.3818C518.192 80.3818 518.192 80.2319 517.112 80.1919C516.032 80.1519 516.052 80.4617 515.112 79.9717C514.172 79.4817 514.253 79.422 513.663 78.562C513.073 77.702 513.062 77.7218 512.462 76.8618C511.862 76.0018 512.103 75.8617 511.513 74.9917C511.355 74.786 511.145 74.6262 510.905 74.5283C510.665 74.4304 510.403 74.3979 510.147 74.4346C509.89 74.4712 509.648 74.5756 509.445 74.7368C509.242 74.898 509.086 75.1099 508.993 75.3516C508.643 76.3516 508.452 76.2619 508.102 77.2319C507.752 78.2019 508.023 78.312 507.663 79.292C507.303 80.272 507.663 80.542 506.913 81.292C506.163 82.042 505.832 81.4017 504.842 81.7017C503.852 82.0017 503.842 82.0618 502.842 82.3618C501.842 82.6618 501.892 82.8318 500.902 83.1318C500.667 83.1833 500.452 83.3035 500.286 83.4775C500.12 83.6516 500.009 83.8716 499.968 84.1089C499.927 84.3462 499.958 84.5904 500.057 84.8101C500.156 85.0297 500.318 85.2147 500.522 85.3418C501.342 85.9818 501.173 86.2018 501.993 86.8418C502.813 87.4818 502.863 87.402 503.683 88.042C504.503 88.682 504.742 88.4418 505.192 89.3818C505.642 90.3218 505.342 90.3818 505.322 91.3818C505.302 92.3818 505.482 92.3819 505.462 93.4619C505.442 94.5419 505.212 94.4617 505.192 95.5317C505.192 95.794 505.261 96.0516 505.392 96.2788C505.523 96.506 505.712 96.6948 505.939 96.8257C506.166 96.9566 506.424 97.0251 506.686 97.0244C506.948 97.0238 507.206 96.9538 507.433 96.8218C508.293 96.2418 508.162 96.0517 509.022 95.4717C509.882 94.8917 510.022 95.0717 510.872 94.4717C511.722 93.8717 511.482 93.2418 512.522 93.1118C513.562 92.9818 513.572 93.3919 514.522 93.7319C515.472 94.0719 515.422 94.3016 516.402 94.6416C517.382 94.9816 517.482 94.722 518.462 95.062C518.689 95.1667 518.941 95.2052 519.189 95.1733C519.437 95.1415 519.671 95.0405 519.864 94.8818C520.057 94.7232 520.201 94.5134 520.281 94.2764C520.36 94.0394 520.371 93.7849 520.312 93.542C520.032 92.542 520.102 92.542 519.812 91.542C519.522 90.542 519.432 90.542 519.142 89.542C518.852 88.542 518.402 88.6216 518.602 87.6016C518.802 86.5816 518.942 86.602 519.602 85.812C520.262 85.022 520.363 85.0817 520.993 84.2617C521.623 83.4417 521.682 83.4819 522.312 82.6519C522.461 82.4496 522.551 82.2106 522.575 81.9609C522.599 81.7112 522.554 81.4599 522.447 81.2334C522.339 81.0068 522.172 80.8137 521.964 80.6743C521.755 80.5349 521.513 80.4547 521.263 80.4419Z" fill="#FFB29D"/>
</g>
</svg>
