<svg width="198" height="237" viewBox="0 0 198 237" fill="none" xmlns="http://www.w3.org/2000/svg">
<path d="M39.3022 50.7987L35.5273 45.8624C36.046 45.4824 36.5254 45.0517 36.9585 44.5765C37.5993 43.9003 38.2928 43.2761 39.0325 42.7098C39.854 42.0566 40.7612 41.5192 41.7288 41.1128C42.2367 40.8972 42.7115 40.6109 43.1392 40.2624C44.031 39.5987 44.4459 39.2461 44.8815 38.8728C45.317 38.4994 45.8356 38.0639 46.8519 37.2965C47.296 36.9637 47.6936 36.5731 48.0341 36.135C48.6795 35.2865 49.4404 34.5325 50.2948 33.895C51.3526 33.1068 51.9126 32.7335 52.4726 32.3809C53.0731 32.0195 53.6483 31.6176 54.1941 31.1779C55.0102 30.5443 55.902 30.0148 56.849 29.6016C57.3665 29.3713 57.854 29.0788 58.3007 28.7305C59.1718 28.0668 59.5867 27.7142 60.0015 27.3409C60.4163 26.9675 60.9763 26.5112 61.9719 25.7438L65.7467 22.8608C66.2107 22.5068 66.6349 22.1034 67.0119 21.6579C67.6615 20.8833 68.3993 20.1872 69.2104 19.5838L71.2845 18.0904C71.7616 17.7793 72.2179 17.4475 73.1097 16.763C73.7717 16.2193 74.4642 15.7138 75.1838 15.249C75.6194 14.9586 76.0757 14.6682 76.9261 14.0045C77.4575 13.609 77.9568 13.1721 78.4194 12.6978C79.0684 12.0493 79.7614 11.4464 80.4934 10.8934C81.4478 10.1274 82.5598 9.58201 83.7498 9.29634C84.1591 9.2154 84.5431 9.0376 84.8697 8.77782L86.6949 7.32596L88.6238 5.83262C89.053 5.51961 89.4309 5.14175 89.7439 4.71261C90.3772 3.84168 91.1395 3.07236 92.0046 2.43113C93.4659 1.30586 95.1591 0.519485 96.9617 0.128894C98.4501 -0.131629 99.981 0.00428138 101.4 0.522967L102.271 0.751117L103.018 0.896302C104.513 1.08649 105.937 1.64213 107.166 2.51408L109.033 3.94521C109.51 4.2978 110.008 4.65039 110.962 5.39706C111.438 5.77403 111.953 6.10071 112.497 6.37188C113.38 6.79928 114.214 7.32083 114.985 7.92744C115.877 8.60017 116.655 9.41262 117.288 10.3334C117.545 10.762 117.891 11.1299 118.304 11.4119C118.793 11.8041 119.321 12.1447 119.88 12.4282C120.732 12.8763 121.544 13.3968 122.307 13.9838C123.036 14.5335 123.728 15.1293 124.381 15.7675C124.87 16.236 125.382 16.6791 125.916 17.0949C126.849 17.8001 127.305 18.1527 127.783 18.4845L129.711 19.9571L133.466 22.8401C134.482 23.6075 134.959 24.0223 135.436 24.4164C135.913 24.8105 136.286 25.1423 137.178 25.8268C137.598 26.1651 138.066 26.4379 138.568 26.6357C139.552 27.0258 140.474 27.5567 141.306 28.212C142.228 28.8983 143.015 29.7491 143.629 30.7216C143.87 31.1305 144.195 31.4838 144.583 31.7587C145.019 32.122 145.509 32.4158 146.035 32.6298C146.974 33.0527 147.859 33.589 148.669 34.2268C149.581 34.9113 150.037 35.2639 150.515 35.5957L152.589 37.0683C153.406 37.6715 154.151 38.3675 154.808 39.1424C155.166 39.5921 155.585 39.9899 156.052 40.3246C156.419 40.642 156.851 40.8755 157.318 41.0091C158.396 41.3699 159.405 41.9098 160.304 42.6061L162.212 44.0994L164.058 45.5513L160.283 50.4876L158.355 48.9943L156.509 47.5424C156.134 47.2418 155.704 47.0164 155.243 46.8787C154.162 46.5168 153.151 45.9694 152.257 45.2609C151.435 44.6628 150.69 43.9662 150.038 43.1868C149.679 42.7372 149.26 42.3393 148.793 42.0046C147.88 41.2994 147.424 40.9676 146.968 40.6357L144.997 39.1631C144.551 38.8029 144.055 38.5094 143.525 38.292C142.59 37.8595 141.706 37.3239 140.891 36.695C139.968 36.0086 139.181 35.1578 138.568 34.1853C138.331 33.7788 138.005 33.4313 137.614 33.169C137.199 32.8179 136.73 32.5376 136.224 32.3394C135.238 31.954 134.315 31.4226 133.486 30.7631C132.491 29.9957 131.993 29.5809 131.516 29.1661C131.039 28.7512 130.666 28.4401 129.794 27.7764L126.04 24.8934L124.174 23.4831L122.245 22.0312C121.517 21.4801 120.824 20.8844 120.171 20.2475C119.692 19.7685 119.179 19.3248 118.636 18.9201C118.14 18.5369 117.613 18.1969 117.06 17.9038C116.205 17.4606 115.393 16.9399 114.633 16.3482C113.741 15.6755 112.963 14.863 112.331 13.9423C112.072 13.5204 111.726 13.1595 111.314 12.8845C110.839 12.4996 110.325 12.1659 109.779 11.8889C108.894 11.4663 108.059 10.9444 107.291 10.3334C106.357 9.60745 105.901 9.25485 105.424 8.923L103.516 7.4504C103.016 7.22437 102.484 7.07743 101.94 7.01485C101.608 7.01485 101.276 6.91114 100.944 6.82818C100.612 6.74522 100.094 6.62077 99.6787 6.49633C99.2393 6.33248 98.778 6.23463 98.3099 6.20596C97.4027 6.39881 96.5515 6.79604 95.8209 7.36744C95.387 7.67484 95.0084 8.05354 94.701 8.48744C94.0642 9.36231 93.2943 10.1321 92.4194 10.7689L90.5942 12.2001L88.6653 13.7141C87.7055 14.467 86.5949 15.0046 85.409 15.2904C84.9969 15.3751 84.6122 15.5603 84.2891 15.8297C83.7576 16.2252 83.2582 16.6621 82.7956 17.1364C82.1466 17.7849 81.4536 18.3878 80.7216 18.9408C80.0555 19.4793 79.3633 19.9846 78.6475 20.4549C78.0446 20.8379 77.4631 21.2533 76.9053 21.6993L74.8312 23.172C74.3749 23.5038 73.9186 23.8149 73.006 24.5201C72.5491 24.8673 72.1318 25.2638 71.7616 25.7023C71.1072 26.4724 70.3698 27.1679 69.563 27.7764L65.7883 30.6594L64.0667 32.049C63.5897 32.4638 63.1127 32.8787 62.1171 33.6461C61.2968 34.2901 60.3977 34.8268 59.4416 35.2431C58.9286 35.4612 58.4473 35.7472 58.0105 36.0935C56.9527 36.9024 56.3927 37.255 55.9364 37.6283C55.3398 37.9882 54.765 38.383 54.2149 38.8105C53.7661 39.1378 53.3678 39.5292 53.0326 39.972C52.3574 40.8236 51.5607 41.5713 50.6681 42.1913C49.797 42.855 49.3615 43.2283 48.9467 43.5809C48.5319 43.9335 47.9719 44.3898 46.9763 45.1572C46.1614 45.809 45.2611 46.3463 44.3007 46.7543C43.7835 46.964 43.301 47.2507 42.8696 47.6046C42.3498 47.9911 41.8642 48.4213 41.4178 48.8906C40.7706 49.5881 40.0625 50.2266 39.3022 50.7987Z" fill="#C4C4C4"/>
<path d="M99.7002 2.26392C101.588 2.26392 103.06 3.79873 104.595 4.69059C106.075 5.56094 107.307 6.79547 108.175 8.2767C109.042 9.75793 109.517 11.4366 109.552 13.1528C109.481 14.8587 108.919 16.5078 107.934 17.9025C107.192 19.4289 106.034 20.7155 104.595 21.6151C103.06 22.507 101.588 24.2907 99.7002 24.2907C97.7846 24.1286 95.9389 23.4944 94.3283 22.4447C92.8623 21.366 91.6866 19.9408 90.9061 18.2966C89.7865 16.8109 89.0718 15.0599 88.832 13.2151C88.9776 11.357 89.6069 9.56944 90.6572 8.02986C91.7521 6.67096 93.1816 5.62025 94.8054 4.98097C96.4647 4.02689 97.8128 2.26392 99.7002 2.26392Z" fill="#7C97DD"/>
<path fill-rule="evenodd" clip-rule="evenodd" d="M3.73747 39.675C2.6942 39.1176 1.85323 38.6682 0.768895 39.7647C-0.421199 40.9548 -0.0263882 41.6728 0.593525 42.8002C0.945953 43.4411 1.37113 44.2143 1.61921 45.2818C1.95969 46.6777 1.62326 47.3782 1.24878 48.1578C0.938889 48.803 0.602933 49.5024 0.602933 50.6952C0.602933 52.0096 0.768214 52.663 0.933818 53.3176C1.10007 53.9748 1.26666 54.6333 1.26666 55.9633C1.26666 57.2933 1.13131 57.957 0.996221 58.6194C0.861665 59.2793 0.727373 59.9378 0.727373 61.2522C0.727373 62.5693 0.846623 63.2278 0.965873 63.8863C1.08512 64.5448 1.20437 65.2034 1.20437 66.5204C1.20437 67.8401 1.04821 68.509 0.89235 69.1766C0.737108 69.8416 0.582172 70.5052 0.582172 71.8093C0.582172 73.1108 0.669619 73.759 0.757411 74.4098C0.845896 75.0656 0.934731 75.7241 0.934731 77.0567C0.934731 78.3868 1.06487 79.0505 1.19475 79.7129C1.32413 80.3727 1.45325 81.0312 1.45325 82.3457C1.45325 83.6627 1.3703 84.3212 1.28735 84.9797C1.2044 85.6383 1.12145 86.2968 1.12145 87.6138C1.12145 88.9309 1.17848 89.5998 1.23551 90.2687C1.29254 90.9375 1.34957 91.6064 1.34957 92.9235C1.34957 94.2457 1.29209 94.9147 1.23483 95.581C1.17803 96.2421 1.12145 96.9005 1.12145 98.1917V103.418C1.12145 104.748 1.26201 105.402 1.4023 106.054C1.54203 106.703 1.6815 107.351 1.6815 108.666C1.6815 109.983 1.45335 110.641 1.2252 111.3C0.997046 111.958 0.768895 112.617 0.768895 113.934C0.768895 115.251 0.997046 115.91 1.2252 116.568C1.45335 117.227 1.6815 117.885 1.6815 119.202C1.6815 120.522 1.61382 121.185 1.54628 121.848C1.479 122.508 1.41186 123.166 1.41186 124.47C1.41186 125.774 1.38087 126.428 1.34982 127.082C1.31865 127.74 1.28742 128.398 1.28742 129.718C1.28742 131.035 1.1889 131.693 1.09038 132.352C0.991856 133.01 0.893335 133.669 0.893335 134.986C0.893335 136.303 0.960745 136.961 1.02816 137.62C1.09557 138.278 1.16298 138.937 1.16298 140.254C1.16298 141.571 1.27704 142.23 1.39109 142.888C1.50515 143.547 1.61921 144.205 1.61921 145.522C1.61921 146.839 1.43255 147.493 1.24589 148.146C1.05923 148.799 0.872574 149.453 0.872574 150.77C0.872574 152.087 1.02293 152.745 1.17329 153.404C1.32365 154.062 1.47401 154.721 1.47401 156.038C1.47401 157.355 1.42217 158.013 1.37033 158.672C1.31849 159.33 1.26666 159.989 1.26666 161.306C1.26666 162.623 1.29777 163.282 1.32887 163.94C1.35998 164.599 1.39109 165.257 1.39109 166.574C1.39109 167.891 1.3496 168.55 1.30811 169.208C1.26662 169.867 1.22513 170.525 1.22513 171.842C1.22513 173.159 1.32365 173.818 1.42217 174.476C1.52069 175.135 1.61921 175.793 1.61921 177.111C1.61921 178.428 1.49996 179.086 1.38071 179.745C1.26147 180.403 1.14222 181.062 1.14222 182.379C1.14222 183.696 1.28223 184.354 1.42224 185.013C1.56225 185.671 1.70226 186.33 1.70226 187.647C1.70226 188.964 1.66077 189.622 1.61928 190.281C1.57779 190.939 1.5363 191.598 1.5363 192.915C1.5363 194.232 1.33407 194.891 1.13184 195.549C0.929604 196.208 0.727373 196.866 0.727373 198.183C0.727373 199.5 0.851813 200.159 0.976252 200.817C1.10069 201.476 1.22513 202.134 1.22513 203.451C1.22513 204.768 1.07996 205.427 0.934794 206.085C0.789625 206.744 0.644455 207.402 0.644455 208.719C0.644455 210.037 0.851845 210.695 1.05924 211.354C1.26662 212.012 1.47401 212.671 1.47401 213.988C1.47401 215.305 1.32884 215.958 1.18367 216.611C1.0385 217.265 0.893335 217.918 0.893335 219.235C0.893335 220.552 0.955555 221.211 1.01777 221.869C1.08 222.528 1.14222 223.186 1.14222 224.503C1.14222 225.82 1.26146 226.479 1.38071 227.137C1.49996 227.796 1.61921 228.454 1.61921 229.771C1.61921 230.837 1.2593 231.577 0.954373 232.204C0.505667 233.126 0.176019 233.804 1.28742 234.915C2.55284 236.181 3.26543 236.045 4.4138 235.826C4.95943 235.722 5.60344 235.6 6.45186 235.6C7.7689 235.6 8.4326 235.33 9.0963 235.06C9.76001 234.791 10.4237 234.521 11.7407 234.521C13.0552 234.521 13.7086 234.671 14.3632 234.821C15.0204 234.972 15.6789 235.123 17.0089 235.123C18.3389 235.123 19.0026 234.977 19.665 234.831C20.3249 234.686 20.9834 234.542 22.2979 234.542C23.6149 234.542 24.2734 234.692 24.9319 234.843C25.5905 234.993 26.249 235.143 27.566 235.143C28.8805 235.143 29.539 235.216 30.1988 235.288C30.8612 235.361 31.5249 235.434 32.8549 235.434H38.1024C39.4324 235.434 40.0961 235.475 40.7585 235.517C41.4183 235.558 42.0768 235.6 43.3913 235.6C44.7083 235.6 45.3668 235.444 46.0253 235.288C46.6838 235.133 47.3424 234.977 48.6594 234.977C49.9764 234.977 50.635 235.143 51.2935 235.309C51.9521 235.475 52.6106 235.641 53.9277 235.641C55.2499 235.641 55.9189 235.5 56.5852 235.359C57.2462 235.22 57.9046 235.081 59.1958 235.081C60.4844 235.081 61.0557 235.153 61.6303 235.225C62.2118 235.298 62.7968 235.371 64.1321 235.371C65.4621 235.371 66.1258 235.278 66.7882 235.184C67.448 235.091 68.1065 234.998 69.421 234.998C70.738 234.998 71.3965 235.102 72.0551 235.206C72.7136 235.309 73.3721 235.413 74.6891 235.413H79.9574C81.277 235.413 81.9407 235.377 82.6031 235.34C83.2629 235.304 83.9214 235.268 85.2255 235.268H90.473C91.79 235.268 92.4485 235.242 93.107 235.216C93.7655 235.19 94.4241 235.164 95.7411 235.164C97.0582 235.164 97.7167 234.983 98.3752 234.801C99.0337 234.62 99.6922 234.438 101.009 234.438C102.326 234.438 102.985 234.516 103.643 234.594C104.302 234.671 104.96 234.749 106.277 234.749C107.595 234.749 108.248 234.703 108.901 234.656C109.554 234.609 110.208 234.563 111.525 234.563C112.842 234.563 113.5 234.604 114.159 234.646C114.818 234.687 115.476 234.729 116.793 234.729C118.11 234.729 118.769 234.848 119.427 234.967C120.086 235.086 120.744 235.206 122.061 235.206C123.378 235.206 124.037 235.086 124.695 234.967C125.354 234.848 126.012 234.729 127.329 234.729C128.646 234.729 129.305 234.635 129.963 234.542C130.622 234.449 131.281 234.355 132.598 234.355C133.915 234.355 134.573 234.48 135.232 234.604C135.89 234.729 136.549 234.853 137.866 234.853C139.183 234.853 139.841 234.801 140.5 234.749C141.158 234.697 141.817 234.646 143.134 234.646C144.451 234.646 145.109 234.817 145.768 234.988C146.427 235.159 147.085 235.33 148.402 235.33C149.719 235.33 150.378 235.086 151.036 234.843C151.695 234.599 152.353 234.355 153.67 234.355C154.987 234.355 155.646 234.583 156.304 234.811C156.963 235.04 157.621 235.268 158.938 235.268C160.256 235.268 160.914 235.091 161.573 234.915C162.231 234.739 162.89 234.563 164.207 234.563C165.524 234.563 166.182 234.682 166.841 234.801C167.499 234.92 168.158 235.04 169.475 235.04C170.792 235.04 171.45 234.957 172.109 234.874C172.767 234.791 173.426 234.708 174.743 234.708H179.99C181.307 234.708 181.966 234.858 182.624 235.009C183.283 235.159 183.942 235.309 185.259 235.309C186.576 235.309 187.234 235.351 187.893 235.392C188.551 235.434 189.21 235.475 190.527 235.475C191.449 235.475 192.156 235.658 192.764 235.816C193.893 236.109 194.686 236.315 195.899 235.102C197.023 233.977 196.68 233.206 196.229 232.195C195.931 231.528 195.587 230.756 195.587 229.709C195.587 228.392 195.546 227.729 195.504 227.065C195.463 226.401 195.422 225.737 195.422 224.42C195.422 223.106 195.597 222.453 195.773 221.798C195.95 221.141 196.127 220.482 196.127 219.152C196.127 217.822 195.986 217.158 195.846 216.496C195.706 215.836 195.567 215.178 195.567 213.863V208.595C195.567 207.275 195.785 206.606 196.004 205.939C196.221 205.274 196.438 204.61 196.438 203.306C196.438 202.005 196.294 201.356 196.149 200.706C196.003 200.05 195.857 199.391 195.857 198.059C195.857 196.729 195.779 196.065 195.701 195.403C195.623 194.743 195.546 194.084 195.546 192.77C195.546 191.453 195.65 190.794 195.753 190.136C195.857 189.477 195.961 188.819 195.961 187.502C195.961 186.185 196.013 185.526 196.064 184.868C196.116 184.209 196.168 183.551 196.168 182.233C196.168 180.916 196.049 180.258 195.93 179.599C195.81 178.941 195.691 178.282 195.691 176.965V171.697C195.691 170.367 195.634 169.703 195.577 169.041C195.52 168.381 195.463 167.723 195.463 166.408C195.463 165.091 195.582 164.433 195.702 163.774C195.821 163.116 195.94 162.457 195.94 161.14C195.94 159.823 195.976 159.164 196.013 158.506C196.049 157.847 196.085 157.189 196.085 155.872C196.085 154.552 195.913 153.889 195.742 153.226C195.571 152.566 195.401 151.908 195.401 150.604C195.401 149.3 195.478 148.646 195.556 147.992C195.634 147.334 195.712 146.676 195.712 145.356C195.712 144.039 195.639 143.381 195.567 142.722C195.494 142.064 195.422 141.405 195.422 140.088V134.82C195.422 133.503 195.499 132.844 195.577 132.186C195.655 131.527 195.733 130.869 195.733 129.552V124.304C195.733 122.987 195.676 122.329 195.619 121.67C195.561 121.012 195.504 120.353 195.504 119.036C195.504 117.719 195.753 117.061 196.002 116.402C196.251 115.744 196.5 115.085 196.5 113.768V108.5C196.5 107.183 196.459 106.524 196.417 105.866C196.376 105.207 196.334 104.549 196.334 103.232C196.334 101.915 196.251 101.256 196.168 100.598C196.085 99.9391 196.002 99.2805 196.002 97.9635C196.002 96.6465 195.899 95.9879 195.795 95.3294C195.691 94.6709 195.587 94.0124 195.587 92.6953C195.587 91.3783 195.816 90.7198 196.044 90.0612C196.272 89.4027 196.5 88.7442 196.5 87.4272C196.5 86.1101 196.215 85.4516 195.93 84.7931C195.645 84.1345 195.359 83.476 195.359 82.159C195.359 80.8419 195.525 80.1834 195.691 79.5249C195.857 78.8664 196.023 78.2079 196.023 76.8908V71.6227V66.3545C196.023 65.0374 196.153 64.3789 196.282 63.7204C196.412 63.0619 196.541 62.4034 196.541 61.0863C196.541 59.7693 196.37 59.1159 196.199 58.4626C196.028 57.8093 195.857 57.1559 195.857 55.8389C195.857 54.5218 195.774 53.8633 195.691 53.2048C195.608 52.5463 195.525 51.8878 195.525 50.5707C195.525 49.2537 195.727 48.5951 195.93 47.9366C196.132 47.2781 196.334 46.6196 196.334 45.3025C196.334 44.3121 196.598 43.5504 196.828 42.8862C197.21 41.784 197.499 40.9503 196.334 39.7855C195.233 38.684 194.42 39.1063 193.398 39.6376C192.688 40.0067 191.876 40.4284 190.796 40.4284C189.479 40.4284 188.816 40.4647 188.152 40.501C187.488 40.5373 186.824 40.5736 185.507 40.5736C184.193 40.5736 183.54 40.491 182.885 40.4082C182.228 40.3251 181.569 40.2418 180.239 40.2418H174.95C173.633 40.2418 172.975 40.2107 172.316 40.1796C171.658 40.1484 170.999 40.1173 169.682 40.1173C168.363 40.1173 167.683 40.2319 167.005 40.3462C166.33 40.46 165.656 40.5736 164.352 40.5736C163.05 40.5736 162.402 40.3833 161.751 40.1922C161.095 39.9996 160.437 39.8062 159.104 39.8062C157.774 39.8062 157.111 39.952 156.448 40.0974C155.788 40.2423 155.13 40.387 153.815 40.387H148.547C147.23 40.387 146.572 40.4336 145.913 40.4803C145.255 40.527 144.596 40.5736 143.279 40.5736C141.957 40.5736 141.288 40.4586 140.622 40.3441C139.96 40.2305 139.302 40.1173 138.011 40.1173C136.722 40.1173 136.079 40.2454 135.432 40.3743C134.778 40.5047 134.119 40.6359 132.784 40.6359C131.454 40.6359 130.79 40.4901 130.128 40.3446C129.468 40.1997 128.81 40.0551 127.495 40.0551C126.178 40.0551 125.52 39.9307 124.861 39.8062C124.203 39.6818 123.544 39.5573 122.227 39.5573C120.91 39.5573 120.252 39.6403 119.593 39.7233C118.935 39.8062 118.276 39.8892 116.959 39.8892C115.642 39.8892 114.983 39.9618 114.325 40.0344C113.666 40.107 113.008 40.1796 111.691 40.1796H106.443C105.126 40.1796 104.468 40.2262 103.809 40.2729C103.151 40.3196 102.492 40.3662 101.175 40.3662C99.8582 40.3662 99.1996 40.2262 98.5411 40.0862C97.8826 39.9462 97.2241 39.8062 95.9071 39.8062C94.59 39.8062 93.9315 39.7544 93.2729 39.7025C92.6144 39.6507 91.9559 39.5988 90.6388 39.5988C89.3218 39.5988 88.6685 39.7388 88.0151 39.8788C87.3618 40.0188 86.7085 40.1588 85.3914 40.1588C84.0744 40.1588 83.4159 40.1018 82.7574 40.0447C82.0989 39.9877 81.4404 39.9307 80.1233 39.9307C78.8063 39.9307 78.1477 39.9773 77.4892 40.024C76.8307 40.0707 76.1721 40.1173 74.8551 40.1173H69.587C68.2699 40.1173 67.6114 40.2003 66.9528 40.2833C66.2943 40.3662 65.6357 40.4492 64.3187 40.4492C63.0017 40.4492 62.3431 40.304 61.6846 40.1588C61.0261 40.0136 60.3676 39.8684 59.0506 39.8684C57.7335 39.8684 57.075 39.9618 56.4165 40.0551C55.758 40.1484 55.0995 40.2418 53.7824 40.2418H48.5142C47.1972 40.2418 46.5386 40.0603 45.8801 39.8788C45.2216 39.6973 44.5631 39.5158 43.2461 39.5158C41.929 39.5158 41.2705 39.5573 40.612 39.5988C39.9535 39.6403 39.295 39.6818 37.9779 39.6818C36.6609 39.6818 36.0024 39.7388 35.3438 39.7959C34.6853 39.8529 34.0267 39.9099 32.7097 39.9099C31.3927 39.9099 30.7341 39.827 30.0756 39.744C29.4171 39.661 28.7586 39.5781 27.4416 39.5781H22.1734C20.8564 39.5781 20.2031 39.7025 19.5497 39.827C18.8964 39.9514 18.243 40.0758 16.926 40.0758C15.6089 40.0758 14.9504 40.024 14.2919 39.9721C13.6334 39.9203 12.9749 39.8684 11.6578 39.8684C10.3408 39.8684 9.68225 40.0292 9.0237 40.1899C8.36516 40.3507 7.70662 40.5114 6.38958 40.5114C5.3028 40.5114 4.47024 40.0665 3.73747 39.675ZM34.8658 70.9332C34.0112 70.5986 33.4148 70.365 32.3972 71.3954C31.273 72.5196 31.5511 73.133 31.9949 74.1118C32.2144 74.5958 32.4743 75.1691 32.6253 75.9376C32.8847 77.2583 32.7285 77.8684 32.5454 78.5834C32.4064 79.1261 32.252 79.7293 32.252 80.7495C32.252 81.9317 32.2053 82.528 32.1586 83.1243C32.1119 83.7206 32.0652 84.3169 32.0652 85.4992C32.0652 86.6814 32.1534 87.2777 32.2416 87.874C32.3298 88.4703 32.4179 89.0666 32.4179 90.2488C32.4179 91.431 32.4646 92.0273 32.5112 92.6236C32.5579 93.2199 32.6045 93.8162 32.6045 94.9985C32.6045 96.1807 32.5423 96.7718 32.4801 97.3629C32.4179 97.954 32.3556 98.5451 32.3556 99.7274C32.3556 100.91 32.2986 101.506 32.2416 102.102C32.1846 102.698 32.1275 103.295 32.1275 104.477C32.1275 105.657 32.2359 106.243 32.3446 106.83C32.4537 107.42 32.563 108.011 32.563 109.206C32.563 110.401 32.537 110.997 32.511 111.592C32.4851 112.185 32.4593 112.776 32.4593 113.956C32.4593 115.138 32.4179 115.734 32.3764 116.33C32.3349 116.927 32.2935 117.523 32.2935 118.705V123.434V128.184V133.037V137.766C32.2935 138.948 32.1846 139.545 32.0757 140.141C31.9668 140.737 31.8579 141.333 31.8579 142.516C31.8579 143.698 31.9719 144.289 32.086 144.88C32.2001 145.471 32.3141 146.062 32.3141 147.245C32.3141 148.427 32.3452 149.018 32.3763 149.609C32.4074 150.2 32.4386 150.791 32.4386 151.974C32.4386 153.156 32.4749 153.752 32.5112 154.348C32.5475 154.945 32.5838 155.541 32.5838 156.723C32.5838 157.905 32.5112 158.497 32.4386 159.088C32.3661 159.679 32.2935 160.27 32.2935 161.452C32.2935 162.634 32.2572 163.225 32.2209 163.817C32.1846 164.408 32.1483 164.999 32.1483 166.181C32.1483 167.363 32.112 167.954 32.0757 168.545C32.0394 169.137 32.0031 169.728 32.0031 170.91V175.639C32.0031 176.834 31.951 177.43 31.899 178.025C31.8472 178.618 31.7956 179.209 31.7956 180.388C31.7956 181.568 31.9505 182.154 32.1057 182.741C32.2617 183.331 32.4179 183.922 32.4179 185.117C32.4179 186.313 32.3606 186.909 32.3034 187.504C32.2465 188.096 32.1897 188.687 32.1897 189.867C32.1897 191.049 32.2727 191.64 32.3556 192.231C32.4386 192.823 32.5216 193.414 32.5216 194.596C32.5216 195.77 32.3834 196.351 32.2443 196.936C32.1034 197.528 31.9616 198.124 31.9616 199.346C31.9616 200.2 31.8048 200.805 31.6758 201.302C31.4384 202.219 31.2951 202.771 32.3972 203.846C33.456 204.879 34.0244 204.682 34.8783 204.387C35.3959 204.207 36.0184 203.991 36.9186 203.991C38.1138 203.991 38.7153 204.111 39.3155 204.231C39.9131 204.35 40.5094 204.469 41.689 204.469C42.8712 204.469 43.4675 204.318 44.0638 204.168C44.6601 204.017 45.2564 203.867 46.4386 203.867C47.6208 203.867 48.2172 204.007 48.8135 204.147C49.4098 204.287 50.0061 204.427 51.1884 204.427C52.3706 204.427 52.9669 204.344 53.5632 204.261C54.1594 204.178 54.7557 204.095 55.938 204.095C57.1202 204.095 57.7113 204.132 58.3024 204.168C58.8936 204.204 59.4847 204.24 60.6669 204.24C61.8492 204.24 62.4454 204.173 63.0417 204.106C63.638 204.038 64.2343 203.971 65.4165 203.971C66.5962 203.971 67.1821 203.909 67.7694 203.847C68.3592 203.784 68.9503 203.722 70.1455 203.722C71.3407 203.722 71.937 203.883 72.532 204.044C73.1244 204.205 73.7155 204.365 74.8951 204.365C76.0773 204.365 76.6736 204.391 77.2699 204.417C77.8662 204.443 78.4625 204.469 79.6447 204.469C80.8244 204.469 81.4103 204.407 81.9976 204.344C82.5874 204.282 83.1785 204.22 84.3737 204.22C85.5689 204.22 86.1652 204.121 86.7601 204.022C87.3525 203.924 87.9436 203.826 89.1233 203.826C90.3029 203.826 90.894 203.862 91.4864 203.898C92.0814 203.934 92.6777 203.971 93.8729 203.971H98.6019C99.8231 203.971 100.43 204.034 101.032 204.096C101.627 204.158 102.218 204.22 103.393 204.22C104.575 204.22 105.166 204.173 105.757 204.126C106.349 204.08 106.94 204.033 108.122 204.033C109.304 204.033 109.895 204.08 110.486 204.126C111.077 204.173 111.669 204.22 112.851 204.22H117.6C118.783 204.22 119.374 204.121 119.965 204.023C120.556 203.924 121.147 203.826 122.329 203.826C123.512 203.826 124.103 203.779 124.694 203.732C125.285 203.686 125.876 203.639 127.058 203.639C128.24 203.639 128.832 203.732 129.423 203.826C130.014 203.919 130.605 204.012 131.787 204.012H136.392C137.587 204.012 138.183 203.903 138.778 203.794C139.371 203.685 139.962 203.577 141.141 203.577C142.321 203.577 142.907 203.649 143.494 203.721C144.084 203.794 144.675 203.867 145.87 203.867C147.065 203.867 147.662 203.919 148.257 203.971C148.849 204.023 149.44 204.074 150.62 204.074C151.802 204.074 152.393 204.012 152.984 203.95C153.575 203.888 154.167 203.826 155.349 203.826H160.098C161.032 203.826 161.71 204.123 162.292 204.378C163.185 204.77 163.852 205.062 164.869 204.033C165.949 202.939 165.76 202.257 165.487 201.275C165.336 200.73 165.159 200.093 165.159 199.242V194.471C165.159 193.289 165.107 192.693 165.055 192.097C165.004 191.5 164.952 190.904 164.952 189.722V184.972C164.952 183.79 165.04 183.194 165.128 182.597C165.216 182.001 165.304 181.405 165.304 180.223C165.304 179.04 165.138 178.449 164.973 177.858C164.807 177.267 164.641 176.676 164.641 175.494V170.744V166.015V161.265C164.641 160.083 164.667 159.487 164.693 158.891C164.718 158.294 164.744 157.698 164.744 156.516V151.787C164.744 150.592 164.807 149.995 164.869 149.4C164.931 148.808 164.993 148.217 164.993 147.037C164.993 145.855 165.035 145.259 165.076 144.662C165.118 144.066 165.159 143.47 165.159 142.288V137.559C165.159 136.376 165.004 135.78 164.848 135.184C164.692 134.588 164.537 133.991 164.537 132.809C164.537 131.627 164.677 131.036 164.817 130.445C164.957 129.853 165.097 129.262 165.097 128.08C165.097 126.898 164.957 126.307 164.817 125.716C164.677 125.125 164.537 124.533 164.537 123.351V118.602C164.537 117.419 164.615 116.828 164.692 116.237C164.77 115.646 164.848 115.055 164.848 113.873C164.848 112.69 164.791 112.099 164.734 111.508C164.677 110.917 164.62 110.326 164.62 109.144C164.62 107.964 164.708 107.378 164.796 106.791C164.884 106.201 164.973 105.61 164.973 104.415C164.973 103.222 165.024 102.688 165.076 102.154C165.128 101.62 165.18 101.086 165.18 99.8933C165.18 98.6981 165.039 98.1018 164.899 97.5068C164.759 96.9144 164.62 96.3233 164.62 95.1437C164.62 93.964 164.806 93.3781 164.992 92.7908C165.179 92.201 165.367 91.61 165.367 90.4147C165.367 89.2195 165.262 88.6232 165.158 88.0283C165.055 87.4359 164.952 86.8447 164.952 85.6651C164.952 84.4829 165.004 83.8918 165.055 83.3006C165.107 82.7095 165.159 82.1184 165.159 80.9362C165.159 79.754 165.133 79.1577 165.107 78.5614C165.081 77.9651 165.055 77.3688 165.055 76.1865C165.055 75.2887 165.298 74.6212 165.506 74.0465C165.847 73.1077 166.098 72.4168 165.055 71.3747C164.034 70.3529 163.349 70.6354 162.434 71.0136C161.844 71.2573 161.157 71.5406 160.223 71.5406C159.028 71.5406 158.426 71.4208 157.826 71.3013C157.228 71.1823 156.632 71.0636 155.452 71.0636C154.27 71.0636 153.674 71.1258 153.078 71.188C152.481 71.2502 151.885 71.3125 150.703 71.3125C149.521 71.3125 148.924 71.3591 148.328 71.4058C147.732 71.4524 147.135 71.4991 145.953 71.4991C144.771 71.4991 144.175 71.5406 143.578 71.5821C142.982 71.6236 142.386 71.665 141.203 71.665C140.021 71.665 139.43 71.6287 138.839 71.5925C138.248 71.5562 137.657 71.5199 136.475 71.5199C135.292 71.5199 134.696 71.4317 134.1 71.3436C133.503 71.2554 132.907 71.1673 131.725 71.1673C130.545 71.1673 129.959 71.2499 129.372 71.3326C128.782 71.4158 128.191 71.4991 126.996 71.4991H122.246H117.497C116.317 71.4991 115.731 71.4372 115.144 71.3751C114.554 71.3127 113.963 71.2502 112.768 71.2502C111.573 71.2502 110.976 71.1982 110.381 71.1462C109.789 71.0945 109.198 71.0428 108.018 71.0428C106.836 71.0428 106.24 71.0169 105.643 70.991C105.047 70.965 104.451 70.9391 103.269 70.9391C102.086 70.9391 101.495 71.0273 100.904 71.1154C100.313 71.2036 99.7218 71.2917 98.5396 71.2917C97.3573 71.2917 96.761 71.2191 96.1648 71.1465C95.5685 71.0739 94.9722 71.0013 93.79 71.0013H89.0611H84.3322C83.1499 71.0013 82.5536 70.9754 81.9574 70.9495C81.3611 70.9236 80.7648 70.8976 79.5826 70.8976C78.4003 70.8976 77.8092 71.0117 77.2181 71.1258C76.6269 71.2399 76.0358 71.3539 74.8536 71.3539C73.6714 71.3539 73.0803 71.2347 72.4892 71.1154C71.8981 70.9962 71.307 70.8769 70.1247 70.8769C68.9425 70.8769 68.3514 70.9702 67.7603 71.0636C67.1691 71.1569 66.578 71.2502 65.3958 71.2502C64.2161 71.2502 63.6302 71.2089 63.043 71.1675C62.4532 71.126 61.8621 71.0843 60.6669 71.0843C59.4717 71.0843 58.8754 71.1937 58.2804 71.3028C57.688 71.4114 57.0968 71.5199 55.9172 71.5199C54.7375 71.5199 54.1516 71.4631 53.5644 71.4062C52.9746 71.349 52.3835 71.2917 51.1884 71.2917C49.9931 71.2917 49.3968 71.2448 48.8018 71.1981C48.2094 71.1515 47.6183 71.105 46.4386 71.105C45.2564 71.105 44.6653 71.1362 44.0742 71.1673C43.4831 71.1984 42.892 71.2295 41.7098 71.2295C40.5275 71.2295 39.9313 71.271 39.335 71.3125C38.7387 71.3539 38.1424 71.3954 36.9602 71.3954C36.0459 71.3954 35.4045 71.1442 34.8658 70.9332Z" fill="#AABDED"/>
<path fill-rule="evenodd" clip-rule="evenodd" d="M196.619 232.188C197.065 233.238 197.407 234.045 196.269 235.165C194.989 236.439 194.087 236.022 192.822 235.438C192.233 235.166 191.566 234.858 190.745 234.667C189.207 234.309 188.547 234.436 187.707 234.597C187.136 234.707 186.481 234.833 185.409 234.833C184.088 234.833 183.431 234.745 182.773 234.657C182.112 234.569 181.451 234.48 180.114 234.48C178.777 234.48 178.11 234.689 177.444 234.896C176.781 235.103 176.119 235.31 174.798 235.31C173.475 235.31 172.813 235.279 172.151 235.248C171.489 235.217 170.827 235.186 169.504 235.186C168.177 235.186 167.505 235.212 166.834 235.238C166.166 235.263 165.499 235.289 164.188 235.289C162.88 235.289 162.229 235.217 161.575 235.145C160.915 235.072 160.254 234.999 158.914 234.999C157.578 234.999 156.911 235.082 156.245 235.165C155.582 235.248 154.92 235.331 153.599 235.331C152.275 235.331 151.613 235.18 150.952 235.03C150.29 234.88 149.628 234.729 148.304 234.729C146.981 234.729 146.319 234.88 145.657 235.03C144.995 235.18 144.333 235.331 143.009 235.331C141.686 235.331 141.024 235.051 140.362 234.771C139.7 234.491 139.038 234.211 137.715 234.211C136.394 234.211 135.737 234.479 135.079 234.748C134.419 235.019 133.757 235.289 132.42 235.289C131.083 235.289 130.416 235.019 129.751 234.748C129.087 234.479 128.426 234.211 127.105 234.211C125.781 234.211 125.119 234.257 124.457 234.304C123.795 234.351 123.134 234.397 121.81 234.397C120.486 234.397 119.824 234.537 119.163 234.677C118.501 234.817 117.839 234.957 116.515 234.957C115.189 234.957 114.522 234.999 113.856 235.041C113.193 235.082 112.531 235.123 111.221 235.123C109.91 235.123 109.253 235.154 108.595 235.185C107.935 235.216 107.273 235.248 105.947 235.248H100.652C99.3283 235.248 98.6665 235.066 98.0047 234.885C97.3429 234.703 96.681 234.522 95.3574 234.522C94.0337 234.522 93.3719 234.745 92.7101 234.968C92.0482 235.191 91.3864 235.414 90.0627 235.414C88.7391 235.414 88.0824 235.227 87.4258 235.04C86.7691 234.854 86.1125 234.667 84.7888 234.667C83.4652 234.667 82.8033 234.74 82.1415 234.812C81.4797 234.885 80.8179 234.957 79.4942 234.957C78.1705 234.957 77.5087 235.056 76.8468 235.154C76.185 235.253 75.5231 235.351 74.1994 235.351C72.8758 235.351 72.214 235.17 71.5521 234.988C70.8903 234.807 70.2285 234.625 68.9048 234.625H63.4434C62.1197 234.625 61.4579 234.667 60.7961 234.708C60.1342 234.75 59.4724 234.791 58.1488 234.791C56.8251 234.791 56.1632 234.9 55.5014 235.009C54.8395 235.118 54.1777 235.227 52.854 235.227C51.5303 235.227 50.8685 235.077 50.2067 234.926C49.5448 234.776 48.883 234.625 47.5594 234.625C46.2357 234.625 45.5738 234.548 44.912 234.47C44.2501 234.392 43.5883 234.314 42.2646 234.314C40.9409 234.314 40.2791 234.491 39.6173 234.667C38.9555 234.843 38.2936 235.02 36.97 235.02H31.6753C30.3517 235.02 29.6898 234.921 29.028 234.823C28.3661 234.724 27.7042 234.625 26.3806 234.625C25.0569 234.625 24.3951 234.724 23.7333 234.823C23.0714 234.921 22.4096 235.02 21.0859 235.02C19.7623 235.02 19.1057 234.942 18.4491 234.864C17.7924 234.786 17.1358 234.708 15.8122 234.708C14.4885 234.708 13.8266 234.677 13.1648 234.646C12.5029 234.615 11.8411 234.584 10.5174 234.584C9.19374 234.584 8.53191 234.693 7.87009 234.802C7.20827 234.911 6.54644 235.02 5.22277 235.02C4.21707 235.02 3.39486 235.355 2.70702 235.635C1.58424 236.093 0.819471 236.405 0.19901 234.874C-0.398246 233.401 0.430543 233.162 1.59917 232.825C2.38832 232.597 3.33244 232.325 4.09705 231.597C5.10295 230.64 5.47582 230.063 5.87148 229.45C6.22195 228.907 6.59031 228.336 7.43236 227.449C8.32523 226.509 8.89749 226.171 9.47882 225.828C10.0647 225.482 10.6597 225.13 11.6014 224.151C12.5202 223.197 12.914 222.635 13.297 222.088C13.6961 221.519 14.0835 220.966 15.0408 220.003C16.0109 219.027 16.4961 218.578 17.0008 218.111C17.4721 217.675 17.9604 217.223 18.8764 216.311C19.8274 215.365 20.1706 214.758 20.5129 214.152C20.8533 213.549 21.1927 212.949 22.1282 212.018C23.0618 211.089 23.727 210.812 24.3909 210.536C25.0611 210.258 25.73 209.979 26.6724 209.031C27.6085 208.09 27.8907 207.427 28.1716 206.767C28.4535 206.104 28.7342 205.445 29.6741 204.51C30.2869 203.9 30.7595 203.549 31.1843 203.288C31.2954 203.424 31.429 203.568 31.5885 203.723C32.6527 204.756 33.224 204.559 34.0821 204.263C34.6023 204.084 35.228 203.868 36.1327 203.868C37.3339 203.868 37.9385 203.988 38.5417 204.108C39.1423 204.227 39.7415 204.345 40.9271 204.345C42.1153 204.345 42.7146 204.195 43.3139 204.045C43.9131 203.894 44.5124 203.744 45.7006 203.744C46.8888 203.744 47.4881 203.884 48.0874 204.024C48.6867 204.164 49.2861 204.304 50.4742 204.304C51.6624 204.304 52.2617 204.221 52.861 204.138C53.4603 204.055 54.0596 203.972 55.2477 203.972C56.4359 203.972 57.03 204.008 57.6241 204.045C58.2182 204.081 58.8123 204.117 60.0005 204.117C61.1887 204.117 61.788 204.05 62.3873 203.982C62.9865 203.915 63.5858 203.847 64.774 203.847C65.9596 203.847 66.5485 203.786 67.1387 203.723C67.7315 203.661 68.3256 203.599 69.5268 203.599C70.728 203.599 71.3273 203.76 71.9253 203.921C72.5206 204.082 73.1147 204.242 74.3003 204.242C75.4884 204.242 76.0877 204.267 76.687 204.293C77.2863 204.319 77.8856 204.345 79.0738 204.345C80.2594 204.345 80.8483 204.283 81.4385 204.221C82.0312 204.159 82.6253 204.096 83.8265 204.096C85.0278 204.096 85.627 203.997 86.225 203.899C86.8204 203.8 87.4145 203.702 88.6001 203.702C89.7856 203.702 90.3797 203.738 90.9751 203.775C91.5731 203.811 92.1723 203.847 93.3736 203.847H98.1263C99.3537 203.847 99.9634 203.911 100.569 203.973C101.167 204.035 101.761 204.096 102.942 204.096C104.13 204.096 104.724 204.05 105.318 204.003C105.912 203.956 106.506 203.91 107.694 203.91C108.882 203.91 109.477 203.956 110.071 204.003C110.665 204.05 111.259 204.096 112.447 204.096H117.22C118.409 204.096 119.003 203.998 119.597 203.899C120.191 203.801 120.785 203.702 121.973 203.702C123.161 203.702 123.755 203.656 124.35 203.609C124.944 203.562 125.538 203.516 126.726 203.516C127.914 203.516 128.508 203.609 129.102 203.702C129.696 203.796 130.29 203.889 131.479 203.889H136.106C137.307 203.889 137.907 203.78 138.505 203.67C139.1 203.562 139.694 203.453 140.88 203.453C142.065 203.453 142.654 203.526 143.244 203.598C143.837 203.671 144.431 203.744 145.632 203.744C146.834 203.744 147.433 203.796 148.031 203.848C148.626 203.9 149.221 203.951 150.406 203.951C151.594 203.951 152.188 203.889 152.782 203.827C153.376 203.764 153.971 203.702 155.159 203.702H159.932C160.87 203.702 161.552 204 162.137 204.255C163.034 204.646 163.705 204.939 164.727 203.91C165.813 202.816 165.622 202.134 165.348 201.152C165.196 200.607 165.019 199.97 165.019 199.119V194.348C165.019 193.166 164.966 192.57 164.914 191.973C164.862 191.377 164.81 190.781 164.81 189.599V184.849C164.81 183.667 164.899 183.07 164.987 182.474C165.076 181.878 165.164 181.281 165.164 180.099C165.164 178.917 164.998 178.326 164.831 177.735C164.664 177.144 164.497 176.553 164.497 175.37V170.621V165.892V161.142C164.497 159.96 164.524 159.364 164.55 158.767C164.576 158.171 164.602 157.575 164.602 156.392V151.664C164.602 150.468 164.664 149.872 164.727 149.277C164.79 148.685 164.852 148.094 164.852 146.914C164.852 145.732 164.893 145.135 164.935 144.539C164.977 143.943 165.019 143.346 165.019 142.164V137.435C165.019 136.253 164.862 135.657 164.706 135.061C164.549 134.464 164.393 133.868 164.393 132.686C164.393 131.503 164.534 130.912 164.675 130.321C164.815 129.73 164.956 129.139 164.956 127.957C164.956 126.775 164.815 126.183 164.675 125.592C164.534 125.001 164.393 124.41 164.393 123.228V118.478C164.393 117.296 164.471 116.705 164.549 116.114C164.628 115.523 164.706 114.932 164.706 113.749C164.706 112.567 164.649 111.976 164.591 111.385C164.534 110.794 164.477 110.203 164.477 109.02C164.477 107.841 164.565 107.255 164.653 106.668C164.742 106.078 164.831 105.487 164.831 104.292C164.831 103.099 164.883 102.565 164.935 102.031C164.987 101.497 165.039 100.963 165.039 99.77C165.039 98.5748 164.898 97.9785 164.757 97.3835C164.617 96.7911 164.477 96.2 164.477 95.0204C164.477 93.8407 164.663 93.2548 164.851 92.6675C165.039 92.0777 165.227 91.4867 165.227 90.2915C165.227 89.0963 165.122 88.5 165.018 87.905C164.914 87.3126 164.81 86.7215 164.81 85.5418C164.81 84.3596 164.862 83.7685 164.914 83.1774C164.966 82.5862 165.019 81.9951 165.019 80.8129C165.019 79.6307 164.993 79.0344 164.966 78.4381C164.94 77.8418 164.914 77.2455 164.914 76.0633C164.914 75.1655 165.158 74.4979 165.367 73.9232C165.7 73.0122 165.947 72.3346 165.004 71.343C165.291 71.0699 165.63 70.7372 166.064 70.2959C166.996 69.348 167.38 68.7808 167.754 68.2275C168.141 67.6548 168.518 67.0971 169.483 66.1478C170.374 65.2711 170.855 64.8153 171.31 64.385C171.824 63.8992 172.303 63.4459 173.298 62.4559C174.52 61.24 174.946 60.7809 175.59 60.087C175.934 59.7156 176.341 59.2769 176.966 58.6189C177.902 57.6333 178.418 57.1907 178.958 56.7269C179.452 56.3025 179.967 55.8605 180.844 54.9685C181.756 54.0398 182.266 53.6193 182.78 53.1963C183.298 52.769 183.82 52.3391 184.762 51.3803C185.681 50.446 186.095 49.9195 186.498 49.4063C186.919 48.8713 187.328 48.3508 188.285 47.3981C189.183 46.5048 189.666 46.0532 190.13 45.6183C190.636 45.1445 191.122 44.6904 192.1 43.7062C192.801 43.0005 193.153 42.2107 193.447 41.5503C193.94 40.4447 194.27 39.7021 195.81 40.3254C197.258 40.9113 196.857 41.6265 196.283 42.6527C195.881 43.3703 195.393 44.24 195.393 45.324C195.393 46.641 195.451 47.3047 195.508 47.9684C195.565 48.6321 195.623 49.2959 195.623 50.6129C195.623 51.9274 195.758 52.5807 195.893 53.2353C196.029 53.8926 196.165 54.551 196.165 55.8811C196.165 57.2111 195.987 57.8748 195.809 58.5372C195.633 59.197 195.456 59.8555 195.456 61.17C195.456 62.487 195.644 63.1455 195.831 63.8041C196.019 64.4626 196.206 65.1211 196.206 66.4381C196.206 67.7578 196.055 68.4267 195.903 69.0943C195.752 69.7593 195.602 70.423 195.602 71.7271C195.602 73.0286 195.788 73.6768 195.975 74.3275C196.163 74.9834 196.352 75.6419 196.352 76.9745C196.352 78.3045 196.206 78.9682 196.06 79.6306C195.914 80.2904 195.769 80.9489 195.769 82.2634C195.769 83.5804 195.675 84.239 195.581 84.8975C195.487 85.556 195.393 86.2145 195.393 87.5316C195.393 88.8486 195.56 89.5071 195.727 90.1656C195.894 90.8242 196.061 91.4827 196.061 92.7997V98.0679C196.061 99.3565 196.066 99.9995 196.071 100.646C196.076 101.301 196.081 101.959 196.081 103.295V108.584C196.081 109.901 196.014 110.559 195.946 111.218C195.878 111.876 195.81 112.535 195.81 113.852C195.81 115.169 195.956 115.827 196.102 116.486C196.248 117.144 196.394 117.803 196.394 119.12V124.388C196.394 125.692 196.249 126.345 196.103 127C195.957 127.657 195.81 128.316 195.81 129.635C195.81 130.952 195.743 131.611 195.675 132.27C195.607 132.928 195.539 133.587 195.539 134.904C195.539 136.221 195.633 136.879 195.727 137.538C195.821 138.196 195.915 138.855 195.915 140.172C195.915 141.489 195.967 142.147 196.019 142.806C196.071 143.464 196.123 144.123 196.123 145.44C196.123 146.757 195.93 147.41 195.737 148.064C195.545 148.717 195.352 149.37 195.352 150.687C195.352 152.004 195.482 152.663 195.612 153.321C195.743 153.98 195.873 154.639 195.873 155.956V161.224C195.873 162.541 195.743 163.199 195.612 163.858C195.482 164.516 195.352 165.175 195.352 166.492C195.352 167.809 195.404 168.467 195.456 169.126C195.508 169.785 195.56 170.443 195.56 171.76V177.028V182.296C195.56 183.613 195.644 184.272 195.727 184.93C195.81 185.589 195.894 186.248 195.894 187.565C195.894 188.882 196.024 189.54 196.154 190.199C196.285 190.857 196.415 191.516 196.415 192.833C196.415 194.15 196.238 194.808 196.061 195.467C195.883 196.125 195.706 196.784 195.706 198.101C195.706 199.418 195.894 200.076 196.081 200.735C196.269 201.394 196.457 202.052 196.457 203.369C196.457 204.686 196.259 205.345 196.061 206.003C195.862 206.662 195.664 207.32 195.664 208.637V213.905C195.664 215.222 195.743 215.876 195.821 216.529C195.899 217.182 195.977 217.836 195.977 219.153C195.977 220.47 195.909 221.128 195.842 221.787C195.774 222.445 195.706 223.104 195.706 224.421C195.706 225.738 195.779 226.397 195.852 227.055C195.925 227.714 195.998 228.372 195.998 229.689C195.998 230.725 196.33 231.508 196.619 232.188Z" fill="#7C97DD"/>
</svg>
