<svg width="112" height="60" viewBox="0 0 112 60" fill="none" xmlns="http://www.w3.org/2000/svg">
<g filter="url(#filter0_i_1153_9925)">
<rect width="112" height="60" rx="10" fill="white"/>
</g>
<path d="M16.8585 29.0109C17.3697 29.0109 17.3697 29.1692 17.8808 29.1692C18.392 29.1692 18.392 29.3501 18.9032 29.3501C19.4143 29.3501 19.4143 29.2551 19.9209 29.2551C20.4276 29.2551 20.4321 29.0697 20.9432 29.0697H21.9656C22.4767 29.0697 22.4767 29.1421 22.9879 29.1421C23.499 29.1421 23.499 29.0063 24.0102 29.0063C24.5213 29.0063 24.5213 29.3049 25.0325 29.3049C25.5436 29.3049 25.5436 29.418 26.0548 29.418C26.566 29.418 26.566 29.1014 27.0771 29.1014C27.5883 29.1014 27.5882 29.2778 28.0994 29.2778C28.6105 29.2778 28.6105 29.3818 29.1217 29.3818C29.6328 29.3818 29.6328 29.124 30.1485 29.124C30.6642 29.124 30.6597 29.3863 31.1708 29.3863C31.4965 29.3863 31.8629 29.0787 32.166 29.1602C32.4679 29.3018 32.7506 29.4811 33.0074 29.6939C33.2694 29.8732 33.5066 30.0861 33.713 30.3272C33.9287 30.5532 34.1128 30.8073 34.2603 31.0826C34.46 31.3351 34.6273 31.6117 34.758 31.9059C34.799 32.2258 34.799 32.5495 34.758 32.8694C34.758 33.4439 34.9841 33.4439 34.9841 34.0229C34.9841 34.6019 34.9344 34.6019 34.9344 35.1809C34.9344 35.5066 34.681 35.8006 34.5996 36.0856C34.4871 36.3724 34.3348 36.6419 34.1472 36.8862C34.0438 37.1836 33.9024 37.4664 33.7266 37.7276C33.5004 37.9538 33.3285 38.2795 33.0526 38.4423C32.7378 38.5376 32.4129 38.5953 32.0846 38.6142C31.7791 38.672 31.4672 38.6887 31.1572 38.664C30.6461 38.664 30.6461 38.6323 30.1395 38.6323C29.6328 38.6323 29.6283 38.854 29.1171 38.854C28.606 38.854 28.606 38.854 28.0949 38.854C27.5837 38.854 27.5837 38.7318 27.0726 38.7318C26.5614 38.7318 26.5614 38.9128 26.0503 38.9128C25.5391 38.9128 25.5391 38.7363 25.028 38.7363C24.5168 38.7363 24.5168 38.9218 24.0057 38.9218C23.4945 38.9218 23.4945 39.0213 22.9879 39.0213C22.4812 39.0213 22.4767 38.8042 21.9656 38.8042C21.4544 38.8042 21.4544 38.7499 20.9432 38.7499C20.4321 38.7499 20.4321 38.6459 19.9209 38.6459C19.4098 38.6459 19.4053 38.8087 18.8941 38.8087C18.3829 38.8087 18.3829 38.9037 17.8718 38.9037H16.845C16.5204 38.8971 16.198 38.8485 15.886 38.759C15.5568 38.7158 15.2345 38.6307 14.927 38.5056C14.6511 38.3473 14.6194 37.8588 14.3933 37.6371C14.1768 37.4242 13.9911 37.1821 13.8414 36.9179C13.6831 36.6465 13.3393 36.4656 13.2579 36.1444C13.1397 35.8361 13.0622 35.5137 13.0272 35.1854C13.0272 34.6064 13 34.6064 13 34.0274C13 33.4484 13.2307 33.4484 13.2307 32.8739C13.1737 32.5485 13.1539 32.2177 13.1719 31.8878C13.2429 31.5604 13.3539 31.2429 13.5022 30.9424C13.665 30.6665 14.1264 30.6031 14.348 30.377C14.5639 30.1561 14.8089 29.9659 15.0763 29.8115C15.3522 29.6532 15.5286 29.2506 15.8543 29.1647C16.1811 29.0707 16.5186 29.019 16.8585 29.0109Z" fill="#FFD9DD"/>
<path d="M79.9976 29.0789C80.5088 29.0789 80.5088 29.1331 81.0154 29.1331C81.522 29.1331 81.5266 29.3729 82.0377 29.3729C82.5489 29.3729 82.5488 29.3729 83.06 29.3729C83.5711 29.3729 83.5711 29.4227 84.0823 29.4227C84.5934 29.4227 84.5934 29.1422 85.1046 29.1422C85.6158 29.1422 85.6158 29.2372 86.1269 29.2372C86.6381 29.2372 86.6381 29.3729 87.1492 29.3729C87.6604 29.3729 87.6559 29.1151 88.167 29.1151C88.6782 29.1151 88.6782 29.2598 89.1893 29.2598H90.2116C90.7228 29.2598 90.7228 29.2191 91.2339 29.2191C91.7451 29.2191 91.7451 29.0698 92.2608 29.0698C92.7764 29.0698 92.7719 29.106 93.2831 29.106C93.7942 29.106 93.7942 29.3865 94.3099 29.3865C94.6356 29.3865 94.9703 29.2055 95.2689 29.287C95.5868 29.3748 95.8912 29.5057 96.1736 29.676C96.482 29.7998 96.7725 29.964 97.0375 30.1645C97.2637 30.3907 97.2999 30.7933 97.4582 31.0692C97.6465 31.3294 97.7987 31.614 97.9106 31.9151C98.0434 32.2231 98.1361 32.5469 98.1865 32.8786C98.1865 33.4531 97.7884 33.4531 97.7884 34.0321C97.7884 34.6111 97.9694 34.6111 97.9694 35.1901C98.0014 35.5126 97.9922 35.8379 97.9422 36.1581C97.8118 36.4562 97.643 36.736 97.4401 36.9904C97.2709 37.2533 97.067 37.4922 96.834 37.7006C96.6327 37.943 96.3999 38.1575 96.1419 38.3384C95.8573 38.4956 95.5531 38.6142 95.2372 38.6913C94.9284 38.7467 94.6138 38.7634 94.3009 38.741C93.7897 38.741 93.7897 38.9491 93.2786 38.9491C92.7674 38.9491 92.7674 38.7501 92.2562 38.7501C91.7451 38.7501 91.7451 39.0531 91.2339 39.0531C90.7228 39.0531 90.7228 38.6324 90.2162 38.6324C89.7095 38.6324 89.705 39.0396 89.1938 39.0396C88.6827 39.0396 88.6827 38.9265 88.1715 38.9265C87.6604 38.9265 87.6604 38.732 87.1492 38.732C86.6381 38.732 86.6381 38.931 86.1269 38.931C85.6158 38.931 85.6158 38.8541 85.1046 38.8541C84.5934 38.8541 84.5934 39.0079 84.0823 39.0079C83.5711 39.0079 83.5711 39.0079 83.06 39.0079C82.5488 39.0079 82.5489 38.8767 82.0377 38.8767C81.5266 38.8767 81.5266 38.9129 81.0109 38.9129C80.4952 38.9129 80.4997 38.8767 79.9886 38.8767C79.6675 38.8525 79.351 38.7856 79.0477 38.6777C78.7348 38.6232 78.4306 38.5273 78.143 38.3927C77.8625 38.2299 77.7902 37.8363 77.564 37.6101C77.3307 37.414 77.1265 37.1855 76.9578 36.9316C76.7921 36.6725 76.6613 36.3927 76.5688 36.0993C76.4824 35.8051 76.4338 35.5011 76.4241 35.1946C76.4241 34.6156 76.4512 34.6156 76.4512 34.0366C76.4512 33.4576 76.4512 33.4576 76.4512 32.8831C76.4512 32.5529 76.2703 32.2046 76.3472 31.9015C76.4863 31.6045 76.6627 31.3263 76.8719 31.0737C77.0633 30.8251 77.2869 30.603 77.5368 30.4133C77.7572 30.204 78.0053 30.0259 78.2742 29.884C78.5501 29.7302 78.7265 29.3186 79.0296 29.2327C79.3444 29.1402 79.6697 29.0885 79.9976 29.0789Z" fill="#FFD9DD"/>
<path d="M63.1899 41.586C63.0361 41.586 62.8913 41.586 62.7375 41.586C62.4028 41.586 62.0635 41.8303 61.7514 41.7805C61.4448 41.6918 61.1428 41.5876 60.8467 41.4684C60.5255 41.3825 60.132 41.5182 59.8425 41.4051C59.553 41.292 59.3902 40.8035 59.1233 40.6542C58.8535 40.492 58.5937 40.3138 58.3452 40.1204C58.0784 39.935 57.6531 39.9711 57.4134 39.7631C57.1736 39.555 57.1284 39.1434 56.9113 38.9081C56.6942 38.6729 56.3639 38.5372 56.174 38.2839C55.984 38.0306 55.7623 37.5013 55.604 37.2344C55.4411 37.5013 55.0838 37.9085 54.8848 38.1753C54.6857 38.4422 54.5726 38.7181 54.351 38.9579C54.1293 39.1976 54.1293 39.65 53.8986 39.8626C53.6607 40.0922 53.41 40.3082 53.1477 40.5095C52.8673 40.7189 52.5743 40.9107 52.2702 41.0839C51.9489 41.1773 51.6227 41.2528 51.2931 41.3101C50.9973 41.4264 50.6953 41.526 50.3884 41.6087C50.0853 41.6901 49.719 41.4684 49.3887 41.5227C49.0585 41.577 48.8052 42.0067 48.484 42.0248C48.1406 42.0453 47.7962 42.0453 47.4527 42.0248C47.1089 42.0022 46.8149 41.6539 46.4937 41.5951C46.1725 41.5363 45.7112 41.8846 45.3945 41.7851C45.0779 41.6855 44.8291 41.3056 44.526 41.1744C44.2229 41.0432 43.7841 41.0975 43.4992 40.9392C43.2142 40.7809 43.1147 40.2471 42.8523 40.0616C42.59 39.8762 42.0878 39.9033 41.8481 39.7043C41.6055 39.4634 41.376 39.2097 41.1605 38.9443C40.9086 38.7035 40.6395 38.4812 40.3554 38.2794C40.1769 37.9784 40.1007 37.6276 40.1383 37.2797C40.1744 37.0038 40.5046 36.7278 40.7399 36.5469C40.9758 36.3221 41.2797 36.1821 41.6039 36.1488C41.8798 36.185 42.0562 36.6012 42.2552 36.8228C42.5923 36.9231 42.9019 37.0995 43.1599 37.3385C43.3725 37.5375 43.472 37.9175 43.766 38.1437C44.0601 38.3698 44.128 38.7815 44.431 38.9579C44.7341 39.1343 45.2498 38.7996 45.5619 38.9579C45.8558 39.0769 46.1582 39.1737 46.4666 39.2474C46.7591 39.3725 47.0618 39.4724 47.3713 39.546C47.6925 39.5821 48.0226 39.9983 48.3619 39.9621C48.7012 39.9259 49.0087 39.6907 49.3118 39.6319C49.6233 39.532 49.9259 39.4064 50.2165 39.2564C50.5256 39.1664 50.8279 39.0545 51.1212 38.9217C51.4125 38.792 51.6937 38.6408 51.9626 38.4694C52.1996 38.2533 52.4175 38.0172 52.614 37.7637C52.8492 37.524 53.2699 37.4561 53.4508 37.2073C53.6611 36.9538 53.8559 36.688 54.0344 36.4112C54.1506 36.0994 54.2413 35.7787 54.3058 35.4522C54.4221 35.1482 54.4715 34.8226 54.4505 34.4978C54.5334 34.2533 54.6932 34.0423 54.906 33.8964C55.1189 33.7504 55.3733 33.6773 55.6312 33.688V33.8464C55.7305 33.8288 55.8325 33.8328 55.9302 33.858C56.0279 33.8833 56.119 33.9292 56.1975 33.9926C56.2759 34.0561 56.3398 34.1356 56.3849 34.2259C56.43 34.3161 56.4553 34.415 56.4589 34.5158C56.4589 34.5656 56.6896 34.9094 56.9113 35.4205C57.0153 35.6784 57.4224 35.8367 57.5989 36.1533C57.7285 36.4418 57.8797 36.72 58.0512 36.9857C58.2263 37.2505 58.4214 37.5015 58.6347 37.7366C58.8551 37.9656 59.0942 38.1759 59.3494 38.3653C59.5982 38.5508 59.6797 39.0619 59.9737 39.2157C60.2677 39.3695 60.6929 39.2157 61.0095 39.3017C61.3288 39.3467 61.6506 39.3724 61.973 39.3786C62.2681 39.4895 62.5703 39.5802 62.8777 39.65C63.2074 39.6256 63.5343 39.5726 63.8548 39.4917C64.1861 39.5144 64.5187 39.5144 64.85 39.4917C65.1614 39.3736 65.4638 39.233 65.7547 39.071C66.0481 38.9253 66.3307 38.759 66.6006 38.5734C66.8982 38.4286 67.188 38.2686 67.4691 38.0939C67.7631 37.8677 68.0028 37.6416 68.2154 37.4471C68.6452 37.0354 68.8985 36.7595 68.9075 36.7504C69.0885 36.5152 69.3599 36.0945 69.6132 36.0584C69.8665 36.0222 70.1515 36.479 70.3867 36.66C70.622 36.8409 70.9024 37.0083 70.9386 37.2842C70.9347 37.575 70.8198 37.8534 70.6174 38.0623C70.4415 38.3778 70.2222 38.667 69.966 38.9217C69.7489 39.1388 69.3146 39.1886 69.0025 39.4464C68.6904 39.7043 68.6406 40.1114 68.3285 40.324C68.0164 40.5366 67.6862 40.6271 67.356 40.8035C67.0282 40.9479 66.693 41.0747 66.3518 41.1834C66.0261 41.3101 65.7728 41.7082 65.4154 41.8032C65.0581 41.8982 64.6645 41.7217 64.3026 41.767C63.9407 41.8122 63.5789 41.586 63.1899 41.586Z" fill="#383838"/>
<path d="M25.1308 26.808C24.8859 26.7946 24.6501 26.7106 24.4518 26.5661C24.2536 26.4216 24.1013 26.2229 24.0135 25.9938C23.9185 25.7088 24.1131 25.4193 24.2397 25.1705C24.2837 25.0372 24.354 24.914 24.4465 24.8084C24.539 24.7027 24.6517 24.6166 24.778 24.5553C25.1127 24.4468 25.4294 24.2704 25.7687 24.1799C26.1079 24.0894 26.506 24.2387 26.8452 24.1799C27.1845 24.1211 27.5057 23.8904 27.8449 23.8316C28.1842 23.7728 28.5505 23.7773 28.8943 23.7366C29.2381 23.6959 29.591 23.5918 29.9348 23.5647C30.2785 23.5375 30.6449 23.5647 30.9932 23.5647C31.3415 23.5647 31.6989 23.429 32.0427 23.429C32.3865 23.429 32.7529 23.4652 33.0967 23.4787C33.4404 23.4923 33.8113 23.4787 34.1506 23.4787C34.4899 23.4787 34.7658 23.6099 35.1006 23.6461C34.8156 23.4742 34.603 23.3883 34.318 23.2345C34.0331 23.0807 33.6938 23.0309 33.4133 22.8952C33.1329 22.7595 32.9203 22.3614 32.6217 22.2484C32.3232 22.1353 31.9839 22.0584 31.6808 21.9634C31.3777 21.8684 30.9797 22.0041 30.6721 21.9272C30.3645 21.8503 30.0343 21.7734 29.7267 21.7146C29.4191 21.6558 29.1024 21.4296 28.7948 21.3844C28.4872 21.3391 28.1299 21.2351 27.8313 21.208C27.4604 21.1718 27.1302 21.1401 26.8543 21.1265C26.5271 21.1098 26.199 21.1325 25.8772 21.1944C25.5863 21.2444 25.2871 21.1865 25.0359 21.0316C24.8401 20.8079 24.7352 20.519 24.7418 20.2218C24.6977 19.9297 24.7673 19.6318 24.9363 19.3895C25.1449 19.1711 25.4268 19.0374 25.7279 19.0141C25.7958 19.0141 26.1803 18.9824 26.7774 19.0141C27.0714 19.0141 27.4152 19.1905 27.8087 19.2222C28.1254 19.2493 28.4691 19.2764 28.8401 19.3262C29.211 19.376 29.5458 19.2041 29.9076 19.2719C30.2695 19.3398 30.5771 19.4121 30.9299 19.4981C31.2827 19.584 31.5994 19.6655 31.9432 19.7695C32.287 19.8735 32.5991 19.9866 32.9383 20.1042C33.2776 20.2218 33.5354 20.4706 33.843 20.6063C34.1506 20.742 34.5351 20.7601 34.8518 20.9139C35.1684 21.0677 35.4715 21.2351 35.7565 21.4115C36.0414 21.5879 36.3445 21.7779 36.6612 21.9724C36.9778 22.1669 37.1135 22.5379 37.3894 22.7505C37.6654 22.9631 38.0725 22.9993 38.3394 23.23C38.6062 23.4607 38.76 23.7954 39.0133 24.0442C39.2667 24.293 39.425 24.596 39.6602 24.8584C39.8272 24.9991 39.9392 25.1942 39.9764 25.4093C40.0136 25.6245 39.9737 25.8459 39.8638 26.0345C39.7474 26.2506 39.5673 26.4256 39.348 26.5356C39.1286 26.6457 38.8807 26.6855 38.6379 26.6497C38.3752 26.4052 38.0493 26.2391 37.6971 26.1702C37.4121 26.1114 37.023 26.3059 36.6385 26.2381C36.3309 26.1883 35.9962 26.0978 35.6298 26.0481C35.2634 25.9983 34.9875 25.7902 34.6301 25.754C34.2728 25.7179 33.9471 25.8626 33.5897 25.8445C33.2323 25.8264 32.9202 25.7269 32.5674 25.7224C32.2146 25.7179 31.8934 25.7224 31.5406 25.7224C31.1878 25.7224 30.8621 25.6817 30.5138 25.7224C30.1655 25.7631 29.8262 25.6998 29.4779 25.7224C29.1296 25.745 28.7903 25.7631 28.4465 25.8174C28.1027 25.8717 27.8087 26.1295 27.4695 26.2019C27.1302 26.2743 26.7593 26.1747 26.4245 26.2652C26.0898 26.3557 25.746 26.4054 25.4158 26.514C25.3208 26.5411 25.253 26.808 25.1308 26.808Z" fill="#383838"/>
<path d="M86.03 26.641C85.9169 26.641 85.7677 26.7812 85.6546 26.745C85.3289 26.6364 85.0711 26.2927 84.7499 26.1977C84.4287 26.1027 84.0261 26.2565 83.6914 26.1977C83.3566 26.1389 83.0264 26.0348 82.6872 25.9851C82.3479 25.9353 82.0222 25.7634 81.683 25.7317C81.3437 25.7001 80.9818 25.7996 80.6471 25.777C80.3123 25.7544 79.955 25.7091 79.6157 25.7001C79.2764 25.691 78.9237 25.7001 78.5844 25.7001C78.2451 25.7001 77.8968 25.8403 77.5621 25.8629C77.2273 25.8855 76.8609 25.8267 76.5352 25.8629C76.2096 25.8991 75.825 25.8629 75.4994 25.8946C75.1737 25.9263 74.7801 25.9172 74.468 25.9715C74.0835 26.0348 73.7669 26.2293 73.4819 26.2881C73.142 26.3636 72.7939 26.3955 72.446 26.3831C72.2432 26.4658 72.018 26.4758 71.8086 26.4115C71.5992 26.3472 71.4185 26.2126 71.297 26.0303C71.1523 25.8337 71.0742 25.5959 71.0742 25.3518C71.0742 25.1076 71.1523 24.8699 71.297 24.6733C71.5322 24.4109 71.9258 24.3069 72.1701 24.0671C72.4143 23.8274 72.541 23.4429 72.8034 23.2167C73.0657 22.9905 73.3462 22.7643 73.6176 22.5608C73.889 22.3572 74.2056 22.1718 74.4906 21.9818C74.7756 21.7918 75.142 21.7013 75.4405 21.5294C75.7391 21.3575 75.9924 21.0771 76.3 20.9233C76.6076 20.7695 76.9242 20.5931 77.2409 20.4709C77.5575 20.3488 77.8923 20.195 78.2134 20.0819C78.5346 19.9688 78.9327 20.0141 79.2584 19.9191C79.5841 19.8241 79.9097 19.616 80.2399 19.5391C80.5702 19.4622 80.9773 19.6024 81.3029 19.5391C81.6286 19.4758 81.986 19.3175 82.3117 19.2722C82.6374 19.227 83.04 19.2722 83.3566 19.2722C83.7502 19.2406 84.0894 19.0325 84.3835 19.0234C84.9806 19.0234 85.356 19.0234 85.4239 19.046C85.7285 19.0596 86.0179 19.1834 86.2381 19.3944C86.4028 19.6434 86.4674 19.9456 86.419 20.2403C86.419 20.5388 86.1748 20.6926 85.9667 20.869C85.7586 21.0454 85.5686 21.344 85.2746 21.3214V21.1676C85.2746 21.1676 84.8946 21.1676 84.293 21.1947C84.0171 21.1947 83.6823 21.1947 83.3159 21.2264C82.9495 21.258 82.6826 21.2716 82.3388 21.3214C81.9951 21.3711 81.7463 21.6154 81.4341 21.6832C81.122 21.7511 80.8235 21.8506 80.4933 21.932C80.1631 22.0135 79.851 21.9999 79.5343 22.0994C79.2177 22.1989 78.9553 22.3889 78.6296 22.511C78.3039 22.6332 77.9511 22.5563 77.648 22.692C77.3449 22.8277 77.1504 23.1443 76.8609 23.2981C76.5714 23.4519 76.3227 23.4881 76.0377 23.66C76.3724 23.6238 76.6392 23.5921 77.0056 23.5695C77.372 23.5469 77.7023 23.7007 78.0597 23.6871C78.417 23.6736 78.7472 23.5831 79.1091 23.5831C79.471 23.5831 79.8012 23.5152 80.1586 23.5288C80.5159 23.5424 80.8461 23.66 81.1989 23.6871C81.5517 23.7143 81.891 23.7369 82.2439 23.7776C82.5967 23.8183 82.9495 23.7776 83.2978 23.8319C83.6461 23.8862 83.9945 23.9088 84.3382 23.9857C84.682 24.0626 84.9805 24.3068 85.3198 24.3973C85.6591 24.4878 86.0662 24.3566 86.4009 24.4652C86.7357 24.5737 86.808 24.9175 86.9302 25.1708C86.979 25.291 87.0015 25.4202 86.996 25.5497C86.9905 25.6793 86.9573 25.8062 86.8985 25.9217C86.8566 26.1222 86.7478 26.3026 86.59 26.4332C86.4323 26.5639 86.2348 26.6371 86.03 26.641Z" fill="#383838"/>
<path d="M60.0638 31.1732C60.102 31.4641 60.0898 31.7594 60.0277 32.0462C59.9112 32.3173 59.7472 32.5654 59.5436 32.779C59.3629 33.008 59.1495 33.2091 58.9103 33.3761C58.5933 33.6003 58.2461 33.7785 57.879 33.9054C57.4962 33.9682 57.1089 34 56.721 34.0004C56.3457 34.0968 55.9651 34.1708 55.5811 34.222C55.1931 34.208 54.8064 34.1702 54.4231 34.1089C54.0466 34.0335 53.6784 33.9214 53.3239 33.7742C52.9396 33.7132 52.5653 33.6006 52.2111 33.4394C51.9722 33.2591 51.7631 33.0423 51.5914 32.7971C51.3963 32.573 51.243 32.3155 51.139 32.0372C51.0487 31.7583 51.0059 31.4662 51.0124 31.1732C51.0256 30.8827 51.0884 30.5967 51.1978 30.3273C51.2563 30.0342 51.3665 29.7538 51.5235 29.4995C51.7308 29.2843 51.9668 29.0986 52.2247 28.9476C52.5524 28.7403 52.907 28.5789 53.2786 28.4681C53.645 28.3403 54.0219 28.245 54.405 28.1832C54.7917 28.1528 55.1799 28.1452 55.5675 28.1605C55.9537 28.1738 56.3387 28.2085 56.721 28.2646C57.0972 28.3323 57.4667 28.4337 57.8247 28.5677C58.1962 28.6558 58.5538 28.7943 58.8877 28.9793C59.1512 29.1196 59.3946 29.2945 59.6115 29.4995C59.7983 29.7366 59.9422 30.0045 60.0367 30.2911C60.0938 30.5817 60.103 30.8796 60.0638 31.1732Z" fill="#FFB3C5"/>
<defs>
<filter id="filter0_i_1153_9925" x="0" y="-4" width="112" height="64" filterUnits="userSpaceOnUse" color-interpolation-filters="sRGB">
<feFlood flood-opacity="0" result="BackgroundImageFix"/>
<feBlend mode="normal" in="SourceGraphic" in2="BackgroundImageFix" result="shape"/>
<feColorMatrix in="SourceAlpha" type="matrix" values="0 0 0 0 0 0 0 0 0 0 0 0 0 0 0 0 0 0 127 0" result="hardAlpha"/>
<feOffset dy="-4"/>
<feGaussianBlur stdDeviation="5"/>
<feComposite in2="hardAlpha" operator="arithmetic" k2="-1" k3="1"/>
<feColorMatrix type="matrix" values="0 0 0 0 0.341176 0 0 0 0 0.615686 0 0 0 0 1 0 0 0 0.3 0"/>
<feBlend mode="normal" in2="shape" result="effect1_innerShadow_1153_9925"/>
</filter>
</defs>
</svg>
