<svg width="970" height="427" viewBox="0 0 970 427" fill="none" xmlns="http://www.w3.org/2000/svg">
<path d="M176.9 16.54C176.9 20.91 176.63 20.89 176.63 25.29C176.63 29.69 177.37 29.69 177.37 34.06C177.37 38.43 176.37 38.46 176.37 42.84C176.37 47.22 176.04 47.23 176.04 51.61C176.04 55.99 176.91 55.99 176.91 60.36C176.91 64.73 176.1 64.72 176.1 69.12C176.1 73.52 176.39 73.51 176.39 77.89V95.42C176.39 99.79 176.53 99.79 176.53 104.17C176.53 108.55 176.28 108.54 176.28 112.92C176.28 117.3 177.63 117.28 177.63 121.67C177.63 126.06 177.51 126.07 177.51 130.45C177.51 134.83 176.89 134.8 176.89 139.2C176.89 143.6 176.55 143.6 176.55 147.97C176.55 152.34 177.45 152.35 177.45 156.72C177.45 161.09 176.04 161.12 176.04 165.5C176.04 169.88 176.43 169.87 176.43 174.25C176.43 178.63 176.2 178.63 176.2 183C176.2 187.37 177.09 187.4 177.09 191.78C177.09 196.16 176.22 196.15 176.22 200.53V209.26C176.22 213.64 177.3 213.64 177.3 218.01C177.3 222.38 176.57 222.41 176.57 226.79V235.54C176.57 239.92 177.3 239.92 177.3 244.29C177.3 248.66 176.18 248.67 176.18 253.05C176.18 257.43 177.03 257.42 177.03 261.8C177.03 266.18 176.87 266.17 176.87 270.55V288.08C176.87 292.45 176.49 292.45 176.49 296.83C176.49 301.21 177.03 301.21 177.03 305.58C177.03 309.95 176.03 309.94 176.03 314.32C176.03 318.7 176.62 318.67 176.62 323.07V331.84C176.62 336.22 177.34 336.22 177.34 340.59C177.34 344.96 176.45 344.97 176.45 349.35V358.14C176.45 362.52 177.34 362.52 177.34 366.89V375.64C177.34 380.02 176.01 380.02 176.01 384.4C176.01 388.78 176.41 388.77 176.41 393.15C176.41 397.53 176.14 397.53 176.14 401.9V410.66C176.14 415.03 176.82 415.03 176.82 419.41V426.41H265.28C265.28 423.41 265.11 422.95 265.11 419.13C265.11 414.75 265.67 414.75 265.67 410.38C265.67 406.01 265.13 406 265.13 401.62V392.87C265.13 388.5 265.33 388.51 265.33 384.12C265.33 379.73 265.87 379.72 265.87 375.34C265.87 370.96 264.98 370.97 264.98 366.59C264.98 362.21 265.62 362.22 265.62 357.84C265.62 353.46 265.4 353.46 265.4 349.09C265.4 344.72 266.4 344.71 266.4 340.33V331.58C266.4 327.2 265.03 327.2 265.03 322.83C265.03 318.46 265.94 318.45 265.94 314.08C265.94 309.71 266.5 309.7 266.5 305.32C266.5 300.94 265.63 300.97 265.63 296.57C265.63 292.17 266.42 292.17 266.42 287.8C266.42 283.43 265.82 283.42 265.82 279.05C265.82 274.68 265.14 274.67 265.14 270.29C265.14 265.91 266.4 265.92 266.4 261.54C266.4 257.16 264.89 257.16 264.89 252.79C264.89 248.42 266.21 248.41 266.21 244.03V235.28C266.21 230.91 265.41 230.91 265.41 226.53C265.41 222.15 265.84 222.15 265.84 217.78C265.84 213.41 264.91 213.4 264.91 209.02C264.91 204.64 266.05 204.69 266.05 200.27C266.05 195.85 265.55 195.83 265.55 191.46C265.55 187.09 265.2 187.08 265.2 182.7C265.2 178.32 265.53 178.33 265.53 173.95C265.53 169.57 266.17 169.57 266.17 165.2C266.17 160.83 265.63 160.82 265.63 156.45C265.63 152.08 266.03 152.07 266.03 147.69C266.03 143.31 265.26 143.32 265.26 138.94C265.26 134.56 265.68 134.56 265.68 130.19C265.68 125.82 264.68 125.81 264.68 121.44C264.68 117.07 266.13 117.06 266.13 112.68C266.13 108.3 265.99 108.31 265.99 103.93C265.99 99.55 265.28 99.58 265.28 95.26C265.28 90.94 265.88 90.88 265.88 86.51C265.88 82.14 265.34 82.13 265.34 77.75V68.95C265.34 64.57 265.55 64.57 265.55 60.2C265.55 55.83 266.05 55.82 266.05 51.44C266.05 47.06 265.47 47.07 265.47 42.69C265.47 38.31 265.32 38.32 265.32 33.94C265.32 29.56 265.18 29.54 265.18 25.19C265.18 20.84 264.8 20.83 264.8 16.45C264.8 12.07 265.28 12.08 265.28 7.70002C265.28 3.70002 264.97 3.35002 264.92 0.0200195H176.08C176.18 3.41002 176.77 3.76002 176.77 7.76002C176.77 12.14 176.9 12.16 176.9 16.54Z" fill="#CAE8DF"/>
<path d="M89.11 419.16C89.11 414.78 89.67 414.78 89.67 410.41C89.67 406.04 89.13 406.03 89.13 401.65V392.9C89.13 388.53 89.34 388.54 89.34 384.15C89.34 379.76 89.87 379.75 89.87 375.37C89.87 370.99 88.98 371 88.98 366.62C88.98 362.24 89.63 362.25 89.63 357.87C89.63 353.49 89.4 353.49 89.4 349.12C89.4 344.75 90.4 344.74 90.4 340.36V331.61C90.4 327.23 89.03 327.23 89.03 322.86C89.03 318.49 89.95 318.48 89.95 314.11C89.95 309.74 90.51 309.73 90.51 305.35C90.51 300.97 89.64 301 89.64 296.6C89.64 292.2 90.42 292.2 90.42 287.83C90.42 283.46 89.82 283.45 89.82 279.08C89.82 274.71 89.14 274.7 89.14 270.32C89.14 265.94 90.4 265.95 90.4 261.57C90.4 257.19 88.89 257.19 88.89 252.82C88.89 248.45 90.22 248.44 90.22 244.06V235.31C90.22 230.94 89.41 230.94 89.41 226.56C89.41 222.18 89.84 222.18 89.84 217.81C89.84 213.44 88.91 213.43 88.91 209.05C88.91 204.67 90.05 204.72 90.05 200.3C90.05 195.88 89.55 195.86 89.55 191.49C89.55 187.12 89.2 187.11 89.2 182.73C89.2 178.35 89.53 178.36 89.53 173.98C89.53 169.6 90.17 169.6 90.17 165.23C90.17 160.86 89.64 160.85 89.64 156.48C89.64 152.11 90.03 152.1 90.03 147.72C90.03 143.34 89.26 143.35 89.26 138.97C89.26 134.59 89.68 134.59 89.68 130.22C89.68 125.85 88.68 125.84 88.68 121.47C88.68 117.1 90.13 117.09 90.13 112.71C90.13 108.33 89.99 108.34 89.99 103.96C89.99 99.58 89.28 99.58 89.28 95.26C89.28 90.94 89.88 90.88 89.88 86.51C89.88 82.14 89.35 82.13 89.35 77.75V68.95C89.35 64.57 89.55 64.57 89.55 60.2C89.55 55.83 90.05 55.82 90.05 51.44C90.05 47.06 89.47 47.07 89.47 42.69C89.47 38.31 89.28 38.32 89.28 33.94C89.28 29.56 89.14 29.54 89.14 25.19C89.14 20.84 88.77 20.83 88.77 16.45C88.77 12.07 89.28 12.08 89.28 7.70002C89.28 3.70002 88.97 3.35002 88.92 0.0200195H0.0999985C0.199998 3.41002 0.789997 3.76002 0.789997 7.76002C0.789997 12.14 0.919998 12.16 0.919998 16.54C0.919998 20.92 0.649998 20.89 0.649998 25.29C0.649998 29.69 1.39 29.69 1.39 34.06C1.39 38.43 0.389999 38.46 0.389999 42.84C0.389999 47.22 0.0599976 47.23 0.0599976 51.61C0.0599976 55.99 0.93 55.99 0.93 60.36C0.93 64.73 0.119999 64.72 0.119999 69.12C0.119999 73.52 0.41 73.51 0.41 77.89V95.42C0.41 99.79 0.549999 99.79 0.549999 104.17C0.549999 108.55 0.279999 108.54 0.279999 112.92C0.279999 117.3 1.62 117.28 1.62 121.67C1.62 126.06 1.5 126.07 1.5 130.45C1.5 134.83 0.879997 134.8 0.879997 139.2C0.879997 143.6 0.549999 143.6 0.549999 147.97C0.549999 152.34 1.44 152.35 1.44 156.72C1.44 161.09 0.0299988 161.12 0.0299988 165.5C0.0299988 169.88 0.419998 169.87 0.419998 174.25C0.419998 178.63 0.189999 178.63 0.189999 183C0.189999 187.37 1.08 187.4 1.08 191.78C1.08 196.16 0.209999 196.15 0.209999 200.53V209.26C0.209999 213.64 1.29 213.64 1.29 218.01C1.29 222.38 0.57 222.41 0.57 226.79V235.54C0.57 239.92 1.29 239.92 1.29 244.29C1.29 248.66 0.169998 248.67 0.169998 253.05C0.169998 257.43 1.02 257.42 1.02 261.8C1.02 266.18 0.860001 266.17 0.860001 270.55V288.08C0.860001 292.45 0.48 292.45 0.48 296.83C0.48 301.21 1.02 301.21 1.02 305.58C1.02 309.95 0.0200005 309.94 0.0200005 314.32C0.0200005 318.7 0.599998 318.67 0.599998 323.07V331.84C0.599998 336.22 1.32 336.22 1.32 340.59C1.32 344.96 0.43 344.97 0.43 349.35V358.14C0.43 362.52 1.32 362.52 1.32 366.89V375.64C1.32 380.02 0 380.02 0 384.4C0 388.78 0.389999 388.77 0.389999 393.15C0.389999 397.53 0.119999 397.53 0.119999 401.9V410.66C0.119999 415.03 0.799999 415.03 0.799999 419.41V426.41H89.28C89.28 423.47 89.11 422.98 89.11 419.16Z" fill="#CAE8DF"/>
<path d="M352.64 16.54C352.64 20.91 352.39 20.89 352.39 25.29C352.39 29.69 353.12 29.69 353.12 34.06C353.12 38.43 352.12 38.46 352.12 42.84C352.12 47.22 351.81 47.23 351.81 51.61C351.81 55.99 352.66 55.99 352.66 60.36C352.66 64.73 351.85 64.72 351.85 69.12C351.85 73.52 352.14 73.51 352.14 77.89V95.42C352.14 99.79 352.29 99.79 352.29 104.17C352.29 108.55 352.04 108.54 352.04 112.92C352.04 117.3 353.39 117.28 353.39 121.67C353.39 126.06 353.26 126.07 353.26 130.45C353.26 134.83 352.64 134.8 352.64 139.2C352.64 143.6 352.31 143.6 352.31 147.97C352.31 152.34 353.22 152.35 353.22 156.72C353.22 161.09 351.79 161.12 351.79 165.5C351.79 169.88 352.19 169.87 352.19 174.25C352.19 178.63 351.96 178.63 351.96 183C351.96 187.37 352.85 187.4 352.85 191.78C352.85 196.16 351.98 196.15 351.98 200.53V209.26C351.98 213.64 353.04 213.64 353.04 218.01C353.04 222.38 352.33 222.41 352.33 226.79V235.54C352.33 239.92 353.06 239.92 353.06 244.29C353.06 248.66 351.96 248.67 351.96 253.05C351.96 257.43 352.79 257.42 352.79 261.8C352.79 266.18 352.62 266.17 352.62 270.55V288.08C352.62 292.45 352.27 292.45 352.27 296.83C352.27 301.21 352.79 301.21 352.79 305.58C352.79 309.95 351.79 309.94 351.79 314.32C351.79 318.7 352.39 318.67 352.39 323.07V331.84C352.39 336.22 353.12 336.22 353.12 340.59C353.12 344.96 352.23 344.97 352.23 349.35V358.18C352.23 362.56 353.12 362.56 353.12 366.93V375.69C353.12 380.06 351.77 380.06 351.77 384.44C351.77 388.82 352.16 388.82 352.16 393.19C352.16 397.56 351.92 397.57 351.92 401.94C351.92 406.31 351.79 406.32 351.79 410.7C351.79 415.08 352.48 415.07 352.48 419.45V426.45H441.01C441.01 423.5 440.83 423 440.83 419.19C440.83 414.81 441.39 414.81 441.39 410.44C441.39 406.07 440.85 406.06 440.85 401.68V392.93C440.85 388.55 441.04 388.58 441.04 384.18C441.04 379.78 441.58 379.78 441.58 375.41C441.58 371.04 440.69 371.03 440.69 366.65C440.69 362.27 441.33 362.28 441.33 357.9C441.33 353.52 441.1 353.52 441.1 349.15C441.1 344.78 442.1 344.77 442.1 340.4V331.64C442.1 327.27 440.75 327.27 440.75 322.89C440.75 318.51 441.64 318.51 441.64 314.14C441.64 309.77 442.22 309.76 442.22 305.38C442.22 301 441.33 301.03 441.33 296.63C441.33 292.23 442.12 292.23 442.12 287.86C442.12 283.49 441.52 283.48 441.52 279.11C441.52 274.74 440.83 274.73 440.83 270.35C440.83 265.97 442.1 265.98 442.1 261.6C442.1 257.22 440.58 257.22 440.58 252.85C440.58 248.48 441.91 248.47 441.91 244.1C441.91 239.73 442.03 239.72 442.03 235.34C442.03 230.96 441.21 230.97 441.21 226.59C441.21 222.21 441.66 222.21 441.66 217.84C441.66 213.47 440.71 213.46 440.71 209.09C440.71 204.72 441.87 204.71 441.87 200.33C441.87 195.95 441.43 195.96 441.43 191.58C441.43 187.2 441.08 187.2 441.08 182.83C441.08 178.46 441.39 178.45 441.39 174.07C441.39 169.69 442.03 169.7 442.03 165.32C442.03 160.94 441.5 160.95 441.5 156.57C441.5 152.19 441.89 152.19 441.89 147.82C441.89 143.45 441.12 143.44 441.12 139.06C441.12 134.68 441.54 134.69 441.54 130.31C441.54 125.93 440.54 125.93 440.54 121.56C440.54 117.19 441.99 117.18 441.99 112.81C441.99 108.44 441.85 108.43 441.85 104.05C441.85 99.67 441.14 99.68 441.14 95.3C441.14 90.92 441.75 90.92 441.75 86.55C441.75 82.18 441.19 82.17 441.19 77.8V69.03C441.19 64.66 441.39 64.66 441.39 60.28C441.39 55.9 441.91 55.9 441.91 51.53C441.91 47.16 441.31 47.15 441.31 42.78C441.31 38.41 441.17 38.4 441.17 34.02C441.17 29.64 441.02 29.63 441.02 25.27C441.02 20.91 440.65 20.91 440.65 16.54C440.65 12.17 441.12 12.16 441.12 7.79002C441.12 3.79002 440.81 3.43002 440.76 0.0200195H351.83C351.93 3.41002 352.52 3.76002 352.52 7.76002C352.52 12.14 352.64 12.16 352.64 16.54Z" fill="#CAE8DF"/>
<path d="M528.53 16.52C528.53 20.9 528.26 20.88 528.26 25.28C528.26 29.68 529.01 29.67 529.01 34.05C529.01 38.43 528.01 38.45 528.01 42.82C528.01 47.19 527.68 47.22 527.68 51.6C527.68 55.98 528.55 55.97 528.55 60.35C528.55 64.73 527.72 64.7 527.72 69.1C527.72 73.5 528.01 73.5 528.01 77.88V95.4C528.01 99.78 528.18 99.78 528.18 104.15C528.18 108.52 527.91 108.53 527.91 112.91C527.91 117.29 529.28 117.26 529.28 121.66C529.28 126.06 529.15 126.06 529.15 130.43C529.15 134.8 528.53 134.79 528.53 139.18C528.53 143.57 528.2 143.58 528.2 147.96C528.2 152.34 529.11 152.34 529.11 156.71C529.11 161.08 527.7 161.11 527.7 165.48C527.7 169.85 528.09 169.86 528.09 174.24C528.09 178.62 527.85 178.61 527.85 182.99C527.85 187.37 528.74 187.39 528.74 191.76C528.74 196.13 527.89 196.14 527.89 200.52V209.26C527.89 213.64 528.97 213.64 528.97 218.01C528.97 222.38 528.24 222.41 528.24 226.78V235.54C528.24 239.91 528.97 239.91 528.97 244.29C528.97 248.67 527.85 248.67 527.85 253.04C527.85 257.41 528.68 257.42 528.68 261.79C528.68 266.16 528.51 266.17 528.51 270.55V288.07C528.51 292.45 528.14 292.45 528.14 296.83C528.14 301.21 528.65 301.2 528.65 305.58C528.65 309.96 527.65 309.93 527.65 314.31C527.65 318.69 528.23 318.67 528.23 323.06V331.84C528.23 336.21 528.96 336.21 528.96 340.59C528.96 344.97 528.06 344.97 528.06 349.34V358.16C528.06 362.53 528.93 362.53 528.93 366.91V375.66C528.93 380.04 527.59 380.04 527.59 384.41C527.59 388.78 528 388.79 528 393.17C528 397.55 527.73 397.54 527.73 401.92C527.73 406.3 527.61 406.3 527.61 410.67C527.61 415.04 528.29 415.05 528.29 419.42V426.42H616.89C616.89 423.42 616.71 422.95 616.71 419.13C616.71 414.75 617.25 414.75 617.25 410.37C617.25 405.99 616.73 406 616.73 401.62V392.87C616.73 388.49 616.94 388.51 616.94 384.11C616.94 379.71 617.46 379.72 617.46 375.34C617.46 370.96 616.56 370.96 616.56 366.59C616.56 362.22 617.21 362.21 617.21 357.84C617.21 353.47 617 353.46 617 349.08C617 344.7 618 344.71 618 340.33V331.58C618 327.2 616.66 327.2 616.66 322.82C616.66 318.44 617.55 318.45 617.55 314.07C617.55 309.69 618.13 309.7 618.13 305.32C618.13 300.94 617.26 300.96 617.26 296.57C617.26 292.18 618.05 292.17 618.05 287.79C618.05 283.41 617.42 283.42 617.42 279.04C617.42 274.66 616.74 274.66 616.74 270.29C616.74 265.92 618.03 265.91 618.03 261.54C618.03 257.17 616.49 257.16 616.49 252.78C616.49 248.4 617.84 248.41 617.84 244.03C617.84 239.65 617.94 239.65 617.94 235.28C617.94 230.91 617.13 230.9 617.13 226.53C617.13 222.16 617.57 222.15 617.57 217.77C617.57 213.39 616.57 213.4 616.57 209.02C616.57 204.64 617.74 204.64 617.74 200.27C617.74 195.9 617.3 195.89 617.3 191.51C617.3 187.13 616.95 187.14 616.95 182.76C616.95 178.38 617.28 178.39 617.28 174.01C617.28 169.63 617.9 169.63 617.9 165.26C617.9 160.89 617.36 160.88 617.36 156.51C617.36 152.14 617.78 152.13 617.78 147.75C617.78 143.37 616.99 143.38 616.99 139C616.99 134.62 617.43 134.62 617.43 130.25C617.43 125.88 616.43 125.87 616.43 121.49C616.43 117.11 617.88 117.12 617.88 112.74C617.88 108.36 617.72 108.37 617.72 103.99C617.72 99.61 617.01 99.61 617.01 95.24C617.01 90.87 617.61 90.86 617.61 86.48C617.61 82.1 617.07 82.11 617.07 77.73V69C617.07 64.62 617.3 64.62 617.3 60.25C617.3 55.88 617.8 55.87 617.8 51.49C617.8 47.11 617.22 47.12 617.22 42.74C617.22 38.36 617.07 38.36 617.07 33.99C617.07 29.62 616.93 29.59 616.93 25.24C616.93 20.89 616.56 20.88 616.56 16.5C616.56 12.12 617.03 12.13 617.03 7.75002C617.03 3.75002 616.71 3.35002 616.65 0.0200195H527.65C527.75 3.40002 528.34 3.75002 528.34 7.75002C528.41 12.13 528.53 12.15 528.53 16.52Z" fill="#CAE8DF"/>
<path d="M704.21 16.52C704.21 20.9 703.94 20.88 703.94 25.28C703.94 29.68 704.69 29.67 704.69 34.05C704.69 38.43 703.69 38.45 703.69 42.82C703.69 47.19 703.36 47.22 703.36 51.6C703.36 55.98 704.23 55.97 704.23 60.35C704.23 64.73 703.4 64.7 703.4 69.1C703.4 73.5 703.69 73.5 703.69 77.88V95.4C703.69 99.78 703.86 99.78 703.86 104.15C703.86 108.52 703.59 108.53 703.59 112.91C703.59 117.29 704.93 117.26 704.93 121.66C704.93 126.06 704.81 126.06 704.81 130.43C704.81 134.8 704.19 134.79 704.19 139.18C704.19 143.57 703.86 143.58 703.86 147.96C703.86 152.34 704.77 152.34 704.77 156.71C704.77 161.08 703.36 161.11 703.36 165.48C703.36 169.85 703.75 169.86 703.75 174.24C703.75 178.62 703.5 178.61 703.5 182.99C703.5 187.37 704.39 187.39 704.39 191.76C704.39 196.13 703.54 196.14 703.54 200.52V209.26C703.54 213.64 704.62 213.64 704.62 218.01C704.62 222.38 703.9 222.41 703.9 226.78V235.54C703.9 239.91 704.62 239.91 704.62 244.29C704.62 248.67 703.5 248.67 703.5 253.04C703.5 257.41 704.33 257.42 704.33 261.79C704.33 266.16 704.17 266.17 704.17 270.55V288.07C704.17 292.45 703.79 292.45 703.79 296.83C703.79 301.21 704.31 301.2 704.31 305.58C704.31 309.96 703.31 309.93 703.31 314.31C703.31 318.69 703.89 318.67 703.89 323.06V331.84C703.89 336.21 704.61 336.21 704.61 340.59C704.61 344.97 703.72 344.97 703.72 349.34V358.16C703.72 362.53 704.59 362.53 704.59 366.91V375.66C704.59 380.04 703.24 380.04 703.24 384.41C703.24 388.78 703.66 388.79 703.66 393.17C703.66 397.55 703.39 397.54 703.39 401.92C703.39 406.3 703.26 406.3 703.26 410.67C703.26 415.04 703.95 415.05 703.95 419.42V426.42H792.55C792.55 423.42 792.37 422.95 792.37 419.13C792.37 414.75 792.91 414.75 792.91 410.37C792.91 405.99 792.39 406 792.39 401.62V392.87C792.39 388.49 792.6 388.51 792.6 384.11C792.6 379.71 793.11 379.72 793.11 375.34C793.11 370.96 792.22 370.96 792.22 366.59C792.22 362.22 792.86 362.21 792.86 357.84C792.86 353.47 792.66 353.46 792.66 349.08C792.66 344.7 793.66 344.71 793.66 340.33V331.58C793.66 327.2 792.31 327.2 792.31 322.82C792.31 318.44 793.21 318.45 793.21 314.07C793.21 309.69 793.79 309.7 793.79 305.32C793.79 300.94 792.92 300.96 792.92 296.57C792.92 292.18 793.7 292.17 793.7 287.79C793.7 283.41 793.08 283.42 793.08 279.04C793.08 274.66 792.4 274.66 792.4 270.29C792.4 265.92 793.68 265.91 793.68 261.54C793.68 257.17 792.15 257.16 792.15 252.78C792.15 248.4 793.5 248.41 793.5 244.03C793.5 239.65 793.6 239.65 793.6 235.28C793.6 230.91 792.79 230.9 792.79 226.53C792.79 222.16 793.23 222.15 793.23 217.77C793.23 213.39 792.23 213.4 792.23 209.02C792.23 204.64 793.39 204.64 793.39 200.27C793.39 195.9 792.96 195.89 792.96 191.51C792.96 187.13 792.61 187.14 792.61 182.76C792.61 178.38 792.94 178.39 792.94 174.01C792.94 169.63 793.56 169.63 793.56 165.26C793.56 160.89 793.02 160.88 793.02 156.51C793.02 152.14 793.44 152.13 793.44 147.75C793.44 143.37 792.65 143.38 792.65 139C792.65 134.62 793.08 134.62 793.08 130.25C793.08 125.88 792.08 125.87 792.08 121.49C792.08 117.11 793.53 117.12 793.53 112.74C793.53 108.36 793.37 108.37 793.37 103.99C793.37 99.61 792.66 99.61 792.66 95.24C792.66 90.87 793.26 90.86 793.26 86.48C793.26 82.1 792.72 82.11 792.72 77.73V69C792.72 64.62 792.95 64.62 792.95 60.25C792.95 55.88 793.45 55.87 793.45 51.49C793.45 47.11 792.87 47.12 792.87 42.74C792.87 38.36 792.72 38.36 792.72 33.99C792.72 29.62 792.58 29.59 792.58 25.24C792.58 20.89 792.28 20.88 792.28 16.5C792.28 12.12 792.76 12.13 792.76 7.75002C792.76 3.75002 792.43 3.35002 792.38 0.0200195H703.38C703.49 3.40002 704.07 3.75002 704.07 7.75002C704.08 12.13 704.21 12.15 704.21 16.52Z" fill="#CAE8DF"/>
<path d="M879.92 7.75002C879.92 12.13 880.05 12.15 880.05 16.52C880.05 20.89 879.78 20.88 879.78 25.26C879.78 29.64 880.52 29.65 880.52 34.03C880.52 38.41 879.52 38.43 879.52 42.8C879.52 47.17 879.18 47.2 879.18 51.58C879.18 55.96 880.06 55.95 880.06 60.33C880.06 64.71 879.23 64.68 879.23 69.08C879.23 73.48 879.52 73.48 879.52 77.86V95.4C879.52 99.78 879.68 99.78 879.68 104.15C879.68 108.52 879.41 108.53 879.41 112.91C879.41 117.29 880.76 117.26 880.76 121.66C880.76 126.06 880.64 126.06 880.64 130.43C880.64 134.8 880.01 134.79 880.01 139.18C880.01 143.57 879.68 143.58 879.68 147.96C879.68 152.34 880.6 152.34 880.6 156.71C880.6 161.08 879.18 161.11 879.18 165.48C879.18 169.85 879.58 169.86 879.58 174.24C879.58 178.62 879.33 178.61 879.33 182.99C879.33 187.37 880.22 187.39 880.22 191.76C880.22 196.13 879.37 196.14 879.37 200.52V209.26C879.37 213.64 880.45 213.64 880.45 218.01C880.45 222.38 879.73 222.41 879.73 226.78V235.54C879.73 239.91 880.45 239.91 880.45 244.29C880.45 248.67 879.33 248.67 879.33 253.04C879.33 257.41 880.16 257.42 880.16 261.79C880.16 266.16 879.99 266.17 879.99 270.55V288.07C879.99 292.45 879.62 292.45 879.62 296.83C879.62 301.21 880.14 301.2 880.14 305.58C880.14 309.96 879.14 309.93 879.14 314.31C879.14 318.69 879.73 318.67 879.73 323.06V331.84C879.73 336.21 880.45 336.21 880.45 340.59C880.45 344.97 879.56 344.97 879.56 349.34V358.16C879.56 362.53 880.43 362.53 880.43 366.91V375.66C880.43 380.04 879.08 380.04 879.08 384.41C879.08 388.78 879.5 388.79 879.5 393.17C879.5 397.55 879.23 397.54 879.23 401.92C879.23 406.3 879.1 406.3 879.1 410.67C879.1 415.04 879.79 415.05 879.79 419.42V426.42H968.38C968.38 423.42 968.2 422.95 968.2 419.13C968.2 414.75 968.74 414.75 968.74 410.37C968.74 405.99 968.23 406 968.23 401.62V392.87C968.23 388.49 968.43 388.51 968.43 384.11C968.43 379.71 968.95 379.72 968.95 375.34C968.95 370.96 968.06 370.96 968.06 366.59C968.06 362.22 968.7 362.21 968.7 357.84C968.7 353.47 968.49 353.46 968.49 349.08C968.49 344.7 969.49 344.71 969.49 340.33V331.58C969.49 327.2 968.14 327.2 968.14 322.82C968.14 318.44 969.03 318.45 969.03 314.07C969.03 309.69 969.62 309.7 969.62 305.32C969.62 300.94 968.74 300.96 968.74 296.57C968.74 292.18 969.53 292.17 969.53 287.79C969.53 283.41 968.91 283.42 968.91 279.04C968.91 274.66 968.22 274.66 968.22 270.29C968.22 265.92 969.51 265.91 969.51 261.54C969.51 257.17 967.98 257.16 967.98 252.78C967.98 248.4 969.32 248.41 969.32 244.03C969.32 239.65 969.43 239.65 969.43 235.28C969.43 230.91 968.62 230.9 968.62 226.53C968.62 222.16 969.06 222.15 969.06 217.77C969.06 213.39 968.06 213.4 968.06 209.02C968.06 204.64 969.28 204.66 969.28 200.26C969.28 195.86 968.85 195.88 968.85 191.5C968.85 187.12 968.49 187.13 968.49 182.75C968.49 178.37 968.83 178.38 968.83 174C968.83 169.62 969.45 169.62 969.45 165.25C969.45 160.88 968.91 160.87 968.91 156.5C968.91 152.13 969.32 152.12 969.32 147.74C969.32 143.36 968.53 143.37 968.53 138.99C968.53 134.61 968.97 134.61 968.97 130.24C968.97 125.87 968.02 125.86 968.02 121.48C968.02 117.1 969.47 117.11 969.47 112.73C969.47 108.35 969.3 108.36 969.3 103.98C969.3 99.6 968.6 99.6 968.6 95.23C968.6 90.86 969.2 90.85 969.2 86.47C969.2 82.09 968.66 82.1 968.66 77.72V69C968.66 64.62 968.89 64.62 968.89 60.25C968.89 55.88 969.39 55.87 969.39 51.49C969.39 47.11 968.8 47.12 968.8 42.74C968.8 38.36 968.66 38.36 968.66 33.99C968.66 29.62 968.52 29.59 968.52 25.24C968.52 20.89 968.14 20.88 968.14 16.5C968.14 12.12 968.62 12.13 968.62 7.75002C968.62 3.75002 968.29 3.35002 968.23 0.0200195H879.28C879.33 3.40002 879.92 3.75002 879.92 7.75002Z" fill="#CAE8DF"/>
</svg>
