<svg width="48" height="48" viewBox="0 0 48 48" fill="none" xmlns="http://www.w3.org/2000/svg">
<circle cx="24" cy="24" r="24" fill="white"/>
<path d="M15.0312 23.9961C15.0312 23.1289 15.7461 22.4258 16.6133 22.4258H22.918V16.1211C22.918 15.2539 23.6211 14.5391 24.4883 14.5391C25.3672 14.5391 26.0703 15.2539 26.0703 16.1211V22.4258H32.375C33.2422 22.4258 33.957 23.1289 33.957 23.9961C33.957 24.875 33.2422 25.5781 32.375 25.5781H26.0703V31.8828C26.0703 32.75 25.3672 33.4648 24.4883 33.4648C23.6211 33.4648 22.918 32.75 22.918 31.8828V25.5781H16.6133C15.7461 25.5781 15.0312 24.875 15.0312 23.9961Z" fill="#5E9BF0"/>
</svg>
