<svg width="68" height="19" viewBox="0 0 68 19" fill="none" xmlns="http://www.w3.org/2000/svg">
<path d="M45.47 18.329C45.1172 18.329 44.7734 18.4918 44.4341 18.4783C44.0949 18.4647 43.7421 18.3833 43.4028 18.3561C43.0636 18.329 42.7107 18.3109 42.3715 18.2702C42.0322 18.2295 41.702 18.0621 41.3673 18.0078C41.0325 17.9536 40.6887 17.8676 40.363 17.7952C40.0373 17.7229 39.5759 18.0621 39.2503 17.9762C38.9246 17.8902 38.5898 17.7002 38.2686 17.6007C37.9475 17.5012 37.6037 17.3519 37.2916 17.2343C36.9795 17.1167 36.6945 16.8182 36.3869 16.687C36.0793 16.5558 35.8079 16.2663 35.5184 16.1215C35.2289 15.9768 34.6137 16.2346 34.3603 16.0808C34.012 15.8773 33.8402 15.7009 33.605 15.5425C33.3743 15.6963 33.1978 15.8456 32.8541 16.0446C32.5917 16.1984 32.275 16.3568 31.9494 16.5241C31.6237 16.6915 31.212 16.497 30.8818 16.6417C30.5516 16.7865 30.3978 17.2207 30.0676 17.3474C29.7374 17.4741 29.3031 17.1755 28.9684 17.2841C28.6337 17.3926 28.4346 17.8359 28.0953 17.9264C27.7561 18.0169 27.4576 18.1616 27.1138 18.234C26.77 18.3064 26.4353 18.3019 26.0915 18.3652C25.7477 18.4285 25.3903 18.2159 25.0465 18.2612C24.7027 18.3064 24.3725 18.225 24.0287 18.2612C23.685 18.2973 23.3774 18.528 23.0336 18.5416C22.6898 18.5552 22.3596 18.7633 22.0113 18.7633C21.663 18.7633 21.3328 18.6864 20.989 18.6773C20.6452 18.6683 20.4643 18.4014 20.2743 18.1978C20.0843 17.9943 19.6591 17.7455 19.6681 17.4605C19.6772 17.1755 20.2064 17.0398 20.41 16.8498C20.4885 16.7589 20.5868 16.6872 20.6974 16.6401C20.8079 16.5931 20.9278 16.572 21.0478 16.5784C21.4051 16.5784 21.7534 16.3839 22.0972 16.3794C22.441 16.3749 22.7984 16.3115 23.1376 16.2934C23.4769 16.2753 23.8568 16.4337 24.1916 16.3975C24.5263 16.3613 24.8566 16.0537 25.1913 16.0039C25.526 15.9542 25.8744 15.8637 26.2091 15.7959C26.5438 15.728 27.0007 16.0718 27.3264 15.9858C27.6521 15.8999 28.0275 15.8185 28.3442 15.7189C28.6608 15.6194 28.905 15.1445 29.2172 15.0269C29.5293 14.9092 29.8414 14.6785 30.1219 14.5474C30.4023 14.4162 30.814 14.3257 31.0899 14.1765C31.4472 13.991 31.8634 14.0136 32.1122 13.8598C32.4165 13.6782 32.6861 13.4438 32.9083 13.1677C33.1119 12.9958 33.3607 13.0863 33.6004 13.0863C33.7122 13.0652 33.8269 13.0668 33.938 13.0909C34.0491 13.115 34.1543 13.1611 34.2473 13.2265C34.5745 13.3581 34.8894 13.5186 35.1882 13.706C35.437 13.8643 35.7807 13.9503 36.1381 14.1357C36.4186 14.285 36.7669 14.3348 37.1107 14.4886C37.4544 14.6424 37.6309 14.9726 37.9747 15.0992C38.3184 15.2259 38.5808 15.4294 38.9291 15.5516C39.2774 15.6737 39.5895 15.728 39.9424 15.8185C40.2952 15.9089 40.6525 15.7823 41.0008 15.8547C41.3491 15.927 41.616 16.3296 41.9689 16.3884C42.3217 16.4472 42.7107 16.0084 43.0636 16.0446C43.4164 16.0808 43.7195 16.411 44.0768 16.4337C44.4342 16.4563 44.7644 16.5332 45.1217 16.5377C45.4791 16.5422 45.8048 16.1984 46.1621 16.1849C46.5195 16.1713 46.6733 16.6055 46.8723 16.7955C46.99 16.8728 47.0908 16.9733 47.1685 17.0907C47.2463 17.2081 47.2994 17.34 47.3246 17.4786C47.3661 17.793 47.2991 18.1121 47.1347 18.3833C46.8683 18.5613 46.5491 18.6427 46.23 18.614C45.9586 18.614 45.7007 18.329 45.47 18.329Z" fill="#383838"/>
<path d="M0.945221 2.38424C0.82605 2.39679 0.705523 2.38481 0.591162 2.34902C0.4768 2.31323 0.370985 2.2544 0.280228 2.17616C0.195837 2.09109 0.129187 1.99009 0.084148 1.87904C0.0391093 1.768 0.0165991 1.64911 0.0178861 1.52929C-0.00784093 1.40413 -0.00579618 1.27485 0.0239049 1.15058C0.053606 1.0263 0.110242 0.910062 0.18978 0.810061C0.366196 0.597458 0.551641 0.307953 0.85019 0.285336C1.14874 0.262719 1.49706 0.448185 1.87703 0.430091C2.257 0.411997 2.51934 0.154166 2.8767 0.140595C3.23405 0.127025 3.54165 0.172254 3.89448 0.163207C4.24731 0.15416 4.56848 0.362237 4.91679 0.357713C5.2651 0.35319 5.58174 0.271776 5.93004 0.267252C6.27835 0.262729 6.59951 0.117965 6.9433 0.113442C7.28708 0.108918 7.6173 0.235584 7.96108 0.235584C8.30486 0.235584 8.63513 0.00488281 8.97439 0.00488281C9.31365 0.00488281 9.65291 0.0863021 9.99217 0.0863021C10.3314 0.0863021 10.6752 0.194865 11.01 0.199389C11.3447 0.203912 11.693 0.00488281 12.0277 0.00488281C12.3625 0.00488281 12.7108 0.330578 13.0455 0.335102C13.3803 0.339625 13.7376 0.0863109 14.0678 0.0953578C14.398 0.104405 14.7599 0.1813 15.0856 0.190347C15.4112 0.199394 15.7777 0.375806 16.0943 0.384853C16.411 0.3939 16.8045 0.384853 17.1076 0.384853C17.2455 0.373117 17.3844 0.389515 17.5158 0.433059C17.6472 0.476602 17.7684 0.546383 17.872 0.638167C17.9515 0.751333 18.0073 0.87938 18.036 1.01463C18.0648 1.14988 18.0659 1.28956 18.0394 1.42526C18.0501 1.56174 18.0333 1.69898 17.9898 1.82878C17.9462 1.95858 17.877 2.07827 17.7861 2.18067C17.5674 2.36277 17.2877 2.45494 17.0036 2.43851C16.7095 2.43851 16.3793 2.26662 16.0129 2.25305L15.0132 2.23044C14.6966 2.23044 14.3618 2.36162 14.0135 2.3571C13.6652 2.35257 13.3621 2.19877 13.0184 2.19424C12.6746 2.18972 12.3579 2.50636 12.0187 2.50184C11.6794 2.49731 11.3627 2.17163 11.0235 2.1671C10.6842 2.16258 10.3585 2.34353 10.0238 2.34353C9.68907 2.34353 9.35888 2.43399 9.02867 2.43399C8.69846 2.43399 8.35916 2.47922 8.02894 2.47922C7.69873 2.47922 7.35496 2.18521 7.02475 2.18973C6.69453 2.19425 6.35529 2.31186 6.0296 2.31639C5.70391 2.32091 5.35104 2.25757 5.02988 2.26209C4.70871 2.26662 4.34685 2.22139 4.02568 2.23044C3.70451 2.23949 3.34718 2.44304 3.03054 2.45661C2.71389 2.47018 2.33388 2.29829 2.02628 2.31639C1.71869 2.33448 1.33875 2.6104 1.04925 2.63302C1.01759 2.64659 0.976885 2.38424 0.945221 2.38424Z" fill="#383838"/>
<path d="M66.2406 2.46077C66.2089 2.46077 66.1727 2.61909 66.1411 2.61457C65.8561 2.59195 65.5258 2.46078 65.1549 2.44269C64.784 2.42459 64.5171 2.30246 64.1643 2.28889C63.8115 2.27532 63.5129 2.28889 63.1646 2.28889C62.8163 2.28889 62.5087 2.36126 62.1649 2.35221C61.8211 2.34317 61.509 2.37935 61.1697 2.37482C60.8305 2.3703 60.5093 2.35221 60.17 2.35221C59.8308 2.35221 59.5096 2.21651 59.1749 2.21199C58.8402 2.20746 58.5099 2.27079 58.1752 2.27079C57.8404 2.27079 57.5102 2.27079 57.1755 2.27079C56.8408 2.27079 56.506 2.23007 56.1758 2.2346C55.8456 2.23912 55.5063 2.20746 55.1761 2.21199C54.8459 2.21651 54.5066 2.51958 54.1764 2.52411C53.8462 2.52863 53.4979 2.30698 53.1722 2.3115H52.1771C51.8197 2.3115 51.4895 2.40198 51.1819 2.41555C50.8743 2.42912 50.4763 2.32054 50.1822 2.33411C50.0579 2.34287 49.9331 2.32433 49.8167 2.27979C49.7003 2.23525 49.595 2.1658 49.5082 2.07629C49.4089 2.00045 49.3285 1.9025 49.2736 1.79023C49.2186 1.67795 49.1905 1.55442 49.1916 1.42942C49.1744 1.30449 49.185 1.17732 49.2225 1.05693C49.2601 0.936543 49.3236 0.82589 49.4087 0.732815C49.4921 0.635231 49.5954 0.556515 49.7116 0.50192C49.8278 0.447325 49.9543 0.418096 50.0827 0.416166C50.3858 0.416166 50.716 0.153801 51.0869 0.144755C51.4578 0.135708 51.7519 0.366405 52.1092 0.357358C52.4666 0.348311 52.7697 0.176418 53.1225 0.171894C53.4753 0.167371 53.792 0.244267 54.1357 0.239744C54.4795 0.23522 54.8052 0.176418 55.1535 0.171894C55.5018 0.167371 55.823 0.135708 56.1668 0.131185C56.5106 0.126661 56.8408 0 57.1846 0H58.2023C58.5416 0 58.8809 0.348307 59.2156 0.352831C59.5503 0.357354 59.9032 0.0135743 60.2379 0.0180978C60.5726 0.0226212 60.9209 0.104049 61.2557 0.108573C61.5904 0.113096 61.9387 0.248804 62.2689 0.253327C62.5992 0.257851 62.961 0.144763 63.2913 0.15381C63.6215 0.162857 63.9879 0.126669 64.309 0.15381C64.6302 0.180951 65.0147 0.153805 65.3313 0.176422C65.648 0.19904 66.0415 0.348311 66.3355 0.370928C66.6469 0.366203 66.9498 0.471985 67.1905 0.669479C67.3783 0.93187 67.4666 1.25262 67.4393 1.57417C67.3801 1.86182 67.2196 2.11865 66.9869 2.29793C66.7664 2.44163 66.5009 2.49955 66.2406 2.46077Z" fill="#383838"/>
<path d="M38.1338 8.59879C38.1636 8.90177 38.1422 9.2076 38.0705 9.50348C37.9312 9.76549 37.7493 10.0025 37.5321 10.2046C37.3528 10.4307 37.141 10.6289 36.9034 10.7927C36.5766 10.992 36.2233 11.1443 35.8539 11.245C35.4887 11.3503 35.1148 11.4229 34.7367 11.4622C34.3567 11.5051 33.9745 11.5247 33.5922 11.5209C33.208 11.5411 32.823 11.5411 32.4387 11.5209C32.0529 11.4929 31.67 11.4324 31.2943 11.34C30.9264 11.2179 30.5776 11.0443 30.2584 10.8243C30.0046 10.6715 29.7732 10.4843 29.5708 10.268C29.3838 10.0334 29.2413 9.76668 29.1502 9.48087C29.0658 9.19945 29.0291 8.90589 29.0416 8.61236C29.0146 8.30861 29.0406 8.00248 29.1185 7.70766C29.2246 7.42894 29.3776 7.1704 29.5708 6.94319C29.7787 6.73243 30.0147 6.5513 30.272 6.4049C30.5919 6.19292 30.9408 6.02837 31.3079 5.91637C31.6821 5.82758 32.0636 5.77307 32.4477 5.75352C32.8224 5.65342 33.2032 5.57786 33.5877 5.52734C33.9751 5.55572 34.3604 5.60861 34.7412 5.68567C35.1281 5.70754 35.5124 5.76202 35.8902 5.84852C36.259 5.97444 36.6078 6.15267 36.926 6.37776C37.1593 6.55479 37.3638 6.7669 37.5321 7.00653C37.7416 7.21252 37.9145 7.45269 38.0433 7.71672C38.1242 8.00331 38.1548 8.30174 38.1338 8.59879Z" fill="#FFB3C5"/>
</svg>
