<svg width="112" height="60" viewBox="0 0 112 60" fill="none" xmlns="http://www.w3.org/2000/svg">
<g filter="url(#filter0_i_1153_9943)">
<rect width="112" height="60" rx="10" fill="white"/>
</g>
<path d="M67.47 41.329C67.1172 41.329 66.7734 41.4918 66.4341 41.4783C66.0949 41.4647 65.7421 41.3833 65.4028 41.3561C65.0636 41.329 64.7107 41.3109 64.3715 41.2702C64.0322 41.2295 63.702 41.0621 63.3673 41.0078C63.0325 40.9536 62.6887 40.8676 62.363 40.7952C62.0373 40.7229 61.5759 41.0621 61.2503 40.9762C60.9246 40.8902 60.5898 40.7002 60.2686 40.6007C59.9475 40.5012 59.6037 40.3519 59.2916 40.2343C58.9795 40.1167 58.6945 39.8182 58.3869 39.687C58.0793 39.5558 57.8079 39.2663 57.5184 39.1215C57.2289 38.9768 56.6137 39.2346 56.3603 39.0808C56.012 38.8773 55.8402 38.7009 55.605 38.5425C55.3743 38.6963 55.1978 38.8456 54.8541 39.0446C54.5917 39.1984 54.275 39.3568 53.9494 39.5241C53.6237 39.6915 53.212 39.497 52.8818 39.6417C52.5516 39.7865 52.3978 40.2207 52.0676 40.3474C51.7374 40.4741 51.3031 40.1755 50.9684 40.2841C50.6337 40.3926 50.4346 40.8359 50.0953 40.9264C49.7561 41.0169 49.4576 41.1616 49.1138 41.234C48.77 41.3064 48.4353 41.3019 48.0915 41.3652C47.7477 41.4285 47.3903 41.2159 47.0465 41.2612C46.7027 41.3064 46.3725 41.225 46.0287 41.2612C45.685 41.2973 45.3774 41.528 45.0336 41.5416C44.6898 41.5552 44.3596 41.7633 44.0113 41.7633C43.663 41.7633 43.3328 41.6864 42.989 41.6773C42.6452 41.6683 42.4643 41.4014 42.2743 41.1978C42.0843 40.9943 41.6591 40.7455 41.6681 40.4605C41.6772 40.1755 42.2064 40.0398 42.41 39.8498C42.4885 39.7589 42.5868 39.6872 42.6974 39.6401C42.8079 39.5931 42.9278 39.572 43.0478 39.5784C43.4051 39.5784 43.7534 39.3839 44.0972 39.3794C44.441 39.3749 44.7984 39.3115 45.1376 39.2934C45.4769 39.2753 45.8568 39.4337 46.1916 39.3975C46.5263 39.3613 46.8566 39.0537 47.1913 39.0039C47.526 38.9542 47.8744 38.8637 48.2091 38.7959C48.5438 38.728 49.0007 39.0718 49.3264 38.9858C49.6521 38.8999 50.0275 38.8185 50.3442 38.7189C50.6608 38.6194 50.905 38.1445 51.2172 38.0269C51.5293 37.9092 51.8414 37.6785 52.1219 37.5474C52.4023 37.4162 52.814 37.3257 53.0899 37.1765C53.4472 36.991 53.8634 37.0136 54.1122 36.8598C54.4165 36.6782 54.6861 36.4438 54.9083 36.1677C55.1119 35.9958 55.3607 36.0863 55.6004 36.0863C55.7122 36.0652 55.8269 36.0668 55.938 36.0909C56.0491 36.115 56.1543 36.1611 56.2473 36.2265C56.5745 36.3581 56.8894 36.5186 57.1882 36.706C57.437 36.8643 57.7807 36.9503 58.1381 37.1357C58.4186 37.285 58.7669 37.3348 59.1107 37.4886C59.4544 37.6424 59.6309 37.9726 59.9747 38.0992C60.3184 38.2259 60.5808 38.4294 60.9291 38.5516C61.2774 38.6737 61.5895 38.728 61.9424 38.8185C62.2952 38.9089 62.6525 38.7823 63.0008 38.8547C63.3491 38.927 63.616 39.3296 63.9689 39.3884C64.3217 39.4472 64.7107 39.0084 65.0636 39.0446C65.4164 39.0808 65.7195 39.411 66.0768 39.4337C66.4342 39.4563 66.7644 39.5332 67.1217 39.5377C67.4791 39.5422 67.8048 39.1984 68.1621 39.1849C68.5195 39.1713 68.6733 39.6055 68.8723 39.7955C68.99 39.8728 69.0908 39.9733 69.1685 40.0907C69.2463 40.2081 69.2994 40.34 69.3246 40.4786C69.3661 40.793 69.2991 41.1121 69.1347 41.3833C68.8683 41.5613 68.5491 41.6427 68.23 41.614C67.9586 41.614 67.7007 41.329 67.47 41.329Z" fill="#383838"/>
<path d="M22.9452 25.3842C22.8261 25.3968 22.7055 25.3848 22.5912 25.349C22.4768 25.3132 22.371 25.2544 22.2802 25.1762C22.1958 25.0911 22.1292 24.9901 22.0841 24.879C22.0391 24.768 22.0166 24.6491 22.0179 24.5293C21.9922 24.4041 21.9942 24.2749 22.0239 24.1506C22.0536 24.0263 22.1102 23.9101 22.1898 23.8101C22.3662 23.5975 22.5516 23.308 22.8502 23.2853C23.1487 23.2627 23.4971 23.4482 23.877 23.4301C24.257 23.412 24.5193 23.1542 24.8767 23.1406C25.2341 23.127 25.5416 23.1723 25.8945 23.1632C26.2473 23.1542 26.5685 23.3622 26.9168 23.3577C27.2651 23.3532 27.5817 23.2718 27.93 23.2673C28.2784 23.2627 28.5995 23.118 28.9433 23.1134C29.2871 23.1089 29.6173 23.2356 29.9611 23.2356C30.3049 23.2356 30.6351 23.0049 30.9744 23.0049C31.3137 23.0049 31.6529 23.0863 31.9922 23.0863C32.3314 23.0863 32.6752 23.1949 33.01 23.1994C33.3447 23.2039 33.693 23.0049 34.0277 23.0049C34.3625 23.0049 34.7108 23.3306 35.0455 23.3351C35.3803 23.3396 35.7376 23.0863 36.0678 23.0954C36.398 23.1044 36.7599 23.1813 37.0856 23.1903C37.4112 23.1994 37.7777 23.3758 38.0943 23.3849C38.411 23.3939 38.8045 23.3849 39.1076 23.3849C39.2455 23.3731 39.3844 23.3895 39.5158 23.4331C39.6472 23.4766 39.7684 23.5464 39.872 23.6382C39.9515 23.7513 40.0073 23.8794 40.036 24.0146C40.0648 24.1499 40.0659 24.2896 40.0394 24.4253C40.0501 24.5617 40.0333 24.699 39.9898 24.8288C39.9462 24.9586 39.877 25.0783 39.7861 25.1807C39.5674 25.3628 39.2877 25.4549 39.0036 25.4385C38.7095 25.4385 38.3793 25.2666 38.0129 25.2531L37.0132 25.2304C36.6966 25.2304 36.3618 25.3616 36.0135 25.3571C35.6652 25.3526 35.3621 25.1988 35.0184 25.1942C34.6746 25.1897 34.3579 25.5064 34.0187 25.5018C33.6794 25.4973 33.3627 25.1716 33.0235 25.1671C32.6842 25.1626 32.3585 25.3435 32.0238 25.3435C31.6891 25.3435 31.3589 25.434 31.0287 25.434C30.6985 25.434 30.3592 25.4792 30.0289 25.4792C29.6987 25.4792 29.355 25.1852 29.0247 25.1897C28.6945 25.1943 28.3553 25.3119 28.0296 25.3164C27.7039 25.3209 27.351 25.2576 27.0299 25.2621C26.7087 25.2666 26.3468 25.2214 26.0257 25.2304C25.7045 25.2395 25.3472 25.443 25.0305 25.4566C24.7139 25.4702 24.3339 25.2983 24.0263 25.3164C23.7187 25.3345 23.3388 25.6104 23.0493 25.633C23.0176 25.6466 22.9769 25.3842 22.9452 25.3842Z" fill="#383838"/>
<path d="M88.2406 25.4608C88.2089 25.4608 88.1727 25.6191 88.1411 25.6146C87.8561 25.592 87.5258 25.4608 87.1549 25.4427C86.784 25.4246 86.5171 25.3025 86.1643 25.2889C85.8115 25.2753 85.5129 25.2889 85.1646 25.2889C84.8163 25.2889 84.5087 25.3613 84.1649 25.3522C83.8211 25.3432 83.509 25.3793 83.1697 25.3748C82.8305 25.3703 82.5093 25.3522 82.17 25.3522C81.8308 25.3522 81.5096 25.2165 81.1749 25.212C80.8402 25.2075 80.5099 25.2708 80.1752 25.2708C79.8404 25.2708 79.5102 25.2708 79.1755 25.2708C78.8408 25.2708 78.506 25.2301 78.1758 25.2346C77.8456 25.2391 77.5063 25.2075 77.1761 25.212C76.8459 25.2165 76.5066 25.5196 76.1764 25.5241C75.8462 25.5286 75.4979 25.307 75.1722 25.3115H74.1771C73.8197 25.3115 73.4895 25.402 73.1819 25.4155C72.8743 25.4291 72.4763 25.3205 72.1822 25.3341C72.0579 25.3429 71.9331 25.3243 71.8167 25.2798C71.7003 25.2353 71.595 25.1658 71.5082 25.0763C71.4089 25.0004 71.3285 24.9025 71.2736 24.7902C71.2186 24.678 71.1905 24.5544 71.1916 24.4294C71.1744 24.3045 71.185 24.1773 71.2225 24.0569C71.2601 23.9365 71.3236 23.8259 71.4087 23.7328C71.4921 23.6352 71.5954 23.5565 71.7116 23.5019C71.8278 23.4473 71.9543 23.4181 72.0827 23.4162C72.3858 23.4162 72.716 23.1538 73.0869 23.1448C73.4578 23.1357 73.7519 23.3664 74.1092 23.3574C74.4666 23.3483 74.7697 23.1764 75.1225 23.1719C75.4753 23.1674 75.792 23.2443 76.1357 23.2397C76.4795 23.2352 76.8052 23.1764 77.1535 23.1719C77.5018 23.1674 77.823 23.1357 78.1668 23.1312C78.5106 23.1267 78.8408 23 79.1846 23H80.2023C80.5416 23 80.8809 23.3483 81.2156 23.3528C81.5503 23.3574 81.9032 23.0136 82.2379 23.0181C82.5726 23.0226 82.9209 23.104 83.2557 23.1086C83.5904 23.1131 83.9387 23.2488 84.2689 23.2533C84.5992 23.2579 84.961 23.1448 85.2913 23.1538C85.6215 23.1629 85.9879 23.1267 86.309 23.1538C86.6302 23.181 87.0147 23.1538 87.3313 23.1764C87.648 23.199 88.0415 23.3483 88.3355 23.3709C88.6469 23.3662 88.9498 23.472 89.1905 23.6695C89.3783 23.9319 89.4666 24.2526 89.4393 24.5742C89.3801 24.8618 89.2196 25.1187 88.9869 25.2979C88.7664 25.4416 88.5009 25.4996 88.2406 25.4608Z" fill="#383838"/>
<path d="M60.1338 31.5993C60.1636 31.9023 60.1422 32.2081 60.0705 32.504C59.9312 32.766 59.7493 33.003 59.5321 33.2051C59.3528 33.4312 59.141 33.6294 58.9034 33.7932C58.5766 33.9925 58.2233 34.1448 57.8539 34.2455C57.4887 34.3508 57.1148 34.4234 56.7367 34.4626C56.3567 34.5056 55.9745 34.5252 55.5922 34.5214C55.208 34.5416 54.823 34.5416 54.4387 34.5214C54.0529 34.4934 53.67 34.4329 53.2943 34.3405C52.9264 34.2184 52.5776 34.0447 52.2584 33.8248C52.0046 33.672 51.7732 33.4848 51.5708 33.2684C51.3838 33.0339 51.2413 32.7672 51.1502 32.4814C51.0658 32.1999 51.0291 31.9064 51.0416 31.6128C51.0146 31.3091 51.0406 31.003 51.1185 30.7082C51.2246 30.4294 51.3776 30.1709 51.5708 29.9437C51.7787 29.7329 52.0147 29.5518 52.272 29.4054C52.5919 29.1934 52.9408 29.0289 53.3079 28.9169C53.6821 28.8281 54.0636 28.7736 54.4477 28.754C54.8224 28.6539 55.2032 28.5784 55.5877 28.5278C55.9751 28.5562 56.3604 28.6091 56.7412 28.6862C57.1281 28.708 57.5124 28.7625 57.8902 28.849C58.259 28.9749 58.6078 29.1532 58.926 29.3782C59.1593 29.5553 59.3638 29.7674 59.5321 30.007C59.7416 30.213 59.9145 30.4532 60.0433 30.7172C60.1242 31.0038 60.1548 31.3022 60.1338 31.5993Z" fill="#FFB3C5"/>
<defs>
<filter id="filter0_i_1153_9943" x="0" y="-4" width="112" height="64" filterUnits="userSpaceOnUse" color-interpolation-filters="sRGB">
<feFlood flood-opacity="0" result="BackgroundImageFix"/>
<feBlend mode="normal" in="SourceGraphic" in2="BackgroundImageFix" result="shape"/>
<feColorMatrix in="SourceAlpha" type="matrix" values="0 0 0 0 0 0 0 0 0 0 0 0 0 0 0 0 0 0 127 0" result="hardAlpha"/>
<feOffset dy="-4"/>
<feGaussianBlur stdDeviation="5"/>
<feComposite in2="hardAlpha" operator="arithmetic" k2="-1" k3="1"/>
<feColorMatrix type="matrix" values="0 0 0 0 0.341176 0 0 0 0 0.615686 0 0 0 0 1 0 0 0 0.3 0"/>
<feBlend mode="normal" in2="shape" result="effect1_innerShadow_1153_9943"/>
</filter>
</defs>
</svg>
