<svg width="155" height="16" viewBox="0 0 155 16" fill="none" xmlns="http://www.w3.org/2000/svg">
<path d="M0.984 1.496C1.19733 1.496 1.384 1.54933 1.544 1.656C1.71467 1.76267 1.8 1.93867 1.8 2.184V8.936C1.8 9.16 1.912 9.272 2.136 9.272C3.17067 9.272 4.136 9.24533 5.032 9.192C5.93867 9.128 6.824 9.03733 7.688 8.92C7.86933 8.89867 8.01333 8.94667 8.12 9.064C8.23733 9.18133 8.30667 9.33067 8.328 9.512C8.34933 9.704 8.32267 9.88 8.248 10.04C8.184 10.1893 8.06133 10.2747 7.88 10.296C7.50667 10.3493 7.10133 10.3973 6.664 10.44C6.23733 10.4827 5.76267 10.52 5.24 10.552C4.71733 10.584 4.14133 10.6107 3.512 10.632C2.88267 10.6427 2.184 10.648 1.416 10.648C0.946667 10.648 0.621333 10.5627 0.44 10.392C0.269333 10.2213 0.184 9.90667 0.184 9.448V2.184C0.184 1.93867 0.264 1.76267 0.424 1.656C0.584 1.54933 0.770667 1.496 0.984 1.496ZM10.136 0.551999C10.3493 0.551999 10.536 0.605333 10.696 0.712C10.856 0.818666 10.936 0.989333 10.936 1.224V5.384H12.696C12.9093 5.384 13.0587 5.45333 13.144 5.592C13.24 5.72 13.288 5.88 13.288 6.072C13.288 6.264 13.24 6.42933 13.144 6.568C13.0587 6.70667 12.9093 6.776 12.696 6.776H10.936V13.704C10.936 13.9387 10.856 14.1093 10.696 14.216C10.536 14.3227 10.3493 14.376 10.136 14.376C9.92267 14.376 9.736 14.3227 9.576 14.216C9.416 14.1093 9.336 13.9387 9.336 13.704V1.224C9.336 0.989333 9.416 0.818666 9.576 0.712C9.736 0.605333 9.92267 0.551999 10.136 0.551999ZM17.2905 1.496C18.3998 1.496 19.2158 1.89067 19.7385 2.68C20.2612 3.46933 20.5225 4.62667 20.5225 6.152C20.5225 7.67733 20.2612 8.83467 19.7385 9.624C19.2158 10.4133 18.3998 10.808 17.2905 10.808C16.1812 10.808 15.3652 10.4133 14.8425 9.624C14.3305 8.83467 14.0745 7.67733 14.0745 6.152C14.0745 4.62667 14.3305 3.46933 14.8425 2.68C15.3652 1.89067 16.1812 1.496 17.2905 1.496ZM17.2905 2.904C16.6505 2.904 16.1972 3.18133 15.9305 3.736C15.6745 4.28 15.5465 5.08533 15.5465 6.152C15.5465 7.21867 15.6745 8.02933 15.9305 8.584C16.1972 9.128 16.6505 9.4 17.2905 9.4C17.9305 9.4 18.3838 9.128 18.6505 8.584C18.9172 8.02933 19.0505 7.21867 19.0505 6.152C19.0505 5.08533 18.9172 4.28 18.6505 3.736C18.3838 3.18133 17.9305 2.904 17.2905 2.904ZM22.8745 0.712C23.0558 0.712 23.2212 0.765333 23.3705 0.872C23.5305 0.968 23.6105 1.12267 23.6105 1.336V13.08C23.6105 13.2933 23.5305 13.448 23.3705 13.544C23.2212 13.6507 23.0558 13.704 22.8745 13.704C22.6825 13.704 22.5065 13.6507 22.3465 13.544C22.1972 13.448 22.1225 13.2933 22.1225 13.08V6.824H19.5625V5.464H22.1225V1.336C22.1225 1.12267 22.1972 0.968 22.3465 0.872C22.5065 0.765333 22.6825 0.712 22.8745 0.712ZM25.7385 0.551999C25.9305 0.551999 26.1012 0.605333 26.2505 0.712C26.4105 0.807999 26.4905 0.962666 26.4905 1.176V13.752C26.4905 13.9653 26.4105 14.12 26.2505 14.216C26.1012 14.3227 25.9305 14.376 25.7385 14.376C25.5572 14.376 25.3865 14.3227 25.2265 14.216C25.0772 14.12 25.0025 13.9653 25.0025 13.752V1.176C25.0025 0.962666 25.0772 0.807999 25.2265 0.712C25.3865 0.605333 25.5572 0.551999 25.7385 0.551999ZM33.197 1.752C33.6663 1.752 33.9863 1.83733 34.157 2.008C34.3383 2.17867 34.429 2.49333 34.429 2.952V4.648C34.429 5.128 34.413 5.55467 34.381 5.928C34.349 6.29067 34.2743 6.62667 34.157 6.936C34.0503 7.24533 33.8903 7.53867 33.677 7.816C33.4743 8.09333 33.197 8.392 32.845 8.712C32.5037 9.02133 32.077 9.368 31.565 9.752C31.0637 10.1253 30.4557 10.5627 29.741 11.064C29.581 11.1813 29.405 11.2133 29.213 11.16C29.021 11.1067 28.8663 11.0053 28.749 10.856C28.6423 10.7067 28.5837 10.5307 28.573 10.328C28.573 10.1147 28.6583 9.94933 28.829 9.832C29.469 9.39467 30.013 9.016 30.461 8.696C30.909 8.36533 31.2823 8.072 31.581 7.816C31.8903 7.54933 32.1303 7.30933 32.301 7.096C32.4717 6.872 32.5997 6.63733 32.685 6.392C32.781 6.14667 32.8397 5.88 32.861 5.592C32.8823 5.304 32.893 4.968 32.893 4.584V3.464C32.893 3.25067 32.781 3.144 32.557 3.144H29.309C29.1063 3.144 28.957 3.07467 28.861 2.936C28.7757 2.79733 28.733 2.63733 28.733 2.456C28.733 2.264 28.7757 2.09867 28.861 1.96C28.957 1.82133 29.1063 1.752 29.309 1.752H33.197ZM37.181 0.712C37.3623 0.712 37.5277 0.765333 37.677 0.872C37.837 0.968 37.917 1.12267 37.917 1.336V13.08C37.917 13.2933 37.837 13.448 37.677 13.544C37.5277 13.6507 37.3623 13.704 37.181 13.704C36.989 13.704 36.813 13.6507 36.653 13.544C36.5037 13.448 36.429 13.2933 36.429 13.08V6.824H33.757V5.464H36.429V1.336C36.429 1.12267 36.5037 0.968 36.653 0.872C36.813 0.765333 36.989 0.712 37.181 0.712ZM40.141 0.551999C40.333 0.551999 40.5037 0.605333 40.653 0.712C40.813 0.807999 40.893 0.962666 40.893 1.176V13.752C40.893 13.9653 40.813 14.12 40.653 14.216C40.5037 14.3227 40.333 14.376 40.141 14.376C39.9597 14.376 39.789 14.3227 39.629 14.216C39.4797 14.12 39.405 13.9653 39.405 13.752V1.176C39.405 0.962666 39.4797 0.807999 39.629 0.712C39.789 0.605333 39.9597 0.551999 40.141 0.551999ZM52.5435 1.656C53.0128 1.656 53.3328 1.74133 53.5035 1.912C53.6848 2.08267 53.7755 2.39733 53.7755 2.856V4.632C53.7755 5.08 53.7488 5.48533 53.6955 5.848C53.6422 6.2 53.5408 6.536 53.3915 6.856C53.2422 7.176 53.0342 7.49067 52.7675 7.8C52.5115 8.09867 52.1702 8.41867 51.7435 8.76C51.3275 9.09067 50.8208 9.45333 50.2235 9.848C49.6262 10.2427 48.9222 10.6907 48.1115 11.192C47.9302 11.2987 47.7488 11.32 47.5675 11.256C47.3862 11.1813 47.2422 11.0693 47.1355 10.92C47.0288 10.7707 46.9755 10.5947 46.9755 10.392C46.9862 10.1893 47.0822 10.0293 47.2635 9.912C48.0102 9.45333 48.6502 9.05333 49.1835 8.712C49.7168 8.36 50.1648 8.04533 50.5275 7.768C50.9008 7.48 51.1942 7.21867 51.4075 6.984C51.6208 6.73867 51.7862 6.49867 51.9035 6.264C52.0208 6.01867 52.0955 5.76267 52.1275 5.496C52.1595 5.21867 52.1755 4.90933 52.1755 4.568V3.368C52.1755 3.25067 52.1488 3.17067 52.0955 3.128C52.0528 3.07467 51.9675 3.048 51.8395 3.048H47.7115C47.5088 3.048 47.3595 2.97867 47.2635 2.84C47.1782 2.70133 47.1355 2.54133 47.1355 2.36C47.1355 2.168 47.1782 2.00267 47.2635 1.864C47.3595 1.72533 47.5088 1.656 47.7115 1.656H52.5435ZM57.1835 0.551999C57.3968 0.551999 57.5835 0.605333 57.7435 0.712C57.9035 0.818666 57.9835 0.989333 57.9835 1.224V5.384H59.7435C59.9568 5.384 60.1062 5.45333 60.1915 5.592C60.2875 5.72 60.3355 5.88 60.3355 6.072C60.3355 6.264 60.2875 6.42933 60.1915 6.568C60.1062 6.70667 59.9568 6.776 59.7435 6.776H57.9835V13.704C57.9835 13.9387 57.9035 14.1093 57.7435 14.216C57.5835 14.3227 57.3968 14.376 57.1835 14.376C56.9702 14.376 56.7835 14.3227 56.6235 14.216C56.4635 14.1093 56.3835 13.9387 56.3835 13.704V1.224C56.3835 0.989333 56.4635 0.818666 56.6235 0.712C56.7835 0.605333 56.9702 0.551999 57.1835 0.551999ZM68.802 1.384C68.994 1.384 69.1327 1.45333 69.218 1.592C69.314 1.73067 69.362 1.89067 69.362 2.072C69.362 2.25333 69.314 2.41333 69.218 2.552C69.1327 2.68 68.994 2.744 68.802 2.744H66.21V3.464C66.21 3.98667 66.29 4.424 66.45 4.776C66.61 5.128 66.882 5.45867 67.266 5.768C67.6393 6.07733 67.9913 6.35467 68.322 6.6C68.6527 6.84533 68.946 7.05867 69.202 7.24C69.3833 7.368 69.4793 7.52267 69.49 7.704C69.5007 7.88533 69.4473 8.056 69.33 8.216C69.2233 8.344 69.0793 8.44533 68.898 8.52C68.7273 8.584 68.5407 8.54667 68.338 8.408C68.146 8.26933 67.8953 8.088 67.586 7.864C67.2767 7.62933 66.9513 7.37333 66.61 7.096C66.2047 6.76533 65.9167 6.504 65.746 6.312C65.586 6.10933 65.4847 5.928 65.442 5.768H65.426C65.3833 5.94933 65.2713 6.14667 65.09 6.36C64.9193 6.57333 64.6313 6.84 64.226 7.16C63.874 7.43733 63.5273 7.704 63.186 7.96C62.8553 8.20533 62.53 8.44 62.21 8.664C62.0287 8.792 61.842 8.824 61.65 8.76C61.4687 8.696 61.33 8.59467 61.234 8.456C61.1167 8.30667 61.0633 8.136 61.074 7.944C61.0847 7.752 61.1807 7.58667 61.362 7.448C61.746 7.18133 62.114 6.92 62.466 6.664C62.8287 6.39733 63.1967 6.11467 63.57 5.816C63.9433 5.50667 64.21 5.176 64.37 4.824C64.53 4.472 64.61 4.03467 64.61 3.512V2.744H61.906C61.7033 2.744 61.554 2.68 61.458 2.552C61.3727 2.41333 61.33 2.25333 61.33 2.072C61.33 1.89067 61.3727 1.73067 61.458 1.592C61.554 1.45333 61.7033 1.384 61.906 1.384H68.802ZM71.586 0.551999C71.7993 0.551999 71.986 0.605333 72.146 0.712C72.306 0.818666 72.386 0.989333 72.386 1.224V4.088H74.146C74.3593 4.088 74.5087 4.15733 74.594 4.296C74.69 4.43467 74.738 4.59467 74.738 4.776C74.738 4.97867 74.69 5.14933 74.594 5.288C74.5087 5.416 74.3593 5.48 74.146 5.48H72.386V8.664C72.386 8.888 72.306 9.05333 72.146 9.16C71.986 9.26667 71.7993 9.32 71.586 9.32C71.3727 9.32 71.186 9.26667 71.026 9.16C70.866 9.05333 70.786 8.888 70.786 8.664V1.224C70.786 0.989333 70.866 0.818666 71.026 0.712C71.186 0.605333 71.3727 0.551999 71.586 0.551999ZM67.89 9.464C69.3513 9.464 70.4767 9.72 71.266 10.232C72.066 10.7333 72.466 11.4853 72.466 12.488C72.466 13.4907 72.066 14.2427 71.266 14.744C70.4767 15.256 69.3513 15.512 67.89 15.512C66.4287 15.512 65.298 15.256 64.498 14.744C63.7087 14.2427 63.314 13.4907 63.314 12.488C63.314 11.4853 63.7087 10.7333 64.498 10.232C65.298 9.72 66.4287 9.464 67.89 9.464ZM67.89 10.76C66.834 10.76 66.0713 10.92 65.602 11.24C65.1327 11.5493 64.898 11.9653 64.898 12.488C64.898 13.0213 65.1327 13.4427 65.602 13.752C66.0713 14.0613 66.834 14.216 67.89 14.216C68.946 14.216 69.7087 14.0613 70.178 13.752C70.6473 13.4427 70.882 13.0213 70.882 12.488C70.882 11.9547 70.6473 11.5333 70.178 11.224C69.7087 10.9147 68.946 10.76 67.89 10.76ZM85.9725 1.16C86.1858 1.16 86.3725 1.21333 86.5325 1.32C86.7032 1.42667 86.7885 1.60267 86.7885 1.848V2.728C86.7885 3.06933 86.8152 3.37333 86.8685 3.64C86.9218 3.90667 87.0072 4.15733 87.1245 4.392C87.2525 4.616 87.4125 4.82933 87.6045 5.032C87.8072 5.224 88.0578 5.416 88.3565 5.608C88.8365 5.91733 89.3272 6.22133 89.8285 6.52C90.3298 6.808 90.8418 7.096 91.3645 7.384C91.5245 7.48 91.6098 7.62933 91.6205 7.832C91.6312 8.024 91.5938 8.19467 91.5085 8.344C91.4018 8.504 91.2632 8.62133 91.0925 8.696C90.9218 8.76 90.7458 8.744 90.5645 8.648C90.0525 8.37067 89.5458 8.08267 89.0445 7.784C88.5432 7.48533 88.0685 7.192 87.6205 6.904C87.0765 6.56267 86.6818 6.25333 86.4365 5.976C86.1912 5.69867 86.0418 5.45867 85.9885 5.256H85.9725C85.9192 5.46933 85.7645 5.72 85.5085 6.008C85.2632 6.28533 84.8685 6.59467 84.3245 6.936C83.8765 7.224 83.4018 7.51733 82.9005 7.816C82.3992 8.11467 81.8925 8.40267 81.3805 8.68C81.2098 8.776 81.0338 8.792 80.8525 8.728C80.6818 8.65333 80.5432 8.53067 80.4365 8.36C80.3405 8.2 80.2978 8.024 80.3085 7.832C80.3298 7.62933 80.4205 7.48 80.5805 7.384C81.1032 7.096 81.6152 6.808 82.1165 6.52C82.6178 6.22133 83.1085 5.91733 83.5885 5.608C83.8872 5.416 84.1325 5.224 84.3245 5.032C84.5272 4.82933 84.6872 4.616 84.8045 4.392C84.9325 4.15733 85.0232 3.90667 85.0765 3.64C85.1298 3.37333 85.1565 3.06933 85.1565 2.728V1.848C85.1565 1.60267 85.2365 1.42667 85.3965 1.32C85.5672 1.21333 85.7592 1.16 85.9725 1.16ZM85.9725 8.472C86.1858 8.472 86.3725 8.52533 86.5325 8.632C86.6925 8.73867 86.7725 8.90933 86.7725 9.144V11.624H92.1325C92.3245 11.624 92.4632 11.6933 92.5485 11.832C92.6445 11.96 92.6925 12.1147 92.6925 12.296C92.6925 12.4773 92.6445 12.6373 92.5485 12.776C92.4632 12.9147 92.3245 12.984 92.1325 12.984H79.8125C79.6205 12.984 79.4765 12.9147 79.3805 12.776C79.2952 12.6373 79.2525 12.4773 79.2525 12.296C79.2525 12.1147 79.2952 11.96 79.3805 11.832C79.4765 11.6933 79.6205 11.624 79.8125 11.624H85.1725V9.144C85.1725 8.90933 85.2525 8.73867 85.4125 8.632C85.5725 8.52533 85.7592 8.472 85.9725 8.472ZM104.887 1.08C105.079 1.08 105.218 1.14933 105.303 1.288C105.399 1.416 105.447 1.57067 105.447 1.752C105.447 1.93333 105.399 2.09333 105.303 2.232C105.218 2.36 105.079 2.424 104.887 2.424H101.191V2.664C101.191 2.984 101.292 3.26667 101.495 3.512C101.698 3.74667 102.071 3.97067 102.615 4.184C103.66 4.58933 104.615 4.94133 105.479 5.24C105.66 5.29333 105.778 5.41067 105.831 5.592C105.895 5.77333 105.895 5.944 105.831 6.104C105.756 6.28533 105.644 6.41867 105.495 6.504C105.346 6.57867 105.17 6.584 104.967 6.52C104.562 6.392 104.13 6.24267 103.671 6.072C103.223 5.90133 102.759 5.72 102.279 5.528C101.938 5.4 101.65 5.27733 101.415 5.16C101.191 5.032 101.004 4.91467 100.855 4.808C100.716 4.70133 100.61 4.6 100.535 4.504C100.471 4.39733 100.423 4.296 100.391 4.2H100.375C100.343 4.296 100.29 4.39733 100.215 4.504C100.14 4.61067 100.028 4.72267 99.879 4.84C99.7403 4.94667 99.5537 5.064 99.319 5.192C99.095 5.30933 98.8123 5.432 98.471 5.56C97.991 5.752 97.5217 5.93333 97.063 6.104C96.615 6.27467 96.1937 6.424 95.799 6.552C95.5857 6.616 95.4043 6.60533 95.255 6.52C95.1057 6.43467 94.9937 6.30133 94.919 6.12C94.855 5.96 94.8497 5.78933 94.903 5.608C94.9563 5.416 95.079 5.29333 95.271 5.24C96.135 4.94133 97.0897 4.58933 98.135 4.184C98.679 3.97067 99.0523 3.74667 99.255 3.512C99.4577 3.26667 99.559 2.984 99.559 2.664V2.424H95.863C95.671 2.424 95.527 2.36 95.431 2.232C95.3457 2.09333 95.303 1.93333 95.303 1.752C95.303 1.57067 95.3457 1.416 95.431 1.288C95.527 1.14933 95.671 1.08 95.863 1.08H104.887ZM106.551 7.4C106.732 7.4 106.866 7.46933 106.951 7.608C107.047 7.736 107.095 7.89067 107.095 8.072C107.095 8.25333 107.047 8.41333 106.951 8.552C106.866 8.68 106.732 8.744 106.551 8.744H101.159V10.904H99.591V8.744H94.199C94.0177 8.744 93.879 8.68 93.783 8.552C93.6977 8.41333 93.655 8.25333 93.655 8.072C93.655 7.89067 93.6977 7.736 93.783 7.608C93.879 7.46933 94.0177 7.4 94.199 7.4H106.551ZM100.375 10.072C101.922 10.072 103.122 10.296 103.975 10.744C104.839 11.192 105.271 11.8853 105.271 12.824C105.271 13.7733 104.839 14.4667 103.975 14.904C103.122 15.352 101.922 15.576 100.375 15.576C98.8283 15.576 97.623 15.352 96.759 14.904C95.9057 14.4667 95.479 13.7733 95.479 12.824C95.479 11.8853 95.9057 11.192 96.759 10.744C97.623 10.296 98.8283 10.072 100.375 10.072ZM100.375 11.352C99.2123 11.352 98.3697 11.48 97.847 11.736C97.3243 11.9813 97.063 12.344 97.063 12.824C97.063 13.304 97.3243 13.6667 97.847 13.912C98.3697 14.168 99.2123 14.296 100.375 14.296C101.538 14.296 102.38 14.168 102.903 13.912C103.426 13.6667 103.687 13.304 103.687 12.824C103.687 12.344 103.426 11.9813 102.903 11.736C102.38 11.48 101.538 11.352 100.375 11.352ZM112.393 4.472C113.46 4.472 114.292 4.71733 114.889 5.208C115.497 5.688 115.801 6.33333 115.801 7.144C115.801 7.95467 115.497 8.60533 114.889 9.096C114.292 9.576 113.46 9.816 112.393 9.816C111.327 9.816 110.489 9.576 109.881 9.096C109.284 8.60533 108.985 7.95467 108.985 7.144C108.985 6.33333 109.284 5.688 109.881 5.208C110.489 4.71733 111.327 4.472 112.393 4.472ZM112.393 0.52C112.607 0.52 112.793 0.573333 112.953 0.679999C113.113 0.786666 113.193 0.957333 113.193 1.192V2.2H116.057C116.249 2.2 116.388 2.26933 116.473 2.408C116.569 2.54667 116.617 2.70667 116.617 2.888C116.617 3.06933 116.569 3.22933 116.473 3.368C116.388 3.50667 116.249 3.576 116.057 3.576H108.569C108.377 3.576 108.233 3.50667 108.137 3.368C108.052 3.22933 108.009 3.06933 108.009 2.888C108.009 2.70667 108.052 2.54667 108.137 2.408C108.233 2.26933 108.377 2.2 108.569 2.2H111.593V1.192C111.593 0.957333 111.673 0.786666 111.833 0.679999C112.004 0.573333 112.191 0.52 112.393 0.52ZM112.393 5.736C111.753 5.736 111.263 5.86933 110.921 6.136C110.591 6.392 110.425 6.728 110.425 7.144C110.425 7.54933 110.591 7.88533 110.921 8.152C111.263 8.41867 111.753 8.552 112.393 8.552C113.044 8.552 113.535 8.41867 113.865 8.152C114.196 7.88533 114.361 7.54933 114.361 7.144C114.361 6.728 114.196 6.392 113.865 6.136C113.535 5.86933 113.044 5.736 112.393 5.736ZM118.633 0.551999C118.847 0.551999 119.033 0.605333 119.193 0.712C119.353 0.818666 119.433 0.989333 119.433 1.224V4.824H121.209C121.412 4.824 121.556 4.89333 121.641 5.032C121.737 5.16 121.785 5.32 121.785 5.512C121.785 5.704 121.737 5.86933 121.641 6.008C121.556 6.136 121.412 6.2 121.209 6.2H119.433V10.856C119.433 11.0907 119.353 11.2613 119.193 11.368C119.033 11.4747 118.847 11.528 118.633 11.528C118.431 11.528 118.249 11.4747 118.089 11.368C117.929 11.2613 117.849 11.0907 117.849 10.856V1.224C117.849 0.989333 117.929 0.818666 118.089 0.712C118.249 0.605333 118.431 0.551999 118.633 0.551999ZM111.065 10.632C111.268 10.632 111.449 10.6853 111.609 10.792C111.78 10.8987 111.865 11.0693 111.865 11.304V13.4C111.865 13.5173 111.887 13.5973 111.929 13.64C111.983 13.6933 112.073 13.72 112.201 13.72H119.241C119.444 13.72 119.588 13.7893 119.673 13.928C119.769 14.0667 119.817 14.232 119.817 14.424C119.817 14.6053 119.769 14.7653 119.673 14.904C119.588 15.0427 119.444 15.112 119.241 15.112H111.481C111.012 15.112 110.687 15.0267 110.505 14.856C110.335 14.6853 110.249 14.3707 110.249 13.912V11.304C110.249 11.0693 110.329 10.8987 110.489 10.792C110.66 10.6853 110.852 10.632 111.065 10.632ZM132.396 1.368C132.865 1.368 133.185 1.45333 133.356 1.624C133.537 1.79467 133.628 2.10933 133.628 2.568V3.784C133.628 4.168 133.596 4.51467 133.532 4.824C133.479 5.12267 133.372 5.4 133.212 5.656C133.063 5.912 132.855 6.15733 132.588 6.392C132.321 6.62667 131.975 6.872 131.548 7.128C131.132 7.384 130.625 7.66133 130.028 7.96C129.431 8.25867 128.732 8.6 127.932 8.984C127.74 9.06933 127.553 9.07467 127.372 9C127.201 8.91467 127.073 8.78667 126.988 8.616C126.903 8.456 126.871 8.28 126.892 8.088C126.924 7.896 127.047 7.752 127.26 7.656C128.369 7.144 129.239 6.72267 129.868 6.392C130.508 6.05067 130.988 5.74667 131.308 5.48C131.628 5.21333 131.825 4.94667 131.9 4.68C131.985 4.41333 132.028 4.09333 132.028 3.72V3.08C132.028 2.96267 132.001 2.87733 131.948 2.824C131.905 2.77067 131.82 2.744 131.692 2.744H127.612C127.42 2.744 127.276 2.68 127.18 2.552C127.095 2.41333 127.052 2.25333 127.052 2.072C127.052 1.88 127.095 1.71467 127.18 1.576C127.276 1.43733 127.42 1.368 127.612 1.368H132.396ZM137.676 0.551999C137.879 0.551999 138.06 0.605333 138.22 0.712C138.38 0.818666 138.46 0.989333 138.46 1.224V9.448C138.46 9.68267 138.38 9.85333 138.22 9.96C138.06 10.0667 137.879 10.12 137.676 10.12C137.463 10.12 137.276 10.0667 137.116 9.96C136.956 9.85333 136.876 9.68267 136.876 9.448V5.384H133.1V4.024H136.876V1.224C136.876 0.989333 136.956 0.818666 137.116 0.712C137.276 0.605333 137.463 0.551999 137.676 0.551999ZM133.756 9.144C133.969 9.144 134.156 9.19733 134.316 9.304C134.476 9.41067 134.556 9.58133 134.556 9.816V10.408C134.556 10.6747 134.583 10.9093 134.636 11.112C134.689 11.3147 134.769 11.496 134.876 11.656C134.993 11.816 135.137 11.9653 135.308 12.104C135.479 12.2427 135.687 12.376 135.932 12.504C136.38 12.7493 136.833 12.984 137.292 13.208C137.761 13.432 138.241 13.6507 138.732 13.864C138.913 13.9493 139.02 14.0773 139.052 14.248C139.084 14.4293 139.057 14.6053 138.972 14.776C138.887 14.9467 138.764 15.0693 138.604 15.144C138.444 15.2187 138.268 15.2133 138.076 15.128C137.617 14.9253 137.18 14.7227 136.764 14.52C136.359 14.328 135.964 14.1253 135.58 13.912C134.951 13.5813 134.503 13.2987 134.236 13.064C133.98 12.84 133.825 12.6213 133.772 12.408H133.756C133.703 12.6213 133.543 12.8453 133.276 13.08C133.009 13.3253 132.561 13.6133 131.932 13.944C131.548 14.1573 131.148 14.36 130.732 14.552C130.327 14.7547 129.895 14.9573 129.436 15.16C129.244 15.2453 129.068 15.2507 128.908 15.176C128.748 15.1013 128.625 14.9787 128.54 14.808C128.455 14.6267 128.428 14.4453 128.46 14.264C128.492 14.0827 128.593 13.9493 128.764 13.864C129.265 13.6507 129.745 13.432 130.204 13.208C130.663 12.984 131.116 12.7493 131.564 12.504C131.809 12.376 132.017 12.2427 132.188 12.104C132.369 11.9653 132.513 11.816 132.62 11.656C132.737 11.496 132.823 11.3147 132.876 11.112C132.929 10.9093 132.956 10.6747 132.956 10.408V9.816C132.956 9.58133 133.036 9.41067 133.196 9.304C133.356 9.19733 133.543 9.144 133.756 9.144ZM147.423 0.919999C148.969 0.919999 150.164 1.16 151.007 1.64C151.86 2.12 152.287 2.85067 152.287 3.832C152.287 4.81333 151.86 5.544 151.007 6.024C150.164 6.504 148.969 6.744 147.423 6.744C145.876 6.744 144.676 6.504 143.823 6.024C142.98 5.544 142.559 4.81333 142.559 3.832C142.559 2.85067 142.98 2.12 143.823 1.64C144.676 1.16 145.876 0.919999 147.423 0.919999ZM147.423 2.232C146.271 2.232 145.433 2.376 144.911 2.664C144.399 2.94133 144.143 3.33067 144.143 3.832C144.143 4.33333 144.399 4.728 144.911 5.016C145.433 5.29333 146.271 5.432 147.423 5.432C148.575 5.432 149.407 5.29333 149.919 5.016C150.441 4.728 150.703 4.33333 150.703 3.832C150.703 3.33067 150.441 2.94133 149.919 2.664C149.407 2.376 148.575 2.232 147.423 2.232ZM153.583 8.12C153.775 8.12 153.913 8.18933 153.999 8.328C154.095 8.46667 154.143 8.62667 154.143 8.808C154.143 8.98933 154.095 9.14933 153.999 9.288C153.913 9.416 153.775 9.48 153.583 9.48H141.263C141.071 9.48 140.927 9.416 140.831 9.288C140.745 9.14933 140.703 8.98933 140.703 8.808C140.703 8.62667 140.745 8.46667 140.831 8.328C140.927 8.18933 141.071 8.12 141.263 8.12H153.583ZM143.327 10.632C143.54 10.632 143.727 10.6853 143.887 10.792C144.047 10.8987 144.127 11.0693 144.127 11.304V13.48C144.127 13.704 144.239 13.816 144.463 13.816H152.031C152.223 13.816 152.361 13.88 152.447 14.008C152.543 14.1467 152.591 14.3067 152.591 14.488C152.591 14.6693 152.543 14.8293 152.447 14.968C152.361 15.1067 152.223 15.176 152.031 15.176H143.743C143.273 15.176 142.953 15.0907 142.783 14.92C142.612 14.7493 142.527 14.4347 142.527 13.976V11.304C142.527 11.0693 142.607 10.8987 142.767 10.792C142.927 10.6853 143.113 10.632 143.327 10.632Z" fill="black"/>
</svg>
